<?xml version="1.0" encoding="UTF-8" standalone="no"?>
<!DOCTYPE svg PUBLIC "-//W3C//DTD SVG 1.1//EN"
 "http://www.w3.org/Graphics/SVG/1.1/DTD/svg11.dtd">
<!-- Generated by graphviz version 2.38.0 (20140413.2041)
 -->
<!-- Title: BattleshipRoyale.h Pages: 1 -->
<svg width="369pt" height="140pt"
 viewBox="0.00 0.00 369.00 140.00" xmlns="http://www.w3.org/2000/svg" xmlns:xlink="http://www.w3.org/1999/xlink">
<g id="graph0" class="graph" transform="scale(1 1) rotate(0) translate(4 136)">
<title>BattleshipRoyale.h</title>
<polygon fill="white" stroke="none" points="-4,4 -4,-136 365,-136 365,4 -4,4"/>
<!-- Node1 -->
<g id="node1" class="node"><title>Node1</title>
<g id="a_node1"><a xlink:title="Заголовочный файл с пространством имён, которое хранит в себе константы.">
<polygon fill="#bfbfbf" stroke="black" points="158.5,-112.5 158.5,-131.5 256.5,-131.5 256.5,-112.5 158.5,-112.5"/>
<text text-anchor="middle" x="207.5" y="-119.5" font-family="Helvetica,sans-Serif" font-size="10.00">BattleshipRoyale.h</text>
</a>
</g>
</g>
<!-- Node2 -->
<g id="node2" class="node"><title>Node2</title>
<g id="a_node2"><a xlink:href="$client_2src_2_battleship_royale_8cpp.html" xlink:title=" ">
<polygon fill="white" stroke="black" points="0,-56.5 0,-75.5 109,-75.5 109,-56.5 0,-56.5"/>
<text text-anchor="middle" x="54.5" y="-63.5" font-family="Helvetica,sans-Serif" font-size="10.00">BattleshipRoyale.cpp</text>
</a>
</g>
</g>
<!-- Node1&#45;&gt;Node2 -->
<g id="edge1" class="edge"><title>Node1&#45;&gt;Node2</title>
<path fill="none" stroke="midnightblue" d="M173.611,-109.039C144.823,-98.8786 104.213,-84.5457 78.6299,-75.5164"/>
<polygon fill="midnightblue" stroke="midnightblue" points="172.662,-112.416 183.257,-112.444 174.992,-105.815 172.662,-112.416"/>
</g>
<!-- Node3 -->
<g id="node3" class="node"><title>Node3</title>
<g id="a_node3"><a xlink:href="$server_2src_2_battleship_royale_8cpp.html" xlink:title="Сервер">
<polygon fill="white" stroke="black" points="37,-0.5 37,-19.5 146,-19.5 146,-0.5 37,-0.5"/>
<text text-anchor="middle" x="91.5" y="-7.5" font-family="Helvetica,sans-Serif" font-size="10.00">BattleshipRoyale.cpp</text>
</a>
</g>
</g>
<!-- Node1&#45;&gt;Node3 -->
<g id="edge2" class="edge"><title>Node1&#45;&gt;Node3</title>
<path fill="none" stroke="midnightblue" d="M189.554,-105.648C179.669,-97.0719 167.258,-86.1062 156.5,-76 135.564,-56.3312 111.934,-32.1867 99.7491,-19.5843"/>
<polygon fill="midnightblue" stroke="midnightblue" points="187.314,-108.338 197.172,-112.219 191.886,-103.037 187.314,-108.338"/>
</g>
<!-- Node4 -->
<g id="node4" class="node"><title>Node4</title>
<g id="a_node4"><a xlink:href="$_d_b_8h.html" xlink:title=" ">
<polygon fill="white" stroke="black" points="165.5,-56.5 165.5,-75.5 203.5,-75.5 203.5,-56.5 165.5,-56.5"/>
<text text-anchor="middle" x="184.5" y="-63.5" font-family="Helvetica,sans-Serif" font-size="10.00">DB.h</text>
</a>
</g>
</g>
<!-- Node1&#45;&gt;Node4 -->
<g id="edge3" class="edge"><title>Node1&#45;&gt;Node4</title>
<path fill="none" stroke="midnightblue" d="M199.701,-102.69C195.825,-93.589 191.321,-83.0141 188.227,-75.7511"/>
<polygon fill="midnightblue" stroke="midnightblue" points="196.563,-104.254 203.702,-112.083 203.003,-101.511 196.563,-104.254"/>
</g>
<!-- Node5 -->
<g id="node5" class="node"><title>Node5</title>
<g id="a_node5"><a xlink:href="$server_2src_2con__handler_8cpp.html" xlink:title=" ">
<polygon fill="white" stroke="black" points="164.5,-0.5 164.5,-19.5 252.5,-19.5 252.5,-0.5 164.5,-0.5"/>
<text text-anchor="middle" x="208.5" y="-7.5" font-family="Helvetica,sans-Serif" font-size="10.00">con_handler.cpp</text>
</a>
</g>
</g>
<!-- Node1&#45;&gt;Node5 -->
<g id="edge7" class="edge"><title>Node1&#45;&gt;Node5</title>
<path fill="none" stroke="midnightblue" d="M210.054,-102.233C211.029,-94.1748 212.021,-84.642 212.5,-76 213.613,-55.906 211.244,-32.3303 209.698,-19.8294"/>
<polygon fill="midnightblue" stroke="midnightblue" points="206.552,-102.031 208.742,-112.397 213.494,-102.927 206.552,-102.031"/>
</g>
<!-- Node6 -->
<g id="node6" class="node"><title>Node6</title>
<g id="a_node6"><a xlink:href="$_d_b_8cpp.html" xlink:title=" ">
<polygon fill="white" stroke="black" points="271,-0.5 271,-19.5 320,-19.5 320,-0.5 271,-0.5"/>
<text text-anchor="middle" x="295.5" y="-7.5" font-family="Helvetica,sans-Serif" font-size="10.00">DB.cpp</text>
</a>
</g>
</g>
<!-- Node1&#45;&gt;Node6 -->
<g id="edge8" class="edge"><title>Node1&#45;&gt;Node6</title>
<path fill="none" stroke="midnightblue" d="M220.882,-104.272C239.905,-80.4942 274.069,-37.7889 288.627,-19.5914"/>
<polygon fill="midnightblue" stroke="midnightblue" points="217.919,-102.373 214.405,-112.368 223.385,-106.746 217.919,-102.373"/>
</g>
<!-- Node7 -->
<g id="node7" class="node"><title>Node7</title>
<g id="a_node7"><a xlink:href="$server_2src_2regex_8cpp.html" xlink:title="Работа с регулярными выражениями">
<polygon fill="white" stroke="black" points="298,-56.5 298,-75.5 361,-75.5 361,-56.5 298,-56.5"/>
<text text-anchor="middle" x="329.5" y="-63.5" font-family="Helvetica,sans-Serif" font-size="10.00">Regex.cpp</text>
</a>
</g>
</g>
<!-- Node1&#45;&gt;Node7 -->
<g id="edge9" class="edge"><title>Node1&#45;&gt;Node7</title>
<path fill="none" stroke="midnightblue" d="M236.039,-108.368C258.886,-98.2553 290.305,-84.3486 310.259,-75.5164"/>
<polygon fill="midnightblue" stroke="midnightblue" points="234.559,-105.196 226.831,-112.444 237.392,-111.597 234.559,-105.196"/>
</g>
<!-- Node4&#45;&gt;Node3 -->
<g id="edge4" class="edge"><title>Node4&#45;&gt;Node3</title>
<path fill="none" stroke="midnightblue" d="M160.694,-51.1774C143.581,-41.2407 121.035,-28.1492 106.405,-19.6545"/>
<polygon fill="midnightblue" stroke="midnightblue" points="159.153,-54.3293 169.558,-56.324 162.668,-48.2758 159.153,-54.3293"/>
</g>
<!-- Node4&#45;&gt;Node5 -->
<g id="edge5" class="edge"><title>Node4&#45;&gt;Node5</title>
<path fill="none" stroke="midnightblue" d="M192.638,-46.6897C196.683,-37.589 201.383,-27.0141 204.611,-19.7511"/>
<polygon fill="midnightblue" stroke="midnightblue" points="189.326,-45.5234 188.463,-56.083 195.723,-48.3664 189.326,-45.5234"/>
</g>
<!-- Node4&#45;&gt;Node6 -->
<g id="edge6" class="edge"><title>Node4&#45;&gt;Node6</title>
<path fill="none" stroke="midnightblue" d="M211.505,-51.8622C232.088,-41.8492 259.845,-28.3458 277.71,-19.6545"/>
<polygon fill="midnightblue" stroke="midnightblue" points="209.795,-48.8019 202.334,-56.324 212.858,-55.0966 209.795,-48.8019"/>
</g>
</g>
</svg>
