<?xml version="1.0" encoding="UTF-8" standalone="no"?>
<!DOCTYPE svg PUBLIC "-//W3C//DTD SVG 1.1//EN"
 "http://www.w3.org/Graphics/SVG/1.1/DTD/svg11.dtd">
<!-- Generated by graphviz version 2.38.0 (20140413.2041)
 -->
<!-- Title: DB.h Pages: 1 -->
<svg width="178pt" height="84pt"
 viewBox="0.00 0.00 177.50 84.00" xmlns="http://www.w3.org/2000/svg" xmlns:xlink="http://www.w3.org/1999/xlink">
<g id="graph0" class="graph" transform="scale(1 1) rotate(0) translate(4 80)">
<title>DB.h</title>
<polygon fill="white" stroke="none" points="-4,4 -4,-80 173.5,-80 173.5,4 -4,4"/>
<!-- Node0 -->
<g id="node1" class="node"><title>Node0</title>
<g id="a_node1"><a xlink:title="Работа с базой данных">
<polygon fill="#bfbfbf" stroke="black" points="54.5,-56.5 54.5,-75.5 92.5,-75.5 92.5,-56.5 54.5,-56.5"/>
<text text-anchor="middle" x="73.5" y="-63.5" font-family="Helvetica,sans-Serif" font-size="10.00">DB.h</text>
</a>
</g>
</g>
<!-- Node1 -->
<g id="node2" class="node"><title>Node1</title>
<g id="a_node2"><a xlink:title=" ">
<polygon fill="white" stroke="#bfbfbf" points="0,-0.5 0,-19.5 53,-19.5 53,-0.5 0,-0.5"/>
<text text-anchor="middle" x="26.5" y="-7.5" font-family="Helvetica,sans-Serif" font-size="10.00">sqlite3.h</text>
</a>
</g>
</g>
<!-- Node0&#45;&gt;Node1 -->
<g id="edge1" class="edge"><title>Node0&#45;&gt;Node1</title>
<path fill="none" stroke="midnightblue" d="M65.7389,-56.083C58.9632,-48.2982 48.9568,-36.8015 40.7449,-27.3665"/>
<polygon fill="midnightblue" stroke="midnightblue" points="43.322,-24.9963 34.1167,-19.7511 38.0419,-29.592 43.322,-24.9963"/>
</g>
<!-- Node2 -->
<g id="node3" class="node"><title>Node2</title>
<g id="a_node3"><a xlink:href="$_battleship_royale_8h.html" xlink:title="Заголовочный файл с пространством имён, которое хранит в себе константы.">
<polygon fill="white" stroke="black" points="71.5,-0.5 71.5,-19.5 169.5,-19.5 169.5,-0.5 71.5,-0.5"/>
<text text-anchor="middle" x="120.5" y="-7.5" font-family="Helvetica,sans-Serif" font-size="10.00">BattleshipRoyale.h</text>
</a>
</g>
</g>
<!-- Node0&#45;&gt;Node2 -->
<g id="edge2" class="edge"><title>Node0&#45;&gt;Node2</title>
<path fill="none" stroke="midnightblue" d="M81.2611,-56.083C88.0368,-48.2982 98.0432,-36.8015 106.255,-27.3665"/>
<polygon fill="midnightblue" stroke="midnightblue" points="108.958,-29.592 112.883,-19.7511 103.678,-24.9963 108.958,-29.592"/>
</g>
</g>
</svg>
