<?xml version="1.0" encoding="UTF-8" standalone="no"?>
<!DOCTYPE svg PUBLIC "-//W3C//DTD SVG 1.1//EN"
 "http://www.w3.org/Graphics/SVG/1.1/DTD/svg11.dtd">
<!-- Generated by graphviz version 2.38.0 (20140413.2041)
 -->
<!-- Title: Server.cpp Pages: 1 -->
<svg width="228pt" height="207pt"
 viewBox="0.00 0.00 228.00 207.00" xmlns="http://www.w3.org/2000/svg" xmlns:xlink="http://www.w3.org/1999/xlink">
<g id="graph0" class="graph" transform="scale(1 1) rotate(0) translate(4 203)">
<title>Server.cpp</title>
<polygon fill="white" stroke="none" points="-4,4 -4,-203 224,-203 224,4 -4,4"/>
<!-- Node0 -->
<g id="node1" class="node"><title>Node0</title>
<g id="a_node1"><a xlink:title=" ">
<polygon fill="#bfbfbf" stroke="black" points="107,-179.5 107,-198.5 169,-198.5 169,-179.5 107,-179.5"/>
<text text-anchor="middle" x="138" y="-186.5" font-family="Helvetica,sans-Serif" font-size="10.00">Server.cpp</text>
</a>
</g>
</g>
<!-- Node1 -->
<g id="node2" class="node"><title>Node1</title>
<g id="a_node2"><a xlink:href="$asio_2server_2_server_8h.html" xlink:title=" ">
<polygon fill="white" stroke="black" points="70,-123.5 70,-142.5 122,-142.5 122,-123.5 70,-123.5"/>
<text text-anchor="middle" x="96" y="-130.5" font-family="Helvetica,sans-Serif" font-size="10.00">Server.h</text>
</a>
</g>
</g>
<!-- Node0&#45;&gt;Node1 -->
<g id="edge1" class="edge"><title>Node0&#45;&gt;Node1</title>
<path fill="none" stroke="midnightblue" d="M131.065,-179.083C125.071,-171.377 116.248,-160.033 108.952,-150.653"/>
<polygon fill="midnightblue" stroke="midnightblue" points="111.709,-148.496 102.806,-142.751 106.183,-152.793 111.709,-148.496"/>
</g>
<!-- Node5 -->
<g id="node6" class="node"><title>Node5</title>
<g id="a_node6"><a xlink:title=" ">
<polygon fill="white" stroke="#bfbfbf" points="140,-123.5 140,-142.5 220,-142.5 220,-123.5 140,-123.5"/>
<text text-anchor="middle" x="180" y="-130.5" font-family="Helvetica,sans-Serif" font-size="10.00">boost/bind.hpp</text>
</a>
</g>
</g>
<!-- Node0&#45;&gt;Node5 -->
<g id="edge5" class="edge"><title>Node0&#45;&gt;Node5</title>
<path fill="none" stroke="midnightblue" d="M144.935,-179.083C150.929,-171.377 159.752,-160.033 167.048,-150.653"/>
<polygon fill="midnightblue" stroke="midnightblue" points="169.817,-152.793 173.194,-142.751 164.291,-148.496 169.817,-152.793"/>
</g>
<!-- Node2 -->
<g id="node3" class="node"><title>Node2</title>
<g id="a_node3"><a xlink:href="$asio_2server_2con__handler_8h.html" xlink:title=" ">
<polygon fill="white" stroke="black" points="57.5,-67.5 57.5,-86.5 134.5,-86.5 134.5,-67.5 57.5,-67.5"/>
<text text-anchor="middle" x="96" y="-74.5" font-family="Helvetica,sans-Serif" font-size="10.00">con_handler.h</text>
</a>
</g>
</g>
<!-- Node1&#45;&gt;Node2 -->
<g id="edge2" class="edge"><title>Node1&#45;&gt;Node2</title>
<path fill="none" stroke="midnightblue" d="M96,-123.083C96,-116.006 96,-105.861 96,-96.9865"/>
<polygon fill="midnightblue" stroke="midnightblue" points="99.5001,-96.751 96,-86.7511 92.5001,-96.7511 99.5001,-96.751"/>
</g>
<!-- Node3 -->
<g id="node4" class="node"><title>Node3</title>
<g id="a_node4"><a xlink:title=" ">
<polygon fill="white" stroke="#bfbfbf" points="0,-6 0,-25 80,-25 80,-6 0,-6"/>
<text text-anchor="middle" x="40" y="-13" font-family="Helvetica,sans-Serif" font-size="10.00">boost/asio.hpp</text>
</a>
</g>
</g>
<!-- Node2&#45;&gt;Node3 -->
<g id="edge3" class="edge"><title>Node2&#45;&gt;Node3</title>
<path fill="none" stroke="midnightblue" d="M87.9766,-67.4751C79.4102,-58.3733 65.6386,-43.741 55.0428,-32.483"/>
<polygon fill="midnightblue" stroke="midnightblue" points="57.4109,-29.8923 48.0086,-25.0091 52.3135,-34.6899 57.4109,-29.8923"/>
</g>
<!-- Node4 -->
<g id="node5" class="node"><title>Node4</title>
<g id="a_node5"><a xlink:title=" ">
<polygon fill="white" stroke="#bfbfbf" points="98.5,-0.5 98.5,-30.5 205.5,-30.5 205.5,-0.5 98.5,-0.5"/>
<text text-anchor="start" x="106.5" y="-18.5" font-family="Helvetica,sans-Serif" font-size="10.00">boost/enable_shared</text>
<text text-anchor="middle" x="152" y="-7.5" font-family="Helvetica,sans-Serif" font-size="10.00">_from_this.hpp</text>
</a>
</g>
</g>
<!-- Node2&#45;&gt;Node4 -->
<g id="edge4" class="edge"><title>Node2&#45;&gt;Node4</title>
<path fill="none" stroke="midnightblue" d="M104.023,-67.4751C111.253,-59.7932 122.191,-48.1717 131.798,-37.9643"/>
<polygon fill="midnightblue" stroke="midnightblue" points="134.497,-40.2038 138.802,-30.523 129.4,-35.4062 134.497,-40.2038"/>
</g>
</g>
</svg>
