<?xml version="1.0" encoding="UTF-8" standalone="no"?>
<!DOCTYPE svg PUBLIC "-//W3C//DTD SVG 1.1//EN"
 "http://www.w3.org/Graphics/SVG/1.1/DTD/svg11.dtd">
<!-- Generated by graphviz version 2.38.0 (20140413.2041)
 -->
<!-- Title: BattleshipRoyale.cpp Pages: 1 -->
<svg width="572pt" height="95pt"
 viewBox="0.00 0.00 571.50 95.00" xmlns="http://www.w3.org/2000/svg" xmlns:xlink="http://www.w3.org/1999/xlink">
<g id="graph0" class="graph" transform="scale(1 1) rotate(0) translate(4 91)">
<title>BattleshipRoyale.cpp</title>
<polygon fill="white" stroke="none" points="-4,4 -4,-91 567.5,-91 567.5,4 -4,4"/>
<!-- Node0 -->
<g id="node1" class="node"><title>Node0</title>
<g id="a_node1"><a xlink:title=" ">
<polygon fill="#bfbfbf" stroke="black" points="201,-67.5 201,-86.5 310,-86.5 310,-67.5 201,-67.5"/>
<text text-anchor="middle" x="255.5" y="-74.5" font-family="Helvetica,sans-Serif" font-size="10.00">BattleshipRoyale.cpp</text>
</a>
</g>
</g>
<!-- Node1 -->
<g id="node2" class="node"><title>Node1</title>
<g id="a_node2"><a xlink:title=" ">
<polygon fill="white" stroke="#bfbfbf" points="0,-6 0,-25 41,-25 41,-6 0,-6"/>
<text text-anchor="middle" x="20.5" y="-13" font-family="Helvetica,sans-Serif" font-size="10.00">string</text>
</a>
</g>
</g>
<!-- Node0&#45;&gt;Node1 -->
<g id="edge1" class="edge"><title>Node0&#45;&gt;Node1</title>
<path fill="none" stroke="midnightblue" d="M200.591,-67.5499C158.75,-60.2525 100.085,-48.1592 50.5,-31 48.8839,-30.4407 47.241,-29.8173 45.599,-29.1519"/>
<polygon fill="midnightblue" stroke="midnightblue" points="46.9559,-25.9247 36.3982,-25.038 44.0986,-32.315 46.9559,-25.9247"/>
</g>
<!-- Node2 -->
<g id="node3" class="node"><title>Node2</title>
<g id="a_node3"><a xlink:title=" ">
<polygon fill="white" stroke="#bfbfbf" points="59.5,-6 59.5,-25 139.5,-25 139.5,-6 59.5,-6"/>
<text text-anchor="middle" x="99.5" y="-13" font-family="Helvetica,sans-Serif" font-size="10.00">boost/asio.hpp</text>
</a>
</g>
</g>
<!-- Node0&#45;&gt;Node2 -->
<g id="edge2" class="edge"><title>Node0&#45;&gt;Node2</title>
<path fill="none" stroke="midnightblue" d="M233.149,-67.4751C206.505,-57.3129 161.786,-40.2564 131.486,-28.6996"/>
<polygon fill="midnightblue" stroke="midnightblue" points="132.4,-25.3026 121.81,-25.0091 129.906,-31.843 132.4,-25.3026"/>
</g>
<!-- Node3 -->
<g id="node4" class="node"><title>Node3</title>
<g id="a_node4"><a xlink:title=" ">
<polygon fill="white" stroke="#bfbfbf" points="158,-6 158,-25 243,-25 243,-6 158,-6"/>
<text text-anchor="middle" x="200.5" y="-13" font-family="Helvetica,sans-Serif" font-size="10.00">spdlog/spdlog.h</text>
</a>
</g>
</g>
<!-- Node0&#45;&gt;Node3 -->
<g id="edge3" class="edge"><title>Node0&#45;&gt;Node3</title>
<path fill="none" stroke="midnightblue" d="M247.62,-67.4751C239.206,-58.3733 225.681,-43.741 215.274,-32.483"/>
<polygon fill="midnightblue" stroke="midnightblue" points="217.724,-29.9766 208.366,-25.0091 212.583,-34.7282 217.724,-29.9766"/>
</g>
<!-- Node4 -->
<g id="node5" class="node"><title>Node4</title>
<g id="a_node5"><a xlink:title=" ">
<polygon fill="white" stroke="#bfbfbf" points="261.5,-0.5 261.5,-30.5 359.5,-30.5 359.5,-0.5 261.5,-0.5"/>
<text text-anchor="start" x="269.5" y="-18.5" font-family="Helvetica,sans-Serif" font-size="10.00">spdlog/sinks/basic</text>
<text text-anchor="middle" x="310.5" y="-7.5" font-family="Helvetica,sans-Serif" font-size="10.00">_file_sink.h</text>
</a>
</g>
</g>
<!-- Node0&#45;&gt;Node4 -->
<g id="edge4" class="edge"><title>Node0&#45;&gt;Node4</title>
<path fill="none" stroke="midnightblue" d="M263.38,-67.4751C270.481,-59.7932 281.224,-48.1717 290.659,-37.9643"/>
<polygon fill="midnightblue" stroke="midnightblue" points="293.32,-40.2421 297.538,-30.523 288.179,-35.4905 293.32,-40.2421"/>
</g>
<!-- Node5 -->
<g id="node6" class="node"><title>Node5</title>
<g id="a_node6"><a xlink:title=" ">
<polygon fill="white" stroke="#bfbfbf" points="377.5,-6 377.5,-25 447.5,-25 447.5,-6 377.5,-6"/>
<text text-anchor="middle" x="412.5" y="-13" font-family="Helvetica,sans-Serif" font-size="10.00">cxxopts.hpp</text>
</a>
</g>
</g>
<!-- Node0&#45;&gt;Node5 -->
<g id="edge5" class="edge"><title>Node0&#45;&gt;Node5</title>
<path fill="none" stroke="midnightblue" d="M277.994,-67.4751C304.809,-57.3129 349.815,-40.2564 380.309,-28.6996"/>
<polygon fill="midnightblue" stroke="midnightblue" points="381.937,-31.8258 390.047,-25.0091 379.456,-25.2801 381.937,-31.8258"/>
</g>
<!-- Node6 -->
<g id="node7" class="node"><title>Node6</title>
<g id="a_node7"><a xlink:href="$_battleship_royale_8h.html" xlink:title="Заголовочный файл с пространством имён, которое хранит в себе константы.">
<polygon fill="white" stroke="black" points="465.5,-6 465.5,-25 563.5,-25 563.5,-6 465.5,-6"/>
<text text-anchor="middle" x="514.5" y="-13" font-family="Helvetica,sans-Serif" font-size="10.00">BattleshipRoyale.h</text>
</a>
</g>
</g>
<!-- Node0&#45;&gt;Node6 -->
<g id="edge6" class="edge"><title>Node0&#45;&gt;Node6</title>
<path fill="none" stroke="midnightblue" d="M294.851,-67.4914C335.421,-58.6487 400.478,-44.2718 456.5,-31 461.177,-29.8919 466.061,-28.7102 470.922,-27.5177"/>
<polygon fill="midnightblue" stroke="midnightblue" points="471.931,-30.8738 480.798,-25.0752 470.25,-24.0786 471.931,-30.8738"/>
</g>
</g>
</svg>
