<?xml version="1.0" encoding="UTF-8" standalone="no"?>
<!DOCTYPE svg PUBLIC "-//W3C//DTD SVG 1.1//EN"
 "http://www.w3.org/Graphics/SVG/1.1/DTD/svg11.dtd">
<!-- Generated by graphviz version 2.38.0 (20140413.2041)
 -->
<!-- Title: client.cpp Pages: 1 -->
<svg width="368pt" height="95pt"
 viewBox="0.00 0.00 367.50 95.00" xmlns="http://www.w3.org/2000/svg" xmlns:xlink="http://www.w3.org/1999/xlink">
<g id="graph0" class="graph" transform="scale(1 1) rotate(0) translate(4 91)">
<title>client.cpp</title>
<polygon fill="white" stroke="none" points="-4,4 -4,-91 363.5,-91 363.5,4 -4,4"/>
<!-- Node0 -->
<g id="node1" class="node"><title>Node0</title>
<g id="a_node1"><a xlink:title=" ">
<polygon fill="#bfbfbf" stroke="black" points="120,-67.5 120,-86.5 179,-86.5 179,-67.5 120,-67.5"/>
<text text-anchor="middle" x="149.5" y="-74.5" font-family="Helvetica,sans-Serif" font-size="10.00">client.cpp</text>
</a>
</g>
</g>
<!-- Node1 -->
<g id="node2" class="node"><title>Node1</title>
<g id="a_node2"><a xlink:title=" ">
<polygon fill="white" stroke="#bfbfbf" points="0,-6 0,-25 41,-25 41,-6 0,-6"/>
<text text-anchor="middle" x="20.5" y="-13" font-family="Helvetica,sans-Serif" font-size="10.00">string</text>
</a>
</g>
</g>
<!-- Node0&#45;&gt;Node1 -->
<g id="edge1" class="edge"><title>Node0&#45;&gt;Node1</title>
<path fill="none" stroke="midnightblue" d="M130.088,-67.3393C110.083,-58.3755 78.0215,-43.9037 50.5,-31 49.351,-30.4613 48.1786,-29.9084 46.9953,-29.3478"/>
<polygon fill="midnightblue" stroke="midnightblue" points="48.4479,-26.1628 37.9167,-25.0038 45.4266,-32.4772 48.4479,-26.1628"/>
</g>
<!-- Node2 -->
<g id="node3" class="node"><title>Node2</title>
<g id="a_node3"><a xlink:title=" ">
<polygon fill="white" stroke="#bfbfbf" points="59.5,-6 59.5,-25 139.5,-25 139.5,-6 59.5,-6"/>
<text text-anchor="middle" x="99.5" y="-13" font-family="Helvetica,sans-Serif" font-size="10.00">boost/asio.hpp</text>
</a>
</g>
</g>
<!-- Node0&#45;&gt;Node2 -->
<g id="edge2" class="edge"><title>Node0&#45;&gt;Node2</title>
<path fill="none" stroke="midnightblue" d="M142.336,-67.4751C134.762,-58.4617 122.63,-44.0246 113.207,-32.8118"/>
<polygon fill="midnightblue" stroke="midnightblue" points="115.763,-30.4132 106.65,-25.0091 110.404,-34.9166 115.763,-30.4132"/>
</g>
<!-- Node3 -->
<g id="node4" class="node"><title>Node3</title>
<g id="a_node4"><a xlink:title=" ">
<polygon fill="white" stroke="#bfbfbf" points="158,-6 158,-25 243,-25 243,-6 158,-6"/>
<text text-anchor="middle" x="200.5" y="-13" font-family="Helvetica,sans-Serif" font-size="10.00">spdlog/spdlog.h</text>
</a>
</g>
</g>
<!-- Node0&#45;&gt;Node3 -->
<g id="edge3" class="edge"><title>Node0&#45;&gt;Node3</title>
<path fill="none" stroke="midnightblue" d="M156.807,-67.4751C164.533,-58.4617 176.908,-44.0246 186.518,-32.8118"/>
<polygon fill="midnightblue" stroke="midnightblue" points="189.356,-34.8795 193.206,-25.0091 184.041,-30.3239 189.356,-34.8795"/>
</g>
<!-- Node4 -->
<g id="node5" class="node"><title>Node4</title>
<g id="a_node5"><a xlink:title=" ">
<polygon fill="white" stroke="#bfbfbf" points="261.5,-0.5 261.5,-30.5 359.5,-30.5 359.5,-0.5 261.5,-0.5"/>
<text text-anchor="start" x="269.5" y="-18.5" font-family="Helvetica,sans-Serif" font-size="10.00">spdlog/sinks/basic</text>
<text text-anchor="middle" x="310.5" y="-7.5" font-family="Helvetica,sans-Serif" font-size="10.00">_file_sink.h</text>
</a>
</g>
</g>
<!-- Node0&#45;&gt;Node4 -->
<g id="edge4" class="edge"><title>Node0&#45;&gt;Node4</title>
<path fill="none" stroke="midnightblue" d="M172.567,-67.4751C196.105,-58.7765 233.311,-45.0264 263.152,-33.9981"/>
<polygon fill="midnightblue" stroke="midnightblue" points="264.389,-37.2725 272.555,-30.523 261.962,-30.7066 264.389,-37.2725"/>
</g>
</g>
</svg>
