<?xml version="1.0" encoding="UTF-8" standalone="no"?>
<!DOCTYPE svg PUBLIC "-//W3C//DTD SVG 1.1//EN"
 "http://www.w3.org/Graphics/SVG/1.1/DTD/svg11.dtd">
<!-- Generated by graphviz version 2.38.0 (20140413.2041)
 -->
<!-- Title: Server Pages: 1 -->
<svg width="195pt" height="175pt"
 viewBox="0.00 0.00 195.00 175.00" xmlns="http://www.w3.org/2000/svg" xmlns:xlink="http://www.w3.org/1999/xlink">
<g id="graph0" class="graph" transform="scale(1 1) rotate(0) translate(4 171)">
<title>Server</title>
<polygon fill="white" stroke="none" points="-4,4 -4,-171 191,-171 191,4 -4,4"/>
<!-- Node0 -->
<g id="node1" class="node"><title>Node0</title>
<g id="a_node1"><a xlink:title="Сервер">
<polygon fill="#bfbfbf" stroke="black" points="44,-93 0,-93 0,-74 44,-74 44,-93"/>
<text text-anchor="middle" x="22" y="-81" font-family="Helvetica,sans-Serif" font-size="10.00">Server</text>
</a>
</g>
</g>
<!-- Node2 -->
<g id="node2" class="node"><title>Node2</title>
<g id="a_node2"><a xlink:href="$group__rand__ssecpp.html" xlink:title=" ">
<polygon fill="white" stroke="black" points="171,-167 96,-167 96,-148 171,-148 171,-167"/>
<text text-anchor="middle" x="133.5" y="-155" font-family="Helvetica,sans-Serif" font-size="10.00">rand_sse.cpp</text>
</a>
</g>
</g>
<!-- Node0&#45;&gt;Node2 -->
<g id="edge2" class="edge"><title>Node0&#45;&gt;Node2</title>
<path fill="none" stroke="black" d="M37.0141,-100.927C47.675,-113.19 63.3151,-129.192 80,-139.5 85.4101,-142.843 91.5202,-145.658 97.6097,-147.996"/>
<polygon fill="black" stroke="black" points="39.5911,-98.5537 30.4774,-93.1509 34.2327,-103.058 39.5911,-98.5537"/>
</g>
<!-- Node5 -->
<g id="node3" class="node"><title>Node5</title>
<g id="a_node3"><a xlink:href="$group__regexh.html" xlink:title=" ">
<polygon fill="white" stroke="black" points="160,-130 107,-130 107,-111 160,-111 160,-130"/>
<text text-anchor="middle" x="133.5" y="-118" font-family="Helvetica,sans-Serif" font-size="10.00">Regex.h</text>
</a>
</g>
</g>
<!-- Node0&#45;&gt;Node5 -->
<g id="edge5" class="edge"><title>Node0&#45;&gt;Node5</title>
<path fill="none" stroke="black" d="M53.9621,-93.9621C70.6593,-99.604 91.0207,-106.484 106.827,-111.825"/>
<polygon fill="black" stroke="black" points="54.7069,-90.5194 44.1127,-90.634 52.466,-97.151 54.7069,-90.5194"/>
</g>
<!-- Node3 -->
<g id="node4" class="node"><title>Node3</title>
<g id="a_node4"><a xlink:href="$group__rand__sseh.html" xlink:title=" ">
<polygon fill="white" stroke="black" points="166,-93 101,-93 101,-74 166,-74 166,-93"/>
<text text-anchor="middle" x="133.5" y="-81" font-family="Helvetica,sans-Serif" font-size="10.00">rand_sse.h</text>
</a>
</g>
</g>
<!-- Node0&#45;&gt;Node3 -->
<g id="edge3" class="edge"><title>Node0&#45;&gt;Node3</title>
<path fill="none" stroke="black" d="M54.1493,-83.5C68.7076,-83.5 86.0191,-83.5 100.663,-83.5"/>
<polygon fill="black" stroke="black" points="54.1127,-80.0001 44.1127,-83.5 54.1127,-87.0001 54.1127,-80.0001"/>
</g>
<!-- Node1 -->
<g id="node5" class="node"><title>Node1</title>
<g id="a_node5"><a xlink:href="$group__battleshiproyalecpp.html" xlink:title=" ">
<polygon fill="white" stroke="black" points="187,-56 80,-56 80,-37 187,-37 187,-56"/>
<text text-anchor="middle" x="133.5" y="-44" font-family="Helvetica,sans-Serif" font-size="10.00">BattleShiproyale.cpp</text>
</a>
</g>
</g>
<!-- Node0&#45;&gt;Node1 -->
<g id="edge1" class="edge"><title>Node0&#45;&gt;Node1</title>
<path fill="none" stroke="black" d="M53.9063,-73.0568C69.6342,-67.7423 88.6247,-61.3254 103.998,-56.1308"/>
<polygon fill="black" stroke="black" points="52.466,-69.849 44.1127,-76.366 54.7069,-76.4806 52.466,-69.849"/>
</g>
<!-- Node4 -->
<g id="node6" class="node"><title>Node4</title>
<g id="a_node6"><a xlink:href="$group__regexcpp.html" xlink:title=" ">
<polygon fill="white" stroke="black" points="165,-19 102,-19 102,-0 165,-0 165,-19"/>
<text text-anchor="middle" x="133.5" y="-7" font-family="Helvetica,sans-Serif" font-size="10.00">Regex.cpp</text>
</a>
</g>
</g>
<!-- Node0&#45;&gt;Node4 -->
<g id="edge4" class="edge"><title>Node0&#45;&gt;Node4</title>
<path fill="none" stroke="black" d="M37.4976,-66.0647C48.2019,-54.1228 63.6911,-38.6657 80,-28.5 86.663,-24.3468 94.3655,-20.9196 101.783,-18.1749"/>
<polygon fill="black" stroke="black" points="34.8141,-63.817 30.9001,-73.6624 40.0995,-68.4066 34.8141,-63.817"/>
</g>
</g>
</svg>
