<?xml version="1.0" encoding="UTF-8" standalone="no"?>
<!DOCTYPE svg PUBLIC "-//W3C//DTD SVG 1.1//EN"
 "http://www.w3.org/Graphics/SVG/1.1/DTD/svg11.dtd">
<!-- Generated by graphviz version 2.38.0 (20140413.2041)
 -->
<!-- Title: Server Pages: 1 -->
<svg width="195pt" height="101pt"
 viewBox="0.00 0.00 195.00 101.00" xmlns="http://www.w3.org/2000/svg" xmlns:xlink="http://www.w3.org/1999/xlink">
<g id="graph0" class="graph" transform="scale(1 1) rotate(0) translate(4 97)">
<title>Server</title>
<polygon fill="white" stroke="none" points="-4,4 -4,-97 191,-97 191,4 -4,4"/>
<!-- Node0 -->
<g id="node1" class="node"><title>Node0</title>
<g id="a_node1"><a xlink:title="Сервер">
<polygon fill="#bfbfbf" stroke="black" points="44,-56 0,-56 0,-37 44,-37 44,-56"/>
<text text-anchor="middle" x="22" y="-44" font-family="Helvetica,sans-Serif" font-size="10.00">Server</text>
</a>
</g>
</g>
<!-- Node3 -->
<g id="node2" class="node"><title>Node3</title>
<g id="a_node2"><a xlink:href="$group__regexh.html" xlink:title=" ">
<polygon fill="white" stroke="black" points="160,-93 107,-93 107,-74 160,-74 160,-93"/>
<text text-anchor="middle" x="133.5" y="-81" font-family="Helvetica,sans-Serif" font-size="10.00">Regex.h</text>
</a>
</g>
</g>
<!-- Node0&#45;&gt;Node3 -->
<g id="edge3" class="edge"><title>Node0&#45;&gt;Node3</title>
<path fill="none" stroke="black" d="M53.9621,-56.9621C70.6593,-62.604 91.0207,-69.4842 106.827,-74.8251"/>
<polygon fill="black" stroke="black" points="54.7069,-53.5194 44.1127,-53.634 52.466,-60.151 54.7069,-53.5194"/>
</g>
<!-- Node1 -->
<g id="node3" class="node"><title>Node1</title>
<g id="a_node3"><a xlink:href="$group__battleshiproyalecpp.html" xlink:title=" ">
<polygon fill="white" stroke="black" points="187,-56 80,-56 80,-37 187,-37 187,-56"/>
<text text-anchor="middle" x="133.5" y="-44" font-family="Helvetica,sans-Serif" font-size="10.00">BattleShiproyale.cpp</text>
</a>
</g>
</g>
<!-- Node0&#45;&gt;Node1 -->
<g id="edge1" class="edge"><title>Node0&#45;&gt;Node1</title>
<path fill="none" stroke="black" d="M54.3302,-46.5C62.249,-46.5 70.9731,-46.5 79.6344,-46.5"/>
<polygon fill="black" stroke="black" points="54.1127,-43.0001 44.1127,-46.5 54.1127,-50.0001 54.1127,-43.0001"/>
</g>
<!-- Node2 -->
<g id="node4" class="node"><title>Node2</title>
<g id="a_node4"><a xlink:href="$group__regexcpp.html" xlink:title=" ">
<polygon fill="white" stroke="black" points="165,-19 102,-19 102,-0 165,-0 165,-19"/>
<text text-anchor="middle" x="133.5" y="-7" font-family="Helvetica,sans-Serif" font-size="10.00">Regex.cpp</text>
</a>
</g>
</g>
<!-- Node0&#45;&gt;Node2 -->
<g id="edge2" class="edge"><title>Node0&#45;&gt;Node2</title>
<path fill="none" stroke="black" d="M53.9063,-36.0568C69.6342,-30.7423 88.6247,-24.3254 103.998,-19.1308"/>
<polygon fill="black" stroke="black" points="52.466,-32.849 44.1127,-39.366 54.7069,-39.4806 52.466,-32.849"/>
</g>
</g>
</svg>
