<?xml version="1.0" encoding="UTF-8" standalone="no"?>
<!DOCTYPE svg PUBLIC "-//W3C//DTD SVG 1.1//EN"
 "http://www.w3.org/Graphics/SVG/1.1/DTD/svg11.dtd">
<!-- Generated by graphviz version 2.38.0 (20140413.2041)
 -->
<!-- Title: src/client/src/Args.cpp Pages: 1 -->
<svg width="1255pt" height="207pt"
 viewBox="0.00 0.00 1254.50 207.00" xmlns="http://www.w3.org/2000/svg" xmlns:xlink="http://www.w3.org/1999/xlink">
<g id="graph0" class="graph" transform="scale(1 1) rotate(0) translate(4 203)">
<title>src/client/src/Args.cpp</title>
<polygon fill="white" stroke="none" points="-4,4 -4,-203 1250.5,-203 1250.5,4 -4,4"/>
<!-- Node0 -->
<g id="node1" class="node"><title>Node0</title>
<g id="a_node1"><a xlink:title=" ">
<polygon fill="#bfbfbf" stroke="black" points="270,-179.5 270,-198.5 385,-198.5 385,-179.5 270,-179.5"/>
<text text-anchor="middle" x="327.5" y="-186.5" font-family="Helvetica,sans-Serif" font-size="10.00">src/client/src/Args.cpp</text>
</a>
</g>
</g>
<!-- Node1 -->
<g id="node2" class="node"><title>Node1</title>
<g id="a_node2"><a xlink:href="_args_8h.html" target="_top" xlink:title=" ">
<polygon fill="white" stroke="black" points="0,-118 0,-137 45,-137 45,-118 0,-118"/>
<text text-anchor="middle" x="22.5" y="-125" font-family="Helvetica,sans-Serif" font-size="10.00">Args.h</text>
</a>
</g>
</g>
<!-- Node0&#45;&gt;Node1 -->
<g id="edge1" class="edge"><title>Node0&#45;&gt;Node1</title>
<path fill="none" stroke="midnightblue" d="M283.801,-179.475C221.903,-167.4 110.108,-145.591 55.0018,-134.841"/>
<polygon fill="midnightblue" stroke="midnightblue" points="55.5674,-131.385 45.0823,-132.905 54.2271,-138.255 55.5674,-131.385"/>
</g>
<!-- Node3 -->
<g id="node4" class="node"><title>Node3</title>
<g id="a_node4"><a xlink:title=" ">
<polygon fill="white" stroke="#bfbfbf" points="141.5,-118 141.5,-137 211.5,-137 211.5,-118 141.5,-118"/>
<text text-anchor="middle" x="176.5" y="-125" font-family="Helvetica,sans-Serif" font-size="10.00">cxxopts.hpp</text>
</a>
</g>
</g>
<!-- Node0&#45;&gt;Node3 -->
<g id="edge3" class="edge"><title>Node0&#45;&gt;Node3</title>
<path fill="none" stroke="midnightblue" d="M305.865,-179.475C280.076,-169.313 236.789,-152.256 207.46,-140.7"/>
<polygon fill="midnightblue" stroke="midnightblue" points="208.681,-137.419 198.094,-137.009 206.115,-143.932 208.681,-137.419"/>
</g>
<!-- Node4 -->
<g id="node5" class="node"><title>Node4</title>
<g id="a_node5"><a xlink:title=" ">
<polygon fill="white" stroke="#bfbfbf" points="230,-118 230,-137 315,-137 315,-118 230,-118"/>
<text text-anchor="middle" x="272.5" y="-125" font-family="Helvetica,sans-Serif" font-size="10.00">spdlog/spdlog.h</text>
</a>
</g>
</g>
<!-- Node0&#45;&gt;Node4 -->
<g id="edge4" class="edge"><title>Node0&#45;&gt;Node4</title>
<path fill="none" stroke="midnightblue" d="M319.62,-179.475C311.206,-170.373 297.681,-155.741 287.274,-144.483"/>
<polygon fill="midnightblue" stroke="midnightblue" points="289.724,-141.977 280.366,-137.009 284.583,-146.728 289.724,-141.977"/>
</g>
<!-- Node5 -->
<g id="node6" class="node"><title>Node5</title>
<g id="a_node6"><a xlink:title=" ">
<polygon fill="white" stroke="#bfbfbf" points="333.5,-112.5 333.5,-142.5 431.5,-142.5 431.5,-112.5 333.5,-112.5"/>
<text text-anchor="start" x="341.5" y="-130.5" font-family="Helvetica,sans-Serif" font-size="10.00">spdlog/sinks/basic</text>
<text text-anchor="middle" x="382.5" y="-119.5" font-family="Helvetica,sans-Serif" font-size="10.00">_file_sink.h</text>
</a>
</g>
</g>
<!-- Node0&#45;&gt;Node5 -->
<g id="edge5" class="edge"><title>Node0&#45;&gt;Node5</title>
<path fill="none" stroke="midnightblue" d="M335.38,-179.475C342.481,-171.793 353.224,-160.172 362.659,-149.964"/>
<polygon fill="midnightblue" stroke="midnightblue" points="365.32,-152.242 369.538,-142.523 360.179,-147.491 365.32,-152.242"/>
</g>
<!-- Node6 -->
<g id="node7" class="node"><title>Node6</title>
<g id="a_node7"><a xlink:href="_battleship_royale_8h.html" target="_top" xlink:title="Заголовочный файл с пространством имён, которое хранит в себе константы.">
<polygon fill="white" stroke="black" points="449.5,-118 449.5,-137 547.5,-137 547.5,-118 449.5,-118"/>
<text text-anchor="middle" x="498.5" y="-125" font-family="Helvetica,sans-Serif" font-size="10.00">BattleshipRoyale.h</text>
</a>
</g>
</g>
<!-- Node0&#45;&gt;Node6 -->
<g id="edge6" class="edge"><title>Node0&#45;&gt;Node6</title>
<path fill="none" stroke="midnightblue" d="M352,-179.475C381.46,-169.225 431.079,-151.959 464.302,-140.399"/>
<polygon fill="midnightblue" stroke="midnightblue" points="465.751,-143.601 474.045,-137.009 463.45,-136.99 465.751,-143.601"/>
</g>
<!-- Node13 -->
<g id="node14" class="node"><title>Node13</title>
<g id="a_node14"><a xlink:href="_test_8h.html" target="_top" xlink:title=" ">
<polygon fill="white" stroke="black" points="988.5,-118 988.5,-137 1032.5,-137 1032.5,-118 988.5,-118"/>
<text text-anchor="middle" x="1010.5" y="-125" font-family="Helvetica,sans-Serif" font-size="10.00">Test.h</text>
</a>
</g>
</g>
<!-- Node0&#45;&gt;Node13 -->
<g id="edge13" class="edge"><title>Node0&#45;&gt;Node13</title>
<path fill="none" stroke="midnightblue" d="M385.144,-182.978C523.351,-170.938 870.109,-140.73 977.964,-131.334"/>
<polygon fill="midnightblue" stroke="midnightblue" points="978.554,-134.796 988.212,-130.442 977.946,-127.823 978.554,-134.796"/>
</g>
<!-- Node2 -->
<g id="node3" class="node"><title>Node2</title>
<g id="a_node3"><a xlink:title=" ">
<polygon fill="white" stroke="#bfbfbf" points="990,-0.5 990,-19.5 1031,-19.5 1031,-0.5 990,-0.5"/>
<text text-anchor="middle" x="1010.5" y="-7.5" font-family="Helvetica,sans-Serif" font-size="10.00">string</text>
</a>
</g>
</g>
<!-- Node1&#45;&gt;Node2 -->
<g id="edge2" class="edge"><title>Node1&#45;&gt;Node2</title>
<path fill="none" stroke="midnightblue" d="M21.7618,-117.881C20.9899,-102.651 21.8916,-71.1587 40.5,-56 77.7527,-25.6534 818.136,-13.6663 979.587,-11.4079"/>
<polygon fill="midnightblue" stroke="midnightblue" points="979.832,-14.9049 989.783,-11.2675 979.736,-7.90557 979.832,-14.9049"/>
</g>
<!-- Node7 -->
<g id="node8" class="node"><title>Node7</title>
<g id="a_node8"><a xlink:href="_version_8h.html" target="_top" xlink:title="Версия программы">
<polygon fill="white" stroke="black" points="49.5,-56.5 49.5,-75.5 183.5,-75.5 183.5,-56.5 49.5,-56.5"/>
<text text-anchor="middle" x="116.5" y="-63.5" font-family="Helvetica,sans-Serif" font-size="10.00">BattleshipRoyale/Version.h</text>
</a>
</g>
</g>
<!-- Node6&#45;&gt;Node7 -->
<g id="edge7" class="edge"><title>Node6&#45;&gt;Node7</title>
<path fill="none" stroke="midnightblue" d="M467.03,-117.982C458.465,-115.842 449.161,-113.679 440.5,-112 394.72,-103.125 274.34,-87.1177 193.913,-76.7814"/>
<polygon fill="midnightblue" stroke="midnightblue" points="194.186,-73.2878 183.822,-75.4873 193.295,-80.2309 194.186,-73.2878"/>
</g>
<!-- Node8 -->
<g id="node9" class="node"><title>Node8</title>
<g id="a_node9"><a xlink:href="_connect_8h.html" target="_top" xlink:title="Константы с параметрами для подключения">
<polygon fill="white" stroke="black" points="202,-56.5 202,-75.5 339,-75.5 339,-56.5 202,-56.5"/>
<text text-anchor="middle" x="270.5" y="-63.5" font-family="Helvetica,sans-Serif" font-size="10.00">BattleshipRoyale/Connect.h</text>
</a>
</g>
</g>
<!-- Node6&#45;&gt;Node8 -->
<g id="edge8" class="edge"><title>Node6&#45;&gt;Node8</title>
<path fill="none" stroke="midnightblue" d="M465.833,-117.975C425.623,-107.482 357.242,-89.6367 312.985,-78.087"/>
<polygon fill="midnightblue" stroke="midnightblue" points="313.666,-74.6477 303.106,-75.5091 311.898,-81.4208 313.666,-74.6477"/>
</g>
<!-- Node9 -->
<g id="node10" class="node"><title>Node9</title>
<g id="a_node10"><a xlink:href="sqlite3_8h.html" target="_top" xlink:title="Константы для работы с базой данных sqlite3.">
<polygon fill="white" stroke="black" points="357.5,-56.5 357.5,-75.5 487.5,-75.5 487.5,-56.5 357.5,-56.5"/>
<text text-anchor="middle" x="422.5" y="-63.5" font-family="Helvetica,sans-Serif" font-size="10.00">BattleshipRoyale/sqlite3.h</text>
</a>
</g>
</g>
<!-- Node6&#45;&gt;Node9 -->
<g id="edge9" class="edge"><title>Node6&#45;&gt;Node9</title>
<path fill="none" stroke="midnightblue" d="M487.611,-117.975C475.534,-108.52 455.833,-93.0961 441.26,-81.6871"/>
<polygon fill="midnightblue" stroke="midnightblue" points="443.4,-78.9177 433.369,-75.5091 439.085,-84.4295 443.4,-78.9177"/>
</g>
<!-- Node10 -->
<g id="node11" class="node"><title>Node10</title>
<g id="a_node11"><a xlink:href="_battleship_royale_2_battleship_royale_2_console_8h.html" target="_top" xlink:title="Константы консоли">
<polygon fill="white" stroke="black" points="506,-56.5 506,-75.5 643,-75.5 643,-56.5 506,-56.5"/>
<text text-anchor="middle" x="574.5" y="-63.5" font-family="Helvetica,sans-Serif" font-size="10.00">BattleshipRoyale/Console.h</text>
</a>
</g>
</g>
<!-- Node6&#45;&gt;Node10 -->
<g id="edge10" class="edge"><title>Node6&#45;&gt;Node10</title>
<path fill="none" stroke="midnightblue" d="M509.389,-117.975C521.466,-108.52 541.167,-93.0961 555.74,-81.6871"/>
<polygon fill="midnightblue" stroke="midnightblue" points="557.915,-84.4295 563.631,-75.5091 553.6,-78.9177 557.915,-84.4295"/>
</g>
<!-- Node11 -->
<g id="node12" class="node"><title>Node11</title>
<g id="a_node12"><a xlink:href="_battleship_royale_2_battleship_royale_2_regex_8h.html" target="_top" xlink:title="Константы регулярных выражений">
<polygon fill="white" stroke="black" points="661,-56.5 661,-75.5 790,-75.5 790,-56.5 661,-56.5"/>
<text text-anchor="middle" x="725.5" y="-63.5" font-family="Helvetica,sans-Serif" font-size="10.00">BattleshipRoyale/Regex.h</text>
</a>
</g>
</g>
<!-- Node6&#45;&gt;Node11 -->
<g id="edge11" class="edge"><title>Node6&#45;&gt;Node11</title>
<path fill="none" stroke="midnightblue" d="M531.024,-117.975C571.058,-107.482 639.138,-89.6367 683.202,-78.087"/>
<polygon fill="midnightblue" stroke="midnightblue" points="684.251,-81.4303 693.037,-75.5091 682.476,-74.659 684.251,-81.4303"/>
</g>
<!-- Node12 -->
<g id="node13" class="node"><title>Node12</title>
<g id="a_node13"><a xlink:href="_code_8h.html" target="_top" xlink:title="Различные коды ответов">
<polygon fill="white" stroke="black" points="808.5,-56.5 808.5,-75.5 932.5,-75.5 932.5,-56.5 808.5,-56.5"/>
<text text-anchor="middle" x="870.5" y="-63.5" font-family="Helvetica,sans-Serif" font-size="10.00">BattleshipRoyale/Code.h</text>
</a>
</g>
</g>
<!-- Node6&#45;&gt;Node12 -->
<g id="edge12" class="edge"><title>Node6&#45;&gt;Node12</title>
<path fill="none" stroke="midnightblue" d="M547.515,-118.66C614.219,-107.991 733.668,-88.8858 807.115,-77.1382"/>
<polygon fill="midnightblue" stroke="midnightblue" points="807.841,-80.5666 817.163,-75.5311 806.736,-73.6545 807.841,-80.5666"/>
</g>
<!-- Node14 -->
<g id="node15" class="node"><title>Node14</title>
<g id="a_node15"><a xlink:href="_loop_connections_8h.html" target="_top" xlink:title=" ">
<polygon fill="white" stroke="black" points="951,-56.5 951,-75.5 1070,-75.5 1070,-56.5 951,-56.5"/>
<text text-anchor="middle" x="1010.5" y="-63.5" font-family="Helvetica,sans-Serif" font-size="10.00">test/LoopConnections.h</text>
</a>
</g>
</g>
<!-- Node13&#45;&gt;Node14 -->
<g id="edge14" class="edge"><title>Node13&#45;&gt;Node14</title>
<path fill="none" stroke="midnightblue" d="M1010.5,-117.975C1010.5,-109.58 1010.5,-96.4806 1010.5,-85.6631"/>
<polygon fill="midnightblue" stroke="midnightblue" points="1014,-85.5091 1010.5,-75.5091 1007,-85.5091 1014,-85.5091"/>
</g>
<!-- Node15 -->
<g id="node16" class="node"><title>Node15</title>
<g id="a_node16"><a xlink:href="_simultaneous_connections_8h.html" target="_top" xlink:title=" ">
<polygon fill="white" stroke="black" points="1088.5,-56.5 1088.5,-75.5 1246.5,-75.5 1246.5,-56.5 1088.5,-56.5"/>
<text text-anchor="middle" x="1167.5" y="-63.5" font-family="Helvetica,sans-Serif" font-size="10.00">test/SimultaneousConnections.h</text>
</a>
</g>
</g>
<!-- Node13&#45;&gt;Node15 -->
<g id="edge16" class="edge"><title>Node13&#45;&gt;Node15</title>
<path fill="none" stroke="midnightblue" d="M1032.66,-118.101C1059.51,-107.927 1104.94,-90.7097 1135.56,-79.1036"/>
<polygon fill="midnightblue" stroke="midnightblue" points="1136.83,-82.3654 1144.94,-75.5486 1134.35,-75.8197 1136.83,-82.3654"/>
</g>
<!-- Node14&#45;&gt;Node2 -->
<g id="edge15" class="edge"><title>Node14&#45;&gt;Node2</title>
<path fill="none" stroke="midnightblue" d="M1010.5,-56.083C1010.5,-49.0059 1010.5,-38.8611 1010.5,-29.9865"/>
<polygon fill="midnightblue" stroke="midnightblue" points="1014,-29.751 1010.5,-19.7511 1007,-29.7511 1014,-29.751"/>
</g>
<!-- Node15&#45;&gt;Node2 -->
<g id="edge17" class="edge"><title>Node15&#45;&gt;Node2</title>
<path fill="none" stroke="midnightblue" d="M1142.62,-56.4435C1115.09,-46.973 1070.69,-31.7032 1041.06,-21.512"/>
<polygon fill="midnightblue" stroke="midnightblue" points="1041.84,-18.0797 1031.25,-18.1368 1039.57,-24.6991 1041.84,-18.0797"/>
</g>
</g>
</svg>
