<?xml version="1.0" encoding="UTF-8" standalone="no"?>
<!DOCTYPE svg PUBLIC "-//W3C//DTD SVG 1.1//EN"
 "http://www.w3.org/Graphics/SVG/1.1/DTD/svg11.dtd">
<!-- Generated by graphviz version 2.38.0 (20140413.2041)
 -->
<!-- Title: BattleshipRoyale.h Pages: 1 -->
<!--zoomable 308 -->
<svg id="main" version="1.1" xmlns="http://www.w3.org/2000/svg" xmlns:xlink="http://www.w3.org/1999/xlink" xml:space="preserve" onload="init(evt)">
<style type="text/css"><![CDATA[
.edge:hover path { stroke: red; }
.edge:hover polygon { stroke: red; fill: red; }
]]></style>
<script type="text/javascript"><![CDATA[
var edges = document.getElementsByTagName('g');
if (edges && edges.length) {
  for (var i=0;i<edges.length;i++) {
    if (edges[i].id.substr(0,4)=='edge') {
      edges[i].setAttribute('class','edge');
    }
  }
}
]]></script>
        <defs>
                <circle id="rim" cx="0" cy="0" r="7"/>
                <circle id="rim2" cx="0" cy="0" r="3.5"/>
                <g id="zoomPlus">
                        <use xlink:href="#rim" fill="#404040">
                                <set attributeName="fill" to="#808080" begin="zoomplus.mouseover" end="zoomplus.mouseout"/>
                        </use>
                        <path d="M-4,0h8M0,-4v8" fill="none" stroke="white" stroke-width="1.5" pointer-events="none"/>
                </g>
                <g id="zoomMin">
                        <use xlink:href="#rim" fill="#404040">
                                <set attributeName="fill" to="#808080" begin="zoomminus.mouseover" end="zoomminus.mouseout"/>
                        </use>
                        <path d="M-4,0h8" fill="none" stroke="white" stroke-width="1.5" pointer-events="none"/>
                </g>
                <g id="dirArrow">
                        <path fill="none" stroke="white" stroke-width="1.5" d="M0,-3.0v7 M-2.5,-0.5L0,-3.0L2.5,-0.5"/>
                </g>
               <g id="resetDef">
                       <use xlink:href="#rim2" fill="#404040">
                               <set attributeName="fill" to="#808080" begin="reset.mouseover" end="reset.mouseout"/>
                       </use>
               </g>
        </defs>

<script type="text/javascript">
var viewWidth = 1091;
var viewHeight = 308;
var sectionId = 'dynsection-0';
</script>
<script xlink:href="svgpan.js"/>
<svg id="graph" class="graph">
<g id="viewport">
<title>BattleshipRoyale.h</title>
<polygon fill="white" stroke="none" points="-4,4 -4,-304 1087,-304 1087,4 -4,4"/>
<!-- Node1 -->
<g id="node1" class="node"><title>Node1</title>
<g id="a_node1"><a xlink:title="Заголовочный файл с пространством имён, которое хранит в себе константы.">
<polygon fill="#bfbfbf" stroke="black" points="482.5,-280.5 482.5,-299.5 580.5,-299.5 580.5,-280.5 482.5,-280.5"/>
<text text-anchor="middle" x="531.5" y="-287.5" font-family="Helvetica,sans-Serif" font-size="10.00">BattleshipRoyale.h</text>
</a>
</g>
</g>
<!-- Node2 -->
<g id="node2" class="node"><title>Node2</title>
<g id="a_node2"><a xlink:href="client_2src_2_battleship_royale_8cpp.html" target="_top" xlink:title="Клиент">
<polygon fill="white" stroke="black" points="0,-224.5 0,-243.5 109,-243.5 109,-224.5 0,-224.5"/>
<text text-anchor="middle" x="54.5" y="-231.5" font-family="Helvetica,sans-Serif" font-size="10.00">BattleshipRoyale.cpp</text>
</a>
</g>
</g>
<!-- Node1&#45;&gt;Node2 -->
<g id="edge1" class="edge"><title>Node1&#45;&gt;Node2</title>
<path fill="none" stroke="midnightblue" d="M472.088,-283.114C391.788,-275.024 244.189,-259.681 118.5,-244 115.494,-243.625 112.41,-243.229 109.298,-242.82"/>
<polygon fill="midnightblue" stroke="midnightblue" points="472.189,-286.642 482.489,-284.159 472.889,-279.677 472.189,-286.642"/>
</g>
<!-- Node3 -->
<g id="node3" class="node"><title>Node3</title>
<g id="a_node3"><a xlink:href="_d_b_8h.html" target="_top" xlink:title="Работа с базой данных">
<polygon fill="white" stroke="black" points="127.5,-224.5 127.5,-243.5 165.5,-243.5 165.5,-224.5 127.5,-224.5"/>
<text text-anchor="middle" x="146.5" y="-231.5" font-family="Helvetica,sans-Serif" font-size="10.00">DB.h</text>
</a>
</g>
</g>
<!-- Node1&#45;&gt;Node3 -->
<g id="edge2" class="edge"><title>Node1&#45;&gt;Node3</title>
<path fill="none" stroke="midnightblue" d="M472.477,-283.984C402.223,-277.433 281.575,-264.341 179.5,-244 174.957,-243.095 170.119,-241.906 165.588,-240.69"/>
<polygon fill="midnightblue" stroke="midnightblue" points="472.19,-287.473 482.468,-284.904 472.831,-280.502 472.19,-287.473"/>
</g>
<!-- Node4 -->
<g id="node4" class="node"><title>Node4</title>
<g id="a_node4"><a xlink:href="_d_b_8cpp.html" target="_top" xlink:title="Работа с базой данных">
<polygon fill="white" stroke="black" points="130,-168.5 130,-187.5 179,-187.5 179,-168.5 130,-168.5"/>
<text text-anchor="middle" x="154.5" y="-175.5" font-family="Helvetica,sans-Serif" font-size="10.00">DB.cpp</text>
</a>
</g>
</g>
<!-- Node1&#45;&gt;Node4 -->
<g id="edge4" class="edge"><title>Node1&#45;&gt;Node4</title>
<path fill="none" stroke="midnightblue" d="M472.084,-285.072C393.756,-279.117 260.811,-266.092 217.5,-244 191.461,-230.718 170.003,-202.423 160.215,-187.943"/>
<polygon fill="midnightblue" stroke="midnightblue" points="472.058,-288.58 482.291,-285.832 472.578,-281.599 472.058,-288.58"/>
</g>
<!-- Node5 -->
<g id="node5" class="node"><title>Node5</title>
<g id="a_node5"><a xlink:href="server_2src_2_battleship_royale_8cpp.html" target="_top" xlink:title="Сервер">
<polygon fill="white" stroke="black" points="207,-0.5 207,-19.5 316,-19.5 316,-0.5 207,-0.5"/>
<text text-anchor="middle" x="261.5" y="-7.5" font-family="Helvetica,sans-Serif" font-size="10.00">BattleshipRoyale.cpp</text>
</a>
</g>
</g>
<!-- Node1&#45;&gt;Node5 -->
<g id="edge5" class="edge"><title>Node1&#45;&gt;Node5</title>
<path fill="none" stroke="midnightblue" d="M472.381,-283.186C413.244,-273.91 325,-249.916 281.5,-188 243.633,-134.103 254.934,-47.361 259.798,-19.7419"/>
<polygon fill="midnightblue" stroke="midnightblue" points="471.935,-286.658 482.338,-284.652 472.955,-279.732 471.935,-286.658"/>
</g>
<!-- Node6 -->
<g id="node6" class="node"><title>Node6</title>
<g id="a_node6"><a xlink:href="server_2src_2_mini_d_b_8h.html" target="_top" xlink:title="Облегчённый класс для работы с бд">
<polygon fill="white" stroke="black" points="358.5,-224.5 358.5,-243.5 414.5,-243.5 414.5,-224.5 358.5,-224.5"/>
<text text-anchor="middle" x="386.5" y="-231.5" font-family="Helvetica,sans-Serif" font-size="10.00">MiniDB.h</text>
</a>
</g>
</g>
<!-- Node1&#45;&gt;Node6 -->
<g id="edge6" class="edge"><title>Node1&#45;&gt;Node6</title>
<path fill="none" stroke="midnightblue" d="M499.025,-276.906C471.764,-266.754 433.508,-252.506 409.368,-243.516"/>
<polygon fill="midnightblue" stroke="midnightblue" points="497.932,-280.233 508.524,-280.444 500.375,-273.674 497.932,-280.233"/>
</g>
<!-- Node12 -->
<g id="node12" class="node"><title>Node12</title>
<g id="a_node12"><a xlink:href="server_2src_2con__handler_8cpp.html" target="_top" xlink:title="handler">
<polygon fill="white" stroke="black" points="514.5,-56.5 514.5,-75.5 602.5,-75.5 602.5,-56.5 514.5,-56.5"/>
<text text-anchor="middle" x="558.5" y="-63.5" font-family="Helvetica,sans-Serif" font-size="10.00">con_handler.cpp</text>
</a>
</g>
</g>
<!-- Node1&#45;&gt;Node12 -->
<g id="edge17" class="edge"><title>Node1&#45;&gt;Node12</title>
<path fill="none" stroke="midnightblue" d="M539.155,-270.843C550.84,-242.037 572.603,-183.812 580.5,-132 581.839,-123.213 582.504,-120.66 580.5,-112 577.364,-98.4442 569.554,-84.255 564.138,-75.5194"/>
<polygon fill="midnightblue" stroke="midnightblue" points="535.803,-269.79 535.219,-280.368 542.273,-272.462 535.803,-269.79"/>
</g>
<!-- Node13 -->
<g id="node13" class="node"><title>Node13</title>
<g id="a_node13"><a xlink:href="server_2src_2_processing_8cpp.html" target="_top" xlink:title="Обработка запросов">
<polygon fill="white" stroke="black" points="487.5,-112.5 487.5,-131.5 571.5,-131.5 571.5,-112.5 487.5,-112.5"/>
<text text-anchor="middle" x="529.5" y="-119.5" font-family="Helvetica,sans-Serif" font-size="10.00">Processing.cpp</text>
</a>
</g>
</g>
<!-- Node1&#45;&gt;Node13 -->
<g id="edge20" class="edge"><title>Node1&#45;&gt;Node13</title>
<path fill="none" stroke="midnightblue" d="M531.27,-269.93C530.836,-233.92 529.912,-157.231 529.603,-131.568"/>
<polygon fill="midnightblue" stroke="midnightblue" points="527.772,-270.118 531.392,-280.075 534.772,-270.034 527.772,-270.118"/>
</g>
<!-- Node15 -->
<g id="node15" class="node"><title>Node15</title>
<g id="a_node15"><a xlink:href="_mem_d_bmap_8cpp.html" target="_top" xlink:title="Облегчённый класс для работы с бд в памяти">
<polygon fill="white" stroke="black" points="579,-224.5 579,-243.5 668,-243.5 668,-224.5 579,-224.5"/>
<text text-anchor="middle" x="623.5" y="-231.5" font-family="Helvetica,sans-Serif" font-size="10.00">MemDBmap.cpp</text>
</a>
</g>
</g>
<!-- Node1&#45;&gt;Node15 -->
<g id="edge18" class="edge"><title>Node1&#45;&gt;Node15</title>
<path fill="none" stroke="midnightblue" d="M555.05,-275.177C571.979,-265.241 594.283,-252.149 608.755,-243.655"/>
<polygon fill="midnightblue" stroke="midnightblue" points="553.134,-272.243 546.281,-280.324 556.677,-278.28 553.134,-272.243"/>
</g>
<!-- Node16 -->
<g id="node16" class="node"><title>Node16</title>
<g id="a_node16"><a xlink:href="_mem_d_buid_8cpp.html" target="_top" xlink:title="Облегчённый класс для работы с бд в памяти">
<polygon fill="white" stroke="black" points="686,-224.5 686,-243.5 769,-243.5 769,-224.5 686,-224.5"/>
<text text-anchor="middle" x="727.5" y="-231.5" font-family="Helvetica,sans-Serif" font-size="10.00">MemDBuid.cpp</text>
</a>
</g>
</g>
<!-- Node1&#45;&gt;Node16 -->
<g id="edge19" class="edge"><title>Node1&#45;&gt;Node16</title>
<path fill="none" stroke="midnightblue" d="M572.52,-277.699C609.511,-267.507 663.1,-252.743 696.589,-243.516"/>
<polygon fill="midnightblue" stroke="midnightblue" points="571.268,-274.413 562.557,-280.444 573.127,-281.162 571.268,-274.413"/>
</g>
<!-- Node17 -->
<g id="node17" class="node"><title>Node17</title>
<g id="a_node17"><a xlink:href="server_2src_2_regex_8cpp.html" target="_top" xlink:title="Работа с регулярными выражениями">
<polygon fill="white" stroke="black" points="787,-224.5 787,-243.5 850,-243.5 850,-224.5 787,-224.5"/>
<text text-anchor="middle" x="818.5" y="-231.5" font-family="Helvetica,sans-Serif" font-size="10.00">Regex.cpp</text>
</a>
</g>
</g>
<!-- Node1&#45;&gt;Node17 -->
<g id="edge21" class="edge"><title>Node1&#45;&gt;Node17</title>
<path fill="none" stroke="midnightblue" d="M590.834,-278.895C640.95,-270.192 714.565,-257.011 778.5,-244 781.151,-243.461 783.896,-242.883 786.649,-242.291"/>
<polygon fill="midnightblue" stroke="midnightblue" points="590.078,-275.474 580.822,-280.629 591.272,-282.371 590.078,-275.474"/>
</g>
<!-- Node18 -->
<g id="node18" class="node"><title>Node18</title>
<g id="a_node18"><a xlink:href="mem_8cpp.html" target="_top" xlink:title=" ">
<polygon fill="white" stroke="black" points="868,-224.5 868,-243.5 925,-243.5 925,-224.5 868,-224.5"/>
<text text-anchor="middle" x="896.5" y="-231.5" font-family="Helvetica,sans-Serif" font-size="10.00">mem.cpp</text>
</a>
</g>
</g>
<!-- Node1&#45;&gt;Node18 -->
<g id="edge22" class="edge"><title>Node1&#45;&gt;Node18</title>
<path fill="none" stroke="midnightblue" d="M590.854,-282.707C656.782,-275.287 766.231,-261.694 859.5,-244 862.228,-243.482 865.057,-242.893 867.88,-242.268"/>
<polygon fill="midnightblue" stroke="midnightblue" points="590.206,-279.257 580.655,-283.844 590.982,-286.214 590.206,-279.257"/>
</g>
<!-- Node19 -->
<g id="node19" class="node"><title>Node19</title>
<g id="a_node19"><a xlink:href="testing_2minidb_2_mini_d_b_8h.html" target="_top" xlink:title="Облегчённый класс для работы с бд">
<polygon fill="white" stroke="black" points="943.5,-224.5 943.5,-243.5 999.5,-243.5 999.5,-224.5 943.5,-224.5"/>
<text text-anchor="middle" x="971.5" y="-231.5" font-family="Helvetica,sans-Serif" font-size="10.00">MiniDB.h</text>
</a>
</g>
</g>
<!-- Node1&#45;&gt;Node19 -->
<g id="edge23" class="edge"><title>Node1&#45;&gt;Node19</title>
<path fill="none" stroke="midnightblue" d="M591.031,-284.738C669.966,-278.544 813.416,-265.397 934.5,-244 937.364,-243.494 940.337,-242.896 943.297,-242.252"/>
<polygon fill="midnightblue" stroke="midnightblue" points="590.497,-281.269 580.797,-285.531 591.037,-288.248 590.497,-281.269"/>
</g>
<!-- Node3&#45;&gt;Node4 -->
<g id="edge3" class="edge"><title>Node3&#45;&gt;Node4</title>
<path fill="none" stroke="midnightblue" d="M149.3,-214.101C150.628,-205.136 152.151,-194.858 153.204,-187.751"/>
<polygon fill="midnightblue" stroke="midnightblue" points="145.824,-213.678 147.821,-224.083 152.749,-214.704 145.824,-213.678"/>
</g>
<!-- Node6&#45;&gt;Node5 -->
<g id="edge7" class="edge"><title>Node6&#45;&gt;Node5</title>
<path fill="none" stroke="midnightblue" d="M348.842,-221.34C331.378,-214.216 311.628,-203.443 298.5,-188 254.987,-136.814 258.367,-47.5185 260.647,-19.5962"/>
<polygon fill="midnightblue" stroke="midnightblue" points="347.663,-224.636 358.254,-224.929 350.157,-218.095 347.663,-224.636"/>
</g>
<!-- Node7 -->
<g id="node7" class="node"><title>Node7</title>
<g id="a_node7"><a xlink:href="_processing_8h.html" target="_top" xlink:title="Обработка запросов">
<polygon fill="white" stroke="black" points="393.5,-168.5 393.5,-187.5 467.5,-187.5 467.5,-168.5 393.5,-168.5"/>
<text text-anchor="middle" x="430.5" y="-175.5" font-family="Helvetica,sans-Serif" font-size="10.00">Processing.h</text>
</a>
</g>
</g>
<!-- Node6&#45;&gt;Node7 -->
<g id="edge8" class="edge"><title>Node6&#45;&gt;Node7</title>
<path fill="none" stroke="midnightblue" d="M400.235,-216.144C407.901,-206.736 417.133,-195.405 423.369,-187.751"/>
<polygon fill="midnightblue" stroke="midnightblue" points="397.369,-214.12 393.766,-224.083 402.796,-218.541 397.369,-214.12"/>
</g>
<!-- Node14 -->
<g id="node14" class="node"><title>Node14</title>
<g id="a_node14"><a xlink:href="server_2src_2_mini_d_b_8cpp.html" target="_top" xlink:title="Облегчённый класс для работы с бд">
<polygon fill="white" stroke="black" points="308,-168.5 308,-187.5 375,-187.5 375,-168.5 308,-168.5"/>
<text text-anchor="middle" x="341.5" y="-175.5" font-family="Helvetica,sans-Serif" font-size="10.00">MiniDB.cpp</text>
</a>
</g>
</g>
<!-- Node6&#45;&gt;Node14 -->
<g id="edge16" class="edge"><title>Node6&#45;&gt;Node14</title>
<path fill="none" stroke="midnightblue" d="M372.453,-216.144C364.613,-206.736 355.171,-195.405 348.793,-187.751"/>
<polygon fill="midnightblue" stroke="midnightblue" points="369.979,-218.641 379.069,-224.083 375.356,-214.16 369.979,-218.641"/>
</g>
<!-- Node8 -->
<g id="node8" class="node"><title>Node8</title>
<g id="a_node8"><a xlink:href="examples_2_processing_8cpp.html" target="_top" xlink:title=" ">
<polygon fill="white" stroke="black" points="289.5,-112.5 289.5,-131.5 373.5,-131.5 373.5,-112.5 289.5,-112.5"/>
<text text-anchor="middle" x="331.5" y="-119.5" font-family="Helvetica,sans-Serif" font-size="10.00">Processing.cpp</text>
</a>
</g>
</g>
<!-- Node7&#45;&gt;Node8 -->
<g id="edge9" class="edge"><title>Node7&#45;&gt;Node8</title>
<path fill="none" stroke="midnightblue" d="M405.663,-163.453C387.386,-153.483 363.084,-140.228 347.367,-131.655"/>
<polygon fill="midnightblue" stroke="midnightblue" points="404.139,-166.608 414.594,-168.324 407.491,-160.463 404.139,-166.608"/>
</g>
<!-- Node9 -->
<g id="node9" class="node"><title>Node9</title>
<g id="a_node9"><a xlink:href="server_2src_2con__handler_8h.html" target="_top" xlink:title="handler">
<polygon fill="white" stroke="black" points="392,-112.5 392,-131.5 469,-131.5 469,-112.5 392,-112.5"/>
<text text-anchor="middle" x="430.5" y="-119.5" font-family="Helvetica,sans-Serif" font-size="10.00">con_handler.h</text>
</a>
</g>
</g>
<!-- Node7&#45;&gt;Node9 -->
<g id="edge10" class="edge"><title>Node7&#45;&gt;Node9</title>
<path fill="none" stroke="midnightblue" d="M430.5,-157.805C430.5,-148.91 430.5,-138.78 430.5,-131.751"/>
<polygon fill="midnightblue" stroke="midnightblue" points="427,-158.083 430.5,-168.083 434,-158.083 427,-158.083"/>
</g>
<!-- Node7&#45;&gt;Node13 -->
<g id="edge15" class="edge"><title>Node7&#45;&gt;Node13</title>
<path fill="none" stroke="midnightblue" d="M455.337,-163.453C473.614,-153.483 497.916,-140.228 513.633,-131.655"/>
<polygon fill="midnightblue" stroke="midnightblue" points="453.509,-160.463 446.406,-168.324 456.861,-166.608 453.509,-160.463"/>
</g>
<!-- Node10 -->
<g id="node10" class="node"><title>Node10</title>
<g id="a_node10"><a xlink:href="server_2src_2_server_8h.html" target="_top" xlink:title="Асинхронный сервер написанный на boost asio.">
<polygon fill="white" stroke="black" points="371.5,-56.5 371.5,-75.5 423.5,-75.5 423.5,-56.5 371.5,-56.5"/>
<text text-anchor="middle" x="397.5" y="-63.5" font-family="Helvetica,sans-Serif" font-size="10.00">Server.h</text>
</a>
</g>
</g>
<!-- Node9&#45;&gt;Node10 -->
<g id="edge11" class="edge"><title>Node9&#45;&gt;Node10</title>
<path fill="none" stroke="midnightblue" d="M419.668,-103.275C414.028,-94.0454 407.382,-83.1703 402.848,-75.7511"/>
<polygon fill="midnightblue" stroke="midnightblue" points="416.85,-105.375 425.051,-112.083 422.823,-101.725 416.85,-105.375"/>
</g>
<!-- Node9&#45;&gt;Node12 -->
<g id="edge14" class="edge"><title>Node9&#45;&gt;Node12</title>
<path fill="none" stroke="midnightblue" d="M460.123,-108.503C484.119,-98.3795 517.284,-84.388 538.313,-75.5164"/>
<polygon fill="midnightblue" stroke="midnightblue" points="458.635,-105.332 450.782,-112.444 461.356,-111.781 458.635,-105.332"/>
</g>
<!-- Node10&#45;&gt;Node5 -->
<g id="edge12" class="edge"><title>Node10&#45;&gt;Node5</title>
<path fill="none" stroke="midnightblue" d="M366.365,-52.6377C340.843,-42.504 305.391,-28.4274 282.949,-19.5164"/>
<polygon fill="midnightblue" stroke="midnightblue" points="365.365,-56.0061 375.95,-56.4435 367.948,-49.5002 365.365,-56.0061"/>
</g>
<!-- Node11 -->
<g id="node11" class="node"><title>Node11</title>
<g id="a_node11"><a xlink:href="server_2src_2_server_8cpp.html" target="_top" xlink:title="Асинхронный сервер написанный на boost asio.">
<polygon fill="white" stroke="black" points="366.5,-0.5 366.5,-19.5 428.5,-19.5 428.5,-0.5 366.5,-0.5"/>
<text text-anchor="middle" x="397.5" y="-7.5" font-family="Helvetica,sans-Serif" font-size="10.00">Server.cpp</text>
</a>
</g>
</g>
<!-- Node10&#45;&gt;Node11 -->
<g id="edge13" class="edge"><title>Node10&#45;&gt;Node11</title>
<path fill="none" stroke="midnightblue" d="M397.5,-45.8045C397.5,-36.9102 397.5,-26.7798 397.5,-19.7511"/>
<polygon fill="midnightblue" stroke="midnightblue" points="394,-46.083 397.5,-56.083 401,-46.083 394,-46.083"/>
</g>
<!-- Node20 -->
<g id="node20" class="node"><title>Node20</title>
<g id="a_node20"><a xlink:href="examples_2_mini_d_b_8cpp.html" target="_top" xlink:title=" ">
<polygon fill="white" stroke="black" points="1016,-168.5 1016,-187.5 1083,-187.5 1083,-168.5 1016,-168.5"/>
<text text-anchor="middle" x="1049.5" y="-175.5" font-family="Helvetica,sans-Serif" font-size="10.00">MiniDB.cpp</text>
</a>
</g>
</g>
<!-- Node19&#45;&gt;Node20 -->
<g id="edge24" class="edge"><title>Node19&#45;&gt;Node20</title>
<path fill="none" stroke="midnightblue" d="M992.268,-218.622C1006.52,-208.757 1024.96,-195.992 1037,-187.655"/>
<polygon fill="midnightblue" stroke="midnightblue" points="990.262,-215.754 984.032,-224.324 994.246,-221.51 990.262,-215.754"/>
</g>
<!-- Node21 -->
<g id="node21" class="node"><title>Node21</title>
<g id="a_node21"><a xlink:href="testing_2minidb_2_mini_d_b_8cpp.html" target="_top" xlink:title="Облегчённый класс для работы с бд">
<polygon fill="white" stroke="black" points="860,-168.5 860,-187.5 927,-187.5 927,-168.5 860,-168.5"/>
<text text-anchor="middle" x="893.5" y="-175.5" font-family="Helvetica,sans-Serif" font-size="10.00">MiniDB.cpp</text>
</a>
</g>
</g>
<!-- Node19&#45;&gt;Node21 -->
<g id="edge25" class="edge"><title>Node19&#45;&gt;Node21</title>
<path fill="none" stroke="midnightblue" d="M950.732,-218.622C936.483,-208.757 918.044,-195.992 906.001,-187.655"/>
<polygon fill="midnightblue" stroke="midnightblue" points="948.754,-221.51 958.968,-224.324 952.738,-215.754 948.754,-221.51"/>
</g>
<!-- Node22 -->
<g id="node22" class="node"><title>Node22</title>
<g id="a_node22"><a xlink:href="test_8cpp.html" target="_top" xlink:title=" ">
<polygon fill="white" stroke="black" points="945.5,-168.5 945.5,-187.5 997.5,-187.5 997.5,-168.5 945.5,-168.5"/>
<text text-anchor="middle" x="971.5" y="-175.5" font-family="Helvetica,sans-Serif" font-size="10.00">test.cpp</text>
</a>
</g>
</g>
<!-- Node19&#45;&gt;Node22 -->
<g id="edge26" class="edge"><title>Node19&#45;&gt;Node22</title>
<path fill="none" stroke="midnightblue" d="M971.5,-213.805C971.5,-204.91 971.5,-194.78 971.5,-187.751"/>
<polygon fill="midnightblue" stroke="midnightblue" points="968,-214.083 971.5,-224.083 975,-214.083 968,-214.083"/>
</g>
</g>
</svg>
        <g id="navigator" transform="translate(0 0)" fill="#404254">
                <rect fill="#f2f5e9" fill-opacity="0.5" stroke="#606060" stroke-width=".5" x="0" y="0" width="60" height="60"/>
                <use id="zoomplus" xlink:href="#zoomPlus" x="17" y="9" onmousedown="handleZoom(evt,'in')"/>
                <use id="zoomminus" xlink:href="#zoomMin" x="42" y="9" onmousedown="handleZoom(evt,'out')"/>
                <use id="reset" xlink:href="#resetDef" x="30" y="36" onmousedown="handleReset()"/>
                <g id="arrowUp" xlink:href="#dirArrow" transform="translate(30 24)" onmousedown="handlePan(0,-1)">
                  <use xlink:href="#rim" fill="#404040">
                        <set attributeName="fill" to="#808080" begin="arrowUp.mouseover" end="arrowUp.mouseout"/>
                  </use>
                  <path fill="none" stroke="white" stroke-width="1.5" d="M0,-3.0v7 M-2.5,-0.5L0,-3.0L2.5,-0.5"/>
                </g>
                <g id="arrowRight" xlink:href="#dirArrow" transform="rotate(90) translate(36 -43)" onmousedown="handlePan(1,0)">
                  <use xlink:href="#rim" fill="#404040">
                        <set attributeName="fill" to="#808080" begin="arrowRight.mouseover" end="arrowRight.mouseout"/>
                  </use>
                  <path fill="none" stroke="white" stroke-width="1.5" d="M0,-3.0v7 M-2.5,-0.5L0,-3.0L2.5,-0.5"/>
                </g>
                <g id="arrowDown" xlink:href="#dirArrow" transform="rotate(180) translate(-30 -48)" onmousedown="handlePan(0,1)">
                  <use xlink:href="#rim" fill="#404040">
                        <set attributeName="fill" to="#808080" begin="arrowDown.mouseover" end="arrowDown.mouseout"/>
                  </use>
                  <path fill="none" stroke="white" stroke-width="1.5" d="M0,-3.0v7 M-2.5,-0.5L0,-3.0L2.5,-0.5"/>
                </g>
                <g id="arrowLeft" xlink:href="#dirArrow" transform="rotate(270) translate(-36 17)" onmousedown="handlePan(-1,0)">
                  <use xlink:href="#rim" fill="#404040">
                        <set attributeName="fill" to="#808080" begin="arrowLeft.mouseover" end="arrowLeft.mouseout"/>
                  </use>
                  <path fill="none" stroke="white" stroke-width="1.5" d="M0,-3.0v7 M-2.5,-0.5L0,-3.0L2.5,-0.5"/>
                </g>
        </g>
        <svg viewBox="0 0 15 15" width="100%" height="30px" preserveAspectRatio="xMaxYMin meet">
         <g id="arrow_out" transform="scale(0.3 0.3)">
          <a xlink:href="_battleship_royale_8h__dep__incl_org.svg" target="_base">
           <rect id="button" ry="5" rx="5" y="6" x="6" height="38" width="38"
                fill="#f2f5e9" fill-opacity="0.5" stroke="#606060" stroke-width="1.0"/>
           <path id="arrow"
             d="M 11.500037,31.436501 C 11.940474,20.09759 22.043105,11.32322 32.158766,21.979434 L 37.068811,17.246167 C 37.068811,17.246167 37.088388,32 37.088388,32 L 22.160133,31.978069 C 22.160133,31.978069 26.997745,27.140456 26.997745,27.140456 C 18.528582,18.264221 13.291696,25.230495 11.500037,31.436501 z"
             style="fill:#404040;"/>
          </a>
         </g>
        </svg>
</svg>
