<?xml version="1.0" encoding="UTF-8" standalone="no"?>
<!DOCTYPE svg PUBLIC "-//W3C//DTD SVG 1.1//EN"
 "http://www.w3.org/Graphics/SVG/1.1/DTD/svg11.dtd">
<!-- Generated by graphviz version 2.38.0 (20140413.2041)
 -->
<!-- Title: src/BattleshipRoyale/BattleshipRoyale.h Pages: 1 -->
<svg width="2337pt" height="374pt"
 viewBox="0.00 0.00 2336.50 374.00" xmlns="http://www.w3.org/2000/svg" xmlns:xlink="http://www.w3.org/1999/xlink">
<g id="graph0" class="graph" transform="scale(1 1) rotate(0) translate(4 370)">
<title>src/BattleshipRoyale/BattleshipRoyale.h</title>
<polygon fill="white" stroke="none" points="-4,4 -4,-370 2332.5,-370 2332.5,4 -4,4"/>
<!-- Node7 -->
<g id="node1" class="node"><title>Node7</title>
<g id="a_node1"><a xlink:title="Заголовочный файл с пространством имён, которое хранит в себе константы.">
<polygon fill="#bfbfbf" stroke="black" points="1167.5,-335.5 1167.5,-365.5 1274.5,-365.5 1274.5,-335.5 1167.5,-335.5"/>
<text text-anchor="start" x="1175.5" y="-353.5" font-family="Helvetica,sans-Serif" font-size="10.00">src/BattleshipRoyale</text>
<text text-anchor="middle" x="1221" y="-342.5" font-family="Helvetica,sans-Serif" font-size="10.00">/BattleshipRoyale.h</text>
</a>
</g>
</g>
<!-- Node8 -->
<g id="node2" class="node"><title>Node8</title>
<g id="a_node2"><a xlink:href="_args_8cpp.html" target="_top" xlink:title=" ">
<polygon fill="white" stroke="black" points="216.5,-274 216.5,-293 331.5,-293 331.5,-274 216.5,-274"/>
<text text-anchor="middle" x="274" y="-281" font-family="Helvetica,sans-Serif" font-size="10.00">src/client/src/Args.cpp</text>
</a>
</g>
</g>
<!-- Node7&#45;&gt;Node8 -->
<g id="edge1" class="edge"><title>Node7&#45;&gt;Node8</title>
<path fill="none" stroke="midnightblue" d="M1157.24,-349.31C1011.69,-348.122 644.026,-340.84 340,-299 329.54,-297.561 318.278,-295.341 308.069,-293.068"/>
<polygon fill="midnightblue" stroke="midnightblue" points="1157.31,-352.811 1167.33,-349.386 1157.36,-345.811 1157.31,-352.811"/>
</g>
<!-- Node9 -->
<g id="node3" class="node"><title>Node9</title>
<g id="a_node3"><a xlink:href="client_2src_2_battleship_royale_8cpp.html" target="_top" xlink:title="Клиент">
<polygon fill="white" stroke="black" points="438.5,-201.5 438.5,-231.5 557.5,-231.5 557.5,-201.5 438.5,-201.5"/>
<text text-anchor="start" x="446.5" y="-219.5" font-family="Helvetica,sans-Serif" font-size="10.00">src/client/src/Battleship</text>
<text text-anchor="middle" x="498" y="-208.5" font-family="Helvetica,sans-Serif" font-size="10.00">Royale.cpp</text>
</a>
</g>
</g>
<!-- Node7&#45;&gt;Node9 -->
<g id="edge2" class="edge"><title>Node7&#45;&gt;Node9</title>
<path fill="none" stroke="midnightblue" d="M1157.26,-347.208C1004.01,-341.32 623.68,-324.324 572,-299 541.623,-284.115 517.877,-250.853 506.113,-231.741"/>
<polygon fill="midnightblue" stroke="midnightblue" points="1157.34,-350.714 1167.46,-347.597 1157.6,-343.719 1157.34,-350.714"/>
</g>
<!-- Node10 -->
<g id="node4" class="node"><title>Node10</title>
<g id="a_node4"><a xlink:href="client_2src_2_client_8h.html" target="_top" xlink:title=" ">
<polygon fill="white" stroke="black" points="349.5,-274 349.5,-293 458.5,-293 458.5,-274 349.5,-274"/>
<text text-anchor="middle" x="404" y="-281" font-family="Helvetica,sans-Serif" font-size="10.00">src/client/src/Client.h</text>
</a>
</g>
</g>
<!-- Node7&#45;&gt;Node10 -->
<g id="edge3" class="edge"><title>Node7&#45;&gt;Node10</title>
<path fill="none" stroke="midnightblue" d="M1156.97,-346.281C1032.51,-339.725 749.309,-323.358 512,-299 494.592,-297.213 475.664,-294.825 458.587,-292.502"/>
<polygon fill="midnightblue" stroke="midnightblue" points="1156.92,-349.782 1167.09,-346.81 1157.29,-342.792 1156.92,-349.782"/>
</g>
<!-- Node14 -->
<g id="node8" class="node"><title>Node14</title>
<g id="a_node8"><a xlink:href="_t_u_i_8h.html" target="_top" xlink:title=" ">
<polygon fill="white" stroke="black" points="581,-274 581,-293 679,-293 679,-274 581,-274"/>
<text text-anchor="middle" x="630" y="-281" font-family="Helvetica,sans-Serif" font-size="10.00">src/client/src/TUI.h</text>
</a>
</g>
</g>
<!-- Node7&#45;&gt;Node14 -->
<g id="edge8" class="edge"><title>Node7&#45;&gt;Node14</title>
<path fill="none" stroke="midnightblue" d="M1157.04,-344.608C1060.71,-336.908 872.778,-320.583 714,-299 701.682,-297.326 688.404,-295.189 676.122,-293.073"/>
<polygon fill="midnightblue" stroke="midnightblue" points="1156.95,-348.112 1167.2,-345.416 1157.51,-341.134 1156.95,-348.112"/>
</g>
<!-- Node16 -->
<g id="node10" class="node"><title>Node16</title>
<g id="a_node10"><a xlink:href="_d_b_8h.html" target="_top" xlink:title="Работа с базой данных">
<polygon fill="white" stroke="black" points="723,-274 723,-293 807,-293 807,-274 723,-274"/>
<text text-anchor="middle" x="765" y="-281" font-family="Helvetica,sans-Serif" font-size="10.00">src/delete/DB.h</text>
</a>
</g>
</g>
<!-- Node7&#45;&gt;Node16 -->
<g id="edge11" class="edge"><title>Node7&#45;&gt;Node16</title>
<path fill="none" stroke="midnightblue" d="M1157.38,-341.502C1083.41,-332.05 957.698,-315.511 850,-299 836.091,-296.868 820.936,-294.346 807.325,-292.009"/>
<polygon fill="midnightblue" stroke="midnightblue" points="1157.11,-344.995 1167.47,-342.788 1157.99,-338.052 1157.11,-344.995"/>
</g>
<!-- Node17 -->
<g id="node11" class="node"><title>Node17</title>
<g id="a_node11"><a xlink:href="_d_b_8cpp.html" target="_top" xlink:title="Работа с базой данных">
<polygon fill="white" stroke="black" points="702.5,-207 702.5,-226 797.5,-226 797.5,-207 702.5,-207"/>
<text text-anchor="middle" x="750" y="-214" font-family="Helvetica,sans-Serif" font-size="10.00">src/delete/DB.cpp</text>
</a>
</g>
</g>
<!-- Node7&#45;&gt;Node17 -->
<g id="edge13" class="edge"><title>Node7&#45;&gt;Node17</title>
<path fill="none" stroke="midnightblue" d="M1157.49,-342.1C1100.32,-334.478 1014.41,-320.629 942,-299 874.86,-278.947 799.523,-242.645 766.739,-226.116"/>
<polygon fill="midnightblue" stroke="midnightblue" points="1157.1,-345.579 1167.47,-343.406 1158.01,-338.638 1157.1,-345.579"/>
</g>
<!-- Node18 -->
<g id="node12" class="node"><title>Node18</title>
<g id="a_node12"><a xlink:href="mem_8cpp.html" target="_top" xlink:title=" ">
<polygon fill="white" stroke="black" points="951.5,-268.5 951.5,-298.5 1064.5,-298.5 1064.5,-268.5 951.5,-268.5"/>
<text text-anchor="start" x="959.5" y="-286.5" font-family="Helvetica,sans-Serif" font-size="10.00">src/opportunity_check</text>
<text text-anchor="middle" x="1008" y="-275.5" font-family="Helvetica,sans-Serif" font-size="10.00">/memorydb/mem.cpp</text>
</a>
</g>
</g>
<!-- Node7&#45;&gt;Node18 -->
<g id="edge14" class="edge"><title>Node7&#45;&gt;Node18</title>
<path fill="none" stroke="midnightblue" d="M1165.11,-332.444C1130.58,-321.908 1086.81,-308.549 1054.24,-298.611"/>
<polygon fill="midnightblue" stroke="midnightblue" points="1164.46,-335.905 1175.04,-335.476 1166.5,-329.21 1164.46,-335.905"/>
</g>
<!-- Node19 -->
<g id="node13" class="node"><title>Node19</title>
<g id="a_node13"><a xlink:href="opportunity__check_2minidb_2_mini_d_b_8h.html" target="_top" xlink:title="Облегчённый класс для работы с бд">
<polygon fill="white" stroke="black" points="1082.5,-268.5 1082.5,-298.5 1195.5,-298.5 1195.5,-268.5 1082.5,-268.5"/>
<text text-anchor="start" x="1090.5" y="-286.5" font-family="Helvetica,sans-Serif" font-size="10.00">src/opportunity_check</text>
<text text-anchor="middle" x="1139" y="-275.5" font-family="Helvetica,sans-Serif" font-size="10.00">/minidb/MiniDB.h</text>
</a>
</g>
</g>
<!-- Node7&#45;&gt;Node19 -->
<g id="edge15" class="edge"><title>Node7&#45;&gt;Node19</title>
<path fill="none" stroke="midnightblue" d="M1195.35,-329.168C1182.81,-319.228 1168.03,-307.514 1156.76,-298.577"/>
<polygon fill="midnightblue" stroke="midnightblue" points="1193.2,-331.927 1203.21,-335.396 1197.54,-326.441 1193.2,-331.927"/>
</g>
<!-- Node22 -->
<g id="node16" class="node"><title>Node22</title>
<g id="a_node16"><a xlink:href="server_2src_2_battleship_royale_8cpp.html" target="_top" xlink:title="Сервер">
<polygon fill="white" stroke="black" points="1423,-0.5 1423,-30.5 1545,-30.5 1545,-0.5 1423,-0.5"/>
<text text-anchor="start" x="1431" y="-18.5" font-family="Helvetica,sans-Serif" font-size="10.00">src/server/src/Battleship</text>
<text text-anchor="middle" x="1484" y="-7.5" font-family="Helvetica,sans-Serif" font-size="10.00">Royale.cpp</text>
</a>
</g>
</g>
<!-- Node7&#45;&gt;Node22 -->
<g id="edge18" class="edge"><title>Node7&#45;&gt;Node22</title>
<path fill="none" stroke="midnightblue" d="M1285.2,-346.916C1426.64,-340.793 1756.12,-324.013 1800,-299 1831.82,-280.86 1836.8,-266.876 1848,-232 1891.57,-96.3556 1660.07,-42.5399 1545.38,-24.4292"/>
<polygon fill="midnightblue" stroke="midnightblue" points="1284.78,-343.431 1274.94,-347.356 1285.08,-350.424 1284.78,-343.431"/>
</g>
<!-- Node23 -->
<g id="node17" class="node"><title>Node23</title>
<g id="a_node17"><a xlink:href="server_2src_2_mini_d_b_8h.html" target="_top" xlink:title="Облегчённый класс для работы с бд">
<polygon fill="white" stroke="black" points="1229,-274 1229,-293 1347,-293 1347,-274 1229,-274"/>
<text text-anchor="middle" x="1288" y="-281" font-family="Helvetica,sans-Serif" font-size="10.00">src/server/src/MiniDB.h</text>
</a>
</g>
</g>
<!-- Node7&#45;&gt;Node23 -->
<g id="edge19" class="edge"><title>Node7&#45;&gt;Node23</title>
<path fill="none" stroke="midnightblue" d="M1242.82,-328.335C1255.12,-316.401 1269.82,-302.136 1279.04,-293.195"/>
<polygon fill="midnightblue" stroke="midnightblue" points="1240.28,-325.921 1235.54,-335.396 1245.15,-330.945 1240.28,-325.921"/>
</g>
<!-- Node31 -->
<g id="node25" class="node"><title>Node31</title>
<g id="a_node25"><a xlink:href="server_2src_2con__handler_8cpp.html" target="_top" xlink:title="handler">
<polygon fill="white" stroke="black" points="1456,-67.5 1456,-97.5 1550,-97.5 1550,-67.5 1456,-67.5"/>
<text text-anchor="start" x="1464" y="-85.5" font-family="Helvetica,sans-Serif" font-size="10.00">src/server/src/con</text>
<text text-anchor="middle" x="1503" y="-74.5" font-family="Helvetica,sans-Serif" font-size="10.00">_handler.cpp</text>
</a>
</g>
</g>
<!-- Node7&#45;&gt;Node31 -->
<g id="edge35" class="edge"><title>Node7&#45;&gt;Node31</title>
<path fill="none" stroke="midnightblue" d="M1284.67,-343.386C1357.97,-335.49 1473.15,-320.2 1511,-299 1588.11,-255.807 1670.79,-207.699 1622,-134 1606.02,-109.858 1575.93,-97.224 1550,-90.6297"/>
<polygon fill="midnightblue" stroke="midnightblue" points="1284.19,-339.917 1274.61,-344.451 1284.93,-346.878 1284.19,-339.917"/>
</g>
<!-- Node32 -->
<g id="node26" class="node"><title>Node32</title>
<g id="a_node26"><a xlink:href="server_2src_2_processing_8cpp.html" target="_top" xlink:title="Обработка запросов">
<polygon fill="white" stroke="black" points="1467,-140 1467,-159 1613,-159 1613,-140 1467,-140"/>
<text text-anchor="middle" x="1540" y="-147" font-family="Helvetica,sans-Serif" font-size="10.00">src/server/src/Processing.cpp</text>
</a>
</g>
</g>
<!-- Node7&#45;&gt;Node32 -->
<g id="edge38" class="edge"><title>Node7&#45;&gt;Node32</title>
<path fill="none" stroke="midnightblue" d="M1284.95,-347.526C1362.84,-341.273 1491.49,-317.688 1552,-232 1567.84,-209.569 1553.17,-174.941 1544.84,-159.029"/>
<polygon fill="midnightblue" stroke="midnightblue" points="1284.49,-344.049 1274.77,-348.267 1285,-351.031 1284.49,-344.049"/>
</g>
<!-- Node34 -->
<g id="node28" class="node"><title>Node34</title>
<g id="a_node28"><a xlink:href="server_2src_2_console_8h.html" target="_top" xlink:title="Обработка команд в консоли сервера">
<polygon fill="white" stroke="black" points="1669,-274 1669,-293 1791,-293 1791,-274 1669,-274"/>
<text text-anchor="middle" x="1730" y="-281" font-family="Helvetica,sans-Serif" font-size="10.00">src/server/src/Console.h</text>
</a>
</g>
</g>
<!-- Node7&#45;&gt;Node34 -->
<g id="edge32" class="edge"><title>Node7&#45;&gt;Node34</title>
<path fill="none" stroke="midnightblue" d="M1284.61,-343.609C1369.37,-335.415 1523.89,-319.272 1655,-299 1666.01,-297.298 1677.87,-295.151 1688.83,-293.036"/>
<polygon fill="midnightblue" stroke="midnightblue" points="1284.25,-340.128 1274.63,-344.569 1284.91,-347.096 1284.25,-340.128"/>
</g>
<!-- Node36 -->
<g id="node30" class="node"><title>Node36</title>
<g id="a_node30"><a xlink:href="_mem_d_bmap_8cpp.html" target="_top" xlink:title="Облегчённый класс для работы с бд в памяти">
<polygon fill="white" stroke="black" points="1871.5,-274 1871.5,-293 2022.5,-293 2022.5,-274 1871.5,-274"/>
<text text-anchor="middle" x="1947" y="-281" font-family="Helvetica,sans-Serif" font-size="10.00">src/server/src/MemDBmap.cpp</text>
</a>
</g>
</g>
<!-- Node7&#45;&gt;Node36 -->
<g id="edge36" class="edge"><title>Node7&#45;&gt;Node36</title>
<path fill="none" stroke="midnightblue" d="M1284.77,-346.14C1399.52,-339.715 1648.3,-324.057 1857,-299 1870.51,-297.378 1885.1,-295.209 1898.52,-293.044"/>
<polygon fill="midnightblue" stroke="midnightblue" points="1284.54,-342.647 1274.75,-346.697 1284.93,-349.637 1284.54,-342.647"/>
</g>
<!-- Node37 -->
<g id="node31" class="node"><title>Node37</title>
<g id="a_node31"><a xlink:href="_mem_d_buid_8cpp.html" target="_top" xlink:title="Облегчённый класс для работы с бд в памяти">
<polygon fill="white" stroke="black" points="2040.5,-274 2040.5,-293 2185.5,-293 2185.5,-274 2040.5,-274"/>
<text text-anchor="middle" x="2113" y="-281" font-family="Helvetica,sans-Serif" font-size="10.00">src/server/src/MemDBuid.cpp</text>
</a>
</g>
</g>
<!-- Node7&#45;&gt;Node37 -->
<g id="edge37" class="edge"><title>Node7&#45;&gt;Node37</title>
<path fill="none" stroke="midnightblue" d="M1285.15,-348.01C1422.53,-344.27 1755.23,-332.277 2032,-299 2044.62,-297.482 2058.26,-295.267 2070.68,-293.023"/>
<polygon fill="midnightblue" stroke="midnightblue" points="1284.71,-344.52 1274.81,-348.286 1284.9,-351.518 1284.71,-344.52"/>
</g>
<!-- Node38 -->
<g id="node32" class="node"><title>Node38</title>
<g id="a_node32"><a xlink:href="server_2src_2_regex_8cpp.html" target="_top" xlink:title="Работа с регулярными выражениями">
<polygon fill="white" stroke="black" points="2203.5,-274 2203.5,-293 2328.5,-293 2328.5,-274 2203.5,-274"/>
<text text-anchor="middle" x="2266" y="-281" font-family="Helvetica,sans-Serif" font-size="10.00">src/server/src/Regex.cpp</text>
</a>
</g>
</g>
<!-- Node7&#45;&gt;Node38 -->
<g id="edge39" class="edge"><title>Node7&#45;&gt;Node38</title>
<path fill="none" stroke="midnightblue" d="M1284.92,-349.485C1441.02,-348.734 1853.88,-342.427 2195,-299 2206.36,-297.554 2218.61,-295.304 2229.69,-293.004"/>
<polygon fill="midnightblue" stroke="midnightblue" points="1284.55,-345.987 1274.57,-349.529 1284.58,-352.987 1284.55,-345.987"/>
</g>
<!-- Node10&#45;&gt;Node9 -->
<g id="edge4" class="edge"><title>Node10&#45;&gt;Node9</title>
<path fill="none" stroke="midnightblue" d="M425.187,-267.849C440.877,-257 462.131,-242.303 477.625,-231.589"/>
<polygon fill="midnightblue" stroke="midnightblue" points="422.912,-265.167 416.677,-273.734 426.893,-270.925 422.912,-265.167"/>
</g>
<!-- Node11 -->
<g id="node5" class="node"><title>Node11</title>
<g id="a_node5"><a xlink:href="client_2src_2_client_8cpp.html" target="_top" xlink:title=" ">
<polygon fill="white" stroke="black" points="170.5,-207 170.5,-226 289.5,-226 289.5,-207 170.5,-207"/>
<text text-anchor="middle" x="230" y="-214" font-family="Helvetica,sans-Serif" font-size="10.00">src/client/src/Client.cpp</text>
</a>
</g>
</g>
<!-- Node10&#45;&gt;Node11 -->
<g id="edge5" class="edge"><title>Node10&#45;&gt;Node11</title>
<path fill="none" stroke="midnightblue" d="M371.263,-270.271C336.729,-257.37 283.206,-237.376 252.924,-226.064"/>
<polygon fill="midnightblue" stroke="midnightblue" points="370.302,-273.648 380.894,-273.869 372.751,-267.09 370.302,-273.648"/>
</g>
<!-- Node12 -->
<g id="node6" class="node"><title>Node12</title>
<g id="a_node6"><a xlink:href="_loop_connections_8cpp.html" target="_top" xlink:title=" ">
<polygon fill="white" stroke="black" points="307.5,-201.5 307.5,-231.5 420.5,-231.5 420.5,-201.5 307.5,-201.5"/>
<text text-anchor="start" x="315.5" y="-219.5" font-family="Helvetica,sans-Serif" font-size="10.00">src/client/src/test</text>
<text text-anchor="middle" x="364" y="-208.5" font-family="Helvetica,sans-Serif" font-size="10.00">/LoopConnections.cpp</text>
</a>
</g>
</g>
<!-- Node10&#45;&gt;Node12 -->
<g id="edge6" class="edge"><title>Node10&#45;&gt;Node12</title>
<path fill="none" stroke="midnightblue" d="M393.252,-265.035C386.803,-254.556 378.709,-241.402 372.67,-231.589"/>
<polygon fill="midnightblue" stroke="midnightblue" points="390.384,-267.052 398.605,-273.734 396.345,-263.383 390.384,-267.052"/>
</g>
<!-- Node13 -->
<g id="node7" class="node"><title>Node13</title>
<g id="a_node7"><a xlink:href="_simultaneous_connections_8cpp.html" target="_top" xlink:title=" ">
<polygon fill="white" stroke="black" points="0,-201.5 0,-231.5 152,-231.5 152,-201.5 0,-201.5"/>
<text text-anchor="start" x="8" y="-219.5" font-family="Helvetica,sans-Serif" font-size="10.00">src/client/src/test</text>
<text text-anchor="middle" x="76" y="-208.5" font-family="Helvetica,sans-Serif" font-size="10.00">/SimultaneousConnections.cpp</text>
</a>
</g>
</g>
<!-- Node10&#45;&gt;Node13 -->
<g id="edge7" class="edge"><title>Node10&#45;&gt;Node13</title>
<path fill="none" stroke="midnightblue" d="M356.985,-271.658C351.269,-270.396 345.506,-269.15 340,-268 276.849,-254.81 204.913,-241.138 152.097,-231.352"/>
<polygon fill="midnightblue" stroke="midnightblue" points="356.635,-275.166 367.157,-273.929 358.161,-268.334 356.635,-275.166"/>
</g>
<!-- Node14&#45;&gt;Node9 -->
<g id="edge9" class="edge"><title>Node14&#45;&gt;Node9</title>
<path fill="none" stroke="midnightblue" d="M603.279,-269.342C581.058,-258.4 549.501,-242.86 526.739,-231.652"/>
<polygon fill="midnightblue" stroke="midnightblue" points="601.954,-272.591 612.471,-273.869 605.046,-266.311 601.954,-272.591"/>
</g>
<!-- Node15 -->
<g id="node9" class="node"><title>Node15</title>
<g id="a_node9"><a xlink:href="_t_u_i_8cpp.html" target="_top" xlink:title=" ">
<polygon fill="white" stroke="black" points="575.5,-207 575.5,-226 684.5,-226 684.5,-207 575.5,-207"/>
<text text-anchor="middle" x="630" y="-214" font-family="Helvetica,sans-Serif" font-size="10.00">src/client/src/TUI.cpp</text>
</a>
</g>
</g>
<!-- Node14&#45;&gt;Node15 -->
<g id="edge10" class="edge"><title>Node14&#45;&gt;Node15</title>
<path fill="none" stroke="midnightblue" d="M630,-263.537C630,-251.17 630,-235.62 630,-226.127"/>
<polygon fill="midnightblue" stroke="midnightblue" points="626.5,-263.734 630,-273.734 633.5,-263.734 626.5,-263.734"/>
</g>
<!-- Node16&#45;&gt;Node17 -->
<g id="edge12" class="edge"><title>Node16&#45;&gt;Node17</title>
<path fill="none" stroke="midnightblue" d="M760.711,-263.915C757.843,-251.488 754.204,-235.717 751.991,-226.127"/>
<polygon fill="midnightblue" stroke="midnightblue" points="757.318,-264.777 762.977,-273.734 764.139,-263.203 757.318,-264.777"/>
</g>
<!-- Node20 -->
<g id="node14" class="node"><title>Node20</title>
<g id="a_node14"><a xlink:href="opportunity__check_2minidb_2_mini_d_b_8cpp.html" target="_top" xlink:title="Облегчённый класс для работы с бд">
<polygon fill="white" stroke="black" points="815.5,-201.5 815.5,-231.5 928.5,-231.5 928.5,-201.5 815.5,-201.5"/>
<text text-anchor="start" x="823.5" y="-219.5" font-family="Helvetica,sans-Serif" font-size="10.00">src/opportunity_check</text>
<text text-anchor="middle" x="872" y="-208.5" font-family="Helvetica,sans-Serif" font-size="10.00">/minidb/MiniDB.cpp</text>
</a>
</g>
</g>
<!-- Node19&#45;&gt;Node20 -->
<g id="edge16" class="edge"><title>Node19&#45;&gt;Node20</title>
<path fill="none" stroke="midnightblue" d="M1072.57,-266.327C1028.26,-255.541 970.647,-241.515 928.542,-231.265"/>
<polygon fill="midnightblue" stroke="midnightblue" points="1071.83,-269.75 1082.38,-268.715 1073.49,-262.949 1071.83,-269.75"/>
</g>
<!-- Node21 -->
<g id="node15" class="node"><title>Node21</title>
<g id="a_node15"><a xlink:href="test_8cpp.html" target="_top" xlink:title=" ">
<polygon fill="white" stroke="black" points="946.5,-201.5 946.5,-231.5 1059.5,-231.5 1059.5,-201.5 946.5,-201.5"/>
<text text-anchor="start" x="954.5" y="-219.5" font-family="Helvetica,sans-Serif" font-size="10.00">src/opportunity_check</text>
<text text-anchor="middle" x="1003" y="-208.5" font-family="Helvetica,sans-Serif" font-size="10.00">/minidb/test.cpp</text>
</a>
</g>
</g>
<!-- Node19&#45;&gt;Node21 -->
<g id="edge17" class="edge"><title>Node19&#45;&gt;Node21</title>
<path fill="none" stroke="midnightblue" d="M1100.28,-263.992C1078.72,-253.689 1052.31,-241.068 1032.45,-231.577"/>
<polygon fill="midnightblue" stroke="midnightblue" points="1098.96,-267.242 1109.49,-268.396 1101.98,-260.926 1098.96,-267.242"/>
</g>
<!-- Node23&#45;&gt;Node22 -->
<g id="edge21" class="edge"><title>Node23&#45;&gt;Node22</title>
<path fill="none" stroke="midnightblue" d="M1315.11,-268.984C1343.46,-253.076 1381.22,-225.691 1361,-201 1309.59,-138.217 1233.41,-227.783 1182,-165 1173.27,-154.34 1174.22,-145.372 1182,-134 1235.99,-55.0575 1351.45,-29.1455 1422.93,-20.6448"/>
<polygon fill="midnightblue" stroke="midnightblue" points="1313.1,-266.093 1305.96,-273.919 1316.42,-272.255 1313.1,-266.093"/>
</g>
<!-- Node24 -->
<g id="node18" class="node"><title>Node24</title>
<g id="a_node18"><a xlink:href="examples_2_mini_d_b_8cpp.html" target="_top" xlink:title=" ">
<polygon fill="white" stroke="black" points="1078,-207 1078,-226 1206,-226 1206,-207 1078,-207"/>
<text text-anchor="middle" x="1142" y="-214" font-family="Helvetica,sans-Serif" font-size="10.00">src/examples/MiniDB.cpp</text>
</a>
</g>
</g>
<!-- Node23&#45;&gt;Node24 -->
<g id="edge20" class="edge"><title>Node23&#45;&gt;Node24</title>
<path fill="none" stroke="midnightblue" d="M1259.43,-269.781C1230.52,-256.909 1186.6,-237.355 1161.47,-226.167"/>
<polygon fill="midnightblue" stroke="midnightblue" points="1258.05,-272.999 1268.61,-273.869 1260.9,-266.604 1258.05,-272.999"/>
</g>
<!-- Node25 -->
<g id="node19" class="node"><title>Node25</title>
<g id="a_node19"><a xlink:href="_processing_8h.html" target="_top" xlink:title="Обработка запросов">
<polygon fill="white" stroke="black" points="1408.5,-207 1408.5,-226 1543.5,-226 1543.5,-207 1408.5,-207"/>
<text text-anchor="middle" x="1476" y="-214" font-family="Helvetica,sans-Serif" font-size="10.00">src/server/src/Processing.h</text>
</a>
</g>
</g>
<!-- Node23&#45;&gt;Node25 -->
<g id="edge22" class="edge"><title>Node23&#45;&gt;Node25</title>
<path fill="none" stroke="midnightblue" d="M1322.89,-270.436C1360.19,-257.542 1418.37,-237.424 1451.23,-226.064"/>
<polygon fill="midnightblue" stroke="midnightblue" points="1321.27,-267.293 1312.96,-273.869 1323.56,-273.909 1321.27,-267.293"/>
</g>
<!-- Node33 -->
<g id="node27" class="node"><title>Node33</title>
<g id="a_node27"><a xlink:href="server_2src_2_mini_d_b_8cpp.html" target="_top" xlink:title="Облегчённый класс для работы с бд">
<polygon fill="white" stroke="black" points="1224,-207 1224,-226 1352,-226 1352,-207 1224,-207"/>
<text text-anchor="middle" x="1288" y="-214" font-family="Helvetica,sans-Serif" font-size="10.00">src/server/src/MiniDB.cpp</text>
</a>
</g>
</g>
<!-- Node23&#45;&gt;Node33 -->
<g id="edge31" class="edge"><title>Node23&#45;&gt;Node33</title>
<path fill="none" stroke="midnightblue" d="M1288,-263.537C1288,-251.17 1288,-235.62 1288,-226.127"/>
<polygon fill="midnightblue" stroke="midnightblue" points="1284.5,-263.734 1288,-273.734 1291.5,-263.734 1284.5,-263.734"/>
</g>
<!-- Node26 -->
<g id="node20" class="node"><title>Node26</title>
<g id="a_node20"><a xlink:href="examples_2_processing_8cpp.html" target="_top" xlink:title=" ">
<polygon fill="white" stroke="black" points="1191,-140 1191,-159 1337,-159 1337,-140 1191,-140"/>
<text text-anchor="middle" x="1264" y="-147" font-family="Helvetica,sans-Serif" font-size="10.00">src/examples/Processing.cpp</text>
</a>
</g>
</g>
<!-- Node25&#45;&gt;Node26 -->
<g id="edge23" class="edge"><title>Node25&#45;&gt;Node26</title>
<path fill="none" stroke="midnightblue" d="M1438.26,-203.929C1396.28,-191.059 1329.46,-170.57 1291.93,-159.064"/>
<polygon fill="midnightblue" stroke="midnightblue" points="1437.26,-207.283 1447.85,-206.869 1439.31,-200.591 1437.26,-207.283"/>
</g>
<!-- Node27 -->
<g id="node21" class="node"><title>Node27</title>
<g id="a_node21"><a xlink:href="server_2src_2con__handler_8h.html" target="_top" xlink:title="handler">
<polygon fill="white" stroke="black" points="1355,-134.5 1355,-164.5 1449,-164.5 1449,-134.5 1355,-134.5"/>
<text text-anchor="start" x="1363" y="-152.5" font-family="Helvetica,sans-Serif" font-size="10.00">src/server/src/con</text>
<text text-anchor="middle" x="1402" y="-141.5" font-family="Helvetica,sans-Serif" font-size="10.00">_handler.h</text>
</a>
</g>
</g>
<!-- Node25&#45;&gt;Node27 -->
<g id="edge24" class="edge"><title>Node25&#45;&gt;Node27</title>
<path fill="none" stroke="midnightblue" d="M1458.27,-199.928C1446.03,-189.179 1429.9,-175.002 1418.04,-164.589"/>
<polygon fill="midnightblue" stroke="midnightblue" points="1456.2,-202.764 1466.02,-206.734 1460.82,-197.505 1456.2,-202.764"/>
</g>
<!-- Node25&#45;&gt;Node32 -->
<g id="edge30" class="edge"><title>Node25&#45;&gt;Node32</title>
<path fill="none" stroke="midnightblue" d="M1491.76,-199.497C1504.31,-186.75 1521.4,-169.395 1531.51,-159.127"/>
<polygon fill="midnightblue" stroke="midnightblue" points="1489.15,-197.152 1484.63,-206.734 1494.14,-202.064 1489.15,-197.152"/>
</g>
<!-- Node28 -->
<g id="node22" class="node"><title>Node28</title>
<g id="a_node22"><a xlink:href="server_2src_2_server_8h.html" target="_top" xlink:title="Асинхронный сервер написанный на boost asio.">
<polygon fill="white" stroke="black" points="1021.5,-73 1021.5,-92 1134.5,-92 1134.5,-73 1021.5,-73"/>
<text text-anchor="middle" x="1078" y="-80" font-family="Helvetica,sans-Serif" font-size="10.00">src/server/src/Server.h</text>
</a>
</g>
</g>
<!-- Node27&#45;&gt;Node28 -->
<g id="edge25" class="edge"><title>Node27&#45;&gt;Node28</title>
<path fill="none" stroke="midnightblue" d="M1344.86,-133.826C1264.11,-115.998 1181.05,-101.034 1129.09,-92.0753"/>
<polygon fill="midnightblue" stroke="midnightblue" points="1344.18,-137.258 1354.7,-136.014 1345.7,-130.426 1344.18,-137.258"/>
</g>
<!-- Node27&#45;&gt;Node31 -->
<g id="edge29" class="edge"><title>Node27&#45;&gt;Node31</title>
<path fill="none" stroke="midnightblue" d="M1432.71,-128.734C1448.34,-118.676 1466.97,-106.685 1481.13,-97.5765"/>
<polygon fill="midnightblue" stroke="midnightblue" points="1430.43,-126.041 1423.92,-134.396 1434.22,-131.927 1430.43,-126.041"/>
</g>
<!-- Node28&#45;&gt;Node22 -->
<g id="edge27" class="edge"><title>Node28&#45;&gt;Node22</title>
<path fill="none" stroke="midnightblue" d="M1128.2,-70.9113C1135.17,-69.5383 1142.26,-68.1957 1149,-67 1244.27,-50.1032 1355.42,-34.0696 1422.71,-24.7667"/>
<polygon fill="midnightblue" stroke="midnightblue" points="1127.23,-67.5365 1118.11,-72.9312 1128.6,-74.4003 1127.23,-67.5365"/>
</g>
<!-- Node29 -->
<g id="node23" class="node"><title>Node29</title>
<g id="a_node23"><a xlink:href="examples_2_server_8cpp.html" target="_top" xlink:title=" ">
<polygon fill="white" stroke="black" points="1087,-6 1087,-25 1211,-25 1211,-6 1087,-6"/>
<text text-anchor="middle" x="1149" y="-13" font-family="Helvetica,sans-Serif" font-size="10.00">src/examples/Server.cpp</text>
</a>
</g>
</g>
<!-- Node28&#45;&gt;Node29 -->
<g id="edge26" class="edge"><title>Node28&#45;&gt;Node29</title>
<path fill="none" stroke="midnightblue" d="M1095.09,-65.8564C1109.05,-53.0777 1128.26,-35.4915 1139.58,-25.1273"/>
<polygon fill="midnightblue" stroke="midnightblue" points="1092.59,-63.3997 1087.58,-72.7338 1097.31,-68.5628 1092.59,-63.3997"/>
</g>
<!-- Node30 -->
<g id="node24" class="node"><title>Node30</title>
<g id="a_node24"><a xlink:href="server_2src_2_server_8cpp.html" target="_top" xlink:title="Асинхронный сервер написанный на boost asio.">
<polygon fill="white" stroke="black" points="945,-6 945,-25 1069,-25 1069,-6 945,-6"/>
<text text-anchor="middle" x="1007" y="-13" font-family="Helvetica,sans-Serif" font-size="10.00">src/server/src/Server.cpp</text>
</a>
</g>
</g>
<!-- Node28&#45;&gt;Node30 -->
<g id="edge28" class="edge"><title>Node28&#45;&gt;Node30</title>
<path fill="none" stroke="midnightblue" d="M1060.91,-65.8564C1046.95,-53.0777 1027.74,-35.4915 1016.42,-25.1273"/>
<polygon fill="midnightblue" stroke="midnightblue" points="1058.69,-68.5628 1068.42,-72.7338 1063.41,-63.3997 1058.69,-68.5628"/>
</g>
<!-- Node34&#45;&gt;Node22 -->
<g id="edge33" class="edge"><title>Node34&#45;&gt;Node22</title>
<path fill="none" stroke="midnightblue" d="M1718.15,-265.244C1711.81,-255.663 1704.07,-243.407 1698,-232 1675.65,-190.014 1685.18,-170.76 1655,-134 1615.57,-85.9786 1551.64,-49.3233 1514.12,-30.5204"/>
<polygon fill="midnightblue" stroke="midnightblue" points="1715.43,-267.466 1723.92,-273.803 1721.23,-263.554 1715.43,-267.466"/>
</g>
<!-- Node35 -->
<g id="node29" class="node"><title>Node35</title>
<g id="a_node29"><a xlink:href="server_2src_2_console_8cpp.html" target="_top" xlink:title="Обработка команд в консоли сервера">
<polygon fill="white" stroke="black" points="1707,-207 1707,-226 1839,-226 1839,-207 1707,-207"/>
<text text-anchor="middle" x="1773" y="-214" font-family="Helvetica,sans-Serif" font-size="10.00">src/server/src/Console.cpp</text>
</a>
</g>
</g>
<!-- Node34&#45;&gt;Node35 -->
<g id="edge34" class="edge"><title>Node34&#45;&gt;Node35</title>
<path fill="none" stroke="midnightblue" d="M1741.55,-265.035C1749.88,-252.45 1760.76,-236.007 1767.29,-226.127"/>
<polygon fill="midnightblue" stroke="midnightblue" points="1738.4,-263.463 1735.8,-273.734 1744.24,-267.325 1738.4,-263.463"/>
</g>
</g>
</svg>
