<?xml version="1.0" encoding="UTF-8" standalone="no"?>
<!DOCTYPE svg PUBLIC "-//W3C//DTD SVG 1.1//EN"
 "http://www.w3.org/Graphics/SVG/1.1/DTD/svg11.dtd">
<!-- Generated by graphviz version 2.38.0 (20140413.2041)
 -->
<!-- Title: src/BattleshipRoyale/BattleshipRoyale.h Pages: 1 -->
<svg width="891pt" height="95pt"
 viewBox="0.00 0.00 891.00 95.00" xmlns="http://www.w3.org/2000/svg" xmlns:xlink="http://www.w3.org/1999/xlink">
<g id="graph0" class="graph" transform="scale(1 1) rotate(0) translate(4 91)">
<title>src/BattleshipRoyale/BattleshipRoyale.h</title>
<polygon fill="white" stroke="none" points="-4,4 -4,-91 887,-91 887,4 -4,4"/>
<!-- Node0 -->
<g id="node1" class="node"><title>Node0</title>
<g id="a_node1"><a xlink:title="Заголовочный файл с пространством имён, которое хранит в себе константы.">
<polygon fill="#bfbfbf" stroke="black" points="395.5,-56.5 395.5,-86.5 502.5,-86.5 502.5,-56.5 395.5,-56.5"/>
<text text-anchor="start" x="403.5" y="-74.5" font-family="Helvetica,sans-Serif" font-size="10.00">src/BattleshipRoyale</text>
<text text-anchor="middle" x="449" y="-63.5" font-family="Helvetica,sans-Serif" font-size="10.00">/BattleshipRoyale.h</text>
</a>
</g>
</g>
<!-- Node1 -->
<g id="node2" class="node"><title>Node1</title>
<g id="a_node2"><a xlink:href="_version_8h.html" target="_top" xlink:title="Версия программы">
<polygon fill="white" stroke="black" points="0,-0.5 0,-19.5 134,-19.5 134,-0.5 0,-0.5"/>
<text text-anchor="middle" x="67" y="-7.5" font-family="Helvetica,sans-Serif" font-size="10.00">BattleshipRoyale/Version.h</text>
</a>
</g>
</g>
<!-- Node0&#45;&gt;Node1 -->
<g id="edge1" class="edge"><title>Node0&#45;&gt;Node1</title>
<path fill="none" stroke="midnightblue" d="M395.482,-62.1641C326.353,-51.3966 206.109,-32.6676 131.861,-21.1027"/>
<polygon fill="midnightblue" stroke="midnightblue" points="132.119,-17.6008 121.7,-19.52 131.042,-24.5174 132.119,-17.6008"/>
</g>
<!-- Node2 -->
<g id="node3" class="node"><title>Node2</title>
<g id="a_node3"><a xlink:href="_connect_8h.html" target="_top" xlink:title="Константы с параметрами для подключения">
<polygon fill="white" stroke="black" points="152.5,-0.5 152.5,-19.5 289.5,-19.5 289.5,-0.5 152.5,-0.5"/>
<text text-anchor="middle" x="221" y="-7.5" font-family="Helvetica,sans-Serif" font-size="10.00">BattleshipRoyale/Connect.h</text>
</a>
</g>
</g>
<!-- Node0&#45;&gt;Node2 -->
<g id="edge2" class="edge"><title>Node0&#45;&gt;Node2</title>
<path fill="none" stroke="midnightblue" d="M395.256,-56.4747C355.062,-45.9856 300.845,-31.8367 263.619,-22.1221"/>
<polygon fill="midnightblue" stroke="midnightblue" points="264.156,-18.6449 253.596,-19.5064 262.388,-25.4181 264.156,-18.6449"/>
</g>
<!-- Node3 -->
<g id="node4" class="node"><title>Node3</title>
<g id="a_node4"><a xlink:href="sqlite3_8h.html" target="_top" xlink:title="Константы для работы с базой данных sqlite3.">
<polygon fill="white" stroke="black" points="308,-0.5 308,-19.5 438,-19.5 438,-0.5 308,-0.5"/>
<text text-anchor="middle" x="373" y="-7.5" font-family="Helvetica,sans-Serif" font-size="10.00">BattleshipRoyale/sqlite3.h</text>
</a>
</g>
</g>
<!-- Node0&#45;&gt;Node3 -->
<g id="edge3" class="edge"><title>Node0&#45;&gt;Node3</title>
<path fill="none" stroke="midnightblue" d="M430.989,-56.3993C419.262,-47.2185 403.985,-35.2579 392.055,-25.9182"/>
<polygon fill="midnightblue" stroke="midnightblue" points="394.09,-23.0664 384.059,-19.6578 389.775,-28.5782 394.09,-23.0664"/>
</g>
<!-- Node4 -->
<g id="node5" class="node"><title>Node4</title>
<g id="a_node5"><a xlink:href="_battleship_royale_2_battleship_royale_2_console_8h.html" target="_top" xlink:title="Константы консоли">
<polygon fill="white" stroke="black" points="456.5,-0.5 456.5,-19.5 593.5,-19.5 593.5,-0.5 456.5,-0.5"/>
<text text-anchor="middle" x="525" y="-7.5" font-family="Helvetica,sans-Serif" font-size="10.00">BattleshipRoyale/Console.h</text>
</a>
</g>
</g>
<!-- Node0&#45;&gt;Node4 -->
<g id="edge4" class="edge"><title>Node0&#45;&gt;Node4</title>
<path fill="none" stroke="midnightblue" d="M467.011,-56.3993C478.738,-47.2185 494.015,-35.2579 505.945,-25.9182"/>
<polygon fill="midnightblue" stroke="midnightblue" points="508.225,-28.5782 513.941,-19.6578 503.91,-23.0664 508.225,-28.5782"/>
</g>
<!-- Node5 -->
<g id="node6" class="node"><title>Node5</title>
<g id="a_node6"><a xlink:href="_battleship_royale_2_battleship_royale_2_regex_8h.html" target="_top" xlink:title="Константы регулярных выражений">
<polygon fill="white" stroke="black" points="611.5,-0.5 611.5,-19.5 740.5,-19.5 740.5,-0.5 611.5,-0.5"/>
<text text-anchor="middle" x="676" y="-7.5" font-family="Helvetica,sans-Serif" font-size="10.00">BattleshipRoyale/Regex.h</text>
</a>
</g>
</g>
<!-- Node0&#45;&gt;Node5 -->
<g id="edge5" class="edge"><title>Node0&#45;&gt;Node5</title>
<path fill="none" stroke="midnightblue" d="M502.508,-56.4747C542.526,-45.9856 596.505,-31.8367 633.568,-22.1221"/>
<polygon fill="midnightblue" stroke="midnightblue" points="634.761,-25.4276 643.547,-19.5064 632.986,-18.6563 634.761,-25.4276"/>
</g>
<!-- Node6 -->
<g id="node7" class="node"><title>Node6</title>
<g id="a_node7"><a xlink:href="_code_8h.html" target="_top" xlink:title="Различные коды ответов">
<polygon fill="white" stroke="black" points="759,-0.5 759,-19.5 883,-19.5 883,-0.5 759,-0.5"/>
<text text-anchor="middle" x="821" y="-7.5" font-family="Helvetica,sans-Serif" font-size="10.00">BattleshipRoyale/Code.h</text>
</a>
</g>
</g>
<!-- Node0&#45;&gt;Node6 -->
<g id="edge6" class="edge"><title>Node0&#45;&gt;Node6</title>
<path fill="none" stroke="midnightblue" d="M502.695,-61.9117C570.104,-51.1299 685.583,-32.6595 757.361,-21.1788"/>
<polygon fill="midnightblue" stroke="midnightblue" points="758.301,-24.573 767.623,-19.5374 757.196,-17.6608 758.301,-24.573"/>
</g>
</g>
</svg>
