<?xml version="1.0" encoding="UTF-8" standalone="no"?>
<!DOCTYPE svg PUBLIC "-//W3C//DTD SVG 1.1//EN"
 "http://www.w3.org/Graphics/SVG/1.1/DTD/svg11.dtd">
<!-- Generated by graphviz version 2.38.0 (20140413.2041)
 -->
<!-- Title: src/BattleshipRoyale/BattleshipRoyale.h Pages: 1 -->
<svg width="1703pt" height="374pt"
 viewBox="0.00 0.00 1702.50 374.00" xmlns="http://www.w3.org/2000/svg" xmlns:xlink="http://www.w3.org/1999/xlink">
<g id="graph0" class="graph" transform="scale(1 1) rotate(0) translate(4 370)">
<title>src/BattleshipRoyale/BattleshipRoyale.h</title>
<polygon fill="white" stroke="none" points="-4,4 -4,-370 1698.5,-370 1698.5,4 -4,4"/>
<!-- Node1 -->
<g id="node1" class="node"><title>Node1</title>
<g id="a_node1"><a xlink:title="Заголовочный файл с пространством имён, которое хранит в себе константы.">
<polygon fill="#bfbfbf" stroke="black" points="618,-335.5 618,-365.5 725,-365.5 725,-335.5 618,-335.5"/>
<text text-anchor="start" x="626" y="-353.5" font-family="Helvetica,sans-Serif" font-size="10.00">src/BattleshipRoyale</text>
<text text-anchor="middle" x="671.5" y="-342.5" font-family="Helvetica,sans-Serif" font-size="10.00">/BattleshipRoyale.h</text>
</a>
</g>
</g>
<!-- Node2 -->
<g id="node2" class="node"><title>Node2</title>
<g id="a_node2"><a xlink:href="client_2src_2_battleship_royale_8cpp.html" target="_top" xlink:title="Клиент">
<polygon fill="white" stroke="black" points="0,-268.5 0,-298.5 119,-298.5 119,-268.5 0,-268.5"/>
<text text-anchor="start" x="8" y="-286.5" font-family="Helvetica,sans-Serif" font-size="10.00">src/client/src/Battleship</text>
<text text-anchor="middle" x="59.5" y="-275.5" font-family="Helvetica,sans-Serif" font-size="10.00">Royale.cpp</text>
</a>
</g>
</g>
<!-- Node1&#45;&gt;Node2 -->
<g id="edge1" class="edge"><title>Node1&#45;&gt;Node2</title>
<path fill="none" stroke="midnightblue" d="M607.802,-345.589C506.848,-338.927 304.055,-323.652 133.5,-299 128.836,-298.326 124.02,-297.554 119.187,-296.727"/>
<polygon fill="midnightblue" stroke="midnightblue" points="607.63,-349.085 617.837,-346.245 608.087,-342.1 607.63,-349.085"/>
</g>
<!-- Node3 -->
<g id="node3" class="node"><title>Node3</title>
<g id="a_node3"><a xlink:href="_d_b_8h.html" target="_top" xlink:title="Работа с базой данных">
<polygon fill="white" stroke="black" points="175.5,-274 175.5,-293 259.5,-293 259.5,-274 175.5,-274"/>
<text text-anchor="middle" x="217.5" y="-281" font-family="Helvetica,sans-Serif" font-size="10.00">src/delete/DB.h</text>
</a>
</g>
</g>
<!-- Node1&#45;&gt;Node3 -->
<g id="edge2" class="edge"><title>Node1&#45;&gt;Node3</title>
<path fill="none" stroke="midnightblue" d="M607.454,-343.904C528.478,-336.423 390.349,-321.447 273.5,-299 265.018,-297.371 255.915,-295.2 247.566,-293.035"/>
<polygon fill="midnightblue" stroke="midnightblue" points="607.444,-347.418 617.727,-344.866 608.097,-340.449 607.444,-347.418"/>
</g>
<!-- Node4 -->
<g id="node4" class="node"><title>Node4</title>
<g id="a_node4"><a xlink:href="_d_b_8cpp.html" target="_top" xlink:title="Работа с базой данных">
<polygon fill="white" stroke="black" points="105,-207 105,-226 200,-226 200,-207 105,-207"/>
<text text-anchor="middle" x="152.5" y="-214" font-family="Helvetica,sans-Serif" font-size="10.00">src/delete/DB.cpp</text>
</a>
</g>
</g>
<!-- Node1&#45;&gt;Node4 -->
<g id="edge4" class="edge"><title>Node1&#45;&gt;Node4</title>
<path fill="none" stroke="midnightblue" d="M607.814,-347.379C479.25,-342.496 198.194,-328.536 166.5,-299 146.125,-280.012 148.591,-242.999 150.98,-226.184"/>
<polygon fill="midnightblue" stroke="midnightblue" points="607.792,-350.881 617.915,-347.756 608.053,-343.886 607.792,-350.881"/>
</g>
<!-- Node5 -->
<g id="node5" class="node"><title>Node5</title>
<g id="a_node5"><a xlink:href="server_2src_2_battleship_royale_8cpp.html" target="_top" xlink:title="Сервер">
<polygon fill="white" stroke="black" points="215.5,-0.5 215.5,-30.5 337.5,-30.5 337.5,-0.5 215.5,-0.5"/>
<text text-anchor="start" x="223.5" y="-18.5" font-family="Helvetica,sans-Serif" font-size="10.00">src/server/src/Battleship</text>
<text text-anchor="middle" x="276.5" y="-7.5" font-family="Helvetica,sans-Serif" font-size="10.00">Royale.cpp</text>
</a>
</g>
</g>
<!-- Node1&#45;&gt;Node5 -->
<g id="edge5" class="edge"><title>Node1&#45;&gt;Node5</title>
<path fill="none" stroke="midnightblue" d="M607.724,-345.875C547.013,-340.735 453.975,-328.404 378.5,-299 327.267,-279.041 305.648,-277.31 274.5,-232 232.808,-171.351 249.254,-139.732 260.5,-67 262.439,-54.4574 266.937,-40.7625 270.672,-30.8025"/>
<polygon fill="midnightblue" stroke="midnightblue" points="607.677,-349.383 617.926,-346.697 608.239,-342.405 607.677,-349.383"/>
</g>
<!-- Node6 -->
<g id="node6" class="node"><title>Node6</title>
<g id="a_node6"><a xlink:href="server_2src_2_mini_d_b_8h.html" target="_top" xlink:title="Облегчённый класс для работы с бд">
<polygon fill="white" stroke="black" points="387.5,-274 387.5,-293 505.5,-293 505.5,-274 387.5,-274"/>
<text text-anchor="middle" x="446.5" y="-281" font-family="Helvetica,sans-Serif" font-size="10.00">src/server/src/MiniDB.h</text>
</a>
</g>
</g>
<!-- Node1&#45;&gt;Node6 -->
<g id="edge6" class="edge"><title>Node1&#45;&gt;Node6</title>
<path fill="none" stroke="midnightblue" d="M613.244,-332.671C569.27,-319.967 510.76,-303.064 476.022,-293.029"/>
<polygon fill="midnightblue" stroke="midnightblue" points="612.377,-336.063 622.955,-335.476 614.32,-329.338 612.377,-336.063"/>
</g>
<!-- Node12 -->
<g id="node12" class="node"><title>Node12</title>
<g id="a_node12"><a xlink:href="server_2src_2con__handler_8cpp.html" target="_top" xlink:title="handler">
<polygon fill="white" stroke="black" points="648.5,-67.5 648.5,-97.5 742.5,-97.5 742.5,-67.5 648.5,-67.5"/>
<text text-anchor="start" x="656.5" y="-85.5" font-family="Helvetica,sans-Serif" font-size="10.00">src/server/src/con</text>
<text text-anchor="middle" x="695.5" y="-74.5" font-family="Helvetica,sans-Serif" font-size="10.00">_handler.cpp</text>
</a>
</g>
</g>
<!-- Node1&#45;&gt;Node12 -->
<g id="edge17" class="edge"><title>Node1&#45;&gt;Node12</title>
<path fill="none" stroke="midnightblue" d="M675.877,-325.578C679.17,-309.165 684.193,-287.003 690.5,-268 706.237,-220.587 725.284,-213.9 735.5,-165 738.318,-151.513 740.029,-147.012 735.5,-134 730.647,-120.057 720.164,-107.066 711.147,-97.7529"/>
<polygon fill="midnightblue" stroke="midnightblue" points="672.432,-324.959 673.966,-335.442 679.304,-326.29 672.432,-324.959"/>
</g>
<!-- Node13 -->
<g id="node13" class="node"><title>Node13</title>
<g id="a_node13"><a xlink:href="server_2src_2_processing_8cpp.html" target="_top" xlink:title="Обработка запросов">
<polygon fill="white" stroke="black" points="580.5,-140 580.5,-159 726.5,-159 726.5,-140 580.5,-140"/>
<text text-anchor="middle" x="653.5" y="-147" font-family="Helvetica,sans-Serif" font-size="10.00">src/server/src/Processing.cpp</text>
</a>
</g>
</g>
<!-- Node1&#45;&gt;Node13 -->
<g id="edge21" class="edge"><title>Node1&#45;&gt;Node13</title>
<path fill="none" stroke="midnightblue" d="M663.522,-325.365C661.135,-317.098 658.808,-307.731 657.5,-299 649.63,-246.458 651.836,-182.319 652.997,-159.269"/>
<polygon fill="midnightblue" stroke="midnightblue" points="660.233,-326.578 666.504,-335.117 666.927,-324.531 660.233,-326.578"/>
</g>
<!-- Node15 -->
<g id="node15" class="node"><title>Node15</title>
<g id="a_node15"><a xlink:href="server_2src_2_console_8cpp.html" target="_top" xlink:title=" ">
<polygon fill="white" stroke="black" points="699.5,-274 699.5,-293 831.5,-293 831.5,-274 699.5,-274"/>
<text text-anchor="middle" x="765.5" y="-281" font-family="Helvetica,sans-Serif" font-size="10.00">src/server/src/Console.cpp</text>
</a>
</g>
</g>
<!-- Node1&#45;&gt;Node15 -->
<g id="edge18" class="edge"><title>Node1&#45;&gt;Node15</title>
<path fill="none" stroke="midnightblue" d="M700.219,-329.641C717.959,-317.374 739.814,-302.261 753.198,-293.007"/>
<polygon fill="midnightblue" stroke="midnightblue" points="698.131,-326.83 691.897,-335.396 702.112,-332.587 698.131,-326.83"/>
</g>
<!-- Node16 -->
<g id="node16" class="node"><title>Node16</title>
<g id="a_node16"><a xlink:href="_mem_d_bmap_8cpp.html" target="_top" xlink:title="Облегчённый класс для работы с бд в памяти">
<polygon fill="white" stroke="black" points="850,-274 850,-293 1001,-293 1001,-274 850,-274"/>
<text text-anchor="middle" x="925.5" y="-281" font-family="Helvetica,sans-Serif" font-size="10.00">src/server/src/MemDBmap.cpp</text>
</a>
</g>
</g>
<!-- Node1&#45;&gt;Node16 -->
<g id="edge19" class="edge"><title>Node1&#45;&gt;Node16</title>
<path fill="none" stroke="midnightblue" d="M734.789,-333.304C784.703,-320.531 852.335,-303.223 892.202,-293.021"/>
<polygon fill="midnightblue" stroke="midnightblue" points="733.877,-329.925 725.056,-335.795 735.612,-336.706 733.877,-329.925"/>
</g>
<!-- Node17 -->
<g id="node17" class="node"><title>Node17</title>
<g id="a_node17"><a xlink:href="_mem_d_buid_8cpp.html" target="_top" xlink:title="Облегчённый класс для работы с бд в памяти">
<polygon fill="white" stroke="black" points="1019,-274 1019,-293 1164,-293 1164,-274 1019,-274"/>
<text text-anchor="middle" x="1091.5" y="-281" font-family="Helvetica,sans-Serif" font-size="10.00">src/server/src/MemDBuid.cpp</text>
</a>
</g>
</g>
<!-- Node1&#45;&gt;Node17 -->
<g id="edge20" class="edge"><title>Node1&#45;&gt;Node17</title>
<path fill="none" stroke="midnightblue" d="M735.158,-340.584C803.352,-330.9 914.713,-314.705 1010.5,-299 1021.78,-297.151 1033.92,-295.041 1045.28,-293.015"/>
<polygon fill="midnightblue" stroke="midnightblue" points="734.415,-337.154 725.006,-342.023 735.398,-344.085 734.415,-337.154"/>
</g>
<!-- Node18 -->
<g id="node18" class="node"><title>Node18</title>
<g id="a_node18"><a xlink:href="server_2src_2_regex_8cpp.html" target="_top" xlink:title="Работа с регулярными выражениями">
<polygon fill="white" stroke="black" points="1182,-274 1182,-293 1307,-293 1307,-274 1182,-274"/>
<text text-anchor="middle" x="1244.5" y="-281" font-family="Helvetica,sans-Serif" font-size="10.00">src/server/src/Regex.cpp</text>
</a>
</g>
</g>
<!-- Node1&#45;&gt;Node18 -->
<g id="edge22" class="edge"><title>Node1&#45;&gt;Node18</title>
<path fill="none" stroke="midnightblue" d="M735.3,-345.161C830.901,-338.19 1016.84,-322.815 1173.5,-299 1184.2,-297.374 1195.72,-295.204 1206.31,-293.039"/>
<polygon fill="midnightblue" stroke="midnightblue" points="734.937,-341.678 725.216,-345.89 735.442,-348.66 734.937,-341.678"/>
</g>
<!-- Node19 -->
<g id="node19" class="node"><title>Node19</title>
<g id="a_node19"><a xlink:href="mem_8cpp.html" target="_top" xlink:title=" ">
<polygon fill="white" stroke="black" points="1325,-268.5 1325,-298.5 1436,-298.5 1436,-268.5 1325,-268.5"/>
<text text-anchor="start" x="1333" y="-286.5" font-family="Helvetica,sans-Serif" font-size="10.00">src/testing/memorydb</text>
<text text-anchor="middle" x="1380.5" y="-275.5" font-family="Helvetica,sans-Serif" font-size="10.00">/mem.cpp</text>
</a>
</g>
</g>
<!-- Node1&#45;&gt;Node19 -->
<g id="edge23" class="edge"><title>Node1&#45;&gt;Node19</title>
<path fill="none" stroke="midnightblue" d="M735.461,-347.557C851.723,-343.346 1105.21,-331.034 1316.5,-299 1319.2,-298.59 1321.96,-298.13 1324.74,-297.632"/>
<polygon fill="midnightblue" stroke="midnightblue" points="735.184,-344.065 725.315,-347.917 735.432,-351.06 735.184,-344.065"/>
</g>
<!-- Node20 -->
<g id="node20" class="node"><title>Node20</title>
<g id="a_node20"><a xlink:href="testing_2minidb_2_mini_d_b_8h.html" target="_top" xlink:title="Облегчённый класс для работы с бд">
<polygon fill="white" stroke="black" points="1454.5,-268.5 1454.5,-298.5 1548.5,-298.5 1548.5,-268.5 1454.5,-268.5"/>
<text text-anchor="start" x="1462.5" y="-286.5" font-family="Helvetica,sans-Serif" font-size="10.00">src/testing/minidb</text>
<text text-anchor="middle" x="1501.5" y="-275.5" font-family="Helvetica,sans-Serif" font-size="10.00">/MiniDB.h</text>
</a>
</g>
</g>
<!-- Node1&#45;&gt;Node20 -->
<g id="edge24" class="edge"><title>Node1&#45;&gt;Node20</title>
<path fill="none" stroke="midnightblue" d="M735.395,-349.383C868.407,-348.251 1184.39,-340.938 1445.5,-299 1448.38,-298.538 1451.32,-297.995 1454.28,-297.394"/>
<polygon fill="midnightblue" stroke="midnightblue" points="735.349,-345.883 725.376,-349.459 735.402,-352.883 735.349,-345.883"/>
</g>
<!-- Node3&#45;&gt;Node4 -->
<g id="edge3" class="edge"><title>Node3&#45;&gt;Node4</title>
<path fill="none" stroke="midnightblue" d="M201.497,-266.497C188.75,-253.75 171.395,-236.395 161.127,-226.127"/>
<polygon fill="midnightblue" stroke="midnightblue" points="199.188,-269.138 208.734,-273.734 204.138,-264.188 199.188,-269.138"/>
</g>
<!-- Node6&#45;&gt;Node5 -->
<g id="edge7" class="edge"><title>Node6&#45;&gt;Node5</title>
<path fill="none" stroke="midnightblue" d="M377.457,-276.129C347.662,-269.682 315.19,-256.956 295.5,-232 247.46,-171.112 264.559,-68.2343 272.968,-30.726"/>
<polygon fill="midnightblue" stroke="midnightblue" points="376.951,-279.596 387.437,-278.083 378.296,-272.726 376.951,-279.596"/>
</g>
<!-- Node7 -->
<g id="node7" class="node"><title>Node7</title>
<g id="a_node7"><a xlink:href="_processing_8h.html" target="_top" xlink:title="Обработка запросов">
<polygon fill="white" stroke="black" points="451,-207 451,-226 586,-226 586,-207 451,-207"/>
<text text-anchor="middle" x="518.5" y="-214" font-family="Helvetica,sans-Serif" font-size="10.00">src/server/src/Processing.h</text>
</a>
</g>
</g>
<!-- Node6&#45;&gt;Node7 -->
<g id="edge8" class="edge"><title>Node6&#45;&gt;Node7</title>
<path fill="none" stroke="midnightblue" d="M463.828,-266.856C477.983,-254.078 497.463,-236.492 508.944,-226.127"/>
<polygon fill="midnightblue" stroke="midnightblue" points="461.288,-264.435 456.21,-273.734 465.978,-269.631 461.288,-264.435"/>
</g>
<!-- Node14 -->
<g id="node14" class="node"><title>Node14</title>
<g id="a_node14"><a xlink:href="server_2src_2_mini_d_b_8cpp.html" target="_top" xlink:title="Облегчённый класс для работы с бд">
<polygon fill="white" stroke="black" points="304.5,-207 304.5,-226 432.5,-226 432.5,-207 304.5,-207"/>
<text text-anchor="middle" x="368.5" y="-214" font-family="Helvetica,sans-Serif" font-size="10.00">src/server/src/MiniDB.cpp</text>
</a>
</g>
</g>
<!-- Node6&#45;&gt;Node14 -->
<g id="edge16" class="edge"><title>Node6&#45;&gt;Node14</title>
<path fill="none" stroke="midnightblue" d="M428.156,-267.213C412.788,-254.407 391.406,-236.588 378.853,-226.127"/>
<polygon fill="midnightblue" stroke="midnightblue" points="426.058,-270.021 435.981,-273.734 430.539,-264.643 426.058,-270.021"/>
</g>
<!-- Node8 -->
<g id="node8" class="node"><title>Node8</title>
<g id="a_node8"><a xlink:href="examples_2_processing_8cpp.html" target="_top" xlink:title=" ">
<polygon fill="white" stroke="black" points="304.5,-140 304.5,-159 450.5,-159 450.5,-140 304.5,-140"/>
<text text-anchor="middle" x="377.5" y="-147" font-family="Helvetica,sans-Serif" font-size="10.00">src/examples/Processing.cpp</text>
</a>
</g>
</g>
<!-- Node7&#45;&gt;Node8 -->
<g id="edge9" class="edge"><title>Node7&#45;&gt;Node8</title>
<path fill="none" stroke="midnightblue" d="M490.544,-202.613C462.618,-189.739 420.464,-170.306 396.301,-159.167"/>
<polygon fill="midnightblue" stroke="midnightblue" points="489.23,-205.86 499.776,-206.869 492.16,-199.503 489.23,-205.86"/>
</g>
<!-- Node9 -->
<g id="node9" class="node"><title>Node9</title>
<g id="a_node9"><a xlink:href="server_2src_2con__handler_8h.html" target="_top" xlink:title="handler">
<polygon fill="white" stroke="black" points="468.5,-134.5 468.5,-164.5 562.5,-164.5 562.5,-134.5 468.5,-134.5"/>
<text text-anchor="start" x="476.5" y="-152.5" font-family="Helvetica,sans-Serif" font-size="10.00">src/server/src/con</text>
<text text-anchor="middle" x="515.5" y="-141.5" font-family="Helvetica,sans-Serif" font-size="10.00">_handler.h</text>
</a>
</g>
</g>
<!-- Node7&#45;&gt;Node9 -->
<g id="edge10" class="edge"><title>Node7&#45;&gt;Node9</title>
<path fill="none" stroke="midnightblue" d="M517.634,-196.739C517.161,-186.487 516.585,-174.001 516.15,-164.589"/>
<polygon fill="midnightblue" stroke="midnightblue" points="514.138,-196.906 518.095,-206.734 521.131,-196.583 514.138,-196.906"/>
</g>
<!-- Node7&#45;&gt;Node13 -->
<g id="edge15" class="edge"><title>Node7&#45;&gt;Node13</title>
<path fill="none" stroke="midnightblue" d="M545.617,-202.444C572.356,-189.569 612.466,-170.257 635.499,-159.167"/>
<polygon fill="midnightblue" stroke="midnightblue" points="543.919,-199.377 536.427,-206.869 546.955,-205.684 543.919,-199.377"/>
</g>
<!-- Node10 -->
<g id="node10" class="node"><title>Node10</title>
<g id="a_node10"><a xlink:href="server_2src_2_server_8h.html" target="_top" xlink:title="Асинхронный сервер написанный на boost asio.">
<polygon fill="white" stroke="black" points="410,-73 410,-92 523,-92 523,-73 410,-73"/>
<text text-anchor="middle" x="466.5" y="-80" font-family="Helvetica,sans-Serif" font-size="10.00">src/server/src/Server.h</text>
</a>
</g>
</g>
<!-- Node9&#45;&gt;Node10 -->
<g id="edge11" class="edge"><title>Node9&#45;&gt;Node10</title>
<path fill="none" stroke="midnightblue" d="M498.777,-126.316C489.943,-114.598 479.604,-100.883 473.054,-92.1945"/>
<polygon fill="midnightblue" stroke="midnightblue" points="496.053,-128.518 504.868,-134.396 501.643,-124.304 496.053,-128.518"/>
</g>
<!-- Node9&#45;&gt;Node12 -->
<g id="edge14" class="edge"><title>Node9&#45;&gt;Node12</title>
<path fill="none" stroke="midnightblue" d="M564.085,-130.955C593.081,-120.485 629.411,-107.366 656.519,-97.5765"/>
<polygon fill="midnightblue" stroke="midnightblue" points="562.774,-127.708 554.557,-134.396 565.152,-134.291 562.774,-127.708"/>
</g>
<!-- Node10&#45;&gt;Node5 -->
<g id="edge12" class="edge"><title>Node10&#45;&gt;Node5</title>
<path fill="none" stroke="midnightblue" d="M431.394,-69.4899C399.182,-58.4702 351.456,-42.143 317.505,-30.5281"/>
<polygon fill="midnightblue" stroke="midnightblue" points="430.675,-72.9431 441.269,-72.8685 432.941,-66.32 430.675,-72.9431"/>
</g>
<!-- Node11 -->
<g id="node11" class="node"><title>Node11</title>
<g id="a_node11"><a xlink:href="server_2src_2_server_8cpp.html" target="_top" xlink:title="Асинхронный сервер написанный на boost asio.">
<polygon fill="white" stroke="black" points="404.5,-6 404.5,-25 528.5,-25 528.5,-6 404.5,-6"/>
<text text-anchor="middle" x="466.5" y="-13" font-family="Helvetica,sans-Serif" font-size="10.00">src/server/src/Server.cpp</text>
</a>
</g>
</g>
<!-- Node10&#45;&gt;Node11 -->
<g id="edge13" class="edge"><title>Node10&#45;&gt;Node11</title>
<path fill="none" stroke="midnightblue" d="M466.5,-62.537C466.5,-50.1703 466.5,-34.6198 466.5,-25.1273"/>
<polygon fill="midnightblue" stroke="midnightblue" points="463,-62.7338 466.5,-72.7338 470,-62.7338 463,-62.7338"/>
</g>
<!-- Node21 -->
<g id="node21" class="node"><title>Node21</title>
<g id="a_node21"><a xlink:href="examples_2_mini_d_b_8cpp.html" target="_top" xlink:title=" ">
<polygon fill="white" stroke="black" points="1566.5,-207 1566.5,-226 1694.5,-226 1694.5,-207 1566.5,-207"/>
<text text-anchor="middle" x="1630.5" y="-214" font-family="Helvetica,sans-Serif" font-size="10.00">src/examples/MiniDB.cpp</text>
</a>
</g>
</g>
<!-- Node20&#45;&gt;Node21 -->
<g id="edge25" class="edge"><title>Node20&#45;&gt;Node21</title>
<path fill="none" stroke="midnightblue" d="M1538.61,-263.803C1563.34,-251.342 1594.67,-235.556 1613.62,-226.007"/>
<polygon fill="midnightblue" stroke="midnightblue" points="1536.85,-260.77 1529.49,-268.396 1540,-267.022 1536.85,-260.77"/>
</g>
<!-- Node22 -->
<g id="node22" class="node"><title>Node22</title>
<g id="a_node22"><a xlink:href="testing_2minidb_2_mini_d_b_8cpp.html" target="_top" xlink:title="Облегчённый класс для работы с бд">
<polygon fill="white" stroke="black" points="1342.5,-201.5 1342.5,-231.5 1436.5,-231.5 1436.5,-201.5 1342.5,-201.5"/>
<text text-anchor="start" x="1350.5" y="-219.5" font-family="Helvetica,sans-Serif" font-size="10.00">src/testing/minidb</text>
<text text-anchor="middle" x="1389.5" y="-208.5" font-family="Helvetica,sans-Serif" font-size="10.00">/MiniDB.cpp</text>
</a>
</g>
</g>
<!-- Node20&#45;&gt;Node22 -->
<g id="edge26" class="edge"><title>Node20&#45;&gt;Node22</title>
<path fill="none" stroke="midnightblue" d="M1468.41,-263.296C1450.88,-253.125 1429.74,-240.855 1413.75,-231.577"/>
<polygon fill="midnightblue" stroke="midnightblue" points="1466.79,-266.404 1477.2,-268.396 1470.31,-260.349 1466.79,-266.404"/>
</g>
<!-- Node23 -->
<g id="node23" class="node"><title>Node23</title>
<g id="a_node23"><a xlink:href="test_8cpp.html" target="_top" xlink:title=" ">
<polygon fill="white" stroke="black" points="1454.5,-201.5 1454.5,-231.5 1548.5,-231.5 1548.5,-201.5 1454.5,-201.5"/>
<text text-anchor="start" x="1462.5" y="-219.5" font-family="Helvetica,sans-Serif" font-size="10.00">src/testing/minidb</text>
<text text-anchor="middle" x="1501.5" y="-208.5" font-family="Helvetica,sans-Serif" font-size="10.00">/test.cpp</text>
</a>
</g>
</g>
<!-- Node20&#45;&gt;Node23 -->
<g id="edge27" class="edge"><title>Node20&#45;&gt;Node23</title>
<path fill="none" stroke="midnightblue" d="M1501.5,-258.108C1501.5,-249.154 1501.5,-239.323 1501.5,-231.577"/>
<polygon fill="midnightblue" stroke="midnightblue" points="1498,-258.396 1501.5,-268.396 1505,-258.396 1498,-258.396"/>
</g>
</g>
</svg>
