<?xml version="1.0" encoding="UTF-8" standalone="no"?>
<!DOCTYPE svg PUBLIC "-//W3C//DTD SVG 1.1//EN"
 "http://www.w3.org/Graphics/SVG/1.1/DTD/svg11.dtd">
<!-- Generated by graphviz version 2.38.0 (20140413.2041)
 -->
<!-- Title: BattleshipRoyale.h Pages: 1 -->
<svg width="856pt" height="308pt"
 viewBox="0.00 0.00 856.00 308.00" xmlns="http://www.w3.org/2000/svg" xmlns:xlink="http://www.w3.org/1999/xlink">
<g id="graph0" class="graph" transform="scale(1 1) rotate(0) translate(4 304)">
<title>BattleshipRoyale.h</title>
<polygon fill="white" stroke="none" points="-4,4 -4,-304 852,-304 852,4 -4,4"/>
<!-- Node1 -->
<g id="node1" class="node"><title>Node1</title>
<g id="a_node1"><a xlink:title="Заголовочный файл с пространством имён, которое хранит в себе константы.">
<polygon fill="#bfbfbf" stroke="black" points="280.5,-280.5 280.5,-299.5 378.5,-299.5 378.5,-280.5 280.5,-280.5"/>
<text text-anchor="middle" x="329.5" y="-287.5" font-family="Helvetica,sans-Serif" font-size="10.00">BattleshipRoyale.h</text>
</a>
</g>
</g>
<!-- Node2 -->
<g id="node2" class="node"><title>Node2</title>
<g id="a_node2"><a xlink:href="client_2src_2_battleship_royale_8cpp.html" target="_top" xlink:title="Клиент">
<polygon fill="white" stroke="black" points="0,-224.5 0,-243.5 109,-243.5 109,-224.5 0,-224.5"/>
<text text-anchor="middle" x="54.5" y="-231.5" font-family="Helvetica,sans-Serif" font-size="10.00">BattleshipRoyale.cpp</text>
</a>
</g>
</g>
<!-- Node1&#45;&gt;Node2 -->
<g id="edge1" class="edge"><title>Node1&#45;&gt;Node2</title>
<path fill="none" stroke="midnightblue" d="M275.892,-278.473C223.919,-268.268 146.062,-252.979 97.8707,-243.516"/>
<polygon fill="midnightblue" stroke="midnightblue" points="275.438,-281.951 285.925,-280.444 276.787,-275.082 275.438,-281.951"/>
</g>
<!-- Node3 -->
<g id="node3" class="node"><title>Node3</title>
<g id="a_node3"><a xlink:href="_d_b_8h.html" target="_top" xlink:title="Работа с базой данных">
<polygon fill="white" stroke="black" points="165.5,-224.5 165.5,-243.5 203.5,-243.5 203.5,-224.5 165.5,-224.5"/>
<text text-anchor="middle" x="184.5" y="-231.5" font-family="Helvetica,sans-Serif" font-size="10.00">DB.h</text>
</a>
</g>
</g>
<!-- Node1&#45;&gt;Node3 -->
<g id="edge2" class="edge"><title>Node1&#45;&gt;Node3</title>
<path fill="none" stroke="midnightblue" d="M296.928,-276.87C268.232,-266.183 227.407,-250.979 203.664,-242.137"/>
<polygon fill="midnightblue" stroke="midnightblue" points="295.932,-280.233 306.524,-280.444 298.375,-273.674 295.932,-280.233"/>
</g>
<!-- Node4 -->
<g id="node4" class="node"><title>Node4</title>
<g id="a_node4"><a xlink:href="_d_b_8cpp.html" target="_top" xlink:title="Работа с базой данных">
<polygon fill="white" stroke="black" points="123,-168.5 123,-187.5 172,-187.5 172,-168.5 123,-168.5"/>
<text text-anchor="middle" x="147.5" y="-175.5" font-family="Helvetica,sans-Serif" font-size="10.00">DB.cpp</text>
</a>
</g>
</g>
<!-- Node1&#45;&gt;Node4 -->
<g id="edge4" class="edge"><title>Node1&#45;&gt;Node4</title>
<path fill="none" stroke="midnightblue" d="M270.404,-280.749C226.486,-273.359 171.664,-261.049 156.5,-244 142.569,-228.337 144.014,-201.611 145.929,-187.816"/>
<polygon fill="midnightblue" stroke="midnightblue" points="270.012,-284.232 280.445,-282.387 271.138,-277.323 270.012,-284.232"/>
</g>
<!-- Node5 -->
<g id="node5" class="node"><title>Node5</title>
<g id="a_node5"><a xlink:href="server_2src_2_battleship_royale_8cpp.html" target="_top" xlink:title="Сервер">
<polygon fill="white" stroke="black" points="204,-0.5 204,-19.5 313,-19.5 313,-0.5 204,-0.5"/>
<text text-anchor="middle" x="258.5" y="-7.5" font-family="Helvetica,sans-Serif" font-size="10.00">BattleshipRoyale.cpp</text>
</a>
</g>
</g>
<!-- Node1&#45;&gt;Node5 -->
<g id="edge5" class="edge"><title>Node1&#45;&gt;Node5</title>
<path fill="none" stroke="midnightblue" d="M313.913,-273.105C306.596,-264.943 298.242,-254.521 292.5,-244 255.827,-176.803 258.584,-152.444 254.5,-76 253.426,-55.9038 255.78,-32.329 257.313,-19.8288"/>
<polygon fill="midnightblue" stroke="midnightblue" points="311.369,-275.509 320.75,-280.432 316.487,-270.733 311.369,-275.509"/>
</g>
<!-- Node6 -->
<g id="node6" class="node"><title>Node6</title>
<g id="a_node6"><a xlink:href="server_2src_2_mini_d_b_8h.html" target="_top" xlink:title="Облегчённый класс для работы с бд">
<polygon fill="white" stroke="black" points="301.5,-224.5 301.5,-243.5 357.5,-243.5 357.5,-224.5 301.5,-224.5"/>
<text text-anchor="middle" x="329.5" y="-231.5" font-family="Helvetica,sans-Serif" font-size="10.00">MiniDB.h</text>
</a>
</g>
</g>
<!-- Node1&#45;&gt;Node6 -->
<g id="edge6" class="edge"><title>Node1&#45;&gt;Node6</title>
<path fill="none" stroke="midnightblue" d="M329.5,-269.805C329.5,-260.91 329.5,-250.78 329.5,-243.751"/>
<polygon fill="midnightblue" stroke="midnightblue" points="326,-270.083 329.5,-280.083 333,-270.083 326,-270.083"/>
</g>
<!-- Node12 -->
<g id="node12" class="node"><title>Node12</title>
<g id="a_node12"><a xlink:href="server_2src_2con__handler_8cpp.html" target="_top" xlink:title="handler">
<polygon fill="white" stroke="black" points="511.5,-56.5 511.5,-75.5 599.5,-75.5 599.5,-56.5 511.5,-56.5"/>
<text text-anchor="middle" x="555.5" y="-63.5" font-family="Helvetica,sans-Serif" font-size="10.00">con_handler.cpp</text>
</a>
</g>
</g>
<!-- Node1&#45;&gt;Node12 -->
<g id="edge17" class="edge"><title>Node1&#45;&gt;Node12</title>
<path fill="none" stroke="midnightblue" d="M371.11,-277.393C430.311,-258.306 536.243,-213.969 577.5,-132 587.141,-112.845 572.348,-88.4918 562.715,-75.7202"/>
<polygon fill="midnightblue" stroke="midnightblue" points="369.824,-274.128 361.326,-280.455 371.915,-280.809 369.824,-274.128"/>
</g>
<!-- Node13 -->
<g id="node13" class="node"><title>Node13</title>
<g id="a_node13"><a xlink:href="server_2src_2_processing_8cpp.html" target="_top" xlink:title="Обработка запросов">
<polygon fill="white" stroke="black" points="484.5,-112.5 484.5,-131.5 568.5,-131.5 568.5,-112.5 484.5,-112.5"/>
<text text-anchor="middle" x="526.5" y="-119.5" font-family="Helvetica,sans-Serif" font-size="10.00">Processing.cpp</text>
</a>
</g>
</g>
<!-- Node1&#45;&gt;Node13 -->
<g id="edge18" class="edge"><title>Node1&#45;&gt;Node13</title>
<path fill="none" stroke="midnightblue" d="M351.885,-275.113C380.544,-256.841 431.083,-222.932 469.5,-188 489.711,-169.623 509.994,-144.523 520.031,-131.547"/>
<polygon fill="midnightblue" stroke="midnightblue" points="349.978,-272.178 343.392,-280.477 353.716,-278.096 349.978,-272.178"/>
</g>
<!-- Node15 -->
<g id="node15" class="node"><title>Node15</title>
<g id="a_node15"><a xlink:href="server_2src_2_regex_8cpp.html" target="_top" xlink:title="Работа с регулярными выражениями">
<polygon fill="white" stroke="black" points="625,-224.5 625,-243.5 688,-243.5 688,-224.5 625,-224.5"/>
<text text-anchor="middle" x="656.5" y="-231.5" font-family="Helvetica,sans-Serif" font-size="10.00">Regex.cpp</text>
</a>
</g>
</g>
<!-- Node1&#45;&gt;Node15 -->
<g id="edge19" class="edge"><title>Node1&#45;&gt;Node15</title>
<path fill="none" stroke="midnightblue" d="M388.474,-280.16C445.401,-271.484 533.982,-257.608 610.5,-244 615.147,-243.174 620.049,-242.26 624.853,-241.34"/>
<polygon fill="midnightblue" stroke="midnightblue" points="387.932,-276.702 378.571,-281.665 388.984,-283.622 387.932,-276.702"/>
</g>
<!-- Node16 -->
<g id="node16" class="node"><title>Node16</title>
<g id="a_node16"><a xlink:href="testing_2minidb_2_mini_d_b_8h.html" target="_top" xlink:title="Облегчённый класс для работы с бд">
<polygon fill="white" stroke="black" points="707.5,-224.5 707.5,-243.5 763.5,-243.5 763.5,-224.5 707.5,-224.5"/>
<text text-anchor="middle" x="735.5" y="-231.5" font-family="Helvetica,sans-Serif" font-size="10.00">MiniDB.h</text>
</a>
</g>
</g>
<!-- Node1&#45;&gt;Node16 -->
<g id="edge20" class="edge"><title>Node1&#45;&gt;Node16</title>
<path fill="none" stroke="midnightblue" d="M388.937,-283.778C461.943,-276.894 589.406,-263.348 697.5,-244 700.703,-243.427 704.041,-242.752 707.351,-242.034"/>
<polygon fill="midnightblue" stroke="midnightblue" points="388.202,-280.331 378.57,-284.745 388.852,-287.301 388.202,-280.331"/>
</g>
<!-- Node3&#45;&gt;Node4 -->
<g id="edge3" class="edge"><title>Node3&#45;&gt;Node4</title>
<path fill="none" stroke="midnightblue" d="M172.554,-215.566C166.188,-206.275 158.633,-195.248 153.496,-187.751"/>
<polygon fill="midnightblue" stroke="midnightblue" points="169.851,-217.812 178.39,-224.083 175.625,-213.855 169.851,-217.812"/>
</g>
<!-- Node6&#45;&gt;Node5 -->
<g id="edge7" class="edge"><title>Node6&#45;&gt;Node5</title>
<path fill="none" stroke="midnightblue" d="M310.41,-217.805C301.736,-209.856 292.168,-199.411 286.5,-188 257.159,-128.93 257.212,-46.3096 258.097,-19.6539"/>
<polygon fill="midnightblue" stroke="midnightblue" points="308.134,-220.464 317.986,-224.359 312.713,-215.17 308.134,-220.464"/>
</g>
<!-- Node7 -->
<g id="node7" class="node"><title>Node7</title>
<g id="a_node7"><a xlink:href="_processing_8h.html" target="_top" xlink:title="Обработка запросов">
<polygon fill="white" stroke="black" points="386.5,-168.5 386.5,-187.5 460.5,-187.5 460.5,-168.5 386.5,-168.5"/>
<text text-anchor="middle" x="423.5" y="-175.5" font-family="Helvetica,sans-Serif" font-size="10.00">Processing.h</text>
</a>
</g>
</g>
<!-- Node6&#45;&gt;Node7 -->
<g id="edge8" class="edge"><title>Node6&#45;&gt;Node7</title>
<path fill="none" stroke="midnightblue" d="M353.562,-219.177C370.859,-209.241 393.648,-196.149 408.435,-187.655"/>
<polygon fill="midnightblue" stroke="midnightblue" points="351.53,-216.308 344.603,-224.324 355.017,-222.378 351.53,-216.308"/>
</g>
<!-- Node14 -->
<g id="node14" class="node"><title>Node14</title>
<g id="a_node14"><a xlink:href="server_2src_2_mini_d_b_8cpp.html" target="_top" xlink:title="Облегчённый класс для работы с бд">
<polygon fill="white" stroke="black" points="296,-168.5 296,-187.5 363,-187.5 363,-168.5 296,-168.5"/>
<text text-anchor="middle" x="329.5" y="-175.5" font-family="Helvetica,sans-Serif" font-size="10.00">MiniDB.cpp</text>
</a>
</g>
</g>
<!-- Node6&#45;&gt;Node14 -->
<g id="edge16" class="edge"><title>Node6&#45;&gt;Node14</title>
<path fill="none" stroke="midnightblue" d="M329.5,-213.805C329.5,-204.91 329.5,-194.78 329.5,-187.751"/>
<polygon fill="midnightblue" stroke="midnightblue" points="326,-214.083 329.5,-224.083 333,-214.083 326,-214.083"/>
</g>
<!-- Node8 -->
<g id="node8" class="node"><title>Node8</title>
<g id="a_node8"><a xlink:href="examples_2_processing_8cpp.html" target="_top" xlink:title=" ">
<polygon fill="white" stroke="black" points="286.5,-112.5 286.5,-131.5 370.5,-131.5 370.5,-112.5 286.5,-112.5"/>
<text text-anchor="middle" x="328.5" y="-119.5" font-family="Helvetica,sans-Serif" font-size="10.00">Processing.cpp</text>
</a>
</g>
</g>
<!-- Node7&#45;&gt;Node8 -->
<g id="edge9" class="edge"><title>Node7&#45;&gt;Node8</title>
<path fill="none" stroke="midnightblue" d="M399.182,-163.177C381.701,-153.241 358.67,-140.149 343.726,-131.655"/>
<polygon fill="midnightblue" stroke="midnightblue" points="397.813,-166.425 408.237,-168.324 401.273,-160.339 397.813,-166.425"/>
</g>
<!-- Node9 -->
<g id="node9" class="node"><title>Node9</title>
<g id="a_node9"><a xlink:href="server_2src_2con__handler_8h.html" target="_top" xlink:title="handler">
<polygon fill="white" stroke="black" points="389,-112.5 389,-131.5 466,-131.5 466,-112.5 389,-112.5"/>
<text text-anchor="middle" x="427.5" y="-119.5" font-family="Helvetica,sans-Serif" font-size="10.00">con_handler.h</text>
</a>
</g>
</g>
<!-- Node7&#45;&gt;Node9 -->
<g id="edge10" class="edge"><title>Node7&#45;&gt;Node9</title>
<path fill="none" stroke="midnightblue" d="M424.9,-158.101C425.564,-149.136 426.325,-138.858 426.852,-131.751"/>
<polygon fill="midnightblue" stroke="midnightblue" points="421.409,-157.852 424.161,-168.083 428.39,-158.369 421.409,-157.852"/>
</g>
<!-- Node7&#45;&gt;Node13 -->
<g id="edge15" class="edge"><title>Node7&#45;&gt;Node13</title>
<path fill="none" stroke="midnightblue" d="M449.079,-163.59C468.123,-153.605 493.564,-140.267 509.992,-131.655"/>
<polygon fill="midnightblue" stroke="midnightblue" points="447.28,-160.581 440.049,-168.324 450.531,-166.78 447.28,-160.581"/>
</g>
<!-- Node10 -->
<g id="node10" class="node"><title>Node10</title>
<g id="a_node10"><a xlink:href="server_2src_2_server_8h.html" target="_top" xlink:title="Асинхронный сервер написанный на boost asio.">
<polygon fill="white" stroke="black" points="368.5,-56.5 368.5,-75.5 420.5,-75.5 420.5,-56.5 368.5,-56.5"/>
<text text-anchor="middle" x="394.5" y="-63.5" font-family="Helvetica,sans-Serif" font-size="10.00">Server.h</text>
</a>
</g>
</g>
<!-- Node9&#45;&gt;Node10 -->
<g id="edge11" class="edge"><title>Node9&#45;&gt;Node10</title>
<path fill="none" stroke="midnightblue" d="M416.668,-103.275C411.028,-94.0454 404.382,-83.1703 399.848,-75.7511"/>
<polygon fill="midnightblue" stroke="midnightblue" points="413.85,-105.375 422.051,-112.083 419.823,-101.725 413.85,-105.375"/>
</g>
<!-- Node9&#45;&gt;Node12 -->
<g id="edge14" class="edge"><title>Node9&#45;&gt;Node12</title>
<path fill="none" stroke="midnightblue" d="M457.123,-108.503C481.119,-98.3795 514.284,-84.388 535.313,-75.5164"/>
<polygon fill="midnightblue" stroke="midnightblue" points="455.635,-105.332 447.782,-112.444 458.356,-111.781 455.635,-105.332"/>
</g>
<!-- Node10&#45;&gt;Node5 -->
<g id="edge12" class="edge"><title>Node10&#45;&gt;Node5</title>
<path fill="none" stroke="midnightblue" d="M363.365,-52.6377C337.843,-42.504 302.391,-28.4274 279.949,-19.5164"/>
<polygon fill="midnightblue" stroke="midnightblue" points="362.365,-56.0061 372.95,-56.4435 364.948,-49.5002 362.365,-56.0061"/>
</g>
<!-- Node11 -->
<g id="node11" class="node"><title>Node11</title>
<g id="a_node11"><a xlink:href="server_2src_2_server_8cpp.html" target="_top" xlink:title="Асинхронный сервер написанный на boost asio.">
<polygon fill="white" stroke="black" points="363.5,-0.5 363.5,-19.5 425.5,-19.5 425.5,-0.5 363.5,-0.5"/>
<text text-anchor="middle" x="394.5" y="-7.5" font-family="Helvetica,sans-Serif" font-size="10.00">Server.cpp</text>
</a>
</g>
</g>
<!-- Node10&#45;&gt;Node11 -->
<g id="edge13" class="edge"><title>Node10&#45;&gt;Node11</title>
<path fill="none" stroke="midnightblue" d="M394.5,-45.8045C394.5,-36.9102 394.5,-26.7798 394.5,-19.7511"/>
<polygon fill="midnightblue" stroke="midnightblue" points="391,-46.083 394.5,-56.083 398,-46.083 391,-46.083"/>
</g>
<!-- Node17 -->
<g id="node17" class="node"><title>Node17</title>
<g id="a_node17"><a xlink:href="examples_2_mini_d_b_8cpp.html" target="_top" xlink:title=" ">
<polygon fill="white" stroke="black" points="781,-168.5 781,-187.5 848,-187.5 848,-168.5 781,-168.5"/>
<text text-anchor="middle" x="814.5" y="-175.5" font-family="Helvetica,sans-Serif" font-size="10.00">MiniDB.cpp</text>
</a>
</g>
</g>
<!-- Node16&#45;&gt;Node17 -->
<g id="edge21" class="edge"><title>Node16&#45;&gt;Node17</title>
<path fill="none" stroke="midnightblue" d="M756.534,-218.622C770.966,-208.757 789.641,-195.992 801.839,-187.655"/>
<polygon fill="midnightblue" stroke="midnightblue" points="754.473,-215.791 748.193,-224.324 758.423,-221.57 754.473,-215.791"/>
</g>
<!-- Node18 -->
<g id="node18" class="node"><title>Node18</title>
<g id="a_node18"><a xlink:href="testing_2minidb_2_mini_d_b_8cpp.html" target="_top" xlink:title="Облегчённый класс для работы с бд">
<polygon fill="white" stroke="black" points="625,-168.5 625,-187.5 692,-187.5 692,-168.5 625,-168.5"/>
<text text-anchor="middle" x="658.5" y="-175.5" font-family="Helvetica,sans-Serif" font-size="10.00">MiniDB.cpp</text>
</a>
</g>
</g>
<!-- Node16&#45;&gt;Node18 -->
<g id="edge22" class="edge"><title>Node16&#45;&gt;Node18</title>
<path fill="none" stroke="midnightblue" d="M714.599,-218.342C700.589,-208.517 682.617,-195.913 670.841,-187.655"/>
<polygon fill="midnightblue" stroke="midnightblue" points="712.932,-221.448 723.129,-224.324 716.951,-215.717 712.932,-221.448"/>
</g>
<!-- Node19 -->
<g id="node19" class="node"><title>Node19</title>
<g id="a_node19"><a xlink:href="test_8cpp.html" target="_top" xlink:title=" ">
<polygon fill="white" stroke="black" points="710.5,-168.5 710.5,-187.5 762.5,-187.5 762.5,-168.5 710.5,-168.5"/>
<text text-anchor="middle" x="736.5" y="-175.5" font-family="Helvetica,sans-Serif" font-size="10.00">test.cpp</text>
</a>
</g>
</g>
<!-- Node16&#45;&gt;Node19 -->
<g id="edge23" class="edge"><title>Node16&#45;&gt;Node19</title>
<path fill="none" stroke="midnightblue" d="M735.855,-213.805C736.02,-204.91 736.208,-194.78 736.338,-187.751"/>
<polygon fill="midnightblue" stroke="midnightblue" points="732.351,-214.02 735.665,-224.083 739.35,-214.15 732.351,-214.02"/>
</g>
</g>
</svg>
