<?xml version="1.0" encoding="UTF-8" standalone="no"?>
<!DOCTYPE svg PUBLIC "-//W3C//DTD SVG 1.1//EN"
 "http://www.w3.org/Graphics/SVG/1.1/DTD/svg11.dtd">
<!-- Generated by graphviz version 2.38.0 (20140413.2041)
 -->
<!-- Title: BattleshipRoyale.h Pages: 1 -->
<!--zoomable 252 -->
<svg id="main" version="1.1" xmlns="http://www.w3.org/2000/svg" xmlns:xlink="http://www.w3.org/1999/xlink" xml:space="preserve" onload="init(evt)">
<style type="text/css"><![CDATA[
.edge:hover path { stroke: red; }
.edge:hover polygon { stroke: red; fill: red; }
]]></style>
<script type="text/javascript"><![CDATA[
var edges = document.getElementsByTagName('g');
if (edges && edges.length) {
  for (var i=0;i<edges.length;i++) {
    if (edges[i].id.substr(0,4)=='edge') {
      edges[i].setAttribute('class','edge');
    }
  }
}
]]></script>
        <defs>
                <circle id="rim" cx="0" cy="0" r="7"/>
                <circle id="rim2" cx="0" cy="0" r="3.5"/>
                <g id="zoomPlus">
                        <use xlink:href="#rim" fill="#404040">
                                <set attributeName="fill" to="#808080" begin="zoomplus.mouseover" end="zoomplus.mouseout"/>
                        </use>
                        <path d="M-4,0h8M0,-4v8" fill="none" stroke="white" stroke-width="1.5" pointer-events="none"/>
                </g>
                <g id="zoomMin">
                        <use xlink:href="#rim" fill="#404040">
                                <set attributeName="fill" to="#808080" begin="zoomminus.mouseover" end="zoomminus.mouseout"/>
                        </use>
                        <path d="M-4,0h8" fill="none" stroke="white" stroke-width="1.5" pointer-events="none"/>
                </g>
                <g id="dirArrow">
                        <path fill="none" stroke="white" stroke-width="1.5" d="M0,-3.0v7 M-2.5,-0.5L0,-3.0L2.5,-0.5"/>
                </g>
               <g id="resetDef">
                       <use xlink:href="#rim2" fill="#404040">
                               <set attributeName="fill" to="#808080" begin="reset.mouseover" end="reset.mouseout"/>
                       </use>
               </g>
        </defs>

<script type="text/javascript">
var viewWidth = 693;
var viewHeight = 252;
var sectionId = 'dynsection-0';
</script>
<script xlink:href="svgpan.js"/>
<svg id="graph" class="graph">
<g id="viewport">
<title>BattleshipRoyale.h</title>
<polygon fill="white" stroke="none" points="-4,4 -4,-248 688.5,-248 688.5,4 -4,4"/>
<!-- Node1 -->
<g id="node1" class="node"><title>Node1</title>
<g id="a_node1"><a xlink:title="Заголовочный файл с пространством имён, которое хранит в себе константы.">
<polygon fill="#bfbfbf" stroke="black" points="218.5,-224.5 218.5,-243.5 316.5,-243.5 316.5,-224.5 218.5,-224.5"/>
<text text-anchor="middle" x="267.5" y="-231.5" font-family="Helvetica,sans-Serif" font-size="10.00">BattleshipRoyale.h</text>
</a>
</g>
</g>
<!-- Node2 -->
<g id="node2" class="node"><title>Node2</title>
<g id="a_node2"><a xlink:href="client_2src_2_battleship_royale_8cpp.html" target="_top" xlink:title="Клиент">
<polygon fill="white" stroke="black" points="0,-168.5 0,-187.5 109,-187.5 109,-168.5 0,-168.5"/>
<text text-anchor="middle" x="54.5" y="-175.5" font-family="Helvetica,sans-Serif" font-size="10.00">BattleshipRoyale.cpp</text>
</a>
</g>
</g>
<!-- Node1&#45;&gt;Node2 -->
<g id="edge1" class="edge"><title>Node1&#45;&gt;Node2</title>
<path fill="none" stroke="midnightblue" d="M223.949,-221.959C183.719,-211.76 124.797,-196.822 88.0926,-187.516"/>
<polygon fill="midnightblue" stroke="midnightblue" points="223.196,-225.379 233.75,-224.444 224.916,-218.593 223.196,-225.379"/>
</g>
<!-- Node3 -->
<g id="node3" class="node"><title>Node3</title>
<g id="a_node3"><a xlink:href="_d_b_8h.html" target="_top" xlink:title="Работа с базой данных">
<polygon fill="white" stroke="black" points="127.5,-168.5 127.5,-187.5 165.5,-187.5 165.5,-168.5 127.5,-168.5"/>
<text text-anchor="middle" x="146.5" y="-175.5" font-family="Helvetica,sans-Serif" font-size="10.00">DB.h</text>
</a>
</g>
</g>
<!-- Node1&#45;&gt;Node3 -->
<g id="edge2" class="edge"><title>Node1&#45;&gt;Node3</title>
<path fill="none" stroke="midnightblue" d="M239.194,-220.368C216.535,-210.255 185.374,-196.349 165.583,-187.516"/>
<polygon fill="midnightblue" stroke="midnightblue" points="237.769,-223.564 248.327,-224.444 240.622,-217.172 237.769,-223.564"/>
</g>
<!-- Node4 -->
<g id="node4" class="node"><title>Node4</title>
<g id="a_node4"><a xlink:href="_d_b_8cpp.html" target="_top" xlink:title="Работа с базой данных">
<polygon fill="white" stroke="black" points="130,-112.5 130,-131.5 179,-131.5 179,-112.5 130,-112.5"/>
<text text-anchor="middle" x="154.5" y="-119.5" font-family="Helvetica,sans-Serif" font-size="10.00">DB.cpp</text>
</a>
</g>
</g>
<!-- Node1&#45;&gt;Node4 -->
<g id="edge4" class="edge"><title>Node1&#45;&gt;Node4</title>
<path fill="none" stroke="midnightblue" d="M249.587,-217.409C239.936,-208.877 227.906,-198.029 217.5,-188 197.131,-168.371 174.26,-144.21 162.475,-131.595"/>
<polygon fill="midnightblue" stroke="midnightblue" points="247.533,-220.263 257.356,-224.232 252.152,-215.003 247.533,-220.263"/>
</g>
<!-- Node5 -->
<g id="node5" class="node"><title>Node5</title>
<g id="a_node5"><a xlink:href="server_2src_2_battleship_royale_8cpp.html" target="_top" xlink:title="Сервер">
<polygon fill="white" stroke="black" points="188,-0.5 188,-19.5 297,-19.5 297,-0.5 188,-0.5"/>
<text text-anchor="middle" x="242.5" y="-7.5" font-family="Helvetica,sans-Serif" font-size="10.00">BattleshipRoyale.cpp</text>
</a>
</g>
</g>
<!-- Node1&#45;&gt;Node5 -->
<g id="edge5" class="edge"><title>Node1&#45;&gt;Node5</title>
<path fill="none" stroke="midnightblue" d="M265.332,-214.455C261.908,-185.087 255.066,-126.07 249.5,-76 247.268,-55.9207 244.756,-32.3393 243.432,-19.8335"/>
<polygon fill="midnightblue" stroke="midnightblue" points="261.868,-214.966 266.504,-224.493 268.821,-214.155 261.868,-214.966"/>
</g>
<!-- Node6 -->
<g id="node6" class="node"><title>Node6</title>
<g id="a_node6"><a xlink:href="server_2src_2_mini_d_b_8h.html" target="_top" xlink:title="Облегчённый класс для работы с бд">
<polygon fill="white" stroke="black" points="280.5,-168.5 280.5,-187.5 336.5,-187.5 336.5,-168.5 280.5,-168.5"/>
<text text-anchor="middle" x="308.5" y="-175.5" font-family="Helvetica,sans-Serif" font-size="10.00">MiniDB.h</text>
</a>
</g>
</g>
<!-- Node1&#45;&gt;Node6 -->
<g id="edge6" class="edge"><title>Node1&#45;&gt;Node6</title>
<path fill="none" stroke="midnightblue" d="M280.517,-215.855C287.617,-206.505 296.104,-195.327 301.856,-187.751"/>
<polygon fill="midnightblue" stroke="midnightblue" points="277.53,-214.002 274.27,-224.083 283.105,-218.235 277.53,-214.002"/>
</g>
<!-- Node10 -->
<g id="node10" class="node"><title>Node10</title>
<g id="a_node10"><a xlink:href="server_2src_2con__handler_8cpp.html" target="_top" xlink:title="handler">
<polygon fill="white" stroke="black" points="404.5,-56.5 404.5,-75.5 492.5,-75.5 492.5,-56.5 404.5,-56.5"/>
<text text-anchor="middle" x="448.5" y="-63.5" font-family="Helvetica,sans-Serif" font-size="10.00">con_handler.cpp</text>
</a>
</g>
</g>
<!-- Node1&#45;&gt;Node10 -->
<g id="edge14" class="edge"><title>Node1&#45;&gt;Node10</title>
<path fill="none" stroke="midnightblue" d="M319.901,-221.768C366.191,-208.77 430.945,-182.356 461.5,-132 472.365,-114.094 461.211,-88.7948 453.854,-75.6651"/>
<polygon fill="midnightblue" stroke="midnightblue" points="318.781,-218.444 310.03,-224.416 320.595,-225.205 318.781,-218.444"/>
</g>
<!-- Node12 -->
<g id="node12" class="node"><title>Node12</title>
<g id="a_node12"><a xlink:href="server_2src_2_regex_8cpp.html" target="_top" xlink:title="Работа с регулярными выражениями">
<polygon fill="white" stroke="black" points="509,-168.5 509,-187.5 572,-187.5 572,-168.5 509,-168.5"/>
<text text-anchor="middle" x="540.5" y="-175.5" font-family="Helvetica,sans-Serif" font-size="10.00">Regex.cpp</text>
</a>
</g>
</g>
<!-- Node1&#45;&gt;Node12 -->
<g id="edge15" class="edge"><title>Node1&#45;&gt;Node12</title>
<path fill="none" stroke="midnightblue" d="M320.841,-222.449C376.81,-211.378 462.916,-194.346 508.934,-185.244"/>
<polygon fill="midnightblue" stroke="midnightblue" points="319.888,-219.07 310.758,-224.444 321.247,-225.937 319.888,-219.07"/>
</g>
<!-- Node13 -->
<g id="node13" class="node"><title>Node13</title>
<g id="a_node13"><a xlink:href="testing_2minidb_2_mini_d_b_8h.html" target="_top" xlink:title="Облегчённый класс для работы с бд">
<polygon fill="white" stroke="black" points="590.5,-168.5 590.5,-187.5 646.5,-187.5 646.5,-168.5 590.5,-168.5"/>
<text text-anchor="middle" x="618.5" y="-175.5" font-family="Helvetica,sans-Serif" font-size="10.00">MiniDB.h</text>
</a>
</g>
</g>
<!-- Node1&#45;&gt;Node13 -->
<g id="edge16" class="edge"><title>Node1&#45;&gt;Node13</title>
<path fill="none" stroke="midnightblue" d="M326.895,-226.217C390.249,-218.58 493.396,-204.988 581.5,-188 584.356,-187.449 587.324,-186.822 590.28,-186.161"/>
<polygon fill="midnightblue" stroke="midnightblue" points="326.208,-222.774 316.694,-227.437 327.039,-229.725 326.208,-222.774"/>
</g>
<!-- Node3&#45;&gt;Node4 -->
<g id="edge3" class="edge"><title>Node3&#45;&gt;Node4</title>
<path fill="none" stroke="midnightblue" d="M149.3,-158.101C150.628,-149.136 152.151,-138.858 153.204,-131.751"/>
<polygon fill="midnightblue" stroke="midnightblue" points="145.824,-157.678 147.821,-168.083 152.749,-158.704 145.824,-157.678"/>
</g>
<!-- Node6&#45;&gt;Node5 -->
<g id="edge7" class="edge"><title>Node6&#45;&gt;Node5</title>
<path fill="none" stroke="midnightblue" d="M296.892,-159.767C291.719,-151.59 285.831,-141.541 281.5,-132 263.163,-91.6039 249.579,-40.0494 244.588,-19.7617"/>
<polygon fill="midnightblue" stroke="midnightblue" points="294.104,-161.899 302.499,-168.362 299.966,-158.074 294.104,-161.899"/>
</g>
<!-- Node7 -->
<g id="node7" class="node"><title>Node7</title>
<g id="a_node7"><a xlink:href="server_2src_2con__handler_8h.html" target="_top" xlink:title="handler">
<polygon fill="white" stroke="black" points="290,-112.5 290,-131.5 367,-131.5 367,-112.5 290,-112.5"/>
<text text-anchor="middle" x="328.5" y="-119.5" font-family="Helvetica,sans-Serif" font-size="10.00">con_handler.h</text>
</a>
</g>
</g>
<!-- Node6&#45;&gt;Node7 -->
<g id="edge8" class="edge"><title>Node6&#45;&gt;Node7</title>
<path fill="none" stroke="midnightblue" d="M315.282,-158.69C318.652,-149.589 322.569,-139.014 325.259,-131.751"/>
<polygon fill="midnightblue" stroke="midnightblue" points="311.994,-157.49 311.803,-168.083 318.558,-159.921 311.994,-157.49"/>
</g>
<!-- Node11 -->
<g id="node11" class="node"><title>Node11</title>
<g id="a_node11"><a xlink:href="server_2src_2_mini_d_b_8cpp.html" target="_top" xlink:title="Облегчённый класс для работы с бд">
<polygon fill="white" stroke="black" points="385,-112.5 385,-131.5 452,-131.5 452,-112.5 385,-112.5"/>
<text text-anchor="middle" x="418.5" y="-119.5" font-family="Helvetica,sans-Serif" font-size="10.00">MiniDB.cpp</text>
</a>
</g>
</g>
<!-- Node6&#45;&gt;Node11 -->
<g id="edge13" class="edge"><title>Node6&#45;&gt;Node11</title>
<path fill="none" stroke="midnightblue" d="M335.262,-163.862C355.659,-153.849 383.166,-140.346 400.87,-131.655"/>
<polygon fill="midnightblue" stroke="midnightblue" points="333.608,-160.775 326.173,-168.324 336.692,-167.059 333.608,-160.775"/>
</g>
<!-- Node8 -->
<g id="node8" class="node"><title>Node8</title>
<g id="a_node8"><a xlink:href="server_2src_2_server_8h.html" target="_top" xlink:title="Асинхронный сервер написанный на boost asio.">
<polygon fill="white" stroke="black" points="302.5,-56.5 302.5,-75.5 354.5,-75.5 354.5,-56.5 302.5,-56.5"/>
<text text-anchor="middle" x="328.5" y="-63.5" font-family="Helvetica,sans-Serif" font-size="10.00">Server.h</text>
</a>
</g>
</g>
<!-- Node7&#45;&gt;Node8 -->
<g id="edge9" class="edge"><title>Node7&#45;&gt;Node8</title>
<path fill="none" stroke="midnightblue" d="M328.5,-101.805C328.5,-92.9102 328.5,-82.7798 328.5,-75.7511"/>
<polygon fill="midnightblue" stroke="midnightblue" points="325,-102.083 328.5,-112.083 332,-102.083 325,-102.083"/>
</g>
<!-- Node7&#45;&gt;Node10 -->
<g id="edge12" class="edge"><title>Node7&#45;&gt;Node10</title>
<path fill="none" stroke="midnightblue" d="M356.873,-108.232C379.32,-98.1312 410.035,-84.3091 429.575,-75.5164"/>
<polygon fill="midnightblue" stroke="midnightblue" points="355.197,-105.148 347.514,-112.444 358.07,-111.532 355.197,-105.148"/>
</g>
<!-- Node8&#45;&gt;Node5 -->
<g id="edge10" class="edge"><title>Node8&#45;&gt;Node5</title>
<path fill="none" stroke="midnightblue" d="M306.045,-50.9005C290.276,-40.9986 269.686,-28.0705 256.283,-19.6545"/>
<polygon fill="midnightblue" stroke="midnightblue" points="304.352,-53.9704 314.683,-56.324 308.075,-48.0421 304.352,-53.9704"/>
</g>
<!-- Node9 -->
<g id="node9" class="node"><title>Node9</title>
<g id="a_node9"><a xlink:href="server_2src_2_server_8cpp.html" target="_top" xlink:title="Асинхронный сервер написанный на boost asio.">
<polygon fill="white" stroke="black" points="315.5,-0.5 315.5,-19.5 377.5,-19.5 377.5,-0.5 315.5,-0.5"/>
<text text-anchor="middle" x="346.5" y="-7.5" font-family="Helvetica,sans-Serif" font-size="10.00">Server.cpp</text>
</a>
</g>
</g>
<!-- Node8&#45;&gt;Node9 -->
<g id="edge11" class="edge"><title>Node8&#45;&gt;Node9</title>
<path fill="none" stroke="midnightblue" d="M334.701,-46.3956C337.713,-37.362 341.188,-26.936 343.583,-19.7511"/>
<polygon fill="midnightblue" stroke="midnightblue" points="331.314,-45.4893 331.472,-56.083 337.955,-47.703 331.314,-45.4893"/>
</g>
<!-- Node14 -->
<g id="node14" class="node"><title>Node14</title>
<g id="a_node14"><a xlink:href="testing_2minidb_2_mini_d_b_8cpp.html" target="_top" xlink:title="Облегчённый класс для работы с бд">
<polygon fill="white" stroke="black" points="547,-112.5 547,-131.5 614,-131.5 614,-112.5 547,-112.5"/>
<text text-anchor="middle" x="580.5" y="-119.5" font-family="Helvetica,sans-Serif" font-size="10.00">MiniDB.cpp</text>
</a>
</g>
</g>
<!-- Node13&#45;&gt;Node14 -->
<g id="edge17" class="edge"><title>Node13&#45;&gt;Node14</title>
<path fill="none" stroke="midnightblue" d="M606.435,-159.855C599.855,-150.505 591.989,-139.327 586.658,-131.751"/>
<polygon fill="midnightblue" stroke="midnightblue" points="603.608,-161.919 612.225,-168.083 609.332,-157.891 603.608,-161.919"/>
</g>
<!-- Node15 -->
<g id="node15" class="node"><title>Node15</title>
<g id="a_node15"><a xlink:href="test_8cpp.html" target="_top" xlink:title=" ">
<polygon fill="white" stroke="black" points="632.5,-112.5 632.5,-131.5 684.5,-131.5 684.5,-112.5 632.5,-112.5"/>
<text text-anchor="middle" x="658.5" y="-119.5" font-family="Helvetica,sans-Serif" font-size="10.00">test.cpp</text>
</a>
</g>
</g>
<!-- Node13&#45;&gt;Node15 -->
<g id="edge18" class="edge"><title>Node13&#45;&gt;Node15</title>
<path fill="none" stroke="midnightblue" d="M631.2,-159.855C638.126,-150.505 646.406,-139.327 652.018,-131.751"/>
<polygon fill="midnightblue" stroke="midnightblue" points="628.245,-157.964 625.105,-168.083 633.87,-162.131 628.245,-157.964"/>
</g>
</g>
</svg>
        <g id="navigator" transform="translate(0 0)" fill="#404254">
                <rect fill="#f2f5e9" fill-opacity="0.5" stroke="#606060" stroke-width=".5" x="0" y="0" width="60" height="60"/>
                <use id="zoomplus" xlink:href="#zoomPlus" x="17" y="9" onmousedown="handleZoom(evt,'in')"/>
                <use id="zoomminus" xlink:href="#zoomMin" x="42" y="9" onmousedown="handleZoom(evt,'out')"/>
                <use id="reset" xlink:href="#resetDef" x="30" y="36" onmousedown="handleReset()"/>
                <g id="arrowUp" xlink:href="#dirArrow" transform="translate(30 24)" onmousedown="handlePan(0,-1)">
                  <use xlink:href="#rim" fill="#404040">
                        <set attributeName="fill" to="#808080" begin="arrowUp.mouseover" end="arrowUp.mouseout"/>
                  </use>
                  <path fill="none" stroke="white" stroke-width="1.5" d="M0,-3.0v7 M-2.5,-0.5L0,-3.0L2.5,-0.5"/>
                </g>
                <g id="arrowRight" xlink:href="#dirArrow" transform="rotate(90) translate(36 -43)" onmousedown="handlePan(1,0)">
                  <use xlink:href="#rim" fill="#404040">
                        <set attributeName="fill" to="#808080" begin="arrowRight.mouseover" end="arrowRight.mouseout"/>
                  </use>
                  <path fill="none" stroke="white" stroke-width="1.5" d="M0,-3.0v7 M-2.5,-0.5L0,-3.0L2.5,-0.5"/>
                </g>
                <g id="arrowDown" xlink:href="#dirArrow" transform="rotate(180) translate(-30 -48)" onmousedown="handlePan(0,1)">
                  <use xlink:href="#rim" fill="#404040">
                        <set attributeName="fill" to="#808080" begin="arrowDown.mouseover" end="arrowDown.mouseout"/>
                  </use>
                  <path fill="none" stroke="white" stroke-width="1.5" d="M0,-3.0v7 M-2.5,-0.5L0,-3.0L2.5,-0.5"/>
                </g>
                <g id="arrowLeft" xlink:href="#dirArrow" transform="rotate(270) translate(-36 17)" onmousedown="handlePan(-1,0)">
                  <use xlink:href="#rim" fill="#404040">
                        <set attributeName="fill" to="#808080" begin="arrowLeft.mouseover" end="arrowLeft.mouseout"/>
                  </use>
                  <path fill="none" stroke="white" stroke-width="1.5" d="M0,-3.0v7 M-2.5,-0.5L0,-3.0L2.5,-0.5"/>
                </g>
        </g>
        <svg viewBox="0 0 15 15" width="100%" height="30px" preserveAspectRatio="xMaxYMin meet">
         <g id="arrow_out" transform="scale(0.3 0.3)">
          <a xlink:href="_battleship_royale_8h__dep__incl_org.svg" target="_base">
           <rect id="button" ry="5" rx="5" y="6" x="6" height="38" width="38"
                fill="#f2f5e9" fill-opacity="0.5" stroke="#606060" stroke-width="1.0"/>
           <path id="arrow"
             d="M 11.500037,31.436501 C 11.940474,20.09759 22.043105,11.32322 32.158766,21.979434 L 37.068811,17.246167 C 37.068811,17.246167 37.088388,32 37.088388,32 L 22.160133,31.978069 C 22.160133,31.978069 26.997745,27.140456 26.997745,27.140456 C 18.528582,18.264221 13.291696,25.230495 11.500037,31.436501 z"
             style="fill:#404040;"/>
          </a>
         </g>
        </svg>
</svg>
