<?xml version="1.0" encoding="UTF-8" standalone="no"?>
<!DOCTYPE svg PUBLIC "-//W3C//DTD SVG 1.1//EN"
 "http://www.w3.org/Graphics/SVG/1.1/DTD/svg11.dtd">
<!-- Generated by graphviz version 2.38.0 (20140413.2041)
 -->
<!-- Title: BattleshipRoyale.h Pages: 1 -->
<svg width="588pt" height="252pt"
 viewBox="0.00 0.00 588.00 252.00" xmlns="http://www.w3.org/2000/svg" xmlns:xlink="http://www.w3.org/1999/xlink">
<g id="graph0" class="graph" transform="scale(1 1) rotate(0) translate(4 248)">
<title>BattleshipRoyale.h</title>
<polygon fill="white" stroke="none" points="-4,4 -4,-248 584,-248 584,4 -4,4"/>
<!-- Node1 -->
<g id="node1" class="node"><title>Node1</title>
<g id="a_node1"><a xlink:title="Заголовочный файл с пространством имён, которое хранит в себе константы.">
<polygon fill="#bfbfbf" stroke="black" points="345.5,-224.5 345.5,-243.5 443.5,-243.5 443.5,-224.5 345.5,-224.5"/>
<text text-anchor="middle" x="394.5" y="-231.5" font-family="Helvetica,sans-Serif" font-size="10.00">BattleshipRoyale.h</text>
</a>
</g>
</g>
<!-- Node2 -->
<g id="node2" class="node"><title>Node2</title>
<g id="a_node2"><a xlink:href="client_2src_2_battleship_royale_8cpp.html" target="_top" xlink:title="Клиент">
<polygon fill="white" stroke="black" points="0,-168.5 0,-187.5 109,-187.5 109,-168.5 0,-168.5"/>
<text text-anchor="middle" x="54.5" y="-175.5" font-family="Helvetica,sans-Serif" font-size="10.00">BattleshipRoyale.cpp</text>
</a>
</g>
</g>
<!-- Node1&#45;&gt;Node2 -->
<g id="edge1" class="edge"><title>Node1&#45;&gt;Node2</title>
<path fill="none" stroke="midnightblue" d="M335.47,-223.625C271.377,-213.445 169.908,-197.33 108.048,-187.505"/>
<polygon fill="midnightblue" stroke="midnightblue" points="334.999,-227.094 345.424,-225.206 336.097,-220.18 334.999,-227.094"/>
</g>
<!-- Node3 -->
<g id="node3" class="node"><title>Node3</title>
<g id="a_node3"><a xlink:href="server_2src_2_battleship_royale_8cpp.html" target="_top" xlink:title="Сервер">
<polygon fill="white" stroke="black" points="102,-0.5 102,-19.5 211,-19.5 211,-0.5 102,-0.5"/>
<text text-anchor="middle" x="156.5" y="-7.5" font-family="Helvetica,sans-Serif" font-size="10.00">BattleshipRoyale.cpp</text>
</a>
</g>
</g>
<!-- Node1&#45;&gt;Node3 -->
<g id="edge2" class="edge"><title>Node1&#45;&gt;Node3</title>
<path fill="none" stroke="midnightblue" d="M336.047,-222.096C285.789,-209.463 215.698,-183.407 178.5,-132 152.966,-96.7125 154.157,-40.8283 155.694,-19.5813"/>
<polygon fill="midnightblue" stroke="midnightblue" points="335.277,-225.511 345.819,-224.447 336.915,-218.705 335.277,-225.511"/>
</g>
<!-- Node4 -->
<g id="node4" class="node"><title>Node4</title>
<g id="a_node4"><a xlink:href="_mini_d_b_8h.html" target="_top" xlink:title="Облегчённый класс для работы с бд">
<polygon fill="white" stroke="black" points="259.5,-168.5 259.5,-187.5 315.5,-187.5 315.5,-168.5 259.5,-168.5"/>
<text text-anchor="middle" x="287.5" y="-175.5" font-family="Helvetica,sans-Serif" font-size="10.00">MiniDB.h</text>
</a>
</g>
</g>
<!-- Node1&#45;&gt;Node4 -->
<g id="edge3" class="edge"><title>Node1&#45;&gt;Node4</title>
<path fill="none" stroke="midnightblue" d="M368.198,-219.726C348.385,-209.727 321.793,-196.307 304.649,-187.655"/>
<polygon fill="midnightblue" stroke="midnightblue" points="366.804,-222.943 377.309,-224.324 369.958,-216.694 366.804,-222.943"/>
</g>
<!-- Node8 -->
<g id="node8" class="node"><title>Node8</title>
<g id="a_node8"><a xlink:href="server_2src_2con__handler_8cpp.html" target="_top" xlink:title="handler">
<polygon fill="white" stroke="black" points="318.5,-56.5 318.5,-75.5 406.5,-75.5 406.5,-56.5 318.5,-56.5"/>
<text text-anchor="middle" x="362.5" y="-63.5" font-family="Helvetica,sans-Serif" font-size="10.00">con_handler.cpp</text>
</a>
</g>
</g>
<!-- Node1&#45;&gt;Node8 -->
<g id="edge11" class="edge"><title>Node1&#45;&gt;Node8</title>
<path fill="none" stroke="midnightblue" d="M392.304,-214.305C389.329,-190.415 383.462,-147.858 375.5,-112 372.644,-99.1394 368.197,-84.5352 365.316,-75.5441"/>
<polygon fill="midnightblue" stroke="midnightblue" points="388.853,-214.915 393.529,-224.422 395.802,-214.074 388.853,-214.915"/>
</g>
<!-- Node10 -->
<g id="node10" class="node"><title>Node10</title>
<g id="a_node10"><a xlink:href="_d_b_8h.html" target="_top" xlink:title="Работа с базой данных">
<polygon fill="white" stroke="black" points="422.5,-168.5 422.5,-187.5 460.5,-187.5 460.5,-168.5 422.5,-168.5"/>
<text text-anchor="middle" x="441.5" y="-175.5" font-family="Helvetica,sans-Serif" font-size="10.00">DB.h</text>
</a>
</g>
</g>
<!-- Node1&#45;&gt;Node10 -->
<g id="edge12" class="edge"><title>Node1&#45;&gt;Node10</title>
<path fill="none" stroke="midnightblue" d="M408.921,-216.431C417.158,-206.967 427.154,-195.483 433.883,-187.751"/>
<polygon fill="midnightblue" stroke="midnightblue" points="406.186,-214.242 402.261,-224.083 411.466,-218.838 406.186,-214.242"/>
</g>
<!-- Node11 -->
<g id="node11" class="node"><title>Node11</title>
<g id="a_node11"><a xlink:href="_d_b_8cpp.html" target="_top" xlink:title="Работа с базой данных">
<polygon fill="white" stroke="black" points="443,-112.5 443,-131.5 492,-131.5 492,-112.5 443,-112.5"/>
<text text-anchor="middle" x="467.5" y="-119.5" font-family="Helvetica,sans-Serif" font-size="10.00">DB.cpp</text>
</a>
</g>
</g>
<!-- Node1&#45;&gt;Node11 -->
<g id="edge14" class="edge"><title>Node1&#45;&gt;Node11</title>
<path fill="none" stroke="midnightblue" d="M431.213,-220.268C445.838,-213.181 461.153,-202.742 469.5,-188 479.624,-170.119 474.342,-144.81 470.443,-131.672"/>
<polygon fill="midnightblue" stroke="midnightblue" points="429.503,-217.197 421.782,-224.453 432.342,-223.596 429.503,-217.197"/>
</g>
<!-- Node12 -->
<g id="node12" class="node"><title>Node12</title>
<g id="a_node12"><a xlink:href="server_2src_2regex_8cpp.html" target="_top" xlink:title="Работа с регулярными выражениями">
<polygon fill="white" stroke="black" points="517,-168.5 517,-187.5 580,-187.5 580,-168.5 517,-168.5"/>
<text text-anchor="middle" x="548.5" y="-175.5" font-family="Helvetica,sans-Serif" font-size="10.00">Regex.cpp</text>
</a>
</g>
</g>
<!-- Node1&#45;&gt;Node12 -->
<g id="edge15" class="edge"><title>Node1&#45;&gt;Node12</title>
<path fill="none" stroke="midnightblue" d="M428.611,-221.039C457.587,-210.879 498.462,-196.546 524.212,-187.516"/>
<polygon fill="midnightblue" stroke="midnightblue" points="427.18,-217.832 418.902,-224.444 429.497,-224.437 427.18,-217.832"/>
</g>
<!-- Node4&#45;&gt;Node3 -->
<g id="edge4" class="edge"><title>Node4&#45;&gt;Node3</title>
<path fill="none" stroke="midnightblue" d="M249.778,-166.64C230.816,-159.672 208.874,-148.648 194.5,-132 165.146,-98.001 158.444,-41.3517 156.933,-19.7408"/>
<polygon fill="midnightblue" stroke="midnightblue" points="248.771,-169.995 259.366,-169.923 251.038,-163.373 248.771,-169.995"/>
</g>
<!-- Node5 -->
<g id="node5" class="node"><title>Node5</title>
<g id="a_node5"><a xlink:href="server_2src_2con__handler_8h.html" target="_top" xlink:title="handler">
<polygon fill="white" stroke="black" points="204,-112.5 204,-131.5 281,-131.5 281,-112.5 204,-112.5"/>
<text text-anchor="middle" x="242.5" y="-119.5" font-family="Helvetica,sans-Serif" font-size="10.00">con_handler.h</text>
</a>
</g>
</g>
<!-- Node4&#45;&gt;Node5 -->
<g id="edge5" class="edge"><title>Node4&#45;&gt;Node5</title>
<path fill="none" stroke="midnightblue" d="M273.453,-160.144C265.613,-150.736 256.171,-139.405 249.793,-131.751"/>
<polygon fill="midnightblue" stroke="midnightblue" points="270.979,-162.641 280.069,-168.083 276.356,-158.16 270.979,-162.641"/>
</g>
<!-- Node9 -->
<g id="node9" class="node"><title>Node9</title>
<g id="a_node9"><a xlink:href="_mini_d_b_8cpp.html" target="_top" xlink:title="Облегчённый класс для работы с бд">
<polygon fill="white" stroke="black" points="299,-112.5 299,-131.5 366,-131.5 366,-112.5 299,-112.5"/>
<text text-anchor="middle" x="332.5" y="-119.5" font-family="Helvetica,sans-Serif" font-size="10.00">MiniDB.cpp</text>
</a>
</g>
</g>
<!-- Node4&#45;&gt;Node9 -->
<g id="edge10" class="edge"><title>Node4&#45;&gt;Node9</title>
<path fill="none" stroke="midnightblue" d="M301.547,-160.144C309.387,-150.736 318.829,-139.405 325.207,-131.751"/>
<polygon fill="midnightblue" stroke="midnightblue" points="298.644,-158.16 294.931,-168.083 304.021,-162.641 298.644,-158.16"/>
</g>
<!-- Node6 -->
<g id="node6" class="node"><title>Node6</title>
<g id="a_node6"><a xlink:href="server_2src_2_server_8h.html" target="_top" xlink:title="Асинхронный сервер написанный на boost asio.">
<polygon fill="white" stroke="black" points="216.5,-56.5 216.5,-75.5 268.5,-75.5 268.5,-56.5 216.5,-56.5"/>
<text text-anchor="middle" x="242.5" y="-63.5" font-family="Helvetica,sans-Serif" font-size="10.00">Server.h</text>
</a>
</g>
</g>
<!-- Node5&#45;&gt;Node6 -->
<g id="edge6" class="edge"><title>Node5&#45;&gt;Node6</title>
<path fill="none" stroke="midnightblue" d="M242.5,-101.805C242.5,-92.9102 242.5,-82.7798 242.5,-75.7511"/>
<polygon fill="midnightblue" stroke="midnightblue" points="239,-102.083 242.5,-112.083 246,-102.083 239,-102.083"/>
</g>
<!-- Node5&#45;&gt;Node8 -->
<g id="edge9" class="edge"><title>Node5&#45;&gt;Node8</title>
<path fill="none" stroke="midnightblue" d="M270.873,-108.232C293.32,-98.1312 324.035,-84.3091 343.575,-75.5164"/>
<polygon fill="midnightblue" stroke="midnightblue" points="269.197,-105.148 261.514,-112.444 272.07,-111.532 269.197,-105.148"/>
</g>
<!-- Node6&#45;&gt;Node3 -->
<g id="edge7" class="edge"><title>Node6&#45;&gt;Node3</title>
<path fill="none" stroke="midnightblue" d="M220.045,-50.9005C204.276,-40.9986 183.686,-28.0705 170.283,-19.6545"/>
<polygon fill="midnightblue" stroke="midnightblue" points="218.352,-53.9704 228.683,-56.324 222.075,-48.0421 218.352,-53.9704"/>
</g>
<!-- Node7 -->
<g id="node7" class="node"><title>Node7</title>
<g id="a_node7"><a xlink:href="server_2src_2_server_8cpp.html" target="_top" xlink:title="Асинхронный сервер написанный на boost asio.">
<polygon fill="white" stroke="black" points="229.5,-0.5 229.5,-19.5 291.5,-19.5 291.5,-0.5 229.5,-0.5"/>
<text text-anchor="middle" x="260.5" y="-7.5" font-family="Helvetica,sans-Serif" font-size="10.00">Server.cpp</text>
</a>
</g>
</g>
<!-- Node6&#45;&gt;Node7 -->
<g id="edge8" class="edge"><title>Node6&#45;&gt;Node7</title>
<path fill="none" stroke="midnightblue" d="M248.701,-46.3956C251.713,-37.362 255.188,-26.936 257.583,-19.7511"/>
<polygon fill="midnightblue" stroke="midnightblue" points="245.314,-45.4893 245.472,-56.083 251.955,-47.703 245.314,-45.4893"/>
</g>
<!-- Node10&#45;&gt;Node11 -->
<g id="edge13" class="edge"><title>Node10&#45;&gt;Node11</title>
<path fill="none" stroke="midnightblue" d="M450.175,-158.983C454.588,-149.817 459.752,-139.092 463.287,-131.751"/>
<polygon fill="midnightblue" stroke="midnightblue" points="446.978,-157.555 445.793,-168.083 453.285,-160.591 446.978,-157.555"/>
</g>
</g>
</svg>
