<?xml version="1.0" encoding="UTF-8" standalone="no"?>
<!DOCTYPE svg PUBLIC "-//W3C//DTD SVG 1.1//EN"
 "http://www.w3.org/Graphics/SVG/1.1/DTD/svg11.dtd">
<!-- Generated by graphviz version 2.38.0 (20140413.2041)
 -->
<!-- Title: src/client/src/Client.h Pages: 1 -->
<svg width="506pt" height="95pt"
 viewBox="0.00 0.00 505.50 95.00" xmlns="http://www.w3.org/2000/svg" xmlns:xlink="http://www.w3.org/1999/xlink">
<g id="graph0" class="graph" transform="scale(1 1) rotate(0) translate(4 91)">
<title>src/client/src/Client.h</title>
<polygon fill="white" stroke="none" points="-4,4 -4,-91 501.5,-91 501.5,4 -4,4"/>
<!-- Node0 -->
<g id="node1" class="node"><title>Node0</title>
<g id="a_node1"><a xlink:title=" ">
<polygon fill="#bfbfbf" stroke="black" points="139.5,-67.5 139.5,-86.5 248.5,-86.5 248.5,-67.5 139.5,-67.5"/>
<text text-anchor="middle" x="194" y="-74.5" font-family="Helvetica,sans-Serif" font-size="10.00">src/client/src/Client.h</text>
</a>
</g>
</g>
<!-- Node1 -->
<g id="node2" class="node"><title>Node1</title>
<g id="a_node2"><a xlink:title=" ">
<polygon fill="white" stroke="#bfbfbf" points="0,-6 0,-25 54,-25 54,-6 0,-6"/>
<text text-anchor="middle" x="27" y="-13" font-family="Helvetica,sans-Serif" font-size="10.00">iostream</text>
</a>
</g>
</g>
<!-- Node0&#45;&gt;Node1 -->
<g id="edge1" class="edge"><title>Node0&#45;&gt;Node1</title>
<path fill="none" stroke="midnightblue" d="M167.76,-67.4326C141.211,-58.6597 99.0515,-44.4421 63,-31 61.1533,-30.3115 59.2587,-29.591 57.3512,-28.8548"/>
<polygon fill="midnightblue" stroke="midnightblue" points="58.4551,-25.528 47.8682,-25.1189 55.8893,-32.0408 58.4551,-25.528"/>
</g>
<!-- Node2 -->
<g id="node3" class="node"><title>Node2</title>
<g id="a_node3"><a xlink:title=" ">
<polygon fill="white" stroke="#bfbfbf" points="72.5,-6 72.5,-25 113.5,-25 113.5,-6 72.5,-6"/>
<text text-anchor="middle" x="93" y="-13" font-family="Helvetica,sans-Serif" font-size="10.00">string</text>
</a>
</g>
</g>
<!-- Node0&#45;&gt;Node2 -->
<g id="edge2" class="edge"><title>Node0&#45;&gt;Node2</title>
<path fill="none" stroke="midnightblue" d="M179.529,-67.4751C163.029,-57.7548 135.822,-41.7266 116.319,-30.2372"/>
<polygon fill="midnightblue" stroke="midnightblue" points="117.837,-27.0693 107.444,-25.0091 114.284,-33.1005 117.837,-27.0693"/>
</g>
<!-- Node3 -->
<g id="node4" class="node"><title>Node3</title>
<g id="a_node4"><a xlink:title=" ">
<polygon fill="white" stroke="#bfbfbf" points="132,-6 132,-25 176,-25 176,-6 132,-6"/>
<text text-anchor="middle" x="154" y="-13" font-family="Helvetica,sans-Serif" font-size="10.00">thread</text>
</a>
</g>
</g>
<!-- Node0&#45;&gt;Node3 -->
<g id="edge3" class="edge"><title>Node0&#45;&gt;Node3</title>
<path fill="none" stroke="midnightblue" d="M188.269,-67.4751C182.328,-58.6384 172.883,-44.5886 165.412,-33.475"/>
<polygon fill="midnightblue" stroke="midnightblue" points="168.204,-31.3554 159.72,-25.0091 162.395,-35.2608 168.204,-31.3554"/>
</g>
<!-- Node4 -->
<g id="node5" class="node"><title>Node4</title>
<g id="a_node5"><a xlink:title=" ">
<polygon fill="white" stroke="#bfbfbf" points="194,-6 194,-25 274,-25 274,-6 194,-6"/>
<text text-anchor="middle" x="234" y="-13" font-family="Helvetica,sans-Serif" font-size="10.00">boost/asio.hpp</text>
</a>
</g>
</g>
<!-- Node0&#45;&gt;Node4 -->
<g id="edge4" class="edge"><title>Node0&#45;&gt;Node4</title>
<path fill="none" stroke="midnightblue" d="M199.731,-67.4751C205.672,-58.6384 215.117,-44.5886 222.588,-33.475"/>
<polygon fill="midnightblue" stroke="midnightblue" points="225.605,-35.2608 228.28,-25.0091 219.796,-31.3554 225.605,-35.2608"/>
</g>
<!-- Node5 -->
<g id="node6" class="node"><title>Node5</title>
<g id="a_node6"><a xlink:title=" ">
<polygon fill="white" stroke="#bfbfbf" points="292,-6 292,-25 372,-25 372,-6 292,-6"/>
<text text-anchor="middle" x="332" y="-13" font-family="Helvetica,sans-Serif" font-size="10.00">boost/bind.hpp</text>
</a>
</g>
</g>
<!-- Node0&#45;&gt;Node5 -->
<g id="edge5" class="edge"><title>Node0&#45;&gt;Node5</title>
<path fill="none" stroke="midnightblue" d="M213.772,-67.4751C237.136,-57.4013 276.214,-40.5525 303.003,-29.0023"/>
<polygon fill="midnightblue" stroke="midnightblue" points="304.468,-32.1824 312.265,-25.0091 301.696,-25.7544 304.468,-32.1824"/>
</g>
<!-- Node6 -->
<g id="node7" class="node"><title>Node6</title>
<g id="a_node7"><a xlink:title=" ">
<polygon fill="white" stroke="#bfbfbf" points="390.5,-0.5 390.5,-30.5 497.5,-30.5 497.5,-0.5 390.5,-0.5"/>
<text text-anchor="start" x="398.5" y="-18.5" font-family="Helvetica,sans-Serif" font-size="10.00">boost/enable_shared</text>
<text text-anchor="middle" x="444" y="-7.5" font-family="Helvetica,sans-Serif" font-size="10.00">_from_this.hpp</text>
</a>
</g>
</g>
<!-- Node0&#45;&gt;Node6 -->
<g id="edge6" class="edge"><title>Node0&#45;&gt;Node6</title>
<path fill="none" stroke="midnightblue" d="M229.819,-67.4751C269.02,-58.1453 332.638,-43.0042 380.373,-31.6431"/>
<polygon fill="midnightblue" stroke="midnightblue" points="381.386,-35 390.304,-29.2797 379.765,-28.1902 381.386,-35"/>
</g>
</g>
</svg>
