<?xml version="1.0" encoding="UTF-8" standalone="no"?>
<!DOCTYPE svg PUBLIC "-//W3C//DTD SVG 1.1//EN"
 "http://www.w3.org/Graphics/SVG/1.1/DTD/svg11.dtd">
<!-- Generated by graphviz version 2.38.0 (20140413.2041)
 -->
<!-- Title: src/server/src/Console.h Pages: 1 -->
<svg width="280pt" height="95pt"
 viewBox="0.00 0.00 280.00 95.00" xmlns="http://www.w3.org/2000/svg" xmlns:xlink="http://www.w3.org/1999/xlink">
<g id="graph0" class="graph" transform="scale(1 1) rotate(0) translate(4 91)">
<title>src/server/src/Console.h</title>
<polygon fill="white" stroke="none" points="-4,4 -4,-91 276,-91 276,4 -4,4"/>
<!-- Node2 -->
<g id="node1" class="node"><title>Node2</title>
<g id="a_node1"><a xlink:title=" ">
<polygon fill="#bfbfbf" stroke="black" points="72,-67.5 72,-86.5 194,-86.5 194,-67.5 72,-67.5"/>
<text text-anchor="middle" x="133" y="-74.5" font-family="Helvetica,sans-Serif" font-size="10.00">src/server/src/Console.h</text>
</a>
</g>
</g>
<!-- Node3 -->
<g id="node2" class="node"><title>Node3</title>
<g id="a_node2"><a xlink:href="server_2src_2_battleship_royale_8cpp.html" target="_top" xlink:title="Сервер">
<polygon fill="white" stroke="black" points="0,-0.5 0,-30.5 122,-30.5 122,-0.5 0,-0.5"/>
<text text-anchor="start" x="8" y="-18.5" font-family="Helvetica,sans-Serif" font-size="10.00">src/server/src/Battleship</text>
<text text-anchor="middle" x="61" y="-7.5" font-family="Helvetica,sans-Serif" font-size="10.00">Royale.cpp</text>
</a>
</g>
</g>
<!-- Node2&#45;&gt;Node3 -->
<g id="edge1" class="edge"><title>Node2&#45;&gt;Node3</title>
<path fill="none" stroke="midnightblue" d="M114.754,-60.9215C103.449,-51.579 89.0275,-39.6616 77.969,-30.523"/>
<polygon fill="midnightblue" stroke="midnightblue" points="112.746,-63.8028 122.684,-67.4751 117.205,-58.4069 112.746,-63.8028"/>
</g>
<!-- Node4 -->
<g id="node3" class="node"><title>Node4</title>
<g id="a_node3"><a xlink:href="server_2src_2_console_8cpp.html" target="_top" xlink:title=" ">
<polygon fill="white" stroke="black" points="140,-6 140,-25 272,-25 272,-6 140,-6"/>
<text text-anchor="middle" x="206" y="-13" font-family="Helvetica,sans-Serif" font-size="10.00">src/server/src/Console.cpp</text>
</a>
</g>
</g>
<!-- Node2&#45;&gt;Node4 -->
<g id="edge2" class="edge"><title>Node2&#45;&gt;Node4</title>
<path fill="none" stroke="midnightblue" d="M151.437,-60.9727C165.399,-49.5925 184.076,-34.3694 195.56,-25.0091"/>
<polygon fill="midnightblue" stroke="midnightblue" points="148.999,-58.4442 143.459,-67.4751 153.422,-63.8701 148.999,-58.4442"/>
</g>
</g>
</svg>
