<?xml version="1.0" encoding="UTF-8" standalone="no"?>
<!DOCTYPE svg PUBLIC "-//W3C//DTD SVG 1.1//EN"
 "http://www.w3.org/Graphics/SVG/1.1/DTD/svg11.dtd">
<!-- Generated by graphviz version 2.38.0 (20140413.2041)
 -->
<!-- Title: src/delete/DB.cpp Pages: 1 -->
<svg width="587pt" height="151pt"
 viewBox="0.00 0.00 587.00 151.00" xmlns="http://www.w3.org/2000/svg" xmlns:xlink="http://www.w3.org/1999/xlink">
<g id="graph0" class="graph" transform="scale(1 1) rotate(0) translate(4 147)">
<title>src/delete/DB.cpp</title>
<polygon fill="white" stroke="none" points="-4,4 -4,-147 583,-147 583,4 -4,4"/>
<!-- Node0 -->
<g id="node1" class="node"><title>Node0</title>
<g id="a_node1"><a xlink:title="Работа с базой данных">
<polygon fill="#bfbfbf" stroke="black" points="272,-123.5 272,-142.5 367,-142.5 367,-123.5 272,-123.5"/>
<text text-anchor="middle" x="319.5" y="-130.5" font-family="Helvetica,sans-Serif" font-size="10.00">src/delete/DB.cpp</text>
</a>
</g>
</g>
<!-- Node1 -->
<g id="node2" class="node"><title>Node1</title>
<g id="a_node2"><a xlink:title=" ">
<polygon fill="white" stroke="#bfbfbf" points="0,-62 0,-81 41,-81 41,-62 0,-62"/>
<text text-anchor="middle" x="20.5" y="-69" font-family="Helvetica,sans-Serif" font-size="10.00">string</text>
</a>
</g>
</g>
<!-- Node0&#45;&gt;Node1 -->
<g id="edge1" class="edge"><title>Node0&#45;&gt;Node1</title>
<path fill="none" stroke="midnightblue" d="M271.655,-128.364C216.875,-123.214 124.971,-111.542 49.5,-87 47.8807,-86.4734 46.2392,-85.8688 44.6033,-85.212"/>
<polygon fill="midnightblue" stroke="midnightblue" points="46.0405,-82.0207 35.4894,-81.0587 43.1376,-88.3905 46.0405,-82.0207"/>
</g>
<!-- Node2 -->
<g id="node3" class="node"><title>Node2</title>
<g id="a_node3"><a xlink:title=" ">
<polygon fill="white" stroke="#bfbfbf" points="59,-62 59,-81 100,-81 100,-62 59,-62"/>
<text text-anchor="middle" x="79.5" y="-69" font-family="Helvetica,sans-Serif" font-size="10.00">ctime</text>
</a>
</g>
</g>
<!-- Node0&#45;&gt;Node2 -->
<g id="edge2" class="edge"><title>Node0&#45;&gt;Node2</title>
<path fill="none" stroke="midnightblue" d="M271.918,-125.14C228.772,-118.14 163.81,-105.643 109.5,-87 107.883,-86.4448 106.239,-85.8244 104.596,-85.1614"/>
<polygon fill="midnightblue" stroke="midnightblue" points="105.951,-81.9336 95.3929,-81.0535 103.098,-88.3257 105.951,-81.9336"/>
</g>
<!-- Node3 -->
<g id="node4" class="node"><title>Node3</title>
<g id="a_node4"><a xlink:title=" ">
<polygon fill="white" stroke="#bfbfbf" points="118,-62 118,-81 203,-81 203,-62 118,-62"/>
<text text-anchor="middle" x="160.5" y="-69" font-family="Helvetica,sans-Serif" font-size="10.00">spdlog/spdlog.h</text>
</a>
</g>
</g>
<!-- Node0&#45;&gt;Node3 -->
<g id="edge3" class="edge"><title>Node0&#45;&gt;Node3</title>
<path fill="none" stroke="midnightblue" d="M296.719,-123.475C269.445,-113.269 223.587,-96.108 192.699,-84.5492"/>
<polygon fill="midnightblue" stroke="midnightblue" points="193.831,-81.2359 183.239,-81.0091 191.378,-87.7919 193.831,-81.2359"/>
</g>
<!-- Node4 -->
<g id="node5" class="node"><title>Node4</title>
<g id="a_node5"><a xlink:title=" ">
<polygon fill="white" stroke="#bfbfbf" points="221.5,-56.5 221.5,-86.5 319.5,-86.5 319.5,-56.5 221.5,-56.5"/>
<text text-anchor="start" x="229.5" y="-74.5" font-family="Helvetica,sans-Serif" font-size="10.00">spdlog/sinks/basic</text>
<text text-anchor="middle" x="270.5" y="-63.5" font-family="Helvetica,sans-Serif" font-size="10.00">_file_sink.h</text>
</a>
</g>
</g>
<!-- Node0&#45;&gt;Node4 -->
<g id="edge4" class="edge"><title>Node0&#45;&gt;Node4</title>
<path fill="none" stroke="midnightblue" d="M312.479,-123.475C306.215,-115.869 296.77,-104.399 288.424,-94.2649"/>
<polygon fill="midnightblue" stroke="midnightblue" points="291.107,-92.0173 282.048,-86.523 285.704,-96.4673 291.107,-92.0173"/>
</g>
<!-- Node5 -->
<g id="node6" class="node"><title>Node5</title>
<g id="a_node6"><a xlink:title=" ">
<polygon fill="white" stroke="#bfbfbf" points="337.5,-62 337.5,-81 401.5,-81 401.5,-62 337.5,-62"/>
<text text-anchor="middle" x="369.5" y="-69" font-family="Helvetica,sans-Serif" font-size="10.00">picosha2.h</text>
</a>
</g>
</g>
<!-- Node0&#45;&gt;Node5 -->
<g id="edge5" class="edge"><title>Node0&#45;&gt;Node5</title>
<path fill="none" stroke="midnightblue" d="M326.664,-123.475C334.238,-114.462 346.37,-100.025 355.793,-88.8118"/>
<polygon fill="midnightblue" stroke="midnightblue" points="358.596,-90.9166 362.35,-81.0091 353.237,-86.4132 358.596,-90.9166"/>
</g>
<!-- Node6 -->
<g id="node7" class="node"><title>Node6</title>
<g id="a_node7"><a xlink:href="_d_b_8h.html" target="_top" xlink:title="Работа с базой данных">
<polygon fill="white" stroke="black" points="419.5,-62 419.5,-81 457.5,-81 457.5,-62 419.5,-62"/>
<text text-anchor="middle" x="438.5" y="-69" font-family="Helvetica,sans-Serif" font-size="10.00">DB.h</text>
</a>
</g>
</g>
<!-- Node0&#45;&gt;Node6 -->
<g id="edge6" class="edge"><title>Node0&#45;&gt;Node6</title>
<path fill="none" stroke="midnightblue" d="M336.993,-123.469C355.351,-114.489 385.025,-99.8936 410.5,-87 411.312,-86.589 412.137,-86.1703 412.969,-85.7465"/>
<polygon fill="midnightblue" stroke="midnightblue" points="414.646,-88.8196 421.944,-81.1384 411.449,-82.5925 414.646,-88.8196"/>
</g>
<!-- Node8 -->
<g id="node9" class="node"><title>Node8</title>
<g id="a_node9"><a xlink:href="_battleship_royale_8h.html" target="_top" xlink:title="Заголовочный файл с пространством имён, которое хранит в себе константы.">
<polygon fill="white" stroke="black" points="436.5,-0.5 436.5,-19.5 534.5,-19.5 534.5,-0.5 436.5,-0.5"/>
<text text-anchor="middle" x="485.5" y="-7.5" font-family="Helvetica,sans-Serif" font-size="10.00">BattleshipRoyale.h</text>
</a>
</g>
</g>
<!-- Node0&#45;&gt;Node8 -->
<g id="edge9" class="edge"><title>Node0&#45;&gt;Node8</title>
<path fill="none" stroke="midnightblue" d="M367.196,-129.301C399.52,-124.94 440.867,-114.004 466.5,-87 481.031,-71.692 484.926,-47.015 485.741,-29.9534"/>
<polygon fill="midnightblue" stroke="midnightblue" points="489.247,-29.6211 485.906,-19.5668 482.248,-29.51 489.247,-29.6211"/>
</g>
<!-- Node9 -->
<g id="node10" class="node"><title>Node9</title>
<g id="a_node10"><a xlink:href="rand__sse_8h.html" target="_top" xlink:title="Генерация рандомных чисел через SSE.">
<polygon fill="white" stroke="black" points="514,-62 514,-81 579,-81 579,-62 514,-62"/>
<text text-anchor="middle" x="546.5" y="-69" font-family="Helvetica,sans-Serif" font-size="10.00">rand_sse.h</text>
</a>
</g>
</g>
<!-- Node0&#45;&gt;Node9 -->
<g id="edge10" class="edge"><title>Node0&#45;&gt;Node9</title>
<path fill="none" stroke="midnightblue" d="M356.196,-123.443C392.679,-114.791 450.168,-100.765 499.5,-87 502.893,-86.0533 506.413,-85.0352 509.93,-83.9933"/>
<polygon fill="midnightblue" stroke="midnightblue" points="511.17,-87.2751 519.731,-81.0335 509.146,-80.574 511.17,-87.2751"/>
</g>
<!-- Node7 -->
<g id="node8" class="node"><title>Node7</title>
<g id="a_node8"><a xlink:title=" ">
<polygon fill="white" stroke="#bfbfbf" points="365,-0.5 365,-19.5 418,-19.5 418,-0.5 365,-0.5"/>
<text text-anchor="middle" x="391.5" y="-7.5" font-family="Helvetica,sans-Serif" font-size="10.00">sqlite3.h</text>
</a>
</g>
</g>
<!-- Node6&#45;&gt;Node7 -->
<g id="edge7" class="edge"><title>Node6&#45;&gt;Node7</title>
<path fill="none" stroke="midnightblue" d="M431.766,-61.9751C424.716,-53.0501 413.465,-38.8071 404.646,-27.6425"/>
<polygon fill="midnightblue" stroke="midnightblue" points="407.167,-25.1867 398.221,-19.5091 401.674,-29.5258 407.167,-25.1867"/>
</g>
<!-- Node6&#45;&gt;Node8 -->
<g id="edge8" class="edge"><title>Node6&#45;&gt;Node8</title>
<path fill="none" stroke="midnightblue" d="M445.234,-61.9751C452.284,-53.0501 463.535,-38.8071 472.354,-27.6425"/>
<polygon fill="midnightblue" stroke="midnightblue" points="475.326,-29.5258 478.779,-19.5091 469.833,-25.1867 475.326,-29.5258"/>
</g>
</g>
</svg>
