<?xml version="1.0" encoding="UTF-8" standalone="no"?>
<!DOCTYPE svg PUBLIC "-//W3C//DTD SVG 1.1//EN"
 "http://www.w3.org/Graphics/SVG/1.1/DTD/svg11.dtd">
<!-- Generated by graphviz version 2.38.0 (20140413.2041)
 -->
<!-- Title: MemDBuid.cpp Pages: 1 -->
<svg width="328pt" height="84pt"
 viewBox="0.00 0.00 327.50 84.00" xmlns="http://www.w3.org/2000/svg" xmlns:xlink="http://www.w3.org/1999/xlink">
<g id="graph0" class="graph" transform="scale(1 1) rotate(0) translate(4 80)">
<title>MemDBuid.cpp</title>
<polygon fill="white" stroke="none" points="-4,4 -4,-80 323.5,-80 323.5,4 -4,4"/>
<!-- Node0 -->
<g id="node1" class="node"><title>Node0</title>
<g id="a_node1"><a xlink:title="Облегчённый класс для работы с бд в памяти">
<polygon fill="#bfbfbf" stroke="black" points="102,-56.5 102,-75.5 185,-75.5 185,-56.5 102,-56.5"/>
<text text-anchor="middle" x="143.5" y="-63.5" font-family="Helvetica,sans-Serif" font-size="10.00">MemDBuid.cpp</text>
</a>
</g>
</g>
<!-- Node1 -->
<g id="node2" class="node"><title>Node1</title>
<g id="a_node2"><a xlink:href="_mem_d_buid_8h.html" target="_top" xlink:title="Облегчённый класс для работы с бд в памяти">
<polygon fill="white" stroke="black" points="0,-0.5 0,-19.5 73,-19.5 73,-0.5 0,-0.5"/>
<text text-anchor="middle" x="36.5" y="-7.5" font-family="Helvetica,sans-Serif" font-size="10.00">MemDBuid.h</text>
</a>
</g>
</g>
<!-- Node0&#45;&gt;Node1 -->
<g id="edge1" class="edge"><title>Node0&#45;&gt;Node1</title>
<path fill="none" stroke="midnightblue" d="M126.309,-56.324C109.149,-47.6641 82.5543,-34.2424 62.7527,-24.249"/>
<polygon fill="midnightblue" stroke="midnightblue" points="64.1532,-21.0354 53.6487,-19.6545 60.9993,-27.2847 64.1532,-21.0354"/>
</g>
<!-- Node2 -->
<g id="node3" class="node"><title>Node2</title>
<g id="a_node3"><a xlink:title=" ">
<polygon fill="white" stroke="#bfbfbf" points="91,-0.5 91,-19.5 132,-19.5 132,-0.5 91,-0.5"/>
<text text-anchor="middle" x="111.5" y="-7.5" font-family="Helvetica,sans-Serif" font-size="10.00">string</text>
</a>
</g>
</g>
<!-- Node0&#45;&gt;Node2 -->
<g id="edge2" class="edge"><title>Node0&#45;&gt;Node2</title>
<path fill="none" stroke="midnightblue" d="M138.216,-56.083C133.789,-48.6127 127.337,-37.7244 121.882,-28.5199"/>
<polygon fill="midnightblue" stroke="midnightblue" points="124.795,-26.5697 116.686,-19.7511 118.773,-30.1383 124.795,-26.5697"/>
</g>
<!-- Node3 -->
<g id="node4" class="node"><title>Node3</title>
<g id="a_node4"><a xlink:title=" ">
<polygon fill="white" stroke="#bfbfbf" points="150,-0.5 150,-19.5 203,-19.5 203,-0.5 150,-0.5"/>
<text text-anchor="middle" x="176.5" y="-7.5" font-family="Helvetica,sans-Serif" font-size="10.00">sqlite3.h</text>
</a>
</g>
</g>
<!-- Node0&#45;&gt;Node3 -->
<g id="edge3" class="edge"><title>Node0&#45;&gt;Node3</title>
<path fill="none" stroke="midnightblue" d="M148.949,-56.083C153.514,-48.6127 160.168,-37.7244 165.793,-28.5199"/>
<polygon fill="midnightblue" stroke="midnightblue" points="168.924,-30.109 171.152,-19.7511 162.951,-26.4588 168.924,-30.109"/>
</g>
<!-- Node4 -->
<g id="node5" class="node"><title>Node4</title>
<g id="a_node5"><a xlink:href="_battleship_royale_8h.html" target="_top" xlink:title="Заголовочный файл с пространством имён, которое хранит в себе константы.">
<polygon fill="white" stroke="black" points="221.5,-0.5 221.5,-19.5 319.5,-19.5 319.5,-0.5 221.5,-0.5"/>
<text text-anchor="middle" x="270.5" y="-7.5" font-family="Helvetica,sans-Serif" font-size="10.00">BattleshipRoyale.h</text>
</a>
</g>
</g>
<!-- Node0&#45;&gt;Node4 -->
<g id="edge4" class="edge"><title>Node0&#45;&gt;Node4</title>
<path fill="none" stroke="midnightblue" d="M163.624,-56.4435C184.524,-47.5566 217.435,-33.5632 241.216,-23.4514"/>
<polygon fill="midnightblue" stroke="midnightblue" points="242.638,-26.6504 250.471,-19.5164 239.898,-20.2085 242.638,-26.6504"/>
</g>
</g>
</svg>
