<?xml version="1.0" encoding="UTF-8" standalone="no"?>
<!DOCTYPE svg PUBLIC "-//W3C//DTD SVG 1.1//EN"
 "http://www.w3.org/Graphics/SVG/1.1/DTD/svg11.dtd">
<!-- Generated by graphviz version 2.38.0 (20140413.2041)
 -->
<!-- Title: MemDBmap.cpp Pages: 1 -->
<svg width="334pt" height="84pt"
 viewBox="0.00 0.00 333.50 84.00" xmlns="http://www.w3.org/2000/svg" xmlns:xlink="http://www.w3.org/1999/xlink">
<g id="graph0" class="graph" transform="scale(1 1) rotate(0) translate(4 80)">
<title>MemDBmap.cpp</title>
<polygon fill="white" stroke="none" points="-4,4 -4,-80 329.5,-80 329.5,4 -4,4"/>
<!-- Node0 -->
<g id="node1" class="node"><title>Node0</title>
<g id="a_node1"><a xlink:title="Облегчённый класс для работы с бд в памяти">
<polygon fill="#bfbfbf" stroke="black" points="105,-56.5 105,-75.5 194,-75.5 194,-56.5 105,-56.5"/>
<text text-anchor="middle" x="149.5" y="-63.5" font-family="Helvetica,sans-Serif" font-size="10.00">MemDBmap.cpp</text>
</a>
</g>
</g>
<!-- Node1 -->
<g id="node2" class="node"><title>Node1</title>
<g id="a_node2"><a xlink:href="_mem_d_bmap_8h.html" target="_top" xlink:title="Облегчённый класс для работы с бд в памяти">
<polygon fill="white" stroke="black" points="0,-0.5 0,-19.5 79,-19.5 79,-0.5 0,-0.5"/>
<text text-anchor="middle" x="39.5" y="-7.5" font-family="Helvetica,sans-Serif" font-size="10.00">MemDBmap.h</text>
</a>
</g>
</g>
<!-- Node0&#45;&gt;Node1 -->
<g id="edge1" class="edge"><title>Node0&#45;&gt;Node1</title>
<path fill="none" stroke="midnightblue" d="M131.827,-56.324C114.106,-47.6247 86.5968,-34.1202 66.2116,-24.113"/>
<polygon fill="midnightblue" stroke="midnightblue" points="67.6486,-20.9195 57.1295,-19.6545 64.5639,-27.2031 67.6486,-20.9195"/>
</g>
<!-- Node2 -->
<g id="node3" class="node"><title>Node2</title>
<g id="a_node3"><a xlink:title=" ">
<polygon fill="white" stroke="#bfbfbf" points="97,-0.5 97,-19.5 138,-19.5 138,-0.5 97,-0.5"/>
<text text-anchor="middle" x="117.5" y="-7.5" font-family="Helvetica,sans-Serif" font-size="10.00">string</text>
</a>
</g>
</g>
<!-- Node0&#45;&gt;Node2 -->
<g id="edge2" class="edge"><title>Node0&#45;&gt;Node2</title>
<path fill="none" stroke="midnightblue" d="M144.216,-56.083C139.789,-48.6127 133.337,-37.7244 127.882,-28.5199"/>
<polygon fill="midnightblue" stroke="midnightblue" points="130.795,-26.5697 122.686,-19.7511 124.773,-30.1383 130.795,-26.5697"/>
</g>
<!-- Node3 -->
<g id="node4" class="node"><title>Node3</title>
<g id="a_node4"><a xlink:title=" ">
<polygon fill="white" stroke="#bfbfbf" points="156,-0.5 156,-19.5 209,-19.5 209,-0.5 156,-0.5"/>
<text text-anchor="middle" x="182.5" y="-7.5" font-family="Helvetica,sans-Serif" font-size="10.00">sqlite3.h</text>
</a>
</g>
</g>
<!-- Node0&#45;&gt;Node3 -->
<g id="edge3" class="edge"><title>Node0&#45;&gt;Node3</title>
<path fill="none" stroke="midnightblue" d="M154.949,-56.083C159.514,-48.6127 166.168,-37.7244 171.793,-28.5199"/>
<polygon fill="midnightblue" stroke="midnightblue" points="174.924,-30.109 177.152,-19.7511 168.951,-26.4588 174.924,-30.109"/>
</g>
<!-- Node4 -->
<g id="node5" class="node"><title>Node4</title>
<g id="a_node5"><a xlink:href="_battleship_royale_8h.html" target="_top" xlink:title="Заголовочный файл с пространством имён, которое хранит в себе константы.">
<polygon fill="white" stroke="black" points="227.5,-0.5 227.5,-19.5 325.5,-19.5 325.5,-0.5 227.5,-0.5"/>
<text text-anchor="middle" x="276.5" y="-7.5" font-family="Helvetica,sans-Serif" font-size="10.00">BattleshipRoyale.h</text>
</a>
</g>
</g>
<!-- Node0&#45;&gt;Node4 -->
<g id="edge4" class="edge"><title>Node0&#45;&gt;Node4</title>
<path fill="none" stroke="midnightblue" d="M169.624,-56.4435C190.524,-47.5566 223.435,-33.5632 247.216,-23.4514"/>
<polygon fill="midnightblue" stroke="midnightblue" points="248.638,-26.6504 256.471,-19.5164 245.898,-20.2085 248.638,-26.6504"/>
</g>
</g>
</svg>
