<?xml version="1.0" encoding="UTF-8" standalone="no"?>
<!DOCTYPE svg PUBLIC "-//W3C//DTD SVG 1.1//EN"
 "http://www.w3.org/Graphics/SVG/1.1/DTD/svg11.dtd">
<!-- Generated by graphviz version 2.38.0 (20140413.2041)
 -->
<!-- Title: src/server/src/MemDBmap.cpp Pages: 1 -->
<svg width="859pt" height="140pt"
 viewBox="0.00 0.00 858.50 140.00" xmlns="http://www.w3.org/2000/svg" xmlns:xlink="http://www.w3.org/1999/xlink">
<g id="graph0" class="graph" transform="scale(1 1) rotate(0) translate(4 136)">
<title>src/server/src/MemDBmap.cpp</title>
<polygon fill="white" stroke="none" points="-4,4 -4,-136 854.5,-136 854.5,4 -4,4"/>
<!-- Node0 -->
<g id="node1" class="node"><title>Node0</title>
<g id="a_node1"><a xlink:title="Облегчённый класс для работы с бд в памяти">
<polygon fill="#bfbfbf" stroke="black" points="66,-112.5 66,-131.5 217,-131.5 217,-112.5 66,-112.5"/>
<text text-anchor="middle" x="141.5" y="-119.5" font-family="Helvetica,sans-Serif" font-size="10.00">src/server/src/MemDBmap.cpp</text>
</a>
</g>
</g>
<!-- Node1 -->
<g id="node2" class="node"><title>Node1</title>
<g id="a_node2"><a xlink:href="_mem_d_bmap_8h.html" target="_top" xlink:title="Облегчённый класс для работы с бд в памяти">
<polygon fill="white" stroke="black" points="0,-56.5 0,-75.5 79,-75.5 79,-56.5 0,-56.5"/>
<text text-anchor="middle" x="39.5" y="-63.5" font-family="Helvetica,sans-Serif" font-size="10.00">MemDBmap.h</text>
</a>
</g>
</g>
<!-- Node0&#45;&gt;Node1 -->
<g id="edge1" class="edge"><title>Node0&#45;&gt;Node1</title>
<path fill="none" stroke="midnightblue" d="M125.112,-112.324C108.829,-103.703 83.6325,-90.3643 64.7837,-80.3855"/>
<polygon fill="midnightblue" stroke="midnightblue" points="66.3229,-77.2402 55.8474,-75.6545 63.0477,-83.4267 66.3229,-77.2402"/>
</g>
<!-- Node2 -->
<g id="node3" class="node"><title>Node2</title>
<g id="a_node3"><a xlink:title=" ">
<polygon fill="white" stroke="#bfbfbf" points="97,-56.5 97,-75.5 138,-75.5 138,-56.5 97,-56.5"/>
<text text-anchor="middle" x="117.5" y="-63.5" font-family="Helvetica,sans-Serif" font-size="10.00">string</text>
</a>
</g>
</g>
<!-- Node0&#45;&gt;Node2 -->
<g id="edge2" class="edge"><title>Node0&#45;&gt;Node2</title>
<path fill="none" stroke="midnightblue" d="M137.537,-112.083C134.287,-104.77 129.581,-94.1814 125.546,-85.1034"/>
<polygon fill="midnightblue" stroke="midnightblue" points="128.649,-83.4677 121.389,-75.7511 122.252,-86.3107 128.649,-83.4677"/>
</g>
<!-- Node3 -->
<g id="node4" class="node"><title>Node3</title>
<g id="a_node4"><a xlink:href="sqlite3_8h.html" target="_top" xlink:title="Константы для работы с базой данных sqlite3.">
<polygon fill="white" stroke="black" points="45,-0.5 45,-19.5 98,-19.5 98,-0.5 45,-0.5"/>
<text text-anchor="middle" x="71.5" y="-7.5" font-family="Helvetica,sans-Serif" font-size="10.00">sqlite3.h</text>
</a>
</g>
</g>
<!-- Node0&#45;&gt;Node3 -->
<g id="edge3" class="edge"><title>Node0&#45;&gt;Node3</title>
<path fill="none" stroke="midnightblue" d="M145.275,-112.338C150.373,-99.2123 157.714,-73.9186 147.5,-56 138.822,-40.776 122.746,-30.1766 107.607,-23.1068"/>
<polygon fill="midnightblue" stroke="midnightblue" points="108.947,-19.873 98.3764,-19.1511 106.189,-26.3071 108.947,-19.873"/>
</g>
<!-- Node4 -->
<g id="node5" class="node"><title>Node4</title>
<g id="a_node5"><a xlink:href="_battleship_royale_8h.html" target="_top" xlink:title="Заголовочный файл с пространством имён, которое хранит в себе константы.">
<polygon fill="white" stroke="black" points="288.5,-56.5 288.5,-75.5 386.5,-75.5 386.5,-56.5 288.5,-56.5"/>
<text text-anchor="middle" x="337.5" y="-63.5" font-family="Helvetica,sans-Serif" font-size="10.00">BattleshipRoyale.h</text>
</a>
</g>
</g>
<!-- Node0&#45;&gt;Node4 -->
<g id="edge4" class="edge"><title>Node0&#45;&gt;Node4</title>
<path fill="none" stroke="midnightblue" d="M172.557,-112.444C206.103,-103.201 259.697,-88.4356 296.641,-78.2572"/>
<polygon fill="midnightblue" stroke="midnightblue" points="297.877,-81.5469 306.589,-75.5164 296.018,-74.7984 297.877,-81.5469"/>
</g>
<!-- Node4&#45;&gt;Node3 -->
<g id="edge7" class="edge"><title>Node4&#45;&gt;Node3</title>
<path fill="none" stroke="midnightblue" d="M290.218,-56.4893C245.8,-48.3282 177.249,-35.309 108.363,-20.0982"/>
<polygon fill="midnightblue" stroke="midnightblue" points="108.721,-16.5924 98.1999,-17.8383 107.202,-23.4255 108.721,-16.5924"/>
</g>
<!-- Node5 -->
<g id="node6" class="node"><title>Node5</title>
<g id="a_node6"><a xlink:href="_version_8h.html" target="_top" xlink:title="Версия программы">
<polygon fill="white" stroke="black" points="116.5,-0.5 116.5,-19.5 250.5,-19.5 250.5,-0.5 116.5,-0.5"/>
<text text-anchor="middle" x="183.5" y="-7.5" font-family="Helvetica,sans-Serif" font-size="10.00">BattleshipRoyale/Version.h</text>
</a>
</g>
</g>
<!-- Node4&#45;&gt;Node5 -->
<g id="edge5" class="edge"><title>Node4&#45;&gt;Node5</title>
<path fill="none" stroke="midnightblue" d="M313.098,-56.4435C287.303,-47.3986 246.423,-33.064 217.482,-22.9158"/>
<polygon fill="midnightblue" stroke="midnightblue" points="218.382,-19.5226 207.788,-19.5164 216.066,-26.1283 218.382,-19.5226"/>
</g>
<!-- Node6 -->
<g id="node7" class="node"><title>Node6</title>
<g id="a_node7"><a xlink:href="_connect_8h.html" target="_top" xlink:title="Константы с параметрами для подключения">
<polygon fill="white" stroke="black" points="269,-0.5 269,-19.5 406,-19.5 406,-0.5 269,-0.5"/>
<text text-anchor="middle" x="337.5" y="-7.5" font-family="Helvetica,sans-Serif" font-size="10.00">BattleshipRoyale/Connect.h</text>
</a>
</g>
</g>
<!-- Node4&#45;&gt;Node6 -->
<g id="edge6" class="edge"><title>Node4&#45;&gt;Node6</title>
<path fill="none" stroke="midnightblue" d="M337.5,-56.083C337.5,-49.0059 337.5,-38.8611 337.5,-29.9865"/>
<polygon fill="midnightblue" stroke="midnightblue" points="341,-29.751 337.5,-19.7511 334,-29.7511 341,-29.751"/>
</g>
<!-- Node7 -->
<g id="node8" class="node"><title>Node7</title>
<g id="a_node8"><a xlink:href="_battleship_royale_2_battleship_royale_2_console_8h.html" target="_top" xlink:title="Константы консоли">
<polygon fill="white" stroke="black" points="424,-0.5 424,-19.5 561,-19.5 561,-0.5 424,-0.5"/>
<text text-anchor="middle" x="492.5" y="-7.5" font-family="Helvetica,sans-Serif" font-size="10.00">BattleshipRoyale/Console.h</text>
</a>
</g>
</g>
<!-- Node4&#45;&gt;Node7 -->
<g id="edge8" class="edge"><title>Node4&#45;&gt;Node7</title>
<path fill="none" stroke="midnightblue" d="M362.06,-56.4435C388.023,-47.3986 429.168,-33.064 458.297,-22.9158"/>
<polygon fill="midnightblue" stroke="midnightblue" points="459.763,-26.1116 468.055,-19.5164 457.46,-19.5013 459.763,-26.1116"/>
</g>
<!-- Node8 -->
<g id="node9" class="node"><title>Node8</title>
<g id="a_node9"><a xlink:href="_battleship_royale_2_battleship_royale_2_regex_8h.html" target="_top" xlink:title="Константы регулярных выражений">
<polygon fill="white" stroke="black" points="579,-0.5 579,-19.5 708,-19.5 708,-0.5 579,-0.5"/>
<text text-anchor="middle" x="643.5" y="-7.5" font-family="Helvetica,sans-Serif" font-size="10.00">BattleshipRoyale/Regex.h</text>
</a>
</g>
</g>
<!-- Node4&#45;&gt;Node8 -->
<g id="edge9" class="edge"><title>Node4&#45;&gt;Node8</title>
<path fill="none" stroke="midnightblue" d="M385.987,-56.4435C440.039,-46.9049 527.428,-31.4834 585.173,-21.293"/>
<polygon fill="midnightblue" stroke="midnightblue" points="586.001,-24.7011 595.24,-19.5164 584.784,-17.8076 586.001,-24.7011"/>
</g>
<!-- Node9 -->
<g id="node10" class="node"><title>Node9</title>
<g id="a_node10"><a xlink:href="_code_8h.html" target="_top" xlink:title="Различные коды ответов">
<polygon fill="white" stroke="black" points="726.5,-0.5 726.5,-19.5 850.5,-19.5 850.5,-0.5 726.5,-0.5"/>
<text text-anchor="middle" x="788.5" y="-7.5" font-family="Helvetica,sans-Serif" font-size="10.00">BattleshipRoyale/Code.h</text>
</a>
</g>
</g>
<!-- Node4&#45;&gt;Node9 -->
<g id="edge10" class="edge"><title>Node4&#45;&gt;Node9</title>
<path fill="none" stroke="midnightblue" d="M386.706,-59.3038C457.25,-51.1084 591.491,-35.4062 716.067,-20.1678"/>
<polygon fill="midnightblue" stroke="midnightblue" points="716.665,-23.6208 726.166,-18.931 715.814,-16.6727 716.665,-23.6208"/>
</g>
</g>
</svg>
