<?xml version="1.0" encoding="UTF-8" standalone="no"?>
<!DOCTYPE svg PUBLIC "-//W3C//DTD SVG 1.1//EN"
 "http://www.w3.org/Graphics/SVG/1.1/DTD/svg11.dtd">
<!-- Generated by graphviz version 2.38.0 (20140413.2041)
 -->
<!-- Title: src/server/src/MemDBuid.cpp Pages: 1 -->
<svg width="918pt" height="140pt"
 viewBox="0.00 0.00 917.50 140.00" xmlns="http://www.w3.org/2000/svg" xmlns:xlink="http://www.w3.org/1999/xlink">
<g id="graph0" class="graph" transform="scale(1 1) rotate(0) translate(4 136)">
<title>src/server/src/MemDBuid.cpp</title>
<polygon fill="white" stroke="none" points="-4,4 -4,-136 913.5,-136 913.5,4 -4,4"/>
<!-- Node0 -->
<g id="node1" class="node"><title>Node0</title>
<g id="a_node1"><a xlink:title="Облегчённый класс для работы с бд в памяти">
<polygon fill="#bfbfbf" stroke="black" points="88,-112.5 88,-131.5 233,-131.5 233,-112.5 88,-112.5"/>
<text text-anchor="middle" x="160.5" y="-119.5" font-family="Helvetica,sans-Serif" font-size="10.00">src/server/src/MemDBuid.cpp</text>
</a>
</g>
</g>
<!-- Node1 -->
<g id="node2" class="node"><title>Node1</title>
<g id="a_node2"><a xlink:href="_mem_d_buid_8h.html" target="_top" xlink:title="Облегчённый класс для работы с бд в памяти">
<polygon fill="white" stroke="black" points="0,-56.5 0,-75.5 73,-75.5 73,-56.5 0,-56.5"/>
<text text-anchor="middle" x="36.5" y="-63.5" font-family="Helvetica,sans-Serif" font-size="10.00">MemDBuid.h</text>
</a>
</g>
</g>
<!-- Node0&#45;&gt;Node1 -->
<g id="edge1" class="edge"><title>Node0&#45;&gt;Node1</title>
<path fill="none" stroke="midnightblue" d="M140.852,-112.444C120.535,-103.596 88.5972,-89.6875 65.4023,-79.5865"/>
<polygon fill="midnightblue" stroke="midnightblue" points="66.6221,-76.3002 56.0562,-75.5164 63.8271,-82.7181 66.6221,-76.3002"/>
</g>
<!-- Node3 -->
<g id="node4" class="node"><title>Node3</title>
<g id="a_node4"><a xlink:title=" ">
<polygon fill="white" stroke="#bfbfbf" points="91,-56.5 91,-75.5 132,-75.5 132,-56.5 91,-56.5"/>
<text text-anchor="middle" x="111.5" y="-63.5" font-family="Helvetica,sans-Serif" font-size="10.00">ctime</text>
</a>
</g>
</g>
<!-- Node0&#45;&gt;Node3 -->
<g id="edge3" class="edge"><title>Node0&#45;&gt;Node3</title>
<path fill="none" stroke="midnightblue" d="M152.409,-112.083C145.345,-104.298 134.912,-92.8015 126.351,-83.3665"/>
<polygon fill="midnightblue" stroke="midnightblue" points="128.753,-80.8047 119.441,-75.7511 123.569,-85.5087 128.753,-80.8047"/>
</g>
<!-- Node4 -->
<g id="node5" class="node"><title>Node4</title>
<g id="a_node5"><a xlink:href="sqlite3_8h.html" target="_top" xlink:title="Константы для работы с базой данных sqlite3.">
<polygon fill="white" stroke="black" points="104,-0.5 104,-19.5 157,-19.5 157,-0.5 104,-0.5"/>
<text text-anchor="middle" x="130.5" y="-7.5" font-family="Helvetica,sans-Serif" font-size="10.00">sqlite3.h</text>
</a>
</g>
</g>
<!-- Node0&#45;&gt;Node4 -->
<g id="edge4" class="edge"><title>Node0&#45;&gt;Node4</title>
<path fill="none" stroke="midnightblue" d="M158.146,-112.368C153.283,-94.5366 142.035,-53.2953 135.483,-29.2717"/>
<polygon fill="midnightblue" stroke="midnightblue" points="138.851,-28.3181 132.843,-19.5914 132.098,-30.16 138.851,-28.3181"/>
</g>
<!-- Node5 -->
<g id="node6" class="node"><title>Node5</title>
<g id="a_node6"><a xlink:title=" ">
<polygon fill="white" stroke="#bfbfbf" points="188.5,-56.5 188.5,-75.5 252.5,-75.5 252.5,-56.5 188.5,-56.5"/>
<text text-anchor="middle" x="220.5" y="-63.5" font-family="Helvetica,sans-Serif" font-size="10.00">picosha2.h</text>
</a>
</g>
</g>
<!-- Node0&#45;&gt;Node5 -->
<g id="edge5" class="edge"><title>Node0&#45;&gt;Node5</title>
<path fill="none" stroke="midnightblue" d="M170.14,-112.324C179.01,-104.341 192.375,-92.3128 203.108,-82.6529"/>
<polygon fill="midnightblue" stroke="midnightblue" points="205.593,-85.1251 210.685,-75.8339 200.91,-79.922 205.593,-85.1251"/>
</g>
<!-- Node6 -->
<g id="node7" class="node"><title>Node6</title>
<g id="a_node7"><a xlink:href="_battleship_royale_8h.html" target="_top" xlink:title="Заголовочный файл с пространством имён, которое хранит в себе константы.">
<polygon fill="white" stroke="black" points="347.5,-56.5 347.5,-75.5 445.5,-75.5 445.5,-56.5 347.5,-56.5"/>
<text text-anchor="middle" x="396.5" y="-63.5" font-family="Helvetica,sans-Serif" font-size="10.00">BattleshipRoyale.h</text>
</a>
</g>
</g>
<!-- Node0&#45;&gt;Node6 -->
<g id="edge6" class="edge"><title>Node0&#45;&gt;Node6</title>
<path fill="none" stroke="midnightblue" d="M197.895,-112.444C238.892,-103.063 304.754,-87.9926 349.284,-77.8036"/>
<polygon fill="midnightblue" stroke="midnightblue" points="350.313,-81.1588 359.28,-75.5164 348.751,-74.3352 350.313,-81.1588"/>
</g>
<!-- Node2 -->
<g id="node3" class="node"><title>Node2</title>
<g id="a_node3"><a xlink:title=" ">
<polygon fill="white" stroke="#bfbfbf" points="16,-0.5 16,-19.5 57,-19.5 57,-0.5 16,-0.5"/>
<text text-anchor="middle" x="36.5" y="-7.5" font-family="Helvetica,sans-Serif" font-size="10.00">string</text>
</a>
</g>
</g>
<!-- Node1&#45;&gt;Node2 -->
<g id="edge2" class="edge"><title>Node1&#45;&gt;Node2</title>
<path fill="none" stroke="midnightblue" d="M36.5,-56.083C36.5,-49.0059 36.5,-38.8611 36.5,-29.9865"/>
<polygon fill="midnightblue" stroke="midnightblue" points="40.0001,-29.751 36.5,-19.7511 33.0001,-29.7511 40.0001,-29.751"/>
</g>
<!-- Node6&#45;&gt;Node4 -->
<g id="edge9" class="edge"><title>Node6&#45;&gt;Node4</title>
<path fill="none" stroke="midnightblue" d="M349.218,-56.4893C304.8,-48.3282 236.249,-35.309 167.363,-20.0982"/>
<polygon fill="midnightblue" stroke="midnightblue" points="167.721,-16.5924 157.2,-17.8383 166.202,-23.4255 167.721,-16.5924"/>
</g>
<!-- Node7 -->
<g id="node8" class="node"><title>Node7</title>
<g id="a_node8"><a xlink:href="_version_8h.html" target="_top" xlink:title="Версия программы">
<polygon fill="white" stroke="black" points="175.5,-0.5 175.5,-19.5 309.5,-19.5 309.5,-0.5 175.5,-0.5"/>
<text text-anchor="middle" x="242.5" y="-7.5" font-family="Helvetica,sans-Serif" font-size="10.00">BattleshipRoyale/Version.h</text>
</a>
</g>
</g>
<!-- Node6&#45;&gt;Node7 -->
<g id="edge7" class="edge"><title>Node6&#45;&gt;Node7</title>
<path fill="none" stroke="midnightblue" d="M372.098,-56.4435C346.303,-47.3986 305.423,-33.064 276.482,-22.9158"/>
<polygon fill="midnightblue" stroke="midnightblue" points="277.382,-19.5226 266.788,-19.5164 275.066,-26.1283 277.382,-19.5226"/>
</g>
<!-- Node8 -->
<g id="node9" class="node"><title>Node8</title>
<g id="a_node9"><a xlink:href="_connect_8h.html" target="_top" xlink:title="Константы с параметрами для подключения">
<polygon fill="white" stroke="black" points="328,-0.5 328,-19.5 465,-19.5 465,-0.5 328,-0.5"/>
<text text-anchor="middle" x="396.5" y="-7.5" font-family="Helvetica,sans-Serif" font-size="10.00">BattleshipRoyale/Connect.h</text>
</a>
</g>
</g>
<!-- Node6&#45;&gt;Node8 -->
<g id="edge8" class="edge"><title>Node6&#45;&gt;Node8</title>
<path fill="none" stroke="midnightblue" d="M396.5,-56.083C396.5,-49.0059 396.5,-38.8611 396.5,-29.9865"/>
<polygon fill="midnightblue" stroke="midnightblue" points="400,-29.751 396.5,-19.7511 393,-29.7511 400,-29.751"/>
</g>
<!-- Node9 -->
<g id="node10" class="node"><title>Node9</title>
<g id="a_node10"><a xlink:href="_battleship_royale_2_battleship_royale_2_console_8h.html" target="_top" xlink:title="Константы консоли">
<polygon fill="white" stroke="black" points="483,-0.5 483,-19.5 620,-19.5 620,-0.5 483,-0.5"/>
<text text-anchor="middle" x="551.5" y="-7.5" font-family="Helvetica,sans-Serif" font-size="10.00">BattleshipRoyale/Console.h</text>
</a>
</g>
</g>
<!-- Node6&#45;&gt;Node9 -->
<g id="edge10" class="edge"><title>Node6&#45;&gt;Node9</title>
<path fill="none" stroke="midnightblue" d="M421.06,-56.4435C447.023,-47.3986 488.168,-33.064 517.297,-22.9158"/>
<polygon fill="midnightblue" stroke="midnightblue" points="518.763,-26.1116 527.055,-19.5164 516.46,-19.5013 518.763,-26.1116"/>
</g>
<!-- Node10 -->
<g id="node11" class="node"><title>Node10</title>
<g id="a_node11"><a xlink:href="_battleship_royale_2_battleship_royale_2_regex_8h.html" target="_top" xlink:title="Константы регулярных выражений">
<polygon fill="white" stroke="black" points="638,-0.5 638,-19.5 767,-19.5 767,-0.5 638,-0.5"/>
<text text-anchor="middle" x="702.5" y="-7.5" font-family="Helvetica,sans-Serif" font-size="10.00">BattleshipRoyale/Regex.h</text>
</a>
</g>
</g>
<!-- Node6&#45;&gt;Node10 -->
<g id="edge11" class="edge"><title>Node6&#45;&gt;Node10</title>
<path fill="none" stroke="midnightblue" d="M444.987,-56.4435C499.039,-46.9049 586.428,-31.4834 644.173,-21.293"/>
<polygon fill="midnightblue" stroke="midnightblue" points="645.001,-24.7011 654.24,-19.5164 643.784,-17.8076 645.001,-24.7011"/>
</g>
<!-- Node11 -->
<g id="node12" class="node"><title>Node11</title>
<g id="a_node12"><a xlink:href="_code_8h.html" target="_top" xlink:title="Различные коды ответов">
<polygon fill="white" stroke="black" points="785.5,-0.5 785.5,-19.5 909.5,-19.5 909.5,-0.5 785.5,-0.5"/>
<text text-anchor="middle" x="847.5" y="-7.5" font-family="Helvetica,sans-Serif" font-size="10.00">BattleshipRoyale/Code.h</text>
</a>
</g>
</g>
<!-- Node6&#45;&gt;Node11 -->
<g id="edge12" class="edge"><title>Node6&#45;&gt;Node11</title>
<path fill="none" stroke="midnightblue" d="M445.706,-59.3038C516.25,-51.1084 650.491,-35.4062 775.067,-20.1678"/>
<polygon fill="midnightblue" stroke="midnightblue" points="775.665,-23.6208 785.166,-18.931 774.814,-16.6727 775.665,-23.6208"/>
</g>
</g>
</svg>
