<?xml version="1.0" encoding="UTF-8" standalone="no"?>
<!DOCTYPE svg PUBLIC "-//W3C//DTD SVG 1.1//EN"
 "http://www.w3.org/Graphics/SVG/1.1/DTD/svg11.dtd">
<!-- Generated by graphviz version 2.38.0 (20140413.2041)
 -->
<!-- Title: MiniDB.h Pages: 1 -->
<svg width="255pt" height="196pt"
 viewBox="0.00 0.00 254.50 196.00" xmlns="http://www.w3.org/2000/svg" xmlns:xlink="http://www.w3.org/1999/xlink">
<g id="graph0" class="graph" transform="scale(1 1) rotate(0) translate(4 192)">
<title>MiniDB.h</title>
<polygon fill="white" stroke="none" points="-4,4 -4,-192 250.5,-192 250.5,4 -4,4"/>
<!-- Node4 -->
<g id="node1" class="node"><title>Node4</title>
<g id="a_node1"><a xlink:title="Облегчённый класс для работы с бд">
<polygon fill="#bfbfbf" stroke="black" points="93.5,-168.5 93.5,-187.5 149.5,-187.5 149.5,-168.5 93.5,-168.5"/>
<text text-anchor="middle" x="121.5" y="-175.5" font-family="Helvetica,sans-Serif" font-size="10.00">MiniDB.h</text>
</a>
</g>
</g>
<!-- Node5 -->
<g id="node2" class="node"><title>Node5</title>
<g id="a_node2"><a xlink:href="server_2src_2_battleship_royale_8cpp.html" target="_top" xlink:title="Сервер">
<polygon fill="white" stroke="black" points="0,-0.5 0,-19.5 109,-19.5 109,-0.5 0,-0.5"/>
<text text-anchor="middle" x="54.5" y="-7.5" font-family="Helvetica,sans-Serif" font-size="10.00">BattleshipRoyale.cpp</text>
</a>
</g>
</g>
<!-- Node4&#45;&gt;Node5 -->
<g id="edge1" class="edge"><title>Node4&#45;&gt;Node5</title>
<path fill="none" stroke="midnightblue" d="M100.081,-162.167C90.4158,-154.328 79.7808,-143.87 73.5,-132 53.3105,-93.8458 53.1931,-40.117 54.0098,-19.5053"/>
<polygon fill="midnightblue" stroke="midnightblue" points="98.1175,-165.071 108.192,-168.352 102.362,-159.505 98.1175,-165.071"/>
</g>
<!-- Node6 -->
<g id="node3" class="node"><title>Node6</title>
<g id="a_node3"><a xlink:href="server_2src_2con__handler_8h.html" target="_top" xlink:title="handler">
<polygon fill="white" stroke="black" points="83,-112.5 83,-131.5 160,-131.5 160,-112.5 83,-112.5"/>
<text text-anchor="middle" x="121.5" y="-119.5" font-family="Helvetica,sans-Serif" font-size="10.00">con_handler.h</text>
</a>
</g>
</g>
<!-- Node4&#45;&gt;Node6 -->
<g id="edge2" class="edge"><title>Node4&#45;&gt;Node6</title>
<path fill="none" stroke="midnightblue" d="M121.5,-157.805C121.5,-148.91 121.5,-138.78 121.5,-131.751"/>
<polygon fill="midnightblue" stroke="midnightblue" points="118,-158.083 121.5,-168.083 125,-158.083 118,-158.083"/>
</g>
<!-- Node10 -->
<g id="node7" class="node"><title>Node10</title>
<g id="a_node7"><a xlink:href="_mini_d_b_8cpp.html" target="_top" xlink:title="Облегчённый класс для работы с бд">
<polygon fill="white" stroke="black" points="178,-112.5 178,-131.5 245,-131.5 245,-112.5 178,-112.5"/>
<text text-anchor="middle" x="211.5" y="-119.5" font-family="Helvetica,sans-Serif" font-size="10.00">MiniDB.cpp</text>
</a>
</g>
</g>
<!-- Node4&#45;&gt;Node10 -->
<g id="edge7" class="edge"><title>Node4&#45;&gt;Node10</title>
<path fill="none" stroke="midnightblue" d="M144.538,-163.177C161.099,-153.241 182.918,-140.149 197.076,-131.655"/>
<polygon fill="midnightblue" stroke="midnightblue" points="142.734,-160.178 135.96,-168.324 146.336,-166.18 142.734,-160.178"/>
</g>
<!-- Node7 -->
<g id="node4" class="node"><title>Node7</title>
<g id="a_node4"><a xlink:href="server_2src_2_server_8h.html" target="_top" xlink:title="Асинхронный сервер написанный на boost asio.">
<polygon fill="white" stroke="black" points="88.5,-56.5 88.5,-75.5 140.5,-75.5 140.5,-56.5 88.5,-56.5"/>
<text text-anchor="middle" x="114.5" y="-63.5" font-family="Helvetica,sans-Serif" font-size="10.00">Server.h</text>
</a>
</g>
</g>
<!-- Node6&#45;&gt;Node7 -->
<g id="edge3" class="edge"><title>Node6&#45;&gt;Node7</title>
<path fill="none" stroke="midnightblue" d="M119.05,-102.101C117.888,-93.1357 116.556,-82.8579 115.634,-75.7511"/>
<polygon fill="midnightblue" stroke="midnightblue" points="115.588,-102.616 120.344,-112.083 122.529,-101.716 115.588,-102.616"/>
</g>
<!-- Node9 -->
<g id="node6" class="node"><title>Node9</title>
<g id="a_node6"><a xlink:href="server_2src_2con__handler_8cpp.html" target="_top" xlink:title="handler">
<polygon fill="white" stroke="black" points="158.5,-56.5 158.5,-75.5 246.5,-75.5 246.5,-56.5 158.5,-56.5"/>
<text text-anchor="middle" x="202.5" y="-63.5" font-family="Helvetica,sans-Serif" font-size="10.00">con_handler.cpp</text>
</a>
</g>
</g>
<!-- Node6&#45;&gt;Node9 -->
<g id="edge6" class="edge"><title>Node6&#45;&gt;Node9</title>
<path fill="none" stroke="midnightblue" d="M143.067,-106.622C157.864,-96.7574 177.012,-83.9919 189.518,-75.6545"/>
<polygon fill="midnightblue" stroke="midnightblue" points="140.893,-103.865 134.514,-112.324 144.776,-109.689 140.893,-103.865"/>
</g>
<!-- Node7&#45;&gt;Node5 -->
<g id="edge4" class="edge"><title>Node7&#45;&gt;Node5</title>
<path fill="none" stroke="midnightblue" d="M97.3191,-49.5372C86.6208,-39.9087 73.2437,-27.8694 64.3154,-19.8339"/>
<polygon fill="midnightblue" stroke="midnightblue" points="95.0856,-52.2358 104.86,-56.324 99.7684,-47.0327 95.0856,-52.2358"/>
</g>
<!-- Node8 -->
<g id="node5" class="node"><title>Node8</title>
<g id="a_node5"><a xlink:href="server_2src_2_server_8cpp.html" target="_top" xlink:title="Асинхронный сервер написанный на boost asio.">
<polygon fill="white" stroke="black" points="127.5,-0.5 127.5,-19.5 189.5,-19.5 189.5,-0.5 127.5,-0.5"/>
<text text-anchor="middle" x="158.5" y="-7.5" font-family="Helvetica,sans-Serif" font-size="10.00">Server.cpp</text>
</a>
</g>
</g>
<!-- Node7&#45;&gt;Node8 -->
<g id="edge5" class="edge"><title>Node7&#45;&gt;Node8</title>
<path fill="none" stroke="midnightblue" d="M128.235,-48.144C135.901,-38.7357 145.133,-27.4046 151.369,-19.7511"/>
<polygon fill="midnightblue" stroke="midnightblue" points="125.369,-46.1198 121.766,-56.083 130.796,-50.5415 125.369,-46.1198"/>
</g>
</g>
</svg>
