<?xml version="1.0" encoding="UTF-8" standalone="no"?>
<!DOCTYPE svg PUBLIC "-//W3C//DTD SVG 1.1//EN"
 "http://www.w3.org/Graphics/SVG/1.1/DTD/svg11.dtd">
<!-- Generated by graphviz version 2.38.0 (20140413.2041)
 -->
<!-- Title: src/server/src/check/OpenMP.h Pages: 1 -->
<svg width="248pt" height="173pt"
 viewBox="0.00 0.00 248.00 173.00" xmlns="http://www.w3.org/2000/svg" xmlns:xlink="http://www.w3.org/1999/xlink">
<g id="graph0" class="graph" transform="scale(1 1) rotate(0) translate(4 169)">
<title>src/server/src/check/OpenMP.h</title>
<polygon fill="white" stroke="none" points="-4,4 -4,-169 244,-169 244,4 -4,4"/>
<!-- Node1 -->
<g id="node1" class="node"><title>Node1</title>
<g id="a_node1"><a xlink:title="Проверка поддержки OpenMP.">
<polygon fill="#bfbfbf" stroke="black" points="72,-134.5 72,-164.5 176,-164.5 176,-134.5 72,-134.5"/>
<text text-anchor="start" x="80" y="-152.5" font-family="Helvetica,sans-Serif" font-size="10.00">src/server/src/check</text>
<text text-anchor="middle" x="124" y="-141.5" font-family="Helvetica,sans-Serif" font-size="10.00">/OpenMP.h</text>
</a>
</g>
</g>
<!-- Node2 -->
<g id="node2" class="node"><title>Node2</title>
<g id="a_node2"><a xlink:href="_check_8h.html" target="_top" xlink:title="Набор проверок (пример: Проверка поддержки OpenMP)">
<polygon fill="white" stroke="black" points="4,-73 4,-92 118,-92 118,-73 4,-73"/>
<text text-anchor="middle" x="61" y="-80" font-family="Helvetica,sans-Serif" font-size="10.00">src/server/src/Check.h</text>
</a>
</g>
</g>
<!-- Node1&#45;&gt;Node2 -->
<g id="edge1" class="edge"><title>Node1&#45;&gt;Node2</title>
<path fill="none" stroke="midnightblue" d="M103.158,-126.997C91.659,-115.132 78.0115,-101.052 69.427,-92.1945"/>
<polygon fill="midnightblue" stroke="midnightblue" points="100.857,-129.651 110.33,-134.396 105.883,-124.779 100.857,-129.651"/>
</g>
<!-- Node4 -->
<g id="node4" class="node"><title>Node4</title>
<g id="a_node4"><a xlink:href="_open_m_p_8cpp.html" target="_top" xlink:title="Проверка поддержки OpenMP.">
<polygon fill="white" stroke="black" points="136,-67.5 136,-97.5 240,-97.5 240,-67.5 136,-67.5"/>
<text text-anchor="start" x="144" y="-85.5" font-family="Helvetica,sans-Serif" font-size="10.00">src/server/src/check</text>
<text text-anchor="middle" x="188" y="-74.5" font-family="Helvetica,sans-Serif" font-size="10.00">/OpenMP.cpp</text>
</a>
</g>
</g>
<!-- Node1&#45;&gt;Node4 -->
<g id="edge3" class="edge"><title>Node1&#45;&gt;Node4</title>
<path fill="none" stroke="midnightblue" d="M145.145,-127.024C154.681,-117.34 165.675,-106.174 174.14,-97.5765"/>
<polygon fill="midnightblue" stroke="midnightblue" points="142.409,-124.815 137.887,-134.396 147.397,-129.726 142.409,-124.815"/>
</g>
<!-- Node3 -->
<g id="node3" class="node"><title>Node3</title>
<g id="a_node3"><a xlink:href="server_2src_2_battleship_royale_8cpp.html" target="_top" xlink:title="Сервер">
<polygon fill="white" stroke="black" points="0,-0.5 0,-30.5 122,-30.5 122,-0.5 0,-0.5"/>
<text text-anchor="start" x="8" y="-18.5" font-family="Helvetica,sans-Serif" font-size="10.00">src/server/src/Battleship</text>
<text text-anchor="middle" x="61" y="-7.5" font-family="Helvetica,sans-Serif" font-size="10.00">Royale.cpp</text>
</a>
</g>
</g>
<!-- Node2&#45;&gt;Node3 -->
<g id="edge2" class="edge"><title>Node2&#45;&gt;Node3</title>
<path fill="none" stroke="midnightblue" d="M61,-62.4107C61,-52.222 61,-39.901 61,-30.589"/>
<polygon fill="midnightblue" stroke="midnightblue" points="57.5001,-62.7338 61,-72.7338 64.5001,-62.7338 57.5001,-62.7338"/>
</g>
</g>
</svg>
