<?xml version="1.0" encoding="UTF-8" standalone="no"?>
<!DOCTYPE svg PUBLIC "-//W3C//DTD SVG 1.1//EN"
 "http://www.w3.org/Graphics/SVG/1.1/DTD/svg11.dtd">
<!-- Generated by graphviz version 2.38.0 (20140413.2041)
 -->
<!-- Title: src/server/src/Processing.h Pages: 1 -->
<svg width="266pt" height="140pt"
 viewBox="0.00 0.00 265.50 140.00" xmlns="http://www.w3.org/2000/svg" xmlns:xlink="http://www.w3.org/1999/xlink">
<g id="graph0" class="graph" transform="scale(1 1) rotate(0) translate(4 136)">
<title>src/server/src/Processing.h</title>
<polygon fill="white" stroke="none" points="-4,4 -4,-136 261.5,-136 261.5,4 -4,4"/>
<!-- Node0 -->
<g id="node1" class="node"><title>Node0</title>
<g id="a_node1"><a xlink:title="Обработка запросов">
<polygon fill="#bfbfbf" stroke="black" points="10,-112.5 10,-131.5 145,-131.5 145,-112.5 10,-112.5"/>
<text text-anchor="middle" x="77.5" y="-119.5" font-family="Helvetica,sans-Serif" font-size="10.00">src/server/src/Processing.h</text>
</a>
</g>
</g>
<!-- Node1 -->
<g id="node2" class="node"><title>Node1</title>
<g id="a_node2"><a xlink:href="server_2src_2_mini_d_b_8h.html" target="_top" xlink:title="Облегчённый класс для работы с бд">
<polygon fill="white" stroke="black" points="91.5,-56.5 91.5,-75.5 147.5,-75.5 147.5,-56.5 91.5,-56.5"/>
<text text-anchor="middle" x="119.5" y="-63.5" font-family="Helvetica,sans-Serif" font-size="10.00">MiniDB.h</text>
</a>
</g>
</g>
<!-- Node0&#45;&gt;Node1 -->
<g id="edge1" class="edge"><title>Node0&#45;&gt;Node1</title>
<path fill="none" stroke="midnightblue" d="M84.4354,-112.083C90.4292,-104.377 99.2518,-93.0333 106.548,-83.6531"/>
<polygon fill="midnightblue" stroke="midnightblue" points="109.317,-85.7934 112.694,-75.7511 103.791,-81.4958 109.317,-85.7934"/>
</g>
<!-- Node5 -->
<g id="node6" class="node"><title>Node5</title>
<g id="a_node6"><a xlink:href="_mem_d_buid_8h.html" target="_top" xlink:title="Облегчённый класс для работы с бд в памяти">
<polygon fill="white" stroke="black" points="0,-56.5 0,-75.5 73,-75.5 73,-56.5 0,-56.5"/>
<text text-anchor="middle" x="36.5" y="-63.5" font-family="Helvetica,sans-Serif" font-size="10.00">MemDBuid.h</text>
</a>
</g>
</g>
<!-- Node0&#45;&gt;Node5 -->
<g id="edge5" class="edge"><title>Node0&#45;&gt;Node5</title>
<path fill="none" stroke="midnightblue" d="M70.7297,-112.083C64.9384,-104.455 56.4415,-93.2645 49.3625,-83.9408"/>
<polygon fill="midnightblue" stroke="midnightblue" points="51.979,-81.5991 43.1443,-75.7511 46.4039,-85.8321 51.979,-81.5991"/>
</g>
<!-- Node2 -->
<g id="node3" class="node"><title>Node2</title>
<g id="a_node3"><a xlink:title=" ">
<polygon fill="white" stroke="#bfbfbf" points="25,-0.5 25,-19.5 66,-19.5 66,-0.5 25,-0.5"/>
<text text-anchor="middle" x="45.5" y="-7.5" font-family="Helvetica,sans-Serif" font-size="10.00">string</text>
</a>
</g>
</g>
<!-- Node1&#45;&gt;Node2 -->
<g id="edge2" class="edge"><title>Node1&#45;&gt;Node2</title>
<path fill="none" stroke="midnightblue" d="M107.611,-56.324C96.3498,-48.1066 79.2134,-35.6017 65.7909,-25.8069"/>
<polygon fill="midnightblue" stroke="midnightblue" points="67.7468,-22.9014 57.6057,-19.8339 63.6205,-28.5559 67.7468,-22.9014"/>
</g>
<!-- Node3 -->
<g id="node4" class="node"><title>Node3</title>
<g id="a_node4"><a xlink:title=" ">
<polygon fill="white" stroke="#bfbfbf" points="88,-0.5 88,-19.5 141,-19.5 141,-0.5 88,-0.5"/>
<text text-anchor="middle" x="114.5" y="-7.5" font-family="Helvetica,sans-Serif" font-size="10.00">sqlite3.h</text>
</a>
</g>
</g>
<!-- Node1&#45;&gt;Node3 -->
<g id="edge3" class="edge"><title>Node1&#45;&gt;Node3</title>
<path fill="none" stroke="midnightblue" d="M118.674,-56.083C118.019,-49.0059 117.08,-38.8611 116.258,-29.9865"/>
<polygon fill="midnightblue" stroke="midnightblue" points="119.717,-29.3858 115.31,-19.7511 112.747,-30.0312 119.717,-29.3858"/>
</g>
<!-- Node4 -->
<g id="node5" class="node"><title>Node4</title>
<g id="a_node5"><a xlink:href="_battleship_royale_8h.html" target="_top" xlink:title="Заголовочный файл с пространством имён, которое хранит в себе константы.">
<polygon fill="white" stroke="black" points="159.5,-0.5 159.5,-19.5 257.5,-19.5 257.5,-0.5 159.5,-0.5"/>
<text text-anchor="middle" x="208.5" y="-7.5" font-family="Helvetica,sans-Serif" font-size="10.00">BattleshipRoyale.h</text>
</a>
</g>
</g>
<!-- Node1&#45;&gt;Node4 -->
<g id="edge4" class="edge"><title>Node1&#45;&gt;Node4</title>
<path fill="none" stroke="midnightblue" d="M133.799,-56.324C147.683,-47.9002 168.992,-34.9709 185.304,-25.0741"/>
<polygon fill="midnightblue" stroke="midnightblue" points="187.502,-27.8341 194.236,-19.6545 183.871,-21.8495 187.502,-27.8341"/>
</g>
<!-- Node5&#45;&gt;Node2 -->
<g id="edge6" class="edge"><title>Node5&#45;&gt;Node2</title>
<path fill="none" stroke="midnightblue" d="M37.9862,-56.083C39.1788,-48.9272 40.8941,-38.6353 42.3848,-29.6911"/>
<polygon fill="midnightblue" stroke="midnightblue" points="45.8498,-30.1904 44.0415,-19.7511 38.945,-29.0396 45.8498,-30.1904"/>
</g>
</g>
</svg>
