<?xml version="1.0" encoding="UTF-8" standalone="no"?>
<!DOCTYPE svg PUBLIC "-//W3C//DTD SVG 1.1//EN"
 "http://www.w3.org/Graphics/SVG/1.1/DTD/svg11.dtd">
<!-- Generated by graphviz version 2.38.0 (20140413.2041)
 -->
<!-- Title: Processing.h Pages: 1 -->
<svg width="300pt" height="196pt"
 viewBox="0.00 0.00 299.50 196.00" xmlns="http://www.w3.org/2000/svg" xmlns:xlink="http://www.w3.org/1999/xlink">
<g id="graph0" class="graph" transform="scale(1 1) rotate(0) translate(4 192)">
<title>Processing.h</title>
<polygon fill="white" stroke="none" points="-4,4 -4,-192 295.5,-192 295.5,4 -4,4"/>
<!-- Node5 -->
<g id="node1" class="node"><title>Node5</title>
<g id="a_node1"><a xlink:title="Обработка запросов">
<polygon fill="#bfbfbf" stroke="black" points="113.5,-168.5 113.5,-187.5 187.5,-187.5 187.5,-168.5 113.5,-168.5"/>
<text text-anchor="middle" x="150.5" y="-175.5" font-family="Helvetica,sans-Serif" font-size="10.00">Processing.h</text>
</a>
</g>
</g>
<!-- Node6 -->
<g id="node2" class="node"><title>Node6</title>
<g id="a_node2"><a xlink:href="examples_2_processing_8cpp.html" target="_top" xlink:title=" ">
<polygon fill="white" stroke="black" points="9.5,-112.5 9.5,-131.5 93.5,-131.5 93.5,-112.5 9.5,-112.5"/>
<text text-anchor="middle" x="51.5" y="-119.5" font-family="Helvetica,sans-Serif" font-size="10.00">Processing.cpp</text>
</a>
</g>
</g>
<!-- Node5&#45;&gt;Node6 -->
<g id="edge1" class="edge"><title>Node5&#45;&gt;Node6</title>
<path fill="none" stroke="midnightblue" d="M125.663,-163.453C107.386,-153.483 83.0844,-140.228 67.3666,-131.655"/>
<polygon fill="midnightblue" stroke="midnightblue" points="124.139,-166.608 134.594,-168.324 127.491,-160.463 124.139,-166.608"/>
</g>
<!-- Node7 -->
<g id="node3" class="node"><title>Node7</title>
<g id="a_node3"><a xlink:href="server_2src_2con__handler_8h.html" target="_top" xlink:title="handler">
<polygon fill="white" stroke="black" points="112,-112.5 112,-131.5 189,-131.5 189,-112.5 112,-112.5"/>
<text text-anchor="middle" x="150.5" y="-119.5" font-family="Helvetica,sans-Serif" font-size="10.00">con_handler.h</text>
</a>
</g>
</g>
<!-- Node5&#45;&gt;Node7 -->
<g id="edge2" class="edge"><title>Node5&#45;&gt;Node7</title>
<path fill="none" stroke="midnightblue" d="M150.5,-157.805C150.5,-148.91 150.5,-138.78 150.5,-131.751"/>
<polygon fill="midnightblue" stroke="midnightblue" points="147,-158.083 150.5,-168.083 154,-158.083 147,-158.083"/>
</g>
<!-- Node12 -->
<g id="node8" class="node"><title>Node12</title>
<g id="a_node8"><a xlink:href="server_2src_2_processing_8cpp.html" target="_top" xlink:title="Обработка запросов">
<polygon fill="white" stroke="black" points="207.5,-112.5 207.5,-131.5 291.5,-131.5 291.5,-112.5 207.5,-112.5"/>
<text text-anchor="middle" x="249.5" y="-119.5" font-family="Helvetica,sans-Serif" font-size="10.00">Processing.cpp</text>
</a>
</g>
</g>
<!-- Node5&#45;&gt;Node12 -->
<g id="edge7" class="edge"><title>Node5&#45;&gt;Node12</title>
<path fill="none" stroke="midnightblue" d="M175.337,-163.453C193.614,-153.483 217.916,-140.228 233.633,-131.655"/>
<polygon fill="midnightblue" stroke="midnightblue" points="173.509,-160.463 166.406,-168.324 176.861,-166.608 173.509,-160.463"/>
</g>
<!-- Node8 -->
<g id="node4" class="node"><title>Node8</title>
<g id="a_node4"><a xlink:href="server_2src_2_server_8h.html" target="_top" xlink:title="Асинхронный сервер написанный на boost asio.">
<polygon fill="white" stroke="black" points="80.5,-56.5 80.5,-75.5 132.5,-75.5 132.5,-56.5 80.5,-56.5"/>
<text text-anchor="middle" x="106.5" y="-63.5" font-family="Helvetica,sans-Serif" font-size="10.00">Server.h</text>
</a>
</g>
</g>
<!-- Node7&#45;&gt;Node8 -->
<g id="edge3" class="edge"><title>Node7&#45;&gt;Node8</title>
<path fill="none" stroke="midnightblue" d="M136.765,-104.144C129.099,-94.7357 119.867,-83.4046 113.631,-75.7511"/>
<polygon fill="midnightblue" stroke="midnightblue" points="134.204,-106.541 143.234,-112.083 139.631,-102.12 134.204,-106.541"/>
</g>
<!-- Node11 -->
<g id="node7" class="node"><title>Node11</title>
<g id="a_node7"><a xlink:href="server_2src_2con__handler_8cpp.html" target="_top" xlink:title="handler">
<polygon fill="white" stroke="black" points="150.5,-56.5 150.5,-75.5 238.5,-75.5 238.5,-56.5 150.5,-56.5"/>
<text text-anchor="middle" x="194.5" y="-63.5" font-family="Helvetica,sans-Serif" font-size="10.00">con_handler.cpp</text>
</a>
</g>
</g>
<!-- Node7&#45;&gt;Node11 -->
<g id="edge6" class="edge"><title>Node7&#45;&gt;Node11</title>
<path fill="none" stroke="midnightblue" d="M164.235,-104.144C171.901,-94.7357 181.133,-83.4046 187.369,-75.7511"/>
<polygon fill="midnightblue" stroke="midnightblue" points="161.369,-102.12 157.766,-112.083 166.796,-106.541 161.369,-102.12"/>
</g>
<!-- Node9 -->
<g id="node5" class="node"><title>Node9</title>
<g id="a_node5"><a xlink:href="server_2src_2_battleship_royale_8cpp.html" target="_top" xlink:title="Сервер">
<polygon fill="white" stroke="black" points="0,-0.5 0,-19.5 109,-19.5 109,-0.5 0,-0.5"/>
<text text-anchor="middle" x="54.5" y="-7.5" font-family="Helvetica,sans-Serif" font-size="10.00">BattleshipRoyale.cpp</text>
</a>
</g>
</g>
<!-- Node8&#45;&gt;Node9 -->
<g id="edge4" class="edge"><title>Node8&#45;&gt;Node9</title>
<path fill="none" stroke="midnightblue" d="M90.8206,-48.7175C81.6553,-39.1997 70.4474,-27.5608 62.927,-19.7511"/>
<polygon fill="midnightblue" stroke="midnightblue" points="88.4557,-51.3075 97.9133,-56.083 93.4979,-46.452 88.4557,-51.3075"/>
</g>
<!-- Node10 -->
<g id="node6" class="node"><title>Node10</title>
<g id="a_node6"><a xlink:href="server_2src_2_server_8cpp.html" target="_top" xlink:title="Асинхронный сервер написанный на boost asio.">
<polygon fill="white" stroke="black" points="127.5,-0.5 127.5,-19.5 189.5,-19.5 189.5,-0.5 127.5,-0.5"/>
<text text-anchor="middle" x="158.5" y="-7.5" font-family="Helvetica,sans-Serif" font-size="10.00">Server.cpp</text>
</a>
</g>
</g>
<!-- Node8&#45;&gt;Node10 -->
<g id="edge5" class="edge"><title>Node8&#45;&gt;Node10</title>
<path fill="none" stroke="midnightblue" d="M122.179,-48.7175C131.345,-39.1997 142.553,-27.5608 150.073,-19.7511"/>
<polygon fill="midnightblue" stroke="midnightblue" points="119.502,-46.452 115.087,-56.083 124.544,-51.3075 119.502,-46.452"/>
</g>
</g>
</svg>
