<?xml version="1.0" encoding="UTF-8" standalone="no"?>
<!DOCTYPE svg PUBLIC "-//W3C//DTD SVG 1.1//EN"
 "http://www.w3.org/Graphics/SVG/1.1/DTD/svg11.dtd">
<!-- Generated by graphviz version 2.38.0 (20140413.2041)
 -->
<!-- Title: src/server/src/Processing.h Pages: 1 -->
<svg width="430pt" height="229pt"
 viewBox="0.00 0.00 430.00 229.00" xmlns="http://www.w3.org/2000/svg" xmlns:xlink="http://www.w3.org/1999/xlink">
<g id="graph0" class="graph" transform="scale(1 1) rotate(0) translate(4 225)">
<title>src/server/src/Processing.h</title>
<polygon fill="white" stroke="none" points="-4,4 -4,-225 426,-225 426,4 -4,4"/>
<!-- Node6 -->
<g id="node1" class="node"><title>Node6</title>
<g id="a_node1"><a xlink:title="Обработка запросов">
<polygon fill="#bfbfbf" stroke="black" points="143.5,-201.5 143.5,-220.5 278.5,-220.5 278.5,-201.5 143.5,-201.5"/>
<text text-anchor="middle" x="211" y="-208.5" font-family="Helvetica,sans-Serif" font-size="10.00">src/server/src/Processing.h</text>
</a>
</g>
</g>
<!-- Node7 -->
<g id="node2" class="node"><title>Node7</title>
<g id="a_node2"><a xlink:href="examples_2_processing_8cpp.html" target="_top" xlink:title=" ">
<polygon fill="white" stroke="black" points="0,-140 0,-159 146,-159 146,-140 0,-140"/>
<text text-anchor="middle" x="73" y="-147" font-family="Helvetica,sans-Serif" font-size="10.00">src/examples/Processing.cpp</text>
</a>
</g>
</g>
<!-- Node6&#45;&gt;Node7 -->
<g id="edge1" class="edge"><title>Node6&#45;&gt;Node7</title>
<path fill="none" stroke="midnightblue" d="M181.961,-197.48C155.159,-185.924 116.083,-169.076 92.7354,-159.009"/>
<polygon fill="midnightblue" stroke="midnightblue" points="180.659,-200.73 191.228,-201.475 183.431,-194.302 180.659,-200.73"/>
</g>
<!-- Node8 -->
<g id="node3" class="node"><title>Node8</title>
<g id="a_node3"><a xlink:href="server_2src_2con__handler_8h.html" target="_top" xlink:title="handler">
<polygon fill="white" stroke="black" points="164,-134.5 164,-164.5 258,-164.5 258,-134.5 164,-134.5"/>
<text text-anchor="start" x="172" y="-152.5" font-family="Helvetica,sans-Serif" font-size="10.00">src/server/src/con</text>
<text text-anchor="middle" x="211" y="-141.5" font-family="Helvetica,sans-Serif" font-size="10.00">_handler.h</text>
</a>
</g>
</g>
<!-- Node6&#45;&gt;Node8 -->
<g id="edge2" class="edge"><title>Node6&#45;&gt;Node8</title>
<path fill="none" stroke="midnightblue" d="M211,-191.235C211,-182.586 211,-172.497 211,-164.523"/>
<polygon fill="midnightblue" stroke="midnightblue" points="207.5,-191.475 211,-201.475 214.5,-191.475 207.5,-191.475"/>
</g>
<!-- Node13 -->
<g id="node8" class="node"><title>Node13</title>
<g id="a_node8"><a xlink:href="server_2src_2_processing_8cpp.html" target="_top" xlink:title="Обработка запросов">
<polygon fill="white" stroke="black" points="276,-140 276,-159 422,-159 422,-140 276,-140"/>
<text text-anchor="middle" x="349" y="-147" font-family="Helvetica,sans-Serif" font-size="10.00">src/server/src/Processing.cpp</text>
</a>
</g>
</g>
<!-- Node6&#45;&gt;Node13 -->
<g id="edge7" class="edge"><title>Node6&#45;&gt;Node13</title>
<path fill="none" stroke="midnightblue" d="M240.039,-197.48C266.841,-185.924 305.917,-169.076 329.265,-159.009"/>
<polygon fill="midnightblue" stroke="midnightblue" points="238.569,-194.302 230.772,-201.475 241.341,-200.73 238.569,-194.302"/>
</g>
<!-- Node9 -->
<g id="node4" class="node"><title>Node9</title>
<g id="a_node4"><a xlink:href="server_2src_2_server_8h.html" target="_top" xlink:title="Асинхронный сервер написанный на boost asio.">
<polygon fill="white" stroke="black" points="93.5,-73 93.5,-92 206.5,-92 206.5,-73 93.5,-73"/>
<text text-anchor="middle" x="150" y="-80" font-family="Helvetica,sans-Serif" font-size="10.00">src/server/src/Server.h</text>
</a>
</g>
</g>
<!-- Node8&#45;&gt;Node9 -->
<g id="edge3" class="edge"><title>Node8&#45;&gt;Node9</title>
<path fill="none" stroke="midnightblue" d="M190.82,-126.997C179.686,-115.132 166.471,-101.052 158.159,-92.1945"/>
<polygon fill="midnightblue" stroke="midnightblue" points="188.369,-129.499 197.764,-134.396 193.473,-124.709 188.369,-129.499"/>
</g>
<!-- Node12 -->
<g id="node7" class="node"><title>Node12</title>
<g id="a_node7"><a xlink:href="server_2src_2con__handler_8cpp.html" target="_top" xlink:title="handler">
<polygon fill="white" stroke="black" points="225,-67.5 225,-97.5 319,-97.5 319,-67.5 225,-67.5"/>
<text text-anchor="start" x="233" y="-85.5" font-family="Helvetica,sans-Serif" font-size="10.00">src/server/src/con</text>
<text text-anchor="middle" x="272" y="-74.5" font-family="Helvetica,sans-Serif" font-size="10.00">_handler.cpp</text>
</a>
</g>
</g>
<!-- Node8&#45;&gt;Node12 -->
<g id="edge6" class="edge"><title>Node8&#45;&gt;Node12</title>
<path fill="none" stroke="midnightblue" d="M231.154,-127.024C240.243,-117.34 250.721,-106.174 258.79,-97.5765"/>
<polygon fill="midnightblue" stroke="midnightblue" points="228.527,-124.709 224.236,-134.396 233.631,-129.499 228.527,-124.709"/>
</g>
<!-- Node10 -->
<g id="node5" class="node"><title>Node10</title>
<g id="a_node5"><a xlink:href="server_2src_2_battleship_royale_8cpp.html" target="_top" xlink:title="Сервер">
<polygon fill="white" stroke="black" points="19,-0.5 19,-30.5 141,-30.5 141,-0.5 19,-0.5"/>
<text text-anchor="start" x="27" y="-18.5" font-family="Helvetica,sans-Serif" font-size="10.00">src/server/src/Battleship</text>
<text text-anchor="middle" x="80" y="-7.5" font-family="Helvetica,sans-Serif" font-size="10.00">Royale.cpp</text>
</a>
</g>
</g>
<!-- Node9&#45;&gt;Node10 -->
<g id="edge4" class="edge"><title>Node9&#45;&gt;Node10</title>
<path fill="none" stroke="midnightblue" d="M133.23,-65.928C121.654,-55.1788 106.387,-41.0024 95.1728,-30.589"/>
<polygon fill="midnightblue" stroke="midnightblue" points="130.85,-68.4941 140.559,-72.7338 135.613,-63.3645 130.85,-68.4941"/>
</g>
<!-- Node11 -->
<g id="node6" class="node"><title>Node11</title>
<g id="a_node6"><a xlink:href="server_2src_2_server_8cpp.html" target="_top" xlink:title="Асинхронный сервер написанный на boost asio.">
<polygon fill="white" stroke="black" points="159,-6 159,-25 283,-25 283,-6 159,-6"/>
<text text-anchor="middle" x="221" y="-13" font-family="Helvetica,sans-Serif" font-size="10.00">src/server/src/Server.cpp</text>
</a>
</g>
</g>
<!-- Node9&#45;&gt;Node11 -->
<g id="edge5" class="edge"><title>Node9&#45;&gt;Node11</title>
<path fill="none" stroke="midnightblue" d="M167.088,-65.8564C181.046,-53.0777 200.255,-35.4915 211.576,-25.1273"/>
<polygon fill="midnightblue" stroke="midnightblue" points="164.588,-63.3997 159.575,-72.7338 169.315,-68.5628 164.588,-63.3997"/>
</g>
</g>
</svg>
