<?xml version="1.0" encoding="UTF-8" standalone="no"?>
<!DOCTYPE svg PUBLIC "-//W3C//DTD SVG 1.1//EN"
 "http://www.w3.org/Graphics/SVG/1.1/DTD/svg11.dtd">
<!-- Generated by graphviz version 2.38.0 (20140413.2041)
 -->
<!-- Title: src/server/src/Processing.h Pages: 1 -->
<svg width="483pt" height="229pt"
 viewBox="0.00 0.00 483.00 229.00" xmlns="http://www.w3.org/2000/svg" xmlns:xlink="http://www.w3.org/1999/xlink">
<g id="graph0" class="graph" transform="scale(1 1) rotate(0) translate(4 225)">
<title>src/server/src/Processing.h</title>
<polygon fill="white" stroke="none" points="-4,4 -4,-225 479,-225 479,4 -4,4"/>
<!-- Node11 -->
<g id="node1" class="node"><title>Node11</title>
<g id="a_node1"><a xlink:title="Обработка запросов">
<polygon fill="#bfbfbf" stroke="black" points="196.5,-201.5 196.5,-220.5 331.5,-220.5 331.5,-201.5 196.5,-201.5"/>
<text text-anchor="middle" x="264" y="-208.5" font-family="Helvetica,sans-Serif" font-size="10.00">src/server/src/Processing.h</text>
</a>
</g>
</g>
<!-- Node12 -->
<g id="node2" class="node"><title>Node12</title>
<g id="a_node2"><a xlink:href="examples_2_processing_8cpp.html" target="_top" xlink:title=" ">
<polygon fill="white" stroke="black" points="53,-140 53,-159 199,-159 199,-140 53,-140"/>
<text text-anchor="middle" x="126" y="-147" font-family="Helvetica,sans-Serif" font-size="10.00">src/examples/Processing.cpp</text>
</a>
</g>
</g>
<!-- Node11&#45;&gt;Node12 -->
<g id="edge1" class="edge"><title>Node11&#45;&gt;Node12</title>
<path fill="none" stroke="midnightblue" d="M234.961,-197.48C208.159,-185.924 169.083,-169.076 145.735,-159.009"/>
<polygon fill="midnightblue" stroke="midnightblue" points="233.659,-200.73 244.228,-201.475 236.431,-194.302 233.659,-200.73"/>
</g>
<!-- Node13 -->
<g id="node3" class="node"><title>Node13</title>
<g id="a_node3"><a xlink:href="server_2src_2con__handler_8h.html" target="_top" xlink:title="handler">
<polygon fill="white" stroke="black" points="217,-134.5 217,-164.5 311,-164.5 311,-134.5 217,-134.5"/>
<text text-anchor="start" x="225" y="-152.5" font-family="Helvetica,sans-Serif" font-size="10.00">src/server/src/con</text>
<text text-anchor="middle" x="264" y="-141.5" font-family="Helvetica,sans-Serif" font-size="10.00">_handler.h</text>
</a>
</g>
</g>
<!-- Node11&#45;&gt;Node13 -->
<g id="edge2" class="edge"><title>Node11&#45;&gt;Node13</title>
<path fill="none" stroke="midnightblue" d="M264,-191.235C264,-182.586 264,-172.497 264,-164.523"/>
<polygon fill="midnightblue" stroke="midnightblue" points="260.5,-191.475 264,-201.475 267.5,-191.475 260.5,-191.475"/>
</g>
<!-- Node19 -->
<g id="node9" class="node"><title>Node19</title>
<g id="a_node9"><a xlink:href="server_2src_2_processing_8cpp.html" target="_top" xlink:title="Обработка запросов">
<polygon fill="white" stroke="black" points="329,-140 329,-159 475,-159 475,-140 329,-140"/>
<text text-anchor="middle" x="402" y="-147" font-family="Helvetica,sans-Serif" font-size="10.00">src/server/src/Processing.cpp</text>
</a>
</g>
</g>
<!-- Node11&#45;&gt;Node19 -->
<g id="edge8" class="edge"><title>Node11&#45;&gt;Node19</title>
<path fill="none" stroke="midnightblue" d="M293.039,-197.48C319.841,-185.924 358.917,-169.076 382.265,-159.009"/>
<polygon fill="midnightblue" stroke="midnightblue" points="291.569,-194.302 283.772,-201.475 294.341,-200.73 291.569,-194.302"/>
</g>
<!-- Node14 -->
<g id="node4" class="node"><title>Node14</title>
<g id="a_node4"><a xlink:href="server_2src_2_server_8h.html" target="_top" xlink:title="Асинхронный сервер написанный на boost asio.">
<polygon fill="white" stroke="black" points="146.5,-73 146.5,-92 259.5,-92 259.5,-73 146.5,-73"/>
<text text-anchor="middle" x="203" y="-80" font-family="Helvetica,sans-Serif" font-size="10.00">src/server/src/Server.h</text>
</a>
</g>
</g>
<!-- Node13&#45;&gt;Node14 -->
<g id="edge3" class="edge"><title>Node13&#45;&gt;Node14</title>
<path fill="none" stroke="midnightblue" d="M243.82,-126.997C232.686,-115.132 219.471,-101.052 211.159,-92.1945"/>
<polygon fill="midnightblue" stroke="midnightblue" points="241.369,-129.499 250.764,-134.396 246.473,-124.709 241.369,-129.499"/>
</g>
<!-- Node18 -->
<g id="node8" class="node"><title>Node18</title>
<g id="a_node8"><a xlink:href="server_2src_2con__handler_8cpp.html" target="_top" xlink:title="handler">
<polygon fill="white" stroke="black" points="278,-67.5 278,-97.5 372,-97.5 372,-67.5 278,-67.5"/>
<text text-anchor="start" x="286" y="-85.5" font-family="Helvetica,sans-Serif" font-size="10.00">src/server/src/con</text>
<text text-anchor="middle" x="325" y="-74.5" font-family="Helvetica,sans-Serif" font-size="10.00">_handler.cpp</text>
</a>
</g>
</g>
<!-- Node13&#45;&gt;Node18 -->
<g id="edge7" class="edge"><title>Node13&#45;&gt;Node18</title>
<path fill="none" stroke="midnightblue" d="M284.154,-127.024C293.243,-117.34 303.721,-106.174 311.79,-97.5765"/>
<polygon fill="midnightblue" stroke="midnightblue" points="281.527,-124.709 277.236,-134.396 286.631,-129.499 281.527,-124.709"/>
</g>
<!-- Node15 -->
<g id="node5" class="node"><title>Node15</title>
<g id="a_node5"><a xlink:href="examples_2_server_8cpp.html" target="_top" xlink:title=" ">
<polygon fill="white" stroke="black" points="0,-6 0,-25 124,-25 124,-6 0,-6"/>
<text text-anchor="middle" x="62" y="-13" font-family="Helvetica,sans-Serif" font-size="10.00">src/examples/Server.cpp</text>
</a>
</g>
</g>
<!-- Node14&#45;&gt;Node15 -->
<g id="edge4" class="edge"><title>Node14&#45;&gt;Node15</title>
<path fill="none" stroke="midnightblue" d="M175.044,-68.6127C147.118,-55.7387 104.964,-36.3059 80.8012,-25.1672"/>
<polygon fill="midnightblue" stroke="midnightblue" points="173.73,-71.8605 184.276,-72.8685 176.66,-65.5034 173.73,-71.8605"/>
</g>
<!-- Node16 -->
<g id="node6" class="node"><title>Node16</title>
<g id="a_node6"><a xlink:href="server_2src_2_battleship_royale_8cpp.html" target="_top" xlink:title="Сервер">
<polygon fill="white" stroke="black" points="142,-0.5 142,-30.5 264,-30.5 264,-0.5 142,-0.5"/>
<text text-anchor="start" x="150" y="-18.5" font-family="Helvetica,sans-Serif" font-size="10.00">src/server/src/Battleship</text>
<text text-anchor="middle" x="203" y="-7.5" font-family="Helvetica,sans-Serif" font-size="10.00">Royale.cpp</text>
</a>
</g>
</g>
<!-- Node14&#45;&gt;Node16 -->
<g id="edge5" class="edge"><title>Node14&#45;&gt;Node16</title>
<path fill="none" stroke="midnightblue" d="M203,-62.4107C203,-52.222 203,-39.901 203,-30.589"/>
<polygon fill="midnightblue" stroke="midnightblue" points="199.5,-62.7338 203,-72.7338 206.5,-62.7338 199.5,-62.7338"/>
</g>
<!-- Node17 -->
<g id="node7" class="node"><title>Node17</title>
<g id="a_node7"><a xlink:href="server_2src_2_server_8cpp.html" target="_top" xlink:title="Асинхронный сервер написанный на boost asio.">
<polygon fill="white" stroke="black" points="282,-6 282,-25 406,-25 406,-6 282,-6"/>
<text text-anchor="middle" x="344" y="-13" font-family="Helvetica,sans-Serif" font-size="10.00">src/server/src/Server.cpp</text>
</a>
</g>
</g>
<!-- Node14&#45;&gt;Node17 -->
<g id="edge6" class="edge"><title>Node14&#45;&gt;Node17</title>
<path fill="none" stroke="midnightblue" d="M230.956,-68.6127C258.882,-55.7387 301.036,-36.3059 325.199,-25.1672"/>
<polygon fill="midnightblue" stroke="midnightblue" points="229.34,-65.5034 221.724,-72.8685 232.27,-71.8605 229.34,-65.5034"/>
</g>
</g>
</svg>
