<?xml version="1.0" encoding="UTF-8" standalone="no"?>
<!DOCTYPE svg PUBLIC "-//W3C//DTD SVG 1.1//EN"
 "http://www.w3.org/Graphics/SVG/1.1/DTD/svg11.dtd">
<!-- Generated by graphviz version 2.38.0 (20140413.2041)
 -->
<!-- Title: src/server/src/Processing.h Pages: 1 -->
<svg width="814pt" height="196pt"
 viewBox="0.00 0.00 813.50 196.00" xmlns="http://www.w3.org/2000/svg" xmlns:xlink="http://www.w3.org/1999/xlink">
<g id="graph0" class="graph" transform="scale(1 1) rotate(0) translate(4 192)">
<title>src/server/src/Processing.h</title>
<polygon fill="white" stroke="none" points="-4,4 -4,-192 809.5,-192 809.5,4 -4,4"/>
<!-- Node0 -->
<g id="node1" class="node"><title>Node0</title>
<g id="a_node1"><a xlink:title="Обработка запросов">
<polygon fill="#bfbfbf" stroke="black" points="20,-168.5 20,-187.5 155,-187.5 155,-168.5 20,-168.5"/>
<text text-anchor="middle" x="87.5" y="-175.5" font-family="Helvetica,sans-Serif" font-size="10.00">src/server/src/Processing.h</text>
</a>
</g>
</g>
<!-- Node1 -->
<g id="node2" class="node"><title>Node1</title>
<g id="a_node2"><a xlink:href="server_2src_2_mini_d_b_8h.html" target="_top" xlink:title="Облегчённый класс для работы с бд">
<polygon fill="white" stroke="black" points="101.5,-112.5 101.5,-131.5 157.5,-131.5 157.5,-112.5 101.5,-112.5"/>
<text text-anchor="middle" x="129.5" y="-119.5" font-family="Helvetica,sans-Serif" font-size="10.00">MiniDB.h</text>
</a>
</g>
</g>
<!-- Node0&#45;&gt;Node1 -->
<g id="edge1" class="edge"><title>Node0&#45;&gt;Node1</title>
<path fill="none" stroke="midnightblue" d="M94.4354,-168.083C100.429,-160.377 109.252,-149.033 116.548,-139.653"/>
<polygon fill="midnightblue" stroke="midnightblue" points="119.317,-141.793 122.694,-131.751 113.791,-137.496 119.317,-141.793"/>
</g>
<!-- Node10 -->
<g id="node11" class="node"><title>Node10</title>
<g id="a_node11"><a xlink:href="_mem_d_buid_8h.html" target="_top" xlink:title="Облегчённый класс для работы с бд в памяти">
<polygon fill="white" stroke="black" points="10,-112.5 10,-131.5 83,-131.5 83,-112.5 10,-112.5"/>
<text text-anchor="middle" x="46.5" y="-119.5" font-family="Helvetica,sans-Serif" font-size="10.00">MemDBuid.h</text>
</a>
</g>
</g>
<!-- Node0&#45;&gt;Node10 -->
<g id="edge11" class="edge"><title>Node0&#45;&gt;Node10</title>
<path fill="none" stroke="midnightblue" d="M80.7297,-168.083C74.9384,-160.455 66.4415,-149.264 59.3625,-139.941"/>
<polygon fill="midnightblue" stroke="midnightblue" points="61.979,-137.599 53.1443,-131.751 56.4039,-141.832 61.979,-137.599"/>
</g>
<!-- Node2 -->
<g id="node3" class="node"><title>Node2</title>
<g id="a_node3"><a xlink:title=" ">
<polygon fill="white" stroke="#bfbfbf" points="34,-56.5 34,-75.5 75,-75.5 75,-56.5 34,-56.5"/>
<text text-anchor="middle" x="54.5" y="-63.5" font-family="Helvetica,sans-Serif" font-size="10.00">string</text>
</a>
</g>
</g>
<!-- Node1&#45;&gt;Node2 -->
<g id="edge2" class="edge"><title>Node1&#45;&gt;Node2</title>
<path fill="none" stroke="midnightblue" d="M117.45,-112.324C106.037,-104.107 88.669,-91.6017 75.0651,-81.8069"/>
<polygon fill="midnightblue" stroke="midnightblue" points="76.9297,-78.8366 66.7693,-75.8339 72.8396,-84.5174 76.9297,-78.8366"/>
</g>
<!-- Node3 -->
<g id="node4" class="node"><title>Node3</title>
<g id="a_node4"><a xlink:href="sqlite3_8h.html" target="_top" xlink:title="Константы для работы с базой данных sqlite3.">
<polygon fill="white" stroke="black" points="0,-0.5 0,-19.5 53,-19.5 53,-0.5 0,-0.5"/>
<text text-anchor="middle" x="26.5" y="-7.5" font-family="Helvetica,sans-Serif" font-size="10.00">sqlite3.h</text>
</a>
</g>
</g>
<!-- Node1&#45;&gt;Node3 -->
<g id="edge3" class="edge"><title>Node1&#45;&gt;Node3</title>
<path fill="none" stroke="midnightblue" d="M124.533,-112.421C116.763,-99.4048 100.819,-74.2517 83.5,-56 72.8173,-44.7421 59.2293,-33.9065 47.9998,-25.6899"/>
<polygon fill="midnightblue" stroke="midnightblue" points="49.7751,-22.6572 39.6002,-19.7038 45.7125,-28.3577 49.7751,-22.6572"/>
</g>
<!-- Node4 -->
<g id="node5" class="node"><title>Node4</title>
<g id="a_node5"><a xlink:href="_battleship_royale_8h.html" target="_top" xlink:title="Заголовочный файл с пространством имён, которое хранит в себе константы.">
<polygon fill="white" stroke="black" points="243.5,-56.5 243.5,-75.5 341.5,-75.5 341.5,-56.5 243.5,-56.5"/>
<text text-anchor="middle" x="292.5" y="-63.5" font-family="Helvetica,sans-Serif" font-size="10.00">BattleshipRoyale.h</text>
</a>
</g>
</g>
<!-- Node1&#45;&gt;Node4 -->
<g id="edge4" class="edge"><title>Node1&#45;&gt;Node4</title>
<path fill="none" stroke="midnightblue" d="M155.328,-112.444C182.749,-103.359 226.277,-88.9388 256.932,-78.7831"/>
<polygon fill="midnightblue" stroke="midnightblue" points="258.401,-81.9837 266.793,-75.5164 256.2,-75.3389 258.401,-81.9837"/>
</g>
<!-- Node4&#45;&gt;Node3 -->
<g id="edge7" class="edge"><title>Node4&#45;&gt;Node3</title>
<path fill="none" stroke="midnightblue" d="M245.218,-56.4893C200.8,-48.3282 132.249,-35.309 63.363,-20.0982"/>
<polygon fill="midnightblue" stroke="midnightblue" points="63.7212,-16.5924 53.1999,-17.8383 62.2018,-23.4255 63.7212,-16.5924"/>
</g>
<!-- Node5 -->
<g id="node6" class="node"><title>Node5</title>
<g id="a_node6"><a xlink:href="_version_8h.html" target="_top" xlink:title="Версия программы">
<polygon fill="white" stroke="black" points="71.5,-0.5 71.5,-19.5 205.5,-19.5 205.5,-0.5 71.5,-0.5"/>
<text text-anchor="middle" x="138.5" y="-7.5" font-family="Helvetica,sans-Serif" font-size="10.00">BattleshipRoyale/Version.h</text>
</a>
</g>
</g>
<!-- Node4&#45;&gt;Node5 -->
<g id="edge5" class="edge"><title>Node4&#45;&gt;Node5</title>
<path fill="none" stroke="midnightblue" d="M268.098,-56.4435C242.303,-47.3986 201.423,-33.064 172.482,-22.9158"/>
<polygon fill="midnightblue" stroke="midnightblue" points="173.382,-19.5226 162.788,-19.5164 171.066,-26.1283 173.382,-19.5226"/>
</g>
<!-- Node6 -->
<g id="node7" class="node"><title>Node6</title>
<g id="a_node7"><a xlink:href="_connect_8h.html" target="_top" xlink:title="Константы с параметрами для подключения">
<polygon fill="white" stroke="black" points="224,-0.5 224,-19.5 361,-19.5 361,-0.5 224,-0.5"/>
<text text-anchor="middle" x="292.5" y="-7.5" font-family="Helvetica,sans-Serif" font-size="10.00">BattleshipRoyale/Connect.h</text>
</a>
</g>
</g>
<!-- Node4&#45;&gt;Node6 -->
<g id="edge6" class="edge"><title>Node4&#45;&gt;Node6</title>
<path fill="none" stroke="midnightblue" d="M292.5,-56.083C292.5,-49.0059 292.5,-38.8611 292.5,-29.9865"/>
<polygon fill="midnightblue" stroke="midnightblue" points="296,-29.751 292.5,-19.7511 289,-29.7511 296,-29.751"/>
</g>
<!-- Node7 -->
<g id="node8" class="node"><title>Node7</title>
<g id="a_node8"><a xlink:href="_battleship_royale_2_battleship_royale_2_console_8h.html" target="_top" xlink:title="Константы консоли">
<polygon fill="white" stroke="black" points="379,-0.5 379,-19.5 516,-19.5 516,-0.5 379,-0.5"/>
<text text-anchor="middle" x="447.5" y="-7.5" font-family="Helvetica,sans-Serif" font-size="10.00">BattleshipRoyale/Console.h</text>
</a>
</g>
</g>
<!-- Node4&#45;&gt;Node7 -->
<g id="edge8" class="edge"><title>Node4&#45;&gt;Node7</title>
<path fill="none" stroke="midnightblue" d="M317.06,-56.4435C343.023,-47.3986 384.168,-33.064 413.297,-22.9158"/>
<polygon fill="midnightblue" stroke="midnightblue" points="414.763,-26.1116 423.055,-19.5164 412.46,-19.5013 414.763,-26.1116"/>
</g>
<!-- Node8 -->
<g id="node9" class="node"><title>Node8</title>
<g id="a_node9"><a xlink:href="_battleship_royale_2_battleship_royale_2_regex_8h.html" target="_top" xlink:title="Константы регулярных выражений">
<polygon fill="white" stroke="black" points="534,-0.5 534,-19.5 663,-19.5 663,-0.5 534,-0.5"/>
<text text-anchor="middle" x="598.5" y="-7.5" font-family="Helvetica,sans-Serif" font-size="10.00">BattleshipRoyale/Regex.h</text>
</a>
</g>
</g>
<!-- Node4&#45;&gt;Node8 -->
<g id="edge9" class="edge"><title>Node4&#45;&gt;Node8</title>
<path fill="none" stroke="midnightblue" d="M340.987,-56.4435C395.039,-46.9049 482.428,-31.4834 540.173,-21.293"/>
<polygon fill="midnightblue" stroke="midnightblue" points="541.001,-24.7011 550.24,-19.5164 539.784,-17.8076 541.001,-24.7011"/>
</g>
<!-- Node9 -->
<g id="node10" class="node"><title>Node9</title>
<g id="a_node10"><a xlink:href="_code_8h.html" target="_top" xlink:title="Различные коды ответов">
<polygon fill="white" stroke="black" points="681.5,-0.5 681.5,-19.5 805.5,-19.5 805.5,-0.5 681.5,-0.5"/>
<text text-anchor="middle" x="743.5" y="-7.5" font-family="Helvetica,sans-Serif" font-size="10.00">BattleshipRoyale/Code.h</text>
</a>
</g>
</g>
<!-- Node4&#45;&gt;Node9 -->
<g id="edge10" class="edge"><title>Node4&#45;&gt;Node9</title>
<path fill="none" stroke="midnightblue" d="M341.706,-59.3038C412.25,-51.1084 546.491,-35.4062 671.067,-20.1678"/>
<polygon fill="midnightblue" stroke="midnightblue" points="671.665,-23.6208 681.166,-18.931 670.814,-16.6727 671.665,-23.6208"/>
</g>
<!-- Node10&#45;&gt;Node2 -->
<g id="edge12" class="edge"><title>Node10&#45;&gt;Node2</title>
<path fill="none" stroke="midnightblue" d="M47.821,-112.083C48.8811,-104.927 50.4059,-94.6353 51.7309,-85.6911"/>
<polygon fill="midnightblue" stroke="midnightblue" points="55.2002,-86.1561 53.2035,-75.7511 48.2758,-85.1302 55.2002,-86.1561"/>
</g>
</g>
</svg>
