<?xml version="1.0" encoding="UTF-8" standalone="no"?>
<!DOCTYPE svg PUBLIC "-//W3C//DTD SVG 1.1//EN"
 "http://www.w3.org/Graphics/SVG/1.1/DTD/svg11.dtd">
<!-- Generated by graphviz version 2.38.0 (20140413.2041)
 -->
<!-- Title: Regex.h Pages: 1 -->
<svg width="382pt" height="84pt"
 viewBox="0.00 0.00 382.00 84.00" xmlns="http://www.w3.org/2000/svg" xmlns:xlink="http://www.w3.org/1999/xlink">
<g id="graph0" class="graph" transform="scale(1 1) rotate(0) translate(4 80)">
<title>Regex.h</title>
<polygon fill="white" stroke="none" points="-4,4 -4,-80 378,-80 378,4 -4,4"/>
<!-- Node2 -->
<g id="node1" class="node"><title>Node2</title>
<g id="a_node1"><a xlink:title="Работа с регулярными выражениями">
<polygon fill="#bfbfbf" stroke="black" points="166,-56.5 166,-75.5 219,-75.5 219,-56.5 166,-56.5"/>
<text text-anchor="middle" x="192.5" y="-63.5" font-family="Helvetica,sans-Serif" font-size="10.00">Regex.h</text>
</a>
</g>
</g>
<!-- Node3 -->
<g id="node2" class="node"><title>Node3</title>
<g id="a_node2"><a xlink:href="examples_2_regex_8cpp.html" target="_top" xlink:title=" ">
<polygon fill="white" stroke="black" points="0,-0.5 0,-19.5 63,-19.5 63,-0.5 0,-0.5"/>
<text text-anchor="middle" x="31.5" y="-7.5" font-family="Helvetica,sans-Serif" font-size="10.00">Regex.cpp</text>
</a>
</g>
</g>
<!-- Node2&#45;&gt;Node3 -->
<g id="edge1" class="edge"><title>Node2&#45;&gt;Node3</title>
<path fill="none" stroke="midnightblue" d="M157.235,-53.172C126.919,-43.0039 83.9298,-28.5852 56.8916,-19.5164"/>
<polygon fill="midnightblue" stroke="midnightblue" points="156.395,-56.5819 166.989,-56.4435 158.621,-49.9452 156.395,-56.5819"/>
</g>
<!-- Node4 -->
<g id="node3" class="node"><title>Node4</title>
<g id="a_node3"><a xlink:href="server_2src_2_battleship_royale_8cpp.html" target="_top" xlink:title="Сервер">
<polygon fill="white" stroke="black" points="81,-0.5 81,-19.5 190,-19.5 190,-0.5 81,-0.5"/>
<text text-anchor="middle" x="135.5" y="-7.5" font-family="Helvetica,sans-Serif" font-size="10.00">BattleshipRoyale.cpp</text>
</a>
</g>
</g>
<!-- Node2&#45;&gt;Node4 -->
<g id="edge2" class="edge"><title>Node2&#45;&gt;Node4</title>
<path fill="none" stroke="midnightblue" d="M175.879,-49.2533C165.766,-39.6731 153.223,-27.7906 144.825,-19.8339"/>
<polygon fill="midnightblue" stroke="midnightblue" points="173.675,-51.9873 183.342,-56.324 178.49,-46.9056 173.675,-51.9873"/>
</g>
<!-- Node5 -->
<g id="node4" class="node"><title>Node5</title>
<g id="a_node4"><a xlink:href="server_2src_2_processing_8cpp.html" target="_top" xlink:title="Обработка запросов">
<polygon fill="white" stroke="black" points="208.5,-0.5 208.5,-19.5 292.5,-19.5 292.5,-0.5 208.5,-0.5"/>
<text text-anchor="middle" x="250.5" y="-7.5" font-family="Helvetica,sans-Serif" font-size="10.00">Processing.cpp</text>
</a>
</g>
</g>
<!-- Node2&#45;&gt;Node5 -->
<g id="edge3" class="edge"><title>Node2&#45;&gt;Node5</title>
<path fill="none" stroke="midnightblue" d="M209.413,-49.2533C219.703,-39.6731 232.466,-27.7906 241.012,-19.8339"/>
<polygon fill="midnightblue" stroke="midnightblue" points="206.753,-46.9481 201.819,-56.324 211.523,-52.0714 206.753,-46.9481"/>
</g>
<!-- Node6 -->
<g id="node5" class="node"><title>Node6</title>
<g id="a_node5"><a xlink:href="server_2src_2_regex_8cpp.html" target="_top" xlink:title="Работа с регулярными выражениями">
<polygon fill="white" stroke="black" points="311,-0.5 311,-19.5 374,-19.5 374,-0.5 311,-0.5"/>
<text text-anchor="middle" x="342.5" y="-7.5" font-family="Helvetica,sans-Serif" font-size="10.00">Regex.cpp</text>
</a>
</g>
</g>
<!-- Node2&#45;&gt;Node6 -->
<g id="edge4" class="edge"><title>Node2&#45;&gt;Node6</title>
<path fill="none" stroke="midnightblue" d="M225.725,-53.0392C253.948,-42.8786 293.762,-28.5457 318.843,-19.5164"/>
<polygon fill="midnightblue" stroke="midnightblue" points="224.491,-49.7632 216.268,-56.4435 226.862,-56.3494 224.491,-49.7632"/>
</g>
</g>
</svg>
