<?xml version="1.0" encoding="UTF-8" standalone="no"?>
<!DOCTYPE svg PUBLIC "-//W3C//DTD SVG 1.1//EN"
 "http://www.w3.org/Graphics/SVG/1.1/DTD/svg11.dtd">
<!-- Generated by graphviz version 2.38.0 (20140413.2041)
 -->
<!-- Title: src/server/src/Regex.h Pages: 1 -->
<svg width="581pt" height="95pt"
 viewBox="0.00 0.00 581.00 95.00" xmlns="http://www.w3.org/2000/svg" xmlns:xlink="http://www.w3.org/1999/xlink">
<g id="graph0" class="graph" transform="scale(1 1) rotate(0) translate(4 91)">
<title>src/server/src/Regex.h</title>
<polygon fill="white" stroke="none" points="-4,4 -4,-91 577,-91 577,4 -4,4"/>
<!-- Node2 -->
<g id="node1" class="node"><title>Node2</title>
<g id="a_node1"><a xlink:title="Работа с регулярными выражениями">
<polygon fill="#bfbfbf" stroke="black" points="223.5,-67.5 223.5,-86.5 337.5,-86.5 337.5,-67.5 223.5,-67.5"/>
<text text-anchor="middle" x="280.5" y="-74.5" font-family="Helvetica,sans-Serif" font-size="10.00">src/server/src/Regex.h</text>
</a>
</g>
</g>
<!-- Node3 -->
<g id="node2" class="node"><title>Node3</title>
<g id="a_node2"><a xlink:href="examples_2_regex_8cpp.html" target="_top" xlink:title=" ">
<polygon fill="white" stroke="black" points="0,-6 0,-25 125,-25 125,-6 0,-6"/>
<text text-anchor="middle" x="62.5" y="-13" font-family="Helvetica,sans-Serif" font-size="10.00">src/examples/Regex.cpp</text>
</a>
</g>
</g>
<!-- Node2&#45;&gt;Node3 -->
<g id="edge1" class="edge"><title>Node2&#45;&gt;Node3</title>
<path fill="none" stroke="midnightblue" d="M239.547,-64.8225C197.2,-53.2645 132.015,-35.4732 93.6761,-25.0091"/>
<polygon fill="midnightblue" stroke="midnightblue" points="238.697,-68.2185 249.266,-67.4751 240.54,-61.4655 238.697,-68.2185"/>
</g>
<!-- Node4 -->
<g id="node3" class="node"><title>Node4</title>
<g id="a_node3"><a xlink:href="server_2src_2_battleship_royale_8cpp.html" target="_top" xlink:title="Сервер">
<polygon fill="white" stroke="black" points="143.5,-0.5 143.5,-30.5 265.5,-30.5 265.5,-0.5 143.5,-0.5"/>
<text text-anchor="start" x="151.5" y="-18.5" font-family="Helvetica,sans-Serif" font-size="10.00">src/server/src/Battleship</text>
<text text-anchor="middle" x="204.5" y="-7.5" font-family="Helvetica,sans-Serif" font-size="10.00">Royale.cpp</text>
</a>
</g>
</g>
<!-- Node2&#45;&gt;Node4 -->
<g id="edge2" class="edge"><title>Node2&#45;&gt;Node4</title>
<path fill="none" stroke="midnightblue" d="M261.59,-61.1955C249.606,-51.8129 234.199,-39.7512 222.412,-30.523"/>
<polygon fill="midnightblue" stroke="midnightblue" points="259.579,-64.0665 269.611,-67.4751 263.895,-58.5547 259.579,-64.0665"/>
</g>
<!-- Node5 -->
<g id="node4" class="node"><title>Node5</title>
<g id="a_node4"><a xlink:href="server_2src_2_processing_8cpp.html" target="_top" xlink:title="Обработка запросов">
<polygon fill="white" stroke="black" points="283.5,-6 283.5,-25 429.5,-25 429.5,-6 283.5,-6"/>
<text text-anchor="middle" x="356.5" y="-13" font-family="Helvetica,sans-Serif" font-size="10.00">src/server/src/Processing.cpp</text>
</a>
</g>
</g>
<!-- Node2&#45;&gt;Node5 -->
<g id="edge3" class="edge"><title>Node2&#45;&gt;Node5</title>
<path fill="none" stroke="midnightblue" d="M299.284,-61.2938C313.863,-49.8803 333.562,-34.4577 345.631,-25.0091"/>
<polygon fill="midnightblue" stroke="midnightblue" points="297.105,-58.5547 291.389,-67.4751 301.421,-64.0665 297.105,-58.5547"/>
</g>
<!-- Node6 -->
<g id="node5" class="node"><title>Node6</title>
<g id="a_node5"><a xlink:href="server_2src_2_regex_8cpp.html" target="_top" xlink:title="Работа с регулярными выражениями">
<polygon fill="white" stroke="black" points="448,-6 448,-25 573,-25 573,-6 448,-6"/>
<text text-anchor="middle" x="510.5" y="-13" font-family="Helvetica,sans-Serif" font-size="10.00">src/server/src/Regex.cpp</text>
</a>
</g>
</g>
<!-- Node2&#45;&gt;Node6 -->
<g id="edge4" class="edge"><title>Node2&#45;&gt;Node6</title>
<path fill="none" stroke="midnightblue" d="M323.143,-64.9685C367.804,-53.4147 436.988,-35.5173 477.608,-25.0091"/>
<polygon fill="midnightblue" stroke="midnightblue" points="322.258,-61.5821 313.453,-67.4751 324.011,-68.359 322.258,-61.5821"/>
</g>
</g>
</svg>
