<?xml version="1.0" encoding="UTF-8" standalone="no"?>
<!DOCTYPE svg PUBLIC "-//W3C//DTD SVG 1.1//EN"
 "http://www.w3.org/Graphics/SVG/1.1/DTD/svg11.dtd">
<!-- Generated by graphviz version 2.38.0 (20140413.2041)
 -->
<!-- Title: src/client/src/test/SimultaneousConnections.h Pages: 1 -->
<svg width="288pt" height="162pt"
 viewBox="0.00 0.00 287.50 162.00" xmlns="http://www.w3.org/2000/svg" xmlns:xlink="http://www.w3.org/1999/xlink">
<g id="graph0" class="graph" transform="scale(1 1) rotate(0) translate(4 158)">
<title>src/client/src/test/SimultaneousConnections.h</title>
<polygon fill="white" stroke="none" points="-4,4 -4,-158 283.5,-158 283.5,4 -4,4"/>
<!-- Node2 -->
<g id="node1" class="node"><title>Node2</title>
<g id="a_node1"><a xlink:title=" ">
<polygon fill="#bfbfbf" stroke="black" points="60,-123.5 60,-153.5 201,-153.5 201,-123.5 60,-123.5"/>
<text text-anchor="start" x="68" y="-141.5" font-family="Helvetica,sans-Serif" font-size="10.00">src/client/src/test</text>
<text text-anchor="middle" x="130.5" y="-130.5" font-family="Helvetica,sans-Serif" font-size="10.00">/SimultaneousConnections.h</text>
</a>
</g>
</g>
<!-- Node3 -->
<g id="node2" class="node"><title>Node3</title>
<g id="a_node2"><a xlink:href="_test_8h.html" target="_top" xlink:title=" ">
<polygon fill="white" stroke="black" points="6,-62 6,-81 109,-81 109,-62 6,-62"/>
<text text-anchor="middle" x="57.5" y="-69" font-family="Helvetica,sans-Serif" font-size="10.00">src/client/src/Test.h</text>
</a>
</g>
</g>
<!-- Node2&#45;&gt;Node3 -->
<g id="edge1" class="edge"><title>Node2&#45;&gt;Node3</title>
<path fill="none" stroke="midnightblue" d="M107.109,-116.672C93.6301,-104.671 77.4012,-90.2203 67.2646,-81.1945"/>
<polygon fill="midnightblue" stroke="midnightblue" points="104.864,-119.36 114.66,-123.396 109.519,-114.132 104.864,-119.36"/>
</g>
<!-- Node5 -->
<g id="node4" class="node"><title>Node5</title>
<g id="a_node4"><a xlink:href="_simultaneous_connections_8cpp.html" target="_top" xlink:title=" ">
<polygon fill="white" stroke="black" points="127.5,-56.5 127.5,-86.5 279.5,-86.5 279.5,-56.5 127.5,-56.5"/>
<text text-anchor="start" x="135.5" y="-74.5" font-family="Helvetica,sans-Serif" font-size="10.00">src/client/src/test</text>
<text text-anchor="middle" x="203.5" y="-63.5" font-family="Helvetica,sans-Serif" font-size="10.00">/SimultaneousConnections.cpp</text>
</a>
</g>
</g>
<!-- Node2&#45;&gt;Node5 -->
<g id="edge3" class="edge"><title>Node2&#45;&gt;Node5</title>
<path fill="none" stroke="midnightblue" d="M153.975,-116.598C164.997,-106.783 177.844,-95.3442 187.691,-86.5765"/>
<polygon fill="midnightblue" stroke="midnightblue" points="151.481,-114.132 146.34,-123.396 156.136,-119.36 151.481,-114.132"/>
</g>
<!-- Node4 -->
<g id="node3" class="node"><title>Node4</title>
<g id="a_node3"><a xlink:href="_args_8cpp.html" target="_top" xlink:title=" ">
<polygon fill="white" stroke="black" points="0,-0.5 0,-19.5 115,-19.5 115,-0.5 0,-0.5"/>
<text text-anchor="middle" x="57.5" y="-7.5" font-family="Helvetica,sans-Serif" font-size="10.00">src/client/src/Args.cpp</text>
</a>
</g>
</g>
<!-- Node3&#45;&gt;Node4 -->
<g id="edge2" class="edge"><title>Node3&#45;&gt;Node4</title>
<path fill="none" stroke="midnightblue" d="M57.5,-51.8165C57.5,-40.9962 57.5,-27.898 57.5,-19.5091"/>
<polygon fill="midnightblue" stroke="midnightblue" points="54.0001,-51.9751 57.5,-61.9751 61.0001,-51.9751 54.0001,-51.9751"/>
</g>
</g>
</svg>
