<?xml version="1.0" encoding="UTF-8" standalone="no"?>
<!DOCTYPE svg PUBLIC "-//W3C//DTD SVG 1.1//EN"
 "http://www.w3.org/Graphics/SVG/1.1/DTD/svg11.dtd">
<!-- Generated by graphviz version 2.38.0 (20140413.2041)
 -->
<!-- Title: src/client/src/TUI.cpp Pages: 1 -->
<svg width="891pt" height="196pt"
 viewBox="0.00 0.00 891.00 196.00" xmlns="http://www.w3.org/2000/svg" xmlns:xlink="http://www.w3.org/1999/xlink">
<g id="graph0" class="graph" transform="scale(1 1) rotate(0) translate(4 192)">
<title>src/client/src/TUI.cpp</title>
<polygon fill="white" stroke="none" points="-4,4 -4,-192 887,-192 887,4 -4,4"/>
<!-- Node0 -->
<g id="node1" class="node"><title>Node0</title>
<g id="a_node1"><a xlink:title=" ">
<polygon fill="#bfbfbf" stroke="black" points="514.5,-168.5 514.5,-187.5 623.5,-187.5 623.5,-168.5 514.5,-168.5"/>
<text text-anchor="middle" x="569" y="-175.5" font-family="Helvetica,sans-Serif" font-size="10.00">src/client/src/TUI.cpp</text>
</a>
</g>
</g>
<!-- Node1 -->
<g id="node2" class="node"><title>Node1</title>
<g id="a_node2"><a xlink:href="_t_u_i_8h.html" target="_top" xlink:title=" ">
<polygon fill="white" stroke="black" points="429.5,-112.5 429.5,-131.5 468.5,-131.5 468.5,-112.5 429.5,-112.5"/>
<text text-anchor="middle" x="449" y="-119.5" font-family="Helvetica,sans-Serif" font-size="10.00">TUI.h</text>
</a>
</g>
</g>
<!-- Node0&#45;&gt;Node1 -->
<g id="edge1" class="edge"><title>Node0&#45;&gt;Node1</title>
<path fill="none" stroke="midnightblue" d="M549.986,-168.444C530.412,-159.636 499.692,-145.812 477.271,-135.722"/>
<polygon fill="midnightblue" stroke="midnightblue" points="478.481,-132.428 467.925,-131.516 475.608,-138.812 478.481,-132.428"/>
</g>
<!-- Node9 -->
<g id="node10" class="node"><title>Node9</title>
<g id="a_node10"><a xlink:title=" ">
<polygon fill="white" stroke="#bfbfbf" points="486.5,-112.5 486.5,-131.5 527.5,-131.5 527.5,-112.5 486.5,-112.5"/>
<text text-anchor="middle" x="507" y="-119.5" font-family="Helvetica,sans-Serif" font-size="10.00">string</text>
</a>
</g>
</g>
<!-- Node0&#45;&gt;Node9 -->
<g id="edge9" class="edge"><title>Node0&#45;&gt;Node9</title>
<path fill="none" stroke="midnightblue" d="M559.039,-168.324C549.873,-160.341 536.063,-148.313 524.972,-138.653"/>
<polygon fill="midnightblue" stroke="midnightblue" points="526.982,-135.762 517.143,-131.834 522.385,-141.041 526.982,-135.762"/>
</g>
<!-- Node10 -->
<g id="node11" class="node"><title>Node10</title>
<g id="a_node11"><a xlink:title=" ">
<polygon fill="white" stroke="#bfbfbf" points="546,-112.5 546,-131.5 592,-131.5 592,-112.5 546,-112.5"/>
<text text-anchor="middle" x="569" y="-119.5" font-family="Helvetica,sans-Serif" font-size="10.00">cstring</text>
</a>
</g>
</g>
<!-- Node0&#45;&gt;Node10 -->
<g id="edge10" class="edge"><title>Node0&#45;&gt;Node10</title>
<path fill="none" stroke="midnightblue" d="M569,-168.083C569,-161.006 569,-150.861 569,-141.986"/>
<polygon fill="midnightblue" stroke="midnightblue" points="572.5,-141.751 569,-131.751 565.5,-141.751 572.5,-141.751"/>
</g>
<!-- Node11 -->
<g id="node12" class="node"><title>Node11</title>
<g id="a_node12"><a xlink:title=" ">
<polygon fill="white" stroke="#bfbfbf" points="610,-112.5 610,-131.5 652,-131.5 652,-112.5 610,-112.5"/>
<text text-anchor="middle" x="631" y="-119.5" font-family="Helvetica,sans-Serif" font-size="10.00">vector</text>
</a>
</g>
</g>
<!-- Node0&#45;&gt;Node11 -->
<g id="edge11" class="edge"><title>Node0&#45;&gt;Node11</title>
<path fill="none" stroke="midnightblue" d="M578.961,-168.324C588.127,-160.341 601.937,-148.313 613.028,-138.653"/>
<polygon fill="midnightblue" stroke="midnightblue" points="615.615,-141.041 620.857,-131.834 611.018,-135.762 615.615,-141.041"/>
</g>
<!-- Node12 -->
<g id="node13" class="node"><title>Node12</title>
<g id="a_node13"><a xlink:title=" ">
<polygon fill="white" stroke="#bfbfbf" points="670,-112.5 670,-131.5 724,-131.5 724,-112.5 670,-112.5"/>
<text text-anchor="middle" x="697" y="-119.5" font-family="Helvetica,sans-Serif" font-size="10.00">curses.h</text>
</a>
</g>
</g>
<!-- Node0&#45;&gt;Node12 -->
<g id="edge12" class="edge"><title>Node0&#45;&gt;Node12</title>
<path fill="none" stroke="midnightblue" d="M589.282,-168.444C610.347,-159.557 643.517,-145.563 667.486,-135.451"/>
<polygon fill="midnightblue" stroke="midnightblue" points="668.96,-138.628 676.813,-131.516 666.239,-132.179 668.96,-138.628"/>
</g>
<!-- Node2 -->
<g id="node3" class="node"><title>Node2</title>
<g id="a_node3"><a xlink:href="_battleship_royale_8h.html" target="_top" xlink:title="Заголовочный файл с пространством имён, которое хранит в себе константы.">
<polygon fill="white" stroke="black" points="400,-56.5 400,-75.5 498,-75.5 498,-56.5 400,-56.5"/>
<text text-anchor="middle" x="449" y="-63.5" font-family="Helvetica,sans-Serif" font-size="10.00">BattleshipRoyale.h</text>
</a>
</g>
</g>
<!-- Node1&#45;&gt;Node2 -->
<g id="edge2" class="edge"><title>Node1&#45;&gt;Node2</title>
<path fill="none" stroke="midnightblue" d="M449,-112.083C449,-105.006 449,-94.8611 449,-85.9865"/>
<polygon fill="midnightblue" stroke="midnightblue" points="452.5,-85.751 449,-75.7511 445.5,-85.7511 452.5,-85.751"/>
</g>
<!-- Node3 -->
<g id="node4" class="node"><title>Node3</title>
<g id="a_node4"><a xlink:href="_version_8h.html" target="_top" xlink:title="Версия программы">
<polygon fill="white" stroke="black" points="0,-0.5 0,-19.5 134,-19.5 134,-0.5 0,-0.5"/>
<text text-anchor="middle" x="67" y="-7.5" font-family="Helvetica,sans-Serif" font-size="10.00">BattleshipRoyale/Version.h</text>
</a>
</g>
</g>
<!-- Node2&#45;&gt;Node3 -->
<g id="edge3" class="edge"><title>Node2&#45;&gt;Node3</title>
<path fill="none" stroke="midnightblue" d="M399.842,-58.051C333.116,-48.6185 213.479,-31.7065 137.281,-20.935"/>
<polygon fill="midnightblue" stroke="midnightblue" points="137.68,-17.4567 127.289,-19.5225 136.7,-24.3878 137.68,-17.4567"/>
</g>
<!-- Node4 -->
<g id="node5" class="node"><title>Node4</title>
<g id="a_node5"><a xlink:href="_connect_8h.html" target="_top" xlink:title="Константы с параметрами для подключения">
<polygon fill="white" stroke="black" points="152.5,-0.5 152.5,-19.5 289.5,-19.5 289.5,-0.5 152.5,-0.5"/>
<text text-anchor="middle" x="221" y="-7.5" font-family="Helvetica,sans-Serif" font-size="10.00">BattleshipRoyale/Connect.h</text>
</a>
</g>
</g>
<!-- Node2&#45;&gt;Node4 -->
<g id="edge4" class="edge"><title>Node2&#45;&gt;Node4</title>
<path fill="none" stroke="midnightblue" d="M412.873,-56.4435C373.349,-47.0826 309.903,-32.0561 266.887,-21.868"/>
<polygon fill="midnightblue" stroke="midnightblue" points="267.496,-18.4154 256.958,-19.5164 265.882,-25.2269 267.496,-18.4154"/>
</g>
<!-- Node5 -->
<g id="node6" class="node"><title>Node5</title>
<g id="a_node6"><a xlink:href="sqlite3_8h.html" target="_top" xlink:title="Константы для работы с базой данных sqlite3.">
<polygon fill="white" stroke="black" points="308,-0.5 308,-19.5 438,-19.5 438,-0.5 308,-0.5"/>
<text text-anchor="middle" x="373" y="-7.5" font-family="Helvetica,sans-Serif" font-size="10.00">BattleshipRoyale/sqlite3.h</text>
</a>
</g>
</g>
<!-- Node2&#45;&gt;Node5 -->
<g id="edge5" class="edge"><title>Node2&#45;&gt;Node5</title>
<path fill="none" stroke="midnightblue" d="M436.789,-56.324C425.224,-48.1066 407.625,-35.6017 393.839,-25.8069"/>
<polygon fill="midnightblue" stroke="midnightblue" points="395.612,-22.7729 385.433,-19.8339 391.557,-28.4791 395.612,-22.7729"/>
</g>
<!-- Node6 -->
<g id="node7" class="node"><title>Node6</title>
<g id="a_node7"><a xlink:href="_battleship_royale_2_battleship_royale_2_console_8h.html" target="_top" xlink:title="Константы консоли">
<polygon fill="white" stroke="black" points="456.5,-0.5 456.5,-19.5 593.5,-19.5 593.5,-0.5 456.5,-0.5"/>
<text text-anchor="middle" x="525" y="-7.5" font-family="Helvetica,sans-Serif" font-size="10.00">BattleshipRoyale/Console.h</text>
</a>
</g>
</g>
<!-- Node2&#45;&gt;Node6 -->
<g id="edge6" class="edge"><title>Node2&#45;&gt;Node6</title>
<path fill="none" stroke="midnightblue" d="M461.211,-56.324C472.776,-48.1066 490.375,-35.6017 504.161,-25.8069"/>
<polygon fill="midnightblue" stroke="midnightblue" points="506.443,-28.4791 512.567,-19.8339 502.388,-22.7729 506.443,-28.4791"/>
</g>
<!-- Node7 -->
<g id="node8" class="node"><title>Node7</title>
<g id="a_node8"><a xlink:href="_battleship_royale_2_battleship_royale_2_regex_8h.html" target="_top" xlink:title="Константы регулярных выражений">
<polygon fill="white" stroke="black" points="611.5,-0.5 611.5,-19.5 740.5,-19.5 740.5,-0.5 611.5,-0.5"/>
<text text-anchor="middle" x="676" y="-7.5" font-family="Helvetica,sans-Serif" font-size="10.00">BattleshipRoyale/Regex.h</text>
</a>
</g>
</g>
<!-- Node2&#45;&gt;Node7 -->
<g id="edge7" class="edge"><title>Node2&#45;&gt;Node7</title>
<path fill="none" stroke="midnightblue" d="M484.969,-56.4435C524.319,-47.0826 587.487,-32.0561 630.314,-21.868"/>
<polygon fill="midnightblue" stroke="midnightblue" points="631.281,-25.2358 640.199,-19.5164 629.661,-18.4258 631.281,-25.2358"/>
</g>
<!-- Node8 -->
<g id="node9" class="node"><title>Node8</title>
<g id="a_node9"><a xlink:href="_code_8h.html" target="_top" xlink:title="Различные коды ответов">
<polygon fill="white" stroke="black" points="759,-0.5 759,-19.5 883,-19.5 883,-0.5 759,-0.5"/>
<text text-anchor="middle" x="821" y="-7.5" font-family="Helvetica,sans-Serif" font-size="10.00">BattleshipRoyale/Code.h</text>
</a>
</g>
</g>
<!-- Node2&#45;&gt;Node8 -->
<g id="edge8" class="edge"><title>Node2&#45;&gt;Node8</title>
<path fill="none" stroke="midnightblue" d="M498.015,-57.8849C563.118,-48.4345 678.462,-31.691 752.246,-20.9804"/>
<polygon fill="midnightblue" stroke="midnightblue" points="752.978,-24.4109 762.372,-19.5106 751.973,-17.4835 752.978,-24.4109"/>
</g>
</g>
</svg>
