<?xml version="1.0" encoding="UTF-8" standalone="no"?>
<!DOCTYPE svg PUBLIC "-//W3C//DTD SVG 1.1//EN"
 "http://www.w3.org/Graphics/SVG/1.1/DTD/svg11.dtd">
<!-- Generated by graphviz version 2.38.0 (20140413.2041)
 -->
<!-- Title: async.cpp Pages: 1 -->
<svg width="350pt" height="218pt"
 viewBox="0.00 0.00 350.00 218.00" xmlns="http://www.w3.org/2000/svg" xmlns:xlink="http://www.w3.org/1999/xlink">
<g id="graph0" class="graph" transform="scale(1 1) rotate(0) translate(4 214)">
<title>async.cpp</title>
<polygon fill="white" stroke="none" points="-4,4 -4,-214 346,-214 346,4 -4,4"/>
<!-- Node0 -->
<g id="node1" class="node"><title>Node0</title>
<g id="a_node1"><a xlink:title=" ">
<polygon fill="#bfbfbf" stroke="black" points="152,-190.5 152,-209.5 214,-209.5 214,-190.5 152,-190.5"/>
<text text-anchor="middle" x="183" y="-197.5" font-family="Helvetica,sans-Serif" font-size="10.00">async.cpp</text>
</a>
</g>
</g>
<!-- Node1 -->
<g id="node2" class="node"><title>Node1</title>
<g id="a_node2"><a xlink:href="asio_2server_2_server_8h.html" target="_top" xlink:title=" ">
<polygon fill="white" stroke="black" points="70,-129 70,-148 122,-148 122,-129 70,-129"/>
<text text-anchor="middle" x="96" y="-136" font-family="Helvetica,sans-Serif" font-size="10.00">Server.h</text>
</a>
</g>
</g>
<!-- Node0&#45;&gt;Node1 -->
<g id="edge1" class="edge"><title>Node0&#45;&gt;Node1</title>
<path fill="none" stroke="midnightblue" d="M170.535,-190.475C156.581,-180.931 133.735,-165.307 117.009,-153.868"/>
<polygon fill="midnightblue" stroke="midnightblue" points="118.672,-150.765 108.442,-148.009 114.72,-156.543 118.672,-150.765"/>
</g>
<!-- Node5 -->
<g id="node6" class="node"><title>Node5</title>
<g id="a_node6"><a xlink:title=" ">
<polygon fill="white" stroke="#bfbfbf" points="140.5,-129 140.5,-148 225.5,-148 225.5,-129 140.5,-129"/>
<text text-anchor="middle" x="183" y="-136" font-family="Helvetica,sans-Serif" font-size="10.00">spdlog/spdlog.h</text>
</a>
</g>
</g>
<!-- Node0&#45;&gt;Node5 -->
<g id="edge5" class="edge"><title>Node0&#45;&gt;Node5</title>
<path fill="none" stroke="midnightblue" d="M183,-190.475C183,-182.08 183,-168.981 183,-158.163"/>
<polygon fill="midnightblue" stroke="midnightblue" points="186.5,-158.009 183,-148.009 179.5,-158.009 186.5,-158.009"/>
</g>
<!-- Node6 -->
<g id="node7" class="node"><title>Node6</title>
<g id="a_node7"><a xlink:title=" ">
<polygon fill="white" stroke="#bfbfbf" points="244,-123.5 244,-153.5 342,-153.5 342,-123.5 244,-123.5"/>
<text text-anchor="start" x="252" y="-141.5" font-family="Helvetica,sans-Serif" font-size="10.00">spdlog/sinks/basic</text>
<text text-anchor="middle" x="293" y="-130.5" font-family="Helvetica,sans-Serif" font-size="10.00">_file_sink.h</text>
</a>
</g>
</g>
<!-- Node0&#45;&gt;Node6 -->
<g id="edge6" class="edge"><title>Node0&#45;&gt;Node6</title>
<path fill="none" stroke="midnightblue" d="M198.76,-190.475C214.215,-182.115 238.295,-169.09 258.245,-158.299"/>
<polygon fill="midnightblue" stroke="midnightblue" points="259.945,-161.359 267.075,-153.523 256.614,-155.202 259.945,-161.359"/>
</g>
<!-- Node2 -->
<g id="node3" class="node"><title>Node2</title>
<g id="a_node3"><a xlink:href="asio_2server_2con__handler_8h.html" target="_top" xlink:title=" ">
<polygon fill="white" stroke="black" points="57.5,-67.5 57.5,-86.5 134.5,-86.5 134.5,-67.5 57.5,-67.5"/>
<text text-anchor="middle" x="96" y="-74.5" font-family="Helvetica,sans-Serif" font-size="10.00">con_handler.h</text>
</a>
</g>
</g>
<!-- Node1&#45;&gt;Node2 -->
<g id="edge2" class="edge"><title>Node1&#45;&gt;Node2</title>
<path fill="none" stroke="midnightblue" d="M96,-128.975C96,-120.58 96,-107.481 96,-96.6631"/>
<polygon fill="midnightblue" stroke="midnightblue" points="99.5001,-96.5091 96,-86.5091 92.5001,-96.5091 99.5001,-96.5091"/>
</g>
<!-- Node3 -->
<g id="node4" class="node"><title>Node3</title>
<g id="a_node4"><a xlink:title=" ">
<polygon fill="white" stroke="#bfbfbf" points="0,-6 0,-25 80,-25 80,-6 0,-6"/>
<text text-anchor="middle" x="40" y="-13" font-family="Helvetica,sans-Serif" font-size="10.00">boost/asio.hpp</text>
</a>
</g>
</g>
<!-- Node2&#45;&gt;Node3 -->
<g id="edge3" class="edge"><title>Node2&#45;&gt;Node3</title>
<path fill="none" stroke="midnightblue" d="M87.9766,-67.4751C79.4102,-58.3733 65.6386,-43.741 55.0428,-32.483"/>
<polygon fill="midnightblue" stroke="midnightblue" points="57.4109,-29.8923 48.0086,-25.0091 52.3135,-34.6899 57.4109,-29.8923"/>
</g>
<!-- Node4 -->
<g id="node5" class="node"><title>Node4</title>
<g id="a_node5"><a xlink:title=" ">
<polygon fill="white" stroke="#bfbfbf" points="98.5,-0.5 98.5,-30.5 205.5,-30.5 205.5,-0.5 98.5,-0.5"/>
<text text-anchor="start" x="106.5" y="-18.5" font-family="Helvetica,sans-Serif" font-size="10.00">boost/enable_shared</text>
<text text-anchor="middle" x="152" y="-7.5" font-family="Helvetica,sans-Serif" font-size="10.00">_from_this.hpp</text>
</a>
</g>
</g>
<!-- Node2&#45;&gt;Node4 -->
<g id="edge4" class="edge"><title>Node2&#45;&gt;Node4</title>
<path fill="none" stroke="midnightblue" d="M104.023,-67.4751C111.253,-59.7932 122.191,-48.1717 131.798,-37.9643"/>
<polygon fill="midnightblue" stroke="midnightblue" points="134.497,-40.2038 138.802,-30.523 129.4,-35.4062 134.497,-40.2038"/>
</g>
</g>
</svg>
