<?xml version="1.0" encoding="UTF-8" standalone="no"?>
<!DOCTYPE svg PUBLIC "-//W3C//DTD SVG 1.1//EN"
 "http://www.w3.org/Graphics/SVG/1.1/DTD/svg11.dtd">
<!-- Generated by graphviz version 2.38.0 (20140413.2041)
 -->
<!-- Title: con_handler Pages: 1 -->
<svg width="261pt" height="173pt"
 viewBox="0.00 0.00 260.50 173.00" xmlns="http://www.w3.org/2000/svg" xmlns:xlink="http://www.w3.org/1999/xlink">
<g id="graph0" class="graph" transform="scale(1 1) rotate(0) translate(4 169)">
<title>con_handler</title>
<polygon fill="white" stroke="none" points="-4,4 -4,-169 256.5,-169 256.5,4 -4,4"/>
<!-- Node2 -->
<g id="node1" class="node"><title>Node2</title>
<g id="a_node1"><a xlink:title="Класс для общения">
<polygon fill="#bfbfbf" stroke="black" points="31.5,-0.5 31.5,-19.5 100.5,-19.5 100.5,-0.5 31.5,-0.5"/>
<text text-anchor="middle" x="66" y="-7.5" font-family="Helvetica,sans-Serif" font-size="10.00">con_handler</text>
</a>
</g>
</g>
<!-- Node3 -->
<g id="node2" class="node"><title>Node3</title>
<g id="a_node2"><a xlink:title=" ">
<polygon fill="white" stroke="#bfbfbf" points="0,-67.5 0,-97.5 132,-97.5 132,-67.5 0,-67.5"/>
<text text-anchor="start" x="8" y="-85.5" font-family="Helvetica,sans-Serif" font-size="10.00">boost::enable_shared</text>
<text text-anchor="middle" x="66" y="-74.5" font-family="Helvetica,sans-Serif" font-size="10.00">_from_this&lt; con_handler &gt;</text>
</a>
</g>
</g>
<!-- Node3&#45;&gt;Node2 -->
<g id="edge1" class="edge"><title>Node3&#45;&gt;Node2</title>
<path fill="none" stroke="midnightblue" d="M59.5421,-57.0913C58.8272,-44.2136 59.4245,-29.1974 61.3341,-19.8932"/>
<polygon fill="midnightblue" stroke="midnightblue" points="56.0723,-57.5858 60.4514,-67.2333 63.0444,-56.9607 56.0723,-57.5858"/>
</g>
<!-- Node3&#45;&gt;Node2 -->
<g id="edge2" class="edge"><title>Node3&#45;&gt;Node2</title>
<path fill="none" stroke="midnightblue" d="M72.4579,-57.0913C73.1728,-44.2136 72.5755,-29.1974 70.6659,-19.8932"/>
<polygon fill="midnightblue" stroke="midnightblue" points="68.9556,-56.9607 71.5486,-67.2333 75.9277,-57.5858 68.9556,-56.9607"/>
</g>
<!-- Node4 -->
<g id="node3" class="node"><title>Node4</title>
<g id="a_node3"><a xlink:href="class_processing.html" target="_top" xlink:title=" ">
<polygon fill="white" stroke="black" points="150.5,-73 150.5,-92 215.5,-92 215.5,-73 150.5,-73"/>
<text text-anchor="middle" x="183" y="-80" font-family="Helvetica,sans-Serif" font-size="10.00">Processing</text>
</a>
</g>
</g>
<!-- Node4&#45;&gt;Node2 -->
<g id="edge3" class="edge"><title>Node4&#45;&gt;Node2</title>
<path fill="none" stroke="#9a32cd" stroke-dasharray="5,2" d="M159.971,-67.6234C136.355,-53.3937 100.351,-31.6989 80.4638,-19.7154"/>
<polygon fill="#9a32cd" stroke="#9a32cd" points="158.282,-70.692 168.654,-72.8553 161.895,-64.6963 158.282,-70.692"/>
<text text-anchor="middle" x="137.5" y="-41" font-family="Helvetica,sans-Serif" font-size="10.00"> prc</text>
</g>
<!-- Node5 -->
<g id="node4" class="node"><title>Node5</title>
<g id="a_node4"><a xlink:href="class_mini_d_b.html" target="_top" xlink:title="Компактная база данных">
<polygon fill="white" stroke="black" points="121,-145.5 121,-164.5 169,-164.5 169,-145.5 121,-145.5"/>
<text text-anchor="middle" x="145" y="-152.5" font-family="Helvetica,sans-Serif" font-size="10.00">MiniDB</text>
</a>
</g>
</g>
<!-- Node5&#45;&gt;Node4 -->
<g id="edge4" class="edge"><title>Node5&#45;&gt;Node4</title>
<path fill="none" stroke="#9a32cd" stroke-dasharray="5,2" d="M154.604,-136.182C162.178,-122.13 172.415,-103.138 178.302,-92.2154"/>
<polygon fill="#9a32cd" stroke="#9a32cd" points="151.323,-134.892 149.66,-145.355 157.485,-138.213 151.323,-134.892"/>
<text text-anchor="middle" x="176" y="-119" font-family="Helvetica,sans-Serif" font-size="10.00"> mdb</text>
</g>
<!-- Node6 -->
<g id="node5" class="node"><title>Node6</title>
<g id="a_node5"><a xlink:href="class_mem_d_buid.html" target="_top" xlink:title=" ">
<polygon fill="white" stroke="black" points="187.5,-145.5 187.5,-164.5 252.5,-164.5 252.5,-145.5 187.5,-145.5"/>
<text text-anchor="middle" x="220" y="-152.5" font-family="Helvetica,sans-Serif" font-size="10.00">MemDBuid</text>
</a>
</g>
</g>
<!-- Node6&#45;&gt;Node4 -->
<g id="edge5" class="edge"><title>Node6&#45;&gt;Node4</title>
<path fill="none" stroke="#9a32cd" stroke-dasharray="5,2" d="M210.649,-136.182C203.274,-122.13 193.307,-103.138 187.574,-92.2154"/>
<polygon fill="#9a32cd" stroke="#9a32cd" points="207.717,-138.127 215.463,-145.355 213.915,-134.874 207.717,-138.127"/>
<text text-anchor="middle" x="222.5" y="-119" font-family="Helvetica,sans-Serif" font-size="10.00"> mdbUid</text>
</g>
</g>
</svg>
