<?xml version="1.0" encoding="UTF-8" standalone="no"?>
<!DOCTYPE svg PUBLIC "-//W3C//DTD SVG 1.1//EN"
 "http://www.w3.org/Graphics/SVG/1.1/DTD/svg11.dtd">
<!-- Generated by graphviz version 2.38.0 (20140413.2041)
 -->
<!-- Title: Processing Pages: 1 -->
<svg width="140pt" height="95pt"
 viewBox="0.00 0.00 139.50 95.00" xmlns="http://www.w3.org/2000/svg" xmlns:xlink="http://www.w3.org/1999/xlink">
<g id="graph0" class="graph" transform="scale(1 1) rotate(0) translate(4 91)">
<title>Processing</title>
<polygon fill="white" stroke="none" points="-4,4 -4,-91 135.5,-91 135.5,4 -4,4"/>
<!-- Node1 -->
<g id="node1" class="node"><title>Node1</title>
<g id="a_node1"><a xlink:title=" ">
<polygon fill="#bfbfbf" stroke="black" points="28.5,-0.5 28.5,-19.5 93.5,-19.5 93.5,-0.5 28.5,-0.5"/>
<text text-anchor="middle" x="61" y="-7.5" font-family="Helvetica,sans-Serif" font-size="10.00">Processing</text>
</a>
</g>
</g>
<!-- Node2 -->
<g id="node2" class="node"><title>Node2</title>
<g id="a_node2"><a xlink:href="class_mini_d_b.html" target="_top" xlink:title="Компактная база данных">
<polygon fill="white" stroke="black" points="0,-67.5 0,-86.5 48,-86.5 48,-67.5 0,-67.5"/>
<text text-anchor="middle" x="24" y="-74.5" font-family="Helvetica,sans-Serif" font-size="10.00">MiniDB</text>
</a>
</g>
</g>
<!-- Node2&#45;&gt;Node1 -->
<g id="edge1" class="edge"><title>Node2&#45;&gt;Node1</title>
<path fill="none" stroke="#9a32cd" stroke-dasharray="5,2" d="M33.9418,-58.5347C41.1055,-45.9499 50.4651,-29.5072 56.0891,-19.6273"/>
<polygon fill="#9a32cd" stroke="#9a32cd" points="30.8953,-56.8117 28.99,-67.2338 36.9788,-60.2746 30.8953,-56.8117"/>
<text text-anchor="middle" x="56" y="-41" font-family="Helvetica,sans-Serif" font-size="10.00"> mdb</text>
</g>
<!-- Node3 -->
<g id="node3" class="node"><title>Node3</title>
<g id="a_node3"><a xlink:href="class_mem_d_buid.html" target="_top" xlink:title=" ">
<polygon fill="white" stroke="black" points="66.5,-67.5 66.5,-86.5 131.5,-86.5 131.5,-67.5 66.5,-67.5"/>
<text text-anchor="middle" x="99" y="-74.5" font-family="Helvetica,sans-Serif" font-size="10.00">MemDBuid</text>
</a>
</g>
</g>
<!-- Node3&#45;&gt;Node1 -->
<g id="edge2" class="edge"><title>Node3&#45;&gt;Node1</title>
<path fill="none" stroke="#9a32cd" stroke-dasharray="5,2" d="M88.7895,-58.5347C81.4322,-45.9499 71.8196,-29.5072 66.0437,-19.6273"/>
<polygon fill="#9a32cd" stroke="#9a32cd" points="85.8066,-60.3673 93.8752,-67.2338 91.8497,-56.8344 85.8066,-60.3673"/>
<text text-anchor="middle" x="101.5" y="-41" font-family="Helvetica,sans-Serif" font-size="10.00"> mdbUid</text>
</g>
</g>
</svg>
