<?xml version="1.0" encoding="UTF-8" standalone="no"?>
<!DOCTYPE svg PUBLIC "-//W3C//DTD SVG 1.1//EN"
 "http://www.w3.org/Graphics/SVG/1.1/DTD/svg11.dtd">
<!-- Generated by graphviz version 2.38.0 (20140413.2041)
 -->
<!-- Title: con_handler Pages: 1 -->
<svg width="206pt" height="106pt"
 viewBox="0.00 0.00 206.00 106.00" xmlns="http://www.w3.org/2000/svg" xmlns:xlink="http://www.w3.org/1999/xlink">
<g id="graph0" class="graph" transform="scale(1 1) rotate(0) translate(4 102)">
<title>con_handler</title>
<polygon fill="white" stroke="none" points="-4,4 -4,-102 202,-102 202,4 -4,4"/>
<!-- Node2 -->
<g id="node1" class="node"><title>Node2</title>
<g id="a_node1"><a xlink:title="Класс для общения">
<polygon fill="#bfbfbf" stroke="black" points="31.5,-0.5 31.5,-19.5 100.5,-19.5 100.5,-0.5 31.5,-0.5"/>
<text text-anchor="middle" x="66" y="-7.5" font-family="Helvetica,sans-Serif" font-size="10.00">con_handler</text>
</a>
</g>
</g>
<!-- Node3 -->
<g id="node2" class="node"><title>Node3</title>
<g id="a_node2"><a xlink:title=" ">
<polygon fill="white" stroke="#bfbfbf" points="0,-67.5 0,-97.5 132,-97.5 132,-67.5 0,-67.5"/>
<text text-anchor="start" x="8" y="-85.5" font-family="Helvetica,sans-Serif" font-size="10.00">boost::enable_shared</text>
<text text-anchor="middle" x="66" y="-74.5" font-family="Helvetica,sans-Serif" font-size="10.00">_from_this&lt; con_handler &gt;</text>
</a>
</g>
</g>
<!-- Node3&#45;&gt;Node2 -->
<g id="edge1" class="edge"><title>Node3&#45;&gt;Node2</title>
<path fill="none" stroke="midnightblue" d="M59.5421,-57.0913C58.8272,-44.2136 59.4245,-29.1974 61.3341,-19.8932"/>
<polygon fill="midnightblue" stroke="midnightblue" points="56.0723,-57.5858 60.4514,-67.2333 63.0444,-56.9607 56.0723,-57.5858"/>
</g>
<!-- Node3&#45;&gt;Node2 -->
<g id="edge2" class="edge"><title>Node3&#45;&gt;Node2</title>
<path fill="none" stroke="midnightblue" d="M72.4579,-57.0913C73.1728,-44.2136 72.5755,-29.1974 70.6659,-19.8932"/>
<polygon fill="midnightblue" stroke="midnightblue" points="68.9556,-56.9607 71.5486,-67.2333 75.9277,-57.5858 68.9556,-56.9607"/>
</g>
<!-- Node4 -->
<g id="node3" class="node"><title>Node4</title>
<g id="a_node3"><a xlink:href="class_mini_d_b.html" target="_top" xlink:title=" ">
<polygon fill="white" stroke="black" points="150,-73 150,-92 198,-92 198,-73 150,-73"/>
<text text-anchor="middle" x="174" y="-80" font-family="Helvetica,sans-Serif" font-size="10.00">MiniDB</text>
</a>
</g>
</g>
<!-- Node4&#45;&gt;Node2 -->
<g id="edge3" class="edge"><title>Node4&#45;&gt;Node2</title>
<path fill="none" stroke="#9a32cd" stroke-dasharray="5,2" d="M152.161,-67.2439C130.356,-53.0105 97.5465,-31.5929 79.3512,-19.7154"/>
<polygon fill="#9a32cd" stroke="#9a32cd" points="150.47,-70.3199 160.757,-72.8553 154.296,-64.4582 150.47,-70.3199"/>
<text text-anchor="middle" x="135" y="-41" font-family="Helvetica,sans-Serif" font-size="10.00"> mdb</text>
</g>
</g>
</svg>
