<?xml version="1.0" encoding="UTF-8" standalone="no"?>
<!DOCTYPE svg PUBLIC "-//W3C//DTD SVG 1.1//EN"
 "http://www.w3.org/Graphics/SVG/1.1/DTD/svg11.dtd">
<!-- Generated by graphviz version 2.38.0 (20140413.2041)
 -->
<!-- Title: con_handler Pages: 1 -->
<svg width="140pt" height="95pt"
 viewBox="0.00 0.00 140.00 95.00" xmlns="http://www.w3.org/2000/svg" xmlns:xlink="http://www.w3.org/1999/xlink">
<g id="graph0" class="graph" transform="scale(1 1) rotate(0) translate(4 91)">
<title>con_handler</title>
<polygon fill="white" stroke="none" points="-4,4 -4,-91 136,-91 136,4 -4,4"/>
<!-- Node0 -->
<g id="node1" class="node"><title>Node0</title>
<g id="a_node1"><a xlink:title="Класс для общения">
<polygon fill="#bfbfbf" stroke="black" points="31.5,-0.5 31.5,-19.5 100.5,-19.5 100.5,-0.5 31.5,-0.5"/>
<text text-anchor="middle" x="66" y="-7.5" font-family="Helvetica,sans-Serif" font-size="10.00">con_handler</text>
</a>
</g>
</g>
<!-- Node1 -->
<g id="node2" class="node"><title>Node1</title>
<g id="a_node2"><a xlink:title=" ">
<polygon fill="white" stroke="#bfbfbf" points="0,-56.5 0,-86.5 132,-86.5 132,-56.5 0,-56.5"/>
<text text-anchor="start" x="8" y="-74.5" font-family="Helvetica,sans-Serif" font-size="10.00">boost::enable_shared</text>
<text text-anchor="middle" x="66" y="-63.5" font-family="Helvetica,sans-Serif" font-size="10.00">_from_this&lt; con_handler &gt;</text>
</a>
</g>
</g>
<!-- Node1&#45;&gt;Node0 -->
<g id="edge1" class="edge"><title>Node1&#45;&gt;Node0</title>
<path fill="none" stroke="midnightblue" d="M59.3551,-46.2892C58.9934,-36.857 59.5653,-26.6548 61.0706,-19.6578"/>
<polygon fill="midnightblue" stroke="midnightblue" points="55.8773,-46.7087 60.1601,-56.3993 62.8552,-46.153 55.8773,-46.7087"/>
</g>
<!-- Node1&#45;&gt;Node0 -->
<g id="edge2" class="edge"><title>Node1&#45;&gt;Node0</title>
<path fill="none" stroke="midnightblue" d="M72.6449,-46.2892C73.0066,-36.857 72.4347,-26.6548 70.9294,-19.6578"/>
<polygon fill="midnightblue" stroke="midnightblue" points="69.1448,-46.153 71.8399,-56.3993 76.1227,-46.7087 69.1448,-46.153"/>
</g>
</g>
</svg>
