<?xml version="1.0" encoding="UTF-8" standalone="no"?>
<!DOCTYPE svg PUBLIC "-//W3C//DTD SVG 1.1//EN"
 "http://www.w3.org/Graphics/SVG/1.1/DTD/svg11.dtd">
<!-- Generated by graphviz version 2.38.0 (20140413.2041)
 -->
<!-- Title: src/client/src/BattleshipRoyale.cpp Pages: 1 -->
<!--zoomable 218 -->
<svg id="main" version="1.1" xmlns="http://www.w3.org/2000/svg" xmlns:xlink="http://www.w3.org/1999/xlink" xml:space="preserve" onload="init(evt)">
<style type="text/css"><![CDATA[
.edge:hover path { stroke: red; }
.edge:hover polygon { stroke: red; fill: red; }
]]></style>
<script type="text/javascript"><![CDATA[
var edges = document.getElementsByTagName('g');
if (edges && edges.length) {
  for (var i=0;i<edges.length;i++) {
    if (edges[i].id.substr(0,4)=='edge') {
      edges[i].setAttribute('class','edge');
    }
  }
}
]]></script>
        <defs>
                <circle id="rim" cx="0" cy="0" r="7"/>
                <circle id="rim2" cx="0" cy="0" r="3.5"/>
                <g id="zoomPlus">
                        <use xlink:href="#rim" fill="#404040">
                                <set attributeName="fill" to="#808080" begin="zoomplus.mouseover" end="zoomplus.mouseout"/>
                        </use>
                        <path d="M-4,0h8M0,-4v8" fill="none" stroke="white" stroke-width="1.5" pointer-events="none"/>
                </g>
                <g id="zoomMin">
                        <use xlink:href="#rim" fill="#404040">
                                <set attributeName="fill" to="#808080" begin="zoomminus.mouseover" end="zoomminus.mouseout"/>
                        </use>
                        <path d="M-4,0h8" fill="none" stroke="white" stroke-width="1.5" pointer-events="none"/>
                </g>
                <g id="dirArrow">
                        <path fill="none" stroke="white" stroke-width="1.5" d="M0,-3.0v7 M-2.5,-0.5L0,-3.0L2.5,-0.5"/>
                </g>
               <g id="resetDef">
                       <use xlink:href="#rim2" fill="#404040">
                               <set attributeName="fill" to="#808080" begin="reset.mouseover" end="reset.mouseout"/>
                       </use>
               </g>
        </defs>

<script type="text/javascript">
var viewWidth = 891;
var viewHeight = 218;
var sectionId = 'dynsection-0';
</script>
<script xlink:href="svgpan.js"/>
<svg id="graph" class="graph">
<g id="viewport">
<title>src/client/src/BattleshipRoyale.cpp</title>
<polygon fill="white" stroke="none" points="-4,4 -4,-214 887,-214 887,4 -4,4"/>
<!-- Node0 -->
<g id="node1" class="node"><title>Node0</title>
<g id="a_node1"><a xlink:title="Клиент">
<polygon fill="#bfbfbf" stroke="black" points="222.5,-179.5 222.5,-209.5 341.5,-209.5 341.5,-179.5 222.5,-179.5"/>
<text text-anchor="start" x="230.5" y="-197.5" font-family="Helvetica,sans-Serif" font-size="10.00">src/client/src/Battleship</text>
<text text-anchor="middle" x="282" y="-186.5" font-family="Helvetica,sans-Serif" font-size="10.00">Royale.cpp</text>
</a>
</g>
</g>
<!-- Node1 -->
<g id="node2" class="node"><title>Node1</title>
<g id="a_node2"><a xlink:title=" ">
<polygon fill="white" stroke="#bfbfbf" points="242.5,-56.5 242.5,-75.5 283.5,-75.5 283.5,-56.5 242.5,-56.5"/>
<text text-anchor="middle" x="263" y="-63.5" font-family="Helvetica,sans-Serif" font-size="10.00">string</text>
</a>
</g>
</g>
<!-- Node0&#45;&gt;Node1 -->
<g id="edge1" class="edge"><title>Node0&#45;&gt;Node1</title>
<path fill="none" stroke="midnightblue" d="M222.453,-190.048C155.764,-184.792 53.8628,-172.119 30,-143 -25.1374,-75.7171 156.396,-67.4287 231.749,-66.8191"/>
<polygon fill="midnightblue" stroke="midnightblue" points="232.069,-70.318 242.055,-66.7788 232.042,-63.3181 232.069,-70.318"/>
</g>
<!-- Node2 -->
<g id="node3" class="node"><title>Node2</title>
<g id="a_node3"><a xlink:title=" ">
<polygon fill="white" stroke="#bfbfbf" points="39.5,-118 39.5,-137 124.5,-137 124.5,-118 39.5,-118"/>
<text text-anchor="middle" x="82" y="-125" font-family="Helvetica,sans-Serif" font-size="10.00">spdlog/spdlog.h</text>
</a>
</g>
</g>
<!-- Node0&#45;&gt;Node2 -->
<g id="edge2" class="edge"><title>Node0&#45;&gt;Node2</title>
<path fill="none" stroke="midnightblue" d="M238.603,-179.396C202.579,-167.688 151.943,-151.231 118.103,-140.234"/>
<polygon fill="midnightblue" stroke="midnightblue" points="118.768,-136.769 108.175,-137.007 116.604,-143.427 118.768,-136.769"/>
</g>
<!-- Node3 -->
<g id="node4" class="node"><title>Node3</title>
<g id="a_node4"><a xlink:title=" ">
<polygon fill="white" stroke="#bfbfbf" points="143,-112.5 143,-142.5 241,-142.5 241,-112.5 143,-112.5"/>
<text text-anchor="start" x="151" y="-130.5" font-family="Helvetica,sans-Serif" font-size="10.00">spdlog/sinks/basic</text>
<text text-anchor="middle" x="192" y="-119.5" font-family="Helvetica,sans-Serif" font-size="10.00">_file_sink.h</text>
</a>
</g>
</g>
<!-- Node0&#45;&gt;Node3 -->
<g id="edge3" class="edge"><title>Node0&#45;&gt;Node3</title>
<path fill="none" stroke="midnightblue" d="M262.471,-179.396C249.97,-170.367 233.558,-158.514 219.718,-148.518"/>
<polygon fill="midnightblue" stroke="midnightblue" points="221.647,-145.594 211.491,-142.577 217.548,-151.269 221.647,-145.594"/>
</g>
<!-- Node4 -->
<g id="node5" class="node"><title>Node4</title>
<g id="a_node5"><a xlink:href="_battleship_royale_8h.html" target="_top" xlink:title="Заголовочный файл с пространством имён, которое хранит в себе константы.">
<polygon fill="white" stroke="black" points="400,-56.5 400,-75.5 498,-75.5 498,-56.5 400,-56.5"/>
<text text-anchor="middle" x="449" y="-63.5" font-family="Helvetica,sans-Serif" font-size="10.00">BattleshipRoyale.h</text>
</a>
</g>
</g>
<!-- Node0&#45;&gt;Node4 -->
<g id="edge4" class="edge"><title>Node0&#45;&gt;Node4</title>
<path fill="none" stroke="midnightblue" d="M317.698,-179.46C337.692,-170.651 362.456,-158.104 382,-143 404.077,-125.938 424.519,-100.841 436.876,-84.217"/>
<polygon fill="midnightblue" stroke="midnightblue" points="439.828,-86.1075 442.868,-75.958 434.162,-81.9967 439.828,-86.1075"/>
</g>
<!-- Node11 -->
<g id="node12" class="node"><title>Node11</title>
<g id="a_node12"><a xlink:href="_args_8h.html" target="_top" xlink:title=" ">
<polygon fill="white" stroke="black" points="259.5,-118 259.5,-137 304.5,-137 304.5,-118 259.5,-118"/>
<text text-anchor="middle" x="282" y="-125" font-family="Helvetica,sans-Serif" font-size="10.00">Args.h</text>
</a>
</g>
</g>
<!-- Node0&#45;&gt;Node11 -->
<g id="edge11" class="edge"><title>Node0&#45;&gt;Node11</title>
<path fill="none" stroke="midnightblue" d="M282,-179.396C282,-170.064 282,-157.714 282,-147.517"/>
<polygon fill="midnightblue" stroke="midnightblue" points="285.5,-147.195 282,-137.195 278.5,-147.195 285.5,-147.195"/>
</g>
<!-- Node12 -->
<g id="node13" class="node"><title>Node12</title>
<g id="a_node13"><a xlink:href="client_2src_2_client_8h.html" target="_top" xlink:title=" ">
<polygon fill="white" stroke="black" points="323,-118 323,-137 373,-137 373,-118 323,-118"/>
<text text-anchor="middle" x="348" y="-125" font-family="Helvetica,sans-Serif" font-size="10.00">Client.h</text>
</a>
</g>
</g>
<!-- Node0&#45;&gt;Node12 -->
<g id="edge13" class="edge"><title>Node0&#45;&gt;Node12</title>
<path fill="none" stroke="midnightblue" d="M296.321,-179.396C306.816,-169.06 321.068,-155.024 331.948,-144.309"/>
<polygon fill="midnightblue" stroke="midnightblue" points="334.503,-146.705 339.172,-137.195 329.591,-141.718 334.503,-146.705"/>
</g>
<!-- Node14 -->
<g id="node15" class="node"><title>Node14</title>
<g id="a_node15"><a xlink:href="_t_u_i_8h.html" target="_top" xlink:title=" ">
<polygon fill="white" stroke="black" points="429.5,-118 429.5,-137 468.5,-137 468.5,-118 429.5,-118"/>
<text text-anchor="middle" x="449" y="-125" font-family="Helvetica,sans-Serif" font-size="10.00">TUI.h</text>
</a>
</g>
</g>
<!-- Node0&#45;&gt;Node14 -->
<g id="edge17" class="edge"><title>Node0&#45;&gt;Node14</title>
<path fill="none" stroke="midnightblue" d="M320.283,-179.429C346.945,-169.516 383.271,-155.784 415,-143 416.596,-142.357 418.231,-141.69 419.878,-141.01"/>
<polygon fill="midnightblue" stroke="midnightblue" points="421.41,-144.163 429.279,-137.069 418.704,-137.707 421.41,-144.163"/>
</g>
<!-- Node5 -->
<g id="node6" class="node"><title>Node5</title>
<g id="a_node6"><a xlink:href="_version_8h.html" target="_top" xlink:title="Версия программы">
<polygon fill="white" stroke="black" points="0,-0.5 0,-19.5 134,-19.5 134,-0.5 0,-0.5"/>
<text text-anchor="middle" x="67" y="-7.5" font-family="Helvetica,sans-Serif" font-size="10.00">BattleshipRoyale/Version.h</text>
</a>
</g>
</g>
<!-- Node4&#45;&gt;Node5 -->
<g id="edge5" class="edge"><title>Node4&#45;&gt;Node5</title>
<path fill="none" stroke="midnightblue" d="M399.961,-57.3342C396.929,-56.8778 393.924,-56.4298 391,-56 305.268,-43.3955 206.629,-29.8297 140.928,-20.9264"/>
<polygon fill="midnightblue" stroke="midnightblue" points="141.052,-17.4114 130.673,-19.5384 140.113,-24.3481 141.052,-17.4114"/>
</g>
<!-- Node6 -->
<g id="node7" class="node"><title>Node6</title>
<g id="a_node7"><a xlink:href="_connect_8h.html" target="_top" xlink:title="Константы с параметрами для подключения">
<polygon fill="white" stroke="black" points="152.5,-0.5 152.5,-19.5 289.5,-19.5 289.5,-0.5 152.5,-0.5"/>
<text text-anchor="middle" x="221" y="-7.5" font-family="Helvetica,sans-Serif" font-size="10.00">BattleshipRoyale/Connect.h</text>
</a>
</g>
</g>
<!-- Node4&#45;&gt;Node6 -->
<g id="edge6" class="edge"><title>Node4&#45;&gt;Node6</title>
<path fill="none" stroke="midnightblue" d="M412.873,-56.4435C373.349,-47.0826 309.903,-32.0561 266.887,-21.868"/>
<polygon fill="midnightblue" stroke="midnightblue" points="267.496,-18.4154 256.958,-19.5164 265.882,-25.2269 267.496,-18.4154"/>
</g>
<!-- Node7 -->
<g id="node8" class="node"><title>Node7</title>
<g id="a_node8"><a xlink:href="sqlite3_8h.html" target="_top" xlink:title="Константы для работы с базой данных sqlite3.">
<polygon fill="white" stroke="black" points="308,-0.5 308,-19.5 438,-19.5 438,-0.5 308,-0.5"/>
<text text-anchor="middle" x="373" y="-7.5" font-family="Helvetica,sans-Serif" font-size="10.00">BattleshipRoyale/sqlite3.h</text>
</a>
</g>
</g>
<!-- Node4&#45;&gt;Node7 -->
<g id="edge7" class="edge"><title>Node4&#45;&gt;Node7</title>
<path fill="none" stroke="midnightblue" d="M436.789,-56.324C425.224,-48.1066 407.625,-35.6017 393.839,-25.8069"/>
<polygon fill="midnightblue" stroke="midnightblue" points="395.612,-22.7729 385.433,-19.8339 391.557,-28.4791 395.612,-22.7729"/>
</g>
<!-- Node8 -->
<g id="node9" class="node"><title>Node8</title>
<g id="a_node9"><a xlink:href="_battleship_royale_2_battleship_royale_2_console_8h.html" target="_top" xlink:title="Константы консоли">
<polygon fill="white" stroke="black" points="456.5,-0.5 456.5,-19.5 593.5,-19.5 593.5,-0.5 456.5,-0.5"/>
<text text-anchor="middle" x="525" y="-7.5" font-family="Helvetica,sans-Serif" font-size="10.00">BattleshipRoyale/Console.h</text>
</a>
</g>
</g>
<!-- Node4&#45;&gt;Node8 -->
<g id="edge8" class="edge"><title>Node4&#45;&gt;Node8</title>
<path fill="none" stroke="midnightblue" d="M461.211,-56.324C472.776,-48.1066 490.375,-35.6017 504.161,-25.8069"/>
<polygon fill="midnightblue" stroke="midnightblue" points="506.443,-28.4791 512.567,-19.8339 502.388,-22.7729 506.443,-28.4791"/>
</g>
<!-- Node9 -->
<g id="node10" class="node"><title>Node9</title>
<g id="a_node10"><a xlink:href="_battleship_royale_2_battleship_royale_2_regex_8h.html" target="_top" xlink:title="Константы регулярных выражений">
<polygon fill="white" stroke="black" points="611.5,-0.5 611.5,-19.5 740.5,-19.5 740.5,-0.5 611.5,-0.5"/>
<text text-anchor="middle" x="676" y="-7.5" font-family="Helvetica,sans-Serif" font-size="10.00">BattleshipRoyale/Regex.h</text>
</a>
</g>
</g>
<!-- Node4&#45;&gt;Node9 -->
<g id="edge9" class="edge"><title>Node4&#45;&gt;Node9</title>
<path fill="none" stroke="midnightblue" d="M484.969,-56.4435C524.319,-47.0826 587.487,-32.0561 630.314,-21.868"/>
<polygon fill="midnightblue" stroke="midnightblue" points="631.281,-25.2358 640.199,-19.5164 629.661,-18.4258 631.281,-25.2358"/>
</g>
<!-- Node10 -->
<g id="node11" class="node"><title>Node10</title>
<g id="a_node11"><a xlink:href="_code_8h.html" target="_top" xlink:title="Различные коды ответов">
<polygon fill="white" stroke="black" points="759,-0.5 759,-19.5 883,-19.5 883,-0.5 759,-0.5"/>
<text text-anchor="middle" x="821" y="-7.5" font-family="Helvetica,sans-Serif" font-size="10.00">BattleshipRoyale/Code.h</text>
</a>
</g>
</g>
<!-- Node4&#45;&gt;Node10 -->
<g id="edge10" class="edge"><title>Node4&#45;&gt;Node10</title>
<path fill="none" stroke="midnightblue" d="M498.015,-57.8849C563.118,-48.4345 678.462,-31.691 752.246,-20.9804"/>
<polygon fill="midnightblue" stroke="midnightblue" points="752.978,-24.4109 762.372,-19.5106 751.973,-17.4835 752.978,-24.4109"/>
</g>
<!-- Node11&#45;&gt;Node1 -->
<g id="edge12" class="edge"><title>Node11&#45;&gt;Node1</title>
<path fill="none" stroke="midnightblue" d="M279.278,-117.975C276.569,-109.492 272.326,-96.2043 268.851,-85.3222"/>
<polygon fill="midnightblue" stroke="midnightblue" points="272.093,-83.9705 265.717,-75.5091 265.425,-86.0999 272.093,-83.9705"/>
</g>
<!-- Node12&#45;&gt;Node1 -->
<g id="edge14" class="edge"><title>Node12&#45;&gt;Node1</title>
<path fill="none" stroke="midnightblue" d="M335.822,-117.975C322.188,-108.431 299.868,-92.8073 283.526,-81.3683"/>
<polygon fill="midnightblue" stroke="midnightblue" points="285.355,-78.3764 275.156,-75.5091 281.341,-84.1111 285.355,-78.3764"/>
</g>
<!-- Node12&#45;&gt;Node4 -->
<g id="edge16" class="edge"><title>Node12&#45;&gt;Node4</title>
<path fill="none" stroke="midnightblue" d="M362.471,-117.975C378.971,-108.255 406.178,-92.2266 425.681,-80.7372"/>
<polygon fill="midnightblue" stroke="midnightblue" points="427.716,-83.6005 434.556,-75.5091 424.163,-77.5693 427.716,-83.6005"/>
</g>
<!-- Node13 -->
<g id="node14" class="node"><title>Node13</title>
<g id="a_node14"><a xlink:title=" ">
<polygon fill="white" stroke="#bfbfbf" points="302,-56.5 302,-75.5 382,-75.5 382,-56.5 302,-56.5"/>
<text text-anchor="middle" x="342" y="-63.5" font-family="Helvetica,sans-Serif" font-size="10.00">boost/asio.hpp</text>
</a>
</g>
</g>
<!-- Node12&#45;&gt;Node13 -->
<g id="edge15" class="edge"><title>Node12&#45;&gt;Node13</title>
<path fill="none" stroke="midnightblue" d="M347.14,-117.975C346.294,-109.58 344.973,-96.4806 343.882,-85.6631"/>
<polygon fill="midnightblue" stroke="midnightblue" points="347.344,-85.1074 342.858,-75.5091 340.379,-85.8098 347.344,-85.1074"/>
</g>
<!-- Node14&#45;&gt;Node4 -->
<g id="edge18" class="edge"><title>Node14&#45;&gt;Node4</title>
<path fill="none" stroke="midnightblue" d="M449,-117.975C449,-109.58 449,-96.4806 449,-85.6631"/>
<polygon fill="midnightblue" stroke="midnightblue" points="452.5,-85.5091 449,-75.5091 445.5,-85.5091 452.5,-85.5091"/>
</g>
</g>
</svg>
        <g id="navigator" transform="translate(0 0)" fill="#404254">
                <rect fill="#f2f5e9" fill-opacity="0.5" stroke="#606060" stroke-width=".5" x="0" y="0" width="60" height="60"/>
                <use id="zoomplus" xlink:href="#zoomPlus" x="17" y="9" onmousedown="handleZoom(evt,'in')"/>
                <use id="zoomminus" xlink:href="#zoomMin" x="42" y="9" onmousedown="handleZoom(evt,'out')"/>
                <use id="reset" xlink:href="#resetDef" x="30" y="36" onmousedown="handleReset()"/>
                <g id="arrowUp" xlink:href="#dirArrow" transform="translate(30 24)" onmousedown="handlePan(0,-1)">
                  <use xlink:href="#rim" fill="#404040">
                        <set attributeName="fill" to="#808080" begin="arrowUp.mouseover" end="arrowUp.mouseout"/>
                  </use>
                  <path fill="none" stroke="white" stroke-width="1.5" d="M0,-3.0v7 M-2.5,-0.5L0,-3.0L2.5,-0.5"/>
                </g>
                <g id="arrowRight" xlink:href="#dirArrow" transform="rotate(90) translate(36 -43)" onmousedown="handlePan(1,0)">
                  <use xlink:href="#rim" fill="#404040">
                        <set attributeName="fill" to="#808080" begin="arrowRight.mouseover" end="arrowRight.mouseout"/>
                  </use>
                  <path fill="none" stroke="white" stroke-width="1.5" d="M0,-3.0v7 M-2.5,-0.5L0,-3.0L2.5,-0.5"/>
                </g>
                <g id="arrowDown" xlink:href="#dirArrow" transform="rotate(180) translate(-30 -48)" onmousedown="handlePan(0,1)">
                  <use xlink:href="#rim" fill="#404040">
                        <set attributeName="fill" to="#808080" begin="arrowDown.mouseover" end="arrowDown.mouseout"/>
                  </use>
                  <path fill="none" stroke="white" stroke-width="1.5" d="M0,-3.0v7 M-2.5,-0.5L0,-3.0L2.5,-0.5"/>
                </g>
                <g id="arrowLeft" xlink:href="#dirArrow" transform="rotate(270) translate(-36 17)" onmousedown="handlePan(-1,0)">
                  <use xlink:href="#rim" fill="#404040">
                        <set attributeName="fill" to="#808080" begin="arrowLeft.mouseover" end="arrowLeft.mouseout"/>
                  </use>
                  <path fill="none" stroke="white" stroke-width="1.5" d="M0,-3.0v7 M-2.5,-0.5L0,-3.0L2.5,-0.5"/>
                </g>
        </g>
        <svg viewBox="0 0 15 15" width="100%" height="30px" preserveAspectRatio="xMaxYMin meet">
         <g id="arrow_out" transform="scale(0.3 0.3)">
          <a xlink:href="client_2src_2_battleship_royale_8cpp__incl_org.svg" target="_base">
           <rect id="button" ry="5" rx="5" y="6" x="6" height="38" width="38"
                fill="#f2f5e9" fill-opacity="0.5" stroke="#606060" stroke-width="1.0"/>
           <path id="arrow"
             d="M 11.500037,31.436501 C 11.940474,20.09759 22.043105,11.32322 32.158766,21.979434 L 37.068811,17.246167 C 37.068811,17.246167 37.088388,32 37.088388,32 L 22.160133,31.978069 C 22.160133,31.978069 26.997745,27.140456 26.997745,27.140456 C 18.528582,18.264221 13.291696,25.230495 11.500037,31.436501 z"
             style="fill:#404040;"/>
          </a>
         </g>
        </svg>
</svg>
