<?xml version="1.0" encoding="UTF-8" standalone="no"?>
<!DOCTYPE svg PUBLIC "-//W3C//DTD SVG 1.1//EN"
 "http://www.w3.org/Graphics/SVG/1.1/DTD/svg11.dtd">
<!-- Generated by graphviz version 2.38.0 (20140413.2041)
 -->
<!-- Title: src/client/src/BattleshipRoyale.cpp Pages: 1 -->
<svg width="572pt" height="106pt"
 viewBox="0.00 0.00 571.50 106.00" xmlns="http://www.w3.org/2000/svg" xmlns:xlink="http://www.w3.org/1999/xlink">
<g id="graph0" class="graph" transform="scale(1 1) rotate(0) translate(4 102)">
<title>src/client/src/BattleshipRoyale.cpp</title>
<polygon fill="white" stroke="none" points="-4,4 -4,-102 567.5,-102 567.5,4 -4,4"/>
<!-- Node0 -->
<g id="node1" class="node"><title>Node0</title>
<g id="a_node1"><a xlink:title="Клиент">
<polygon fill="#bfbfbf" stroke="black" points="196,-67.5 196,-97.5 315,-97.5 315,-67.5 196,-67.5"/>
<text text-anchor="start" x="204" y="-85.5" font-family="Helvetica,sans-Serif" font-size="10.00">src/client/src/Battleship</text>
<text text-anchor="middle" x="255.5" y="-74.5" font-family="Helvetica,sans-Serif" font-size="10.00">Royale.cpp</text>
</a>
</g>
</g>
<!-- Node1 -->
<g id="node2" class="node"><title>Node1</title>
<g id="a_node2"><a xlink:title=" ">
<polygon fill="white" stroke="#bfbfbf" points="0,-6 0,-25 41,-25 41,-6 0,-6"/>
<text text-anchor="middle" x="20.5" y="-13" font-family="Helvetica,sans-Serif" font-size="10.00">string</text>
</a>
</g>
</g>
<!-- Node0&#45;&gt;Node1 -->
<g id="edge1" class="edge"><title>Node0&#45;&gt;Node1</title>
<path fill="none" stroke="midnightblue" d="M195.768,-70.2273C154.345,-61.5803 98.2597,-48.2109 50.5,-31 49.0714,-30.4852 47.6204,-29.9235 46.1665,-29.33"/>
<polygon fill="midnightblue" stroke="midnightblue" points="47.2962,-26.001 36.7389,-25.1101 44.4363,-32.3902 47.2962,-26.001"/>
</g>
<!-- Node2 -->
<g id="node3" class="node"><title>Node2</title>
<g id="a_node3"><a xlink:title=" ">
<polygon fill="white" stroke="#bfbfbf" points="59.5,-6 59.5,-25 139.5,-25 139.5,-6 59.5,-6"/>
<text text-anchor="middle" x="99.5" y="-13" font-family="Helvetica,sans-Serif" font-size="10.00">boost/asio.hpp</text>
</a>
</g>
</g>
<!-- Node0&#45;&gt;Node2 -->
<g id="edge2" class="edge"><title>Node0&#45;&gt;Node2</title>
<path fill="none" stroke="midnightblue" d="M221.65,-67.396C194.157,-55.9405 155.752,-39.9385 129.385,-28.9521"/>
<polygon fill="midnightblue" stroke="midnightblue" points="130.494,-25.6224 119.917,-25.007 127.801,-32.084 130.494,-25.6224"/>
</g>
<!-- Node3 -->
<g id="node4" class="node"><title>Node3</title>
<g id="a_node4"><a xlink:title=" ">
<polygon fill="white" stroke="#bfbfbf" points="158,-6 158,-25 243,-25 243,-6 158,-6"/>
<text text-anchor="middle" x="200.5" y="-13" font-family="Helvetica,sans-Serif" font-size="10.00">spdlog/spdlog.h</text>
</a>
</g>
</g>
<!-- Node0&#45;&gt;Node3 -->
<g id="edge3" class="edge"><title>Node0&#45;&gt;Node3</title>
<path fill="none" stroke="midnightblue" d="M243.566,-67.396C234.99,-57.2611 223.403,-43.5674 214.408,-32.9368"/>
<polygon fill="midnightblue" stroke="midnightblue" points="216.988,-30.5676 207.857,-25.1945 211.645,-35.0892 216.988,-30.5676"/>
</g>
<!-- Node4 -->
<g id="node5" class="node"><title>Node4</title>
<g id="a_node5"><a xlink:title=" ">
<polygon fill="white" stroke="#bfbfbf" points="261.5,-0.5 261.5,-30.5 359.5,-30.5 359.5,-0.5 261.5,-0.5"/>
<text text-anchor="start" x="269.5" y="-18.5" font-family="Helvetica,sans-Serif" font-size="10.00">spdlog/sinks/basic</text>
<text text-anchor="middle" x="310.5" y="-7.5" font-family="Helvetica,sans-Serif" font-size="10.00">_file_sink.h</text>
</a>
</g>
</g>
<!-- Node0&#45;&gt;Node4 -->
<g id="edge4" class="edge"><title>Node0&#45;&gt;Node4</title>
<path fill="none" stroke="midnightblue" d="M267.434,-67.396C274.641,-58.8783 283.976,-47.8469 292.111,-38.2328"/>
<polygon fill="midnightblue" stroke="midnightblue" points="294.802,-40.4712 298.589,-30.5765 289.458,-35.9496 294.802,-40.4712"/>
</g>
<!-- Node5 -->
<g id="node6" class="node"><title>Node5</title>
<g id="a_node6"><a xlink:title=" ">
<polygon fill="white" stroke="#bfbfbf" points="377.5,-6 377.5,-25 447.5,-25 447.5,-6 377.5,-6"/>
<text text-anchor="middle" x="412.5" y="-13" font-family="Helvetica,sans-Serif" font-size="10.00">cxxopts.hpp</text>
</a>
</g>
</g>
<!-- Node0&#45;&gt;Node5 -->
<g id="edge5" class="edge"><title>Node0&#45;&gt;Node5</title>
<path fill="none" stroke="midnightblue" d="M289.567,-67.396C317.236,-55.9405 355.887,-39.9385 382.423,-28.9521"/>
<polygon fill="midnightblue" stroke="midnightblue" points="384.052,-32.0661 391.952,-25.007 381.374,-25.5985 384.052,-32.0661"/>
</g>
<!-- Node6 -->
<g id="node7" class="node"><title>Node6</title>
<g id="a_node7"><a xlink:href="_battleship_royale_8h.html" target="_top" xlink:title="Заголовочный файл с пространством имён, которое хранит в себе константы.">
<polygon fill="white" stroke="black" points="465.5,-6 465.5,-25 563.5,-25 563.5,-6 465.5,-6"/>
<text text-anchor="middle" x="514.5" y="-13" font-family="Helvetica,sans-Serif" font-size="10.00">BattleshipRoyale.h</text>
</a>
</g>
</g>
<!-- Node0&#45;&gt;Node6 -->
<g id="edge6" class="edge"><title>Node0&#45;&gt;Node6</title>
<path fill="none" stroke="midnightblue" d="M311.38,-67.476C359.115,-55.4962 426.834,-38.5011 470.717,-27.4881"/>
<polygon fill="midnightblue" stroke="midnightblue" points="471.669,-30.8576 480.517,-25.0287 469.965,-24.0682 471.669,-30.8576"/>
</g>
</g>
</svg>
