<?xml version="1.0" encoding="UTF-8" standalone="no"?>
<!DOCTYPE svg PUBLIC "-//W3C//DTD SVG 1.1//EN"
 "http://www.w3.org/Graphics/SVG/1.1/DTD/svg11.dtd">
<!-- Generated by graphviz version 2.38.0 (20140413.2041)
 -->
<!-- Title: src/delete/rand_sse.cpp Pages: 1 -->
<svg width="160pt" height="84pt"
 viewBox="0.00 0.00 159.50 84.00" xmlns="http://www.w3.org/2000/svg" xmlns:xlink="http://www.w3.org/1999/xlink">
<g id="graph0" class="graph" transform="scale(1 1) rotate(0) translate(4 80)">
<title>src/delete/rand_sse.cpp</title>
<polygon fill="white" stroke="none" points="-4,4 -4,-80 155.5,-80 155.5,4 -4,4"/>
<!-- Node0 -->
<g id="node1" class="node"><title>Node0</title>
<g id="a_node1"><a xlink:title="Генерация рандомных чисел через SSE.">
<polygon fill="#bfbfbf" stroke="black" points="15.5,-56.5 15.5,-75.5 136.5,-75.5 136.5,-56.5 15.5,-56.5"/>
<text text-anchor="middle" x="76" y="-63.5" font-family="Helvetica,sans-Serif" font-size="10.00">src/delete/rand_sse.cpp</text>
</a>
</g>
</g>
<!-- Node1 -->
<g id="node2" class="node"><title>Node1</title>
<g id="a_node2"><a xlink:title=" ">
<polygon fill="white" stroke="#bfbfbf" points="0,-0.5 0,-19.5 68,-19.5 68,-0.5 0,-0.5"/>
<text text-anchor="middle" x="34" y="-7.5" font-family="Helvetica,sans-Serif" font-size="10.00">emmintrin.h</text>
</a>
</g>
</g>
<!-- Node0&#45;&gt;Node1 -->
<g id="edge1" class="edge"><title>Node0&#45;&gt;Node1</title>
<path fill="none" stroke="midnightblue" d="M69.0646,-56.083C63.0708,-48.3768 54.2482,-37.0333 46.9524,-27.6531"/>
<polygon fill="midnightblue" stroke="midnightblue" points="49.7086,-25.4958 40.8064,-19.7511 44.1831,-29.7934 49.7086,-25.4958"/>
</g>
<!-- Node2 -->
<g id="node3" class="node"><title>Node2</title>
<g id="a_node3"><a xlink:href="rand__sse_8h.html" target="_top" xlink:title="Генерация рандомных чисел через SSE.">
<polygon fill="white" stroke="black" points="86.5,-0.5 86.5,-19.5 151.5,-19.5 151.5,-0.5 86.5,-0.5"/>
<text text-anchor="middle" x="119" y="-7.5" font-family="Helvetica,sans-Serif" font-size="10.00">rand_sse.h</text>
</a>
</g>
</g>
<!-- Node0&#45;&gt;Node2 -->
<g id="edge2" class="edge"><title>Node0&#45;&gt;Node2</title>
<path fill="none" stroke="midnightblue" d="M83.1006,-56.083C89.237,-48.3768 98.2697,-37.0333 105.739,-27.6531"/>
<polygon fill="midnightblue" stroke="midnightblue" points="108.54,-29.7542 112.032,-19.7511 103.064,-25.3936 108.54,-29.7542"/>
</g>
</g>
</svg>
