<?xml version="1.0" encoding="UTF-8" standalone="no"?>
<!DOCTYPE svg PUBLIC "-//W3C//DTD SVG 1.1//EN"
 "http://www.w3.org/Graphics/SVG/1.1/DTD/svg11.dtd">
<!-- Generated by graphviz version 2.38.0 (20140413.2041)
 -->
<!-- Title: src Pages: 1 -->
<svg width="258pt" height="220pt"
 viewBox="0.00 0.00 258.00 220.00" xmlns="http://www.w3.org/2000/svg" xmlns:xlink="http://www.w3.org/1999/xlink">
<g id="graph0" class="graph" transform="scale(1 1) rotate(0) translate(4 216)">
<title>src</title>
<polygon fill="white" stroke="none" points="-4,4 -4,-216 254,-216 254,4 -4,4"/>
<g id="clust1" class="cluster"><title>clusterdir_68267d1309a1af8e8297ef4c3efbcdba</title>
<g id="a_clust1"><a xlink:href="dir_68267d1309a1af8e8297ef4c3efbcdba.html" target="_top">
<polygon fill="#eeeeff" stroke="black" points="8,-8 8,-204 242,-204 242,-8 8,-8"/>
</a>
</g>
</g>
<!-- dir_68267d1309a1af8e8297ef4c3efbcdba -->
<g id="node1" class="node"><title>dir_68267d1309a1af8e8297ef4c3efbcdba</title>
<text text-anchor="middle" x="195" y="-175.5" font-family="Helvetica,sans-Serif" font-size="10.00">src</text>
</g>
<!-- dir_4db07c9d7f8d5a8284ae701bfea002b8 -->
<g id="node2" class="node"><title>dir_4db07c9d7f8d5a8284ae701bfea002b8</title>
<g id="a_node2"><a xlink:href="dir_4db07c9d7f8d5a8284ae701bfea002b8.html" target="_top" xlink:title="BattleshipRoyale">
<polygon fill="white" stroke="black" points="157,-52 67,-52 67,-16 157,-16 157,-52"/>
<text text-anchor="middle" x="112" y="-31.5" font-family="Helvetica,sans-Serif" font-size="10.00">BattleshipRoyale</text>
</a>
</g>
</g>
<!-- dir_6908ff505388a07996d238c763adbdab -->
<g id="node3" class="node"><title>dir_6908ff505388a07996d238c763adbdab</title>
<g id="a_node3"><a xlink:href="dir_6908ff505388a07996d238c763adbdab.html" target="_top" xlink:title="client">
<polygon fill="white" stroke="red" points="234,-124 180,-124 180,-88 234,-88 234,-124"/>
<text text-anchor="middle" x="207" y="-103.5" font-family="Helvetica,sans-Serif" font-size="10.00">client</text>
</a>
</g>
</g>
<!-- dir_6908ff505388a07996d238c763adbdab&#45;&gt;dir_4db07c9d7f8d5a8284ae701bfea002b8 -->
<g id="edge4" class="edge"><title>dir_6908ff505388a07996d238c763adbdab&#45;&gt;dir_4db07c9d7f8d5a8284ae701bfea002b8</title>
<path fill="none" stroke="black" d="M183.517,-87.6966C171.437,-78.796 156.546,-67.8232 143.484,-58.1989"/>
<polygon fill="black" stroke="black" points="145.34,-55.2187 135.213,-52.1043 141.187,-60.8541 145.34,-55.2187"/>
<g id="a_edge4&#45;headlabel"><a xlink:href="dir_000003_000007.html" target="_top" xlink:title="1">
<text text-anchor="middle" x="149.918" y="-52.5652" font-family="Helvetica,sans-Serif" font-size="10.00">1</text>
</a>
</g>
</g>
<!-- dir_6f2a338be031f1a5826289b3e6d326cd -->
<g id="node4" class="node"><title>dir_6f2a338be031f1a5826289b3e6d326cd</title>
<g id="a_node4"><a xlink:href="dir_6f2a338be031f1a5826289b3e6d326cd.html" target="_top" xlink:title="delete">
<polygon fill="white" stroke="black" points="127,-196 73,-196 73,-160 127,-160 127,-196"/>
<text text-anchor="middle" x="100" y="-175.5" font-family="Helvetica,sans-Serif" font-size="10.00">delete</text>
</a>
</g>
</g>
<!-- dir_6f2a338be031f1a5826289b3e6d326cd&#45;&gt;dir_4db07c9d7f8d5a8284ae701bfea002b8 -->
<g id="edge1" class="edge"><title>dir_6f2a338be031f1a5826289b3e6d326cd&#45;&gt;dir_4db07c9d7f8d5a8284ae701bfea002b8</title>
<path fill="none" stroke="black" d="M98.4797,-159.866C97.1948,-141.891 95.9966,-112.852 99,-88 100.023,-79.5349 101.933,-70.4712 103.981,-62.2761"/>
<polygon fill="black" stroke="black" points="107.401,-63.0344 106.591,-52.4705 100.636,-61.2336 107.401,-63.0344"/>
<g id="a_edge1&#45;headlabel"><a xlink:href="dir_000009_000007.html" target="_top" xlink:title="2">
<text text-anchor="middle" x="109.22" y="-64.7384" font-family="Helvetica,sans-Serif" font-size="10.00">2</text>
</a>
</g>
</g>
<!-- dir_075bb3ff235063c77951cd176d15a741 -->
<g id="node5" class="node"><title>dir_075bb3ff235063c77951cd176d15a741</title>
<g id="a_node5"><a xlink:href="dir_075bb3ff235063c77951cd176d15a741.html" target="_top" xlink:title="server">
<polygon fill="white" stroke="red" points="162,-124 108,-124 108,-88 162,-88 162,-124"/>
<text text-anchor="middle" x="135" y="-103.5" font-family="Helvetica,sans-Serif" font-size="10.00">server</text>
</a>
</g>
</g>
<!-- dir_6f2a338be031f1a5826289b3e6d326cd&#45;&gt;dir_075bb3ff235063c77951cd176d15a741 -->
<g id="edge2" class="edge"><title>dir_6f2a338be031f1a5826289b3e6d326cd&#45;&gt;dir_075bb3ff235063c77951cd176d15a741</title>
<path fill="none" stroke="black" d="M108.652,-159.697C112.636,-151.728 117.45,-142.1 121.868,-133.264"/>
<polygon fill="black" stroke="black" points="125.106,-134.614 126.448,-124.104 118.845,-131.483 125.106,-134.614"/>
<g id="a_edge2&#45;headlabel"><a xlink:href="dir_000009_000005.html" target="_top" xlink:title="1">
<text text-anchor="middle" x="126.038" y="-136.599" font-family="Helvetica,sans-Serif" font-size="10.00">1</text>
</a>
</g>
</g>
<!-- dir_075bb3ff235063c77951cd176d15a741&#45;&gt;dir_4db07c9d7f8d5a8284ae701bfea002b8 -->
<g id="edge3" class="edge"><title>dir_075bb3ff235063c77951cd176d15a741&#45;&gt;dir_4db07c9d7f8d5a8284ae701bfea002b8</title>
<path fill="none" stroke="black" d="M129.315,-87.6966C126.752,-79.8979 123.667,-70.5085 120.815,-61.8292"/>
<polygon fill="black" stroke="black" points="124.067,-60.5121 117.62,-52.1043 117.416,-62.6972 124.067,-60.5121"/>
<g id="a_edge3&#45;headlabel"><a xlink:href="dir_000005_000007.html" target="_top" xlink:title="4">
<text text-anchor="middle" x="127.886" y="-60.5408" font-family="Helvetica,sans-Serif" font-size="10.00">4</text>
</a>
</g>
</g>
<!-- dir_3513c77e68d0de165c8b48f945306dcb -->
<g id="node6" class="node"><title>dir_3513c77e68d0de165c8b48f945306dcb</title>
<g id="a_node6"><a xlink:href="dir_3513c77e68d0de165c8b48f945306dcb.html" target="_top" xlink:title="testing">
<polygon fill="white" stroke="red" points="70,-124 16,-124 16,-88 70,-88 70,-124"/>
<text text-anchor="middle" x="43" y="-103.5" font-family="Helvetica,sans-Serif" font-size="10.00">testing</text>
</a>
</g>
</g>
<!-- dir_3513c77e68d0de165c8b48f945306dcb&#45;&gt;dir_4db07c9d7f8d5a8284ae701bfea002b8 -->
<g id="edge5" class="edge"><title>dir_3513c77e68d0de165c8b48f945306dcb&#45;&gt;dir_4db07c9d7f8d5a8284ae701bfea002b8</title>
<path fill="none" stroke="black" d="M60.0562,-87.6966C68.4955,-79.135 78.8246,-68.6562 88.0427,-59.3045"/>
<polygon fill="black" stroke="black" points="90.6126,-61.6831 95.14,-52.1043 85.6273,-56.7691 90.6126,-61.6831"/>
<g id="a_edge5&#45;headlabel"><a xlink:href="dir_000001_000007.html" target="_top" xlink:title="1">
<text text-anchor="middle" x="90.1112" y="-63.7363" font-family="Helvetica,sans-Serif" font-size="10.00">1</text>
</a>
</g>
</g>
</g>
</svg>
