<?xml version="1.0" encoding="UTF-8" standalone="no"?>
<!DOCTYPE svg PUBLIC "-//W3C//DTD SVG 1.1//EN"
 "http://www.w3.org/Graphics/SVG/1.1/DTD/svg11.dtd">
<!-- Generated by graphviz version 2.38.0 (20140413.2041)
 -->
<!-- Title: src/client/src Pages: 1 -->
<svg width="200pt" height="183pt"
 viewBox="0.00 0.00 200.00 183.00" xmlns="http://www.w3.org/2000/svg" xmlns:xlink="http://www.w3.org/1999/xlink">
<g id="graph0" class="graph" transform="scale(1 1) rotate(0) translate(4 179)">
<title>src/client/src</title>
<polygon fill="white" stroke="none" points="-4,4 -4,-179 196,-179 196,4 -4,4"/>
<g id="clust1" class="cluster"><title>clusterdir_6908ff505388a07996d238c763adbdab</title>
<g id="a_clust1"><a xlink:href="dir_6908ff505388a07996d238c763adbdab.html" target="_top" xlink:title="client">
<polygon fill="#ddddee" stroke="black" points="8,-8 8,-167 94,-167 94,-8 8,-8"/>
<text text-anchor="middle" x="51" y="-155" font-family="Helvetica,sans-Serif" font-size="10.00">client</text>
</a>
</g>
</g>
<g id="clust2" class="cluster"><title>clusterdir_78ce3fde11f1c50580f2f2c408f37c2f</title>
<g id="a_clust2"><a xlink:href="dir_78ce3fde11f1c50580f2f2c408f37c2f.html" target="_top">
<polygon fill="#eeeeff" stroke="black" points="16,-16 16,-140 86,-140 86,-16 16,-16"/>
</a>
</g>
</g>
<!-- dir_78ce3fde11f1c50580f2f2c408f37c2f -->
<g id="node1" class="node"><title>dir_78ce3fde11f1c50580f2f2c408f37c2f</title>
<text text-anchor="middle" x="51" y="-111.5" font-family="Helvetica,sans-Serif" font-size="10.00">src</text>
</g>
<!-- dir_d860508770b4053c626a0e28e821ab1a -->
<g id="node2" class="node"><title>dir_d860508770b4053c626a0e28e821ab1a</title>
<g id="a_node2"><a xlink:href="dir_d860508770b4053c626a0e28e821ab1a.html" target="_top" xlink:title="test">
<polygon fill="white" stroke="black" points="78,-60 24,-60 24,-24 78,-24 78,-60"/>
<text text-anchor="middle" x="51" y="-39.5" font-family="Helvetica,sans-Serif" font-size="10.00">test</text>
</a>
</g>
</g>
<!-- dir_78ce3fde11f1c50580f2f2c408f37c2f&#45;&gt;dir_d860508770b4053c626a0e28e821ab1a -->
<g id="edge2" class="edge"><title>dir_78ce3fde11f1c50580f2f2c408f37c2f&#45;&gt;dir_d860508770b4053c626a0e28e821ab1a</title>
<path fill="none" stroke="black" d="M51,-95.6966C51,-87.9827 51,-78.7125 51,-70.1124"/>
<polygon fill="black" stroke="black" points="54.5001,-70.1043 51,-60.1043 47.5001,-70.1044 54.5001,-70.1043"/>
<g id="a_edge2&#45;headlabel"><a xlink:href="dir_000006_000010.html" target="_top" xlink:title="2">
<text text-anchor="middle" x="57.3393" y="-71.199" font-family="Helvetica,sans-Serif" font-size="10.00">2</text>
</a>
</g>
</g>
<!-- dir_4db07c9d7f8d5a8284ae701bfea002b8 -->
<g id="node3" class="node"><title>dir_4db07c9d7f8d5a8284ae701bfea002b8</title>
<g id="a_node3"><a xlink:href="dir_4db07c9d7f8d5a8284ae701bfea002b8.html" target="_top" xlink:title="BattleshipRoyale">
<polygon fill="white" stroke="red" points="192,-60 102,-60 102,-24 192,-24 192,-60"/>
<text text-anchor="middle" x="147" y="-39.5" font-family="Helvetica,sans-Serif" font-size="10.00">BattleshipRoyale</text>
</a>
</g>
</g>
<!-- dir_78ce3fde11f1c50580f2f2c408f37c2f&#45;&gt;dir_4db07c9d7f8d5a8284ae701bfea002b8 -->
<g id="edge1" class="edge"><title>dir_78ce3fde11f1c50580f2f2c408f37c2f&#45;&gt;dir_4db07c9d7f8d5a8284ae701bfea002b8</title>
<path fill="none" stroke="black" d="M74.7303,-95.6966C86.937,-86.796 101.985,-75.8232 115.184,-66.1989"/>
<polygon fill="black" stroke="black" points="117.525,-68.8241 123.543,-60.1043 113.4,-63.1681 117.525,-68.8241"/>
<g id="a_edge1&#45;headlabel"><a xlink:href="dir_000006_000001.html" target="_top" xlink:title="4">
<text text-anchor="middle" x="116.293" y="-70.7361" font-family="Helvetica,sans-Serif" font-size="10.00">4</text>
</a>
</g>
</g>
</g>
</svg>
