<?xml version="1.0" encoding="UTF-8" standalone="no"?>
<!DOCTYPE svg PUBLIC "-//W3C//DTD SVG 1.1//EN"
 "http://www.w3.org/Graphics/SVG/1.1/DTD/svg11.dtd">
<!-- Generated by graphviz version 2.38.0 (20140413.2041)
 -->
<!-- Title: delete Pages: 1 -->
<svg width="108pt" height="223pt"
 viewBox="0.00 0.00 108.00 223.00" xmlns="http://www.w3.org/2000/svg" xmlns:xlink="http://www.w3.org/1999/xlink">
<g id="graph0" class="graph" transform="scale(1 1) rotate(0) translate(4 219)">
<title>delete</title>
<polygon fill="white" stroke="none" points="-4,4 -4,-219 104,-219 104,4 -4,4"/>
<g id="clust1" class="cluster"><title>clusterdir_68267d1309a1af8e8297ef4c3efbcdba</title>
<g id="a_clust1"><a xlink:href="dir_68267d1309a1af8e8297ef4c3efbcdba.html" target="_top" xlink:title="src">
<polygon fill="#ddddee" stroke="black" points="10,-136 10,-207 80,-207 80,-136 10,-136"/>
<text text-anchor="middle" x="45" y="-195" font-family="Helvetica,sans-Serif" font-size="10.00">src</text>
</a>
</g>
</g>
<!-- dir_6f2a338be031f1a5826289b3e6d326cd -->
<g id="node1" class="node"><title>dir_6f2a338be031f1a5826289b3e6d326cd</title>
<g id="a_node1"><a xlink:href="dir_6f2a338be031f1a5826289b3e6d326cd.html" target="_top" xlink:title="delete">
<polygon fill="#eeeeff" stroke="black" points="72,-180 18,-180 18,-144 72,-144 72,-180"/>
<text text-anchor="middle" x="45" y="-159.5" font-family="Helvetica,sans-Serif" font-size="10.00">delete</text>
</a>
</g>
</g>
<!-- dir_4db07c9d7f8d5a8284ae701bfea002b8 -->
<g id="node2" class="node"><title>dir_4db07c9d7f8d5a8284ae701bfea002b8</title>
<g id="a_node2"><a xlink:href="dir_4db07c9d7f8d5a8284ae701bfea002b8.html" target="_top" xlink:title="BattleshipRoyale">
<polygon fill="none" stroke="black" points="90,-36 0,-36 0,-0 90,-0 90,-36"/>
<text text-anchor="middle" x="45" y="-15.5" font-family="Helvetica,sans-Serif" font-size="10.00">BattleshipRoyale</text>
</a>
</g>
</g>
<!-- dir_6f2a338be031f1a5826289b3e6d326cd&#45;&gt;dir_4db07c9d7f8d5a8284ae701bfea002b8 -->
<g id="edge1" class="edge"><title>dir_6f2a338be031f1a5826289b3e6d326cd&#45;&gt;dir_4db07c9d7f8d5a8284ae701bfea002b8</title>
<path fill="none" stroke="black" d="M41.7517,-143.888C39.9542,-133.542 37.9053,-120.063 37,-108 35.8026,-92.0449 35.8026,-87.9551 37,-72 37.6366,-63.5179 38.8384,-54.3361 40.1208,-46.0356"/>
<polygon fill="black" stroke="black" points="43.5836,-46.5472 41.7517,-36.1119 36.6763,-45.412 43.5836,-46.5472"/>
<g id="a_edge1&#45;headlabel"><a xlink:href="dir_000009_000007.html" target="_top" xlink:title="2">
<text text-anchor="middle" x="45.8024" y="-48.0546" font-family="Helvetica,sans-Serif" font-size="10.00">2</text>
</a>
</g>
</g>
<!-- dir_075bb3ff235063c77951cd176d15a741 -->
<g id="node3" class="node"><title>dir_075bb3ff235063c77951cd176d15a741</title>
<g id="a_node3"><a xlink:href="dir_075bb3ff235063c77951cd176d15a741.html" target="_top" xlink:title="server">
<polygon fill="white" stroke="red" points="100,-108 46,-108 46,-72 100,-72 100,-108"/>
<text text-anchor="middle" x="73" y="-87.5" font-family="Helvetica,sans-Serif" font-size="10.00">server</text>
</a>
</g>
</g>
<!-- dir_6f2a338be031f1a5826289b3e6d326cd&#45;&gt;dir_075bb3ff235063c77951cd176d15a741 -->
<g id="edge2" class="edge"><title>dir_6f2a338be031f1a5826289b3e6d326cd&#45;&gt;dir_075bb3ff235063c77951cd176d15a741</title>
<path fill="none" stroke="black" d="M51.9214,-143.697C55.0747,-135.813 58.8783,-126.304 62.3814,-117.546"/>
<polygon fill="black" stroke="black" points="65.694,-118.689 66.1583,-108.104 59.1946,-116.089 65.694,-118.689"/>
<g id="a_edge2&#45;headlabel"><a xlink:href="dir_000009_000005.html" target="_top" xlink:title="1">
<text text-anchor="middle" x="66.9952" y="-120.581" font-family="Helvetica,sans-Serif" font-size="10.00">1</text>
</a>
</g>
</g>
<!-- dir_075bb3ff235063c77951cd176d15a741&#45;&gt;dir_4db07c9d7f8d5a8284ae701bfea002b8 -->
<g id="edge3" class="edge"><title>dir_075bb3ff235063c77951cd176d15a741&#45;&gt;dir_4db07c9d7f8d5a8284ae701bfea002b8</title>
<path fill="none" stroke="black" d="M66.0786,-71.6966C62.9253,-63.8132 59.1217,-54.3042 55.6186,-45.5464"/>
<polygon fill="black" stroke="black" points="58.8054,-44.0892 51.8417,-36.1043 52.306,-46.689 58.8054,-44.0892"/>
<g id="a_edge3&#45;headlabel"><a xlink:href="dir_000005_000007.html" target="_top" xlink:title="4">
<text text-anchor="middle" x="62.7765" y="-43.8723" font-family="Helvetica,sans-Serif" font-size="10.00">4</text>
</a>
</g>
</g>
</g>
</svg>
