<?xml version="1.0" encoding="UTF-8" standalone="no"?>
<!DOCTYPE svg PUBLIC "-//W3C//DTD SVG 1.1//EN"
 "http://www.w3.org/Graphics/SVG/1.1/DTD/svg11.dtd">
<!-- Generated by graphviz version 2.38.0 (20140413.2041)
 -->
<!-- Title: src Pages: 1 -->
<svg width="258pt" height="220pt"
 viewBox="0.00 0.00 258.00 220.00" xmlns="http://www.w3.org/2000/svg" xmlns:xlink="http://www.w3.org/1999/xlink">
<g id="graph0" class="graph" transform="scale(1 1) rotate(0) translate(4 216)">
<title>src</title>
<polygon fill="white" stroke="none" points="-4,4 -4,-216 254,-216 254,4 -4,4"/>
<g id="clust1" class="cluster"><title>clusterdir_68267d1309a1af8e8297ef4c3efbcdba</title>
<g id="a_clust1"><a xlink:href="dir_68267d1309a1af8e8297ef4c3efbcdba.html" target="_top">
<polygon fill="#eeeeff" stroke="black" points="8,-8 8,-204 242,-204 242,-8 8,-8"/>
</a>
</g>
</g>
<!-- dir_68267d1309a1af8e8297ef4c3efbcdba -->
<g id="node1" class="node"><title>dir_68267d1309a1af8e8297ef4c3efbcdba</title>
<text text-anchor="middle" x="207" y="-175.5" font-family="Helvetica,sans-Serif" font-size="10.00">src</text>
</g>
<!-- dir_4db07c9d7f8d5a8284ae701bfea002b8 -->
<g id="node2" class="node"><title>dir_4db07c9d7f8d5a8284ae701bfea002b8</title>
<g id="a_node2"><a xlink:href="dir_4db07c9d7f8d5a8284ae701bfea002b8.html" target="_top" xlink:title="BattleshipRoyale">
<polygon fill="white" stroke="black" points="183,-52 93,-52 93,-16 183,-16 183,-52"/>
<text text-anchor="middle" x="138" y="-31.5" font-family="Helvetica,sans-Serif" font-size="10.00">BattleshipRoyale</text>
</a>
</g>
</g>
<!-- dir_6908ff505388a07996d238c763adbdab -->
<g id="node3" class="node"><title>dir_6908ff505388a07996d238c763adbdab</title>
<g id="a_node3"><a xlink:href="dir_6908ff505388a07996d238c763adbdab.html" target="_top" xlink:title="client">
<polygon fill="white" stroke="red" points="234,-124 180,-124 180,-88 234,-88 234,-124"/>
<text text-anchor="middle" x="207" y="-103.5" font-family="Helvetica,sans-Serif" font-size="10.00">client</text>
</a>
</g>
</g>
<!-- dir_6908ff505388a07996d238c763adbdab&#45;&gt;dir_4db07c9d7f8d5a8284ae701bfea002b8 -->
<g id="edge4" class="edge"><title>dir_6908ff505388a07996d238c763adbdab&#45;&gt;dir_4db07c9d7f8d5a8284ae701bfea002b8</title>
<path fill="none" stroke="black" d="M189.944,-87.6966C181.505,-79.135 171.175,-68.6562 161.957,-59.3045"/>
<polygon fill="black" stroke="black" points="164.373,-56.7691 154.86,-52.1043 159.387,-61.6831 164.373,-56.7691"/>
<g id="a_edge4&#45;headlabel"><a xlink:href="dir_000002_000001.html" target="_top" xlink:title="1">
<text text-anchor="middle" x="168.918" y="-54.8359" font-family="Helvetica,sans-Serif" font-size="10.00">1</text>
</a>
</g>
</g>
<!-- dir_6f2a338be031f1a5826289b3e6d326cd -->
<g id="node4" class="node"><title>dir_6f2a338be031f1a5826289b3e6d326cd</title>
<g id="a_node4"><a xlink:href="dir_6f2a338be031f1a5826289b3e6d326cd.html" target="_top" xlink:title="delete">
<polygon fill="white" stroke="black" points="162,-196 108,-196 108,-160 162,-160 162,-196"/>
<text text-anchor="middle" x="135" y="-175.5" font-family="Helvetica,sans-Serif" font-size="10.00">delete</text>
</a>
</g>
</g>
<!-- dir_6f2a338be031f1a5826289b3e6d326cd&#45;&gt;dir_4db07c9d7f8d5a8284ae701bfea002b8 -->
<g id="edge1" class="edge"><title>dir_6f2a338be031f1a5826289b3e6d326cd&#45;&gt;dir_4db07c9d7f8d5a8284ae701bfea002b8</title>
<path fill="none" stroke="black" d="M141.652,-159.628C145.203,-149.421 149.203,-136.171 151,-124 153.337,-108.172 152.92,-103.884 151,-88 149.977,-79.5349 148.067,-70.4712 146.019,-62.2761"/>
<polygon fill="black" stroke="black" points="149.364,-61.2336 143.409,-52.4705 142.599,-63.0344 149.364,-61.2336"/>
<g id="a_edge1&#45;headlabel"><a xlink:href="dir_000006_000001.html" target="_top" xlink:title="2">
<text text-anchor="middle" x="153.032" y="-61.4769" font-family="Helvetica,sans-Serif" font-size="10.00">2</text>
</a>
</g>
</g>
<!-- dir_075bb3ff235063c77951cd176d15a741 -->
<g id="node6" class="node"><title>dir_075bb3ff235063c77951cd176d15a741</title>
<g id="a_node6"><a xlink:href="dir_075bb3ff235063c77951cd176d15a741.html" target="_top" xlink:title="server">
<polygon fill="white" stroke="red" points="142,-124 88,-124 88,-88 142,-88 142,-124"/>
<text text-anchor="middle" x="115" y="-103.5" font-family="Helvetica,sans-Serif" font-size="10.00">server</text>
</a>
</g>
</g>
<!-- dir_6f2a338be031f1a5826289b3e6d326cd&#45;&gt;dir_075bb3ff235063c77951cd176d15a741 -->
<g id="edge2" class="edge"><title>dir_6f2a338be031f1a5826289b3e6d326cd&#45;&gt;dir_075bb3ff235063c77951cd176d15a741</title>
<path fill="none" stroke="black" d="M130.056,-159.697C127.828,-151.898 125.145,-142.509 122.665,-133.829"/>
<polygon fill="black" stroke="black" points="126,-132.758 119.887,-124.104 119.269,-134.681 126,-132.758"/>
<g id="a_edge2&#45;headlabel"><a xlink:href="dir_000006_000004.html" target="_top" xlink:title="1">
<text text-anchor="middle" x="129.717" y="-132.934" font-family="Helvetica,sans-Serif" font-size="10.00">1</text>
</a>
</g>
</g>
<!-- dir_e931c1a3f0014e624d0645a271726ad2 -->
<g id="node5" class="node"><title>dir_e931c1a3f0014e624d0645a271726ad2</title>
<g id="a_node5"><a xlink:href="dir_e931c1a3f0014e624d0645a271726ad2.html" target="_top" xlink:title="examples">
<polygon fill="white" stroke="black" points="89.5,-196 30.5,-196 30.5,-160 89.5,-160 89.5,-196"/>
<text text-anchor="middle" x="60" y="-175.5" font-family="Helvetica,sans-Serif" font-size="10.00">examples</text>
</a>
</g>
</g>
<!-- dir_e931c1a3f0014e624d0645a271726ad2&#45;&gt;dir_075bb3ff235063c77951cd176d15a741 -->
<g id="edge5" class="edge"><title>dir_e931c1a3f0014e624d0645a271726ad2&#45;&gt;dir_075bb3ff235063c77951cd176d15a741</title>
<path fill="none" stroke="black" d="M73.5955,-159.697C80.1227,-151.389 88.068,-141.277 95.2466,-132.141"/>
<polygon fill="black" stroke="black" points="98.1347,-134.13 101.561,-124.104 92.6305,-129.805 98.1347,-134.13"/>
<g id="a_edge5&#45;headlabel"><a xlink:href="dir_000007_000004.html" target="_top" xlink:title="3">
<text text-anchor="middle" x="98.1465" y="-136.211" font-family="Helvetica,sans-Serif" font-size="10.00">3</text>
</a>
</g>
</g>
<!-- dir_075bb3ff235063c77951cd176d15a741&#45;&gt;dir_4db07c9d7f8d5a8284ae701bfea002b8 -->
<g id="edge3" class="edge"><title>dir_075bb3ff235063c77951cd176d15a741&#45;&gt;dir_4db07c9d7f8d5a8284ae701bfea002b8</title>
<path fill="none" stroke="black" d="M120.685,-87.6966C123.248,-79.8979 126.333,-70.5085 129.185,-61.8292"/>
<polygon fill="black" stroke="black" points="132.584,-62.6972 132.38,-52.1043 125.933,-60.5121 132.584,-62.6972"/>
<g id="a_edge3&#45;headlabel"><a xlink:href="dir_000004_000001.html" target="_top" xlink:title="8">
<text text-anchor="middle" x="134.159" y="-64.4985" font-family="Helvetica,sans-Serif" font-size="10.00">8</text>
</a>
</g>
</g>
<!-- dir_3513c77e68d0de165c8b48f945306dcb -->
<g id="node7" class="node"><title>dir_3513c77e68d0de165c8b48f945306dcb</title>
<g id="a_node7"><a xlink:href="dir_3513c77e68d0de165c8b48f945306dcb.html" target="_top" xlink:title="testing">
<polygon fill="white" stroke="red" points="70,-124 16,-124 16,-88 70,-88 70,-124"/>
<text text-anchor="middle" x="43" y="-103.5" font-family="Helvetica,sans-Serif" font-size="10.00">testing</text>
</a>
</g>
</g>
<!-- dir_3513c77e68d0de165c8b48f945306dcb&#45;&gt;dir_4db07c9d7f8d5a8284ae701bfea002b8 -->
<g id="edge6" class="edge"><title>dir_3513c77e68d0de165c8b48f945306dcb&#45;&gt;dir_4db07c9d7f8d5a8284ae701bfea002b8</title>
<path fill="none" stroke="black" d="M66.4832,-87.6966C78.5626,-78.796 93.4542,-67.8232 106.516,-58.1989"/>
<polygon fill="black" stroke="black" points="108.813,-60.8541 114.787,-52.1043 104.66,-55.2187 108.813,-60.8541"/>
<g id="a_edge6&#45;headlabel"><a xlink:href="dir_000008_000001.html" target="_top" xlink:title="2">
<text text-anchor="middle" x="107.603" y="-62.7721" font-family="Helvetica,sans-Serif" font-size="10.00">2</text>
</a>
</g>
</g>
</g>
</svg>
