<?xml version="1.0" encoding="UTF-8" standalone="no"?>
<!DOCTYPE svg PUBLIC "-//W3C//DTD SVG 1.1//EN"
 "http://www.w3.org/Graphics/SVG/1.1/DTD/svg11.dtd">
<!-- Generated by graphviz version 2.38.0 (20140413.2041)
 -->
<!-- Title: src/server/src Pages: 1 -->
<svg width="200pt" height="183pt"
 viewBox="0.00 0.00 200.00 183.00" xmlns="http://www.w3.org/2000/svg" xmlns:xlink="http://www.w3.org/1999/xlink">
<g id="graph0" class="graph" transform="scale(1 1) rotate(0) translate(4 179)">
<title>src/server/src</title>
<polygon fill="white" stroke="none" points="-4,4 -4,-179 196,-179 196,4 -4,4"/>
<g id="clust1" class="cluster"><title>clusterdir_075bb3ff235063c77951cd176d15a741</title>
<g id="a_clust1"><a xlink:href="dir_075bb3ff235063c77951cd176d15a741.html" target="_top" xlink:title="server">
<polygon fill="#ddddee" stroke="black" points="8,-8 8,-167 94,-167 94,-8 8,-8"/>
<text text-anchor="middle" x="51" y="-155" font-family="Helvetica,sans-Serif" font-size="10.00">server</text>
</a>
</g>
</g>
<g id="clust2" class="cluster"><title>clusterdir_aec46070e25e2e5fb0789c4048a4272f</title>
<g id="a_clust2"><a xlink:href="dir_aec46070e25e2e5fb0789c4048a4272f.html" target="_top">
<polygon fill="#eeeeff" stroke="black" points="16,-16 16,-140 86,-140 86,-16 16,-16"/>
</a>
</g>
</g>
<!-- dir_aec46070e25e2e5fb0789c4048a4272f -->
<g id="node1" class="node"><title>dir_aec46070e25e2e5fb0789c4048a4272f</title>
<text text-anchor="middle" x="51" y="-111.5" font-family="Helvetica,sans-Serif" font-size="10.00">src</text>
</g>
<!-- dir_31b8a48905bf7a452336c0b9c37b0a6b -->
<g id="node2" class="node"><title>dir_31b8a48905bf7a452336c0b9c37b0a6b</title>
<g id="a_node2"><a xlink:href="dir_31b8a48905bf7a452336c0b9c37b0a6b.html" target="_top" xlink:title="check">
<polygon fill="white" stroke="black" points="78,-60 24,-60 24,-24 78,-24 78,-60"/>
<text text-anchor="middle" x="51" y="-39.5" font-family="Helvetica,sans-Serif" font-size="10.00">check</text>
</a>
</g>
</g>
<!-- dir_aec46070e25e2e5fb0789c4048a4272f&#45;&gt;dir_31b8a48905bf7a452336c0b9c37b0a6b -->
<g id="edge2" class="edge"><title>dir_aec46070e25e2e5fb0789c4048a4272f&#45;&gt;dir_31b8a48905bf7a452336c0b9c37b0a6b</title>
<path fill="none" stroke="black" d="M51,-95.6966C51,-87.9827 51,-78.7125 51,-70.1124"/>
<polygon fill="black" stroke="black" points="54.5001,-70.1043 51,-60.1043 47.5001,-70.1044 54.5001,-70.1043"/>
<g id="a_edge2&#45;headlabel"><a xlink:href="dir_000004_000019.html" target="_top" xlink:title="1">
<text text-anchor="middle" x="57.3393" y="-71.199" font-family="Helvetica,sans-Serif" font-size="10.00">1</text>
</a>
</g>
</g>
<!-- dir_4db07c9d7f8d5a8284ae701bfea002b8 -->
<g id="node3" class="node"><title>dir_4db07c9d7f8d5a8284ae701bfea002b8</title>
<g id="a_node3"><a xlink:href="dir_4db07c9d7f8d5a8284ae701bfea002b8.html" target="_top" xlink:title="BattleshipRoyale">
<polygon fill="white" stroke="red" points="192,-60 102,-60 102,-24 192,-24 192,-60"/>
<text text-anchor="middle" x="147" y="-39.5" font-family="Helvetica,sans-Serif" font-size="10.00">BattleshipRoyale</text>
</a>
</g>
</g>
<!-- dir_aec46070e25e2e5fb0789c4048a4272f&#45;&gt;dir_4db07c9d7f8d5a8284ae701bfea002b8 -->
<g id="edge1" class="edge"><title>dir_aec46070e25e2e5fb0789c4048a4272f&#45;&gt;dir_4db07c9d7f8d5a8284ae701bfea002b8</title>
<path fill="none" stroke="black" d="M74.7303,-95.6966C86.937,-86.796 101.985,-75.8232 115.184,-66.1989"/>
<polygon fill="black" stroke="black" points="117.525,-68.8241 123.543,-60.1043 113.4,-63.1681 117.525,-68.8241"/>
<g id="a_edge1&#45;headlabel"><a xlink:href="dir_000004_000001.html" target="_top" xlink:title="11">
<text text-anchor="middle" x="116.293" y="-70.7361" font-family="Helvetica,sans-Serif" font-size="10.00">11</text>
</a>
</g>
</g>
</g>
</svg>
