<?xml version="1.0" encoding="UTF-8" standalone="no"?>
<!DOCTYPE svg PUBLIC "-//W3C//DTD SVG 1.1//EN"
 "http://www.w3.org/Graphics/SVG/1.1/DTD/svg11.dtd">
<!-- Generated by graphviz version 2.38.0 (20140413.2041)
 -->
<!-- Title: src/opportunity_check Pages: 1 -->
<svg width="744pt" height="159pt"
 viewBox="0.00 0.00 744.00 159.00" xmlns="http://www.w3.org/2000/svg" xmlns:xlink="http://www.w3.org/1999/xlink">
<g id="graph0" class="graph" transform="scale(1 1) rotate(0) translate(4 155)">
<title>src/opportunity_check</title>
<polygon fill="white" stroke="none" points="-4,4 -4,-155 740,-155 740,4 -4,4"/>
<g id="clust1" class="cluster"><title>clusterdir_68267d1309a1af8e8297ef4c3efbcdba</title>
<g id="a_clust1"><a xlink:href="dir_68267d1309a1af8e8297ef4c3efbcdba.html" target="_top" xlink:title="src">
<polygon fill="#ddddee" stroke="black" points="8,-56 8,-143 728,-143 728,-56 8,-56"/>
<text text-anchor="middle" x="368" y="-131" font-family="Helvetica,sans-Serif" font-size="10.00">src</text>
</a>
</g>
</g>
<g id="clust2" class="cluster"><title>clusterdir_41ce542479d7ec913f8811ed39e68c4c</title>
<g id="a_clust2"><a xlink:href="dir_41ce542479d7ec913f8811ed39e68c4c.html" target="_top">
<polygon fill="#eeeeff" stroke="black" points="16,-64 16,-116 720,-116 720,-64 16,-64"/>
</a>
</g>
</g>
<!-- dir_41ce542479d7ec913f8811ed39e68c4c -->
<g id="node1" class="node"><title>dir_41ce542479d7ec913f8811ed39e68c4c</title>
<text text-anchor="middle" x="664" y="-87.5" font-family="Helvetica,sans-Serif" font-size="10.00">opportunity_check</text>
</g>
<!-- dir_74bf30d37e8891ccce15739a82d453ff -->
<g id="node2" class="node"><title>dir_74bf30d37e8891ccce15739a82d453ff</title>
<g id="a_node2"><a xlink:href="dir_74bf30d37e8891ccce15739a82d453ff.html" target="_top" xlink:title="client">
<polygon fill="white" stroke="black" points="598,-108 544,-108 544,-72 598,-72 598,-108"/>
<text text-anchor="middle" x="571" y="-87.5" font-family="Helvetica,sans-Serif" font-size="10.00">client</text>
</a>
</g>
</g>
<!-- dir_f88bcb81e49c786c9c05bdc02076f038 -->
<g id="node3" class="node"><title>dir_f88bcb81e49c786c9c05bdc02076f038</title>
<g id="a_node3"><a xlink:href="dir_f88bcb81e49c786c9c05bdc02076f038.html" target="_top" xlink:title="console">
<polygon fill="white" stroke="black" points="526,-108 472,-108 472,-72 526,-72 526,-108"/>
<text text-anchor="middle" x="499" y="-87.5" font-family="Helvetica,sans-Serif" font-size="10.00">console</text>
</a>
</g>
</g>
<!-- dir_40ed600c14e7ca17acf346f1f3454c46 -->
<g id="node4" class="node"><title>dir_40ed600c14e7ca17acf346f1f3454c46</title>
<g id="a_node4"><a xlink:href="dir_40ed600c14e7ca17acf346f1f3454c46.html" target="_top" xlink:title="memorydb">
<polygon fill="white" stroke="black" points="454,-108 392,-108 392,-72 454,-72 454,-108"/>
<text text-anchor="middle" x="423" y="-87.5" font-family="Helvetica,sans-Serif" font-size="10.00">memorydb</text>
</a>
</g>
</g>
<!-- dir_4db07c9d7f8d5a8284ae701bfea002b8 -->
<g id="node10" class="node"><title>dir_4db07c9d7f8d5a8284ae701bfea002b8</title>
<g id="a_node10"><a xlink:href="dir_4db07c9d7f8d5a8284ae701bfea002b8.html" target="_top" xlink:title="BattleshipRoyale">
<polygon fill="white" stroke="red" points="430,-36 340,-36 340,-0 430,-0 430,-36"/>
<text text-anchor="middle" x="385" y="-15.5" font-family="Helvetica,sans-Serif" font-size="10.00">BattleshipRoyale</text>
</a>
</g>
</g>
<!-- dir_40ed600c14e7ca17acf346f1f3454c46&#45;&gt;dir_4db07c9d7f8d5a8284ae701bfea002b8 -->
<g id="edge1" class="edge"><title>dir_40ed600c14e7ca17acf346f1f3454c46&#45;&gt;dir_4db07c9d7f8d5a8284ae701bfea002b8</title>
<path fill="none" stroke="black" d="M413.607,-71.6966C409.235,-63.6436 403.943,-53.8945 399.105,-44.9824"/>
<polygon fill="black" stroke="black" points="402.132,-43.223 394.285,-36.1043 395.98,-46.5627 402.132,-43.223"/>
<g id="a_edge1&#45;headlabel"><a xlink:href="dir_000016_000001.html" target="_top" xlink:title="2">
<text text-anchor="middle" x="406.342" y="-42.5276" font-family="Helvetica,sans-Serif" font-size="10.00">2</text>
</a>
</g>
</g>
<!-- dir_8575704b431d10a642e7a8d8a8c17095 -->
<g id="node5" class="node"><title>dir_8575704b431d10a642e7a8d8a8c17095</title>
<g id="a_node5"><a xlink:href="dir_8575704b431d10a642e7a8d8a8c17095.html" target="_top" xlink:title="minidb">
<polygon fill="white" stroke="black" points="374,-108 320,-108 320,-72 374,-72 374,-108"/>
<text text-anchor="middle" x="347" y="-87.5" font-family="Helvetica,sans-Serif" font-size="10.00">minidb</text>
</a>
</g>
</g>
<!-- dir_8575704b431d10a642e7a8d8a8c17095&#45;&gt;dir_4db07c9d7f8d5a8284ae701bfea002b8 -->
<g id="edge2" class="edge"><title>dir_8575704b431d10a642e7a8d8a8c17095&#45;&gt;dir_4db07c9d7f8d5a8284ae701bfea002b8</title>
<path fill="none" stroke="black" d="M356.393,-71.6966C360.765,-63.6436 366.057,-53.8945 370.895,-44.9824"/>
<polygon fill="black" stroke="black" points="374.02,-46.5627 375.715,-36.1043 367.868,-43.223 374.02,-46.5627"/>
<g id="a_edge2&#45;headlabel"><a xlink:href="dir_000012_000001.html" target="_top" xlink:title="2">
<text text-anchor="middle" x="374.8" y="-48.5764" font-family="Helvetica,sans-Serif" font-size="10.00">2</text>
</a>
</g>
</g>
<!-- dir_95c5d2c8cedb2dc0f5f7f44a26572253 -->
<g id="node6" class="node"><title>dir_95c5d2c8cedb2dc0f5f7f44a26572253</title>
<g id="a_node6"><a xlink:href="dir_95c5d2c8cedb2dc0f5f7f44a26572253.html" target="_top" xlink:title="regex">
<polygon fill="white" stroke="black" points="302,-108 248,-108 248,-72 302,-72 302,-108"/>
<text text-anchor="middle" x="275" y="-87.5" font-family="Helvetica,sans-Serif" font-size="10.00">regex</text>
</a>
</g>
</g>
<!-- dir_31f0ce14831efeca6c5bc2d7a9087b01 -->
<g id="node7" class="node"><title>dir_31f0ce14831efeca6c5bc2d7a9087b01</title>
<g id="a_node7"><a xlink:href="dir_31f0ce14831efeca6c5bc2d7a9087b01.html" target="_top" xlink:title="server">
<polygon fill="white" stroke="black" points="230,-108 176,-108 176,-72 230,-72 230,-108"/>
<text text-anchor="middle" x="203" y="-87.5" font-family="Helvetica,sans-Serif" font-size="10.00">server</text>
</a>
</g>
</g>
<!-- dir_1d76dab0fc87a5a197048d2e2027bd98 -->
<g id="node8" class="node"><title>dir_1d76dab0fc87a5a197048d2e2027bd98</title>
<g id="a_node8"><a xlink:href="dir_1d76dab0fc87a5a197048d2e2027bd98.html" target="_top" xlink:title="spdlog">
<polygon fill="white" stroke="black" points="158,-108 104,-108 104,-72 158,-72 158,-108"/>
<text text-anchor="middle" x="131" y="-87.5" font-family="Helvetica,sans-Serif" font-size="10.00">spdlog</text>
</a>
</g>
</g>
<!-- dir_02e8ef3a9bbf1717c8a0e470230edb6b -->
<g id="node9" class="node"><title>dir_02e8ef3a9bbf1717c8a0e470230edb6b</title>
<g id="a_node9"><a xlink:href="dir_02e8ef3a9bbf1717c8a0e470230edb6b.html" target="_top" xlink:title="translation">
<polygon fill="white" stroke="black" points="86,-108 24,-108 24,-72 86,-72 86,-108"/>
<text text-anchor="middle" x="55" y="-87.5" font-family="Helvetica,sans-Serif" font-size="10.00">translation</text>
</a>
</g>
</g>
</g>
</svg>
