<?xml version="1.0" encoding="UTF-8" standalone="no"?>
<!DOCTYPE svg PUBLIC "-//W3C//DTD SVG 1.1//EN"
 "http://www.w3.org/Graphics/SVG/1.1/DTD/svg11.dtd">
<!-- Generated by graphviz version 2.38.0 (20140413.2041)
 -->
<!-- Title: src/opportunity_check/memorydb Pages: 1 -->
<svg width="120pt" height="151pt"
 viewBox="0.00 0.00 120.00 151.00" xmlns="http://www.w3.org/2000/svg" xmlns:xlink="http://www.w3.org/1999/xlink">
<g id="graph0" class="graph" transform="scale(1 1) rotate(0) translate(4 147)">
<title>src/opportunity_check/memorydb</title>
<polygon fill="white" stroke="none" points="-4,4 -4,-147 116,-147 116,4 -4,4"/>
<g id="clust1" class="cluster"><title>clusterdir_41ce542479d7ec913f8811ed39e68c4c</title>
<g id="a_clust1"><a xlink:href="dir_41ce542479d7ec913f8811ed39e68c4c.html" target="_top" xlink:title="opportunity_check">
<polygon fill="#ddddee" stroke="black" points="8,-64 8,-135 104,-135 104,-64 8,-64"/>
<text text-anchor="middle" x="56" y="-123" font-family="Helvetica,sans-Serif" font-size="10.00">opportunity_check</text>
</a>
</g>
</g>
<!-- dir_40ed600c14e7ca17acf346f1f3454c46 -->
<g id="node1" class="node"><title>dir_40ed600c14e7ca17acf346f1f3454c46</title>
<g id="a_node1"><a xlink:href="dir_40ed600c14e7ca17acf346f1f3454c46.html" target="_top" xlink:title="memorydb">
<polygon fill="#eeeeff" stroke="black" points="87,-108 25,-108 25,-72 87,-72 87,-108"/>
<text text-anchor="middle" x="56" y="-87.5" font-family="Helvetica,sans-Serif" font-size="10.00">memorydb</text>
</a>
</g>
</g>
<!-- dir_4db07c9d7f8d5a8284ae701bfea002b8 -->
<g id="node2" class="node"><title>dir_4db07c9d7f8d5a8284ae701bfea002b8</title>
<g id="a_node2"><a xlink:href="dir_4db07c9d7f8d5a8284ae701bfea002b8.html" target="_top" xlink:title="BattleshipRoyale">
<polygon fill="white" stroke="red" points="101,-36 11,-36 11,-0 101,-0 101,-36"/>
<text text-anchor="middle" x="56" y="-15.5" font-family="Helvetica,sans-Serif" font-size="10.00">BattleshipRoyale</text>
</a>
</g>
</g>
<!-- dir_40ed600c14e7ca17acf346f1f3454c46&#45;&gt;dir_4db07c9d7f8d5a8284ae701bfea002b8 -->
<g id="edge1" class="edge"><title>dir_40ed600c14e7ca17acf346f1f3454c46&#45;&gt;dir_4db07c9d7f8d5a8284ae701bfea002b8</title>
<path fill="none" stroke="black" d="M56,-71.6966C56,-63.9827 56,-54.7125 56,-46.1124"/>
<polygon fill="black" stroke="black" points="59.5001,-46.1043 56,-36.1043 52.5001,-46.1044 59.5001,-46.1043"/>
<g id="a_edge1&#45;headlabel"><a xlink:href="dir_000016_000001.html" target="_top" xlink:title="2">
<text text-anchor="middle" x="62.3393" y="-47.199" font-family="Helvetica,sans-Serif" font-size="10.00">2</text>
</a>
</g>
</g>
</g>
</svg>
