<?xml version="1.0" encoding="UTF-8" standalone="no"?>
<!DOCTYPE svg PUBLIC "-//W3C//DTD SVG 1.1//EN"
 "http://www.w3.org/Graphics/SVG/1.1/DTD/svg11.dtd">
<!-- Generated by graphviz version 2.38.0 (20140413.2041)
 -->
<!-- Title: minidb Pages: 1 -->
<svg width="98pt" height="151pt"
 viewBox="0.00 0.00 98.00 151.00" xmlns="http://www.w3.org/2000/svg" xmlns:xlink="http://www.w3.org/1999/xlink">
<g id="graph0" class="graph" transform="scale(1 1) rotate(0) translate(4 147)">
<title>minidb</title>
<polygon fill="white" stroke="none" points="-4,4 -4,-147 94,-147 94,4 -4,4"/>
<g id="clust1" class="cluster"><title>clusterdir_3513c77e68d0de165c8b48f945306dcb</title>
<g id="a_clust1"><a xlink:href="dir_3513c77e68d0de165c8b48f945306dcb.html" target="_top" xlink:title="testing">
<polygon fill="#ddddee" stroke="black" points="10,-64 10,-135 80,-135 80,-64 10,-64"/>
<text text-anchor="middle" x="45" y="-123" font-family="Helvetica,sans-Serif" font-size="10.00">testing</text>
</a>
</g>
</g>
<!-- dir_51a01ebc8ecb5427be19b1ea8e30a404 -->
<g id="node1" class="node"><title>dir_51a01ebc8ecb5427be19b1ea8e30a404</title>
<g id="a_node1"><a xlink:href="dir_51a01ebc8ecb5427be19b1ea8e30a404.html" target="_top" xlink:title="minidb">
<polygon fill="#eeeeff" stroke="black" points="72,-108 18,-108 18,-72 72,-72 72,-108"/>
<text text-anchor="middle" x="45" y="-87.5" font-family="Helvetica,sans-Serif" font-size="10.00">minidb</text>
</a>
</g>
</g>
<!-- dir_4db07c9d7f8d5a8284ae701bfea002b8 -->
<g id="node2" class="node"><title>dir_4db07c9d7f8d5a8284ae701bfea002b8</title>
<g id="a_node2"><a xlink:href="dir_4db07c9d7f8d5a8284ae701bfea002b8.html" target="_top" xlink:title="BattleshipRoyale">
<polygon fill="none" stroke="black" points="90,-36 0,-36 0,-0 90,-0 90,-36"/>
<text text-anchor="middle" x="45" y="-15.5" font-family="Helvetica,sans-Serif" font-size="10.00">BattleshipRoyale</text>
</a>
</g>
</g>
<!-- dir_51a01ebc8ecb5427be19b1ea8e30a404&#45;&gt;dir_4db07c9d7f8d5a8284ae701bfea002b8 -->
<g id="edge1" class="edge"><title>dir_51a01ebc8ecb5427be19b1ea8e30a404&#45;&gt;dir_4db07c9d7f8d5a8284ae701bfea002b8</title>
<path fill="none" stroke="black" d="M45,-71.6966C45,-63.9827 45,-54.7125 45,-46.1124"/>
<polygon fill="black" stroke="black" points="48.5001,-46.1043 45,-36.1043 41.5001,-46.1044 48.5001,-46.1043"/>
<g id="a_edge1&#45;headlabel"><a xlink:href="dir_000010_000007.html" target="_top" xlink:title="1">
<text text-anchor="middle" x="51.3393" y="-47.199" font-family="Helvetica,sans-Serif" font-size="10.00">1</text>
</a>
</g>
</g>
</g>
</svg>
