<?xml version="1.0" encoding="UTF-8" standalone="no"?>
<!DOCTYPE svg PUBLIC "-//W3C//DTD SVG 1.1//EN"
 "http://www.w3.org/Graphics/SVG/1.1/DTD/svg11.dtd">
<!-- Generated by graphviz version 2.38.0 (20140413.2041)
 -->
<!-- Title: src/BattleshipRoyale Pages: 1 -->
<svg width="146pt" height="183pt"
 viewBox="0.00 0.00 146.00 183.00" xmlns="http://www.w3.org/2000/svg" xmlns:xlink="http://www.w3.org/1999/xlink">
<g id="graph0" class="graph" transform="scale(1 1) rotate(0) translate(4 179)">
<title>src/BattleshipRoyale</title>
<polygon fill="white" stroke="none" points="-4,4 -4,-179 142,-179 142,4 -4,4"/>
<g id="clust1" class="cluster"><title>clusterdir_68267d1309a1af8e8297ef4c3efbcdba</title>
<g id="a_clust1"><a xlink:href="dir_68267d1309a1af8e8297ef4c3efbcdba.html" target="_top" xlink:title="src">
<polygon fill="#ddddee" stroke="black" points="8,-8 8,-167 130,-167 130,-8 8,-8"/>
<text text-anchor="middle" x="69" y="-155" font-family="Helvetica,sans-Serif" font-size="10.00">src</text>
</a>
</g>
</g>
<g id="clust2" class="cluster"><title>clusterdir_4db07c9d7f8d5a8284ae701bfea002b8</title>
<g id="a_clust2"><a xlink:href="dir_4db07c9d7f8d5a8284ae701bfea002b8.html" target="_top">
<polygon fill="#eeeeff" stroke="black" points="16,-16 16,-140 122,-140 122,-16 16,-16"/>
</a>
</g>
</g>
<!-- dir_4db07c9d7f8d5a8284ae701bfea002b8 -->
<g id="node1" class="node"><title>dir_4db07c9d7f8d5a8284ae701bfea002b8</title>
<text text-anchor="middle" x="69" y="-111.5" font-family="Helvetica,sans-Serif" font-size="10.00">BattleshipRoyale</text>
</g>
<!-- dir_f11917febbe5ab7b7507379e6bdb9e0b -->
<g id="node2" class="node"><title>dir_f11917febbe5ab7b7507379e6bdb9e0b</title>
<g id="a_node2"><a xlink:href="dir_f11917febbe5ab7b7507379e6bdb9e0b.html" target="_top" xlink:title="BattleshipRoyale">
<polygon fill="white" stroke="black" points="114,-60 24,-60 24,-24 114,-24 114,-60"/>
<text text-anchor="middle" x="69" y="-39.5" font-family="Helvetica,sans-Serif" font-size="10.00">BattleshipRoyale</text>
</a>
</g>
</g>
<!-- dir_4db07c9d7f8d5a8284ae701bfea002b8&#45;&gt;dir_f11917febbe5ab7b7507379e6bdb9e0b -->
<g id="edge1" class="edge"><title>dir_4db07c9d7f8d5a8284ae701bfea002b8&#45;&gt;dir_f11917febbe5ab7b7507379e6bdb9e0b</title>
<path fill="none" stroke="black" d="M69,-95.6966C69,-87.9827 69,-78.7125 69,-70.1124"/>
<polygon fill="black" stroke="black" points="72.5001,-70.1043 69,-60.1043 65.5001,-70.1044 72.5001,-70.1043"/>
<g id="a_edge1&#45;headlabel"><a xlink:href="dir_000001_000002.html" target="_top" xlink:title="6">
<text text-anchor="middle" x="75.3393" y="-71.199" font-family="Helvetica,sans-Serif" font-size="10.00">6</text>
</a>
</g>
</g>
</g>
</svg>
