<?xml version="1.0" encoding="UTF-8" standalone="no"?>
<!DOCTYPE svg PUBLIC "-//W3C//DTD SVG 1.1//EN"
 "http://www.w3.org/Graphics/SVG/1.1/DTD/svg11.dtd">
<!-- Generated by graphviz version 2.38.0 (20140413.2041)
 -->
<!-- Title: src/examples Pages: 1 -->
<svg width="134pt" height="151pt"
 viewBox="0.00 0.00 134.00 151.00" xmlns="http://www.w3.org/2000/svg" xmlns:xlink="http://www.w3.org/1999/xlink">
<g id="graph0" class="graph" transform="scale(1 1) rotate(0) translate(4 147)">
<title>src/examples</title>
<polygon fill="white" stroke="none" points="-4,4 -4,-147 130,-147 130,4 -4,4"/>
<g id="clust1" class="cluster"><title>clusterdir_68267d1309a1af8e8297ef4c3efbcdba</title>
<g id="a_clust1"><a xlink:href="dir_68267d1309a1af8e8297ef4c3efbcdba.html" target="_top" xlink:title="src">
<polygon fill="#ddddee" stroke="black" points="25,-64 25,-135 101,-135 101,-64 25,-64"/>
<text text-anchor="middle" x="63" y="-123" font-family="Helvetica,sans-Serif" font-size="10.00">src</text>
</a>
</g>
</g>
<!-- dir_e931c1a3f0014e624d0645a271726ad2 -->
<g id="node1" class="node"><title>dir_e931c1a3f0014e624d0645a271726ad2</title>
<g id="a_node1"><a xlink:href="dir_e931c1a3f0014e624d0645a271726ad2.html" target="_top" xlink:title="examples">
<polygon fill="#eeeeff" stroke="black" points="92.5,-108 33.5,-108 33.5,-72 92.5,-72 92.5,-108"/>
<text text-anchor="middle" x="63" y="-87.5" font-family="Helvetica,sans-Serif" font-size="10.00">examples</text>
</a>
</g>
</g>
<!-- dir_6f2a338be031f1a5826289b3e6d326cd -->
<g id="node2" class="node"><title>dir_6f2a338be031f1a5826289b3e6d326cd</title>
<g id="a_node2"><a xlink:href="dir_6f2a338be031f1a5826289b3e6d326cd.html" target="_top" xlink:title="delete">
<polygon fill="none" stroke="black" points="54,-36 0,-36 0,-0 54,-0 54,-36"/>
<text text-anchor="middle" x="27" y="-15.5" font-family="Helvetica,sans-Serif" font-size="10.00">delete</text>
</a>
</g>
</g>
<!-- dir_e931c1a3f0014e624d0645a271726ad2&#45;&gt;dir_6f2a338be031f1a5826289b3e6d326cd -->
<g id="edge1" class="edge"><title>dir_e931c1a3f0014e624d0645a271726ad2&#45;&gt;dir_6f2a338be031f1a5826289b3e6d326cd</title>
<path fill="none" stroke="black" d="M54.1011,-71.6966C50.0032,-63.7284 45.0512,-54.0995 40.5073,-45.2641"/>
<polygon fill="black" stroke="black" points="43.4826,-43.3965 35.7965,-36.1043 37.2575,-46.598 43.4826,-43.3965"/>
<g id="a_edge1&#45;headlabel"><a xlink:href="dir_000011_000009.html" target="_top" xlink:title="1">
<text text-anchor="middle" x="47.6514" y="-42.7946" font-family="Helvetica,sans-Serif" font-size="10.00">1</text>
</a>
</g>
</g>
<!-- dir_075bb3ff235063c77951cd176d15a741 -->
<g id="node3" class="node"><title>dir_075bb3ff235063c77951cd176d15a741</title>
<g id="a_node3"><a xlink:href="dir_075bb3ff235063c77951cd176d15a741.html" target="_top" xlink:title="server">
<polygon fill="white" stroke="red" points="126,-36 72,-36 72,-0 126,-0 126,-36"/>
<text text-anchor="middle" x="99" y="-15.5" font-family="Helvetica,sans-Serif" font-size="10.00">server</text>
</a>
</g>
</g>
<!-- dir_e931c1a3f0014e624d0645a271726ad2&#45;&gt;dir_075bb3ff235063c77951cd176d15a741 -->
<g id="edge2" class="edge"><title>dir_e931c1a3f0014e624d0645a271726ad2&#45;&gt;dir_075bb3ff235063c77951cd176d15a741</title>
<path fill="none" stroke="black" d="M71.8989,-71.6966C75.9968,-63.7284 80.9488,-54.0995 85.4927,-45.2641"/>
<polygon fill="black" stroke="black" points="88.7425,-46.598 90.2035,-36.1043 82.5174,-43.3965 88.7425,-46.598"/>
<g id="a_edge2&#45;headlabel"><a xlink:href="dir_000011_000003.html" target="_top" xlink:title="1">
<text text-anchor="middle" x="89.6235" y="-48.5931" font-family="Helvetica,sans-Serif" font-size="10.00">1</text>
</a>
</g>
</g>
</g>
</svg>
