<?xml version="1.0" encoding="UTF-8" standalone="no"?>
<!DOCTYPE svg PUBLIC "-//W3C//DTD SVG 1.1//EN"
 "http://www.w3.org/Graphics/SVG/1.1/DTD/svg11.dtd">
<!-- Generated by graphviz version 2.38.0 (20140413.2041)
 -->
<!-- Title: src Pages: 1 -->
<svg width="352pt" height="220pt"
 viewBox="0.00 0.00 352.00 220.00" xmlns="http://www.w3.org/2000/svg" xmlns:xlink="http://www.w3.org/1999/xlink">
<g id="graph0" class="graph" transform="scale(1 1) rotate(0) translate(4 216)">
<title>src</title>
<polygon fill="white" stroke="none" points="-4,4 -4,-216 348,-216 348,4 -4,4"/>
<g id="clust1" class="cluster"><title>clusterdir_68267d1309a1af8e8297ef4c3efbcdba</title>
<g id="a_clust1"><a xlink:href="dir_68267d1309a1af8e8297ef4c3efbcdba.html" target="_top">
<polygon fill="#eeeeff" stroke="black" points="8,-8 8,-204 336,-204 336,-8 8,-8"/>
</a>
</g>
</g>
<!-- dir_68267d1309a1af8e8297ef4c3efbcdba -->
<g id="node1" class="node"><title>dir_68267d1309a1af8e8297ef4c3efbcdba</title>
<text text-anchor="middle" x="283" y="-175.5" font-family="Helvetica,sans-Serif" font-size="10.00">src</text>
</g>
<!-- dir_4db07c9d7f8d5a8284ae701bfea002b8 -->
<g id="node2" class="node"><title>dir_4db07c9d7f8d5a8284ae701bfea002b8</title>
<g id="a_node2"><a xlink:href="dir_4db07c9d7f8d5a8284ae701bfea002b8.html" target="_top" xlink:title="BattleshipRoyale">
<polygon fill="white" stroke="red" points="238,-52 148,-52 148,-16 238,-16 238,-52"/>
<text text-anchor="middle" x="193" y="-31.5" font-family="Helvetica,sans-Serif" font-size="10.00">BattleshipRoyale</text>
</a>
</g>
</g>
<!-- dir_6908ff505388a07996d238c763adbdab -->
<g id="node3" class="node"><title>dir_6908ff505388a07996d238c763adbdab</title>
<g id="a_node3"><a xlink:href="dir_6908ff505388a07996d238c763adbdab.html" target="_top" xlink:title="client">
<polygon fill="white" stroke="red" points="328,-124 274,-124 274,-88 328,-88 328,-124"/>
<text text-anchor="middle" x="301" y="-103.5" font-family="Helvetica,sans-Serif" font-size="10.00">client</text>
</a>
</g>
</g>
<!-- dir_6908ff505388a07996d238c763adbdab&#45;&gt;dir_4db07c9d7f8d5a8284ae701bfea002b8 -->
<g id="edge3" class="edge"><title>dir_6908ff505388a07996d238c763adbdab&#45;&gt;dir_4db07c9d7f8d5a8284ae701bfea002b8</title>
<path fill="none" stroke="black" d="M274.58,-87.8761C260.59,-78.8083 243.224,-67.5523 228.114,-57.7592"/>
<polygon fill="black" stroke="black" points="229.817,-54.6917 219.521,-52.1898 226.009,-60.5658 229.817,-54.6917"/>
<g id="a_edge3&#45;headlabel"><a xlink:href="dir_000005_000001.html" target="_top" xlink:title="4">
<text text-anchor="middle" x="234.377" y="-51.7642" font-family="Helvetica,sans-Serif" font-size="10.00">4</text>
</a>
</g>
</g>
<!-- dir_6f2a338be031f1a5826289b3e6d326cd -->
<g id="node4" class="node"><title>dir_6f2a338be031f1a5826289b3e6d326cd</title>
<g id="a_node4"><a xlink:href="dir_6f2a338be031f1a5826289b3e6d326cd.html" target="_top" xlink:title="delete">
<polygon fill="white" stroke="black" points="184,-124 130,-124 130,-88 184,-88 184,-124"/>
<text text-anchor="middle" x="157" y="-103.5" font-family="Helvetica,sans-Serif" font-size="10.00">delete</text>
</a>
</g>
</g>
<!-- dir_6f2a338be031f1a5826289b3e6d326cd&#45;&gt;dir_4db07c9d7f8d5a8284ae701bfea002b8 -->
<g id="edge1" class="edge"><title>dir_6f2a338be031f1a5826289b3e6d326cd&#45;&gt;dir_4db07c9d7f8d5a8284ae701bfea002b8</title>
<path fill="none" stroke="black" d="M165.899,-87.6966C169.997,-79.7284 174.949,-70.0995 179.493,-61.2641"/>
<polygon fill="black" stroke="black" points="182.742,-62.598 184.203,-52.1043 176.517,-59.3965 182.742,-62.598"/>
<g id="a_edge1&#45;headlabel"><a xlink:href="dir_000009_000001.html" target="_top" xlink:title="3">
<text text-anchor="middle" x="183.623" y="-64.5931" font-family="Helvetica,sans-Serif" font-size="10.00">3</text>
</a>
</g>
</g>
<!-- dir_e931c1a3f0014e624d0645a271726ad2 -->
<g id="node5" class="node"><title>dir_e931c1a3f0014e624d0645a271726ad2</title>
<g id="a_node5"><a xlink:href="dir_e931c1a3f0014e624d0645a271726ad2.html" target="_top" xlink:title="examples">
<polygon fill="white" stroke="black" points="203.5,-196 144.5,-196 144.5,-160 203.5,-160 203.5,-196"/>
<text text-anchor="middle" x="174" y="-175.5" font-family="Helvetica,sans-Serif" font-size="10.00">examples</text>
</a>
</g>
</g>
<!-- dir_e931c1a3f0014e624d0645a271726ad2&#45;&gt;dir_6f2a338be031f1a5826289b3e6d326cd -->
<g id="edge4" class="edge"><title>dir_e931c1a3f0014e624d0645a271726ad2&#45;&gt;dir_6f2a338be031f1a5826289b3e6d326cd</title>
<path fill="none" stroke="black" d="M169.798,-159.697C167.904,-151.898 165.623,-142.509 163.516,-133.829"/>
<polygon fill="black" stroke="black" points="166.915,-132.996 161.154,-124.104 160.113,-134.648 166.915,-132.996"/>
<g id="a_edge4&#45;headlabel"><a xlink:href="dir_000011_000009.html" target="_top" xlink:title="1">
<text text-anchor="middle" x="170.522" y="-133.319" font-family="Helvetica,sans-Serif" font-size="10.00">1</text>
</a>
</g>
</g>
<!-- dir_075bb3ff235063c77951cd176d15a741 -->
<g id="node7" class="node"><title>dir_075bb3ff235063c77951cd176d15a741</title>
<g id="a_node7"><a xlink:href="dir_075bb3ff235063c77951cd176d15a741.html" target="_top" xlink:title="server">
<polygon fill="white" stroke="red" points="256,-124 202,-124 202,-88 256,-88 256,-124"/>
<text text-anchor="middle" x="229" y="-103.5" font-family="Helvetica,sans-Serif" font-size="10.00">server</text>
</a>
</g>
</g>
<!-- dir_e931c1a3f0014e624d0645a271726ad2&#45;&gt;dir_075bb3ff235063c77951cd176d15a741 -->
<g id="edge5" class="edge"><title>dir_e931c1a3f0014e624d0645a271726ad2&#45;&gt;dir_075bb3ff235063c77951cd176d15a741</title>
<path fill="none" stroke="black" d="M187.596,-159.697C194.123,-151.389 202.068,-141.277 209.247,-132.141"/>
<polygon fill="black" stroke="black" points="212.135,-134.13 215.561,-124.104 206.631,-129.805 212.135,-134.13"/>
<g id="a_edge5&#45;headlabel"><a xlink:href="dir_000011_000003.html" target="_top" xlink:title="1">
<text text-anchor="middle" x="212.147" y="-136.211" font-family="Helvetica,sans-Serif" font-size="10.00">1</text>
</a>
</g>
</g>
<!-- dir_41ce542479d7ec913f8811ed39e68c4c -->
<g id="node6" class="node"><title>dir_41ce542479d7ec913f8811ed39e68c4c</title>
<g id="a_node6"><a xlink:href="dir_41ce542479d7ec913f8811ed39e68c4c.html" target="_top" xlink:title="opportunity_check">
<polygon fill="white" stroke="red" points="112,-124 16,-124 16,-88 112,-88 112,-124"/>
<text text-anchor="middle" x="64" y="-103.5" font-family="Helvetica,sans-Serif" font-size="10.00">opportunity_check</text>
</a>
</g>
</g>
<!-- dir_41ce542479d7ec913f8811ed39e68c4c&#45;&gt;dir_4db07c9d7f8d5a8284ae701bfea002b8 -->
<g id="edge6" class="edge"><title>dir_41ce542479d7ec913f8811ed39e68c4c&#45;&gt;dir_4db07c9d7f8d5a8284ae701bfea002b8</title>
<path fill="none" stroke="black" d="M95.557,-87.8761C112.658,-78.5965 133.982,-67.0251 152.319,-57.0752"/>
<polygon fill="black" stroke="black" points="154.202,-60.0355 161.322,-52.1898 150.863,-53.8829 154.202,-60.0355"/>
<g id="a_edge6&#45;headlabel"><a xlink:href="dir_000007_000001.html" target="_top" xlink:title="4">
<text text-anchor="middle" x="152.396" y="-61.7454" font-family="Helvetica,sans-Serif" font-size="10.00">4</text>
</a>
</g>
</g>
<!-- dir_075bb3ff235063c77951cd176d15a741&#45;&gt;dir_4db07c9d7f8d5a8284ae701bfea002b8 -->
<g id="edge2" class="edge"><title>dir_075bb3ff235063c77951cd176d15a741&#45;&gt;dir_4db07c9d7f8d5a8284ae701bfea002b8</title>
<path fill="none" stroke="black" d="M220.101,-87.6966C216.003,-79.7284 211.051,-70.0995 206.507,-61.2641"/>
<polygon fill="black" stroke="black" points="209.483,-59.3965 201.797,-52.1043 203.258,-62.598 209.483,-59.3965"/>
<g id="a_edge2&#45;headlabel"><a xlink:href="dir_000003_000001.html" target="_top" xlink:title="11">
<text text-anchor="middle" x="213.651" y="-58.7946" font-family="Helvetica,sans-Serif" font-size="10.00">11</text>
</a>
</g>
</g>
</g>
</svg>
