<?xml version="1.0" encoding="UTF-8" standalone="no"?>
<!DOCTYPE svg PUBLIC "-//W3C//DTD SVG 1.1//EN"
 "http://www.w3.org/Graphics/SVG/1.1/DTD/svg11.dtd">
<!-- Generated by graphviz version 2.38.0 (20140413.2041)
 -->
<!-- Title: testing Pages: 1 -->
<svg width="478pt" height="159pt"
 viewBox="0.00 0.00 478.00 159.00" xmlns="http://www.w3.org/2000/svg" xmlns:xlink="http://www.w3.org/1999/xlink">
<g id="graph0" class="graph" transform="scale(1 1) rotate(0) translate(4 155)">
<title>testing</title>
<polygon fill="white" stroke="none" points="-4,4 -4,-155 474,-155 474,4 -4,4"/>
<g id="clust1" class="cluster"><title>clusterdir_68267d1309a1af8e8297ef4c3efbcdba</title>
<g id="a_clust1"><a xlink:href="dir_68267d1309a1af8e8297ef4c3efbcdba.html" target="_top" xlink:title="src">
<polygon fill="#ddddee" stroke="black" points="8,-56 8,-143 462,-143 462,-56 8,-56"/>
<text text-anchor="middle" x="235" y="-131" font-family="Helvetica,sans-Serif" font-size="10.00">src</text>
</a>
</g>
</g>
<g id="clust2" class="cluster"><title>clusterdir_3513c77e68d0de165c8b48f945306dcb</title>
<g id="a_clust2"><a xlink:href="dir_3513c77e68d0de165c8b48f945306dcb.html" target="_top">
<polygon fill="#eeeeff" stroke="black" points="16,-64 16,-116 454,-116 454,-64 16,-64"/>
</a>
</g>
</g>
<!-- dir_3513c77e68d0de165c8b48f945306dcb -->
<g id="node1" class="node"><title>dir_3513c77e68d0de165c8b48f945306dcb</title>
<text text-anchor="middle" x="419" y="-87.5" font-family="Helvetica,sans-Serif" font-size="10.00">testing</text>
</g>
<!-- dir_6ba686c02896e0214069c531d4cbe538 -->
<g id="node2" class="node"><title>dir_6ba686c02896e0214069c531d4cbe538</title>
<g id="a_node2"><a xlink:href="dir_6ba686c02896e0214069c531d4cbe538.html" target="_top" xlink:title="client">
<polygon fill="white" stroke="black" points="374,-108 320,-108 320,-72 374,-72 374,-108"/>
<text text-anchor="middle" x="347" y="-87.5" font-family="Helvetica,sans-Serif" font-size="10.00">client</text>
</a>
</g>
</g>
<!-- dir_87bfa948be31e336dab398155911c766 -->
<g id="node3" class="node"><title>dir_87bfa948be31e336dab398155911c766</title>
<g id="a_node3"><a xlink:href="dir_87bfa948be31e336dab398155911c766.html" target="_top" xlink:title="memorydb">
<polygon fill="white" stroke="black" points="302,-108 240,-108 240,-72 302,-72 302,-108"/>
<text text-anchor="middle" x="271" y="-87.5" font-family="Helvetica,sans-Serif" font-size="10.00">memorydb</text>
</a>
</g>
</g>
<!-- dir_4db07c9d7f8d5a8284ae701bfea002b8 -->
<g id="node7" class="node"><title>dir_4db07c9d7f8d5a8284ae701bfea002b8</title>
<g id="a_node7"><a xlink:href="dir_4db07c9d7f8d5a8284ae701bfea002b8.html" target="_top" xlink:title="BattleshipRoyale">
<polygon fill="none" stroke="black" points="278,-36 188,-36 188,-0 278,-0 278,-36"/>
<text text-anchor="middle" x="233" y="-15.5" font-family="Helvetica,sans-Serif" font-size="10.00">BattleshipRoyale</text>
</a>
</g>
</g>
<!-- dir_87bfa948be31e336dab398155911c766&#45;&gt;dir_4db07c9d7f8d5a8284ae701bfea002b8 -->
<g id="edge1" class="edge"><title>dir_87bfa948be31e336dab398155911c766&#45;&gt;dir_4db07c9d7f8d5a8284ae701bfea002b8</title>
<path fill="none" stroke="black" d="M261.607,-71.6966C257.235,-63.6436 251.943,-53.8945 247.105,-44.9824"/>
<polygon fill="black" stroke="black" points="250.132,-43.223 242.285,-36.1043 243.98,-46.5627 250.132,-43.223"/>
<g id="a_edge1&#45;headlabel"><a xlink:href="dir_000010_000007.html" target="_top" xlink:title="1">
<text text-anchor="middle" x="254.342" y="-42.5276" font-family="Helvetica,sans-Serif" font-size="10.00">1</text>
</a>
</g>
</g>
<!-- dir_51a01ebc8ecb5427be19b1ea8e30a404 -->
<g id="node4" class="node"><title>dir_51a01ebc8ecb5427be19b1ea8e30a404</title>
<g id="a_node4"><a xlink:href="dir_51a01ebc8ecb5427be19b1ea8e30a404.html" target="_top" xlink:title="minidb">
<polygon fill="white" stroke="black" points="222,-108 168,-108 168,-72 222,-72 222,-108"/>
<text text-anchor="middle" x="195" y="-87.5" font-family="Helvetica,sans-Serif" font-size="10.00">minidb</text>
</a>
</g>
</g>
<!-- dir_51a01ebc8ecb5427be19b1ea8e30a404&#45;&gt;dir_4db07c9d7f8d5a8284ae701bfea002b8 -->
<g id="edge2" class="edge"><title>dir_51a01ebc8ecb5427be19b1ea8e30a404&#45;&gt;dir_4db07c9d7f8d5a8284ae701bfea002b8</title>
<path fill="none" stroke="black" d="M204.393,-71.6966C208.765,-63.6436 214.057,-53.8945 218.895,-44.9824"/>
<polygon fill="black" stroke="black" points="222.02,-46.5627 223.715,-36.1043 215.868,-43.223 222.02,-46.5627"/>
<g id="a_edge2&#45;headlabel"><a xlink:href="dir_000012_000007.html" target="_top" xlink:title="1">
<text text-anchor="middle" x="222.8" y="-48.5764" font-family="Helvetica,sans-Serif" font-size="10.00">1</text>
</a>
</g>
</g>
<!-- dir_a4d474a0fc27447d37c3e2a288619c33 -->
<g id="node5" class="node"><title>dir_a4d474a0fc27447d37c3e2a288619c33</title>
<g id="a_node5"><a xlink:href="dir_a4d474a0fc27447d37c3e2a288619c33.html" target="_top" xlink:title="regex">
<polygon fill="white" stroke="black" points="150,-108 96,-108 96,-72 150,-72 150,-108"/>
<text text-anchor="middle" x="123" y="-87.5" font-family="Helvetica,sans-Serif" font-size="10.00">regex</text>
</a>
</g>
</g>
<!-- dir_f4c82532ea32659d97c5252703556f71 -->
<g id="node6" class="node"><title>dir_f4c82532ea32659d97c5252703556f71</title>
<g id="a_node6"><a xlink:href="dir_f4c82532ea32659d97c5252703556f71.html" target="_top" xlink:title="server">
<polygon fill="white" stroke="black" points="78,-108 24,-108 24,-72 78,-72 78,-108"/>
<text text-anchor="middle" x="51" y="-87.5" font-family="Helvetica,sans-Serif" font-size="10.00">server</text>
</a>
</g>
</g>
</g>
</svg>
