<?xml version="1.0" encoding="UTF-8" standalone="no"?>
<!DOCTYPE svg PUBLIC "-//W3C//DTD SVG 1.1//EN"
 "http://www.w3.org/Graphics/SVG/1.1/DTD/svg11.dtd">
<!-- Generated by graphviz version 2.38.0 (20140413.2041)
 -->
<!-- Title: src/server Pages: 1 -->
<svg width="182pt" height="159pt"
 viewBox="0.00 0.00 182.00 159.00" xmlns="http://www.w3.org/2000/svg" xmlns:xlink="http://www.w3.org/1999/xlink">
<g id="graph0" class="graph" transform="scale(1 1) rotate(0) translate(4 155)">
<title>src/server</title>
<polygon fill="white" stroke="none" points="-4,4 -4,-155 178,-155 178,4 -4,4"/>
<g id="clust1" class="cluster"><title>clusterdir_68267d1309a1af8e8297ef4c3efbcdba</title>
<g id="a_clust1"><a xlink:href="dir_68267d1309a1af8e8297ef4c3efbcdba.html" target="_top" xlink:title="src">
<polygon fill="#ddddee" stroke="black" points="8,-56 8,-143 166,-143 166,-56 8,-56"/>
<text text-anchor="middle" x="87" y="-131" font-family="Helvetica,sans-Serif" font-size="10.00">src</text>
</a>
</g>
</g>
<g id="clust2" class="cluster"><title>clusterdir_075bb3ff235063c77951cd176d15a741</title>
<g id="a_clust2"><a xlink:href="dir_075bb3ff235063c77951cd176d15a741.html" target="_top">
<polygon fill="#eeeeff" stroke="black" points="16,-64 16,-116 158,-116 158,-64 16,-64"/>
</a>
</g>
</g>
<!-- dir_075bb3ff235063c77951cd176d15a741 -->
<g id="node1" class="node"><title>dir_075bb3ff235063c77951cd176d15a741</title>
<text text-anchor="middle" x="123" y="-87.5" font-family="Helvetica,sans-Serif" font-size="10.00">server</text>
</g>
<!-- dir_aec46070e25e2e5fb0789c4048a4272f -->
<g id="node2" class="node"><title>dir_aec46070e25e2e5fb0789c4048a4272f</title>
<g id="a_node2"><a xlink:href="dir_aec46070e25e2e5fb0789c4048a4272f.html" target="_top" xlink:title="src">
<polygon fill="white" stroke="black" points="78,-108 24,-108 24,-72 78,-72 78,-108"/>
<text text-anchor="middle" x="51" y="-87.5" font-family="Helvetica,sans-Serif" font-size="10.00">src</text>
</a>
</g>
</g>
<!-- dir_4db07c9d7f8d5a8284ae701bfea002b8 -->
<g id="node3" class="node"><title>dir_4db07c9d7f8d5a8284ae701bfea002b8</title>
<g id="a_node3"><a xlink:href="dir_4db07c9d7f8d5a8284ae701bfea002b8.html" target="_top" xlink:title="BattleshipRoyale">
<polygon fill="none" stroke="black" points="96,-36 6,-36 6,-0 96,-0 96,-36"/>
<text text-anchor="middle" x="51" y="-15.5" font-family="Helvetica,sans-Serif" font-size="10.00">BattleshipRoyale</text>
</a>
</g>
</g>
<!-- dir_aec46070e25e2e5fb0789c4048a4272f&#45;&gt;dir_4db07c9d7f8d5a8284ae701bfea002b8 -->
<g id="edge1" class="edge"><title>dir_aec46070e25e2e5fb0789c4048a4272f&#45;&gt;dir_4db07c9d7f8d5a8284ae701bfea002b8</title>
<path fill="none" stroke="black" d="M51,-71.6966C51,-63.9827 51,-54.7125 51,-46.1124"/>
<polygon fill="black" stroke="black" points="54.5001,-46.1043 51,-36.1043 47.5001,-46.1044 54.5001,-46.1043"/>
<g id="a_edge1&#45;headlabel"><a xlink:href="dir_000005_000001.html" target="_top" xlink:title="8">
<text text-anchor="middle" x="57.3393" y="-47.199" font-family="Helvetica,sans-Serif" font-size="10.00">8</text>
</a>
</g>
</g>
</g>
</svg>
