<?xml version="1.0" encoding="UTF-8" standalone="no"?>
<!DOCTYPE svg PUBLIC "-//W3C//DTD SVG 1.1//EN"
 "http://www.w3.org/Graphics/SVG/1.1/DTD/svg11.dtd">
<!-- Generated by graphviz version 2.38.0 (20140413.2041)
 -->
<!-- Title: src/examples/Processing.cpp Pages: 1 -->
<svg width="308pt" height="196pt"
 viewBox="0.00 0.00 308.00 196.00" xmlns="http://www.w3.org/2000/svg" xmlns:xlink="http://www.w3.org/1999/xlink">
<g id="graph0" class="graph" transform="scale(1 1) rotate(0) translate(4 192)">
<title>src/examples/Processing.cpp</title>
<polygon fill="white" stroke="none" points="-4,4 -4,-192 304,-192 304,4 -4,4"/>
<!-- Node0 -->
<g id="node1" class="node"><title>Node0</title>
<g id="a_node1"><a xlink:title=" ">
<polygon fill="#bfbfbf" stroke="black" points="0,-168.5 0,-187.5 146,-187.5 146,-168.5 0,-168.5"/>
<text text-anchor="middle" x="73" y="-175.5" font-family="Helvetica,sans-Serif" font-size="10.00">src/examples/Processing.cpp</text>
</a>
</g>
</g>
<!-- Node1 -->
<g id="node2" class="node"><title>Node1</title>
<g id="a_node2"><a xlink:title=" ">
<polygon fill="white" stroke="#bfbfbf" points="62.5,-0.5 62.5,-19.5 103.5,-19.5 103.5,-0.5 62.5,-0.5"/>
<text text-anchor="middle" x="83" y="-7.5" font-family="Helvetica,sans-Serif" font-size="10.00">string</text>
</a>
</g>
</g>
<!-- Node0&#45;&gt;Node1 -->
<g id="edge1" class="edge"><title>Node0&#45;&gt;Node1</title>
<path fill="none" stroke="midnightblue" d="M62.8379,-168.185C54.0916,-159.87 42.1,-146.539 37,-132 25.8193,-100.126 23.9025,-87.1351 37,-56 42.0258,-44.0528 51.9437,-33.6922 61.2875,-25.9339"/>
<polygon fill="midnightblue" stroke="midnightblue" points="63.4392,-28.6944 69.2135,-19.8113 59.16,-23.1547 63.4392,-28.6944"/>
</g>
<!-- Node2 -->
<g id="node3" class="node"><title>Node2</title>
<g id="a_node3"><a xlink:title=" ">
<polygon fill="white" stroke="#bfbfbf" points="46,-112.5 46,-131.5 100,-131.5 100,-112.5 46,-112.5"/>
<text text-anchor="middle" x="73" y="-119.5" font-family="Helvetica,sans-Serif" font-size="10.00">iostream</text>
</a>
</g>
</g>
<!-- Node0&#45;&gt;Node2 -->
<g id="edge2" class="edge"><title>Node0&#45;&gt;Node2</title>
<path fill="none" stroke="midnightblue" d="M73,-168.083C73,-161.006 73,-150.861 73,-141.986"/>
<polygon fill="midnightblue" stroke="midnightblue" points="76.5001,-141.751 73,-131.751 69.5001,-141.751 76.5001,-141.751"/>
</g>
<!-- Node3 -->
<g id="node4" class="node"><title>Node3</title>
<g id="a_node4"><a xlink:href="_processing_8h.html" target="_top" xlink:title="Обработка запросов">
<polygon fill="white" stroke="black" points="118,-112.5 118,-131.5 192,-131.5 192,-112.5 118,-112.5"/>
<text text-anchor="middle" x="155" y="-119.5" font-family="Helvetica,sans-Serif" font-size="10.00">Processing.h</text>
</a>
</g>
</g>
<!-- Node0&#45;&gt;Node3 -->
<g id="edge3" class="edge"><title>Node0&#45;&gt;Node3</title>
<path fill="none" stroke="midnightblue" d="M86.1747,-168.324C98.8468,-159.979 118.233,-147.212 133.206,-137.352"/>
<polygon fill="midnightblue" stroke="midnightblue" points="135.431,-140.078 141.858,-131.655 131.581,-134.231 135.431,-140.078"/>
</g>
<!-- Node4 -->
<g id="node5" class="node"><title>Node4</title>
<g id="a_node5"><a xlink:href="server_2src_2_mini_d_b_8h.html" target="_top" xlink:title="Облегчённый класс для работы с бд">
<polygon fill="white" stroke="black" points="138,-56.5 138,-75.5 194,-75.5 194,-56.5 138,-56.5"/>
<text text-anchor="middle" x="166" y="-63.5" font-family="Helvetica,sans-Serif" font-size="10.00">MiniDB.h</text>
</a>
</g>
</g>
<!-- Node3&#45;&gt;Node4 -->
<g id="edge4" class="edge"><title>Node3&#45;&gt;Node4</title>
<path fill="none" stroke="midnightblue" d="M156.816,-112.083C158.274,-104.927 160.371,-94.6353 162.193,-85.6911"/>
<polygon fill="midnightblue" stroke="midnightblue" points="165.651,-86.2485 164.217,-75.7511 158.792,-84.8512 165.651,-86.2485"/>
</g>
<!-- Node7 -->
<g id="node8" class="node"><title>Node7</title>
<g id="a_node8"><a xlink:href="_mem_d_buid_8h.html" target="_top" xlink:title="Облегчённый класс для работы с бд в памяти">
<polygon fill="white" stroke="black" points="46.5,-56.5 46.5,-75.5 119.5,-75.5 119.5,-56.5 46.5,-56.5"/>
<text text-anchor="middle" x="83" y="-63.5" font-family="Helvetica,sans-Serif" font-size="10.00">MemDBuid.h</text>
</a>
</g>
</g>
<!-- Node3&#45;&gt;Node7 -->
<g id="edge8" class="edge"><title>Node3&#45;&gt;Node7</title>
<path fill="none" stroke="midnightblue" d="M143.432,-112.324C132.58,-104.185 116.119,-91.8395 103.117,-82.0874"/>
<polygon fill="midnightblue" stroke="midnightblue" points="104.879,-79.0339 94.7785,-75.8339 100.679,-84.6339 104.879,-79.0339"/>
</g>
<!-- Node4&#45;&gt;Node1 -->
<g id="edge5" class="edge"><title>Node4&#45;&gt;Node1</title>
<path fill="none" stroke="midnightblue" d="M152.665,-56.324C139.838,-47.979 120.215,-35.2122 105.06,-25.3524"/>
<polygon fill="midnightblue" stroke="midnightblue" points="106.593,-22.1742 96.3023,-19.6545 102.776,-28.0417 106.593,-22.1742"/>
</g>
<!-- Node5 -->
<g id="node6" class="node"><title>Node5</title>
<g id="a_node6"><a xlink:title=" ">
<polygon fill="white" stroke="#bfbfbf" points="130.5,-0.5 130.5,-19.5 183.5,-19.5 183.5,-0.5 130.5,-0.5"/>
<text text-anchor="middle" x="157" y="-7.5" font-family="Helvetica,sans-Serif" font-size="10.00">sqlite3.h</text>
</a>
</g>
</g>
<!-- Node4&#45;&gt;Node5 -->
<g id="edge6" class="edge"><title>Node4&#45;&gt;Node5</title>
<path fill="none" stroke="midnightblue" d="M164.514,-56.083C163.321,-48.9272 161.606,-38.6353 160.115,-29.6911"/>
<polygon fill="midnightblue" stroke="midnightblue" points="163.555,-29.0396 158.459,-19.7511 156.65,-30.1904 163.555,-29.0396"/>
</g>
<!-- Node6 -->
<g id="node7" class="node"><title>Node6</title>
<g id="a_node7"><a xlink:href="_battleship_royale_8h.html" target="_top" xlink:title="Заголовочный файл с пространством имён, которое хранит в себе константы.">
<polygon fill="white" stroke="black" points="202,-0.5 202,-19.5 300,-19.5 300,-0.5 202,-0.5"/>
<text text-anchor="middle" x="251" y="-7.5" font-family="Helvetica,sans-Serif" font-size="10.00">BattleshipRoyale.h</text>
</a>
</g>
</g>
<!-- Node4&#45;&gt;Node6 -->
<g id="edge7" class="edge"><title>Node4&#45;&gt;Node6</title>
<path fill="none" stroke="midnightblue" d="M179.657,-56.324C192.916,-47.9002 213.268,-34.9709 228.846,-25.0741"/>
<polygon fill="midnightblue" stroke="midnightblue" points="230.813,-27.9711 237.377,-19.6545 227.06,-22.0626 230.813,-27.9711"/>
</g>
<!-- Node7&#45;&gt;Node1 -->
<g id="edge9" class="edge"><title>Node7&#45;&gt;Node1</title>
<path fill="none" stroke="midnightblue" d="M83,-56.083C83,-49.0059 83,-38.8611 83,-29.9865"/>
<polygon fill="midnightblue" stroke="midnightblue" points="86.5001,-29.751 83,-19.7511 79.5001,-29.7511 86.5001,-29.751"/>
</g>
</g>
</svg>
