<?xml version="1.0" encoding="UTF-8" standalone="no"?>
<!DOCTYPE svg PUBLIC "-//W3C//DTD SVG 1.1//EN"
 "http://www.w3.org/Graphics/SVG/1.1/DTD/svg11.dtd">
<!-- Generated by graphviz version 2.38.0 (20140413.2041)
 -->
<!-- Title: src/examples/Processing.cpp Pages: 1 -->
<!--zoomable 252 -->
<svg id="main" version="1.1" xmlns="http://www.w3.org/2000/svg" xmlns:xlink="http://www.w3.org/1999/xlink" xml:space="preserve" onload="init(evt)">
<style type="text/css"><![CDATA[
.edge:hover path { stroke: red; }
.edge:hover polygon { stroke: red; fill: red; }
]]></style>
<script type="text/javascript"><![CDATA[
var edges = document.getElementsByTagName('g');
if (edges && edges.length) {
  for (var i=0;i<edges.length;i++) {
    if (edges[i].id.substr(0,4)=='edge') {
      edges[i].setAttribute('class','edge');
    }
  }
}
]]></script>
        <defs>
                <circle id="rim" cx="0" cy="0" r="7"/>
                <circle id="rim2" cx="0" cy="0" r="3.5"/>
                <g id="zoomPlus">
                        <use xlink:href="#rim" fill="#404040">
                                <set attributeName="fill" to="#808080" begin="zoomplus.mouseover" end="zoomplus.mouseout"/>
                        </use>
                        <path d="M-4,0h8M0,-4v8" fill="none" stroke="white" stroke-width="1.5" pointer-events="none"/>
                </g>
                <g id="zoomMin">
                        <use xlink:href="#rim" fill="#404040">
                                <set attributeName="fill" to="#808080" begin="zoomminus.mouseover" end="zoomminus.mouseout"/>
                        </use>
                        <path d="M-4,0h8" fill="none" stroke="white" stroke-width="1.5" pointer-events="none"/>
                </g>
                <g id="dirArrow">
                        <path fill="none" stroke="white" stroke-width="1.5" d="M0,-3.0v7 M-2.5,-0.5L0,-3.0L2.5,-0.5"/>
                </g>
               <g id="resetDef">
                       <use xlink:href="#rim2" fill="#404040">
                               <set attributeName="fill" to="#808080" begin="reset.mouseover" end="reset.mouseout"/>
                       </use>
               </g>
        </defs>

<script type="text/javascript">
var viewWidth = 842;
var viewHeight = 252;
var sectionId = 'dynsection-0';
</script>
<script xlink:href="svgpan.js"/>
<svg id="graph" class="graph">
<g id="viewport">
<title>src/examples/Processing.cpp</title>
<polygon fill="white" stroke="none" points="-4,4 -4,-248 838,-248 838,4 -4,4"/>
<!-- Node0 -->
<g id="node1" class="node"><title>Node0</title>
<g id="a_node1"><a xlink:title=" ">
<polygon fill="#bfbfbf" stroke="black" points="0,-224.5 0,-243.5 146,-243.5 146,-224.5 0,-224.5"/>
<text text-anchor="middle" x="73" y="-231.5" font-family="Helvetica,sans-Serif" font-size="10.00">src/examples/Processing.cpp</text>
</a>
</g>
</g>
<!-- Node1 -->
<g id="node2" class="node"><title>Node1</title>
<g id="a_node2"><a xlink:title=" ">
<polygon fill="white" stroke="#bfbfbf" points="62.5,-56.5 62.5,-75.5 103.5,-75.5 103.5,-56.5 62.5,-56.5"/>
<text text-anchor="middle" x="83" y="-63.5" font-family="Helvetica,sans-Serif" font-size="10.00">string</text>
</a>
</g>
</g>
<!-- Node0&#45;&gt;Node1 -->
<g id="edge1" class="edge"><title>Node0&#45;&gt;Node1</title>
<path fill="none" stroke="midnightblue" d="M62.8379,-224.185C54.0916,-215.87 42.1,-202.539 37,-188 25.8193,-156.126 23.9025,-143.135 37,-112 42.0258,-100.053 51.9437,-89.6922 61.2875,-81.9339"/>
<polygon fill="midnightblue" stroke="midnightblue" points="63.4392,-84.6944 69.2135,-75.8113 59.16,-79.1547 63.4392,-84.6944"/>
</g>
<!-- Node2 -->
<g id="node3" class="node"><title>Node2</title>
<g id="a_node3"><a xlink:title=" ">
<polygon fill="white" stroke="#bfbfbf" points="46,-168.5 46,-187.5 100,-187.5 100,-168.5 46,-168.5"/>
<text text-anchor="middle" x="73" y="-175.5" font-family="Helvetica,sans-Serif" font-size="10.00">iostream</text>
</a>
</g>
</g>
<!-- Node0&#45;&gt;Node2 -->
<g id="edge2" class="edge"><title>Node0&#45;&gt;Node2</title>
<path fill="none" stroke="midnightblue" d="M73,-224.083C73,-217.006 73,-206.861 73,-197.986"/>
<polygon fill="midnightblue" stroke="midnightblue" points="76.5001,-197.751 73,-187.751 69.5001,-197.751 76.5001,-197.751"/>
</g>
<!-- Node3 -->
<g id="node4" class="node"><title>Node3</title>
<g id="a_node4"><a xlink:href="_processing_8h.html" target="_top" xlink:title="Обработка запросов">
<polygon fill="white" stroke="black" points="118,-168.5 118,-187.5 192,-187.5 192,-168.5 118,-168.5"/>
<text text-anchor="middle" x="155" y="-175.5" font-family="Helvetica,sans-Serif" font-size="10.00">Processing.h</text>
</a>
</g>
</g>
<!-- Node0&#45;&gt;Node3 -->
<g id="edge3" class="edge"><title>Node0&#45;&gt;Node3</title>
<path fill="none" stroke="midnightblue" d="M86.1747,-224.324C98.8468,-215.979 118.233,-203.212 133.206,-193.352"/>
<polygon fill="midnightblue" stroke="midnightblue" points="135.431,-196.078 141.858,-187.655 131.581,-190.231 135.431,-196.078"/>
</g>
<!-- Node4 -->
<g id="node5" class="node"><title>Node4</title>
<g id="a_node5"><a xlink:href="server_2src_2_mini_d_b_8h.html" target="_top" xlink:title="Облегчённый класс для работы с бд">
<polygon fill="white" stroke="black" points="138,-112.5 138,-131.5 194,-131.5 194,-112.5 138,-112.5"/>
<text text-anchor="middle" x="166" y="-119.5" font-family="Helvetica,sans-Serif" font-size="10.00">MiniDB.h</text>
</a>
</g>
</g>
<!-- Node3&#45;&gt;Node4 -->
<g id="edge4" class="edge"><title>Node3&#45;&gt;Node4</title>
<path fill="none" stroke="midnightblue" d="M156.816,-168.083C158.274,-160.927 160.371,-150.635 162.193,-141.691"/>
<polygon fill="midnightblue" stroke="midnightblue" points="165.651,-142.248 164.217,-131.751 158.792,-140.851 165.651,-142.248"/>
</g>
<!-- Node12 -->
<g id="node13" class="node"><title>Node12</title>
<g id="a_node13"><a xlink:href="_mem_d_buid_8h.html" target="_top" xlink:title="Облегчённый класс для работы с бд в памяти">
<polygon fill="white" stroke="black" points="46.5,-112.5 46.5,-131.5 119.5,-131.5 119.5,-112.5 46.5,-112.5"/>
<text text-anchor="middle" x="83" y="-119.5" font-family="Helvetica,sans-Serif" font-size="10.00">MemDBuid.h</text>
</a>
</g>
</g>
<!-- Node3&#45;&gt;Node12 -->
<g id="edge14" class="edge"><title>Node3&#45;&gt;Node12</title>
<path fill="none" stroke="midnightblue" d="M143.432,-168.324C132.58,-160.185 116.119,-147.839 103.117,-138.087"/>
<polygon fill="midnightblue" stroke="midnightblue" points="104.879,-135.034 94.7785,-131.834 100.679,-140.634 104.879,-135.034"/>
</g>
<!-- Node4&#45;&gt;Node1 -->
<g id="edge5" class="edge"><title>Node4&#45;&gt;Node1</title>
<path fill="none" stroke="midnightblue" d="M152.665,-112.324C139.838,-103.979 120.215,-91.2122 105.06,-81.3524"/>
<polygon fill="midnightblue" stroke="midnightblue" points="106.593,-78.1742 96.3023,-75.6545 102.776,-84.0417 106.593,-78.1742"/>
</g>
<!-- Node5 -->
<g id="node6" class="node"><title>Node5</title>
<g id="a_node6"><a xlink:href="sqlite3_8h.html" target="_top" xlink:title="Константы для работы с базой данных sqlite3.">
<polygon fill="white" stroke="black" points="28.5,-0.5 28.5,-19.5 81.5,-19.5 81.5,-0.5 28.5,-0.5"/>
<text text-anchor="middle" x="55" y="-7.5" font-family="Helvetica,sans-Serif" font-size="10.00">sqlite3.h</text>
</a>
</g>
</g>
<!-- Node4&#45;&gt;Node5 -->
<g id="edge6" class="edge"><title>Node4&#45;&gt;Node5</title>
<path fill="none" stroke="midnightblue" d="M159.546,-112.09C149.921,-99.083 130.904,-74.4388 112,-56 100.748,-45.0246 86.9363,-34.0667 75.7274,-25.7122"/>
<polygon fill="midnightblue" stroke="midnightblue" points="77.5327,-22.6965 67.3945,-19.6196 73.4012,-28.3472 77.5327,-22.6965"/>
</g>
<!-- Node6 -->
<g id="node7" class="node"><title>Node6</title>
<g id="a_node7"><a xlink:href="_battleship_royale_8h.html" target="_top" xlink:title="Заголовочный файл с пространством имён, которое хранит в себе константы.">
<polygon fill="white" stroke="black" points="272,-56.5 272,-75.5 370,-75.5 370,-56.5 272,-56.5"/>
<text text-anchor="middle" x="321" y="-63.5" font-family="Helvetica,sans-Serif" font-size="10.00">BattleshipRoyale.h</text>
</a>
</g>
</g>
<!-- Node4&#45;&gt;Node6 -->
<g id="edge7" class="edge"><title>Node4&#45;&gt;Node6</title>
<path fill="none" stroke="midnightblue" d="M190.56,-112.444C216.523,-103.399 257.668,-89.064 286.797,-78.9158"/>
<polygon fill="midnightblue" stroke="midnightblue" points="288.263,-82.1116 296.555,-75.5164 285.96,-75.5013 288.263,-82.1116"/>
</g>
<!-- Node6&#45;&gt;Node5 -->
<g id="edge10" class="edge"><title>Node6&#45;&gt;Node5</title>
<path fill="none" stroke="midnightblue" d="M273.718,-56.4893C229.3,-48.3282 160.749,-35.309 91.863,-20.0982"/>
<polygon fill="midnightblue" stroke="midnightblue" points="92.2212,-16.5924 81.6999,-17.8383 90.7018,-23.4255 92.2212,-16.5924"/>
</g>
<!-- Node7 -->
<g id="node8" class="node"><title>Node7</title>
<g id="a_node8"><a xlink:href="_version_8h.html" target="_top" xlink:title="Версия программы">
<polygon fill="white" stroke="black" points="100,-0.5 100,-19.5 234,-19.5 234,-0.5 100,-0.5"/>
<text text-anchor="middle" x="167" y="-7.5" font-family="Helvetica,sans-Serif" font-size="10.00">BattleshipRoyale/Version.h</text>
</a>
</g>
</g>
<!-- Node6&#45;&gt;Node7 -->
<g id="edge8" class="edge"><title>Node6&#45;&gt;Node7</title>
<path fill="none" stroke="midnightblue" d="M296.598,-56.4435C270.803,-47.3986 229.923,-33.064 200.982,-22.9158"/>
<polygon fill="midnightblue" stroke="midnightblue" points="201.882,-19.5226 191.288,-19.5164 199.566,-26.1283 201.882,-19.5226"/>
</g>
<!-- Node8 -->
<g id="node9" class="node"><title>Node8</title>
<g id="a_node9"><a xlink:href="_connect_8h.html" target="_top" xlink:title="Константы с параметрами для подключения">
<polygon fill="white" stroke="black" points="252.5,-0.5 252.5,-19.5 389.5,-19.5 389.5,-0.5 252.5,-0.5"/>
<text text-anchor="middle" x="321" y="-7.5" font-family="Helvetica,sans-Serif" font-size="10.00">BattleshipRoyale/Connect.h</text>
</a>
</g>
</g>
<!-- Node6&#45;&gt;Node8 -->
<g id="edge9" class="edge"><title>Node6&#45;&gt;Node8</title>
<path fill="none" stroke="midnightblue" d="M321,-56.083C321,-49.0059 321,-38.8611 321,-29.9865"/>
<polygon fill="midnightblue" stroke="midnightblue" points="324.5,-29.751 321,-19.7511 317.5,-29.7511 324.5,-29.751"/>
</g>
<!-- Node9 -->
<g id="node10" class="node"><title>Node9</title>
<g id="a_node10"><a xlink:href="_battleship_royale_2_battleship_royale_2_console_8h.html" target="_top" xlink:title="Константы консоли">
<polygon fill="white" stroke="black" points="407.5,-0.5 407.5,-19.5 544.5,-19.5 544.5,-0.5 407.5,-0.5"/>
<text text-anchor="middle" x="476" y="-7.5" font-family="Helvetica,sans-Serif" font-size="10.00">BattleshipRoyale/Console.h</text>
</a>
</g>
</g>
<!-- Node6&#45;&gt;Node9 -->
<g id="edge11" class="edge"><title>Node6&#45;&gt;Node9</title>
<path fill="none" stroke="midnightblue" d="M345.56,-56.4435C371.523,-47.3986 412.668,-33.064 441.797,-22.9158"/>
<polygon fill="midnightblue" stroke="midnightblue" points="443.263,-26.1116 451.555,-19.5164 440.96,-19.5013 443.263,-26.1116"/>
</g>
<!-- Node10 -->
<g id="node11" class="node"><title>Node10</title>
<g id="a_node11"><a xlink:href="_battleship_royale_2_battleship_royale_2_regex_8h.html" target="_top" xlink:title="Константы регулярных выражений">
<polygon fill="white" stroke="black" points="562.5,-0.5 562.5,-19.5 691.5,-19.5 691.5,-0.5 562.5,-0.5"/>
<text text-anchor="middle" x="627" y="-7.5" font-family="Helvetica,sans-Serif" font-size="10.00">BattleshipRoyale/Regex.h</text>
</a>
</g>
</g>
<!-- Node6&#45;&gt;Node10 -->
<g id="edge12" class="edge"><title>Node6&#45;&gt;Node10</title>
<path fill="none" stroke="midnightblue" d="M369.487,-56.4435C423.539,-46.9049 510.928,-31.4834 568.673,-21.293"/>
<polygon fill="midnightblue" stroke="midnightblue" points="569.501,-24.7011 578.74,-19.5164 568.284,-17.8076 569.501,-24.7011"/>
</g>
<!-- Node11 -->
<g id="node12" class="node"><title>Node11</title>
<g id="a_node12"><a xlink:href="_code_8h.html" target="_top" xlink:title="Различные коды ответов">
<polygon fill="white" stroke="black" points="710,-0.5 710,-19.5 834,-19.5 834,-0.5 710,-0.5"/>
<text text-anchor="middle" x="772" y="-7.5" font-family="Helvetica,sans-Serif" font-size="10.00">BattleshipRoyale/Code.h</text>
</a>
</g>
</g>
<!-- Node6&#45;&gt;Node11 -->
<g id="edge13" class="edge"><title>Node6&#45;&gt;Node11</title>
<path fill="none" stroke="midnightblue" d="M370.206,-59.3038C440.75,-51.1084 574.991,-35.4062 699.567,-20.1678"/>
<polygon fill="midnightblue" stroke="midnightblue" points="700.165,-23.6208 709.666,-18.931 699.314,-16.6727 700.165,-23.6208"/>
</g>
<!-- Node12&#45;&gt;Node1 -->
<g id="edge15" class="edge"><title>Node12&#45;&gt;Node1</title>
<path fill="none" stroke="midnightblue" d="M83,-112.083C83,-105.006 83,-94.8611 83,-85.9865"/>
<polygon fill="midnightblue" stroke="midnightblue" points="86.5001,-85.751 83,-75.7511 79.5001,-85.7511 86.5001,-85.751"/>
</g>
</g>
</svg>
        <g id="navigator" transform="translate(0 0)" fill="#404254">
                <rect fill="#f2f5e9" fill-opacity="0.5" stroke="#606060" stroke-width=".5" x="0" y="0" width="60" height="60"/>
                <use id="zoomplus" xlink:href="#zoomPlus" x="17" y="9" onmousedown="handleZoom(evt,'in')"/>
                <use id="zoomminus" xlink:href="#zoomMin" x="42" y="9" onmousedown="handleZoom(evt,'out')"/>
                <use id="reset" xlink:href="#resetDef" x="30" y="36" onmousedown="handleReset()"/>
                <g id="arrowUp" xlink:href="#dirArrow" transform="translate(30 24)" onmousedown="handlePan(0,-1)">
                  <use xlink:href="#rim" fill="#404040">
                        <set attributeName="fill" to="#808080" begin="arrowUp.mouseover" end="arrowUp.mouseout"/>
                  </use>
                  <path fill="none" stroke="white" stroke-width="1.5" d="M0,-3.0v7 M-2.5,-0.5L0,-3.0L2.5,-0.5"/>
                </g>
                <g id="arrowRight" xlink:href="#dirArrow" transform="rotate(90) translate(36 -43)" onmousedown="handlePan(1,0)">
                  <use xlink:href="#rim" fill="#404040">
                        <set attributeName="fill" to="#808080" begin="arrowRight.mouseover" end="arrowRight.mouseout"/>
                  </use>
                  <path fill="none" stroke="white" stroke-width="1.5" d="M0,-3.0v7 M-2.5,-0.5L0,-3.0L2.5,-0.5"/>
                </g>
                <g id="arrowDown" xlink:href="#dirArrow" transform="rotate(180) translate(-30 -48)" onmousedown="handlePan(0,1)">
                  <use xlink:href="#rim" fill="#404040">
                        <set attributeName="fill" to="#808080" begin="arrowDown.mouseover" end="arrowDown.mouseout"/>
                  </use>
                  <path fill="none" stroke="white" stroke-width="1.5" d="M0,-3.0v7 M-2.5,-0.5L0,-3.0L2.5,-0.5"/>
                </g>
                <g id="arrowLeft" xlink:href="#dirArrow" transform="rotate(270) translate(-36 17)" onmousedown="handlePan(-1,0)">
                  <use xlink:href="#rim" fill="#404040">
                        <set attributeName="fill" to="#808080" begin="arrowLeft.mouseover" end="arrowLeft.mouseout"/>
                  </use>
                  <path fill="none" stroke="white" stroke-width="1.5" d="M0,-3.0v7 M-2.5,-0.5L0,-3.0L2.5,-0.5"/>
                </g>
        </g>
        <svg viewBox="0 0 15 15" width="100%" height="30px" preserveAspectRatio="xMaxYMin meet">
         <g id="arrow_out" transform="scale(0.3 0.3)">
          <a xlink:href="examples_2_processing_8cpp__incl_org.svg" target="_base">
           <rect id="button" ry="5" rx="5" y="6" x="6" height="38" width="38"
                fill="#f2f5e9" fill-opacity="0.5" stroke="#606060" stroke-width="1.0"/>
           <path id="arrow"
             d="M 11.500037,31.436501 C 11.940474,20.09759 22.043105,11.32322 32.158766,21.979434 L 37.068811,17.246167 C 37.068811,17.246167 37.088388,32 37.088388,32 L 22.160133,31.978069 C 22.160133,31.978069 26.997745,27.140456 26.997745,27.140456 C 18.528582,18.264221 13.291696,25.230495 11.500037,31.436501 z"
             style="fill:#404040;"/>
          </a>
         </g>
        </svg>
</svg>
