<?xml version="1.0" encoding="UTF-8" standalone="no"?>
<!DOCTYPE svg PUBLIC "-//W3C//DTD SVG 1.1//EN"
 "http://www.w3.org/Graphics/SVG/1.1/DTD/svg11.dtd">
<!-- Generated by graphviz version 2.38.0 (20140413.2041)
 -->
<!-- Title: Regex.cpp Pages: 1 -->
<svg width="145pt" height="140pt"
 viewBox="0.00 0.00 144.99 140.00" xmlns="http://www.w3.org/2000/svg" xmlns:xlink="http://www.w3.org/1999/xlink">
<g id="graph0" class="graph" transform="scale(1 1) rotate(0) translate(4 136)">
<title>Regex.cpp</title>
<polygon fill="white" stroke="none" points="-4,4 -4,-136 140.993,-136 140.993,4 -4,4"/>
<!-- Node0 -->
<g id="node1" class="node"><title>Node0</title>
<g id="a_node1"><a xlink:title=" ">
<polygon fill="#bfbfbf" stroke="black" points="6.99276,-112.5 6.99276,-131.5 69.9928,-131.5 69.9928,-112.5 6.99276,-112.5"/>
<text text-anchor="middle" x="38.4928" y="-119.5" font-family="Helvetica,sans-Serif" font-size="10.00">Regex.cpp</text>
</a>
</g>
</g>
<!-- Node1 -->
<g id="node2" class="node"><title>Node1</title>
<g id="a_node2"><a xlink:title=" ">
<polygon fill="white" stroke="#bfbfbf" points="25.9928,-0.5 25.9928,-19.5 66.9928,-19.5 66.9928,-0.5 25.9928,-0.5"/>
<text text-anchor="middle" x="46.4928" y="-7.5" font-family="Helvetica,sans-Serif" font-size="10.00">string</text>
</a>
</g>
</g>
<!-- Node0&#45;&gt;Node1 -->
<g id="edge1" class="edge"><title>Node0&#45;&gt;Node1</title>
<path fill="none" stroke="midnightblue" d="M28.0892,-112.496C14.6154,-100.382 -6.17504,-77.263 2.49276,-56 7.29277,-44.2251 16.8214,-33.8564 25.7875,-26.0486"/>
<polygon fill="midnightblue" stroke="midnightblue" points="28.1432,-28.6448 33.7118,-19.6314 23.7378,-23.2048 28.1432,-28.6448"/>
</g>
<!-- Node2 -->
<g id="node3" class="node"><title>Node2</title>
<g id="a_node3"><a xlink:title=" ">
<polygon fill="white" stroke="#bfbfbf" points="11.4928,-56.5 11.4928,-75.5 65.4928,-75.5 65.4928,-56.5 11.4928,-56.5"/>
<text text-anchor="middle" x="38.4928" y="-63.5" font-family="Helvetica,sans-Serif" font-size="10.00">iostream</text>
</a>
</g>
</g>
<!-- Node0&#45;&gt;Node2 -->
<g id="edge2" class="edge"><title>Node0&#45;&gt;Node2</title>
<path fill="none" stroke="midnightblue" d="M38.4928,-112.083C38.4928,-105.006 38.4928,-94.8611 38.4928,-85.9865"/>
<polygon fill="midnightblue" stroke="midnightblue" points="41.9929,-85.751 38.4928,-75.7511 34.9929,-85.7511 41.9929,-85.751"/>
</g>
<!-- Node3 -->
<g id="node4" class="node"><title>Node3</title>
<g id="a_node4"><a xlink:href="_regex_8h.html" target="_top" xlink:title="Работа с регулярными выражениями">
<polygon fill="white" stroke="black" points="83.9928,-56.5 83.9928,-75.5 136.993,-75.5 136.993,-56.5 83.9928,-56.5"/>
<text text-anchor="middle" x="110.493" y="-63.5" font-family="Helvetica,sans-Serif" font-size="10.00">Regex.h</text>
</a>
</g>
</g>
<!-- Node0&#45;&gt;Node3 -->
<g id="edge3" class="edge"><title>Node0&#45;&gt;Node3</title>
<path fill="none" stroke="midnightblue" d="M50.0608,-112.324C60.9129,-104.185 77.3734,-91.8395 90.3762,-82.0874"/>
<polygon fill="midnightblue" stroke="midnightblue" points="92.8142,-84.6339 98.7142,-75.8339 88.6142,-79.0339 92.8142,-84.6339"/>
</g>
<!-- Node3&#45;&gt;Node1 -->
<g id="edge4" class="edge"><title>Node3&#45;&gt;Node1</title>
<path fill="none" stroke="midnightblue" d="M100.21,-56.324C90.6565,-48.2631 76.2131,-36.0765 64.7084,-26.3695"/>
<polygon fill="midnightblue" stroke="midnightblue" points="66.8626,-23.6076 56.9626,-19.8339 62.3484,-28.9577 66.8626,-23.6076"/>
</g>
</g>
</svg>
