<?xml version="1.0" encoding="UTF-8" standalone="no"?>
<!DOCTYPE svg PUBLIC "-//W3C//DTD SVG 1.1//EN"
 "http://www.w3.org/Graphics/SVG/1.1/DTD/svg11.dtd">
<!-- Generated by graphviz version 2.38.0 (20140413.2041)
 -->
<!-- Title: src/examples/Regex.cpp Pages: 1 -->
<svg width="169pt" height="140pt"
 viewBox="0.00 0.00 169.00 140.00" xmlns="http://www.w3.org/2000/svg" xmlns:xlink="http://www.w3.org/1999/xlink">
<g id="graph0" class="graph" transform="scale(1 1) rotate(0) translate(4 136)">
<title>src/examples/Regex.cpp</title>
<polygon fill="white" stroke="none" points="-4,4 -4,-136 165,-136 165,4 -4,4"/>
<!-- Node0 -->
<g id="node1" class="node"><title>Node0</title>
<g id="a_node1"><a xlink:title=" ">
<polygon fill="#bfbfbf" stroke="black" points="0,-112.5 0,-131.5 125,-131.5 125,-112.5 0,-112.5"/>
<text text-anchor="middle" x="62.5" y="-119.5" font-family="Helvetica,sans-Serif" font-size="10.00">src/examples/Regex.cpp</text>
</a>
</g>
</g>
<!-- Node1 -->
<g id="node2" class="node"><title>Node1</title>
<g id="a_node2"><a xlink:title=" ">
<polygon fill="white" stroke="#bfbfbf" points="50,-0.5 50,-19.5 91,-19.5 91,-0.5 50,-0.5"/>
<text text-anchor="middle" x="70.5" y="-7.5" font-family="Helvetica,sans-Serif" font-size="10.00">string</text>
</a>
</g>
</g>
<!-- Node0&#45;&gt;Node1 -->
<g id="edge1" class="edge"><title>Node0&#45;&gt;Node1</title>
<path fill="none" stroke="midnightblue" d="M52.0964,-112.496C38.6226,-100.382 17.8322,-77.263 26.5,-56 31.3,-44.2251 40.8286,-33.8564 49.7948,-26.0486"/>
<polygon fill="midnightblue" stroke="midnightblue" points="52.1504,-28.6448 57.7191,-19.6314 47.745,-23.2048 52.1504,-28.6448"/>
</g>
<!-- Node2 -->
<g id="node3" class="node"><title>Node2</title>
<g id="a_node3"><a xlink:title=" ">
<polygon fill="white" stroke="#bfbfbf" points="35.5,-56.5 35.5,-75.5 89.5,-75.5 89.5,-56.5 35.5,-56.5"/>
<text text-anchor="middle" x="62.5" y="-63.5" font-family="Helvetica,sans-Serif" font-size="10.00">iostream</text>
</a>
</g>
</g>
<!-- Node0&#45;&gt;Node2 -->
<g id="edge2" class="edge"><title>Node0&#45;&gt;Node2</title>
<path fill="none" stroke="midnightblue" d="M62.5,-112.083C62.5,-105.006 62.5,-94.8611 62.5,-85.9865"/>
<polygon fill="midnightblue" stroke="midnightblue" points="66.0001,-85.751 62.5,-75.7511 59.0001,-85.7511 66.0001,-85.751"/>
</g>
<!-- Node3 -->
<g id="node4" class="node"><title>Node3</title>
<g id="a_node4"><a xlink:href="_regex_8h.html" target="_top" xlink:title="Работа с регулярными выражениями">
<polygon fill="white" stroke="black" points="108,-56.5 108,-75.5 161,-75.5 161,-56.5 108,-56.5"/>
<text text-anchor="middle" x="134.5" y="-63.5" font-family="Helvetica,sans-Serif" font-size="10.00">Regex.h</text>
</a>
</g>
</g>
<!-- Node0&#45;&gt;Node3 -->
<g id="edge3" class="edge"><title>Node0&#45;&gt;Node3</title>
<path fill="none" stroke="midnightblue" d="M74.068,-112.324C84.9202,-104.185 101.381,-91.8395 114.383,-82.0874"/>
<polygon fill="midnightblue" stroke="midnightblue" points="116.821,-84.6339 122.721,-75.8339 112.621,-79.0339 116.821,-84.6339"/>
</g>
<!-- Node3&#45;&gt;Node1 -->
<g id="edge4" class="edge"><title>Node3&#45;&gt;Node1</title>
<path fill="none" stroke="midnightblue" d="M124.217,-56.324C114.664,-48.2631 100.22,-36.0765 88.7157,-26.3695"/>
<polygon fill="midnightblue" stroke="midnightblue" points="90.8698,-23.6076 80.9698,-19.8339 86.3557,-28.9577 90.8698,-23.6076"/>
</g>
</g>
</svg>
