<?xml version="1.0" encoding="UTF-8" standalone="no"?>
<!DOCTYPE svg PUBLIC "-//W3C//DTD SVG 1.1//EN"
 "http://www.w3.org/Graphics/SVG/1.1/DTD/svg11.dtd">
<!-- Generated by graphviz version 2.38.0 (20140413.2041)
 -->
<!-- Title: src/examples/rand_sse.cpp Pages: 1 -->
<svg width="146pt" height="84pt"
 viewBox="0.00 0.00 146.00 84.00" xmlns="http://www.w3.org/2000/svg" xmlns:xlink="http://www.w3.org/1999/xlink">
<g id="graph0" class="graph" transform="scale(1 1) rotate(0) translate(4 80)">
<title>src/examples/rand_sse.cpp</title>
<polygon fill="white" stroke="none" points="-4,4 -4,-80 142,-80 142,4 -4,4"/>
<!-- Node0 -->
<g id="node1" class="node"><title>Node0</title>
<g id="a_node1"><a xlink:title=" ">
<polygon fill="#bfbfbf" stroke="black" points="0,-56.5 0,-75.5 137,-75.5 137,-56.5 0,-56.5"/>
<text text-anchor="middle" x="68.5" y="-63.5" font-family="Helvetica,sans-Serif" font-size="10.00">src/examples/rand_sse.cpp</text>
</a>
</g>
</g>
<!-- Node1 -->
<g id="node2" class="node"><title>Node1</title>
<g id="a_node2"><a xlink:title=" ">
<polygon fill="white" stroke="#bfbfbf" points="10.5,-0.5 10.5,-19.5 54.5,-19.5 54.5,-0.5 10.5,-0.5"/>
<text text-anchor="middle" x="32.5" y="-7.5" font-family="Helvetica,sans-Serif" font-size="10.00">time.h</text>
</a>
</g>
</g>
<!-- Node0&#45;&gt;Node1 -->
<g id="edge1" class="edge"><title>Node0&#45;&gt;Node1</title>
<path fill="none" stroke="midnightblue" d="M62.5553,-56.083C57.5227,-48.5341 50.1632,-37.4948 43.9865,-28.2298"/>
<polygon fill="midnightblue" stroke="midnightblue" points="46.7933,-26.1301 38.3341,-19.7511 40.9689,-30.0131 46.7933,-26.1301"/>
</g>
<!-- Node2 -->
<g id="node3" class="node"><title>Node2</title>
<g id="a_node3"><a xlink:href="rand__sse_8h.html" target="_top" xlink:title="Генерация рандомных чисел через SSE.">
<polygon fill="white" stroke="black" points="73,-0.5 73,-19.5 138,-19.5 138,-0.5 73,-0.5"/>
<text text-anchor="middle" x="105.5" y="-7.5" font-family="Helvetica,sans-Serif" font-size="10.00">rand_sse.h</text>
</a>
</g>
</g>
<!-- Node0&#45;&gt;Node2 -->
<g id="edge2" class="edge"><title>Node0&#45;&gt;Node2</title>
<path fill="none" stroke="midnightblue" d="M74.6098,-56.083C79.7822,-48.5341 87.3461,-37.4948 93.6944,-28.2298"/>
<polygon fill="midnightblue" stroke="midnightblue" points="96.7388,-29.9787 99.5039,-19.7511 90.9643,-26.0221 96.7388,-29.9787"/>
</g>
</g>
</svg>
