<?xml version="1.0" encoding="UTF-8" standalone="no"?>
<!DOCTYPE svg PUBLIC "-//W3C//DTD SVG 1.1//EN"
 "http://www.w3.org/Graphics/SVG/1.1/DTD/svg11.dtd">
<!-- Generated by graphviz version 2.38.0 (20140413.2041)
 -->
<!-- Title: Processing.cpp Pages: 1 -->
<svg width="257pt" height="196pt"
 viewBox="0.00 0.00 257.00 196.00" xmlns="http://www.w3.org/2000/svg" xmlns:xlink="http://www.w3.org/1999/xlink">
<g id="graph0" class="graph" transform="scale(1 1) rotate(0) translate(4 192)">
<title>Processing.cpp</title>
<polygon fill="white" stroke="none" points="-4,4 -4,-192 253,-192 253,4 -4,4"/>
<!-- Node0 -->
<g id="node1" class="node"><title>Node0</title>
<g id="a_node1"><a xlink:title=" ">
<polygon fill="#bfbfbf" stroke="black" points="0,-168.5 0,-187.5 84,-187.5 84,-168.5 0,-168.5"/>
<text text-anchor="middle" x="42" y="-175.5" font-family="Helvetica,sans-Serif" font-size="10.00">Processing.cpp</text>
</a>
</g>
</g>
<!-- Node1 -->
<g id="node2" class="node"><title>Node1</title>
<g id="a_node2"><a xlink:title=" ">
<polygon fill="white" stroke="#bfbfbf" points="2.5,-0.5 2.5,-19.5 43.5,-19.5 43.5,-0.5 2.5,-0.5"/>
<text text-anchor="middle" x="23" y="-7.5" font-family="Helvetica,sans-Serif" font-size="10.00">string</text>
</a>
</g>
</g>
<!-- Node0&#45;&gt;Node1 -->
<g id="edge1" class="edge"><title>Node0&#45;&gt;Node1</title>
<path fill="none" stroke="midnightblue" d="M31.8379,-168.185C23.0916,-159.87 11.1,-146.539 6,-132 -6.29435,-96.9515 6.18088,-53.2441 15.2947,-29.1171"/>
<polygon fill="midnightblue" stroke="midnightblue" points="18.5637,-30.3686 19.0287,-19.784 12.0645,-27.7683 18.5637,-30.3686"/>
</g>
<!-- Node2 -->
<g id="node3" class="node"><title>Node2</title>
<g id="a_node3"><a xlink:title=" ">
<polygon fill="white" stroke="#bfbfbf" points="15,-112.5 15,-131.5 69,-131.5 69,-112.5 15,-112.5"/>
<text text-anchor="middle" x="42" y="-119.5" font-family="Helvetica,sans-Serif" font-size="10.00">iostream</text>
</a>
</g>
</g>
<!-- Node0&#45;&gt;Node2 -->
<g id="edge2" class="edge"><title>Node0&#45;&gt;Node2</title>
<path fill="none" stroke="midnightblue" d="M42,-168.083C42,-161.006 42,-150.861 42,-141.986"/>
<polygon fill="midnightblue" stroke="midnightblue" points="45.5001,-141.751 42,-131.751 38.5001,-141.751 45.5001,-141.751"/>
</g>
<!-- Node3 -->
<g id="node4" class="node"><title>Node3</title>
<g id="a_node4"><a xlink:href="_processing_8h.html" target="_top" xlink:title="Обработка запросов">
<polygon fill="white" stroke="black" points="87,-112.5 87,-131.5 161,-131.5 161,-112.5 87,-112.5"/>
<text text-anchor="middle" x="124" y="-119.5" font-family="Helvetica,sans-Serif" font-size="10.00">Processing.h</text>
</a>
</g>
</g>
<!-- Node0&#45;&gt;Node3 -->
<g id="edge3" class="edge"><title>Node0&#45;&gt;Node3</title>
<path fill="none" stroke="midnightblue" d="M55.1747,-168.324C67.8468,-159.979 87.2334,-147.212 102.206,-137.352"/>
<polygon fill="midnightblue" stroke="midnightblue" points="104.431,-140.078 110.858,-131.655 100.581,-134.231 104.431,-140.078"/>
</g>
<!-- Node4 -->
<g id="node5" class="node"><title>Node4</title>
<g id="a_node5"><a xlink:href="server_2src_2_mini_d_b_8h.html" target="_top" xlink:title="Облегчённый класс для работы с бд">
<polygon fill="white" stroke="black" points="87,-56.5 87,-75.5 143,-75.5 143,-56.5 87,-56.5"/>
<text text-anchor="middle" x="115" y="-63.5" font-family="Helvetica,sans-Serif" font-size="10.00">MiniDB.h</text>
</a>
</g>
</g>
<!-- Node3&#45;&gt;Node4 -->
<g id="edge4" class="edge"><title>Node3&#45;&gt;Node4</title>
<path fill="none" stroke="midnightblue" d="M122.514,-112.083C121.321,-104.927 119.606,-94.6353 118.115,-85.6911"/>
<polygon fill="midnightblue" stroke="midnightblue" points="121.555,-85.0396 116.459,-75.7511 114.65,-86.1904 121.555,-85.0396"/>
</g>
<!-- Node4&#45;&gt;Node1 -->
<g id="edge5" class="edge"><title>Node4&#45;&gt;Node1</title>
<path fill="none" stroke="midnightblue" d="M100.219,-56.324C85.7329,-47.8215 63.4269,-34.7288 46.5068,-24.7975"/>
<polygon fill="midnightblue" stroke="midnightblue" points="48.1406,-21.6981 37.7447,-19.6545 44.5972,-27.735 48.1406,-21.6981"/>
</g>
<!-- Node5 -->
<g id="node6" class="node"><title>Node5</title>
<g id="a_node6"><a xlink:title=" ">
<polygon fill="white" stroke="#bfbfbf" points="79.5,-0.5 79.5,-19.5 132.5,-19.5 132.5,-0.5 79.5,-0.5"/>
<text text-anchor="middle" x="106" y="-7.5" font-family="Helvetica,sans-Serif" font-size="10.00">sqlite3.h</text>
</a>
</g>
</g>
<!-- Node4&#45;&gt;Node5 -->
<g id="edge6" class="edge"><title>Node4&#45;&gt;Node5</title>
<path fill="none" stroke="midnightblue" d="M113.514,-56.083C112.321,-48.9272 110.606,-38.6353 109.115,-29.6911"/>
<polygon fill="midnightblue" stroke="midnightblue" points="112.555,-29.0396 107.459,-19.7511 105.65,-30.1904 112.555,-29.0396"/>
</g>
<!-- Node6 -->
<g id="node7" class="node"><title>Node6</title>
<g id="a_node7"><a xlink:href="_battleship_royale_8h.html" target="_top" xlink:title="Заголовочный файл с пространством имён, которое хранит в себе константы.">
<polygon fill="white" stroke="black" points="151,-0.5 151,-19.5 249,-19.5 249,-0.5 151,-0.5"/>
<text text-anchor="middle" x="200" y="-7.5" font-family="Helvetica,sans-Serif" font-size="10.00">BattleshipRoyale.h</text>
</a>
</g>
</g>
<!-- Node4&#45;&gt;Node6 -->
<g id="edge7" class="edge"><title>Node4&#45;&gt;Node6</title>
<path fill="none" stroke="midnightblue" d="M128.657,-56.324C141.916,-47.9002 162.268,-34.9709 177.846,-25.0741"/>
<polygon fill="midnightblue" stroke="midnightblue" points="179.813,-27.9711 186.377,-19.6545 176.06,-22.0626 179.813,-27.9711"/>
</g>
</g>
</svg>
