<?xml version="1.0" encoding="UTF-8" standalone="no"?>
<!DOCTYPE svg PUBLIC "-//W3C//DTD SVG 1.1//EN"
 "http://www.w3.org/Graphics/SVG/1.1/DTD/svg11.dtd">
<!-- Generated by graphviz version 2.38.0 (20140413.2041)
 -->
<!-- Title: Code.h Pages: 1 -->
<svg width="298pt" height="212pt"
 viewBox="0.00 0.00 298.00 212.00" xmlns="http://www.w3.org/2000/svg" xmlns:xlink="http://www.w3.org/1999/xlink">
<g id="graph0" class="graph" transform="scale(1 1) rotate(0) translate(4 208)">
<title>Code.h</title>
<polygon fill="white" stroke="none" points="-4,4 -4,-208 294,-208 294,4 -4,4"/>
<!-- Node5 -->
<g id="node1" class="node"><title>Node5</title>
<g id="a_node1"><a xlink:href="group__sqlite3__h.html" target="_top" xlink:title=" ">
<polygon fill="white" stroke="black" points="285,-204 232,-204 232,-185 285,-185 285,-204"/>
<text text-anchor="middle" x="258.5" y="-192" font-family="Helvetica,sans-Serif" font-size="10.00">sqlite3.h</text>
</a>
</g>
</g>
<!-- Node3 -->
<g id="node2" class="node"><title>Node3</title>
<g id="a_node2"><a xlink:href="group__console__h.html" target="_top" xlink:title=" ">
<polygon fill="white" stroke="black" points="288.5,-167 228.5,-167 228.5,-148 288.5,-148 288.5,-167"/>
<text text-anchor="middle" x="258.5" y="-155" font-family="Helvetica,sans-Serif" font-size="10.00">Console.h</text>
</a>
</g>
</g>
<!-- Node1 -->
<g id="node3" class="node"><title>Node1</title>
<g id="a_node3"><a xlink:href="group__battleship-royale.html" target="_top" xlink:title="Общие файлы">
<polygon fill="white" stroke="black" points="93,-111 0,-111 0,-92 93,-92 93,-111"/>
<text text-anchor="middle" x="46.5" y="-99" font-family="Helvetica,sans-Serif" font-size="10.00">Battleship&#45;Royale</text>
</a>
</g>
</g>
<!-- Node0 -->
<g id="node6" class="node"><title>Node0</title>
<g id="a_node6"><a xlink:title=" ">
<polygon fill="#bfbfbf" stroke="black" points="177,-111 130,-111 130,-92 177,-92 177,-111"/>
<text text-anchor="middle" x="153.5" y="-99" font-family="Helvetica,sans-Serif" font-size="10.00">Code.h</text>
</a>
</g>
</g>
<!-- Node1&#45;&gt;Node0 -->
<g id="edge1" class="edge"><title>Node1&#45;&gt;Node0</title>
<path fill="none" stroke="black" d="M103.435,-101.5C112.821,-101.5 122.06,-101.5 129.945,-101.5"/>
<polygon fill="black" stroke="black" points="103.249,-98.0001 93.2491,-101.5 103.249,-105 103.249,-98.0001"/>
</g>
<!-- Node4 -->
<g id="node4" class="node"><title>Node4</title>
<g id="a_node4"><a xlink:href="group__regex__h.html" target="_top" xlink:title=" ">
<polygon fill="white" stroke="black" points="285,-130 232,-130 232,-111 285,-111 285,-130"/>
<text text-anchor="middle" x="258.5" y="-118" font-family="Helvetica,sans-Serif" font-size="10.00">Regex.h</text>
</a>
</g>
</g>
<!-- Node6 -->
<g id="node5" class="node"><title>Node6</title>
<g id="a_node5"><a xlink:href="group__version__h.html" target="_top" xlink:title=" ">
<polygon fill="white" stroke="black" points="287.5,-93 229.5,-93 229.5,-74 287.5,-74 287.5,-93"/>
<text text-anchor="middle" x="258.5" y="-81" font-family="Helvetica,sans-Serif" font-size="10.00">Version.h</text>
</a>
</g>
</g>
<!-- Node0&#45;&gt;Node5 -->
<g id="edge5" class="edge"><title>Node0&#45;&gt;Node5</title>
<path fill="none" stroke="blueviolet" stroke-dasharray="5,2" d="M162.111,-111.272C174.453,-126.641 200.167,-156.742 227,-176.5 230.961,-179.417 235.425,-182.268 239.69,-184.81"/>
<text text-anchor="middle" x="202" y="-162.5" font-family="Helvetica,sans-Serif" font-size="10.00">BR</text>
</g>
<!-- Node0&#45;&gt;Node3 -->
<g id="edge3" class="edge"><title>Node0&#45;&gt;Node3</title>
<path fill="none" stroke="blueviolet" stroke-dasharray="5,2" d="M170.141,-111.074C177.605,-115.564 186.698,-120.921 195,-125.5 209.303,-133.39 225.757,-141.788 238.191,-148"/>
<text text-anchor="middle" x="202" y="-135.5" font-family="Helvetica,sans-Serif" font-size="10.00">BR</text>
</g>
<!-- Node0&#45;&gt;Node4 -->
<g id="edge4" class="edge"><title>Node0&#45;&gt;Node4</title>
<path fill="none" stroke="blueviolet" stroke-dasharray="5,2" d="M177.104,-105.67C193.211,-108.641 214.894,-112.641 231.683,-115.738"/>
<text text-anchor="middle" x="202" y="-113.5" font-family="Helvetica,sans-Serif" font-size="10.00">BR</text>
</g>
<!-- Node0&#45;&gt;Node6 -->
<g id="edge6" class="edge"><title>Node0&#45;&gt;Node6</title>
<path fill="none" stroke="blueviolet" stroke-dasharray="5,2" d="M177.333,-92.4102C183.022,-90.4799 189.165,-88.6729 195,-87.5 206.086,-85.2716 218.48,-84.1936 229.289,-83.6991"/>
<text text-anchor="middle" x="202" y="-90.5" font-family="Helvetica,sans-Serif" font-size="10.00">BR</text>
</g>
<!-- Node7 -->
<g id="node7" class="node"><title>Node7</title>
<g id="a_node7"><a xlink:href="group__openmp__h.html" target="_top" xlink:title=" ">
<polygon fill="white" stroke="black" points="290,-56 227,-56 227,-37 290,-37 290,-56"/>
<text text-anchor="middle" x="258.5" y="-44" font-family="Helvetica,sans-Serif" font-size="10.00">OpenMP.h</text>
</a>
</g>
</g>
<!-- Node0&#45;&gt;Node7 -->
<g id="edge7" class="edge"><title>Node0&#45;&gt;Node7</title>
<path fill="none" stroke="blueviolet" stroke-dasharray="5,2" d="M165.246,-91.9007C173.083,-85.2553 184.181,-76.5513 195,-70.5 205.144,-64.8261 216.9,-59.9228 227.46,-56.0539"/>
<text text-anchor="middle" x="202" y="-73.5" font-family="Helvetica,sans-Serif" font-size="10.00">BR</text>
</g>
<!-- Node2 -->
<g id="node8" class="node"><title>Node2</title>
<g id="a_node8"><a xlink:href="group__connect__h.html" target="_top" xlink:title=" ">
<polygon fill="white" stroke="black" points="289,-19 228,-19 228,-0 289,-0 289,-19"/>
<text text-anchor="middle" x="258.5" y="-7" font-family="Helvetica,sans-Serif" font-size="10.00">Connect.h</text>
</a>
</g>
</g>
<!-- Node0&#45;&gt;Node2 -->
<g id="edge2" class="edge"><title>Node0&#45;&gt;Node2</title>
<path fill="none" stroke="blueviolet" stroke-dasharray="5,2" d="M160.607,-91.9643C167.939,-80.9583 181.009,-62.6836 195,-49.5 207.561,-37.6639 212.448,-36.7804 227,-27.5 231.458,-24.6567 236.363,-21.6924 240.911,-19.0092"/>
<text text-anchor="middle" x="202" y="-52.5" font-family="Helvetica,sans-Serif" font-size="10.00">BR</text>
</g>
</g>
</svg>
