<?xml version="1.0" encoding="UTF-8" standalone="no"?>
<!DOCTYPE svg PUBLIC "-//W3C//DTD SVG 1.1//EN"
 "http://www.w3.org/Graphics/SVG/1.1/DTD/svg11.dtd">
<!-- Generated by graphviz version 2.38.0 (20140413.2041)
 -->
<!-- Title: Server Pages: 1 -->
<svg width="195pt" height="545pt"
 viewBox="0.00 0.00 195.00 545.00" xmlns="http://www.w3.org/2000/svg" xmlns:xlink="http://www.w3.org/1999/xlink">
<g id="graph0" class="graph" transform="scale(1 1) rotate(0) translate(4 541)">
<title>Server</title>
<polygon fill="white" stroke="none" points="-4,4 -4,-541 191,-541 191,4 -4,4"/>
<!-- Node2 -->
<g id="node1" class="node"><title>Node2</title>
<g id="a_node1"><a xlink:href="group__dbh.html" target="_top" xlink:title=" ">
<polygon fill="white" stroke="black" points="152.5,-537 114.5,-537 114.5,-518 152.5,-518 152.5,-537"/>
<text text-anchor="middle" x="133.5" y="-525" font-family="Helvetica,sans-Serif" font-size="10.00">DB.h</text>
</a>
</g>
</g>
<!-- Node14 -->
<g id="node2" class="node"><title>Node14</title>
<g id="a_node2"><a xlink:href="group__servercpp.html" target="_top" xlink:title=" ">
<polygon fill="white" stroke="black" points="164.5,-500 102.5,-500 102.5,-481 164.5,-481 164.5,-500"/>
<text text-anchor="middle" x="133.5" y="-488" font-family="Helvetica,sans-Serif" font-size="10.00">Server.cpp</text>
</a>
</g>
</g>
<!-- Node7 -->
<g id="node3" class="node"><title>Node7</title>
<g id="a_node3"><a xlink:href="group__minidb__h.html" target="_top" xlink:title=" ">
<polygon fill="white" stroke="black" points="161.5,-463 105.5,-463 105.5,-444 161.5,-444 161.5,-463"/>
<text text-anchor="middle" x="133.5" y="-451" font-family="Helvetica,sans-Serif" font-size="10.00">MiniDB.h</text>
</a>
</g>
</g>
<!-- Node0 -->
<g id="node4" class="node"><title>Node0</title>
<g id="a_node4"><a xlink:title="Сервер">
<polygon fill="#bfbfbf" stroke="black" points="44,-278 0,-278 0,-259 44,-259 44,-278"/>
<text text-anchor="middle" x="22" y="-266" font-family="Helvetica,sans-Serif" font-size="10.00">Server</text>
</a>
</g>
</g>
<!-- Node0&#45;&gt;Node2 -->
<g id="edge2" class="edge"><title>Node0&#45;&gt;Node2</title>
<path fill="none" stroke="black" d="M25.235,-288.44C31.4022,-340.114 50.2019,-476.627 80,-509.5 88.7361,-519.138 102.858,-523.616 114.256,-525.697"/>
<polygon fill="black" stroke="black" points="28.6823,-287.783 24.0531,-278.253 21.7289,-288.59 28.6823,-287.783"/>
</g>
<!-- Node0&#45;&gt;Node14 -->
<g id="edge14" class="edge"><title>Node0&#45;&gt;Node14</title>
<path fill="none" stroke="black" d="M22.7722,-288.164C23.391,-328.251 30.5037,-420.055 80,-472.5 85.9521,-478.807 94.2079,-482.904 102.412,-485.565"/>
<polygon fill="black" stroke="black" points="26.2721,-288.087 22.7421,-278.097 19.2721,-288.108 26.2721,-288.087"/>
</g>
<!-- Node0&#45;&gt;Node7 -->
<g id="edge7" class="edge"><title>Node0&#45;&gt;Node7</title>
<path fill="none" stroke="black" d="M24.2789,-288.591C27.5561,-323.278 39.1572,-394.601 80,-435.5 86.8086,-442.318 96.3088,-446.556 105.359,-449.189"/>
<polygon fill="black" stroke="black" points="27.7442,-288.017 23.4564,-278.329 20.7666,-288.577 27.7442,-288.017"/>
</g>
<!-- Node10 -->
<g id="node5" class="node"><title>Node10</title>
<g id="a_node5"><a xlink:href="group__rand__ssecpp.html" target="_top" xlink:title=" ">
<polygon fill="white" stroke="black" points="171,-426 96,-426 96,-407 171,-407 171,-426"/>
<text text-anchor="middle" x="133.5" y="-414" font-family="Helvetica,sans-Serif" font-size="10.00">rand_sse.cpp</text>
</a>
</g>
</g>
<!-- Node0&#45;&gt;Node10 -->
<g id="edge10" class="edge"><title>Node0&#45;&gt;Node10</title>
<path fill="none" stroke="black" d="M26.4489,-288.083C32.4249,-316.34 47.3437,-368.445 80,-398.5 84.5375,-402.676 90.0875,-405.889 95.8601,-408.36"/>
<polygon fill="black" stroke="black" points="29.8707,-287.343 24.5213,-278.198 23.0001,-288.683 29.8707,-287.343"/>
</g>
<!-- Node13 -->
<g id="node6" class="node"><title>Node13</title>
<g id="a_node6"><a xlink:href="group__regexh.html" target="_top" xlink:title=" ">
<polygon fill="white" stroke="black" points="160,-389 107,-389 107,-370 160,-370 160,-389"/>
<text text-anchor="middle" x="133.5" y="-377" font-family="Helvetica,sans-Serif" font-size="10.00">Regex.h</text>
</a>
</g>
</g>
<!-- Node0&#45;&gt;Node13 -->
<g id="edge13" class="edge"><title>Node0&#45;&gt;Node13</title>
<path fill="none" stroke="black" d="M30.0922,-287.627C38.7934,-308.589 55.4759,-341.845 80,-361.5 87.7443,-367.707 97.7555,-371.833 106.956,-374.548"/>
<polygon fill="black" stroke="black" points="33.2912,-286.198 26.3661,-278.18 26.7794,-288.766 33.2912,-286.198"/>
</g>
<!-- Node11 -->
<g id="node7" class="node"><title>Node11</title>
<g id="a_node7"><a xlink:href="group__rand__sseh.html" target="_top" xlink:title=" ">
<polygon fill="white" stroke="black" points="166,-352 101,-352 101,-333 166,-333 166,-352"/>
<text text-anchor="middle" x="133.5" y="-340" font-family="Helvetica,sans-Serif" font-size="10.00">rand_sse.h</text>
</a>
</g>
</g>
<!-- Node0&#45;&gt;Node11 -->
<g id="edge11" class="edge"><title>Node0&#45;&gt;Node11</title>
<path fill="none" stroke="black" d="M37.0141,-285.927C47.675,-298.19 63.3151,-314.192 80,-324.5 86.3938,-328.45 93.7651,-331.664 100.925,-334.224"/>
<polygon fill="black" stroke="black" points="39.5911,-283.554 30.4774,-278.151 34.2327,-288.058 39.5911,-283.554"/>
</g>
<!-- Node6 -->
<g id="node8" class="node"><title>Node6</title>
<g id="a_node8"><a xlink:href="group__minidb__cpp.html" target="_top" xlink:title=" ">
<polygon fill="white" stroke="black" points="167,-315 100,-315 100,-296 167,-296 167,-315"/>
<text text-anchor="middle" x="133.5" y="-303" font-family="Helvetica,sans-Serif" font-size="10.00">MiniDB.cpp</text>
</a>
</g>
</g>
<!-- Node0&#45;&gt;Node6 -->
<g id="edge6" class="edge"><title>Node0&#45;&gt;Node6</title>
<path fill="none" stroke="black" d="M53.9063,-278.943C69.6342,-284.258 88.6247,-290.675 103.998,-295.869"/>
<polygon fill="black" stroke="black" points="54.7069,-275.519 44.1127,-275.634 52.466,-282.151 54.7069,-275.519"/>
</g>
<!-- Node15 -->
<g id="node9" class="node"><title>Node15</title>
<g id="a_node9"><a xlink:href="group__serverh.html" target="_top" xlink:title=" ">
<polygon fill="white" stroke="black" points="159.5,-278 107.5,-278 107.5,-259 159.5,-259 159.5,-278"/>
<text text-anchor="middle" x="133.5" y="-266" font-family="Helvetica,sans-Serif" font-size="10.00">Server.h</text>
</a>
</g>
</g>
<!-- Node0&#45;&gt;Node15 -->
<g id="edge15" class="edge"><title>Node0&#45;&gt;Node15</title>
<path fill="none" stroke="black" d="M54.5114,-268.5C71.2449,-268.5 91.5345,-268.5 107.224,-268.5"/>
<polygon fill="black" stroke="black" points="54.1127,-265 44.1127,-268.5 54.1127,-272 54.1127,-265"/>
</g>
<!-- Node8 -->
<g id="node10" class="node"><title>Node8</title>
<g id="a_node10"><a xlink:href="group__processing__cpp.html" target="_top" xlink:title=" ">
<polygon fill="white" stroke="black" points="175.5,-241 91.5,-241 91.5,-222 175.5,-222 175.5,-241"/>
<text text-anchor="middle" x="133.5" y="-229" font-family="Helvetica,sans-Serif" font-size="10.00">Processing.cpp</text>
</a>
</g>
</g>
<!-- Node0&#45;&gt;Node8 -->
<g id="edge8" class="edge"><title>Node0&#45;&gt;Node8</title>
<path fill="none" stroke="black" d="M53.9063,-258.057C69.6342,-252.742 88.6247,-246.325 103.998,-241.131"/>
<polygon fill="black" stroke="black" points="52.466,-254.849 44.1127,-261.366 54.7069,-261.481 52.466,-254.849"/>
</g>
<!-- Node4 -->
<g id="node11" class="node"><title>Node4</title>
<g id="a_node11"><a xlink:href="group__con__handler__cpp.html" target="_top" xlink:title=" ">
<polygon fill="white" stroke="black" points="177.5,-204 89.5,-204 89.5,-185 177.5,-185 177.5,-204"/>
<text text-anchor="middle" x="133.5" y="-192" font-family="Helvetica,sans-Serif" font-size="10.00">con_handler.cpp</text>
</a>
</g>
</g>
<!-- Node0&#45;&gt;Node4 -->
<g id="edge4" class="edge"><title>Node0&#45;&gt;Node4</title>
<path fill="none" stroke="black" d="M37.4976,-251.065C48.2019,-239.123 63.6911,-223.666 80,-213.5 86.0049,-209.757 92.8542,-206.604 99.5779,-204.008"/>
<polygon fill="black" stroke="black" points="34.8141,-248.817 30.9001,-258.662 40.0995,-253.407 34.8141,-248.817"/>
</g>
<!-- Node3 -->
<g id="node12" class="node"><title>Node3</title>
<g id="a_node12"><a xlink:href="group__battleshiproyalecpp.html" target="_top" xlink:title=" ">
<polygon fill="white" stroke="black" points="187,-167 80,-167 80,-148 187,-148 187,-167"/>
<text text-anchor="middle" x="133.5" y="-155" font-family="Helvetica,sans-Serif" font-size="10.00">BattleShiproyale.cpp</text>
</a>
</g>
</g>
<!-- Node0&#45;&gt;Node3 -->
<g id="edge3" class="edge"><title>Node0&#45;&gt;Node3</title>
<path fill="none" stroke="black" d="M30.2072,-249.655C39.0115,-228.986 55.7859,-196.148 80,-176.5 84.7419,-172.652 90.3294,-169.548 96.0592,-167.053"/>
<polygon fill="black" stroke="black" points="26.9458,-248.384 26.4299,-258.967 33.4323,-251.016 26.9458,-248.384"/>
</g>
<!-- Node5 -->
<g id="node13" class="node"><title>Node5</title>
<g id="a_node13"><a xlink:href="group__con__handler__h.html" target="_top" xlink:title=" ">
<polygon fill="white" stroke="black" points="172,-130 95,-130 95,-111 172,-111 172,-130"/>
<text text-anchor="middle" x="133.5" y="-118" font-family="Helvetica,sans-Serif" font-size="10.00">con_handler.h</text>
</a>
</g>
</g>
<!-- Node0&#45;&gt;Node5 -->
<g id="edge5" class="edge"><title>Node0&#45;&gt;Node5</title>
<path fill="none" stroke="black" d="M26.6419,-248.765C32.809,-220.729 47.9082,-169.456 80,-139.5 84.2515,-135.531 89.394,-132.38 94.7763,-129.879"/>
<polygon fill="black" stroke="black" points="23.1412,-248.417 24.5804,-258.914 30.0011,-249.81 23.1412,-248.417"/>
</g>
<!-- Node9 -->
<g id="node14" class="node"><title>Node9</title>
<g id="a_node14"><a xlink:href="group__processing__h.html" target="_top" xlink:title=" ">
<polygon fill="white" stroke="black" points="170.5,-93 96.5,-93 96.5,-74 170.5,-74 170.5,-93"/>
<text text-anchor="middle" x="133.5" y="-81" font-family="Helvetica,sans-Serif" font-size="10.00">Processing.h</text>
</a>
</g>
</g>
<!-- Node0&#45;&gt;Node9 -->
<g id="edge9" class="edge"><title>Node0&#45;&gt;Node9</title>
<path fill="none" stroke="black" d="M24.3883,-248.598C27.8334,-214.224 39.6845,-143.485 80,-102.5 84.5542,-97.8701 90.3207,-94.3622 96.3529,-91.7062"/>
<polygon fill="black" stroke="black" points="20.8837,-248.502 23.5133,-258.766 27.8579,-249.103 20.8837,-248.502"/>
</g>
<!-- Node12 -->
<g id="node15" class="node"><title>Node12</title>
<g id="a_node15"><a xlink:href="group__regexcpp.html" target="_top" xlink:title=" ">
<polygon fill="white" stroke="black" points="165,-56 102,-56 102,-37 165,-37 165,-56"/>
<text text-anchor="middle" x="133.5" y="-44" font-family="Helvetica,sans-Serif" font-size="10.00">Regex.cpp</text>
</a>
</g>
</g>
<!-- Node0&#45;&gt;Node12 -->
<g id="edge12" class="edge"><title>Node0&#45;&gt;Node12</title>
<path fill="none" stroke="black" d="M22.8819,-248.743C23.7204,-208.84 31.2438,-117.978 80,-65.5 85.8059,-59.2509 93.8238,-55.0529 101.847,-52.2344"/>
<polygon fill="black" stroke="black" points="19.38,-248.955 22.7957,-258.984 26.3798,-249.014 19.38,-248.955"/>
</g>
<!-- Node1 -->
<g id="node16" class="node"><title>Node1</title>
<g id="a_node16"><a xlink:href="group__dbcpp.html" target="_top" xlink:title=" ">
<polygon fill="white" stroke="black" points="158,-19 109,-19 109,-0 158,-0 158,-19"/>
<text text-anchor="middle" x="133.5" y="-7" font-family="Helvetica,sans-Serif" font-size="10.00">DB.cpp</text>
</a>
</g>
</g>
<!-- Node0&#45;&gt;Node1 -->
<g id="edge1" class="edge"><title>Node0&#45;&gt;Node1</title>
<path fill="none" stroke="black" d="M25.2778,-248.67C31.5495,-197.278 50.5821,-61.4804 80,-28.5 87.3556,-20.2537 98.571,-15.584 108.75,-12.9408"/>
<polygon fill="black" stroke="black" points="21.7784,-248.459 24.0748,-258.802 28.7296,-249.284 21.7784,-248.459"/>
</g>
</g>
</svg>
