<?xml version="1.0" encoding="UTF-8" standalone="no"?>
<!DOCTYPE svg PUBLIC "-//W3C//DTD SVG 1.1//EN"
 "http://www.w3.org/Graphics/SVG/1.1/DTD/svg11.dtd">
<!-- Generated by graphviz version 2.38.0 (20140413.2041)
 -->
<!-- Title: Server Pages: 1 -->
<svg width="195pt" height="249pt"
 viewBox="0.00 0.00 195.00 249.00" xmlns="http://www.w3.org/2000/svg" xmlns:xlink="http://www.w3.org/1999/xlink">
<g id="graph0" class="graph" transform="scale(1 1) rotate(0) translate(4 245)">
<title>Server</title>
<polygon fill="white" stroke="none" points="-4,4 -4,-245 191,-245 191,4 -4,4"/>
<!-- Node3 -->
<g id="node1" class="node"><title>Node3</title>
<g id="a_node1"><a xlink:href="group__dbh.html" target="_top" xlink:title=" ">
<polygon fill="white" stroke="black" points="152.5,-241 114.5,-241 114.5,-222 152.5,-222 152.5,-241"/>
<text text-anchor="middle" x="133.5" y="-229" font-family="Helvetica,sans-Serif" font-size="10.00">DB.h</text>
</a>
</g>
</g>
<!-- Node0 -->
<g id="node2" class="node"><title>Node0</title>
<g id="a_node2"><a xlink:title="Сервер">
<polygon fill="#bfbfbf" stroke="black" points="44,-130 0,-130 0,-111 44,-111 44,-130"/>
<text text-anchor="middle" x="22" y="-118" font-family="Helvetica,sans-Serif" font-size="10.00">Server</text>
</a>
</g>
</g>
<!-- Node0&#45;&gt;Node3 -->
<g id="edge3" class="edge"><title>Node0&#45;&gt;Node3</title>
<path fill="none" stroke="black" d="M30.0922,-139.627C38.7934,-160.589 55.4759,-193.845 80,-213.5 89.9247,-221.454 103.573,-225.991 114.466,-228.52"/>
<polygon fill="black" stroke="black" points="33.2912,-138.198 26.3661,-130.18 26.7794,-140.766 33.2912,-138.198"/>
</g>
<!-- Node4 -->
<g id="node3" class="node"><title>Node4</title>
<g id="a_node3"><a xlink:href="group__rand__ssecpp.html" target="_top" xlink:title=" ">
<polygon fill="white" stroke="black" points="171,-204 96,-204 96,-185 171,-185 171,-204"/>
<text text-anchor="middle" x="133.5" y="-192" font-family="Helvetica,sans-Serif" font-size="10.00">rand_sse.cpp</text>
</a>
</g>
</g>
<!-- Node0&#45;&gt;Node4 -->
<g id="edge4" class="edge"><title>Node0&#45;&gt;Node4</title>
<path fill="none" stroke="black" d="M37.0141,-137.927C47.675,-150.19 63.3151,-166.192 80,-176.5 85.4101,-179.843 91.5202,-182.658 97.6097,-184.996"/>
<polygon fill="black" stroke="black" points="39.5911,-135.554 30.4774,-130.151 34.2327,-140.058 39.5911,-135.554"/>
</g>
<!-- Node7 -->
<g id="node4" class="node"><title>Node7</title>
<g id="a_node4"><a xlink:href="group__regexh.html" target="_top" xlink:title=" ">
<polygon fill="white" stroke="black" points="160,-167 107,-167 107,-148 160,-148 160,-167"/>
<text text-anchor="middle" x="133.5" y="-155" font-family="Helvetica,sans-Serif" font-size="10.00">Regex.h</text>
</a>
</g>
</g>
<!-- Node0&#45;&gt;Node7 -->
<g id="edge7" class="edge"><title>Node0&#45;&gt;Node7</title>
<path fill="none" stroke="black" d="M53.9621,-130.962C70.6593,-136.604 91.0207,-143.484 106.827,-148.825"/>
<polygon fill="black" stroke="black" points="54.7069,-127.519 44.1127,-127.634 52.466,-134.151 54.7069,-127.519"/>
</g>
<!-- Node5 -->
<g id="node5" class="node"><title>Node5</title>
<g id="a_node5"><a xlink:href="group__rand__sseh.html" target="_top" xlink:title=" ">
<polygon fill="white" stroke="black" points="166,-130 101,-130 101,-111 166,-111 166,-130"/>
<text text-anchor="middle" x="133.5" y="-118" font-family="Helvetica,sans-Serif" font-size="10.00">rand_sse.h</text>
</a>
</g>
</g>
<!-- Node0&#45;&gt;Node5 -->
<g id="edge5" class="edge"><title>Node0&#45;&gt;Node5</title>
<path fill="none" stroke="black" d="M54.1493,-120.5C68.7076,-120.5 86.0191,-120.5 100.663,-120.5"/>
<polygon fill="black" stroke="black" points="54.1127,-117 44.1127,-120.5 54.1127,-124 54.1127,-117"/>
</g>
<!-- Node1 -->
<g id="node6" class="node"><title>Node1</title>
<g id="a_node6"><a xlink:href="group__battleshiproyalecpp.html" target="_top" xlink:title=" ">
<polygon fill="white" stroke="black" points="187,-93 80,-93 80,-74 187,-74 187,-93"/>
<text text-anchor="middle" x="133.5" y="-81" font-family="Helvetica,sans-Serif" font-size="10.00">BattleShiproyale.cpp</text>
</a>
</g>
</g>
<!-- Node0&#45;&gt;Node1 -->
<g id="edge1" class="edge"><title>Node0&#45;&gt;Node1</title>
<path fill="none" stroke="black" d="M53.9063,-110.057C69.6342,-104.742 88.6247,-98.3254 103.998,-93.1308"/>
<polygon fill="black" stroke="black" points="52.466,-106.849 44.1127,-113.366 54.7069,-113.481 52.466,-106.849"/>
</g>
<!-- Node6 -->
<g id="node7" class="node"><title>Node6</title>
<g id="a_node7"><a xlink:href="group__regexcpp.html" target="_top" xlink:title=" ">
<polygon fill="white" stroke="black" points="165,-56 102,-56 102,-37 165,-37 165,-56"/>
<text text-anchor="middle" x="133.5" y="-44" font-family="Helvetica,sans-Serif" font-size="10.00">Regex.cpp</text>
</a>
</g>
</g>
<!-- Node0&#45;&gt;Node6 -->
<g id="edge6" class="edge"><title>Node0&#45;&gt;Node6</title>
<path fill="none" stroke="black" d="M37.4976,-103.065C48.2019,-91.1228 63.6911,-75.6657 80,-65.5 86.663,-61.3468 94.3655,-57.9196 101.783,-55.1749"/>
<polygon fill="black" stroke="black" points="34.8141,-100.817 30.9001,-110.662 40.0995,-105.407 34.8141,-100.817"/>
</g>
<!-- Node2 -->
<g id="node8" class="node"><title>Node2</title>
<g id="a_node8"><a xlink:href="group__dbcpp.html" target="_top" xlink:title=" ">
<polygon fill="white" stroke="black" points="158,-19 109,-19 109,-0 158,-0 158,-19"/>
<text text-anchor="middle" x="133.5" y="-7" font-family="Helvetica,sans-Serif" font-size="10.00">DB.cpp</text>
</a>
</g>
</g>
<!-- Node0&#45;&gt;Node2 -->
<g id="edge2" class="edge"><title>Node0&#45;&gt;Node2</title>
<path fill="none" stroke="black" d="M30.2072,-101.655C39.0115,-80.9863 55.7859,-48.1483 80,-28.5 88.2796,-21.7816 99.137,-17.3289 108.828,-14.4351"/>
<polygon fill="black" stroke="black" points="26.9458,-100.384 26.4299,-110.967 33.4323,-103.016 26.9458,-100.384"/>
</g>
</g>
</svg>
