<?xml version="1.0" encoding="UTF-8" standalone="no"?>
<!DOCTYPE svg PUBLIC "-//W3C//DTD SVG 1.1//EN"
 "http://www.w3.org/Graphics/SVG/1.1/DTD/svg11.dtd">
<!-- Generated by graphviz version 2.38.0 (20140413.2041)
 -->
<!-- Title: Connect.h Pages: 1 -->
<svg width="312pt" height="212pt"
 viewBox="0.00 0.00 312.00 212.00" xmlns="http://www.w3.org/2000/svg" xmlns:xlink="http://www.w3.org/1999/xlink">
<g id="graph0" class="graph" transform="scale(1 1) rotate(0) translate(4 208)">
<title>Connect.h</title>
<polygon fill="white" stroke="none" points="-4,4 -4,-208 308,-208 308,4 -4,4"/>
<!-- Node5 -->
<g id="node1" class="node"><title>Node5</title>
<g id="a_node1"><a xlink:href="group__sqlite3__h.html" target="_top" xlink:title=" ">
<polygon fill="white" stroke="black" points="299,-204 246,-204 246,-185 299,-185 299,-204"/>
<text text-anchor="middle" x="272.5" y="-192" font-family="Helvetica,sans-Serif" font-size="10.00">sqlite3.h</text>
</a>
</g>
</g>
<!-- Node3 -->
<g id="node2" class="node"><title>Node3</title>
<g id="a_node2"><a xlink:href="group__console__h.html" target="_top" xlink:title=" ">
<polygon fill="white" stroke="black" points="302.5,-167 242.5,-167 242.5,-148 302.5,-148 302.5,-167"/>
<text text-anchor="middle" x="272.5" y="-155" font-family="Helvetica,sans-Serif" font-size="10.00">Console.h</text>
</a>
</g>
</g>
<!-- Node1 -->
<g id="node3" class="node"><title>Node1</title>
<g id="a_node3"><a xlink:href="group__battleship-royale.html" target="_top" xlink:title="Общие файлы">
<polygon fill="white" stroke="black" points="93,-111 0,-111 0,-92 93,-92 93,-111"/>
<text text-anchor="middle" x="46.5" y="-99" font-family="Helvetica,sans-Serif" font-size="10.00">Battleship&#45;Royale</text>
</a>
</g>
</g>
<!-- Node0 -->
<g id="node8" class="node"><title>Node0</title>
<g id="a_node8"><a xlink:title=" ">
<polygon fill="#bfbfbf" stroke="black" points="191,-111 130,-111 130,-92 191,-92 191,-111"/>
<text text-anchor="middle" x="160.5" y="-99" font-family="Helvetica,sans-Serif" font-size="10.00">Connect.h</text>
</a>
</g>
</g>
<!-- Node1&#45;&gt;Node0 -->
<g id="edge1" class="edge"><title>Node1&#45;&gt;Node0</title>
<path fill="none" stroke="black" d="M103.296,-101.5C112.414,-101.5 121.541,-101.5 129.707,-101.5"/>
<polygon fill="black" stroke="black" points="103.055,-98.0001 93.0547,-101.5 103.055,-105 103.055,-98.0001"/>
</g>
<!-- Node4 -->
<g id="node4" class="node"><title>Node4</title>
<g id="a_node4"><a xlink:href="group__regex__h.html" target="_top" xlink:title=" ">
<polygon fill="white" stroke="black" points="299,-130 246,-130 246,-111 299,-111 299,-130"/>
<text text-anchor="middle" x="272.5" y="-118" font-family="Helvetica,sans-Serif" font-size="10.00">Regex.h</text>
</a>
</g>
</g>
<!-- Node6 -->
<g id="node5" class="node"><title>Node6</title>
<g id="a_node5"><a xlink:href="group__version__h.html" target="_top" xlink:title=" ">
<polygon fill="white" stroke="black" points="301.5,-93 243.5,-93 243.5,-74 301.5,-74 301.5,-93"/>
<text text-anchor="middle" x="272.5" y="-81" font-family="Helvetica,sans-Serif" font-size="10.00">Version.h</text>
</a>
</g>
</g>
<!-- Node2 -->
<g id="node6" class="node"><title>Node2</title>
<g id="a_node6"><a xlink:href="group__code__h.html" target="_top" xlink:title=" ">
<polygon fill="white" stroke="black" points="296,-56 249,-56 249,-37 296,-37 296,-56"/>
<text text-anchor="middle" x="272.5" y="-44" font-family="Helvetica,sans-Serif" font-size="10.00">Code.h</text>
</a>
</g>
</g>
<!-- Node7 -->
<g id="node7" class="node"><title>Node7</title>
<g id="a_node7"><a xlink:href="group__openmp__h.html" target="_top" xlink:title=" ">
<polygon fill="white" stroke="black" points="304,-19 241,-19 241,-0 304,-0 304,-19"/>
<text text-anchor="middle" x="272.5" y="-7" font-family="Helvetica,sans-Serif" font-size="10.00">OpenMP.h</text>
</a>
</g>
</g>
<!-- Node0&#45;&gt;Node5 -->
<g id="edge5" class="edge"><title>Node0&#45;&gt;Node5</title>
<path fill="none" stroke="blueviolet" stroke-dasharray="5,2" d="M170.157,-111.048C184.116,-126.11 212.886,-155.798 241,-176.5 244.961,-179.417 249.425,-182.268 253.69,-184.81"/>
<text text-anchor="middle" x="216" y="-164.5" font-family="Helvetica,sans-Serif" font-size="10.00">BR</text>
</g>
<!-- Node0&#45;&gt;Node3 -->
<g id="edge3" class="edge"><title>Node0&#45;&gt;Node3</title>
<path fill="none" stroke="blueviolet" stroke-dasharray="5,2" d="M179.491,-111.099C188.351,-115.793 199.208,-121.496 209,-126.5 223.344,-133.831 239.654,-141.912 252.014,-147.985"/>
<text text-anchor="middle" x="216" y="-135.5" font-family="Helvetica,sans-Serif" font-size="10.00">BR</text>
</g>
<!-- Node0&#45;&gt;Node4 -->
<g id="edge4" class="edge"><title>Node0&#45;&gt;Node4</title>
<path fill="none" stroke="blueviolet" stroke-dasharray="5,2" d="M191.268,-106.642C208.32,-109.587 229.503,-113.246 245.821,-116.064"/>
<text text-anchor="middle" x="216" y="-114.5" font-family="Helvetica,sans-Serif" font-size="10.00">BR</text>
</g>
<!-- Node0&#45;&gt;Node6 -->
<g id="edge6" class="edge"><title>Node0&#45;&gt;Node6</title>
<path fill="none" stroke="blueviolet" stroke-dasharray="5,2" d="M190.142,-91.9436C196.302,-90.203 202.82,-88.5944 209,-87.5 220.135,-85.5282 232.537,-84.4984 243.34,-83.9705"/>
<text text-anchor="middle" x="216" y="-90.5" font-family="Helvetica,sans-Serif" font-size="10.00">BR</text>
</g>
<!-- Node0&#45;&gt;Node2 -->
<g id="edge2" class="edge"><title>Node0&#45;&gt;Node2</title>
<path fill="none" stroke="blueviolet" stroke-dasharray="5,2" d="M175.238,-91.8793C184.518,-85.62 197.185,-77.5301 209,-71.5 221.803,-64.9655 236.732,-58.939 248.787,-54.4408"/>
<text text-anchor="middle" x="216" y="-74.5" font-family="Helvetica,sans-Serif" font-size="10.00">BR</text>
</g>
<!-- Node0&#45;&gt;Node7 -->
<g id="edge7" class="edge"><title>Node0&#45;&gt;Node7</title>
<path fill="none" stroke="blueviolet" stroke-dasharray="5,2" d="M169.396,-91.9441C178.429,-81.2781 193.927,-63.7751 209,-50.5 222.144,-38.924 226.332,-37.0718 241,-27.5 245.325,-24.6775 250.096,-21.7692 254.554,-19.1354"/>
<text text-anchor="middle" x="216" y="-53.5" font-family="Helvetica,sans-Serif" font-size="10.00">BR</text>
</g>
</g>
</svg>
