<?xml version="1.0" encoding="UTF-8" standalone="no"?>
<!DOCTYPE svg PUBLIC "-//W3C//DTD SVG 1.1//EN"
 "http://www.w3.org/Graphics/SVG/1.1/DTD/svg11.dtd">
<!-- Generated by graphviz version 2.38.0 (20140413.2041)
 -->
<!-- Title: Client Pages: 1 -->
<svg width="234pt" height="545pt"
 viewBox="0.00 0.00 234.00 545.00" xmlns="http://www.w3.org/2000/svg" xmlns:xlink="http://www.w3.org/1999/xlink">
<g id="graph0" class="graph" transform="scale(1 1) rotate(0) translate(4 541)">
<title>Client</title>
<polygon fill="white" stroke="none" points="-4,4 -4,-541 230,-541 230,4 -4,4"/>
<!-- Node1 -->
<g id="node1" class="node"><title>Node1</title>
<g id="a_node1"><a xlink:href="group__args__h.html" target="_top" xlink:title=" ">
<polygon fill="white" stroke="black" points="174,-537 129,-537 129,-518 174,-518 174,-537"/>
<text text-anchor="middle" x="151.5" y="-525" font-family="Helvetica,sans-Serif" font-size="10.00">Args.h</text>
</a>
</g>
</g>
<!-- Node9 -->
<g id="node2" class="node"><title>Node9</title>
<g id="a_node2"><a xlink:href="group__simultaneousconnections__cpp.html" target="_top" xlink:title=" ">
<polygon fill="white" stroke="black" points="226,-500 77,-500 77,-481 226,-481 226,-500"/>
<text text-anchor="middle" x="151.5" y="-488" font-family="Helvetica,sans-Serif" font-size="10.00">SimultaneousConnections.cpp</text>
</a>
</g>
</g>
<!-- Node3 -->
<g id="node3" class="node"><title>Node3</title>
<g id="a_node3"><a xlink:href="group__client__cpp.html" target="_top" xlink:title=" ">
<polygon fill="white" stroke="black" points="181.5,-463 121.5,-463 121.5,-444 181.5,-444 181.5,-463"/>
<text text-anchor="middle" x="151.5" y="-451" font-family="Helvetica,sans-Serif" font-size="10.00">Client.cpp</text>
</a>
</g>
</g>
<!-- Node7 -->
<g id="node4" class="node"><title>Node7</title>
<g id="a_node4"><a xlink:href="group__loopconections__cpp.html" target="_top" xlink:title=" ">
<polygon fill="white" stroke="black" points="206.5,-426 96.5,-426 96.5,-407 206.5,-407 206.5,-426"/>
<text text-anchor="middle" x="151.5" y="-414" font-family="Helvetica,sans-Serif" font-size="10.00">LoopConnections.cpp</text>
</a>
</g>
</g>
<!-- Node14 -->
<g id="node5" class="node"><title>Node14</title>
<g id="a_node5"><a xlink:href="group__window__cpp.html" target="_top" xlink:title=" ">
<polygon fill="white" stroke="black" points="186.5,-389 116.5,-389 116.5,-370 186.5,-370 186.5,-389"/>
<text text-anchor="middle" x="151.5" y="-377" font-family="Helvetica,sans-Serif" font-size="10.00">Window.cpp</text>
</a>
</g>
</g>
<!-- Node5 -->
<g id="node6" class="node"><title>Node5</title>
<g id="a_node6"><a xlink:href="group__registration__cpp.html" target="_top" xlink:title=" ">
<polygon fill="white" stroke="black" points="195,-352 108,-352 108,-333 195,-333 195,-352"/>
<text text-anchor="middle" x="151.5" y="-340" font-family="Helvetica,sans-Serif" font-size="10.00">Registration.cpp</text>
</a>
</g>
</g>
<!-- Node4 -->
<g id="node7" class="node"><title>Node4</title>
<g id="a_node7"><a xlink:href="group__client__h.html" target="_top" xlink:title=" ">
<polygon fill="white" stroke="black" points="176.5,-315 126.5,-315 126.5,-296 176.5,-296 176.5,-315"/>
<text text-anchor="middle" x="151.5" y="-303" font-family="Helvetica,sans-Serif" font-size="10.00">Client.h</text>
</a>
</g>
</g>
<!-- Node0 -->
<g id="node8" class="node"><title>Node0</title>
<g id="a_node8"><a xlink:title="Клиент">
<polygon fill="#bfbfbf" stroke="black" points="41,-278 0,-278 0,-259 41,-259 41,-278"/>
<text text-anchor="middle" x="20.5" y="-266" font-family="Helvetica,sans-Serif" font-size="10.00">Client</text>
</a>
</g>
</g>
<!-- Node0&#45;&gt;Node1 -->
<g id="edge1" class="edge"><title>Node0&#45;&gt;Node1</title>
<path fill="none" stroke="black" d="M23.4032,-288.239C28.7911,-340.009 45.8173,-477.883 77,-509.5 90.4687,-523.156 112.481,-527.09 128.911,-527.95"/>
<polygon fill="black" stroke="black" points="26.862,-287.653 22.3793,-278.054 19.8971,-288.354 26.862,-287.653"/>
</g>
<!-- Node0&#45;&gt;Node9 -->
<g id="edge9" class="edge"><title>Node0&#45;&gt;Node9</title>
<path fill="none" stroke="black" d="M20.7287,-288.525C20.315,-329.281 25.4603,-422.256 77,-472.5 80.4806,-475.893 84.4905,-478.681 88.8039,-480.969"/>
<polygon fill="black" stroke="black" points="24.2333,-288.362 20.9666,-278.283 17.2352,-288.199 24.2333,-288.362"/>
</g>
<!-- Node0&#45;&gt;Node3 -->
<g id="edge3" class="edge"><title>Node0&#45;&gt;Node3</title>
<path fill="none" stroke="black" d="M22.1719,-288.467C24.472,-323.545 34.4275,-396.231 77,-435.5 88.8777,-446.456 106.309,-451.039 121.216,-452.845"/>
<polygon fill="black" stroke="black" points="25.6492,-287.925 21.6493,-278.115 18.6581,-288.278 25.6492,-287.925"/>
</g>
<!-- Node0&#45;&gt;Node7 -->
<g id="edge7" class="edge"><title>Node0&#45;&gt;Node7</title>
<path fill="none" stroke="black" d="M24.2815,-288.047C29.4164,-316.687 43.1389,-369.762 77,-398.5 82.6092,-403.26 89.2815,-406.8 96.2833,-409.424"/>
<polygon fill="black" stroke="black" points="27.716,-287.359 22.6636,-278.047 20.8058,-288.477 27.716,-287.359"/>
</g>
<!-- Node0&#45;&gt;Node14 -->
<g id="edge14" class="edge"><title>Node0&#45;&gt;Node14</title>
<path fill="none" stroke="black" d="M27.8301,-287.709C35.8589,-309.022 51.7758,-342.858 77,-361.5 88.3048,-369.855 103,-374.37 116.276,-376.796"/>
<polygon fill="black" stroke="black" points="31.0687,-286.369 24.4294,-278.113 24.4707,-288.708 31.0687,-286.369"/>
</g>
<!-- Node0&#45;&gt;Node5 -->
<g id="edge5" class="edge"><title>Node0&#45;&gt;Node5</title>
<path fill="none" stroke="black" d="M34.4373,-285.965C44.644,-298.515 59.9652,-314.859 77,-324.5 86.3753,-329.806 97.2857,-333.56 107.786,-336.211"/>
<polygon fill="black" stroke="black" points="37.1418,-283.742 28.23,-278.012 31.6235,-288.049 37.1418,-283.742"/>
</g>
<!-- Node0&#45;&gt;Node4 -->
<g id="edge4" class="edge"><title>Node0&#45;&gt;Node4</title>
<path fill="none" stroke="black" d="M50.6056,-279.012C59.068,-281.92 68.3596,-284.969 77,-287.5 93.2637,-292.265 111.8,-296.798 126.189,-300.124"/>
<polygon fill="black" stroke="black" points="51.7357,-275.7 41.1409,-275.704 49.4261,-282.308 51.7357,-275.7"/>
</g>
<!-- Node10 -->
<g id="node9" class="node"><title>Node10</title>
<g id="a_node9"><a xlink:href="group__simultaneousconnections__h.html" target="_top" xlink:title=" ">
<polygon fill="white" stroke="black" points="220.5,-278 82.5,-278 82.5,-259 220.5,-259 220.5,-278"/>
<text text-anchor="middle" x="151.5" y="-266" font-family="Helvetica,sans-Serif" font-size="10.00">SimultaneousConnections.h</text>
</a>
</g>
</g>
<!-- Node0&#45;&gt;Node10 -->
<g id="edge10" class="edge"><title>Node0&#45;&gt;Node10</title>
<path fill="none" stroke="black" d="M51.3953,-268.5C60.7791,-268.5 71.5511,-268.5 82.4585,-268.5"/>
<polygon fill="black" stroke="black" points="51.0924,-265 41.0923,-268.5 51.0923,-272 51.0924,-265"/>
</g>
<!-- Node13 -->
<g id="node10" class="node"><title>Node13</title>
<g id="a_node10"><a xlink:href="group__tui__h.html" target="_top" xlink:title=" ">
<polygon fill="white" stroke="black" points="171,-241 132,-241 132,-222 171,-222 171,-241"/>
<text text-anchor="middle" x="151.5" y="-229" font-family="Helvetica,sans-Serif" font-size="10.00">TUI.h</text>
</a>
</g>
</g>
<!-- Node0&#45;&gt;Node13 -->
<g id="edge13" class="edge"><title>Node0&#45;&gt;Node13</title>
<path fill="none" stroke="black" d="M50.9362,-258.586C59.325,-255.861 68.4953,-252.976 77,-250.5 95.6022,-245.084 117.076,-239.624 131.99,-235.955"/>
<polygon fill="black" stroke="black" points="49.5938,-255.343 41.1885,-261.793 51.7815,-261.992 49.5938,-255.343"/>
</g>
<!-- Node8 -->
<g id="node11" class="node"><title>Node8</title>
<g id="a_node11"><a xlink:href="group__loopconections__h.html" target="_top" xlink:title=" ">
<polygon fill="white" stroke="black" points="201.5,-204 101.5,-204 101.5,-185 201.5,-185 201.5,-204"/>
<text text-anchor="middle" x="151.5" y="-192" font-family="Helvetica,sans-Serif" font-size="10.00">LoopConnections.h</text>
</a>
</g>
</g>
<!-- Node0&#45;&gt;Node8 -->
<g id="edge8" class="edge"><title>Node0&#45;&gt;Node8</title>
<path fill="none" stroke="black" d="M35.186,-250.641C45.4358,-238.458 60.4881,-222.887 77,-213.5 84.4476,-209.266 92.8517,-205.957 101.246,-203.377"/>
<polygon fill="black" stroke="black" points="32.1767,-248.797 28.619,-258.777 37.6236,-253.194 32.1767,-248.797"/>
</g>
<!-- Node2 -->
<g id="node12" class="node"><title>Node2</title>
<g id="a_node12"><a xlink:href="group__battleshiproyale__cpp.html" target="_top" xlink:title=" ">
<polygon fill="white" stroke="black" points="205,-167 98,-167 98,-148 205,-148 205,-167"/>
<text text-anchor="middle" x="151.5" y="-155" font-family="Helvetica,sans-Serif" font-size="10.00">BattleShiproyale.cpp</text>
</a>
</g>
</g>
<!-- Node0&#45;&gt;Node2 -->
<g id="edge2" class="edge"><title>Node0&#45;&gt;Node2</title>
<path fill="none" stroke="black" d="M28.0554,-249.229C36.2142,-228.178 52.1779,-194.999 77,-176.5 83.235,-171.853 90.5001,-168.339 97.9892,-165.682"/>
<polygon fill="black" stroke="black" points="24.7283,-248.136 24.5835,-258.73 31.3031,-250.539 24.7283,-248.136"/>
</g>
<!-- Node12 -->
<g id="node13" class="node"><title>Node12</title>
<g id="a_node13"><a xlink:href="group__tui__cpp.html" target="_top" xlink:title=" ">
<polygon fill="white" stroke="black" points="176.5,-130 126.5,-130 126.5,-111 176.5,-111 176.5,-130"/>
<text text-anchor="middle" x="151.5" y="-118" font-family="Helvetica,sans-Serif" font-size="10.00">TUI.cpp</text>
</a>
</g>
</g>
<!-- Node0&#45;&gt;Node12 -->
<g id="edge12" class="edge"><title>Node0&#45;&gt;Node12</title>
<path fill="none" stroke="black" d="M24.4527,-248.739C29.7652,-220.29 43.6657,-168.079 77,-139.5 90.6081,-127.833 110.501,-123.2 126.161,-121.42"/>
<polygon fill="black" stroke="black" points="20.9844,-248.258 22.7657,-258.702 27.8862,-249.426 20.9844,-248.258"/>
</g>
<!-- Node11 -->
<g id="node14" class="node"><title>Node11</title>
<g id="a_node14"><a xlink:href="group__test__h.html" target="_top" xlink:title=" ">
<polygon fill="white" stroke="black" points="173.5,-93 129.5,-93 129.5,-74 173.5,-74 173.5,-93"/>
<text text-anchor="middle" x="151.5" y="-81" font-family="Helvetica,sans-Serif" font-size="10.00">Test.h</text>
</a>
</g>
</g>
<!-- Node0&#45;&gt;Node11 -->
<g id="edge11" class="edge"><title>Node0&#45;&gt;Node11</title>
<path fill="none" stroke="black" d="M22.2618,-248.705C24.7029,-213.917 34.8723,-141.79 77,-102.5 91.0723,-89.3757 113,-85.0414 129.245,-83.7398"/>
<polygon fill="black" stroke="black" points="18.7518,-248.792 21.6952,-258.969 25.7411,-249.177 18.7518,-248.792"/>
</g>
<!-- Node6 -->
<g id="node15" class="node"><title>Node6</title>
<g id="a_node15"><a xlink:href="group__registration__h.html" target="_top" xlink:title=" ">
<polygon fill="white" stroke="black" points="190,-56 113,-56 113,-37 190,-37 190,-56"/>
<text text-anchor="middle" x="151.5" y="-44" font-family="Helvetica,sans-Serif" font-size="10.00">Registration.h</text>
</a>
</g>
</g>
<!-- Node0&#45;&gt;Node6 -->
<g id="edge6" class="edge"><title>Node0&#45;&gt;Node6</title>
<path fill="none" stroke="black" d="M20.8149,-248.624C20.5606,-208.163 25.9851,-115.81 77,-65.5 86.478,-56.1529 99.9179,-51.2238 112.718,-48.6816"/>
<polygon fill="black" stroke="black" points="17.3187,-248.861 21.0109,-258.791 24.3174,-248.726 17.3187,-248.861"/>
</g>
<!-- Node15 -->
<g id="node16" class="node"><title>Node15</title>
<g id="a_node16"><a xlink:href="group__window__h.html" target="_top" xlink:title=" ">
<polygon fill="white" stroke="black" points="181,-19 122,-19 122,-0 181,-0 181,-19"/>
<text text-anchor="middle" x="151.5" y="-7" font-family="Helvetica,sans-Serif" font-size="10.00">Window.h</text>
</a>
</g>
</g>
<!-- Node0&#45;&gt;Node15 -->
<g id="edge15" class="edge"><title>Node0&#45;&gt;Node15</title>
<path fill="none" stroke="black" d="M23.4375,-248.864C28.9103,-197.361 46.1278,-60.1763 77,-28.5 88.5907,-16.6074 106.577,-11.8188 121.856,-10.0222"/>
<polygon fill="black" stroke="black" points="19.9369,-248.691 22.3965,-258.997 26.9003,-249.407 19.9369,-248.691"/>
</g>
</g>
</svg>
