<?xml version="1.0" encoding="UTF-8" standalone="no"?>
<!DOCTYPE svg PUBLIC "-//W3C//DTD SVG 1.1//EN"
 "http://www.w3.org/Graphics/SVG/1.1/DTD/svg11.dtd">
<!-- Generated by graphviz version 2.38.0 (20140413.2041)
 -->
<!-- Title: Version.h Pages: 1 -->
<svg width="309pt" height="212pt"
 viewBox="0.00 0.00 309.00 212.00" xmlns="http://www.w3.org/2000/svg" xmlns:xlink="http://www.w3.org/1999/xlink">
<g id="graph0" class="graph" transform="scale(1 1) rotate(0) translate(4 208)">
<title>Version.h</title>
<polygon fill="white" stroke="none" points="-4,4 -4,-208 305,-208 305,4 -4,4"/>
<!-- Node6 -->
<g id="node1" class="node"><title>Node6</title>
<g id="a_node1"><a xlink:href="group__sqlite3__h.html" target="_top" xlink:title=" ">
<polygon fill="white" stroke="black" points="296,-204 243,-204 243,-185 296,-185 296,-204"/>
<text text-anchor="middle" x="269.5" y="-192" font-family="Helvetica,sans-Serif" font-size="10.00">sqlite3.h</text>
</a>
</g>
</g>
<!-- Node4 -->
<g id="node2" class="node"><title>Node4</title>
<g id="a_node2"><a xlink:href="group__console__h.html" target="_top" xlink:title=" ">
<polygon fill="white" stroke="black" points="299.5,-167 239.5,-167 239.5,-148 299.5,-148 299.5,-167"/>
<text text-anchor="middle" x="269.5" y="-155" font-family="Helvetica,sans-Serif" font-size="10.00">Console.h</text>
</a>
</g>
</g>
<!-- Node1 -->
<g id="node3" class="node"><title>Node1</title>
<g id="a_node3"><a xlink:href="group__battleship-royale.html" target="_top" xlink:title="Общие файлы">
<polygon fill="white" stroke="black" points="93,-111 0,-111 0,-92 93,-92 93,-111"/>
<text text-anchor="middle" x="46.5" y="-99" font-family="Helvetica,sans-Serif" font-size="10.00">Battleship&#45;Royale</text>
</a>
</g>
</g>
<!-- Node0 -->
<g id="node5" class="node"><title>Node0</title>
<g id="a_node5"><a xlink:title=" ">
<polygon fill="#bfbfbf" stroke="black" points="188,-111 130,-111 130,-92 188,-92 188,-111"/>
<text text-anchor="middle" x="159" y="-99" font-family="Helvetica,sans-Serif" font-size="10.00">Version.h</text>
</a>
</g>
</g>
<!-- Node1&#45;&gt;Node0 -->
<g id="edge1" class="edge"><title>Node1&#45;&gt;Node0</title>
<path fill="none" stroke="black" d="M103.125,-101.5C112.421,-101.5 121.703,-101.5 129.917,-101.5"/>
<polygon fill="black" stroke="black" points="103.083,-98.0001 93.0825,-101.5 103.083,-105 103.083,-98.0001"/>
</g>
<!-- Node5 -->
<g id="node4" class="node"><title>Node5</title>
<g id="a_node4"><a xlink:href="group__regex__h.html" target="_top" xlink:title=" ">
<polygon fill="white" stroke="black" points="296,-130 243,-130 243,-111 296,-111 296,-130"/>
<text text-anchor="middle" x="269.5" y="-118" font-family="Helvetica,sans-Serif" font-size="10.00">Regex.h</text>
</a>
</g>
</g>
<!-- Node0&#45;&gt;Node6 -->
<g id="edge6" class="edge"><title>Node0&#45;&gt;Node6</title>
<path fill="none" stroke="blueviolet" stroke-dasharray="5,2" d="M168.434,-111.097C182.048,-126.226 210.165,-156.004 238,-176.5 241.961,-179.417 246.425,-182.268 250.69,-184.81"/>
<text text-anchor="middle" x="213" y="-164.5" font-family="Helvetica,sans-Serif" font-size="10.00">BR</text>
</g>
<!-- Node0&#45;&gt;Node4 -->
<g id="edge4" class="edge"><title>Node0&#45;&gt;Node4</title>
<path fill="none" stroke="blueviolet" stroke-dasharray="5,2" d="M177.393,-111.151C185.965,-115.858 196.482,-121.555 206,-126.5 220.188,-133.871 236.361,-141.882 248.7,-147.914"/>
<text text-anchor="middle" x="213" y="-135.5" font-family="Helvetica,sans-Serif" font-size="10.00">BR</text>
</g>
<!-- Node0&#45;&gt;Node5 -->
<g id="edge5" class="edge"><title>Node0&#45;&gt;Node5</title>
<path fill="none" stroke="blueviolet" stroke-dasharray="5,2" d="M188.224,-106.442C205.051,-109.389 226.257,-113.103 242.647,-115.973"/>
<text text-anchor="middle" x="213" y="-114.5" font-family="Helvetica,sans-Serif" font-size="10.00">BR</text>
</g>
<!-- Node2 -->
<g id="node6" class="node"><title>Node2</title>
<g id="a_node6"><a xlink:href="group__code__h.html" target="_top" xlink:title=" ">
<polygon fill="white" stroke="black" points="293,-93 246,-93 246,-74 293,-74 293,-93"/>
<text text-anchor="middle" x="269.5" y="-81" font-family="Helvetica,sans-Serif" font-size="10.00">Code.h</text>
</a>
</g>
</g>
<!-- Node0&#45;&gt;Node2 -->
<g id="edge2" class="edge"><title>Node0&#45;&gt;Node2</title>
<path fill="none" stroke="blueviolet" stroke-dasharray="5,2" d="M187.966,-91.864C193.86,-90.1515 200.086,-88.5741 206,-87.5 219.051,-85.1294 233.858,-84.1098 245.782,-83.692"/>
<text text-anchor="middle" x="213" y="-90.5" font-family="Helvetica,sans-Serif" font-size="10.00">BR</text>
</g>
<!-- Node7 -->
<g id="node7" class="node"><title>Node7</title>
<g id="a_node7"><a xlink:href="group__openmp__h.html" target="_top" xlink:title=" ">
<polygon fill="white" stroke="black" points="301,-56 238,-56 238,-37 301,-37 301,-56"/>
<text text-anchor="middle" x="269.5" y="-44" font-family="Helvetica,sans-Serif" font-size="10.00">OpenMP.h</text>
</a>
</g>
</g>
<!-- Node0&#45;&gt;Node7 -->
<g id="edge7" class="edge"><title>Node0&#45;&gt;Node7</title>
<path fill="none" stroke="blueviolet" stroke-dasharray="5,2" d="M173.262,-91.8454C182.23,-85.5718 194.494,-77.4786 206,-71.5 217.2,-65.6806 230.073,-60.3218 241.215,-56.0708"/>
<text text-anchor="middle" x="213" y="-74.5" font-family="Helvetica,sans-Serif" font-size="10.00">BR</text>
</g>
<!-- Node3 -->
<g id="node8" class="node"><title>Node3</title>
<g id="a_node8"><a xlink:href="group__connect__h.html" target="_top" xlink:title=" ">
<polygon fill="white" stroke="black" points="300,-19 239,-19 239,-0 300,-0 300,-19"/>
<text text-anchor="middle" x="269.5" y="-7" font-family="Helvetica,sans-Serif" font-size="10.00">Connect.h</text>
</a>
</g>
</g>
<!-- Node0&#45;&gt;Node3 -->
<g id="edge3" class="edge"><title>Node0&#45;&gt;Node3</title>
<path fill="none" stroke="blueviolet" stroke-dasharray="5,2" d="M167.59,-91.9164C176.288,-81.2255 191.251,-63.7003 206,-50.5 219.051,-38.8193 223.332,-37.0718 238,-27.5 242.325,-24.6775 247.096,-21.7692 251.554,-19.1354"/>
<text text-anchor="middle" x="213" y="-53.5" font-family="Helvetica,sans-Serif" font-size="10.00">BR</text>
</g>
</g>
</svg>
