<?xml version="1.0" encoding="UTF-8" standalone="no"?>
<!DOCTYPE svg PUBLIC "-//W3C//DTD SVG 1.1//EN"
 "http://www.w3.org/Graphics/SVG/1.1/DTD/svg11.dtd">
<!-- Generated by graphviz version 2.38.0 (20140413.2041)
 -->
<!-- Title: Server Pages: 1 -->
<svg width="195pt" height="471pt"
 viewBox="0.00 0.00 195.00 471.00" xmlns="http://www.w3.org/2000/svg" xmlns:xlink="http://www.w3.org/1999/xlink">
<g id="graph0" class="graph" transform="scale(1 1) rotate(0) translate(4 467)">
<title>Server</title>
<polygon fill="white" stroke="none" points="-4,4 -4,-467 191,-467 191,4 -4,4"/>
<!-- Node5 -->
<g id="node1" class="node"><title>Node5</title>
<g id="a_node1"><a xlink:href="group__dbh.html" target="_top" xlink:title=" ">
<polygon fill="white" stroke="black" points="152.5,-463 114.5,-463 114.5,-444 152.5,-444 152.5,-463"/>
<text text-anchor="middle" x="133.5" y="-451" font-family="Helvetica,sans-Serif" font-size="10.00">DB.h</text>
</a>
</g>
</g>
<!-- Node12 -->
<g id="node2" class="node"><title>Node12</title>
<g id="a_node2"><a xlink:href="group__servercpp.html" target="_top" xlink:title=" ">
<polygon fill="white" stroke="black" points="164.5,-426 102.5,-426 102.5,-407 164.5,-407 164.5,-426"/>
<text text-anchor="middle" x="133.5" y="-414" font-family="Helvetica,sans-Serif" font-size="10.00">Server.cpp</text>
</a>
</g>
</g>
<!-- Node7 -->
<g id="node3" class="node"><title>Node7</title>
<g id="a_node3"><a xlink:href="group__minidb__h.html" target="_top" xlink:title=" ">
<polygon fill="white" stroke="black" points="161.5,-389 105.5,-389 105.5,-370 161.5,-370 161.5,-389"/>
<text text-anchor="middle" x="133.5" y="-377" font-family="Helvetica,sans-Serif" font-size="10.00">MiniDB.h</text>
</a>
</g>
</g>
<!-- Node0 -->
<g id="node4" class="node"><title>Node0</title>
<g id="a_node4"><a xlink:title="Сервер">
<polygon fill="#bfbfbf" stroke="black" points="44,-241 0,-241 0,-222 44,-222 44,-241"/>
<text text-anchor="middle" x="22" y="-229" font-family="Helvetica,sans-Serif" font-size="10.00">Server</text>
</a>
</g>
</g>
<!-- Node0&#45;&gt;Node5 -->
<g id="edge5" class="edge"><title>Node0&#45;&gt;Node5</title>
<path fill="none" stroke="black" d="M22.7722,-251.164C23.391,-291.251 30.5037,-383.055 80,-435.5 88.9281,-444.96 103.04,-449.448 114.385,-451.578"/>
<polygon fill="black" stroke="black" points="26.2721,-251.087 22.7421,-241.097 19.2721,-251.108 26.2721,-251.087"/>
</g>
<!-- Node0&#45;&gt;Node12 -->
<g id="edge12" class="edge"><title>Node0&#45;&gt;Node12</title>
<path fill="none" stroke="black" d="M24.2789,-251.591C27.5561,-286.278 39.1572,-357.601 80,-398.5 86.0596,-404.568 94.2513,-408.592 102.36,-411.261"/>
<polygon fill="black" stroke="black" points="27.7442,-251.017 23.4564,-241.329 20.7666,-251.577 27.7442,-251.017"/>
</g>
<!-- Node0&#45;&gt;Node7 -->
<g id="edge7" class="edge"><title>Node0&#45;&gt;Node7</title>
<path fill="none" stroke="black" d="M26.4489,-251.083C32.4249,-279.34 47.3437,-331.445 80,-361.5 87.0189,-367.96 96.4606,-372.115 105.401,-374.783"/>
<polygon fill="black" stroke="black" points="29.8707,-250.343 24.5213,-241.198 23.0001,-251.683 29.8707,-250.343"/>
</g>
<!-- Node8 -->
<g id="node5" class="node"><title>Node8</title>
<g id="a_node5"><a xlink:href="group__rand__ssecpp.html" target="_top" xlink:title=" ">
<polygon fill="white" stroke="black" points="171,-352 96,-352 96,-333 171,-333 171,-352"/>
<text text-anchor="middle" x="133.5" y="-340" font-family="Helvetica,sans-Serif" font-size="10.00">rand_sse.cpp</text>
</a>
</g>
</g>
<!-- Node0&#45;&gt;Node8 -->
<g id="edge8" class="edge"><title>Node0&#45;&gt;Node8</title>
<path fill="none" stroke="black" d="M30.0922,-250.627C38.7934,-271.589 55.4759,-304.845 80,-324.5 84.6616,-328.236 90.1446,-331.218 95.7777,-333.592"/>
<polygon fill="black" stroke="black" points="33.2912,-249.198 26.3661,-241.18 26.7794,-251.766 33.2912,-249.198"/>
</g>
<!-- Node11 -->
<g id="node6" class="node"><title>Node11</title>
<g id="a_node6"><a xlink:href="group__regexh.html" target="_top" xlink:title=" ">
<polygon fill="white" stroke="black" points="160,-315 107,-315 107,-296 160,-296 160,-315"/>
<text text-anchor="middle" x="133.5" y="-303" font-family="Helvetica,sans-Serif" font-size="10.00">Regex.h</text>
</a>
</g>
</g>
<!-- Node0&#45;&gt;Node11 -->
<g id="edge11" class="edge"><title>Node0&#45;&gt;Node11</title>
<path fill="none" stroke="black" d="M37.0141,-248.927C47.675,-261.19 63.3151,-277.192 80,-287.5 88.1971,-292.564 98.0011,-296.419 106.906,-299.236"/>
<polygon fill="black" stroke="black" points="39.5911,-246.554 30.4774,-241.151 34.2327,-251.058 39.5911,-246.554"/>
</g>
<!-- Node9 -->
<g id="node7" class="node"><title>Node9</title>
<g id="a_node7"><a xlink:href="group__rand__sseh.html" target="_top" xlink:title=" ">
<polygon fill="white" stroke="black" points="166,-278 101,-278 101,-259 166,-259 166,-278"/>
<text text-anchor="middle" x="133.5" y="-266" font-family="Helvetica,sans-Serif" font-size="10.00">rand_sse.h</text>
</a>
</g>
</g>
<!-- Node0&#45;&gt;Node9 -->
<g id="edge9" class="edge"><title>Node0&#45;&gt;Node9</title>
<path fill="none" stroke="black" d="M53.9063,-241.943C69.6342,-247.258 88.6247,-253.675 103.998,-258.869"/>
<polygon fill="black" stroke="black" points="54.7069,-238.519 44.1127,-238.634 52.466,-245.151 54.7069,-238.519"/>
</g>
<!-- Node6 -->
<g id="node8" class="node"><title>Node6</title>
<g id="a_node8"><a xlink:href="group__minidb__cpp.html" target="_top" xlink:title=" ">
<polygon fill="white" stroke="black" points="167,-241 100,-241 100,-222 167,-222 167,-241"/>
<text text-anchor="middle" x="133.5" y="-229" font-family="Helvetica,sans-Serif" font-size="10.00">MiniDB.cpp</text>
</a>
</g>
</g>
<!-- Node0&#45;&gt;Node6 -->
<g id="edge6" class="edge"><title>Node0&#45;&gt;Node6</title>
<path fill="none" stroke="black" d="M54.4027,-231.5C68.627,-231.5 85.4385,-231.5 99.8132,-231.5"/>
<polygon fill="black" stroke="black" points="54.1127,-228 44.1127,-231.5 54.1127,-235 54.1127,-228"/>
</g>
<!-- Node13 -->
<g id="node9" class="node"><title>Node13</title>
<g id="a_node9"><a xlink:href="group__serverh.html" target="_top" xlink:title=" ">
<polygon fill="white" stroke="black" points="159.5,-204 107.5,-204 107.5,-185 159.5,-185 159.5,-204"/>
<text text-anchor="middle" x="133.5" y="-192" font-family="Helvetica,sans-Serif" font-size="10.00">Server.h</text>
</a>
</g>
</g>
<!-- Node0&#45;&gt;Node13 -->
<g id="edge13" class="edge"><title>Node0&#45;&gt;Node13</title>
<path fill="none" stroke="black" d="M54.0343,-221.014C70.858,-215.329 91.3851,-208.393 107.224,-203.041"/>
<polygon fill="black" stroke="black" points="52.466,-217.849 44.1127,-224.366 54.7069,-224.481 52.466,-217.849"/>
</g>
<!-- Node2 -->
<g id="node10" class="node"><title>Node2</title>
<g id="a_node10"><a xlink:href="group__con__handler__cpp.html" target="_top" xlink:title=" ">
<polygon fill="white" stroke="black" points="177.5,-167 89.5,-167 89.5,-148 177.5,-148 177.5,-167"/>
<text text-anchor="middle" x="133.5" y="-155" font-family="Helvetica,sans-Serif" font-size="10.00">con_handler.cpp</text>
</a>
</g>
</g>
<!-- Node0&#45;&gt;Node2 -->
<g id="edge2" class="edge"><title>Node0&#45;&gt;Node2</title>
<path fill="none" stroke="black" d="M37.4976,-214.065C48.2019,-202.123 63.6911,-186.666 80,-176.5 86.0049,-172.757 92.8542,-169.604 99.5779,-167.008"/>
<polygon fill="black" stroke="black" points="34.8141,-211.817 30.9001,-221.662 40.0995,-216.407 34.8141,-211.817"/>
</g>
<!-- Node1 -->
<g id="node11" class="node"><title>Node1</title>
<g id="a_node11"><a xlink:href="group__battleshiproyalecpp.html" target="_top" xlink:title=" ">
<polygon fill="white" stroke="black" points="187,-130 80,-130 80,-111 187,-111 187,-130"/>
<text text-anchor="middle" x="133.5" y="-118" font-family="Helvetica,sans-Serif" font-size="10.00">BattleShiproyale.cpp</text>
</a>
</g>
</g>
<!-- Node0&#45;&gt;Node1 -->
<g id="edge1" class="edge"><title>Node0&#45;&gt;Node1</title>
<path fill="none" stroke="black" d="M30.2072,-212.655C39.0115,-191.986 55.7859,-159.148 80,-139.5 84.7419,-135.652 90.3294,-132.548 96.0592,-130.053"/>
<polygon fill="black" stroke="black" points="26.9458,-211.384 26.4299,-221.967 33.4323,-214.016 26.9458,-211.384"/>
</g>
<!-- Node3 -->
<g id="node12" class="node"><title>Node3</title>
<g id="a_node12"><a xlink:href="group__con__handler__h.html" target="_top" xlink:title=" ">
<polygon fill="white" stroke="black" points="172,-93 95,-93 95,-74 172,-74 172,-93"/>
<text text-anchor="middle" x="133.5" y="-81" font-family="Helvetica,sans-Serif" font-size="10.00">con_handler.h</text>
</a>
</g>
</g>
<!-- Node0&#45;&gt;Node3 -->
<g id="edge3" class="edge"><title>Node0&#45;&gt;Node3</title>
<path fill="none" stroke="black" d="M26.6419,-211.765C32.809,-183.729 47.9082,-132.456 80,-102.5 84.2515,-98.5315 89.394,-95.3795 94.7763,-92.8793"/>
<polygon fill="black" stroke="black" points="23.1412,-211.417 24.5804,-221.914 30.0011,-212.81 23.1412,-211.417"/>
</g>
<!-- Node10 -->
<g id="node13" class="node"><title>Node10</title>
<g id="a_node13"><a xlink:href="group__regexcpp.html" target="_top" xlink:title=" ">
<polygon fill="white" stroke="black" points="165,-56 102,-56 102,-37 165,-37 165,-56"/>
<text text-anchor="middle" x="133.5" y="-44" font-family="Helvetica,sans-Serif" font-size="10.00">Regex.cpp</text>
</a>
</g>
</g>
<!-- Node0&#45;&gt;Node10 -->
<g id="edge10" class="edge"><title>Node0&#45;&gt;Node10</title>
<path fill="none" stroke="black" d="M24.3883,-211.598C27.8334,-177.224 39.6845,-106.485 80,-65.5 85.9137,-59.488 93.8714,-55.3679 101.801,-52.5482"/>
<polygon fill="black" stroke="black" points="20.8837,-211.502 23.5133,-221.766 27.8579,-212.103 20.8837,-211.502"/>
</g>
<!-- Node4 -->
<g id="node14" class="node"><title>Node4</title>
<g id="a_node14"><a xlink:href="group__dbcpp.html" target="_top" xlink:title=" ">
<polygon fill="white" stroke="black" points="158,-19 109,-19 109,-0 158,-0 158,-19"/>
<text text-anchor="middle" x="133.5" y="-7" font-family="Helvetica,sans-Serif" font-size="10.00">DB.cpp</text>
</a>
</g>
</g>
<!-- Node0&#45;&gt;Node4 -->
<g id="edge4" class="edge"><title>Node0&#45;&gt;Node4</title>
<path fill="none" stroke="black" d="M22.8819,-211.743C23.7204,-171.84 31.2438,-80.9783 80,-28.5 87.5213,-20.4045 98.7548,-15.7513 108.903,-13.08"/>
<polygon fill="black" stroke="black" points="19.38,-211.955 22.7957,-221.984 26.3798,-212.014 19.38,-211.955"/>
</g>
</g>
</svg>
