<?xml version="1.0" encoding="UTF-8" standalone="no"?>
<!DOCTYPE svg PUBLIC "-//W3C//DTD SVG 1.1//EN"
 "http://www.w3.org/Graphics/SVG/1.1/DTD/svg11.dtd">
<!-- Generated by graphviz version 2.38.0 (20140413.2041)
 -->
<!-- Title: OpenMP.h Pages: 1 -->
<svg width="312pt" height="212pt"
 viewBox="0.00 0.00 312.00 212.00" xmlns="http://www.w3.org/2000/svg" xmlns:xlink="http://www.w3.org/1999/xlink">
<g id="graph0" class="graph" transform="scale(1 1) rotate(0) translate(4 208)">
<title>OpenMP.h</title>
<polygon fill="white" stroke="none" points="-4,4 -4,-208 308,-208 308,4 -4,4"/>
<!-- Node6 -->
<g id="node1" class="node"><title>Node6</title>
<g id="a_node1"><a xlink:href="group__sqlite3__h.html" target="_top" xlink:title=" ">
<polygon fill="white" stroke="black" points="300,-204 247,-204 247,-185 300,-185 300,-204"/>
<text text-anchor="middle" x="273.5" y="-192" font-family="Helvetica,sans-Serif" font-size="10.00">sqlite3.h</text>
</a>
</g>
</g>
<!-- Node4 -->
<g id="node2" class="node"><title>Node4</title>
<g id="a_node2"><a xlink:href="group__console__h.html" target="_top" xlink:title=" ">
<polygon fill="white" stroke="black" points="303.5,-167 243.5,-167 243.5,-148 303.5,-148 303.5,-167"/>
<text text-anchor="middle" x="273.5" y="-155" font-family="Helvetica,sans-Serif" font-size="10.00">Console.h</text>
</a>
</g>
</g>
<!-- Node1 -->
<g id="node3" class="node"><title>Node1</title>
<g id="a_node3"><a xlink:href="group__battleship-royale.html" target="_top" xlink:title="Общие файлы">
<polygon fill="white" stroke="black" points="93,-111 0,-111 0,-92 93,-92 93,-111"/>
<text text-anchor="middle" x="46.5" y="-99" font-family="Helvetica,sans-Serif" font-size="10.00">Battleship&#45;Royale</text>
</a>
</g>
</g>
<!-- Node0 -->
<g id="node7" class="node"><title>Node0</title>
<g id="a_node7"><a xlink:title=" ">
<polygon fill="#bfbfbf" stroke="black" points="193,-111 130,-111 130,-92 193,-92 193,-111"/>
<text text-anchor="middle" x="161.5" y="-99" font-family="Helvetica,sans-Serif" font-size="10.00">OpenMP.h</text>
</a>
</g>
</g>
<!-- Node1&#45;&gt;Node0 -->
<g id="edge1" class="edge"><title>Node1&#45;&gt;Node0</title>
<path fill="none" stroke="black" d="M103.397,-101.5C112.538,-101.5 121.7,-101.5 129.926,-101.5"/>
<polygon fill="black" stroke="black" points="103.136,-98.0001 93.1357,-101.5 103.136,-105 103.136,-98.0001"/>
</g>
<!-- Node5 -->
<g id="node4" class="node"><title>Node5</title>
<g id="a_node4"><a xlink:href="group__regex__h.html" target="_top" xlink:title=" ">
<polygon fill="white" stroke="black" points="300,-130 247,-130 247,-111 300,-111 300,-130"/>
<text text-anchor="middle" x="273.5" y="-118" font-family="Helvetica,sans-Serif" font-size="10.00">Regex.h</text>
</a>
</g>
</g>
<!-- Node7 -->
<g id="node5" class="node"><title>Node7</title>
<g id="a_node5"><a xlink:href="group__version__h.html" target="_top" xlink:title=" ">
<polygon fill="white" stroke="black" points="302.5,-93 244.5,-93 244.5,-74 302.5,-74 302.5,-93"/>
<text text-anchor="middle" x="273.5" y="-81" font-family="Helvetica,sans-Serif" font-size="10.00">Version.h</text>
</a>
</g>
</g>
<!-- Node2 -->
<g id="node6" class="node"><title>Node2</title>
<g id="a_node6"><a xlink:href="group__code__h.html" target="_top" xlink:title=" ">
<polygon fill="white" stroke="black" points="297,-56 250,-56 250,-37 297,-37 297,-56"/>
<text text-anchor="middle" x="273.5" y="-44" font-family="Helvetica,sans-Serif" font-size="10.00">Code.h</text>
</a>
</g>
</g>
<!-- Node0&#45;&gt;Node6 -->
<g id="edge6" class="edge"><title>Node0&#45;&gt;Node6</title>
<path fill="none" stroke="blueviolet" stroke-dasharray="5,2" d="M171.575,-111.211C185.899,-126.237 215.005,-155.567 243,-176.5 246.94,-179.446 251.383,-182.352 255.602,-184.94"/>
<text text-anchor="middle" x="218" y="-163.5" font-family="Helvetica,sans-Serif" font-size="10.00">BR</text>
</g>
<!-- Node0&#45;&gt;Node4 -->
<g id="edge4" class="edge"><title>Node0&#45;&gt;Node4</title>
<path fill="none" stroke="blueviolet" stroke-dasharray="5,2" d="M180.904,-111.036C189.959,-115.715 201.041,-121.423 211,-126.5 225.168,-133.722 241.214,-141.807 253.363,-147.909"/>
<text text-anchor="middle" x="218" y="-135.5" font-family="Helvetica,sans-Serif" font-size="10.00">BR</text>
</g>
<!-- Node0&#45;&gt;Node5 -->
<g id="edge5" class="edge"><title>Node0&#45;&gt;Node5</title>
<path fill="none" stroke="blueviolet" stroke-dasharray="5,2" d="M193.141,-106.793C210.051,-109.713 230.81,-113.299 246.855,-116.07"/>
<text text-anchor="middle" x="218" y="-114.5" font-family="Helvetica,sans-Serif" font-size="10.00">BR</text>
</g>
<!-- Node0&#45;&gt;Node7 -->
<g id="edge7" class="edge"><title>Node0&#45;&gt;Node7</title>
<path fill="none" stroke="blueviolet" stroke-dasharray="5,2" d="M191.757,-91.9541C198.046,-90.2128 204.698,-88.6012 211,-87.5 221.856,-85.6031 233.932,-84.5851 244.489,-84.0458"/>
<text text-anchor="middle" x="218" y="-90.5" font-family="Helvetica,sans-Serif" font-size="10.00">BR</text>
</g>
<!-- Node0&#45;&gt;Node2 -->
<g id="edge2" class="edge"><title>Node0&#45;&gt;Node2</title>
<path fill="none" stroke="blueviolet" stroke-dasharray="5,2" d="M176.566,-91.9244C186.057,-85.6841 198.995,-77.5985 211,-71.5 223.536,-65.1316 238.091,-59.1552 249.894,-54.6437"/>
<text text-anchor="middle" x="218" y="-74.5" font-family="Helvetica,sans-Serif" font-size="10.00">BR</text>
</g>
<!-- Node3 -->
<g id="node8" class="node"><title>Node3</title>
<g id="a_node8"><a xlink:href="group__connect__h.html" target="_top" xlink:title=" ">
<polygon fill="white" stroke="black" points="304,-19 243,-19 243,-0 304,-0 304,-19"/>
<text text-anchor="middle" x="273.5" y="-7" font-family="Helvetica,sans-Serif" font-size="10.00">Connect.h</text>
</a>
</g>
</g>
<!-- Node0&#45;&gt;Node3 -->
<g id="edge3" class="edge"><title>Node0&#45;&gt;Node3</title>
<path fill="none" stroke="blueviolet" stroke-dasharray="5,2" d="M170.599,-91.9631C179.856,-81.3141 195.709,-63.8263 211,-50.5 224.204,-38.9925 228.403,-37.1794 243,-27.5 247.2,-24.7148 251.82,-21.8195 256.132,-19.1861"/>
<text text-anchor="middle" x="218" y="-53.5" font-family="Helvetica,sans-Serif" font-size="10.00">BR</text>
</g>
</g>
</svg>
