<?xml version="1.0" encoding="UTF-8" standalone="no"?>
<!DOCTYPE svg PUBLIC "-//W3C//DTD SVG 1.1//EN"
 "http://www.w3.org/Graphics/SVG/1.1/DTD/svg11.dtd">
<!-- Generated by graphviz version 2.38.0 (20140413.2041)
 -->
<!-- Title: Server Pages: 1 -->
<svg width="195pt" height="693pt"
 viewBox="0.00 0.00 195.00 693.00" xmlns="http://www.w3.org/2000/svg" xmlns:xlink="http://www.w3.org/1999/xlink">
<g id="graph0" class="graph" transform="scale(1 1) rotate(0) translate(4 689)">
<title>Server</title>
<polygon fill="white" stroke="none" points="-4,4 -4,-689 191,-689 191,4 -4,4"/>
<!-- Node2 -->
<g id="node1" class="node"><title>Node2</title>
<g id="a_node1"><a xlink:href="group__dbh.html" target="_top" xlink:title=" ">
<polygon fill="white" stroke="black" points="152.5,-685 114.5,-685 114.5,-666 152.5,-666 152.5,-685"/>
<text text-anchor="middle" x="133.5" y="-673" font-family="Helvetica,sans-Serif" font-size="10.00">DB.h</text>
</a>
</g>
</g>
<!-- Node18 -->
<g id="node2" class="node"><title>Node18</title>
<g id="a_node2"><a xlink:href="group__servercpp.html" target="_top" xlink:title=" ">
<polygon fill="white" stroke="black" points="164.5,-648 102.5,-648 102.5,-629 164.5,-629 164.5,-648"/>
<text text-anchor="middle" x="133.5" y="-636" font-family="Helvetica,sans-Serif" font-size="10.00">Server.cpp</text>
</a>
</g>
</g>
<!-- Node11 -->
<g id="node3" class="node"><title>Node11</title>
<g id="a_node3"><a xlink:href="group__minidb__h.html" target="_top" xlink:title=" ">
<polygon fill="white" stroke="black" points="161.5,-611 105.5,-611 105.5,-592 161.5,-592 161.5,-611"/>
<text text-anchor="middle" x="133.5" y="-599" font-family="Helvetica,sans-Serif" font-size="10.00">MiniDB.h</text>
</a>
</g>
</g>
<!-- Node0 -->
<g id="node4" class="node"><title>Node0</title>
<g id="a_node4"><a xlink:title="Сервер">
<polygon fill="#bfbfbf" stroke="black" points="44,-352 0,-352 0,-333 44,-333 44,-352"/>
<text text-anchor="middle" x="22" y="-340" font-family="Helvetica,sans-Serif" font-size="10.00">Server</text>
</a>
</g>
</g>
<!-- Node0&#45;&gt;Node2 -->
<g id="edge2" class="edge"><title>Node0&#45;&gt;Node2</title>
<path fill="none" stroke="black" d="M24.0083,-362.177C27.5535,-423.947 41.3888,-612.557 80,-657.5 88.5393,-667.44 102.823,-671.899 114.337,-673.895"/>
<polygon fill="black" stroke="black" points="27.5026,-361.977 23.4624,-352.183 20.5131,-362.359 27.5026,-361.977"/>
</g>
<!-- Node0&#45;&gt;Node18 -->
<g id="edge18" class="edge"><title>Node0&#45;&gt;Node18</title>
<path fill="none" stroke="black" d="M24.5485,-362.415C29.3616,-419.424 45.8311,-581.649 80,-620.5 85.7906,-627.084 94.0983,-631.262 102.402,-633.912"/>
<polygon fill="black" stroke="black" points="28.0173,-361.888 23.7177,-352.205 21.0404,-362.456 28.0173,-361.888"/>
</g>
<!-- Node0&#45;&gt;Node11 -->
<g id="edge11" class="edge"><title>Node0&#45;&gt;Node11</title>
<path fill="none" stroke="black" d="M25.235,-362.44C31.4022,-414.114 50.2019,-550.627 80,-583.5 86.5359,-590.71 96.0865,-595.033 105.256,-597.624"/>
<polygon fill="black" stroke="black" points="28.6823,-361.783 24.0531,-352.253 21.7289,-362.59 28.6823,-361.783"/>
</g>
<!-- Node14 -->
<g id="node5" class="node"><title>Node14</title>
<g id="a_node5"><a xlink:href="group__rand__ssecpp.html" target="_top" xlink:title=" ">
<polygon fill="white" stroke="black" points="171,-574 96,-574 96,-555 171,-555 171,-574"/>
<text text-anchor="middle" x="133.5" y="-562" font-family="Helvetica,sans-Serif" font-size="10.00">rand_sse.cpp</text>
</a>
</g>
</g>
<!-- Node0&#45;&gt;Node14 -->
<g id="edge14" class="edge"><title>Node0&#45;&gt;Node14</title>
<path fill="none" stroke="black" d="M22.7722,-362.164C23.391,-402.251 30.5037,-494.055 80,-546.5 84.3649,-551.125 89.9686,-554.561 95.8824,-557.115"/>
<polygon fill="black" stroke="black" points="26.2721,-362.087 22.7421,-352.097 19.2721,-362.108 26.2721,-362.087"/>
</g>
<!-- Node17 -->
<g id="node6" class="node"><title>Node17</title>
<g id="a_node6"><a xlink:href="group__regexh.html" target="_top" xlink:title=" ">
<polygon fill="white" stroke="black" points="160,-537 107,-537 107,-518 160,-518 160,-537"/>
<text text-anchor="middle" x="133.5" y="-525" font-family="Helvetica,sans-Serif" font-size="10.00">Regex.h</text>
</a>
</g>
</g>
<!-- Node0&#45;&gt;Node17 -->
<g id="edge17" class="edge"><title>Node0&#45;&gt;Node17</title>
<path fill="none" stroke="black" d="M24.2789,-362.591C27.5561,-397.278 39.1572,-468.601 80,-509.5 87.2171,-516.727 97.4585,-521.055 106.982,-523.646"/>
<polygon fill="black" stroke="black" points="27.7442,-362.017 23.4564,-352.329 20.7666,-362.577 27.7442,-362.017"/>
</g>
<!-- Node15 -->
<g id="node7" class="node"><title>Node15</title>
<g id="a_node7"><a xlink:href="group__rand__sseh.html" target="_top" xlink:title=" ">
<polygon fill="white" stroke="black" points="166,-500 101,-500 101,-481 166,-481 166,-500"/>
<text text-anchor="middle" x="133.5" y="-488" font-family="Helvetica,sans-Serif" font-size="10.00">rand_sse.h</text>
</a>
</g>
</g>
<!-- Node0&#45;&gt;Node15 -->
<g id="edge15" class="edge"><title>Node0&#45;&gt;Node15</title>
<path fill="none" stroke="black" d="M26.4489,-362.083C32.4249,-390.34 47.3437,-442.445 80,-472.5 85.8136,-477.851 93.2894,-481.62 100.766,-484.273"/>
<polygon fill="black" stroke="black" points="29.8707,-361.343 24.5213,-352.198 23.0001,-362.683 29.8707,-361.343"/>
</g>
<!-- Node10 -->
<g id="node8" class="node"><title>Node10</title>
<g id="a_node8"><a xlink:href="group__minidb__cpp.html" target="_top" xlink:title=" ">
<polygon fill="white" stroke="black" points="167,-463 100,-463 100,-444 167,-444 167,-463"/>
<text text-anchor="middle" x="133.5" y="-451" font-family="Helvetica,sans-Serif" font-size="10.00">MiniDB.cpp</text>
</a>
</g>
</g>
<!-- Node0&#45;&gt;Node10 -->
<g id="edge10" class="edge"><title>Node0&#45;&gt;Node10</title>
<path fill="none" stroke="black" d="M30.0922,-361.627C38.7934,-382.589 55.4759,-415.845 80,-435.5 85.7894,-440.14 92.8458,-443.617 99.8831,-446.211"/>
<polygon fill="black" stroke="black" points="33.2912,-360.198 26.3661,-352.18 26.7794,-362.766 33.2912,-360.198"/>
</g>
<!-- Node19 -->
<g id="node9" class="node"><title>Node19</title>
<g id="a_node9"><a xlink:href="group__serverh.html" target="_top" xlink:title=" ">
<polygon fill="white" stroke="black" points="159.5,-426 107.5,-426 107.5,-407 159.5,-407 159.5,-426"/>
<text text-anchor="middle" x="133.5" y="-414" font-family="Helvetica,sans-Serif" font-size="10.00">Server.h</text>
</a>
</g>
</g>
<!-- Node0&#45;&gt;Node19 -->
<g id="edge19" class="edge"><title>Node0&#45;&gt;Node19</title>
<path fill="none" stroke="black" d="M37.0141,-359.927C47.675,-372.19 63.3151,-388.192 80,-398.5 88.3611,-403.666 98.3939,-407.573 107.439,-410.404"/>
<polygon fill="black" stroke="black" points="39.5911,-357.554 30.4774,-352.151 34.2327,-362.058 39.5911,-357.554"/>
</g>
<!-- Node12 -->
<g id="node10" class="node"><title>Node12</title>
<g id="a_node10"><a xlink:href="group__processing__cpp.html" target="_top" xlink:title=" ">
<polygon fill="white" stroke="black" points="175.5,-389 91.5,-389 91.5,-370 175.5,-370 175.5,-389"/>
<text text-anchor="middle" x="133.5" y="-377" font-family="Helvetica,sans-Serif" font-size="10.00">Processing.cpp</text>
</a>
</g>
</g>
<!-- Node0&#45;&gt;Node12 -->
<g id="edge12" class="edge"><title>Node0&#45;&gt;Node12</title>
<path fill="none" stroke="black" d="M53.9063,-352.943C69.6342,-358.258 88.6247,-364.675 103.998,-369.869"/>
<polygon fill="black" stroke="black" points="54.7069,-349.519 44.1127,-349.634 52.466,-356.151 54.7069,-349.519"/>
</g>
<!-- Node9 -->
<g id="node11" class="node"><title>Node9</title>
<g id="a_node11"><a xlink:href="group__memdbuid__h.html" target="_top" xlink:title=" ">
<polygon fill="white" stroke="black" points="170,-352 97,-352 97,-333 170,-333 170,-352"/>
<text text-anchor="middle" x="133.5" y="-340" font-family="Helvetica,sans-Serif" font-size="10.00">MemDBuid.h</text>
</a>
</g>
</g>
<!-- Node0&#45;&gt;Node9 -->
<g id="edge9" class="edge"><title>Node0&#45;&gt;Node9</title>
<path fill="none" stroke="black" d="M54.1986,-342.5C67.4839,-342.5 83.055,-342.5 96.7971,-342.5"/>
<polygon fill="black" stroke="black" points="54.1127,-339 44.1127,-342.5 54.1127,-346 54.1127,-339"/>
</g>
<!-- Node4 -->
<g id="node12" class="node"><title>Node4</title>
<g id="a_node12"><a xlink:href="group__con__handler__cpp.html" target="_top" xlink:title=" ">
<polygon fill="white" stroke="black" points="177.5,-315 89.5,-315 89.5,-296 177.5,-296 177.5,-315"/>
<text text-anchor="middle" x="133.5" y="-303" font-family="Helvetica,sans-Serif" font-size="10.00">con_handler.cpp</text>
</a>
</g>
</g>
<!-- Node0&#45;&gt;Node4 -->
<g id="edge4" class="edge"><title>Node0&#45;&gt;Node4</title>
<path fill="none" stroke="black" d="M53.9063,-332.057C69.6342,-326.742 88.6247,-320.325 103.998,-315.131"/>
<polygon fill="black" stroke="black" points="52.466,-328.849 44.1127,-335.366 54.7069,-335.481 52.466,-328.849"/>
</g>
<!-- Node3 -->
<g id="node13" class="node"><title>Node3</title>
<g id="a_node13"><a xlink:href="group__battleshiproyalecpp.html" target="_top" xlink:title=" ">
<polygon fill="white" stroke="black" points="187,-278 80,-278 80,-259 187,-259 187,-278"/>
<text text-anchor="middle" x="133.5" y="-266" font-family="Helvetica,sans-Serif" font-size="10.00">BattleShiproyale.cpp</text>
</a>
</g>
</g>
<!-- Node0&#45;&gt;Node3 -->
<g id="edge3" class="edge"><title>Node0&#45;&gt;Node3</title>
<path fill="none" stroke="black" d="M37.4976,-325.065C48.2019,-313.123 63.6911,-297.666 80,-287.5 86.0049,-283.757 92.8542,-280.604 99.5779,-278.008"/>
<polygon fill="black" stroke="black" points="34.8141,-322.817 30.9001,-332.662 40.0995,-327.407 34.8141,-322.817"/>
</g>
<!-- Node5 -->
<g id="node14" class="node"><title>Node5</title>
<g id="a_node14"><a xlink:href="group__con__handler__h.html" target="_top" xlink:title=" ">
<polygon fill="white" stroke="black" points="172,-241 95,-241 95,-222 172,-222 172,-241"/>
<text text-anchor="middle" x="133.5" y="-229" font-family="Helvetica,sans-Serif" font-size="10.00">con_handler.h</text>
</a>
</g>
</g>
<!-- Node0&#45;&gt;Node5 -->
<g id="edge5" class="edge"><title>Node0&#45;&gt;Node5</title>
<path fill="none" stroke="black" d="M30.2072,-323.655C39.0115,-302.986 55.7859,-270.148 80,-250.5 84.7419,-246.652 90.3294,-243.548 96.0592,-241.053"/>
<polygon fill="black" stroke="black" points="26.9458,-322.384 26.4299,-332.967 33.4323,-325.016 26.9458,-322.384"/>
</g>
<!-- Node8 -->
<g id="node15" class="node"><title>Node8</title>
<g id="a_node15"><a xlink:href="group__memdbuid__cpp.html" target="_top" xlink:title=" ">
<polygon fill="white" stroke="black" points="175,-204 92,-204 92,-185 175,-185 175,-204"/>
<text text-anchor="middle" x="133.5" y="-192" font-family="Helvetica,sans-Serif" font-size="10.00">MemDBuid.cpp</text>
</a>
</g>
</g>
<!-- Node0&#45;&gt;Node8 -->
<g id="edge8" class="edge"><title>Node0&#45;&gt;Node8</title>
<path fill="none" stroke="black" d="M26.6419,-322.765C32.809,-294.729 47.9082,-243.456 80,-213.5 84.1806,-209.598 89.2228,-206.485 94.5074,-204.005"/>
<polygon fill="black" stroke="black" points="23.1412,-322.417 24.5804,-332.914 30.0011,-323.81 23.1412,-322.417"/>
</g>
<!-- Node7 -->
<g id="node16" class="node"><title>Node7</title>
<g id="a_node16"><a xlink:href="group__memdbmap__h.html" target="_top" xlink:title=" ">
<polygon fill="white" stroke="black" points="173,-167 94,-167 94,-148 173,-148 173,-167"/>
<text text-anchor="middle" x="133.5" y="-155" font-family="Helvetica,sans-Serif" font-size="10.00">MemDBmap.h</text>
</a>
</g>
</g>
<!-- Node0&#45;&gt;Node7 -->
<g id="edge7" class="edge"><title>Node0&#45;&gt;Node7</title>
<path fill="none" stroke="black" d="M24.3883,-322.598C27.8334,-288.224 39.6845,-217.485 80,-176.5 83.9425,-172.492 88.7934,-169.325 93.9387,-166.823"/>
<polygon fill="black" stroke="black" points="20.8837,-322.502 23.5133,-332.766 27.8579,-323.103 20.8837,-322.502"/>
</g>
<!-- Node6 -->
<g id="node17" class="node"><title>Node6</title>
<g id="a_node17"><a xlink:href="group__memdbmap__cpp.html" target="_top" xlink:title=" ">
<polygon fill="white" stroke="black" points="178,-130 89,-130 89,-111 178,-111 178,-130"/>
<text text-anchor="middle" x="133.5" y="-118" font-family="Helvetica,sans-Serif" font-size="10.00">MemDBmap.cpp</text>
</a>
</g>
</g>
<!-- Node0&#45;&gt;Node6 -->
<g id="edge6" class="edge"><title>Node0&#45;&gt;Node6</title>
<path fill="none" stroke="black" d="M22.8819,-322.743C23.7204,-282.84 31.2438,-191.978 80,-139.5 83.6287,-135.594 88.1215,-132.49 92.9395,-130.023"/>
<polygon fill="black" stroke="black" points="19.38,-322.955 22.7957,-332.984 26.3798,-323.014 19.38,-322.955"/>
</g>
<!-- Node13 -->
<g id="node18" class="node"><title>Node13</title>
<g id="a_node18"><a xlink:href="group__processing__h.html" target="_top" xlink:title=" ">
<polygon fill="white" stroke="black" points="170.5,-93 96.5,-93 96.5,-74 170.5,-74 170.5,-93"/>
<text text-anchor="middle" x="133.5" y="-81" font-family="Helvetica,sans-Serif" font-size="10.00">Processing.h</text>
</a>
</g>
</g>
<!-- Node0&#45;&gt;Node13 -->
<g id="edge13" class="edge"><title>Node0&#45;&gt;Node13</title>
<path fill="none" stroke="black" d="M25.2778,-322.67C31.5495,-271.278 50.5821,-135.48 80,-102.5 84.3875,-97.5812 90.1484,-93.9349 96.2435,-91.2321"/>
<polygon fill="black" stroke="black" points="21.7784,-322.459 24.0748,-332.802 28.7296,-323.284 21.7784,-322.459"/>
</g>
<!-- Node16 -->
<g id="node19" class="node"><title>Node16</title>
<g id="a_node19"><a xlink:href="group__regexcpp.html" target="_top" xlink:title=" ">
<polygon fill="white" stroke="black" points="165,-56 102,-56 102,-37 165,-37 165,-56"/>
<text text-anchor="middle" x="133.5" y="-44" font-family="Helvetica,sans-Serif" font-size="10.00">Regex.cpp</text>
</a>
</g>
</g>
<!-- Node0&#45;&gt;Node16 -->
<g id="edge16" class="edge"><title>Node0&#45;&gt;Node16</title>
<path fill="none" stroke="black" d="M24.5904,-322.684C29.5172,-265.954 46.2644,-104.492 80,-65.5 85.6445,-58.976 93.7097,-54.6918 101.83,-51.8786"/>
<polygon fill="black" stroke="black" points="21.0864,-322.586 23.7388,-332.843 28.062,-323.171 21.0864,-322.586"/>
</g>
<!-- Node1 -->
<g id="node20" class="node"><title>Node1</title>
<g id="a_node20"><a xlink:href="group__dbcpp.html" target="_top" xlink:title=" ">
<polygon fill="white" stroke="black" points="158,-19 109,-19 109,-0 158,-0 158,-19"/>
<text text-anchor="middle" x="133.5" y="-7" font-family="Helvetica,sans-Serif" font-size="10.00">DB.cpp</text>
</a>
</g>
</g>
<!-- Node0&#45;&gt;Node1 -->
<g id="edge1" class="edge"><title>Node0&#45;&gt;Node1</title>
<path fill="none" stroke="black" d="M24.072,-322.528C27.7751,-260.639 41.9549,-73.5256 80,-28.5 87.1945,-19.9855 98.5195,-15.2866 108.812,-12.6934"/>
<polygon fill="black" stroke="black" points="20.5578,-322.678 23.483,-332.861 27.5465,-323.077 20.5578,-322.678"/>
</g>
</g>
</svg>
