<?xml version="1.0" encoding="UTF-8" standalone="no"?>
<!DOCTYPE svg PUBLIC "-//W3C//DTD SVG 1.1//EN"
 "http://www.w3.org/Graphics/SVG/1.1/DTD/svg11.dtd">
<!-- Generated by graphviz version 2.38.0 (20140413.2041)
 -->
<!-- Title: Server Pages: 1 -->
<svg width="195pt" height="397pt"
 viewBox="0.00 0.00 195.00 397.00" xmlns="http://www.w3.org/2000/svg" xmlns:xlink="http://www.w3.org/1999/xlink">
<g id="graph0" class="graph" transform="scale(1 1) rotate(0) translate(4 393)">
<title>Server</title>
<polygon fill="white" stroke="none" points="-4,4 -4,-393 191,-393 191,4 -4,4"/>
<!-- Node5 -->
<g id="node1" class="node"><title>Node5</title>
<g id="a_node1"><a xlink:href="group__dbh.html" target="_top" xlink:title=" ">
<polygon fill="white" stroke="black" points="152.5,-389 114.5,-389 114.5,-370 152.5,-370 152.5,-389"/>
<text text-anchor="middle" x="133.5" y="-377" font-family="Helvetica,sans-Serif" font-size="10.00">DB.h</text>
</a>
</g>
</g>
<!-- Node10 -->
<g id="node2" class="node"><title>Node10</title>
<g id="a_node2"><a xlink:href="group__servercpp.html" target="_top" xlink:title=" ">
<polygon fill="white" stroke="black" points="164.5,-352 102.5,-352 102.5,-333 164.5,-333 164.5,-352"/>
<text text-anchor="middle" x="133.5" y="-340" font-family="Helvetica,sans-Serif" font-size="10.00">Server.cpp</text>
</a>
</g>
</g>
<!-- Node0 -->
<g id="node3" class="node"><title>Node0</title>
<g id="a_node3"><a xlink:title="Сервер">
<polygon fill="#bfbfbf" stroke="black" points="44,-204 0,-204 0,-185 44,-185 44,-204"/>
<text text-anchor="middle" x="22" y="-192" font-family="Helvetica,sans-Serif" font-size="10.00">Server</text>
</a>
</g>
</g>
<!-- Node0&#45;&gt;Node5 -->
<g id="edge5" class="edge"><title>Node0&#45;&gt;Node5</title>
<path fill="none" stroke="black" d="M24.2789,-214.591C27.5561,-249.278 39.1572,-320.601 80,-361.5 89.1235,-370.636 103.08,-375.14 114.311,-377.357"/>
<polygon fill="black" stroke="black" points="27.7442,-214.017 23.4564,-204.329 20.7666,-214.577 27.7442,-214.017"/>
</g>
<!-- Node0&#45;&gt;Node10 -->
<g id="edge10" class="edge"><title>Node0&#45;&gt;Node10</title>
<path fill="none" stroke="black" d="M26.4489,-214.083C32.4249,-242.34 47.3437,-294.445 80,-324.5 86.239,-330.242 94.3923,-334.163 102.407,-336.837"/>
<polygon fill="black" stroke="black" points="29.8707,-213.343 24.5213,-204.198 23.0001,-214.683 29.8707,-213.343"/>
</g>
<!-- Node6 -->
<g id="node4" class="node"><title>Node6</title>
<g id="a_node4"><a xlink:href="group__rand__ssecpp.html" target="_top" xlink:title=" ">
<polygon fill="white" stroke="black" points="171,-315 96,-315 96,-296 171,-296 171,-315"/>
<text text-anchor="middle" x="133.5" y="-303" font-family="Helvetica,sans-Serif" font-size="10.00">rand_sse.cpp</text>
</a>
</g>
</g>
<!-- Node0&#45;&gt;Node6 -->
<g id="edge6" class="edge"><title>Node0&#45;&gt;Node6</title>
<path fill="none" stroke="black" d="M30.0922,-213.627C38.7934,-234.589 55.4759,-267.845 80,-287.5 84.6616,-291.236 90.1446,-294.218 95.7777,-296.592"/>
<polygon fill="black" stroke="black" points="33.2912,-212.198 26.3661,-204.18 26.7794,-214.766 33.2912,-212.198"/>
</g>
<!-- Node9 -->
<g id="node5" class="node"><title>Node9</title>
<g id="a_node5"><a xlink:href="group__regexh.html" target="_top" xlink:title=" ">
<polygon fill="white" stroke="black" points="160,-278 107,-278 107,-259 160,-259 160,-278"/>
<text text-anchor="middle" x="133.5" y="-266" font-family="Helvetica,sans-Serif" font-size="10.00">Regex.h</text>
</a>
</g>
</g>
<!-- Node0&#45;&gt;Node9 -->
<g id="edge9" class="edge"><title>Node0&#45;&gt;Node9</title>
<path fill="none" stroke="black" d="M37.0141,-211.927C47.675,-224.19 63.3151,-240.192 80,-250.5 88.1971,-255.564 98.0011,-259.419 106.906,-262.236"/>
<polygon fill="black" stroke="black" points="39.5911,-209.554 30.4774,-204.151 34.2327,-214.058 39.5911,-209.554"/>
</g>
<!-- Node7 -->
<g id="node6" class="node"><title>Node7</title>
<g id="a_node6"><a xlink:href="group__rand__sseh.html" target="_top" xlink:title=" ">
<polygon fill="white" stroke="black" points="166,-241 101,-241 101,-222 166,-222 166,-241"/>
<text text-anchor="middle" x="133.5" y="-229" font-family="Helvetica,sans-Serif" font-size="10.00">rand_sse.h</text>
</a>
</g>
</g>
<!-- Node0&#45;&gt;Node7 -->
<g id="edge7" class="edge"><title>Node0&#45;&gt;Node7</title>
<path fill="none" stroke="black" d="M53.9063,-204.943C69.6342,-210.258 88.6247,-216.675 103.998,-221.869"/>
<polygon fill="black" stroke="black" points="54.7069,-201.519 44.1127,-201.634 52.466,-208.151 54.7069,-201.519"/>
</g>
<!-- Node11 -->
<g id="node7" class="node"><title>Node11</title>
<g id="a_node7"><a xlink:href="group__serverh.html" target="_top" xlink:title=" ">
<polygon fill="white" stroke="black" points="159.5,-204 107.5,-204 107.5,-185 159.5,-185 159.5,-204"/>
<text text-anchor="middle" x="133.5" y="-192" font-family="Helvetica,sans-Serif" font-size="10.00">Server.h</text>
</a>
</g>
</g>
<!-- Node0&#45;&gt;Node11 -->
<g id="edge11" class="edge"><title>Node0&#45;&gt;Node11</title>
<path fill="none" stroke="black" d="M54.5114,-194.5C71.2449,-194.5 91.5345,-194.5 107.224,-194.5"/>
<polygon fill="black" stroke="black" points="54.1127,-191 44.1127,-194.5 54.1127,-198 54.1127,-191"/>
</g>
<!-- Node2 -->
<g id="node8" class="node"><title>Node2</title>
<g id="a_node8"><a xlink:href="group__con__handler__cpp.html" target="_top" xlink:title=" ">
<polygon fill="white" stroke="black" points="177.5,-167 89.5,-167 89.5,-148 177.5,-148 177.5,-167"/>
<text text-anchor="middle" x="133.5" y="-155" font-family="Helvetica,sans-Serif" font-size="10.00">con_handler.cpp</text>
</a>
</g>
</g>
<!-- Node0&#45;&gt;Node2 -->
<g id="edge2" class="edge"><title>Node0&#45;&gt;Node2</title>
<path fill="none" stroke="black" d="M53.9063,-184.057C69.6342,-178.742 88.6247,-172.325 103.998,-167.131"/>
<polygon fill="black" stroke="black" points="52.466,-180.849 44.1127,-187.366 54.7069,-187.481 52.466,-180.849"/>
</g>
<!-- Node1 -->
<g id="node9" class="node"><title>Node1</title>
<g id="a_node9"><a xlink:href="group__battleshiproyalecpp.html" target="_top" xlink:title=" ">
<polygon fill="white" stroke="black" points="187,-130 80,-130 80,-111 187,-111 187,-130"/>
<text text-anchor="middle" x="133.5" y="-118" font-family="Helvetica,sans-Serif" font-size="10.00">BattleShiproyale.cpp</text>
</a>
</g>
</g>
<!-- Node0&#45;&gt;Node1 -->
<g id="edge1" class="edge"><title>Node0&#45;&gt;Node1</title>
<path fill="none" stroke="black" d="M37.4976,-177.065C48.2019,-165.123 63.6911,-149.666 80,-139.5 86.0049,-135.757 92.8542,-132.604 99.5779,-130.008"/>
<polygon fill="black" stroke="black" points="34.8141,-174.817 30.9001,-184.662 40.0995,-179.407 34.8141,-174.817"/>
</g>
<!-- Node3 -->
<g id="node10" class="node"><title>Node3</title>
<g id="a_node10"><a xlink:href="group__con__handler__h.html" target="_top" xlink:title=" ">
<polygon fill="white" stroke="black" points="172,-93 95,-93 95,-74 172,-74 172,-93"/>
<text text-anchor="middle" x="133.5" y="-81" font-family="Helvetica,sans-Serif" font-size="10.00">con_handler.h</text>
</a>
</g>
</g>
<!-- Node0&#45;&gt;Node3 -->
<g id="edge3" class="edge"><title>Node0&#45;&gt;Node3</title>
<path fill="none" stroke="black" d="M30.2072,-175.655C39.0115,-154.986 55.7859,-122.148 80,-102.5 84.7419,-98.6522 90.3294,-95.5476 96.0592,-93.0534"/>
<polygon fill="black" stroke="black" points="26.9458,-174.384 26.4299,-184.967 33.4323,-177.016 26.9458,-174.384"/>
</g>
<!-- Node8 -->
<g id="node11" class="node"><title>Node8</title>
<g id="a_node11"><a xlink:href="group__regexcpp.html" target="_top" xlink:title=" ">
<polygon fill="white" stroke="black" points="165,-56 102,-56 102,-37 165,-37 165,-56"/>
<text text-anchor="middle" x="133.5" y="-44" font-family="Helvetica,sans-Serif" font-size="10.00">Regex.cpp</text>
</a>
</g>
</g>
<!-- Node0&#45;&gt;Node8 -->
<g id="edge8" class="edge"><title>Node0&#45;&gt;Node8</title>
<path fill="none" stroke="black" d="M26.6419,-174.765C32.809,-146.729 47.9082,-95.4558 80,-65.5 86.0938,-59.8118 94.0182,-55.8011 101.855,-52.9828"/>
<polygon fill="black" stroke="black" points="23.1412,-174.417 24.5804,-184.914 30.0011,-175.81 23.1412,-174.417"/>
</g>
<!-- Node4 -->
<g id="node12" class="node"><title>Node4</title>
<g id="a_node12"><a xlink:href="group__dbcpp.html" target="_top" xlink:title=" ">
<polygon fill="white" stroke="black" points="158,-19 109,-19 109,-0 158,-0 158,-19"/>
<text text-anchor="middle" x="133.5" y="-7" font-family="Helvetica,sans-Serif" font-size="10.00">DB.cpp</text>
</a>
</g>
</g>
<!-- Node0&#45;&gt;Node4 -->
<g id="edge4" class="edge"><title>Node0&#45;&gt;Node4</title>
<path fill="none" stroke="black" d="M24.3883,-174.598C27.8334,-140.224 39.6845,-69.4855 80,-28.5 87.681,-20.6913 98.8102,-16.0743 108.847,-13.3527"/>
<polygon fill="black" stroke="black" points="20.8837,-174.502 23.5133,-184.766 27.8579,-175.103 20.8837,-174.502"/>
</g>
</g>
</svg>
