<?xml version="1.0" encoding="UTF-8" standalone="no"?>
<!DOCTYPE svg PUBLIC "-//W3C//DTD SVG 1.1//EN"
 "http://www.w3.org/Graphics/SVG/1.1/DTD/svg11.dtd">
<!-- Generated by graphviz version 2.38.0 (20140413.2041)
 -->
<!-- Title: Server Pages: 1 -->
<svg width="195pt" height="767pt"
 viewBox="0.00 0.00 195.00 767.00" xmlns="http://www.w3.org/2000/svg" xmlns:xlink="http://www.w3.org/1999/xlink">
<g id="graph0" class="graph" transform="scale(1 1) rotate(0) translate(4 763)">
<title>Server</title>
<polygon fill="white" stroke="none" points="-4,4 -4,-763 191,-763 191,4 -4,4"/>
<!-- Node2 -->
<g id="node1" class="node"><title>Node2</title>
<g id="a_node1"><a xlink:href="group__dbh.html" target="_top" xlink:title=" ">
<polygon fill="white" stroke="black" points="152.5,-759 114.5,-759 114.5,-740 152.5,-740 152.5,-759"/>
<text text-anchor="middle" x="133.5" y="-747" font-family="Helvetica,sans-Serif" font-size="10.00">DB.h</text>
</a>
</g>
</g>
<!-- Node20 -->
<g id="node2" class="node"><title>Node20</title>
<g id="a_node2"><a xlink:href="group__servercpp.html" target="_top" xlink:title=" ">
<polygon fill="white" stroke="black" points="164.5,-722 102.5,-722 102.5,-703 164.5,-703 164.5,-722"/>
<text text-anchor="middle" x="133.5" y="-710" font-family="Helvetica,sans-Serif" font-size="10.00">Server.cpp</text>
</a>
</g>
</g>
<!-- Node6 -->
<g id="node3" class="node"><title>Node6</title>
<g id="a_node3"><a xlink:href="group__minidb__h.html" target="_top" xlink:title=" ">
<polygon fill="white" stroke="black" points="161.5,-685 105.5,-685 105.5,-666 161.5,-666 161.5,-685"/>
<text text-anchor="middle" x="133.5" y="-673" font-family="Helvetica,sans-Serif" font-size="10.00">MiniDB.h</text>
</a>
</g>
</g>
<!-- Node0 -->
<g id="node4" class="node"><title>Node0</title>
<g id="a_node4"><a xlink:title="Сервер">
<polygon fill="#bfbfbf" stroke="black" points="44,-389 0,-389 0,-370 44,-370 44,-389"/>
<text text-anchor="middle" x="22" y="-377" font-family="Helvetica,sans-Serif" font-size="10.00">Server</text>
</a>
</g>
</g>
<!-- Node0&#45;&gt;Node2 -->
<g id="edge2" class="edge"><title>Node0&#45;&gt;Node2</title>
<path fill="none" stroke="black" d="M23.5988,-399.284C26.0002,-465.867 36.9948,-680.496 80,-731.5 88.4471,-741.518 102.736,-745.972 114.276,-747.946"/>
<polygon fill="black" stroke="black" points="27.0965,-399.153 23.2638,-389.275 20.1004,-399.387 27.0965,-399.153"/>
</g>
<!-- Node0&#45;&gt;Node20 -->
<g id="edge20" class="edge"><title>Node0&#45;&gt;Node20</title>
<path fill="none" stroke="black" d="M24.0083,-399.177C27.5535,-460.947 41.3888,-649.557 80,-694.5 85.7138,-701.151 93.9993,-705.348 102.306,-707.995"/>
<polygon fill="black" stroke="black" points="27.5026,-398.977 23.4624,-389.183 20.5131,-399.359 27.5026,-398.977"/>
</g>
<!-- Node0&#45;&gt;Node6 -->
<g id="edge6" class="edge"><title>Node0&#45;&gt;Node6</title>
<path fill="none" stroke="black" d="M24.5485,-399.415C29.3616,-456.424 45.8311,-618.649 80,-657.5 86.4906,-664.88 96.1435,-669.237 105.408,-671.807"/>
<polygon fill="black" stroke="black" points="28.0173,-398.888 23.7177,-389.205 21.0404,-399.456 28.0173,-398.888"/>
</g>
<!-- Node3 -->
<g id="node5" class="node"><title>Node3</title>
<g id="a_node5"><a xlink:href="group__rand__ssecpp.html" target="_top" xlink:title=" ">
<polygon fill="white" stroke="black" points="171,-648 96,-648 96,-629 171,-629 171,-648"/>
<text text-anchor="middle" x="133.5" y="-636" font-family="Helvetica,sans-Serif" font-size="10.00">rand_sse.cpp</text>
</a>
</g>
</g>
<!-- Node0&#45;&gt;Node3 -->
<g id="edge3" class="edge"><title>Node0&#45;&gt;Node3</title>
<path fill="none" stroke="black" d="M25.235,-399.44C31.4022,-451.114 50.2019,-587.627 80,-620.5 84.3357,-625.283 89.998,-628.796 95.9955,-631.375"/>
<polygon fill="black" stroke="black" points="28.6823,-398.783 24.0531,-389.253 21.7289,-399.59 28.6823,-398.783"/>
</g>
<!-- Node19 -->
<g id="node6" class="node"><title>Node19</title>
<g id="a_node6"><a xlink:href="group__regexh.html" target="_top" xlink:title=" ">
<polygon fill="white" stroke="black" points="160,-611 107,-611 107,-592 160,-592 160,-611"/>
<text text-anchor="middle" x="133.5" y="-599" font-family="Helvetica,sans-Serif" font-size="10.00">Regex.h</text>
</a>
</g>
</g>
<!-- Node0&#45;&gt;Node19 -->
<g id="edge19" class="edge"><title>Node0&#45;&gt;Node19</title>
<path fill="none" stroke="black" d="M22.7722,-399.164C23.391,-439.251 30.5037,-531.055 80,-583.5 87.0102,-590.928 97.2161,-595.291 106.769,-597.853"/>
<polygon fill="black" stroke="black" points="26.2721,-399.087 22.7421,-389.097 19.2721,-399.108 26.2721,-399.087"/>
</g>
<!-- Node4 -->
<g id="node7" class="node"><title>Node4</title>
<g id="a_node7"><a xlink:href="group__rand__sseh.html" target="_top" xlink:title=" ">
<polygon fill="white" stroke="black" points="166,-574 101,-574 101,-555 166,-555 166,-574"/>
<text text-anchor="middle" x="133.5" y="-562" font-family="Helvetica,sans-Serif" font-size="10.00">rand_sse.h</text>
</a>
</g>
</g>
<!-- Node0&#45;&gt;Node4 -->
<g id="edge4" class="edge"><title>Node0&#45;&gt;Node4</title>
<path fill="none" stroke="black" d="M24.2789,-399.591C27.5561,-434.278 39.1572,-505.601 80,-546.5 85.7192,-552.227 93.3376,-556.134 100.993,-558.798"/>
<polygon fill="black" stroke="black" points="27.7442,-399.017 23.4564,-389.329 20.7666,-399.577 27.7442,-399.017"/>
</g>
<!-- Node11 -->
<g id="node8" class="node"><title>Node11</title>
<g id="a_node8"><a xlink:href="group__console__h.html" target="_top" xlink:title=" ">
<polygon fill="white" stroke="black" points="163.5,-537 103.5,-537 103.5,-518 163.5,-518 163.5,-537"/>
<text text-anchor="middle" x="133.5" y="-525" font-family="Helvetica,sans-Serif" font-size="10.00">Console.h</text>
</a>
</g>
</g>
<!-- Node0&#45;&gt;Node11 -->
<g id="edge11" class="edge"><title>Node0&#45;&gt;Node11</title>
<path fill="none" stroke="black" d="M26.4489,-399.083C32.4249,-427.34 47.3437,-479.445 80,-509.5 86.5226,-515.503 95.1375,-519.516 103.498,-522.194"/>
<polygon fill="black" stroke="black" points="29.8707,-398.343 24.5213,-389.198 23.0001,-399.683 29.8707,-398.343"/>
</g>
<!-- Node5 -->
<g id="node9" class="node"><title>Node5</title>
<g id="a_node9"><a xlink:href="group__minidb__cpp.html" target="_top" xlink:title=" ">
<polygon fill="white" stroke="black" points="167,-500 100,-500 100,-481 167,-481 167,-500"/>
<text text-anchor="middle" x="133.5" y="-488" font-family="Helvetica,sans-Serif" font-size="10.00">MiniDB.cpp</text>
</a>
</g>
</g>
<!-- Node0&#45;&gt;Node5 -->
<g id="edge5" class="edge"><title>Node0&#45;&gt;Node5</title>
<path fill="none" stroke="black" d="M30.0922,-398.627C38.7934,-419.589 55.4759,-452.845 80,-472.5 85.7894,-477.14 92.8458,-480.617 99.8831,-483.211"/>
<polygon fill="black" stroke="black" points="33.2912,-397.198 26.3661,-389.18 26.7794,-399.766 33.2912,-397.198"/>
</g>
<!-- Node21 -->
<g id="node10" class="node"><title>Node21</title>
<g id="a_node10"><a xlink:href="group__serverh.html" target="_top" xlink:title=" ">
<polygon fill="white" stroke="black" points="159.5,-463 107.5,-463 107.5,-444 159.5,-444 159.5,-463"/>
<text text-anchor="middle" x="133.5" y="-451" font-family="Helvetica,sans-Serif" font-size="10.00">Server.h</text>
</a>
</g>
</g>
<!-- Node0&#45;&gt;Node21 -->
<g id="edge21" class="edge"><title>Node0&#45;&gt;Node21</title>
<path fill="none" stroke="black" d="M37.0141,-396.927C47.675,-409.19 63.3151,-425.192 80,-435.5 88.3611,-440.666 98.3939,-444.573 107.439,-447.404"/>
<polygon fill="black" stroke="black" points="39.5911,-394.554 30.4774,-389.151 34.2327,-399.058 39.5911,-394.554"/>
</g>
<!-- Node16 -->
<g id="node11" class="node"><title>Node16</title>
<g id="a_node11"><a xlink:href="group__processing__cpp.html" target="_top" xlink:title=" ">
<polygon fill="white" stroke="black" points="175.5,-426 91.5,-426 91.5,-407 175.5,-407 175.5,-426"/>
<text text-anchor="middle" x="133.5" y="-414" font-family="Helvetica,sans-Serif" font-size="10.00">Processing.cpp</text>
</a>
</g>
</g>
<!-- Node0&#45;&gt;Node16 -->
<g id="edge16" class="edge"><title>Node0&#45;&gt;Node16</title>
<path fill="none" stroke="black" d="M53.9063,-389.943C69.6342,-395.258 88.6247,-401.675 103.998,-406.869"/>
<polygon fill="black" stroke="black" points="54.7069,-386.519 44.1127,-386.634 52.466,-393.151 54.7069,-386.519"/>
</g>
<!-- Node10 -->
<g id="node12" class="node"><title>Node10</title>
<g id="a_node12"><a xlink:href="group__console__cpp.html" target="_top" xlink:title=" ">
<polygon fill="white" stroke="black" points="169,-389 98,-389 98,-370 169,-370 169,-389"/>
<text text-anchor="middle" x="133.5" y="-377" font-family="Helvetica,sans-Serif" font-size="10.00">Console.cpp</text>
</a>
</g>
</g>
<!-- Node0&#45;&gt;Node10 -->
<g id="edge10" class="edge"><title>Node0&#45;&gt;Node10</title>
<path fill="none" stroke="black" d="M54.3763,-379.5C67.9036,-379.5 83.7746,-379.5 97.6654,-379.5"/>
<polygon fill="black" stroke="black" points="54.1127,-376 44.1127,-379.5 54.1127,-383 54.1127,-376"/>
</g>
<!-- Node15 -->
<g id="node13" class="node"><title>Node15</title>
<g id="a_node13"><a xlink:href="group__memdbuid__h.html" target="_top" xlink:title=" ">
<polygon fill="white" stroke="black" points="170,-352 97,-352 97,-333 170,-333 170,-352"/>
<text text-anchor="middle" x="133.5" y="-340" font-family="Helvetica,sans-Serif" font-size="10.00">MemDBuid.h</text>
</a>
</g>
</g>
<!-- Node0&#45;&gt;Node15 -->
<g id="edge15" class="edge"><title>Node0&#45;&gt;Node15</title>
<path fill="none" stroke="black" d="M53.9063,-369.057C69.6342,-363.742 88.6247,-357.325 103.998,-352.131"/>
<polygon fill="black" stroke="black" points="52.466,-365.849 44.1127,-372.366 54.7069,-372.481 52.466,-365.849"/>
</g>
<!-- Node8 -->
<g id="node14" class="node"><title>Node8</title>
<g id="a_node14"><a xlink:href="group__con__handler__cpp.html" target="_top" xlink:title=" ">
<polygon fill="white" stroke="black" points="177.5,-315 89.5,-315 89.5,-296 177.5,-296 177.5,-315"/>
<text text-anchor="middle" x="133.5" y="-303" font-family="Helvetica,sans-Serif" font-size="10.00">con_handler.cpp</text>
</a>
</g>
</g>
<!-- Node0&#45;&gt;Node8 -->
<g id="edge8" class="edge"><title>Node0&#45;&gt;Node8</title>
<path fill="none" stroke="black" d="M37.4976,-362.065C48.2019,-350.123 63.6911,-334.666 80,-324.5 86.0049,-320.757 92.8542,-317.604 99.5779,-315.008"/>
<polygon fill="black" stroke="black" points="34.8141,-359.817 30.9001,-369.662 40.0995,-364.407 34.8141,-359.817"/>
</g>
<!-- Node7 -->
<g id="node15" class="node"><title>Node7</title>
<g id="a_node15"><a xlink:href="group__battleshiproyalecpp.html" target="_top" xlink:title=" ">
<polygon fill="white" stroke="black" points="187,-278 80,-278 80,-259 187,-259 187,-278"/>
<text text-anchor="middle" x="133.5" y="-266" font-family="Helvetica,sans-Serif" font-size="10.00">BattleShiproyale.cpp</text>
</a>
</g>
</g>
<!-- Node0&#45;&gt;Node7 -->
<g id="edge7" class="edge"><title>Node0&#45;&gt;Node7</title>
<path fill="none" stroke="black" d="M30.2072,-360.655C39.0115,-339.986 55.7859,-307.148 80,-287.5 84.7419,-283.652 90.3294,-280.548 96.0592,-278.053"/>
<polygon fill="black" stroke="black" points="26.9458,-359.384 26.4299,-369.967 33.4323,-362.016 26.9458,-359.384"/>
</g>
<!-- Node9 -->
<g id="node16" class="node"><title>Node9</title>
<g id="a_node16"><a xlink:href="group__con__handler__h.html" target="_top" xlink:title=" ">
<polygon fill="white" stroke="black" points="172,-241 95,-241 95,-222 172,-222 172,-241"/>
<text text-anchor="middle" x="133.5" y="-229" font-family="Helvetica,sans-Serif" font-size="10.00">con_handler.h</text>
</a>
</g>
</g>
<!-- Node0&#45;&gt;Node9 -->
<g id="edge9" class="edge"><title>Node0&#45;&gt;Node9</title>
<path fill="none" stroke="black" d="M26.6419,-359.765C32.809,-331.729 47.9082,-280.456 80,-250.5 84.2515,-246.531 89.394,-243.38 94.7763,-240.879"/>
<polygon fill="black" stroke="black" points="23.1412,-359.417 24.5804,-369.914 30.0011,-360.81 23.1412,-359.417"/>
</g>
<!-- Node14 -->
<g id="node17" class="node"><title>Node14</title>
<g id="a_node17"><a xlink:href="group__memdbuid__cpp.html" target="_top" xlink:title=" ">
<polygon fill="white" stroke="black" points="175,-204 92,-204 92,-185 175,-185 175,-204"/>
<text text-anchor="middle" x="133.5" y="-192" font-family="Helvetica,sans-Serif" font-size="10.00">MemDBuid.cpp</text>
</a>
</g>
</g>
<!-- Node0&#45;&gt;Node14 -->
<g id="edge14" class="edge"><title>Node0&#45;&gt;Node14</title>
<path fill="none" stroke="black" d="M24.3883,-359.598C27.8334,-325.224 39.6845,-254.485 80,-213.5 83.8065,-209.63 88.4599,-206.544 93.4075,-204.084"/>
<polygon fill="black" stroke="black" points="20.8837,-359.502 23.5133,-369.766 27.8579,-360.103 20.8837,-359.502"/>
</g>
<!-- Node13 -->
<g id="node18" class="node"><title>Node13</title>
<g id="a_node18"><a xlink:href="group__memdbmap__h.html" target="_top" xlink:title=" ">
<polygon fill="white" stroke="black" points="173,-167 94,-167 94,-148 173,-148 173,-167"/>
<text text-anchor="middle" x="133.5" y="-155" font-family="Helvetica,sans-Serif" font-size="10.00">MemDBmap.h</text>
</a>
</g>
</g>
<!-- Node0&#45;&gt;Node13 -->
<g id="edge13" class="edge"><title>Node0&#45;&gt;Node13</title>
<path fill="none" stroke="black" d="M22.8819,-359.743C23.7204,-319.84 31.2438,-228.978 80,-176.5 83.8926,-172.31 88.7795,-169.043 93.9957,-166.494"/>
<polygon fill="black" stroke="black" points="19.38,-359.955 22.7957,-369.984 26.3798,-360.014 19.38,-359.955"/>
</g>
<!-- Node12 -->
<g id="node19" class="node"><title>Node12</title>
<g id="a_node19"><a xlink:href="group__memdbmap__cpp.html" target="_top" xlink:title=" ">
<polygon fill="white" stroke="black" points="178,-130 89,-130 89,-111 178,-111 178,-130"/>
<text text-anchor="middle" x="133.5" y="-118" font-family="Helvetica,sans-Serif" font-size="10.00">MemDBmap.cpp</text>
</a>
</g>
</g>
<!-- Node0&#45;&gt;Node12 -->
<g id="edge12" class="edge"><title>Node0&#45;&gt;Node12</title>
<path fill="none" stroke="black" d="M25.2778,-359.67C31.5495,-308.278 50.5821,-172.48 80,-139.5 83.4842,-135.594 87.8345,-132.49 92.5304,-130.024"/>
<polygon fill="black" stroke="black" points="21.7784,-359.459 24.0748,-369.802 28.7296,-360.284 21.7784,-359.459"/>
</g>
<!-- Node17 -->
<g id="node20" class="node"><title>Node17</title>
<g id="a_node20"><a xlink:href="group__processing__h.html" target="_top" xlink:title=" ">
<polygon fill="white" stroke="black" points="170.5,-93 96.5,-93 96.5,-74 170.5,-74 170.5,-93"/>
<text text-anchor="middle" x="133.5" y="-81" font-family="Helvetica,sans-Serif" font-size="10.00">Processing.h</text>
</a>
</g>
</g>
<!-- Node0&#45;&gt;Node17 -->
<g id="edge17" class="edge"><title>Node0&#45;&gt;Node17</title>
<path fill="none" stroke="black" d="M24.5904,-359.684C29.5172,-302.954 46.2644,-141.492 80,-102.5 84.3761,-97.4421 90.2072,-93.7304 96.391,-91.0067"/>
<polygon fill="black" stroke="black" points="21.0864,-359.586 23.7388,-369.843 28.062,-360.171 21.0864,-359.586"/>
</g>
<!-- Node18 -->
<g id="node21" class="node"><title>Node18</title>
<g id="a_node21"><a xlink:href="group__regexcpp.html" target="_top" xlink:title=" ">
<polygon fill="white" stroke="black" points="165,-56 102,-56 102,-37 165,-37 165,-56"/>
<text text-anchor="middle" x="133.5" y="-44" font-family="Helvetica,sans-Serif" font-size="10.00">Regex.cpp</text>
</a>
</g>
</g>
<!-- Node0&#45;&gt;Node18 -->
<g id="edge18" class="edge"><title>Node0&#45;&gt;Node18</title>
<path fill="none" stroke="black" d="M24.072,-359.528C27.7751,-297.639 41.9549,-110.526 80,-65.5 85.5679,-58.9105 93.6098,-54.6063 101.732,-51.7949"/>
<polygon fill="black" stroke="black" points="20.5578,-359.678 23.483,-369.861 27.5465,-360.077 20.5578,-359.678"/>
</g>
<!-- Node1 -->
<g id="node22" class="node"><title>Node1</title>
<g id="a_node22"><a xlink:href="group__dbcpp.html" target="_top" xlink:title=" ">
<polygon fill="white" stroke="black" points="158,-19 109,-19 109,-0 158,-0 158,-19"/>
<text text-anchor="middle" x="133.5" y="-7" font-family="Helvetica,sans-Serif" font-size="10.00">DB.cpp</text>
</a>
</g>
</g>
<!-- Node0&#45;&gt;Node1 -->
<g id="edge1" class="edge"><title>Node0&#45;&gt;Node1</title>
<path fill="none" stroke="black" d="M23.6551,-359.386C26.218,-292.608 37.6225,-79.6088 80,-28.5 87.115,-19.919 98.432,-15.2133 108.74,-12.6329"/>
<polygon fill="black" stroke="black" points="20.1436,-359.647 23.2843,-369.766 27.1392,-359.897 20.1436,-359.647"/>
</g>
</g>
</svg>
