<?xml version="1.0" encoding="UTF-8" standalone="no"?>
<!DOCTYPE svg PUBLIC "-//W3C//DTD SVG 1.1//EN"
 "http://www.w3.org/Graphics/SVG/1.1/DTD/svg11.dtd">
<!-- Generated by graphviz version 2.38.0 (20140413.2041)
 -->
<!-- Title: sqlite3.h Pages: 1 -->
<svg width="304pt" height="212pt"
 viewBox="0.00 0.00 304.00 212.00" xmlns="http://www.w3.org/2000/svg" xmlns:xlink="http://www.w3.org/1999/xlink">
<g id="graph0" class="graph" transform="scale(1 1) rotate(0) translate(4 208)">
<title>sqlite3.h</title>
<polygon fill="white" stroke="none" points="-4,4 -4,-208 300,-208 300,4 -4,4"/>
<!-- Node0 -->
<g id="node1" class="node"><title>Node0</title>
<g id="a_node1"><a xlink:title=" ">
<polygon fill="#bfbfbf" stroke="black" points="183,-111 130,-111 130,-92 183,-92 183,-111"/>
<text text-anchor="middle" x="156.5" y="-99" font-family="Helvetica,sans-Serif" font-size="10.00">sqlite3.h</text>
</a>
</g>
</g>
<!-- Node4 -->
<g id="node2" class="node"><title>Node4</title>
<g id="a_node2"><a xlink:href="group__console__h.html" target="_top" xlink:title=" ">
<polygon fill="white" stroke="black" points="294.5,-204 234.5,-204 234.5,-185 294.5,-185 294.5,-204"/>
<text text-anchor="middle" x="264.5" y="-192" font-family="Helvetica,sans-Serif" font-size="10.00">Console.h</text>
</a>
</g>
</g>
<!-- Node0&#45;&gt;Node4 -->
<g id="edge4" class="edge"><title>Node0&#45;&gt;Node4</title>
<path fill="none" stroke="blueviolet" stroke-dasharray="5,2" d="M165.52,-111.234C178.5,-126.551 205.451,-156.582 233,-176.5 237.086,-179.454 241.683,-182.362 246.046,-184.951"/>
<text text-anchor="middle" x="208" y="-164.5" font-family="Helvetica,sans-Serif" font-size="10.00">BR</text>
</g>
<!-- Node5 -->
<g id="node4" class="node"><title>Node5</title>
<g id="a_node4"><a xlink:href="group__regex__h.html" target="_top" xlink:title=" ">
<polygon fill="white" stroke="black" points="291,-167 238,-167 238,-148 291,-148 291,-167"/>
<text text-anchor="middle" x="264.5" y="-155" font-family="Helvetica,sans-Serif" font-size="10.00">Regex.h</text>
</a>
</g>
</g>
<!-- Node0&#45;&gt;Node5 -->
<g id="edge5" class="edge"><title>Node0&#45;&gt;Node5</title>
<path fill="none" stroke="blueviolet" stroke-dasharray="5,2" d="M173.892,-111.237C181.986,-115.963 191.936,-121.653 201,-126.5 214.992,-133.982 231.03,-141.924 243.356,-147.896"/>
<text text-anchor="middle" x="208" y="-136.5" font-family="Helvetica,sans-Serif" font-size="10.00">BR</text>
</g>
<!-- Node6 -->
<g id="node5" class="node"><title>Node6</title>
<g id="a_node5"><a xlink:href="group__version__h.html" target="_top" xlink:title=" ">
<polygon fill="white" stroke="black" points="293.5,-130 235.5,-130 235.5,-111 293.5,-111 293.5,-130"/>
<text text-anchor="middle" x="264.5" y="-118" font-family="Helvetica,sans-Serif" font-size="10.00">Version.h</text>
</a>
</g>
</g>
<!-- Node0&#45;&gt;Node6 -->
<g id="edge6" class="edge"><title>Node0&#45;&gt;Node6</title>
<path fill="none" stroke="blueviolet" stroke-dasharray="5,2" d="M183.16,-106.099C198.968,-108.933 219.244,-112.567 235.472,-115.476"/>
<text text-anchor="middle" x="208" y="-114.5" font-family="Helvetica,sans-Serif" font-size="10.00">BR</text>
</g>
<!-- Node2 -->
<g id="node6" class="node"><title>Node2</title>
<g id="a_node6"><a xlink:href="group__code__h.html" target="_top" xlink:title=" ">
<polygon fill="white" stroke="black" points="288,-93 241,-93 241,-74 288,-74 288,-93"/>
<text text-anchor="middle" x="264.5" y="-81" font-family="Helvetica,sans-Serif" font-size="10.00">Code.h</text>
</a>
</g>
</g>
<!-- Node0&#45;&gt;Node2 -->
<g id="edge2" class="edge"><title>Node0&#45;&gt;Node2</title>
<path fill="none" stroke="blueviolet" stroke-dasharray="5,2" d="M183.451,-91.9937C189.164,-90.227 195.232,-88.5952 201,-87.5 214.032,-85.0255 228.837,-84.0011 240.766,-83.6066"/>
<text text-anchor="middle" x="208" y="-90.5" font-family="Helvetica,sans-Serif" font-size="10.00">BR</text>
</g>
<!-- Node7 -->
<g id="node7" class="node"><title>Node7</title>
<g id="a_node7"><a xlink:href="group__openmp__h.html" target="_top" xlink:title=" ">
<polygon fill="white" stroke="black" points="296,-56 233,-56 233,-37 296,-37 296,-56"/>
<text text-anchor="middle" x="264.5" y="-44" font-family="Helvetica,sans-Serif" font-size="10.00">OpenMP.h</text>
</a>
</g>
</g>
<!-- Node0&#45;&gt;Node7 -->
<g id="edge7" class="edge"><title>Node0&#45;&gt;Node7</title>
<path fill="none" stroke="blueviolet" stroke-dasharray="5,2" d="M169.155,-91.9574C177.625,-85.3386 189.562,-76.6433 201,-70.5 211.444,-64.8901 223.488,-59.9405 234.198,-56.0157"/>
<text text-anchor="middle" x="208" y="-73.5" font-family="Helvetica,sans-Serif" font-size="10.00">BR</text>
</g>
<!-- Node3 -->
<g id="node8" class="node"><title>Node3</title>
<g id="a_node8"><a xlink:href="group__connect__h.html" target="_top" xlink:title=" ">
<polygon fill="white" stroke="black" points="295,-19 234,-19 234,-0 295,-0 295,-19"/>
<text text-anchor="middle" x="264.5" y="-7" font-family="Helvetica,sans-Serif" font-size="10.00">Connect.h</text>
</a>
</g>
</g>
<!-- Node0&#45;&gt;Node3 -->
<g id="edge3" class="edge"><title>Node0&#45;&gt;Node3</title>
<path fill="none" stroke="blueviolet" stroke-dasharray="5,2" d="M164.49,-91.6134C172.548,-80.6098 186.548,-62.6489 201,-49.5 213.766,-37.885 218.448,-36.7804 233,-27.5 237.458,-24.6567 242.363,-21.6924 246.911,-19.0092"/>
<text text-anchor="middle" x="208" y="-52.5" font-family="Helvetica,sans-Serif" font-size="10.00">BR</text>
</g>
<!-- Node1 -->
<g id="node3" class="node"><title>Node1</title>
<g id="a_node3"><a xlink:href="group__battleship-royale.html" target="_top" xlink:title="Общие файлы">
<polygon fill="white" stroke="black" points="93,-111 0,-111 0,-92 93,-92 93,-111"/>
<text text-anchor="middle" x="46.5" y="-99" font-family="Helvetica,sans-Serif" font-size="10.00">Battleship&#45;Royale</text>
</a>
</g>
</g>
<!-- Node1&#45;&gt;Node0 -->
<g id="edge1" class="edge"><title>Node1&#45;&gt;Node0</title>
<path fill="none" stroke="black" d="M103.364,-101.5C112.659,-101.5 121.881,-101.5 129.925,-101.5"/>
<polygon fill="black" stroke="black" points="103.302,-98.0001 93.3017,-101.5 103.302,-105 103.302,-98.0001"/>
</g>
</g>
</svg>
