<?xml version="1.0" encoding="UTF-8" standalone="no"?>
<!DOCTYPE svg PUBLIC "-//W3C//DTD SVG 1.1//EN"
 "http://www.w3.org/Graphics/SVG/1.1/DTD/svg11.dtd">
<!-- Generated by graphviz version 2.38.0 (20140413.2041)
 -->
<!-- Title: Console.h Pages: 1 -->
<svg width="311pt" height="212pt"
 viewBox="0.00 0.00 311.00 212.00" xmlns="http://www.w3.org/2000/svg" xmlns:xlink="http://www.w3.org/1999/xlink">
<g id="graph0" class="graph" transform="scale(1 1) rotate(0) translate(4 208)">
<title>Console.h</title>
<polygon fill="white" stroke="none" points="-4,4 -4,-208 307,-208 307,4 -4,4"/>
<!-- Node6 -->
<g id="node1" class="node"><title>Node6</title>
<g id="a_node1"><a xlink:href="group__sqlite3__h.html" target="_top" xlink:title=" ">
<polygon fill="white" stroke="black" points="298,-204 245,-204 245,-185 298,-185 298,-204"/>
<text text-anchor="middle" x="271.5" y="-192" font-family="Helvetica,sans-Serif" font-size="10.00">sqlite3.h</text>
</a>
</g>
</g>
<!-- Node2 -->
<g id="node2" class="node"><title>Node2</title>
<g id="a_node2"><a xlink:href="group__server.html" target="_top" xlink:title="Сервер">
<polygon fill="white" stroke="black" points="68.5,-130 24.5,-130 24.5,-111 68.5,-111 68.5,-130"/>
<text text-anchor="middle" x="46.5" y="-118" font-family="Helvetica,sans-Serif" font-size="10.00">Server</text>
</a>
</g>
</g>
<!-- Node0 -->
<g id="node3" class="node"><title>Node0</title>
<g id="a_node3"><a xlink:title=" ">
<polygon fill="#bfbfbf" stroke="black" points="190,-111 130,-111 130,-92 190,-92 190,-111"/>
<text text-anchor="middle" x="160" y="-99" font-family="Helvetica,sans-Serif" font-size="10.00">Console.h</text>
</a>
</g>
</g>
<!-- Node2&#45;&gt;Node0 -->
<g id="edge2" class="edge"><title>Node2&#45;&gt;Node0</title>
<path fill="none" stroke="black" d="M78.7023,-115.183C94.7236,-112.453 114.124,-109.147 129.842,-106.469"/>
<polygon fill="black" stroke="black" points="78.0047,-111.751 68.7347,-116.882 79.1806,-118.652 78.0047,-111.751"/>
</g>
<!-- Node0&#45;&gt;Node6 -->
<g id="edge6" class="edge"><title>Node0&#45;&gt;Node6</title>
<path fill="none" stroke="blueviolet" stroke-dasharray="5,2" d="M169.583,-111.064C183.427,-126.149 211.979,-155.867 240,-176.5 243.961,-179.417 248.425,-182.268 252.69,-184.81"/>
<text text-anchor="middle" x="215" y="-164.5" font-family="Helvetica,sans-Serif" font-size="10.00">BR</text>
</g>
<!-- Node5 -->
<g id="node5" class="node"><title>Node5</title>
<g id="a_node5"><a xlink:href="group__regex__h.html" target="_top" xlink:title=" ">
<polygon fill="white" stroke="black" points="298,-167 245,-167 245,-148 298,-148 298,-167"/>
<text text-anchor="middle" x="271.5" y="-155" font-family="Helvetica,sans-Serif" font-size="10.00">Regex.h</text>
</a>
</g>
</g>
<!-- Node0&#45;&gt;Node5 -->
<g id="edge5" class="edge"><title>Node0&#45;&gt;Node5</title>
<path fill="none" stroke="blueviolet" stroke-dasharray="5,2" d="M178.792,-111.117C187.556,-115.815 198.3,-121.516 208,-126.5 222.221,-133.807 238.393,-141.821 250.724,-147.869"/>
<text text-anchor="middle" x="215" y="-135.5" font-family="Helvetica,sans-Serif" font-size="10.00">BR</text>
</g>
<!-- Node7 -->
<g id="node6" class="node"><title>Node7</title>
<g id="a_node6"><a xlink:href="group__version__h.html" target="_top" xlink:title=" ">
<polygon fill="white" stroke="black" points="300.5,-130 242.5,-130 242.5,-111 300.5,-111 300.5,-130"/>
<text text-anchor="middle" x="271.5" y="-118" font-family="Helvetica,sans-Serif" font-size="10.00">Version.h</text>
</a>
</g>
</g>
<!-- Node0&#45;&gt;Node7 -->
<g id="edge7" class="edge"><title>Node0&#45;&gt;Node7</title>
<path fill="none" stroke="blueviolet" stroke-dasharray="5,2" d="M190.057,-106.542C206.276,-109.356 226.387,-112.846 242.443,-115.632"/>
<text text-anchor="middle" x="215" y="-114.5" font-family="Helvetica,sans-Serif" font-size="10.00">BR</text>
</g>
<!-- Node3 -->
<g id="node7" class="node"><title>Node3</title>
<g id="a_node7"><a xlink:href="group__code__h.html" target="_top" xlink:title=" ">
<polygon fill="white" stroke="black" points="295,-93 248,-93 248,-74 295,-74 295,-93"/>
<text text-anchor="middle" x="271.5" y="-81" font-family="Helvetica,sans-Serif" font-size="10.00">Code.h</text>
</a>
</g>
</g>
<!-- Node0&#45;&gt;Node3 -->
<g id="edge3" class="edge"><title>Node0&#45;&gt;Node3</title>
<path fill="none" stroke="blueviolet" stroke-dasharray="5,2" d="M189.585,-91.8694C195.607,-90.1565 201.965,-88.5776 208,-87.5 221.058,-85.1682 235.865,-84.1504 247.788,-83.7238"/>
<text text-anchor="middle" x="215" y="-90.5" font-family="Helvetica,sans-Serif" font-size="10.00">BR</text>
</g>
<!-- Node8 -->
<g id="node8" class="node"><title>Node8</title>
<g id="a_node8"><a xlink:href="group__openmp__h.html" target="_top" xlink:title=" ">
<polygon fill="white" stroke="black" points="303,-56 240,-56 240,-37 303,-37 303,-56"/>
<text text-anchor="middle" x="271.5" y="-44" font-family="Helvetica,sans-Serif" font-size="10.00">OpenMP.h</text>
</a>
</g>
</g>
<!-- Node0&#45;&gt;Node8 -->
<g id="edge8" class="edge"><title>Node0&#45;&gt;Node8</title>
<path fill="none" stroke="blueviolet" stroke-dasharray="5,2" d="M174.105,-91.7438C183.283,-85.1938 196.003,-76.6674 208,-70.5 218.647,-65.0263 230.844,-60.0721 241.621,-56.1054"/>
<text text-anchor="middle" x="215" y="-73.5" font-family="Helvetica,sans-Serif" font-size="10.00">BR</text>
</g>
<!-- Node4 -->
<g id="node9" class="node"><title>Node4</title>
<g id="a_node9"><a xlink:href="group__connect__h.html" target="_top" xlink:title=" ">
<polygon fill="white" stroke="black" points="302,-19 241,-19 241,-0 302,-0 302,-19"/>
<text text-anchor="middle" x="271.5" y="-7" font-family="Helvetica,sans-Serif" font-size="10.00">Connect.h</text>
</a>
</g>
</g>
<!-- Node0&#45;&gt;Node4 -->
<g id="edge4" class="edge"><title>Node0&#45;&gt;Node4</title>
<path fill="none" stroke="blueviolet" stroke-dasharray="5,2" d="M168.707,-91.6716C177.551,-80.7201 192.801,-62.8057 208,-49.5 220.986,-38.1316 225.448,-36.7804 240,-27.5 244.458,-24.6567 249.363,-21.6924 253.911,-19.0092"/>
<text text-anchor="middle" x="215" y="-52.5" font-family="Helvetica,sans-Serif" font-size="10.00">BR</text>
</g>
<!-- Node1 -->
<g id="node4" class="node"><title>Node1</title>
<g id="a_node4"><a xlink:href="group__battleship-royale.html" target="_top" xlink:title="Общие файлы">
<polygon fill="white" stroke="black" points="93,-93 0,-93 0,-74 93,-74 93,-93"/>
<text text-anchor="middle" x="46.5" y="-81" font-family="Helvetica,sans-Serif" font-size="10.00">Battleship&#45;Royale</text>
</a>
</g>
</g>
<!-- Node1&#45;&gt;Node0 -->
<g id="edge1" class="edge"><title>Node1&#45;&gt;Node0</title>
<path fill="none" stroke="black" d="M103.143,-92.4827C112.377,-93.9734 121.614,-95.4646 129.842,-96.7929"/>
<polygon fill="black" stroke="black" points="103.603,-89.0118 93.173,-90.8732 102.487,-95.9223 103.603,-89.0118"/>
</g>
</g>
</svg>
