<?xml version="1.0" encoding="UTF-8" standalone="no"?>
<!DOCTYPE svg PUBLIC "-//W3C//DTD SVG 1.1//EN"
 "http://www.w3.org/Graphics/SVG/1.1/DTD/svg11.dtd">
<!-- Generated by graphviz version 2.38.0 (20140413.2041)
 -->
<!-- Title: Battleship&#45;Royale Pages: 1 -->
<svg width="233pt" height="360pt"
 viewBox="0.00 0.00 233.00 360.00" xmlns="http://www.w3.org/2000/svg" xmlns:xlink="http://www.w3.org/1999/xlink">
<g id="graph0" class="graph" transform="scale(1 1) rotate(0) translate(4 356)">
<title>Battleship&#45;Royale</title>
<polygon fill="white" stroke="none" points="-4,4 -4,-356 229,-356 229,4 -4,4"/>
<!-- Node5 -->
<g id="node1" class="node"><title>Node5</title>
<g id="a_node1"><a xlink:href="group__sqlite3__h.html" target="_top" xlink:title=" ">
<polygon fill="white" stroke="black" points="203.5,-352 150.5,-352 150.5,-333 203.5,-333 203.5,-352"/>
<text text-anchor="middle" x="177" y="-340" font-family="Helvetica,sans-Serif" font-size="10.00">sqlite3.h</text>
</a>
</g>
</g>
<!-- Node3 -->
<g id="node2" class="node"><title>Node3</title>
<g id="a_node2"><a xlink:href="group__console__h.html" target="_top" xlink:title=" ">
<polygon fill="white" stroke="black" points="207,-315 147,-315 147,-296 207,-296 207,-315"/>
<text text-anchor="middle" x="177" y="-303" font-family="Helvetica,sans-Serif" font-size="10.00">Console.h</text>
</a>
</g>
</g>
<!-- Node10 -->
<g id="node3" class="node"><title>Node10</title>
<g id="a_node3"><a xlink:href="group__check__h.html" target="_top" xlink:title=" ">
<polygon fill="white" stroke="black" points="203.5,-278 150.5,-278 150.5,-259 203.5,-259 203.5,-278"/>
<text text-anchor="middle" x="177" y="-266" font-family="Helvetica,sans-Serif" font-size="10.00">Check.h</text>
</a>
</g>
</g>
<!-- Node0 -->
<g id="node4" class="node"><title>Node0</title>
<g id="a_node4"><a xlink:title="Общие файлы">
<polygon fill="#bfbfbf" stroke="black" points="93,-185 0,-185 0,-166 93,-166 93,-185"/>
<text text-anchor="middle" x="46.5" y="-173" font-family="Helvetica,sans-Serif" font-size="10.00">Battleship&#45;Royale</text>
</a>
</g>
</g>
<!-- Node0&#45;&gt;Node5 -->
<g id="edge5" class="edge"><title>Node0&#45;&gt;Node5</title>
<path fill="none" stroke="black" d="M53.3219,-195.159C63.6073,-226.67 87.8825,-288.582 129,-324.5 135.054,-329.789 142.827,-333.601 150.301,-336.314"/>
<polygon fill="black" stroke="black" points="56.5871,-193.874 50.2625,-185.374 49.906,-195.962 56.5871,-193.874"/>
</g>
<!-- Node0&#45;&gt;Node3 -->
<g id="edge3" class="edge"><title>Node0&#45;&gt;Node3</title>
<path fill="none" stroke="black" d="M56.6079,-194.027C69.5447,-218.583 95.4445,-261.792 129,-287.5 134.271,-291.539 140.555,-294.766 146.786,-297.307"/>
<polygon fill="black" stroke="black" points="59.6797,-192.347 52.0128,-185.034 53.4463,-195.532 59.6797,-192.347"/>
</g>
<!-- Node0&#45;&gt;Node10 -->
<g id="edge10" class="edge"><title>Node0&#45;&gt;Node10</title>
<path fill="none" stroke="black" d="M62.7193,-192.898C78.0598,-209.555 103.112,-234.456 129,-250.5 135.536,-254.551 143.132,-257.943 150.287,-260.652"/>
<polygon fill="black" stroke="black" points="64.9237,-190.116 55.6294,-185.03 59.7234,-194.802 64.9237,-190.116"/>
</g>
<!-- Node4 -->
<g id="node5" class="node"><title>Node4</title>
<g id="a_node5"><a xlink:href="group__regex__h.html" target="_top" xlink:title=" ">
<polygon fill="white" stroke="black" points="203.5,-241 150.5,-241 150.5,-222 203.5,-222 203.5,-241"/>
<text text-anchor="middle" x="177" y="-229" font-family="Helvetica,sans-Serif" font-size="10.00">Regex.h</text>
</a>
</g>
</g>
<!-- Node0&#45;&gt;Node4 -->
<g id="edge4" class="edge"><title>Node0&#45;&gt;Node4</title>
<path fill="none" stroke="black" d="M76.1736,-189.473C91.6922,-196.881 111.265,-205.98 129,-213.5 135.757,-216.365 143.14,-219.288 150.011,-221.922"/>
<polygon fill="black" stroke="black" points="77.6171,-186.283 67.0877,-185.107 74.5856,-192.593 77.6171,-186.283"/>
</g>
<!-- Node6 -->
<g id="node6" class="node"><title>Node6</title>
<g id="a_node6"><a xlink:href="group__version__h.html" target="_top" xlink:title=" ">
<polygon fill="white" stroke="black" points="206,-204 148,-204 148,-185 206,-185 206,-204"/>
<text text-anchor="middle" x="177" y="-192" font-family="Helvetica,sans-Serif" font-size="10.00">Version.h</text>
</a>
</g>
</g>
<!-- Node0&#45;&gt;Node6 -->
<g id="edge6" class="edge"><title>Node0&#45;&gt;Node6</title>
<path fill="none" stroke="black" d="M103.138,-183.727C118.517,-186.001 134.567,-188.374 147.676,-190.312"/>
<polygon fill="black" stroke="black" points="103.571,-180.253 93.1661,-182.252 102.547,-187.177 103.571,-180.253"/>
</g>
<!-- Node1 -->
<g id="node7" class="node"><title>Node1</title>
<g id="a_node7"><a xlink:href="group__code__h.html" target="_top" xlink:title=" ">
<polygon fill="white" stroke="black" points="200.5,-167 153.5,-167 153.5,-148 200.5,-148 200.5,-167"/>
<text text-anchor="middle" x="177" y="-155" font-family="Helvetica,sans-Serif" font-size="10.00">Code.h</text>
</a>
</g>
</g>
<!-- Node0&#45;&gt;Node1 -->
<g id="edge1" class="edge"><title>Node0&#45;&gt;Node1</title>
<path fill="none" stroke="black" d="M103.358,-167.676C120.903,-165.218 139.297,-162.641 153.186,-160.696"/>
<polygon fill="black" stroke="black" points="102.584,-164.25 93.1661,-169.103 103.555,-171.182 102.584,-164.25"/>
</g>
<!-- Node9 -->
<g id="node8" class="node"><title>Node9</title>
<g id="a_node8"><a xlink:href="group__openmp__h.html" target="_top" xlink:title=" ">
<polygon fill="white" stroke="black" points="208.5,-130 145.5,-130 145.5,-111 208.5,-111 208.5,-130"/>
<text text-anchor="middle" x="177" y="-118" font-family="Helvetica,sans-Serif" font-size="10.00">OpenMP.h</text>
</a>
</g>
</g>
<!-- Node0&#45;&gt;Node9 -->
<g id="edge9" class="edge"><title>Node0&#45;&gt;Node9</title>
<path fill="none" stroke="black" d="M77.9956,-161.755C93.261,-154.944 112.054,-146.666 129,-139.5 136.458,-136.346 144.625,-133.006 152.029,-130.019"/>
<polygon fill="black" stroke="black" points="76.2262,-158.712 68.5283,-165.992 79.0857,-165.101 76.2262,-158.712"/>
</g>
<!-- Node7 -->
<g id="node9" class="node"><title>Node7</title>
<g id="a_node9"><a xlink:href="group__battleshiproyale.html" target="_top" xlink:title=" ">
<polygon fill="white" stroke="black" points="225,-93 129,-93 129,-74 225,-74 225,-93"/>
<text text-anchor="middle" x="177" y="-81" font-family="Helvetica,sans-Serif" font-size="10.00">BattleShiproyale.h</text>
</a>
</g>
</g>
<!-- Node0&#45;&gt;Node7 -->
<g id="edge7" class="edge"><title>Node0&#45;&gt;Node7</title>
<path fill="none" stroke="black" d="M63.3755,-158.172C78.8702,-142.061 103.74,-118.242 129,-102.5 134.826,-98.8691 141.465,-95.687 147.881,-93.0171"/>
<polygon fill="black" stroke="black" points="60.4871,-156.134 56.1749,-165.812 65.5809,-160.935 60.4871,-156.134"/>
</g>
<!-- Node2 -->
<g id="node10" class="node"><title>Node2</title>
<g id="a_node10"><a xlink:href="group__connect__h.html" target="_top" xlink:title=" ">
<polygon fill="white" stroke="black" points="207.5,-56 146.5,-56 146.5,-37 207.5,-37 207.5,-56"/>
<text text-anchor="middle" x="177" y="-44" font-family="Helvetica,sans-Serif" font-size="10.00">Connect.h</text>
</a>
</g>
</g>
<!-- Node0&#45;&gt;Node2 -->
<g id="edge2" class="edge"><title>Node0&#45;&gt;Node2</title>
<path fill="none" stroke="black" d="M56.9574,-157.037C70.129,-132.966 96.1254,-90.9433 129,-65.5 134.151,-61.5137 140.251,-58.2445 146.321,-55.6107"/>
<polygon fill="black" stroke="black" points="53.8633,-155.401 52.259,-165.874 60.044,-158.687 53.8633,-155.401"/>
</g>
<!-- Node8 -->
<g id="node11" class="node"><title>Node8</title>
<g id="a_node11"><a xlink:href="group__openmp__cpp.html" target="_top" xlink:title=" ">
<polygon fill="white" stroke="black" points="214,-19 140,-19 140,-0 214,-0 214,-19"/>
<text text-anchor="middle" x="177" y="-7" font-family="Helvetica,sans-Serif" font-size="10.00">OpenMP.cpp</text>
</a>
</g>
</g>
<!-- Node0&#45;&gt;Node8 -->
<g id="edge8" class="edge"><title>Node0&#45;&gt;Node8</title>
<path fill="none" stroke="black" d="M53.4714,-156.19C63.9675,-125.222 88.5334,-64.3058 129,-28.5 133.35,-24.6507 138.581,-21.5233 143.95,-19.0015"/>
<polygon fill="black" stroke="black" points="50.1089,-155.212 50.3425,-165.804 56.7653,-157.378 50.1089,-155.212"/>
</g>
</g>
</svg>
