<?xml version="1.0" encoding="UTF-8" standalone="no"?>
<!DOCTYPE svg PUBLIC "-//W3C//DTD SVG 1.1//EN"
 "http://www.w3.org/Graphics/SVG/1.1/DTD/svg11.dtd">
<!-- Generated by graphviz version 2.38.0 (20140413.2041)
 -->
<!-- Title: mem.cpp Pages: 1 -->
<svg width="309pt" height="84pt"
 viewBox="0.00 0.00 309.00 84.00" xmlns="http://www.w3.org/2000/svg" xmlns:xlink="http://www.w3.org/1999/xlink">
<g id="graph0" class="graph" transform="scale(1 1) rotate(0) translate(4 80)">
<title>mem.cpp</title>
<polygon fill="white" stroke="none" points="-4,4 -4,-80 305,-80 305,4 -4,4"/>
<!-- Node0 -->
<g id="node1" class="node"><title>Node0</title>
<g id="a_node1"><a xlink:title=" ">
<polygon fill="#bfbfbf" stroke="black" points="96.5,-56.5 96.5,-75.5 153.5,-75.5 153.5,-56.5 96.5,-56.5"/>
<text text-anchor="middle" x="125" y="-63.5" font-family="Helvetica,sans-Serif" font-size="10.00">mem.cpp</text>
</a>
</g>
</g>
<!-- Node1 -->
<g id="node2" class="node"><title>Node1</title>
<g id="a_node2"><a xlink:title=" ">
<polygon fill="white" stroke="#bfbfbf" points="0,-0.5 0,-19.5 54,-19.5 54,-0.5 0,-0.5"/>
<text text-anchor="middle" x="27" y="-7.5" font-family="Helvetica,sans-Serif" font-size="10.00">iostream</text>
</a>
</g>
</g>
<!-- Node0&#45;&gt;Node1 -->
<g id="edge1" class="edge"><title>Node0&#45;&gt;Node1</title>
<path fill="none" stroke="midnightblue" d="M109.255,-56.324C93.6813,-47.7428 69.6227,-34.486 51.5407,-24.5224"/>
<polygon fill="midnightblue" stroke="midnightblue" points="53.1539,-21.4152 42.7063,-19.6545 49.7756,-27.546 53.1539,-21.4152"/>
</g>
<!-- Node2 -->
<g id="node3" class="node"><title>Node2</title>
<g id="a_node3"><a xlink:title=" ">
<polygon fill="white" stroke="#bfbfbf" points="72.5,-0.5 72.5,-19.5 113.5,-19.5 113.5,-0.5 72.5,-0.5"/>
<text text-anchor="middle" x="93" y="-7.5" font-family="Helvetica,sans-Serif" font-size="10.00">string</text>
</a>
</g>
</g>
<!-- Node0&#45;&gt;Node2 -->
<g id="edge2" class="edge"><title>Node0&#45;&gt;Node2</title>
<path fill="none" stroke="midnightblue" d="M119.716,-56.083C115.289,-48.6127 108.837,-37.7244 103.382,-28.5199"/>
<polygon fill="midnightblue" stroke="midnightblue" points="106.295,-26.5697 98.1858,-19.7511 100.273,-30.1383 106.295,-26.5697"/>
</g>
<!-- Node3 -->
<g id="node4" class="node"><title>Node3</title>
<g id="a_node4"><a xlink:title=" ">
<polygon fill="white" stroke="#bfbfbf" points="131.5,-0.5 131.5,-19.5 184.5,-19.5 184.5,-0.5 131.5,-0.5"/>
<text text-anchor="middle" x="158" y="-7.5" font-family="Helvetica,sans-Serif" font-size="10.00">sqlite3.h</text>
</a>
</g>
</g>
<!-- Node0&#45;&gt;Node3 -->
<g id="edge3" class="edge"><title>Node0&#45;&gt;Node3</title>
<path fill="none" stroke="midnightblue" d="M130.449,-56.083C135.014,-48.6127 141.668,-37.7244 147.293,-28.5199"/>
<polygon fill="midnightblue" stroke="midnightblue" points="150.424,-30.109 152.652,-19.7511 144.451,-26.4588 150.424,-30.109"/>
</g>
<!-- Node4 -->
<g id="node5" class="node"><title>Node4</title>
<g id="a_node5"><a xlink:href="_battleship_royale_8h.html" target="_top" xlink:title="Заголовочный файл с пространством имён, которое хранит в себе константы.">
<polygon fill="white" stroke="black" points="203,-0.5 203,-19.5 301,-19.5 301,-0.5 203,-0.5"/>
<text text-anchor="middle" x="252" y="-7.5" font-family="Helvetica,sans-Serif" font-size="10.00">BattleshipRoyale.h</text>
</a>
</g>
</g>
<!-- Node0&#45;&gt;Node4 -->
<g id="edge4" class="edge"><title>Node0&#45;&gt;Node4</title>
<path fill="none" stroke="midnightblue" d="M145.124,-56.4435C166.024,-47.5566 198.935,-33.5632 222.716,-23.4514"/>
<polygon fill="midnightblue" stroke="midnightblue" points="224.138,-26.6504 231.971,-19.5164 221.398,-20.2085 224.138,-26.6504"/>
</g>
</g>
</svg>
