<?xml version="1.0" encoding="UTF-8" standalone="no"?>
<!DOCTYPE svg PUBLIC "-//W3C//DTD SVG 1.1//EN"
 "http://www.w3.org/Graphics/SVG/1.1/DTD/svg11.dtd">
<!-- Generated by graphviz version 2.38.0 (20140413.2041)
 -->
<!-- Title: src/testing/memorydb/mem.cpp Pages: 1 -->
<svg width="309pt" height="95pt"
 viewBox="0.00 0.00 309.00 95.00" xmlns="http://www.w3.org/2000/svg" xmlns:xlink="http://www.w3.org/1999/xlink">
<g id="graph0" class="graph" transform="scale(1 1) rotate(0) translate(4 91)">
<title>src/testing/memorydb/mem.cpp</title>
<polygon fill="white" stroke="none" points="-4,4 -4,-91 305,-91 305,4 -4,4"/>
<!-- Node0 -->
<g id="node1" class="node"><title>Node0</title>
<g id="a_node1"><a xlink:title=" ">
<polygon fill="#bfbfbf" stroke="black" points="69.5,-56.5 69.5,-86.5 180.5,-86.5 180.5,-56.5 69.5,-56.5"/>
<text text-anchor="start" x="77.5" y="-74.5" font-family="Helvetica,sans-Serif" font-size="10.00">src/testing/memorydb</text>
<text text-anchor="middle" x="125" y="-63.5" font-family="Helvetica,sans-Serif" font-size="10.00">/mem.cpp</text>
</a>
</g>
</g>
<!-- Node1 -->
<g id="node2" class="node"><title>Node1</title>
<g id="a_node2"><a xlink:title=" ">
<polygon fill="white" stroke="#bfbfbf" points="0,-0.5 0,-19.5 54,-19.5 54,-0.5 0,-0.5"/>
<text text-anchor="middle" x="27" y="-7.5" font-family="Helvetica,sans-Serif" font-size="10.00">iostream</text>
</a>
</g>
</g>
<!-- Node0&#45;&gt;Node1 -->
<g id="edge1" class="edge"><title>Node0&#45;&gt;Node1</title>
<path fill="none" stroke="midnightblue" d="M101.775,-56.3993C86.2135,-46.9511 65.8028,-34.5589 50.2382,-25.1089"/>
<polygon fill="midnightblue" stroke="midnightblue" points="51.6242,-21.8558 41.2599,-19.6578 47.9913,-27.8394 51.6242,-21.8558"/>
</g>
<!-- Node2 -->
<g id="node3" class="node"><title>Node2</title>
<g id="a_node3"><a xlink:title=" ">
<polygon fill="white" stroke="#bfbfbf" points="72.5,-0.5 72.5,-19.5 113.5,-19.5 113.5,-0.5 72.5,-0.5"/>
<text text-anchor="middle" x="93" y="-7.5" font-family="Helvetica,sans-Serif" font-size="10.00">string</text>
</a>
</g>
</g>
<!-- Node0&#45;&gt;Node2 -->
<g id="edge2" class="edge"><title>Node0&#45;&gt;Node2</title>
<path fill="none" stroke="midnightblue" d="M117.416,-56.3993C112.958,-48.1098 107.281,-37.5542 102.523,-28.7077"/>
<polygon fill="midnightblue" stroke="midnightblue" points="105.475,-26.8071 97.6563,-19.6578 99.3104,-30.1227 105.475,-26.8071"/>
</g>
<!-- Node3 -->
<g id="node4" class="node"><title>Node3</title>
<g id="a_node4"><a xlink:title=" ">
<polygon fill="white" stroke="#bfbfbf" points="131.5,-0.5 131.5,-19.5 184.5,-19.5 184.5,-0.5 131.5,-0.5"/>
<text text-anchor="middle" x="158" y="-7.5" font-family="Helvetica,sans-Serif" font-size="10.00">sqlite3.h</text>
</a>
</g>
</g>
<!-- Node0&#45;&gt;Node3 -->
<g id="edge3" class="edge"><title>Node0&#45;&gt;Node3</title>
<path fill="none" stroke="midnightblue" d="M132.821,-56.3993C137.468,-48.0207 143.399,-37.3269 148.337,-28.4229"/>
<polygon fill="midnightblue" stroke="midnightblue" points="151.409,-30.1004 153.198,-19.6578 145.287,-26.7052 151.409,-30.1004"/>
</g>
<!-- Node4 -->
<g id="node5" class="node"><title>Node4</title>
<g id="a_node5"><a xlink:href="_battleship_royale_8h.html" target="_top" xlink:title="Заголовочный файл с пространством имён, которое хранит в себе константы.">
<polygon fill="white" stroke="black" points="203,-0.5 203,-19.5 301,-19.5 301,-0.5 203,-0.5"/>
<text text-anchor="middle" x="252" y="-7.5" font-family="Helvetica,sans-Serif" font-size="10.00">BattleshipRoyale.h</text>
</a>
</g>
</g>
<!-- Node0&#45;&gt;Node4 -->
<g id="edge4" class="edge"><title>Node0&#45;&gt;Node4</title>
<path fill="none" stroke="midnightblue" d="M155.097,-56.3993C176.12,-46.55 203.972,-33.5014 224.419,-23.9217"/>
<polygon fill="midnightblue" stroke="midnightblue" points="225.95,-27.0698 233.52,-19.6578 222.98,-20.7309 225.95,-27.0698"/>
</g>
</g>
</svg>
