<?xml version="1.0" encoding="UTF-8" standalone="no"?>
<!DOCTYPE svg PUBLIC "-//W3C//DTD SVG 1.1//EN"
 "http://www.w3.org/Graphics/SVG/1.1/DTD/svg11.dtd">
<!-- Generated by graphviz version 2.38.0 (20140413.2041)
 -->
<!-- Title: src/opportunity_check/memorydb/mem.cpp Pages: 1 -->
<svg width="834pt" height="151pt"
 viewBox="0.00 0.00 834.00 151.00" xmlns="http://www.w3.org/2000/svg" xmlns:xlink="http://www.w3.org/1999/xlink">
<g id="graph0" class="graph" transform="scale(1 1) rotate(0) translate(4 147)">
<title>src/opportunity_check/memorydb/mem.cpp</title>
<polygon fill="white" stroke="none" points="-4,4 -4,-147 830,-147 830,4 -4,4"/>
<!-- Node0 -->
<g id="node1" class="node"><title>Node0</title>
<g id="a_node1"><a xlink:title=" ">
<polygon fill="#bfbfbf" stroke="black" points="60.5,-112.5 60.5,-142.5 173.5,-142.5 173.5,-112.5 60.5,-112.5"/>
<text text-anchor="start" x="68.5" y="-130.5" font-family="Helvetica,sans-Serif" font-size="10.00">src/opportunity_check</text>
<text text-anchor="middle" x="117" y="-119.5" font-family="Helvetica,sans-Serif" font-size="10.00">/memorydb/mem.cpp</text>
</a>
</g>
</g>
<!-- Node1 -->
<g id="node2" class="node"><title>Node1</title>
<g id="a_node2"><a xlink:title=" ">
<polygon fill="white" stroke="#bfbfbf" points="0,-56.5 0,-75.5 54,-75.5 54,-56.5 0,-56.5"/>
<text text-anchor="middle" x="27" y="-63.5" font-family="Helvetica,sans-Serif" font-size="10.00">iostream</text>
</a>
</g>
</g>
<!-- Node0&#45;&gt;Node1 -->
<g id="edge1" class="edge"><title>Node0&#45;&gt;Node1</title>
<path fill="none" stroke="midnightblue" d="M95.6713,-112.399C81.5146,-103.04 62.9885,-90.7924 48.7469,-81.3771"/>
<polygon fill="midnightblue" stroke="midnightblue" points="50.3679,-78.2531 40.0958,-75.6578 46.5074,-84.0923 50.3679,-78.2531"/>
</g>
<!-- Node2 -->
<g id="node3" class="node"><title>Node2</title>
<g id="a_node3"><a xlink:title=" ">
<polygon fill="white" stroke="#bfbfbf" points="72.5,-56.5 72.5,-75.5 113.5,-75.5 113.5,-56.5 72.5,-56.5"/>
<text text-anchor="middle" x="93" y="-63.5" font-family="Helvetica,sans-Serif" font-size="10.00">string</text>
</a>
</g>
</g>
<!-- Node0&#45;&gt;Node2 -->
<g id="edge2" class="edge"><title>Node0&#45;&gt;Node2</title>
<path fill="none" stroke="midnightblue" d="M111.312,-112.399C108.005,-104.199 103.802,-93.7809 100.258,-84.9936"/>
<polygon fill="midnightblue" stroke="midnightblue" points="103.479,-83.6225 96.4922,-75.6578 96.9871,-86.2411 103.479,-83.6225"/>
</g>
<!-- Node3 -->
<g id="node4" class="node"><title>Node3</title>
<g id="a_node4"><a xlink:href="sqlite3_8h.html" target="_top" xlink:title="Константы для работы с базой данных sqlite3.">
<polygon fill="white" stroke="black" points="20.5,-0.5 20.5,-19.5 73.5,-19.5 73.5,-0.5 20.5,-0.5"/>
<text text-anchor="middle" x="47" y="-7.5" font-family="Helvetica,sans-Serif" font-size="10.00">sqlite3.h</text>
</a>
</g>
</g>
<!-- Node0&#45;&gt;Node3 -->
<g id="edge3" class="edge"><title>Node0&#45;&gt;Node3</title>
<path fill="none" stroke="midnightblue" d="M122.726,-112.235C127.772,-97.2199 132.916,-73.3949 123,-56 114.322,-40.776 98.2461,-30.1766 83.107,-23.1068"/>
<polygon fill="midnightblue" stroke="midnightblue" points="84.4466,-19.873 73.8764,-19.1511 81.6893,-26.3071 84.4466,-19.873"/>
</g>
<!-- Node4 -->
<g id="node5" class="node"><title>Node4</title>
<g id="a_node5"><a xlink:href="_battleship_royale_8h.html" target="_top" xlink:title="Заголовочный файл с пространством имён, которое хранит в себе константы.">
<polygon fill="white" stroke="black" points="264,-56.5 264,-75.5 362,-75.5 362,-56.5 264,-56.5"/>
<text text-anchor="middle" x="313" y="-63.5" font-family="Helvetica,sans-Serif" font-size="10.00">BattleshipRoyale.h</text>
</a>
</g>
</g>
<!-- Node0&#45;&gt;Node4 -->
<g id="edge4" class="edge"><title>Node0&#45;&gt;Node4</title>
<path fill="none" stroke="midnightblue" d="M163.449,-112.399C197.465,-102.073 243.063,-88.2309 274.933,-78.5559"/>
<polygon fill="midnightblue" stroke="midnightblue" points="276.214,-81.8249 284.766,-75.5709 274.181,-75.1267 276.214,-81.8249"/>
</g>
<!-- Node4&#45;&gt;Node3 -->
<g id="edge7" class="edge"><title>Node4&#45;&gt;Node3</title>
<path fill="none" stroke="midnightblue" d="M265.718,-56.4893C221.3,-48.3282 152.749,-35.309 83.863,-20.0982"/>
<polygon fill="midnightblue" stroke="midnightblue" points="84.2212,-16.5924 73.6999,-17.8383 82.7018,-23.4255 84.2212,-16.5924"/>
</g>
<!-- Node5 -->
<g id="node6" class="node"><title>Node5</title>
<g id="a_node6"><a xlink:href="_version_8h.html" target="_top" xlink:title="Версия программы">
<polygon fill="white" stroke="black" points="92,-0.5 92,-19.5 226,-19.5 226,-0.5 92,-0.5"/>
<text text-anchor="middle" x="159" y="-7.5" font-family="Helvetica,sans-Serif" font-size="10.00">BattleshipRoyale/Version.h</text>
</a>
</g>
</g>
<!-- Node4&#45;&gt;Node5 -->
<g id="edge5" class="edge"><title>Node4&#45;&gt;Node5</title>
<path fill="none" stroke="midnightblue" d="M288.598,-56.4435C262.803,-47.3986 221.923,-33.064 192.982,-22.9158"/>
<polygon fill="midnightblue" stroke="midnightblue" points="193.882,-19.5226 183.288,-19.5164 191.566,-26.1283 193.882,-19.5226"/>
</g>
<!-- Node6 -->
<g id="node7" class="node"><title>Node6</title>
<g id="a_node7"><a xlink:href="_connect_8h.html" target="_top" xlink:title="Константы с параметрами для подключения">
<polygon fill="white" stroke="black" points="244.5,-0.5 244.5,-19.5 381.5,-19.5 381.5,-0.5 244.5,-0.5"/>
<text text-anchor="middle" x="313" y="-7.5" font-family="Helvetica,sans-Serif" font-size="10.00">BattleshipRoyale/Connect.h</text>
</a>
</g>
</g>
<!-- Node4&#45;&gt;Node6 -->
<g id="edge6" class="edge"><title>Node4&#45;&gt;Node6</title>
<path fill="none" stroke="midnightblue" d="M313,-56.083C313,-49.0059 313,-38.8611 313,-29.9865"/>
<polygon fill="midnightblue" stroke="midnightblue" points="316.5,-29.751 313,-19.7511 309.5,-29.7511 316.5,-29.751"/>
</g>
<!-- Node7 -->
<g id="node8" class="node"><title>Node7</title>
<g id="a_node8"><a xlink:href="_battleship_royale_2_battleship_royale_2_console_8h.html" target="_top" xlink:title="Константы консоли">
<polygon fill="white" stroke="black" points="399.5,-0.5 399.5,-19.5 536.5,-19.5 536.5,-0.5 399.5,-0.5"/>
<text text-anchor="middle" x="468" y="-7.5" font-family="Helvetica,sans-Serif" font-size="10.00">BattleshipRoyale/Console.h</text>
</a>
</g>
</g>
<!-- Node4&#45;&gt;Node7 -->
<g id="edge8" class="edge"><title>Node4&#45;&gt;Node7</title>
<path fill="none" stroke="midnightblue" d="M337.56,-56.4435C363.523,-47.3986 404.668,-33.064 433.797,-22.9158"/>
<polygon fill="midnightblue" stroke="midnightblue" points="435.263,-26.1116 443.555,-19.5164 432.96,-19.5013 435.263,-26.1116"/>
</g>
<!-- Node8 -->
<g id="node9" class="node"><title>Node8</title>
<g id="a_node9"><a xlink:href="_battleship_royale_2_battleship_royale_2_regex_8h.html" target="_top" xlink:title="Константы регулярных выражений">
<polygon fill="white" stroke="black" points="554.5,-0.5 554.5,-19.5 683.5,-19.5 683.5,-0.5 554.5,-0.5"/>
<text text-anchor="middle" x="619" y="-7.5" font-family="Helvetica,sans-Serif" font-size="10.00">BattleshipRoyale/Regex.h</text>
</a>
</g>
</g>
<!-- Node4&#45;&gt;Node8 -->
<g id="edge9" class="edge"><title>Node4&#45;&gt;Node8</title>
<path fill="none" stroke="midnightblue" d="M361.487,-56.4435C415.539,-46.9049 502.928,-31.4834 560.673,-21.293"/>
<polygon fill="midnightblue" stroke="midnightblue" points="561.501,-24.7011 570.74,-19.5164 560.284,-17.8076 561.501,-24.7011"/>
</g>
<!-- Node9 -->
<g id="node10" class="node"><title>Node9</title>
<g id="a_node10"><a xlink:href="_code_8h.html" target="_top" xlink:title="Различные коды ответов">
<polygon fill="white" stroke="black" points="702,-0.5 702,-19.5 826,-19.5 826,-0.5 702,-0.5"/>
<text text-anchor="middle" x="764" y="-7.5" font-family="Helvetica,sans-Serif" font-size="10.00">BattleshipRoyale/Code.h</text>
</a>
</g>
</g>
<!-- Node4&#45;&gt;Node9 -->
<g id="edge10" class="edge"><title>Node4&#45;&gt;Node9</title>
<path fill="none" stroke="midnightblue" d="M362.206,-59.3038C432.75,-51.1084 566.991,-35.4062 691.567,-20.1678"/>
<polygon fill="midnightblue" stroke="midnightblue" points="692.165,-23.6208 701.666,-18.931 691.314,-16.6727 692.165,-23.6208"/>
</g>
</g>
</svg>
