<?xml version="1.0" encoding="UTF-8" standalone="no"?>
<!DOCTYPE svg PUBLIC "-//W3C//DTD SVG 1.1//EN"
 "http://www.w3.org/Graphics/SVG/1.1/DTD/svg11.dtd">
<!-- Generated by graphviz version 2.38.0 (20140413.2041)
 -->
<!-- Title: src/server/src/rand_sse.h Pages: 1 -->
<svg width="514pt" height="106pt"
 viewBox="0.00 0.00 514.00 106.00" xmlns="http://www.w3.org/2000/svg" xmlns:xlink="http://www.w3.org/1999/xlink">
<g id="graph0" class="graph" transform="scale(1 1) rotate(0) translate(4 102)">
<title>src/server/src/rand_sse.h</title>
<polygon fill="white" stroke="none" points="-4,4 -4,-102 510,-102 510,4 -4,4"/>
<!-- Node1 -->
<g id="node1" class="node"><title>Node1</title>
<g id="a_node1"><a xlink:title="Генерация рандомных чисел через SSE.">
<polygon fill="#bfbfbf" stroke="black" points="207,-67.5 207,-97.5 304,-97.5 304,-67.5 207,-67.5"/>
<text text-anchor="start" x="215" y="-85.5" font-family="Helvetica,sans-Serif" font-size="10.00">src/server/src/rand</text>
<text text-anchor="middle" x="255.5" y="-74.5" font-family="Helvetica,sans-Serif" font-size="10.00">_sse.h</text>
</a>
</g>
</g>
<!-- Node2 -->
<g id="node2" class="node"><title>Node2</title>
<g id="a_node2"><a xlink:href="_d_b_8cpp.html" target="_top" xlink:title="Работа с базой данных">
<polygon fill="white" stroke="black" points="0,-6 0,-25 95,-25 95,-6 0,-6"/>
<text text-anchor="middle" x="47.5" y="-13" font-family="Helvetica,sans-Serif" font-size="10.00">src/delete/DB.cpp</text>
</a>
</g>
</g>
<!-- Node1&#45;&gt;Node2 -->
<g id="edge1" class="edge"><title>Node1&#45;&gt;Node2</title>
<path fill="none" stroke="midnightblue" d="M200.875,-64.4298C160.313,-51.7542 106.702,-35.0008 74.7917,-25.0287"/>
<polygon fill="midnightblue" stroke="midnightblue" points="200.034,-67.8339 210.623,-67.476 202.122,-61.1525 200.034,-67.8339"/>
</g>
<!-- Node3 -->
<g id="node3" class="node"><title>Node3</title>
<g id="a_node3"><a xlink:href="examples_2rand__sse_8cpp.html" target="_top" xlink:title=" ">
<polygon fill="white" stroke="black" points="113,-6 113,-25 250,-25 250,-6 113,-6"/>
<text text-anchor="middle" x="181.5" y="-13" font-family="Helvetica,sans-Serif" font-size="10.00">src/examples/rand_sse.cpp</text>
</a>
</g>
</g>
<!-- Node1&#45;&gt;Node3 -->
<g id="edge2" class="edge"><title>Node1&#45;&gt;Node3</title>
<path fill="none" stroke="midnightblue" d="M231.788,-60.6722C218.125,-48.6707 201.674,-34.2203 191.398,-25.1945"/>
<polygon fill="midnightblue" stroke="midnightblue" points="229.62,-63.4261 239.443,-67.396 234.24,-58.1669 229.62,-63.4261"/>
</g>
<!-- Node4 -->
<g id="node4" class="node"><title>Node4</title>
<g id="a_node4"><a xlink:href="server_2src_2_battleship_royale_8cpp.html" target="_top" xlink:title="Сервер">
<polygon fill="white" stroke="black" points="268.5,-0.5 268.5,-30.5 390.5,-30.5 390.5,-0.5 268.5,-0.5"/>
<text text-anchor="start" x="276.5" y="-18.5" font-family="Helvetica,sans-Serif" font-size="10.00">src/server/src/Battleship</text>
<text text-anchor="middle" x="329.5" y="-7.5" font-family="Helvetica,sans-Serif" font-size="10.00">Royale.cpp</text>
</a>
</g>
</g>
<!-- Node1&#45;&gt;Node4 -->
<g id="edge3" class="edge"><title>Node1&#45;&gt;Node4</title>
<path fill="none" stroke="midnightblue" d="M279.296,-60.5978C290.47,-50.7831 303.493,-39.3442 313.474,-30.5765"/>
<polygon fill="midnightblue" stroke="midnightblue" points="276.76,-58.1669 271.557,-67.396 281.38,-63.4261 276.76,-58.1669"/>
</g>
<!-- Node5 -->
<g id="node5" class="node"><title>Node5</title>
<g id="a_node5"><a xlink:href="server_2src_2rand__sse_8cpp.html" target="_top" xlink:title="Генерация рандомных чисел через SSE.">
<polygon fill="white" stroke="black" points="409,-0.5 409,-30.5 506,-30.5 506,-0.5 409,-0.5"/>
<text text-anchor="start" x="417" y="-18.5" font-family="Helvetica,sans-Serif" font-size="10.00">src/server/src/rand</text>
<text text-anchor="middle" x="457.5" y="-7.5" font-family="Helvetica,sans-Serif" font-size="10.00">_sse.cpp</text>
</a>
</g>
</g>
<!-- Node1&#45;&gt;Node5 -->
<g id="edge4" class="edge"><title>Node1&#45;&gt;Node5</title>
<path fill="none" stroke="midnightblue" d="M309.177,-64.2278C341.853,-53.7131 383.068,-40.4508 413.755,-30.5765"/>
<polygon fill="midnightblue" stroke="midnightblue" points="307.778,-61.001 299.331,-67.396 309.922,-67.6645 307.778,-61.001"/>
</g>
</g>
</svg>
