<?xml version="1.0" encoding="UTF-8" standalone="no"?>
<!DOCTYPE svg PUBLIC "-//W3C//DTD SVG 1.1//EN"
 "http://www.w3.org/Graphics/SVG/1.1/DTD/svg11.dtd">
<!-- Generated by graphviz version 2.38.0 (20140413.2041)
 -->
<!-- Title: src/server/src/Server.h Pages: 1 -->
<svg width="414pt" height="95pt"
 viewBox="0.00 0.00 414.00 95.00" xmlns="http://www.w3.org/2000/svg" xmlns:xlink="http://www.w3.org/1999/xlink">
<g id="graph0" class="graph" transform="scale(1 1) rotate(0) translate(4 91)">
<title>src/server/src/Server.h</title>
<polygon fill="white" stroke="none" points="-4,4 -4,-91 410,-91 410,4 -4,4"/>
<!-- Node15 -->
<g id="node1" class="node"><title>Node15</title>
<g id="a_node1"><a xlink:title="Асинхронный сервер написанный на boost asio.">
<polygon fill="#bfbfbf" stroke="black" points="146.5,-67.5 146.5,-86.5 259.5,-86.5 259.5,-67.5 146.5,-67.5"/>
<text text-anchor="middle" x="203" y="-74.5" font-family="Helvetica,sans-Serif" font-size="10.00">src/server/src/Server.h</text>
</a>
</g>
</g>
<!-- Node16 -->
<g id="node2" class="node"><title>Node16</title>
<g id="a_node2"><a xlink:href="examples_2_server_8cpp.html" target="_top" xlink:title=" ">
<polygon fill="white" stroke="black" points="0,-6 0,-25 124,-25 124,-6 0,-6"/>
<text text-anchor="middle" x="62" y="-13" font-family="Helvetica,sans-Serif" font-size="10.00">src/examples/Server.cpp</text>
</a>
</g>
</g>
<!-- Node15&#45;&gt;Node16 -->
<g id="edge1" class="edge"><title>Node15&#45;&gt;Node16</title>
<path fill="none" stroke="midnightblue" d="M173.33,-63.4795C145.945,-51.9238 106.02,-35.0758 82.1644,-25.0091"/>
<polygon fill="midnightblue" stroke="midnightblue" points="172.224,-66.8118 182.798,-67.4751 174.946,-60.3625 172.224,-66.8118"/>
</g>
<!-- Node17 -->
<g id="node3" class="node"><title>Node17</title>
<g id="a_node3"><a xlink:href="server_2src_2_battleship_royale_8cpp.html" target="_top" xlink:title="Сервер">
<polygon fill="white" stroke="black" points="142,-0.5 142,-30.5 264,-30.5 264,-0.5 142,-0.5"/>
<text text-anchor="start" x="150" y="-18.5" font-family="Helvetica,sans-Serif" font-size="10.00">src/server/src/Battleship</text>
<text text-anchor="middle" x="203" y="-7.5" font-family="Helvetica,sans-Serif" font-size="10.00">Royale.cpp</text>
</a>
</g>
</g>
<!-- Node15&#45;&gt;Node17 -->
<g id="edge2" class="edge"><title>Node15&#45;&gt;Node17</title>
<path fill="none" stroke="midnightblue" d="M203,-57.2349C203,-48.5864 203,-38.4969 203,-30.523"/>
<polygon fill="midnightblue" stroke="midnightblue" points="199.5,-57.4751 203,-67.4751 206.5,-57.4751 199.5,-57.4751"/>
</g>
<!-- Node18 -->
<g id="node4" class="node"><title>Node18</title>
<g id="a_node4"><a xlink:href="server_2src_2_server_8cpp.html" target="_top" xlink:title="Асинхронный сервер написанный на boost asio.">
<polygon fill="white" stroke="black" points="282,-6 282,-25 406,-25 406,-6 282,-6"/>
<text text-anchor="middle" x="344" y="-13" font-family="Helvetica,sans-Serif" font-size="10.00">src/server/src/Server.cpp</text>
</a>
</g>
</g>
<!-- Node15&#45;&gt;Node18 -->
<g id="edge3" class="edge"><title>Node15&#45;&gt;Node18</title>
<path fill="none" stroke="midnightblue" d="M232.67,-63.4795C260.055,-51.9238 299.98,-35.0758 323.836,-25.0091"/>
<polygon fill="midnightblue" stroke="midnightblue" points="231.054,-60.3625 223.202,-67.4751 233.776,-66.8118 231.054,-60.3625"/>
</g>
</g>
</svg>
