<?xml version="1.0" encoding="UTF-8" standalone="no"?>
<!DOCTYPE svg PUBLIC "-//W3C//DTD SVG 1.1//EN"
 "http://www.w3.org/Graphics/SVG/1.1/DTD/svg11.dtd">
<!-- Generated by graphviz version 2.38.0 (20140413.2041)
 -->
<!-- Title: con_handler.cpp Pages: 1 -->
<svg width="773pt" height="162pt"
 viewBox="0.00 0.00 772.50 162.00" xmlns="http://www.w3.org/2000/svg" xmlns:xlink="http://www.w3.org/1999/xlink">
<g id="graph0" class="graph" transform="scale(1 1) rotate(0) translate(4 158)">
<title>con_handler.cpp</title>
<polygon fill="white" stroke="none" points="-4,4 -4,-158 768.5,-158 768.5,4 -4,4"/>
<!-- Node0 -->
<g id="node1" class="node"><title>Node0</title>
<g id="a_node1"><a xlink:title="handler">
<polygon fill="#bfbfbf" stroke="black" points="361,-134.5 361,-153.5 449,-153.5 449,-134.5 361,-134.5"/>
<text text-anchor="middle" x="405" y="-141.5" font-family="Helvetica,sans-Serif" font-size="10.00">con_handler.cpp</text>
</a>
</g>
</g>
<!-- Node1 -->
<g id="node2" class="node"><title>Node1</title>
<g id="a_node2"><a xlink:href="server_2src_2con__handler_8h.html" target="_top" xlink:title="handler">
<polygon fill="white" stroke="black" points="57.5,-73 57.5,-92 134.5,-92 134.5,-73 57.5,-73"/>
<text text-anchor="middle" x="96" y="-80" font-family="Helvetica,sans-Serif" font-size="10.00">con_handler.h</text>
</a>
</g>
</g>
<!-- Node0&#45;&gt;Node1 -->
<g id="edge1" class="edge"><title>Node0&#45;&gt;Node1</title>
<path fill="none" stroke="midnightblue" d="M360.607,-137.16C308.21,-129.856 218.635,-116.082 143,-98 139.185,-97.0879 135.225,-96.0362 131.297,-94.9244"/>
<polygon fill="midnightblue" stroke="midnightblue" points="132.274,-91.5638 121.692,-92.0823 130.288,-98.2761 132.274,-91.5638"/>
</g>
<!-- Node4 -->
<g id="node5" class="node"><title>Node4</title>
<g id="a_node5"><a xlink:title=" ">
<polygon fill="white" stroke="#bfbfbf" points="152.5,-73 152.5,-92 193.5,-92 193.5,-73 152.5,-73"/>
<text text-anchor="middle" x="173" y="-80" font-family="Helvetica,sans-Serif" font-size="10.00">string</text>
</a>
</g>
</g>
<!-- Node0&#45;&gt;Node4 -->
<g id="edge4" class="edge"><title>Node0&#45;&gt;Node4</title>
<path fill="none" stroke="midnightblue" d="M360.846,-136.193C319.369,-129.095 255.939,-116.412 203,-98 201.385,-97.4382 199.743,-96.8128 198.101,-96.146"/>
<polygon fill="midnightblue" stroke="midnightblue" points="199.459,-92.9192 188.902,-92.0283 196.599,-99.3084 199.459,-92.9192"/>
</g>
<!-- Node5 -->
<g id="node6" class="node"><title>Node5</title>
<g id="a_node6"><a xlink:title=" ">
<polygon fill="white" stroke="#bfbfbf" points="212,-73 212,-92 292,-92 292,-73 212,-73"/>
<text text-anchor="middle" x="252" y="-80" font-family="Helvetica,sans-Serif" font-size="10.00">boost/bind.hpp</text>
</a>
</g>
</g>
<!-- Node0&#45;&gt;Node5 -->
<g id="edge5" class="edge"><title>Node0&#45;&gt;Node5</title>
<path fill="none" stroke="midnightblue" d="M383.079,-134.475C356.948,-124.313 313.088,-107.256 283.37,-95.6996"/>
<polygon fill="midnightblue" stroke="midnightblue" points="284.469,-92.3716 273.881,-92.0091 281.932,-98.8956 284.469,-92.3716"/>
</g>
<!-- Node6 -->
<g id="node7" class="node"><title>Node6</title>
<g id="a_node7"><a xlink:title=" ">
<polygon fill="white" stroke="#bfbfbf" points="310,-73 310,-92 396,-92 396,-73 310,-73"/>
<text text-anchor="middle" x="353" y="-80" font-family="Helvetica,sans-Serif" font-size="10.00">boost/regex.hpp</text>
</a>
</g>
</g>
<!-- Node0&#45;&gt;Node6 -->
<g id="edge6" class="edge"><title>Node0&#45;&gt;Node6</title>
<path fill="none" stroke="midnightblue" d="M397.55,-134.475C389.672,-125.462 377.055,-111.025 367.256,-99.8118"/>
<polygon fill="midnightblue" stroke="midnightblue" points="369.653,-97.2356 360.437,-92.0091 364.382,-101.842 369.653,-97.2356"/>
</g>
<!-- Node7 -->
<g id="node8" class="node"><title>Node7</title>
<g id="a_node8"><a xlink:title=" ">
<polygon fill="white" stroke="#bfbfbf" points="414.5,-73 414.5,-92 499.5,-92 499.5,-73 414.5,-73"/>
<text text-anchor="middle" x="457" y="-80" font-family="Helvetica,sans-Serif" font-size="10.00">spdlog/spdlog.h</text>
</a>
</g>
</g>
<!-- Node0&#45;&gt;Node7 -->
<g id="edge7" class="edge"><title>Node0&#45;&gt;Node7</title>
<path fill="none" stroke="midnightblue" d="M412.45,-134.475C420.328,-125.462 432.945,-111.025 442.744,-99.8118"/>
<polygon fill="midnightblue" stroke="midnightblue" points="445.618,-101.842 449.563,-92.0091 440.347,-97.2356 445.618,-101.842"/>
</g>
<!-- Node8 -->
<g id="node9" class="node"><title>Node8</title>
<g id="a_node9"><a xlink:title=" ">
<polygon fill="white" stroke="#bfbfbf" points="518,-67.5 518,-97.5 616,-97.5 616,-67.5 518,-67.5"/>
<text text-anchor="start" x="526" y="-85.5" font-family="Helvetica,sans-Serif" font-size="10.00">spdlog/sinks/basic</text>
<text text-anchor="middle" x="567" y="-74.5" font-family="Helvetica,sans-Serif" font-size="10.00">_file_sink.h</text>
</a>
</g>
</g>
<!-- Node0&#45;&gt;Node8 -->
<g id="edge8" class="edge"><title>Node0&#45;&gt;Node8</title>
<path fill="none" stroke="midnightblue" d="M428.211,-134.475C451.894,-125.776 489.331,-112.026 519.358,-100.998"/>
<polygon fill="midnightblue" stroke="midnightblue" points="520.64,-104.256 528.82,-97.523 518.226,-97.6853 520.64,-104.256"/>
</g>
<!-- Node9 -->
<g id="node10" class="node"><title>Node9</title>
<g id="a_node10"><a xlink:href="_battleship_royale_8h.html" target="_top" xlink:title="Заголовочный файл с пространством имён, которое хранит в себе константы.">
<polygon fill="white" stroke="black" points="595,-6 595,-25 693,-25 693,-6 595,-6"/>
<text text-anchor="middle" x="644" y="-13" font-family="Helvetica,sans-Serif" font-size="10.00">BattleshipRoyale.h</text>
</a>
</g>
</g>
<!-- Node0&#45;&gt;Node9 -->
<g id="edge9" class="edge"><title>Node0&#45;&gt;Node9</title>
<path fill="none" stroke="midnightblue" d="M449.307,-139.527C506.186,-134.153 600.483,-121.858 625,-98 641.728,-81.7218 644.943,-53.7772 645.018,-35.2199"/>
<polygon fill="midnightblue" stroke="midnightblue" points="648.513,-34.9713 644.751,-25.0667 641.515,-35.1553 648.513,-34.9713"/>
</g>
<!-- Node10 -->
<g id="node11" class="node"><title>Node10</title>
<g id="a_node11"><a xlink:href="_d_b_8h.html" target="_top" xlink:title="Работа с базой данных">
<polygon fill="white" stroke="black" points="672,-73 672,-92 710,-92 710,-73 672,-73"/>
<text text-anchor="middle" x="691" y="-80" font-family="Helvetica,sans-Serif" font-size="10.00">DB.h</text>
</a>
</g>
</g>
<!-- Node0&#45;&gt;Node10 -->
<g id="edge10" class="edge"><title>Node0&#45;&gt;Node10</title>
<path fill="none" stroke="midnightblue" d="M449.169,-138.374C500.255,-132.287 586.502,-119.727 658,-98 659.931,-97.4132 661.899,-96.7442 663.864,-96.0229"/>
<polygon fill="midnightblue" stroke="midnightblue" points="665.532,-99.1234 673.482,-92.1202 662.9,-92.637 665.532,-99.1234"/>
</g>
<!-- Node2 -->
<g id="node3" class="node"><title>Node2</title>
<g id="a_node3"><a xlink:title=" ">
<polygon fill="white" stroke="#bfbfbf" points="0,-6 0,-25 80,-25 80,-6 0,-6"/>
<text text-anchor="middle" x="40" y="-13" font-family="Helvetica,sans-Serif" font-size="10.00">boost/asio.hpp</text>
</a>
</g>
</g>
<!-- Node1&#45;&gt;Node2 -->
<g id="edge2" class="edge"><title>Node1&#45;&gt;Node2</title>
<path fill="none" stroke="midnightblue" d="M88.4476,-72.7338C79.7151,-62.5979 65.1483,-45.6899 54.2633,-33.0556"/>
<polygon fill="midnightblue" stroke="midnightblue" points="56.6115,-30.4189 47.4328,-25.1273 51.3082,-34.9879 56.6115,-30.4189"/>
</g>
<!-- Node3 -->
<g id="node4" class="node"><title>Node3</title>
<g id="a_node4"><a xlink:title=" ">
<polygon fill="white" stroke="#bfbfbf" points="98.5,-0.5 98.5,-30.5 205.5,-30.5 205.5,-0.5 98.5,-0.5"/>
<text text-anchor="start" x="106.5" y="-18.5" font-family="Helvetica,sans-Serif" font-size="10.00">boost/enable_shared</text>
<text text-anchor="middle" x="152" y="-7.5" font-family="Helvetica,sans-Serif" font-size="10.00">_from_this.hpp</text>
</a>
</g>
</g>
<!-- Node1&#45;&gt;Node3 -->
<g id="edge3" class="edge"><title>Node1&#45;&gt;Node3</title>
<path fill="none" stroke="midnightblue" d="M103.552,-72.7338C111.121,-63.9493 123.071,-50.0783 133.209,-38.3111"/>
<polygon fill="midnightblue" stroke="midnightblue" points="135.986,-40.4496 139.862,-30.589 130.683,-35.8806 135.986,-40.4496"/>
</g>
<!-- Node10&#45;&gt;Node9 -->
<g id="edge12" class="edge"><title>Node10&#45;&gt;Node9</title>
<path fill="none" stroke="midnightblue" d="M684.661,-72.7338C677.403,-62.6953 665.341,-46.0145 656.235,-33.4213"/>
<polygon fill="midnightblue" stroke="midnightblue" points="658.934,-31.18 650.238,-25.1273 653.261,-35.2816 658.934,-31.18"/>
</g>
<!-- Node11 -->
<g id="node12" class="node"><title>Node11</title>
<g id="a_node12"><a xlink:title=" ">
<polygon fill="white" stroke="#bfbfbf" points="711.5,-6 711.5,-25 764.5,-25 764.5,-6 711.5,-6"/>
<text text-anchor="middle" x="738" y="-13" font-family="Helvetica,sans-Serif" font-size="10.00">sqlite3.h</text>
</a>
</g>
</g>
<!-- Node10&#45;&gt;Node11 -->
<g id="edge11" class="edge"><title>Node10&#45;&gt;Node11</title>
<path fill="none" stroke="midnightblue" d="M697.339,-72.7338C704.597,-62.6953 716.659,-46.0145 725.765,-33.4213"/>
<polygon fill="midnightblue" stroke="midnightblue" points="728.739,-35.2816 731.762,-25.1273 723.066,-31.18 728.739,-35.2816"/>
</g>
</g>
</svg>
