<?xml version="1.0" encoding="UTF-8" standalone="no"?>
<!DOCTYPE svg PUBLIC "-//W3C//DTD SVG 1.1//EN"
 "http://www.w3.org/Graphics/SVG/1.1/DTD/svg11.dtd">
<!-- Generated by graphviz version 2.38.0 (20140413.2041)
 -->
<!-- Title: con_handler.cpp Pages: 1 -->
<svg width="781pt" height="218pt"
 viewBox="0.00 0.00 780.87 218.00" xmlns="http://www.w3.org/2000/svg" xmlns:xlink="http://www.w3.org/1999/xlink">
<g id="graph0" class="graph" transform="scale(1 1) rotate(0) translate(4 214)">
<title>con_handler.cpp</title>
<polygon fill="white" stroke="none" points="-4,4 -4,-214 776.872,-214 776.872,4 -4,4"/>
<!-- Node0 -->
<g id="node1" class="node"><title>Node0</title>
<g id="a_node1"><a xlink:title="handler">
<polygon fill="#bfbfbf" stroke="black" points="396.529,-190.5 396.529,-209.5 484.529,-209.5 484.529,-190.5 396.529,-190.5"/>
<text text-anchor="middle" x="440.529" y="-197.5" font-family="Helvetica,sans-Serif" font-size="10.00">con_handler.cpp</text>
</a>
</g>
</g>
<!-- Node1 -->
<g id="node2" class="node"><title>Node1</title>
<g id="a_node2"><a xlink:href="server_2src_2con__handler_8h.html" target="_top" xlink:title="handler">
<polygon fill="white" stroke="black" points="179.029,-129 179.029,-148 256.029,-148 256.029,-129 179.029,-129"/>
<text text-anchor="middle" x="217.529" y="-136" font-family="Helvetica,sans-Serif" font-size="10.00">con_handler.h</text>
</a>
</g>
</g>
<!-- Node0&#45;&gt;Node1 -->
<g id="edge1" class="edge"><title>Node0&#45;&gt;Node1</title>
<path fill="none" stroke="midnightblue" d="M408.579,-190.475C369.333,-180.004 302.651,-162.212 259.356,-150.66"/>
<polygon fill="midnightblue" stroke="midnightblue" points="259.985,-147.205 249.421,-148.009 258.18,-153.969 259.985,-147.205"/>
</g>
<!-- Node5 -->
<g id="node6" class="node"><title>Node5</title>
<g id="a_node6"><a xlink:title=" ">
<polygon fill="white" stroke="#bfbfbf" points="306.029,-0.5 306.029,-19.5 347.029,-19.5 347.029,-0.5 306.029,-0.5"/>
<text text-anchor="middle" x="326.529" y="-7.5" font-family="Helvetica,sans-Serif" font-size="10.00">string</text>
</a>
</g>
</g>
<!-- Node0&#45;&gt;Node5 -->
<g id="edge8" class="edge"><title>Node0&#45;&gt;Node5</title>
<path fill="none" stroke="midnightblue" d="M399.122,-190.439C378.489,-183.965 355.104,-172.841 341.529,-154 314.734,-116.81 318.661,-59.3983 323.023,-29.9087"/>
<polygon fill="midnightblue" stroke="midnightblue" points="326.524,-30.1925 324.712,-19.7537 319.619,-29.0438 326.524,-30.1925"/>
</g>
<!-- Node7 -->
<g id="node8" class="node"><title>Node7</title>
<g id="a_node8"><a xlink:href="_battleship_royale_8h.html" target="_top" xlink:title="Заголовочный файл с пространством имён, которое хранит в себе константы.">
<polygon fill="white" stroke="black" points="30.5293,-0.5 30.5293,-19.5 128.529,-19.5 128.529,-0.5 30.5293,-0.5"/>
<text text-anchor="middle" x="79.5293" y="-7.5" font-family="Helvetica,sans-Serif" font-size="10.00">BattleshipRoyale.h</text>
</a>
</g>
</g>
<!-- Node0&#45;&gt;Node7 -->
<g id="edge13" class="edge"><title>Node0&#45;&gt;Node7</title>
<path fill="none" stroke="midnightblue" d="M396.492,-194.88C294.897,-184.317 49.4469,-152.383 5.52932,-87 -2.15299,-75.5628 -1.22333,-68.0095 5.52932,-56 13.7508,-41.3782 28.8602,-30.9543 43.2928,-23.8465"/>
<polygon fill="midnightblue" stroke="midnightblue" points="44.9266,-26.9491 52.6001,-19.6437 42.0458,-20.5693 44.9266,-26.9491"/>
</g>
<!-- Node8 -->
<g id="node9" class="node"><title>Node8</title>
<g id="a_node9"><a xlink:title=" ">
<polygon fill="white" stroke="#bfbfbf" points="350.529,-129 350.529,-148 430.529,-148 430.529,-129 350.529,-129"/>
<text text-anchor="middle" x="390.529" y="-136" font-family="Helvetica,sans-Serif" font-size="10.00">boost/bind.hpp</text>
</a>
</g>
</g>
<!-- Node0&#45;&gt;Node8 -->
<g id="edge9" class="edge"><title>Node0&#45;&gt;Node8</title>
<path fill="none" stroke="midnightblue" d="M433.366,-190.475C425.791,-181.462 413.659,-167.025 404.237,-155.812"/>
<polygon fill="midnightblue" stroke="midnightblue" points="406.793,-153.413 397.68,-148.009 401.434,-157.917 406.793,-153.413"/>
</g>
<!-- Node9 -->
<g id="node10" class="node"><title>Node9</title>
<g id="a_node10"><a xlink:title=" ">
<polygon fill="white" stroke="#bfbfbf" points="448.529,-129 448.529,-148 534.529,-148 534.529,-129 448.529,-129"/>
<text text-anchor="middle" x="491.529" y="-136" font-family="Helvetica,sans-Serif" font-size="10.00">boost/regex.hpp</text>
</a>
</g>
</g>
<!-- Node0&#45;&gt;Node9 -->
<g id="edge10" class="edge"><title>Node0&#45;&gt;Node9</title>
<path fill="none" stroke="midnightblue" d="M447.836,-190.475C455.562,-181.462 467.937,-167.025 477.548,-155.812"/>
<polygon fill="midnightblue" stroke="midnightblue" points="480.385,-157.879 484.236,-148.009 475.07,-153.324 480.385,-157.879"/>
</g>
<!-- Node10 -->
<g id="node11" class="node"><title>Node10</title>
<g id="a_node11"><a xlink:title=" ">
<polygon fill="white" stroke="#bfbfbf" points="553.029,-129 553.029,-148 638.029,-148 638.029,-129 553.029,-129"/>
<text text-anchor="middle" x="595.529" y="-136" font-family="Helvetica,sans-Serif" font-size="10.00">spdlog/spdlog.h</text>
</a>
</g>
</g>
<!-- Node0&#45;&gt;Node10 -->
<g id="edge11" class="edge"><title>Node0&#45;&gt;Node10</title>
<path fill="none" stroke="midnightblue" d="M462.737,-190.475C489.21,-180.313 533.643,-163.256 563.749,-151.7"/>
<polygon fill="midnightblue" stroke="midnightblue" points="565.281,-154.86 573.363,-148.009 562.773,-148.325 565.281,-154.86"/>
</g>
<!-- Node11 -->
<g id="node12" class="node"><title>Node11</title>
<g id="a_node12"><a xlink:title=" ">
<polygon fill="white" stroke="#bfbfbf" points="656.529,-123.5 656.529,-153.5 754.529,-153.5 754.529,-123.5 656.529,-123.5"/>
<text text-anchor="start" x="664.529" y="-141.5" font-family="Helvetica,sans-Serif" font-size="10.00">spdlog/sinks/basic</text>
<text text-anchor="middle" x="705.529" y="-130.5" font-family="Helvetica,sans-Serif" font-size="10.00">_file_sink.h</text>
</a>
</g>
</g>
<!-- Node0&#45;&gt;Node11 -->
<g id="edge12" class="edge"><title>Node0&#45;&gt;Node11</title>
<path fill="none" stroke="midnightblue" d="M481.46,-190.492C521.155,-182.154 583.333,-168.865 646.384,-154.229"/>
<polygon fill="midnightblue" stroke="midnightblue" points="647.563,-157.548 656.507,-151.869 645.974,-150.731 647.563,-157.548"/>
</g>
<!-- Node12 -->
<g id="node13" class="node"><title>Node12</title>
<g id="a_node13"><a xlink:href="_regex_8h.html" target="_top" xlink:title="Работа с регулярными выражениями">
<polygon fill="white" stroke="black" points="553.029,-62 553.029,-81 606.029,-81 606.029,-62 553.029,-62"/>
<text text-anchor="middle" x="579.529" y="-69" font-family="Helvetica,sans-Serif" font-size="10.00">Regex.h</text>
</a>
</g>
</g>
<!-- Node0&#45;&gt;Node12 -->
<g id="edge14" class="edge"><title>Node0&#45;&gt;Node12</title>
<path fill="none" stroke="midnightblue" d="M484.619,-199.657C564.427,-199.8 727.892,-194.946 763.529,-154 807.618,-103.343 681.765,-82.8099 616.315,-75.7228"/>
<polygon fill="midnightblue" stroke="midnightblue" points="616.67,-72.241 606.365,-74.6983 615.953,-79.2042 616.67,-72.241"/>
</g>
<!-- Node2 -->
<g id="node3" class="node"><title>Node2</title>
<g id="a_node3"><a xlink:title=" ">
<polygon fill="white" stroke="#bfbfbf" points="140.529,-62 140.529,-81 220.529,-81 220.529,-62 140.529,-62"/>
<text text-anchor="middle" x="180.529" y="-69" font-family="Helvetica,sans-Serif" font-size="10.00">boost/asio.hpp</text>
</a>
</g>
</g>
<!-- Node1&#45;&gt;Node2 -->
<g id="edge2" class="edge"><title>Node1&#45;&gt;Node2</title>
<path fill="none" stroke="midnightblue" d="M212.539,-128.734C206.936,-118.89 197.697,-102.66 190.582,-90.1594"/>
<polygon fill="midnightblue" stroke="midnightblue" points="193.429,-88.0865 185.44,-81.1273 187.346,-91.5494 193.429,-88.0865"/>
</g>
<!-- Node3 -->
<g id="node4" class="node"><title>Node3</title>
<g id="a_node4"><a xlink:title=" ">
<polygon fill="white" stroke="#bfbfbf" points="15.0293,-56.5 15.0293,-86.5 122.029,-86.5 122.029,-56.5 15.0293,-56.5"/>
<text text-anchor="start" x="23.0293" y="-74.5" font-family="Helvetica,sans-Serif" font-size="10.00">boost/enable_shared</text>
<text text-anchor="middle" x="68.5293" y="-63.5" font-family="Helvetica,sans-Serif" font-size="10.00">_from_this.hpp</text>
</a>
</g>
</g>
<!-- Node1&#45;&gt;Node3 -->
<g id="edge3" class="edge"><title>Node1&#45;&gt;Node3</title>
<path fill="none" stroke="midnightblue" d="M197.743,-128.869C175.482,-119.157 138.695,-103.109 110.054,-90.6148"/>
<polygon fill="midnightblue" stroke="midnightblue" points="111.251,-87.3186 100.686,-86.5281 108.452,-93.7347 111.251,-87.3186"/>
</g>
<!-- Node4 -->
<g id="node5" class="node"><title>Node4</title>
<g id="a_node5"><a xlink:href="_mini_d_b_8h.html" target="_top" xlink:title="Облегчённый класс для работы с бд">
<polygon fill="white" stroke="black" points="238.529,-62 238.529,-81 294.529,-81 294.529,-62 238.529,-62"/>
<text text-anchor="middle" x="266.529" y="-69" font-family="Helvetica,sans-Serif" font-size="10.00">MiniDB.h</text>
</a>
</g>
</g>
<!-- Node1&#45;&gt;Node4 -->
<g id="edge4" class="edge"><title>Node1&#45;&gt;Node4</title>
<path fill="none" stroke="midnightblue" d="M224.138,-128.734C231.705,-118.695 244.28,-102.014 253.773,-89.4213"/>
<polygon fill="midnightblue" stroke="midnightblue" points="256.801,-91.2194 260.026,-81.1273 251.211,-87.0057 256.801,-91.2194"/>
</g>
<!-- Node4&#45;&gt;Node5 -->
<g id="edge5" class="edge"><title>Node4&#45;&gt;Node5</title>
<path fill="none" stroke="midnightblue" d="M275.126,-61.9751C284.393,-52.785 299.346,-37.9563 310.742,-26.656"/>
<polygon fill="midnightblue" stroke="midnightblue" points="313.313,-29.0358 317.949,-19.5091 308.384,-24.0653 313.313,-29.0358"/>
</g>
<!-- Node6 -->
<g id="node7" class="node"><title>Node6</title>
<g id="a_node7"><a xlink:title=" ">
<polygon fill="white" stroke="#bfbfbf" points="235.029,-0.5 235.029,-19.5 288.029,-19.5 288.029,-0.5 235.029,-0.5"/>
<text text-anchor="middle" x="261.529" y="-7.5" font-family="Helvetica,sans-Serif" font-size="10.00">sqlite3.h</text>
</a>
</g>
</g>
<!-- Node4&#45;&gt;Node6 -->
<g id="edge6" class="edge"><title>Node4&#45;&gt;Node6</title>
<path fill="none" stroke="midnightblue" d="M265.813,-61.9751C265.107,-53.5803 264.007,-40.4806 263.098,-29.6631"/>
<polygon fill="midnightblue" stroke="midnightblue" points="266.57,-29.1808 262.244,-19.5091 259.594,-29.7671 266.57,-29.1808"/>
</g>
<!-- Node4&#45;&gt;Node7 -->
<g id="edge7" class="edge"><title>Node4&#45;&gt;Node7</title>
<path fill="none" stroke="midnightblue" d="M245.509,-61.9174C240.316,-59.893 234.746,-57.8015 229.529,-56 193.048,-43.4033 150.904,-30.94 120.594,-22.3354"/>
<polygon fill="midnightblue" stroke="midnightblue" points="121.368,-18.9174 110.793,-19.5707 119.467,-25.6544 121.368,-18.9174"/>
</g>
<!-- Node12&#45;&gt;Node5 -->
<g id="edge15" class="edge"><title>Node12&#45;&gt;Node5</title>
<path fill="none" stroke="midnightblue" d="M552.932,-64.2449C505.673,-53.1306 407.34,-30.0048 357.266,-18.2285"/>
<polygon fill="midnightblue" stroke="midnightblue" points="357.884,-14.7785 347.348,-15.8962 356.282,-21.5926 357.884,-14.7785"/>
</g>
</g>
</svg>
