<?xml version="1.0" encoding="UTF-8" standalone="no"?>
<!DOCTYPE svg PUBLIC "-//W3C//DTD SVG 1.1//EN"
 "http://www.w3.org/Graphics/SVG/1.1/DTD/svg11.dtd">
<!-- Generated by graphviz version 2.38.0 (20140413.2041)
 -->
<!-- Title: src/server/src/con_handler.cpp Pages: 1 -->
<svg width="680pt" height="285pt"
 viewBox="0.00 0.00 679.56 285.00" xmlns="http://www.w3.org/2000/svg" xmlns:xlink="http://www.w3.org/1999/xlink">
<g id="graph0" class="graph" transform="scale(1 1) rotate(0) translate(4 281)">
<title>src/server/src/con_handler.cpp</title>
<polygon fill="white" stroke="none" points="-4,4 -4,-281 675.558,-281 675.558,4 -4,4"/>
<!-- Node0 -->
<g id="node1" class="node"><title>Node0</title>
<g id="a_node1"><a xlink:title="handler">
<polygon fill="#bfbfbf" stroke="black" points="330.558,-246.5 330.558,-276.5 424.558,-276.5 424.558,-246.5 330.558,-246.5"/>
<text text-anchor="start" x="338.558" y="-264.5" font-family="Helvetica,sans-Serif" font-size="10.00">src/server/src/con</text>
<text text-anchor="middle" x="377.558" y="-253.5" font-family="Helvetica,sans-Serif" font-size="10.00">_handler.cpp</text>
</a>
</g>
</g>
<!-- Node1 -->
<g id="node2" class="node"><title>Node1</title>
<g id="a_node2"><a xlink:href="server_2src_2con__handler_8h.html" target="_top" xlink:title="handler">
<polygon fill="white" stroke="black" points="184.058,-185 184.058,-204 261.058,-204 261.058,-185 184.058,-185"/>
<text text-anchor="middle" x="222.558" y="-192" font-family="Helvetica,sans-Serif" font-size="10.00">con_handler.h</text>
</a>
</g>
</g>
<!-- Node0&#45;&gt;Node1 -->
<g id="edge1" class="edge"><title>Node0&#45;&gt;Node1</title>
<path fill="none" stroke="midnightblue" d="M343.925,-246.396C316.608,-234.941 278.45,-218.938 252.251,-207.952"/>
<polygon fill="midnightblue" stroke="midnightblue" points="253.419,-204.647 242.844,-204.007 250.712,-211.102 253.419,-204.647"/>
</g>
<!-- Node6 -->
<g id="node7" class="node"><title>Node6</title>
<g id="a_node7"><a xlink:title=" ">
<polygon fill="white" stroke="#bfbfbf" points="165.058,-0.5 165.058,-19.5 206.058,-19.5 206.058,-0.5 165.058,-0.5"/>
<text text-anchor="middle" x="185.558" y="-7.5" font-family="Helvetica,sans-Serif" font-size="10.00">string</text>
</a>
</g>
</g>
<!-- Node0&#45;&gt;Node6 -->
<g id="edge11" class="edge"><title>Node0&#45;&gt;Node6</title>
<path fill="none" stroke="midnightblue" d="M330.234,-252.798C239.132,-236.867 45.1292,-197.199 8.55789,-143 -33.7027,-80.3701 94.0302,-35.9342 155.047,-18.8016"/>
<polygon fill="midnightblue" stroke="midnightblue" points="156.197,-22.1158 164.921,-16.1041 154.352,-15.3633 156.197,-22.1158"/>
</g>
<!-- Node8 -->
<g id="node9" class="node"><title>Node8</title>
<g id="a_node9"><a xlink:href="_battleship_royale_8h.html" target="_top" xlink:title="Заголовочный файл с пространством имён, которое хранит в себе константы.">
<polygon fill="white" stroke="black" points="295.558,-0.5 295.558,-19.5 393.558,-19.5 393.558,-0.5 295.558,-0.5"/>
<text text-anchor="middle" x="344.558" y="-7.5" font-family="Helvetica,sans-Serif" font-size="10.00">BattleshipRoyale.h</text>
</a>
</g>
</g>
<!-- Node0&#45;&gt;Node8 -->
<g id="edge15" class="edge"><title>Node0&#45;&gt;Node8</title>
<path fill="none" stroke="midnightblue" d="M372.45,-246.104C369.108,-236.102 364.935,-222.396 362.558,-210 350.055,-144.803 346.186,-65.8785 345.03,-30.1817"/>
<polygon fill="midnightblue" stroke="midnightblue" points="348.518,-29.711 344.733,-19.8153 341.521,-29.9114 348.518,-29.711"/>
</g>
<!-- Node10 -->
<g id="node11" class="node"><title>Node10</title>
<g id="a_node11"><a xlink:title=" ">
<polygon fill="white" stroke="#bfbfbf" points="371.558,-185 371.558,-204 451.558,-204 451.558,-185 371.558,-185"/>
<text text-anchor="middle" x="411.558" y="-192" font-family="Helvetica,sans-Serif" font-size="10.00">boost/bind.hpp</text>
</a>
</g>
</g>
<!-- Node0&#45;&gt;Node10 -->
<g id="edge12" class="edge"><title>Node0&#45;&gt;Node10</title>
<path fill="none" stroke="midnightblue" d="M384.935,-246.396C390.027,-236.662 396.835,-223.646 402.292,-213.214"/>
<polygon fill="midnightblue" stroke="midnightblue" points="405.476,-214.678 407.01,-204.195 399.274,-211.433 405.476,-214.678"/>
</g>
<!-- Node11 -->
<g id="node12" class="node"><title>Node11</title>
<g id="a_node12"><a xlink:title=" ">
<polygon fill="white" stroke="#bfbfbf" points="470.058,-185 470.058,-204 555.058,-204 555.058,-185 470.058,-185"/>
<text text-anchor="middle" x="512.558" y="-192" font-family="Helvetica,sans-Serif" font-size="10.00">spdlog/spdlog.h</text>
</a>
</g>
</g>
<!-- Node0&#45;&gt;Node11 -->
<g id="edge13" class="edge"><title>Node0&#45;&gt;Node11</title>
<path fill="none" stroke="midnightblue" d="M406.851,-246.396C430.329,-235.092 463.001,-219.361 485.786,-208.39"/>
<polygon fill="midnightblue" stroke="midnightblue" points="487.398,-211.499 494.89,-204.007 484.361,-205.192 487.398,-211.499"/>
</g>
<!-- Node12 -->
<g id="node13" class="node"><title>Node12</title>
<g id="a_node13"><a xlink:title=" ">
<polygon fill="white" stroke="#bfbfbf" points="573.558,-179.5 573.558,-209.5 671.558,-209.5 671.558,-179.5 573.558,-179.5"/>
<text text-anchor="start" x="581.558" y="-197.5" font-family="Helvetica,sans-Serif" font-size="10.00">spdlog/sinks/basic</text>
<text text-anchor="middle" x="622.558" y="-186.5" font-family="Helvetica,sans-Serif" font-size="10.00">_file_sink.h</text>
</a>
</g>
</g>
<!-- Node0&#45;&gt;Node12 -->
<g id="edge14" class="edge"><title>Node0&#45;&gt;Node12</title>
<path fill="none" stroke="midnightblue" d="M424.796,-247.967C464.4,-237.46 521.139,-222.407 563.694,-211.117"/>
<polygon fill="midnightblue" stroke="midnightblue" points="564.597,-214.499 573.365,-208.551 562.802,-207.733 564.597,-214.499"/>
</g>
<!-- Node2 -->
<g id="node3" class="node"><title>Node2</title>
<g id="a_node3"><a xlink:title=" ">
<polygon fill="white" stroke="#bfbfbf" points="17.5579,-118 17.5579,-137 97.5579,-137 97.5579,-118 17.5579,-118"/>
<text text-anchor="middle" x="57.5579" y="-125" font-family="Helvetica,sans-Serif" font-size="10.00">boost/asio.hpp</text>
</a>
</g>
</g>
<!-- Node1&#45;&gt;Node2 -->
<g id="edge2" class="edge"><title>Node1&#45;&gt;Node2</title>
<path fill="none" stroke="midnightblue" d="M200.647,-184.869C171.968,-173.571 121.517,-153.696 88.8275,-140.818"/>
<polygon fill="midnightblue" stroke="midnightblue" points="89.8834,-137.473 79.2964,-137.064 87.3177,-143.985 89.8834,-137.473"/>
</g>
<!-- Node3 -->
<g id="node4" class="node"><title>Node3</title>
<g id="a_node4"><a xlink:title=" ">
<polygon fill="white" stroke="#bfbfbf" points="116.058,-112.5 116.058,-142.5 223.058,-142.5 223.058,-112.5 116.058,-112.5"/>
<text text-anchor="start" x="124.058" y="-130.5" font-family="Helvetica,sans-Serif" font-size="10.00">boost/enable_shared</text>
<text text-anchor="middle" x="169.558" y="-119.5" font-family="Helvetica,sans-Serif" font-size="10.00">_from_this.hpp</text>
</a>
</g>
</g>
<!-- Node1&#45;&gt;Node3 -->
<g id="edge3" class="edge"><title>Node1&#45;&gt;Node3</title>
<path fill="none" stroke="midnightblue" d="M215.41,-184.734C208.316,-176.034 197.154,-162.345 187.62,-150.651"/>
<polygon fill="midnightblue" stroke="midnightblue" points="190.078,-148.127 181.046,-142.589 184.653,-152.551 190.078,-148.127"/>
</g>
<!-- Node4 -->
<g id="node5" class="node"><title>Node4</title>
<g id="a_node5"><a xlink:href="_processing_8h.html" target="_top" xlink:title="Обработка запросов">
<polygon fill="white" stroke="black" points="241.558,-118 241.558,-137 315.558,-137 315.558,-118 241.558,-118"/>
<text text-anchor="middle" x="278.558" y="-125" font-family="Helvetica,sans-Serif" font-size="10.00">Processing.h</text>
</a>
</g>
</g>
<!-- Node1&#45;&gt;Node4 -->
<g id="edge4" class="edge"><title>Node1&#45;&gt;Node4</title>
<path fill="none" stroke="midnightblue" d="M230.11,-184.734C238.843,-174.598 253.41,-157.69 264.295,-145.056"/>
<polygon fill="midnightblue" stroke="midnightblue" points="267.25,-146.988 271.125,-137.127 261.946,-142.419 267.25,-146.988"/>
</g>
<!-- Node5 -->
<g id="node6" class="node"><title>Node5</title>
<g id="a_node6"><a xlink:href="server_2src_2_mini_d_b_8h.html" target="_top" xlink:title="Облегчённый класс для работы с бд">
<polygon fill="white" stroke="black" points="247.558,-56.5 247.558,-75.5 303.558,-75.5 303.558,-56.5 247.558,-56.5"/>
<text text-anchor="middle" x="275.558" y="-63.5" font-family="Helvetica,sans-Serif" font-size="10.00">MiniDB.h</text>
</a>
</g>
</g>
<!-- Node4&#45;&gt;Node5 -->
<g id="edge5" class="edge"><title>Node4&#45;&gt;Node5</title>
<path fill="none" stroke="midnightblue" d="M278.128,-117.975C277.705,-109.58 277.044,-96.4806 276.499,-85.6631"/>
<polygon fill="midnightblue" stroke="midnightblue" points="279.986,-85.3201 275.987,-75.5091 272.995,-85.6727 279.986,-85.3201"/>
</g>
<!-- Node9 -->
<g id="node10" class="node"><title>Node9</title>
<g id="a_node10"><a xlink:href="_mem_d_buid_8h.html" target="_top" xlink:title="Облегчённый класс для работы с бд в памяти">
<polygon fill="white" stroke="black" points="151.058,-56.5 151.058,-75.5 224.058,-75.5 224.058,-56.5 151.058,-56.5"/>
<text text-anchor="middle" x="187.558" y="-63.5" font-family="Helvetica,sans-Serif" font-size="10.00">MemDBuid.h</text>
</a>
</g>
</g>
<!-- Node4&#45;&gt;Node9 -->
<g id="edge9" class="edge"><title>Node4&#45;&gt;Node9</title>
<path fill="none" stroke="midnightblue" d="M265.52,-117.975C250.789,-108.343 226.585,-92.5175 209.049,-81.0517"/>
<polygon fill="midnightblue" stroke="midnightblue" points="210.857,-78.0522 200.572,-75.5091 207.026,-83.911 210.857,-78.0522"/>
</g>
<!-- Node5&#45;&gt;Node6 -->
<g id="edge6" class="edge"><title>Node5&#45;&gt;Node6</title>
<path fill="none" stroke="midnightblue" d="M261.098,-56.324C247.058,-47.9002 225.509,-34.9709 209.015,-25.0741"/>
<polygon fill="midnightblue" stroke="midnightblue" points="210.358,-21.7983 199.982,-19.6545 206.756,-27.8007 210.358,-21.7983"/>
</g>
<!-- Node7 -->
<g id="node8" class="node"><title>Node7</title>
<g id="a_node8"><a xlink:title=" ">
<polygon fill="white" stroke="#bfbfbf" points="224.058,-0.5 224.058,-19.5 277.058,-19.5 277.058,-0.5 224.058,-0.5"/>
<text text-anchor="middle" x="250.558" y="-7.5" font-family="Helvetica,sans-Serif" font-size="10.00">sqlite3.h</text>
</a>
</g>
</g>
<!-- Node5&#45;&gt;Node7 -->
<g id="edge7" class="edge"><title>Node5&#45;&gt;Node7</title>
<path fill="none" stroke="midnightblue" d="M271.43,-56.083C268.044,-48.77 263.142,-38.1814 258.939,-29.1034"/>
<polygon fill="midnightblue" stroke="midnightblue" points="261.987,-27.3553 254.609,-19.7511 255.634,-30.2962 261.987,-27.3553"/>
</g>
<!-- Node5&#45;&gt;Node8 -->
<g id="edge8" class="edge"><title>Node5&#45;&gt;Node8</title>
<path fill="none" stroke="midnightblue" d="M286.644,-56.324C297.044,-48.1849 312.819,-35.8395 325.279,-26.0874"/>
<polygon fill="midnightblue" stroke="midnightblue" points="327.552,-28.7533 333.27,-19.8339 323.238,-23.2407 327.552,-28.7533"/>
</g>
<!-- Node9&#45;&gt;Node6 -->
<g id="edge10" class="edge"><title>Node9&#45;&gt;Node6</title>
<path fill="none" stroke="midnightblue" d="M187.228,-56.083C186.966,-49.0059 186.59,-38.8611 186.261,-29.9865"/>
<polygon fill="midnightblue" stroke="midnightblue" points="189.75,-29.6147 185.882,-19.7511 182.755,-29.8738 189.75,-29.6147"/>
</g>
</g>
</svg>
