<?xml version="1.0" encoding="UTF-8" standalone="no"?>
<!DOCTYPE svg PUBLIC "-//W3C//DTD SVG 1.1//EN"
 "http://www.w3.org/Graphics/SVG/1.1/DTD/svg11.dtd">
<!-- Generated by graphviz version 2.38.0 (20140413.2041)
 -->
<!-- Title: src/server/src/Regex.cpp Pages: 1 -->
<svg width="320pt" height="140pt"
 viewBox="0.00 0.00 319.50 140.00" xmlns="http://www.w3.org/2000/svg" xmlns:xlink="http://www.w3.org/1999/xlink">
<g id="graph0" class="graph" transform="scale(1 1) rotate(0) translate(4 136)">
<title>src/server/src/Regex.cpp</title>
<polygon fill="white" stroke="none" points="-4,4 -4,-136 315.5,-136 315.5,4 -4,4"/>
<!-- Node0 -->
<g id="node1" class="node"><title>Node0</title>
<g id="a_node1"><a xlink:title="Работа с регулярными выражениями">
<polygon fill="#bfbfbf" stroke="black" points="54,-112.5 54,-131.5 179,-131.5 179,-112.5 54,-112.5"/>
<text text-anchor="middle" x="116.5" y="-119.5" font-family="Helvetica,sans-Serif" font-size="10.00">src/server/src/Regex.cpp</text>
</a>
</g>
</g>
<!-- Node1 -->
<g id="node2" class="node"><title>Node1</title>
<g id="a_node2"><a xlink:href="_regex_8h.html" target="_top" xlink:title="Работа с регулярными выражениями">
<polygon fill="white" stroke="black" points="0,-56.5 0,-75.5 53,-75.5 53,-56.5 0,-56.5"/>
<text text-anchor="middle" x="26.5" y="-63.5" font-family="Helvetica,sans-Serif" font-size="10.00">Regex.h</text>
</a>
</g>
</g>
<!-- Node0&#45;&gt;Node1 -->
<g id="edge1" class="edge"><title>Node0&#45;&gt;Node1</title>
<path fill="none" stroke="midnightblue" d="M102.04,-112.324C88.0004,-103.9 66.4515,-90.9709 49.9569,-81.0741"/>
<polygon fill="midnightblue" stroke="midnightblue" points="51.2999,-77.7983 40.9242,-75.6545 47.6984,-83.8007 51.2999,-77.7983"/>
</g>
<!-- Node2 -->
<g id="node3" class="node"><title>Node2</title>
<g id="a_node3"><a xlink:title=" ">
<polygon fill="white" stroke="#bfbfbf" points="33,-0.5 33,-19.5 74,-19.5 74,-0.5 33,-0.5"/>
<text text-anchor="middle" x="53.5" y="-7.5" font-family="Helvetica,sans-Serif" font-size="10.00">string</text>
</a>
</g>
</g>
<!-- Node0&#45;&gt;Node2 -->
<g id="edge3" class="edge"><title>Node0&#45;&gt;Node2</title>
<path fill="none" stroke="midnightblue" d="M111.556,-112.368C101.206,-94.2957 77.0828,-52.1764 63.4124,-28.3074"/>
<polygon fill="midnightblue" stroke="midnightblue" points="66.4276,-26.5295 58.4205,-19.5914 60.3533,-30.0085 66.4276,-26.5295"/>
</g>
<!-- Node3 -->
<g id="node4" class="node"><title>Node3</title>
<g id="a_node4"><a xlink:title=" ">
<polygon fill="white" stroke="#bfbfbf" points="109.5,-56.5 109.5,-75.5 195.5,-75.5 195.5,-56.5 109.5,-56.5"/>
<text text-anchor="middle" x="152.5" y="-63.5" font-family="Helvetica,sans-Serif" font-size="10.00">boost/regex.hpp</text>
</a>
</g>
</g>
<!-- Node0&#45;&gt;Node3 -->
<g id="edge4" class="edge"><title>Node0&#45;&gt;Node3</title>
<path fill="none" stroke="midnightblue" d="M122.445,-112.083C127.477,-104.534 134.837,-93.4948 141.013,-84.2298"/>
<polygon fill="midnightblue" stroke="midnightblue" points="144.031,-86.0131 146.666,-75.7511 138.207,-82.1301 144.031,-86.0131"/>
</g>
<!-- Node4 -->
<g id="node5" class="node"><title>Node4</title>
<g id="a_node5"><a xlink:href="_battleship_royale_8h.html" target="_top" xlink:title="Заголовочный файл с пространством имён, которое хранит в себе константы.">
<polygon fill="white" stroke="black" points="213.5,-56.5 213.5,-75.5 311.5,-75.5 311.5,-56.5 213.5,-56.5"/>
<text text-anchor="middle" x="262.5" y="-63.5" font-family="Helvetica,sans-Serif" font-size="10.00">BattleshipRoyale.h</text>
</a>
</g>
</g>
<!-- Node0&#45;&gt;Node4 -->
<g id="edge5" class="edge"><title>Node0&#45;&gt;Node4</title>
<path fill="none" stroke="midnightblue" d="M139.634,-112.444C163.982,-103.438 202.507,-89.1891 229.923,-79.049"/>
<polygon fill="midnightblue" stroke="midnightblue" points="231.309,-82.2681 239.474,-75.5164 228.881,-75.7028 231.309,-82.2681"/>
</g>
<!-- Node1&#45;&gt;Node2 -->
<g id="edge2" class="edge"><title>Node1&#45;&gt;Node2</title>
<path fill="none" stroke="midnightblue" d="M30.9585,-56.083C34.6543,-48.6913 40.0234,-37.9533 44.5945,-28.8111"/>
<polygon fill="midnightblue" stroke="midnightblue" points="47.7828,-30.2606 49.1245,-19.7511 41.5218,-27.1301 47.7828,-30.2606"/>
</g>
</g>
</svg>
