<?xml version="1.0" encoding="UTF-8" standalone="no"?>
<!DOCTYPE svg PUBLIC "-//W3C//DTD SVG 1.1//EN"
 "http://www.w3.org/Graphics/SVG/1.1/DTD/svg11.dtd">
<!-- Generated by graphviz version 2.38.0 (20140413.2041)
 -->
<!-- Title: src/server/src/rand_sse.cpp Pages: 1 -->
<svg width="160pt" height="95pt"
 viewBox="0.00 0.00 159.50 95.00" xmlns="http://www.w3.org/2000/svg" xmlns:xlink="http://www.w3.org/1999/xlink">
<g id="graph0" class="graph" transform="scale(1 1) rotate(0) translate(4 91)">
<title>src/server/src/rand_sse.cpp</title>
<polygon fill="white" stroke="none" points="-4,4 -4,-91 155.5,-91 155.5,4 -4,4"/>
<!-- Node0 -->
<g id="node1" class="node"><title>Node0</title>
<g id="a_node1"><a xlink:title="Генерация рандомных чисел через SSE.">
<polygon fill="#bfbfbf" stroke="black" points="27.5,-56.5 27.5,-86.5 124.5,-86.5 124.5,-56.5 27.5,-56.5"/>
<text text-anchor="start" x="35.5" y="-74.5" font-family="Helvetica,sans-Serif" font-size="10.00">src/server/src/rand</text>
<text text-anchor="middle" x="76" y="-63.5" font-family="Helvetica,sans-Serif" font-size="10.00">_sse.cpp</text>
</a>
</g>
</g>
<!-- Node1 -->
<g id="node2" class="node"><title>Node1</title>
<g id="a_node2"><a xlink:title=" ">
<polygon fill="white" stroke="#bfbfbf" points="0,-0.5 0,-19.5 68,-19.5 68,-0.5 0,-0.5"/>
<text text-anchor="middle" x="34" y="-7.5" font-family="Helvetica,sans-Serif" font-size="10.00">emmintrin.h</text>
</a>
</g>
</g>
<!-- Node0&#45;&gt;Node1 -->
<g id="edge1" class="edge"><title>Node0&#45;&gt;Node1</title>
<path fill="none" stroke="midnightblue" d="M66.0466,-56.3993C60.0064,-47.8424 52.2617,-36.8708 45.8991,-27.857"/>
<polygon fill="midnightblue" stroke="midnightblue" points="48.7376,-25.8091 40.1114,-19.6578 43.0189,-29.8459 48.7376,-25.8091"/>
</g>
<!-- Node2 -->
<g id="node3" class="node"><title>Node2</title>
<g id="a_node3"><a xlink:href="rand__sse_8h.html" target="_top" xlink:title="Генерация рандомных чисел через SSE.">
<polygon fill="white" stroke="black" points="86.5,-0.5 86.5,-19.5 151.5,-19.5 151.5,-0.5 86.5,-0.5"/>
<text text-anchor="middle" x="119" y="-7.5" font-family="Helvetica,sans-Serif" font-size="10.00">rand_sse.h</text>
</a>
</g>
</g>
<!-- Node0&#45;&gt;Node2 -->
<g id="edge2" class="edge"><title>Node0&#45;&gt;Node2</title>
<path fill="none" stroke="midnightblue" d="M86.1904,-56.3993C92.3744,-47.8424 100.303,-36.8708 106.818,-27.857"/>
<polygon fill="midnightblue" stroke="midnightblue" points="109.722,-29.8129 112.743,-19.6578 104.049,-25.7127 109.722,-29.8129"/>
</g>
</g>
</svg>
