<?xml version="1.0" encoding="UTF-8" standalone="no"?>
<!DOCTYPE svg PUBLIC "-//W3C//DTD SVG 1.1//EN"
 "http://www.w3.org/Graphics/SVG/1.1/DTD/svg11.dtd">
<!-- Generated by graphviz version 2.38.0 (20140413.2041)
 -->
<!-- Title: Server.cpp Pages: 1 -->
<svg width="403pt" height="263pt"
 viewBox="0.00 0.00 403.00 263.00" xmlns="http://www.w3.org/2000/svg" xmlns:xlink="http://www.w3.org/1999/xlink">
<g id="graph0" class="graph" transform="scale(1 1) rotate(0) translate(4 259)">
<title>Server.cpp</title>
<polygon fill="white" stroke="none" points="-4,4 -4,-259 399,-259 399,4 -4,4"/>
<!-- Node0 -->
<g id="node1" class="node"><title>Node0</title>
<g id="a_node1"><a xlink:title="Асинхронный сервер написанный на boost asio.">
<polygon fill="#bfbfbf" stroke="black" points="163,-235.5 163,-254.5 225,-254.5 225,-235.5 163,-235.5"/>
<text text-anchor="middle" x="194" y="-242.5" font-family="Helvetica,sans-Serif" font-size="10.00">Server.cpp</text>
</a>
</g>
</g>
<!-- Node1 -->
<g id="node2" class="node"><title>Node1</title>
<g id="a_node2"><a xlink:href="server_2src_2_server_8h.html" target="_top" xlink:title="Асинхронный сервер написанный на boost asio.">
<polygon fill="white" stroke="black" points="126,-179.5 126,-198.5 178,-198.5 178,-179.5 126,-179.5"/>
<text text-anchor="middle" x="152" y="-186.5" font-family="Helvetica,sans-Serif" font-size="10.00">Server.h</text>
</a>
</g>
</g>
<!-- Node0&#45;&gt;Node1 -->
<g id="edge1" class="edge"><title>Node0&#45;&gt;Node1</title>
<path fill="none" stroke="midnightblue" d="M187.065,-235.083C181.071,-227.377 172.248,-216.033 164.952,-206.653"/>
<polygon fill="midnightblue" stroke="midnightblue" points="167.709,-204.496 158.806,-198.751 162.183,-208.793 167.709,-204.496"/>
</g>
<!-- Node9 -->
<g id="node10" class="node"><title>Node9</title>
<g id="a_node10"><a xlink:title=" ">
<polygon fill="white" stroke="#bfbfbf" points="196,-179.5 196,-198.5 276,-198.5 276,-179.5 196,-179.5"/>
<text text-anchor="middle" x="236" y="-186.5" font-family="Helvetica,sans-Serif" font-size="10.00">boost/bind.hpp</text>
</a>
</g>
</g>
<!-- Node0&#45;&gt;Node9 -->
<g id="edge9" class="edge"><title>Node0&#45;&gt;Node9</title>
<path fill="none" stroke="midnightblue" d="M200.935,-235.083C206.929,-227.377 215.752,-216.033 223.048,-206.653"/>
<polygon fill="midnightblue" stroke="midnightblue" points="225.817,-208.793 229.194,-198.751 220.291,-204.496 225.817,-208.793"/>
</g>
<!-- Node2 -->
<g id="node3" class="node"><title>Node2</title>
<g id="a_node3"><a xlink:href="server_2src_2con__handler_8h.html" target="_top" xlink:title="handler">
<polygon fill="white" stroke="black" points="113.5,-123.5 113.5,-142.5 190.5,-142.5 190.5,-123.5 113.5,-123.5"/>
<text text-anchor="middle" x="152" y="-130.5" font-family="Helvetica,sans-Serif" font-size="10.00">con_handler.h</text>
</a>
</g>
</g>
<!-- Node1&#45;&gt;Node2 -->
<g id="edge2" class="edge"><title>Node1&#45;&gt;Node2</title>
<path fill="none" stroke="midnightblue" d="M152,-179.083C152,-172.006 152,-161.861 152,-152.986"/>
<polygon fill="midnightblue" stroke="midnightblue" points="155.5,-152.751 152,-142.751 148.5,-152.751 155.5,-152.751"/>
</g>
<!-- Node3 -->
<g id="node4" class="node"><title>Node3</title>
<g id="a_node4"><a xlink:title=" ">
<polygon fill="white" stroke="#bfbfbf" points="0,-62 0,-81 80,-81 80,-62 0,-62"/>
<text text-anchor="middle" x="40" y="-69" font-family="Helvetica,sans-Serif" font-size="10.00">boost/asio.hpp</text>
</a>
</g>
</g>
<!-- Node2&#45;&gt;Node3 -->
<g id="edge3" class="edge"><title>Node2&#45;&gt;Node3</title>
<path fill="none" stroke="midnightblue" d="M135.953,-123.475C117.407,-113.622 86.6602,-97.2883 64.9783,-85.7697"/>
<polygon fill="midnightblue" stroke="midnightblue" points="66.4903,-82.6098 56.0171,-81.0091 63.2062,-88.7916 66.4903,-82.6098"/>
</g>
<!-- Node4 -->
<g id="node5" class="node"><title>Node4</title>
<g id="a_node5"><a xlink:title=" ">
<polygon fill="white" stroke="#bfbfbf" points="98.5,-56.5 98.5,-86.5 205.5,-86.5 205.5,-56.5 98.5,-56.5"/>
<text text-anchor="start" x="106.5" y="-74.5" font-family="Helvetica,sans-Serif" font-size="10.00">boost/enable_shared</text>
<text text-anchor="middle" x="152" y="-63.5" font-family="Helvetica,sans-Serif" font-size="10.00">_from_this.hpp</text>
</a>
</g>
</g>
<!-- Node2&#45;&gt;Node4 -->
<g id="edge4" class="edge"><title>Node2&#45;&gt;Node4</title>
<path fill="none" stroke="midnightblue" d="M152,-123.475C152,-116.471 152,-106.192 152,-96.6956"/>
<polygon fill="midnightblue" stroke="midnightblue" points="155.5,-96.5229 152,-86.523 148.5,-96.523 155.5,-96.5229"/>
</g>
<!-- Node5 -->
<g id="node6" class="node"><title>Node5</title>
<g id="a_node6"><a xlink:href="server_2src_2_mini_d_b_8h.html" target="_top" xlink:title="Облегчённый класс для работы с бд">
<polygon fill="white" stroke="black" points="224,-62 224,-81 280,-81 280,-62 224,-62"/>
<text text-anchor="middle" x="252" y="-69" font-family="Helvetica,sans-Serif" font-size="10.00">MiniDB.h</text>
</a>
</g>
</g>
<!-- Node2&#45;&gt;Node5 -->
<g id="edge5" class="edge"><title>Node2&#45;&gt;Node5</title>
<path fill="none" stroke="midnightblue" d="M166.328,-123.475C182.664,-113.755 209.602,-97.7266 228.912,-86.2372"/>
<polygon fill="midnightblue" stroke="midnightblue" points="230.895,-89.1303 237.699,-81.0091 227.315,-83.1146 230.895,-89.1303"/>
</g>
<!-- Node6 -->
<g id="node7" class="node"><title>Node6</title>
<g id="a_node7"><a xlink:title=" ">
<polygon fill="white" stroke="#bfbfbf" points="166.5,-0.5 166.5,-19.5 207.5,-19.5 207.5,-0.5 166.5,-0.5"/>
<text text-anchor="middle" x="187" y="-7.5" font-family="Helvetica,sans-Serif" font-size="10.00">string</text>
</a>
</g>
</g>
<!-- Node5&#45;&gt;Node6 -->
<g id="edge6" class="edge"><title>Node5&#45;&gt;Node6</title>
<path fill="none" stroke="midnightblue" d="M242.687,-61.9751C232.551,-52.6966 216.136,-37.6706 203.748,-26.331"/>
<polygon fill="midnightblue" stroke="midnightblue" points="206.035,-23.6795 196.296,-19.5091 201.309,-28.8429 206.035,-23.6795"/>
</g>
<!-- Node7 -->
<g id="node8" class="node"><title>Node7</title>
<g id="a_node8"><a xlink:title=" ">
<polygon fill="white" stroke="#bfbfbf" points="225.5,-0.5 225.5,-19.5 278.5,-19.5 278.5,-0.5 225.5,-0.5"/>
<text text-anchor="middle" x="252" y="-7.5" font-family="Helvetica,sans-Serif" font-size="10.00">sqlite3.h</text>
</a>
</g>
</g>
<!-- Node5&#45;&gt;Node7 -->
<g id="edge7" class="edge"><title>Node5&#45;&gt;Node7</title>
<path fill="none" stroke="midnightblue" d="M252,-61.9751C252,-53.5803 252,-40.4806 252,-29.6631"/>
<polygon fill="midnightblue" stroke="midnightblue" points="255.5,-29.5091 252,-19.5091 248.5,-29.5091 255.5,-29.5091"/>
</g>
<!-- Node8 -->
<g id="node9" class="node"><title>Node8</title>
<g id="a_node9"><a xlink:href="_battleship_royale_8h.html" target="_top" xlink:title="Заголовочный файл с пространством имён, которое хранит в себе константы.">
<polygon fill="white" stroke="black" points="297,-0.5 297,-19.5 395,-19.5 395,-0.5 297,-0.5"/>
<text text-anchor="middle" x="346" y="-7.5" font-family="Helvetica,sans-Serif" font-size="10.00">BattleshipRoyale.h</text>
</a>
</g>
</g>
<!-- Node5&#45;&gt;Node8 -->
<g id="edge8" class="edge"><title>Node5&#45;&gt;Node8</title>
<path fill="none" stroke="midnightblue" d="M265.468,-61.9751C280.685,-52.3431 305.687,-36.5175 323.801,-25.0517"/>
<polygon fill="midnightblue" stroke="midnightblue" points="325.979,-27.8149 332.557,-19.5091 322.236,-21.9002 325.979,-27.8149"/>
</g>
</g>
</svg>
