<?xml version="1.0" encoding="UTF-8" standalone="no"?>
<!DOCTYPE svg PUBLIC "-//W3C//DTD SVG 1.1//EN"
 "http://www.w3.org/Graphics/SVG/1.1/DTD/svg11.dtd">
<!-- Generated by graphviz version 2.38.0 (20140413.2041)
 -->
<!-- Title: src/server/src/Server.h Pages: 1 -->
<svg width="448pt" height="263pt"
 viewBox="0.00 0.00 448.00 263.00" xmlns="http://www.w3.org/2000/svg" xmlns:xlink="http://www.w3.org/1999/xlink">
<g id="graph0" class="graph" transform="scale(1 1) rotate(0) translate(4 259)">
<title>src/server/src/Server.h</title>
<polygon fill="white" stroke="none" points="-4,4 -4,-259 444,-259 444,4 -4,4"/>
<!-- Node0 -->
<g id="node1" class="node"><title>Node0</title>
<g id="a_node1"><a xlink:title="Асинхронный сервер написанный на boost asio.">
<polygon fill="#bfbfbf" stroke="black" points="95.5,-235.5 95.5,-254.5 208.5,-254.5 208.5,-235.5 95.5,-235.5"/>
<text text-anchor="middle" x="152" y="-242.5" font-family="Helvetica,sans-Serif" font-size="10.00">src/server/src/Server.h</text>
</a>
</g>
</g>
<!-- Node1 -->
<g id="node2" class="node"><title>Node1</title>
<g id="a_node2"><a xlink:href="server_2src_2con__handler_8h.html" target="_top" xlink:title="handler">
<polygon fill="white" stroke="black" points="113.5,-179.5 113.5,-198.5 190.5,-198.5 190.5,-179.5 113.5,-179.5"/>
<text text-anchor="middle" x="152" y="-186.5" font-family="Helvetica,sans-Serif" font-size="10.00">con_handler.h</text>
</a>
</g>
</g>
<!-- Node0&#45;&gt;Node1 -->
<g id="edge1" class="edge"><title>Node0&#45;&gt;Node1</title>
<path fill="none" stroke="midnightblue" d="M152,-235.083C152,-228.006 152,-217.861 152,-208.986"/>
<polygon fill="midnightblue" stroke="midnightblue" points="155.5,-208.751 152,-198.751 148.5,-208.751 155.5,-208.751"/>
</g>
<!-- Node2 -->
<g id="node3" class="node"><title>Node2</title>
<g id="a_node3"><a xlink:title=" ">
<polygon fill="white" stroke="#bfbfbf" points="0,-118 0,-137 80,-137 80,-118 0,-118"/>
<text text-anchor="middle" x="40" y="-125" font-family="Helvetica,sans-Serif" font-size="10.00">boost/asio.hpp</text>
</a>
</g>
</g>
<!-- Node1&#45;&gt;Node2 -->
<g id="edge2" class="edge"><title>Node1&#45;&gt;Node2</title>
<path fill="none" stroke="midnightblue" d="M135.953,-179.475C117.407,-169.622 86.6602,-153.288 64.9783,-141.77"/>
<polygon fill="midnightblue" stroke="midnightblue" points="66.4903,-138.61 56.0171,-137.009 63.2062,-144.792 66.4903,-138.61"/>
</g>
<!-- Node3 -->
<g id="node4" class="node"><title>Node3</title>
<g id="a_node4"><a xlink:title=" ">
<polygon fill="white" stroke="#bfbfbf" points="98.5,-112.5 98.5,-142.5 205.5,-142.5 205.5,-112.5 98.5,-112.5"/>
<text text-anchor="start" x="106.5" y="-130.5" font-family="Helvetica,sans-Serif" font-size="10.00">boost/enable_shared</text>
<text text-anchor="middle" x="152" y="-119.5" font-family="Helvetica,sans-Serif" font-size="10.00">_from_this.hpp</text>
</a>
</g>
</g>
<!-- Node1&#45;&gt;Node3 -->
<g id="edge3" class="edge"><title>Node1&#45;&gt;Node3</title>
<path fill="none" stroke="midnightblue" d="M152,-179.475C152,-172.471 152,-162.192 152,-152.696"/>
<polygon fill="midnightblue" stroke="midnightblue" points="155.5,-152.523 152,-142.523 148.5,-152.523 155.5,-152.523"/>
</g>
<!-- Node4 -->
<g id="node5" class="node"><title>Node4</title>
<g id="a_node5"><a xlink:href="_processing_8h.html" target="_top" xlink:title="Обработка запросов">
<polygon fill="white" stroke="black" points="224,-118 224,-137 298,-137 298,-118 224,-118"/>
<text text-anchor="middle" x="261" y="-125" font-family="Helvetica,sans-Serif" font-size="10.00">Processing.h</text>
</a>
</g>
</g>
<!-- Node1&#45;&gt;Node4 -->
<g id="edge4" class="edge"><title>Node1&#45;&gt;Node4</title>
<path fill="none" stroke="midnightblue" d="M167.617,-179.475C185.586,-169.666 215.321,-153.435 236.406,-141.925"/>
<polygon fill="midnightblue" stroke="midnightblue" points="238.311,-144.873 245.412,-137.009 234.958,-138.728 238.311,-144.873"/>
</g>
<!-- Node5 -->
<g id="node6" class="node"><title>Node5</title>
<g id="a_node6"><a xlink:href="server_2src_2_mini_d_b_8h.html" target="_top" xlink:title="Облегчённый класс для работы с бд">
<polygon fill="white" stroke="black" points="274,-56.5 274,-75.5 330,-75.5 330,-56.5 274,-56.5"/>
<text text-anchor="middle" x="302" y="-63.5" font-family="Helvetica,sans-Serif" font-size="10.00">MiniDB.h</text>
</a>
</g>
</g>
<!-- Node4&#45;&gt;Node5 -->
<g id="edge5" class="edge"><title>Node4&#45;&gt;Node5</title>
<path fill="none" stroke="midnightblue" d="M266.874,-117.975C272.963,-109.138 282.645,-95.0886 290.303,-83.975"/>
<polygon fill="midnightblue" stroke="midnightblue" points="293.344,-85.7294 296.137,-75.5091 287.58,-81.7575 293.344,-85.7294"/>
</g>
<!-- Node9 -->
<g id="node10" class="node"><title>Node9</title>
<g id="a_node10"><a xlink:href="_mem_d_buid_8h.html" target="_top" xlink:title="Облегчённый класс для работы с бд в памяти">
<polygon fill="white" stroke="black" points="182.5,-56.5 182.5,-75.5 255.5,-75.5 255.5,-56.5 182.5,-56.5"/>
<text text-anchor="middle" x="219" y="-63.5" font-family="Helvetica,sans-Serif" font-size="10.00">MemDBuid.h</text>
</a>
</g>
</g>
<!-- Node4&#45;&gt;Node9 -->
<g id="edge9" class="edge"><title>Node4&#45;&gt;Node9</title>
<path fill="none" stroke="midnightblue" d="M254.982,-117.975C248.745,-109.138 238.827,-95.0886 230.982,-83.975"/>
<polygon fill="midnightblue" stroke="midnightblue" points="233.633,-81.6604 225.006,-75.5091 227.914,-85.6972 233.633,-81.6604"/>
</g>
<!-- Node6 -->
<g id="node7" class="node"><title>Node6</title>
<g id="a_node7"><a xlink:title=" ">
<polygon fill="white" stroke="#bfbfbf" points="207.5,-0.5 207.5,-19.5 248.5,-19.5 248.5,-0.5 207.5,-0.5"/>
<text text-anchor="middle" x="228" y="-7.5" font-family="Helvetica,sans-Serif" font-size="10.00">string</text>
</a>
</g>
</g>
<!-- Node5&#45;&gt;Node6 -->
<g id="edge6" class="edge"><title>Node5&#45;&gt;Node6</title>
<path fill="none" stroke="midnightblue" d="M290.111,-56.324C278.85,-48.1066 261.713,-35.6017 248.291,-25.8069"/>
<polygon fill="midnightblue" stroke="midnightblue" points="250.247,-22.9014 240.106,-19.8339 246.12,-28.5559 250.247,-22.9014"/>
</g>
<!-- Node7 -->
<g id="node8" class="node"><title>Node7</title>
<g id="a_node8"><a xlink:title=" ">
<polygon fill="white" stroke="#bfbfbf" points="270.5,-0.5 270.5,-19.5 323.5,-19.5 323.5,-0.5 270.5,-0.5"/>
<text text-anchor="middle" x="297" y="-7.5" font-family="Helvetica,sans-Serif" font-size="10.00">sqlite3.h</text>
</a>
</g>
</g>
<!-- Node5&#45;&gt;Node7 -->
<g id="edge7" class="edge"><title>Node5&#45;&gt;Node7</title>
<path fill="none" stroke="midnightblue" d="M301.174,-56.083C300.519,-49.0059 299.58,-38.8611 298.758,-29.9865"/>
<polygon fill="midnightblue" stroke="midnightblue" points="302.217,-29.3858 297.81,-19.7511 295.247,-30.0312 302.217,-29.3858"/>
</g>
<!-- Node8 -->
<g id="node9" class="node"><title>Node8</title>
<g id="a_node9"><a xlink:href="_battleship_royale_8h.html" target="_top" xlink:title="Заголовочный файл с пространством имён, которое хранит в себе константы.">
<polygon fill="white" stroke="black" points="342,-0.5 342,-19.5 440,-19.5 440,-0.5 342,-0.5"/>
<text text-anchor="middle" x="391" y="-7.5" font-family="Helvetica,sans-Serif" font-size="10.00">BattleshipRoyale.h</text>
</a>
</g>
</g>
<!-- Node5&#45;&gt;Node8 -->
<g id="edge8" class="edge"><title>Node5&#45;&gt;Node8</title>
<path fill="none" stroke="midnightblue" d="M316.299,-56.324C330.183,-47.9002 351.492,-34.9709 367.804,-25.0741"/>
<polygon fill="midnightblue" stroke="midnightblue" points="370.002,-27.8341 376.736,-19.6545 366.371,-21.8495 370.002,-27.8341"/>
</g>
<!-- Node9&#45;&gt;Node6 -->
<g id="edge10" class="edge"><title>Node9&#45;&gt;Node6</title>
<path fill="none" stroke="midnightblue" d="M220.486,-56.083C221.679,-48.9272 223.394,-38.6353 224.885,-29.6911"/>
<polygon fill="midnightblue" stroke="midnightblue" points="228.35,-30.1904 226.541,-19.7511 221.445,-29.0396 228.35,-30.1904"/>
</g>
</g>
</svg>
