<?xml version="1.0" encoding="UTF-8" standalone="no"?>
<!DOCTYPE svg PUBLIC "-//W3C//DTD SVG 1.1//EN"
 "http://www.w3.org/Graphics/SVG/1.1/DTD/svg11.dtd">
<!-- Generated by graphviz version 2.38.0 (20140413.2041)
 -->
<!-- Title: Processing.cpp Pages: 1 -->
<svg width="249pt" height="196pt"
 viewBox="0.00 0.00 248.75 196.00" xmlns="http://www.w3.org/2000/svg" xmlns:xlink="http://www.w3.org/1999/xlink">
<g id="graph0" class="graph" transform="scale(1 1) rotate(0) translate(4 192)">
<title>Processing.cpp</title>
<polygon fill="white" stroke="none" points="-4,4 -4,-192 244.748,-192 244.748,4 -4,4"/>
<!-- Node0 -->
<g id="node1" class="node"><title>Node0</title>
<g id="a_node1"><a xlink:title="Обработка запросов">
<polygon fill="#bfbfbf" stroke="black" points="31.7475,-168.5 31.7475,-187.5 115.748,-187.5 115.748,-168.5 31.7475,-168.5"/>
<text text-anchor="middle" x="73.7475" y="-175.5" font-family="Helvetica,sans-Serif" font-size="10.00">Processing.cpp</text>
</a>
</g>
</g>
<!-- Node1 -->
<g id="node2" class="node"><title>Node1</title>
<g id="a_node2"><a xlink:href="_processing_8h.html" target="_top" xlink:title="Обработка запросов">
<polygon fill="white" stroke="black" points="71.7475,-112.5 71.7475,-131.5 145.748,-131.5 145.748,-112.5 71.7475,-112.5"/>
<text text-anchor="middle" x="108.748" y="-119.5" font-family="Helvetica,sans-Serif" font-size="10.00">Processing.h</text>
</a>
</g>
</g>
<!-- Node0&#45;&gt;Node1 -->
<g id="edge1" class="edge"><title>Node0&#45;&gt;Node1</title>
<path fill="none" stroke="midnightblue" d="M79.5271,-168.083C84.4199,-160.534 91.575,-149.495 97.5801,-140.23"/>
<polygon fill="midnightblue" stroke="midnightblue" points="100.574,-142.046 103.076,-131.751 94.6995,-138.239 100.574,-142.046"/>
</g>
<!-- Node3 -->
<g id="node4" class="node"><title>Node3</title>
<g id="a_node4"><a xlink:title=" ">
<polygon fill="white" stroke="#bfbfbf" points="12.2475,-0.5 12.2475,-19.5 53.2475,-19.5 53.2475,-0.5 12.2475,-0.5"/>
<text text-anchor="middle" x="32.7475" y="-7.5" font-family="Helvetica,sans-Serif" font-size="10.00">string</text>
</a>
</g>
</g>
<!-- Node0&#45;&gt;Node3 -->
<g id="edge6" class="edge"><title>Node0&#45;&gt;Node3</title>
<path fill="none" stroke="midnightblue" d="M64.6036,-168.349C48.1915,-152.115 14.2812,-115.174 1.74754,-76 -3.76249,-58.7784 6.84709,-40.2698 17.1216,-27.4249"/>
<polygon fill="midnightblue" stroke="midnightblue" points="20.0684,-29.3692 23.9789,-19.5225 14.7814,-24.7814 20.0684,-29.3692"/>
</g>
<!-- Node5 -->
<g id="node6" class="node"><title>Node5</title>
<g id="a_node6"><a xlink:href="_battleship_royale_8h.html" target="_top" xlink:title="Заголовочный файл с пространством имён, которое хранит в себе константы.">
<polygon fill="white" stroke="black" points="142.748,-0.5 142.748,-19.5 240.748,-19.5 240.748,-0.5 142.748,-0.5"/>
<text text-anchor="middle" x="191.748" y="-7.5" font-family="Helvetica,sans-Serif" font-size="10.00">BattleshipRoyale.h</text>
</a>
</g>
</g>
<!-- Node0&#45;&gt;Node5 -->
<g id="edge9" class="edge"><title>Node0&#45;&gt;Node5</title>
<path fill="none" stroke="midnightblue" d="M99.8435,-168.44C117.685,-161.326 140.582,-149.509 154.748,-132 179.19,-101.788 187.52,-55.5496 190.334,-29.8618"/>
<polygon fill="midnightblue" stroke="midnightblue" points="193.844,-29.9159 191.277,-19.6368 186.873,-29.2731 193.844,-29.9159"/>
</g>
<!-- Node6 -->
<g id="node7" class="node"><title>Node6</title>
<g id="a_node7"><a xlink:href="_regex_8h.html" target="_top" xlink:title="Работа с регулярными выражениями">
<polygon fill="white" stroke="black" points="11.2475,-56.5 11.2475,-75.5 64.2475,-75.5 64.2475,-56.5 11.2475,-56.5"/>
<text text-anchor="middle" x="37.7475" y="-63.5" font-family="Helvetica,sans-Serif" font-size="10.00">Regex.h</text>
</a>
</g>
</g>
<!-- Node0&#45;&gt;Node6 -->
<g id="edge7" class="edge"><title>Node0&#45;&gt;Node6</title>
<path fill="none" stroke="midnightblue" d="M70.9227,-168.368C65.0868,-150.537 51.5896,-109.295 43.7274,-85.2717"/>
<polygon fill="midnightblue" stroke="midnightblue" points="46.9961,-84.0067 40.5593,-75.5914 40.3433,-86.1841 46.9961,-84.0067"/>
</g>
<!-- Node2 -->
<g id="node3" class="node"><title>Node2</title>
<g id="a_node3"><a xlink:href="server_2src_2_mini_d_b_8h.html" target="_top" xlink:title="Облегчённый класс для работы с бд">
<polygon fill="white" stroke="black" points="82.7475,-56.5 82.7475,-75.5 138.748,-75.5 138.748,-56.5 82.7475,-56.5"/>
<text text-anchor="middle" x="110.748" y="-63.5" font-family="Helvetica,sans-Serif" font-size="10.00">MiniDB.h</text>
</a>
</g>
</g>
<!-- Node1&#45;&gt;Node2 -->
<g id="edge2" class="edge"><title>Node1&#45;&gt;Node2</title>
<path fill="none" stroke="midnightblue" d="M109.078,-112.083C109.34,-105.006 109.716,-94.8611 110.044,-85.9865"/>
<polygon fill="midnightblue" stroke="midnightblue" points="113.551,-85.8738 110.423,-75.7511 106.556,-85.6147 113.551,-85.8738"/>
</g>
<!-- Node2&#45;&gt;Node3 -->
<g id="edge3" class="edge"><title>Node2&#45;&gt;Node3</title>
<path fill="none" stroke="midnightblue" d="M98.2155,-56.324C86.1616,-47.979 67.7207,-35.2122 53.4788,-25.3524"/>
<polygon fill="midnightblue" stroke="midnightblue" points="55.4627,-22.469 45.2485,-19.6545 51.4782,-28.2243 55.4627,-22.469"/>
</g>
<!-- Node4 -->
<g id="node5" class="node"><title>Node4</title>
<g id="a_node5"><a xlink:title=" ">
<polygon fill="white" stroke="#bfbfbf" points="71.2475,-0.5 71.2475,-19.5 124.248,-19.5 124.248,-0.5 71.2475,-0.5"/>
<text text-anchor="middle" x="97.7475" y="-7.5" font-family="Helvetica,sans-Serif" font-size="10.00">sqlite3.h</text>
</a>
</g>
</g>
<!-- Node2&#45;&gt;Node4 -->
<g id="edge4" class="edge"><title>Node2&#45;&gt;Node4</title>
<path fill="none" stroke="midnightblue" d="M108.601,-56.083C106.878,-48.9272 104.4,-38.6353 102.247,-29.6911"/>
<polygon fill="midnightblue" stroke="midnightblue" points="105.598,-28.6541 99.8543,-19.7511 98.7921,-30.2925 105.598,-28.6541"/>
</g>
<!-- Node2&#45;&gt;Node5 -->
<g id="edge5" class="edge"><title>Node2&#45;&gt;Node5</title>
<path fill="none" stroke="midnightblue" d="M123.762,-56.324C136.279,-47.979 155.429,-35.2122 170.219,-25.3524"/>
<polygon fill="midnightblue" stroke="midnightblue" points="172.387,-28.1137 178.766,-19.6545 168.504,-22.2894 172.387,-28.1137"/>
</g>
<!-- Node6&#45;&gt;Node3 -->
<g id="edge8" class="edge"><title>Node6&#45;&gt;Node3</title>
<path fill="none" stroke="midnightblue" d="M36.9219,-56.083C36.2666,-49.0059 35.3273,-38.8611 34.5055,-29.9865"/>
<polygon fill="midnightblue" stroke="midnightblue" points="37.965,-29.3858 33.5578,-19.7511 30.9948,-30.0312 37.965,-29.3858"/>
</g>
</g>
</svg>
