<?xml version="1.0" encoding="UTF-8" standalone="no"?>
<!DOCTYPE svg PUBLIC "-//W3C//DTD SVG 1.1//EN"
 "http://www.w3.org/Graphics/SVG/1.1/DTD/svg11.dtd">
<!-- Generated by graphviz version 2.38.0 (20140413.2041)
 -->
<!-- Title: src/server/src/con_handler.h Pages: 1 -->
<svg width="986pt" height="274pt"
 viewBox="0.00 0.00 986.00 274.00" xmlns="http://www.w3.org/2000/svg" xmlns:xlink="http://www.w3.org/1999/xlink">
<g id="graph0" class="graph" transform="scale(1 1) rotate(0) translate(4 270)">
<title>src/server/src/con_handler.h</title>
<polygon fill="white" stroke="none" points="-4,4 -4,-270 982,-270 982,4 -4,4"/>
<!-- Node0 -->
<g id="node1" class="node"><title>Node0</title>
<g id="a_node1"><a xlink:title="handler">
<polygon fill="#bfbfbf" stroke="black" points="105,-235.5 105,-265.5 199,-265.5 199,-235.5 105,-235.5"/>
<text text-anchor="start" x="113" y="-253.5" font-family="Helvetica,sans-Serif" font-size="10.00">src/server/src/con</text>
<text text-anchor="middle" x="152" y="-242.5" font-family="Helvetica,sans-Serif" font-size="10.00">_handler.h</text>
</a>
</g>
</g>
<!-- Node1 -->
<g id="node2" class="node"><title>Node1</title>
<g id="a_node2"><a xlink:title=" ">
<polygon fill="white" stroke="#bfbfbf" points="0,-174 0,-193 80,-193 80,-174 0,-174"/>
<text text-anchor="middle" x="40" y="-181" font-family="Helvetica,sans-Serif" font-size="10.00">boost/asio.hpp</text>
</a>
</g>
</g>
<!-- Node0&#45;&gt;Node1 -->
<g id="edge1" class="edge"><title>Node0&#45;&gt;Node1</title>
<path fill="none" stroke="midnightblue" d="M127.698,-235.396C108.655,-224.344 82.32,-209.061 63.4889,-198.132"/>
<polygon fill="midnightblue" stroke="midnightblue" points="65.064,-194.999 54.6582,-193.007 61.5504,-201.054 65.064,-194.999"/>
</g>
<!-- Node2 -->
<g id="node3" class="node"><title>Node2</title>
<g id="a_node3"><a xlink:title=" ">
<polygon fill="white" stroke="#bfbfbf" points="98.5,-168.5 98.5,-198.5 205.5,-198.5 205.5,-168.5 98.5,-168.5"/>
<text text-anchor="start" x="106.5" y="-186.5" font-family="Helvetica,sans-Serif" font-size="10.00">boost/enable_shared</text>
<text text-anchor="middle" x="152" y="-175.5" font-family="Helvetica,sans-Serif" font-size="10.00">_from_this.hpp</text>
</a>
</g>
</g>
<!-- Node0&#45;&gt;Node2 -->
<g id="edge2" class="edge"><title>Node0&#45;&gt;Node2</title>
<path fill="none" stroke="midnightblue" d="M152,-235.396C152,-227.645 152,-217.812 152,-208.86"/>
<polygon fill="midnightblue" stroke="midnightblue" points="155.5,-208.576 152,-198.577 148.5,-208.577 155.5,-208.576"/>
</g>
<!-- Node3 -->
<g id="node4" class="node"><title>Node3</title>
<g id="a_node4"><a xlink:href="_processing_8h.html" target="_top" xlink:title="Обработка запросов">
<polygon fill="white" stroke="black" points="224,-174 224,-193 298,-193 298,-174 224,-174"/>
<text text-anchor="middle" x="261" y="-181" font-family="Helvetica,sans-Serif" font-size="10.00">Processing.h</text>
</a>
</g>
</g>
<!-- Node0&#45;&gt;Node3 -->
<g id="edge3" class="edge"><title>Node0&#45;&gt;Node3</title>
<path fill="none" stroke="midnightblue" d="M175.651,-235.396C194.184,-224.344 219.814,-209.061 238.14,-198.132"/>
<polygon fill="midnightblue" stroke="midnightblue" points="239.938,-201.135 246.734,-193.007 236.353,-195.123 239.938,-201.135"/>
</g>
<!-- Node4 -->
<g id="node5" class="node"><title>Node4</title>
<g id="a_node5"><a xlink:href="server_2src_2_mini_d_b_8h.html" target="_top" xlink:title="Облегчённый класс для работы с бд">
<polygon fill="white" stroke="black" points="274,-112.5 274,-131.5 330,-131.5 330,-112.5 274,-112.5"/>
<text text-anchor="middle" x="302" y="-119.5" font-family="Helvetica,sans-Serif" font-size="10.00">MiniDB.h</text>
</a>
</g>
</g>
<!-- Node3&#45;&gt;Node4 -->
<g id="edge4" class="edge"><title>Node3&#45;&gt;Node4</title>
<path fill="none" stroke="midnightblue" d="M266.874,-173.975C272.963,-165.138 282.645,-151.089 290.303,-139.975"/>
<polygon fill="midnightblue" stroke="midnightblue" points="293.344,-141.729 296.137,-131.509 287.58,-137.758 293.344,-141.729"/>
</g>
<!-- Node13 -->
<g id="node14" class="node"><title>Node13</title>
<g id="a_node14"><a xlink:href="_mem_d_buid_8h.html" target="_top" xlink:title="Облегчённый класс для работы с бд в памяти">
<polygon fill="white" stroke="black" points="182.5,-112.5 182.5,-131.5 255.5,-131.5 255.5,-112.5 182.5,-112.5"/>
<text text-anchor="middle" x="219" y="-119.5" font-family="Helvetica,sans-Serif" font-size="10.00">MemDBuid.h</text>
</a>
</g>
</g>
<!-- Node3&#45;&gt;Node13 -->
<g id="edge14" class="edge"><title>Node3&#45;&gt;Node13</title>
<path fill="none" stroke="midnightblue" d="M254.982,-173.975C248.745,-165.138 238.827,-151.089 230.982,-139.975"/>
<polygon fill="midnightblue" stroke="midnightblue" points="233.633,-137.66 225.006,-131.509 227.914,-141.697 233.633,-137.66"/>
</g>
<!-- Node5 -->
<g id="node6" class="node"><title>Node5</title>
<g id="a_node6"><a xlink:title=" ">
<polygon fill="white" stroke="#bfbfbf" points="206.5,-56.5 206.5,-75.5 247.5,-75.5 247.5,-56.5 206.5,-56.5"/>
<text text-anchor="middle" x="227" y="-63.5" font-family="Helvetica,sans-Serif" font-size="10.00">string</text>
</a>
</g>
</g>
<!-- Node4&#45;&gt;Node5 -->
<g id="edge5" class="edge"><title>Node4&#45;&gt;Node5</title>
<path fill="none" stroke="midnightblue" d="M289.95,-112.324C278.537,-104.107 261.169,-91.6017 247.565,-81.8069"/>
<polygon fill="midnightblue" stroke="midnightblue" points="249.43,-78.8366 239.269,-75.8339 245.34,-84.5174 249.43,-78.8366"/>
</g>
<!-- Node6 -->
<g id="node7" class="node"><title>Node6</title>
<g id="a_node7"><a xlink:href="sqlite3_8h.html" target="_top" xlink:title="Константы для работы с базой данных sqlite3.">
<polygon fill="white" stroke="black" points="172.5,-0.5 172.5,-19.5 225.5,-19.5 225.5,-0.5 172.5,-0.5"/>
<text text-anchor="middle" x="199" y="-7.5" font-family="Helvetica,sans-Serif" font-size="10.00">sqlite3.h</text>
</a>
</g>
</g>
<!-- Node4&#45;&gt;Node6 -->
<g id="edge6" class="edge"><title>Node4&#45;&gt;Node6</title>
<path fill="none" stroke="midnightblue" d="M297.199,-112.393C289.675,-99.3382 274.177,-74.1364 257,-56 246.105,-44.4971 232.115,-33.5545 220.604,-25.3406"/>
<polygon fill="midnightblue" stroke="midnightblue" points="222.588,-22.4568 212.378,-19.6271 218.595,-28.2062 222.588,-22.4568"/>
</g>
<!-- Node7 -->
<g id="node8" class="node"><title>Node7</title>
<g id="a_node8"><a xlink:href="_battleship_royale_8h.html" target="_top" xlink:title="Заголовочный файл с пространством имён, которое хранит в себе константы.">
<polygon fill="white" stroke="black" points="416,-56.5 416,-75.5 514,-75.5 514,-56.5 416,-56.5"/>
<text text-anchor="middle" x="465" y="-63.5" font-family="Helvetica,sans-Serif" font-size="10.00">BattleshipRoyale.h</text>
</a>
</g>
</g>
<!-- Node4&#45;&gt;Node7 -->
<g id="edge7" class="edge"><title>Node4&#45;&gt;Node7</title>
<path fill="none" stroke="midnightblue" d="M327.828,-112.444C355.249,-103.359 398.777,-88.9388 429.432,-78.7831"/>
<polygon fill="midnightblue" stroke="midnightblue" points="430.901,-81.9837 439.293,-75.5164 428.7,-75.3389 430.901,-81.9837"/>
</g>
<!-- Node7&#45;&gt;Node6 -->
<g id="edge10" class="edge"><title>Node7&#45;&gt;Node6</title>
<path fill="none" stroke="midnightblue" d="M417.718,-56.4893C373.3,-48.3282 304.749,-35.309 235.863,-20.0982"/>
<polygon fill="midnightblue" stroke="midnightblue" points="236.221,-16.5924 225.7,-17.8383 234.702,-23.4255 236.221,-16.5924"/>
</g>
<!-- Node8 -->
<g id="node9" class="node"><title>Node8</title>
<g id="a_node9"><a xlink:href="_version_8h.html" target="_top" xlink:title="Версия программы">
<polygon fill="white" stroke="black" points="244,-0.5 244,-19.5 378,-19.5 378,-0.5 244,-0.5"/>
<text text-anchor="middle" x="311" y="-7.5" font-family="Helvetica,sans-Serif" font-size="10.00">BattleshipRoyale/Version.h</text>
</a>
</g>
</g>
<!-- Node7&#45;&gt;Node8 -->
<g id="edge8" class="edge"><title>Node7&#45;&gt;Node8</title>
<path fill="none" stroke="midnightblue" d="M440.598,-56.4435C414.803,-47.3986 373.923,-33.064 344.982,-22.9158"/>
<polygon fill="midnightblue" stroke="midnightblue" points="345.882,-19.5226 335.288,-19.5164 343.566,-26.1283 345.882,-19.5226"/>
</g>
<!-- Node9 -->
<g id="node10" class="node"><title>Node9</title>
<g id="a_node10"><a xlink:href="_connect_8h.html" target="_top" xlink:title="Константы с параметрами для подключения">
<polygon fill="white" stroke="black" points="396.5,-0.5 396.5,-19.5 533.5,-19.5 533.5,-0.5 396.5,-0.5"/>
<text text-anchor="middle" x="465" y="-7.5" font-family="Helvetica,sans-Serif" font-size="10.00">BattleshipRoyale/Connect.h</text>
</a>
</g>
</g>
<!-- Node7&#45;&gt;Node9 -->
<g id="edge9" class="edge"><title>Node7&#45;&gt;Node9</title>
<path fill="none" stroke="midnightblue" d="M465,-56.083C465,-49.0059 465,-38.8611 465,-29.9865"/>
<polygon fill="midnightblue" stroke="midnightblue" points="468.5,-29.751 465,-19.7511 461.5,-29.7511 468.5,-29.751"/>
</g>
<!-- Node10 -->
<g id="node11" class="node"><title>Node10</title>
<g id="a_node11"><a xlink:href="_battleship_royale_2_battleship_royale_2_console_8h.html" target="_top" xlink:title="Константы консоли">
<polygon fill="white" stroke="black" points="551.5,-0.5 551.5,-19.5 688.5,-19.5 688.5,-0.5 551.5,-0.5"/>
<text text-anchor="middle" x="620" y="-7.5" font-family="Helvetica,sans-Serif" font-size="10.00">BattleshipRoyale/Console.h</text>
</a>
</g>
</g>
<!-- Node7&#45;&gt;Node10 -->
<g id="edge11" class="edge"><title>Node7&#45;&gt;Node10</title>
<path fill="none" stroke="midnightblue" d="M489.56,-56.4435C515.523,-47.3986 556.668,-33.064 585.797,-22.9158"/>
<polygon fill="midnightblue" stroke="midnightblue" points="587.263,-26.1116 595.555,-19.5164 584.96,-19.5013 587.263,-26.1116"/>
</g>
<!-- Node11 -->
<g id="node12" class="node"><title>Node11</title>
<g id="a_node12"><a xlink:href="_battleship_royale_2_battleship_royale_2_regex_8h.html" target="_top" xlink:title="Константы регулярных выражений">
<polygon fill="white" stroke="black" points="706.5,-0.5 706.5,-19.5 835.5,-19.5 835.5,-0.5 706.5,-0.5"/>
<text text-anchor="middle" x="771" y="-7.5" font-family="Helvetica,sans-Serif" font-size="10.00">BattleshipRoyale/Regex.h</text>
</a>
</g>
</g>
<!-- Node7&#45;&gt;Node11 -->
<g id="edge12" class="edge"><title>Node7&#45;&gt;Node11</title>
<path fill="none" stroke="midnightblue" d="M513.487,-56.4435C567.539,-46.9049 654.928,-31.4834 712.673,-21.293"/>
<polygon fill="midnightblue" stroke="midnightblue" points="713.501,-24.7011 722.74,-19.5164 712.284,-17.8076 713.501,-24.7011"/>
</g>
<!-- Node12 -->
<g id="node13" class="node"><title>Node12</title>
<g id="a_node13"><a xlink:href="_code_8h.html" target="_top" xlink:title="Различные коды ответов">
<polygon fill="white" stroke="black" points="854,-0.5 854,-19.5 978,-19.5 978,-0.5 854,-0.5"/>
<text text-anchor="middle" x="916" y="-7.5" font-family="Helvetica,sans-Serif" font-size="10.00">BattleshipRoyale/Code.h</text>
</a>
</g>
</g>
<!-- Node7&#45;&gt;Node12 -->
<g id="edge13" class="edge"><title>Node7&#45;&gt;Node12</title>
<path fill="none" stroke="midnightblue" d="M514.206,-59.3038C584.75,-51.1084 718.991,-35.4062 843.567,-20.1678"/>
<polygon fill="midnightblue" stroke="midnightblue" points="844.165,-23.6208 853.666,-18.931 843.314,-16.6727 844.165,-23.6208"/>
</g>
<!-- Node13&#45;&gt;Node5 -->
<g id="edge15" class="edge"><title>Node13&#45;&gt;Node5</title>
<path fill="none" stroke="midnightblue" d="M220.321,-112.083C221.381,-104.927 222.906,-94.6353 224.231,-85.6911"/>
<polygon fill="midnightblue" stroke="midnightblue" points="227.7,-86.1561 225.704,-75.7511 220.776,-85.1302 227.7,-86.1561"/>
</g>
</g>
</svg>
