<?xml version="1.0" encoding="UTF-8" standalone="no"?>
<!DOCTYPE svg PUBLIC "-//W3C//DTD SVG 1.1//EN"
 "http://www.w3.org/Graphics/SVG/1.1/DTD/svg11.dtd">
<!-- Generated by graphviz version 2.38.0 (20140413.2041)
 -->
<!-- Title: src/server/src/Processing.cpp Pages: 1 -->
<svg width="343pt" height="196pt"
 viewBox="0.00 0.00 342.50 196.00" xmlns="http://www.w3.org/2000/svg" xmlns:xlink="http://www.w3.org/1999/xlink">
<g id="graph0" class="graph" transform="scale(1 1) rotate(0) translate(4 192)">
<title>src/server/src/Processing.cpp</title>
<polygon fill="white" stroke="none" points="-4,4 -4,-192 338.5,-192 338.5,4 -4,4"/>
<!-- Node0 -->
<g id="node1" class="node"><title>Node0</title>
<g id="a_node1"><a xlink:title="Обработка запросов">
<polygon fill="#bfbfbf" stroke="black" points="40.5,-168.5 40.5,-187.5 186.5,-187.5 186.5,-168.5 40.5,-168.5"/>
<text text-anchor="middle" x="113.5" y="-175.5" font-family="Helvetica,sans-Serif" font-size="10.00">src/server/src/Processing.cpp</text>
</a>
</g>
</g>
<!-- Node1 -->
<g id="node2" class="node"><title>Node1</title>
<g id="a_node2"><a xlink:href="_processing_8h.html" target="_top" xlink:title="Обработка запросов">
<polygon fill="white" stroke="black" points="109.5,-112.5 109.5,-131.5 183.5,-131.5 183.5,-112.5 109.5,-112.5"/>
<text text-anchor="middle" x="146.5" y="-119.5" font-family="Helvetica,sans-Serif" font-size="10.00">Processing.h</text>
</a>
</g>
</g>
<!-- Node0&#45;&gt;Node1 -->
<g id="edge1" class="edge"><title>Node0&#45;&gt;Node1</title>
<path fill="none" stroke="midnightblue" d="M118.949,-168.083C123.514,-160.613 130.168,-149.724 135.793,-140.52"/>
<polygon fill="midnightblue" stroke="midnightblue" points="138.924,-142.109 141.152,-131.751 132.951,-138.459 138.924,-142.109"/>
</g>
<!-- Node3 -->
<g id="node4" class="node"><title>Node3</title>
<g id="a_node4"><a xlink:title=" ">
<polygon fill="white" stroke="#bfbfbf" points="83,-0.5 83,-19.5 124,-19.5 124,-0.5 83,-0.5"/>
<text text-anchor="middle" x="103.5" y="-7.5" font-family="Helvetica,sans-Serif" font-size="10.00">string</text>
</a>
</g>
</g>
<!-- Node0&#45;&gt;Node3 -->
<g id="edge8" class="edge"><title>Node0&#45;&gt;Node3</title>
<path fill="none" stroke="midnightblue" d="M110.156,-168.197C106.946,-159.24 102.324,-144.883 100.5,-132 95.4128,-96.0609 98.5566,-53.5324 101.14,-29.6691"/>
<polygon fill="midnightblue" stroke="midnightblue" points="104.636,-29.904 102.324,-19.5645 97.6837,-29.0889 104.636,-29.904"/>
</g>
<!-- Node5 -->
<g id="node6" class="node"><title>Node5</title>
<g id="a_node6"><a xlink:href="_battleship_royale_8h.html" target="_top" xlink:title="Заголовочный файл с пространством имён, которое хранит в себе константы.">
<polygon fill="white" stroke="black" points="236.5,-0.5 236.5,-19.5 334.5,-19.5 334.5,-0.5 236.5,-0.5"/>
<text text-anchor="middle" x="285.5" y="-7.5" font-family="Helvetica,sans-Serif" font-size="10.00">BattleshipRoyale.h</text>
</a>
</g>
</g>
<!-- Node0&#45;&gt;Node5 -->
<g id="edge11" class="edge"><title>Node0&#45;&gt;Node5</title>
<path fill="none" stroke="midnightblue" d="M136.499,-168.4C170.506,-154.449 233.706,-123.558 266.5,-76 275.99,-62.2378 280.799,-43.7113 283.2,-29.9583"/>
<polygon fill="midnightblue" stroke="midnightblue" points="286.711,-30.1403 284.7,-19.738 279.785,-29.1238 286.711,-30.1403"/>
</g>
<!-- Node7 -->
<g id="node8" class="node"><title>Node7</title>
<g id="a_node8"><a xlink:href="_regex_8h.html" target="_top" xlink:title="Работа с регулярными выражениями">
<polygon fill="white" stroke="black" points="0,-112.5 0,-131.5 53,-131.5 53,-112.5 0,-112.5"/>
<text text-anchor="middle" x="26.5" y="-119.5" font-family="Helvetica,sans-Serif" font-size="10.00">Regex.h</text>
</a>
</g>
</g>
<!-- Node0&#45;&gt;Node7 -->
<g id="edge9" class="edge"><title>Node0&#45;&gt;Node7</title>
<path fill="none" stroke="midnightblue" d="M99.5219,-168.324C85.9504,-159.9 65.1198,-146.971 49.175,-137.074"/>
<polygon fill="midnightblue" stroke="midnightblue" points="50.7856,-133.954 40.4434,-131.655 47.094,-139.902 50.7856,-133.954"/>
</g>
<!-- Node2 -->
<g id="node3" class="node"><title>Node2</title>
<g id="a_node3"><a xlink:href="server_2src_2_mini_d_b_8h.html" target="_top" xlink:title="Облегчённый класс для работы с бд">
<polygon fill="white" stroke="black" points="201.5,-56.5 201.5,-75.5 257.5,-75.5 257.5,-56.5 201.5,-56.5"/>
<text text-anchor="middle" x="229.5" y="-63.5" font-family="Helvetica,sans-Serif" font-size="10.00">MiniDB.h</text>
</a>
</g>
</g>
<!-- Node1&#45;&gt;Node2 -->
<g id="edge2" class="edge"><title>Node1&#45;&gt;Node2</title>
<path fill="none" stroke="midnightblue" d="M159.835,-112.324C172.662,-103.979 192.285,-91.2122 207.44,-81.3524"/>
<polygon fill="midnightblue" stroke="midnightblue" points="209.724,-84.0417 216.198,-75.6545 205.907,-78.1742 209.724,-84.0417"/>
</g>
<!-- Node6 -->
<g id="node7" class="node"><title>Node6</title>
<g id="a_node7"><a xlink:href="_mem_d_buid_8h.html" target="_top" xlink:title="Облегчённый класс для работы с бд в памяти">
<polygon fill="white" stroke="black" points="110,-56.5 110,-75.5 183,-75.5 183,-56.5 110,-56.5"/>
<text text-anchor="middle" x="146.5" y="-63.5" font-family="Helvetica,sans-Serif" font-size="10.00">MemDBuid.h</text>
</a>
</g>
</g>
<!-- Node1&#45;&gt;Node6 -->
<g id="edge6" class="edge"><title>Node1&#45;&gt;Node6</title>
<path fill="none" stroke="midnightblue" d="M146.5,-112.083C146.5,-105.006 146.5,-94.8611 146.5,-85.9865"/>
<polygon fill="midnightblue" stroke="midnightblue" points="150,-85.751 146.5,-75.7511 143,-85.7511 150,-85.751"/>
</g>
<!-- Node2&#45;&gt;Node3 -->
<g id="edge3" class="edge"><title>Node2&#45;&gt;Node3</title>
<path fill="none" stroke="midnightblue" d="M209.535,-56.4435C188.891,-47.5961 156.437,-33.6875 132.868,-23.5865"/>
<polygon fill="midnightblue" stroke="midnightblue" points="133.942,-20.2387 123.372,-19.5164 131.184,-26.6727 133.942,-20.2387"/>
</g>
<!-- Node4 -->
<g id="node5" class="node"><title>Node4</title>
<g id="a_node5"><a xlink:title=" ">
<polygon fill="white" stroke="#bfbfbf" points="165,-0.5 165,-19.5 218,-19.5 218,-0.5 165,-0.5"/>
<text text-anchor="middle" x="191.5" y="-7.5" font-family="Helvetica,sans-Serif" font-size="10.00">sqlite3.h</text>
</a>
</g>
</g>
<!-- Node2&#45;&gt;Node4 -->
<g id="edge4" class="edge"><title>Node2&#45;&gt;Node4</title>
<path fill="none" stroke="midnightblue" d="M223.225,-56.083C217.858,-48.4554 209.982,-37.2645 203.421,-27.9408"/>
<polygon fill="midnightblue" stroke="midnightblue" points="206.275,-25.9149 197.658,-19.7511 200.551,-29.9434 206.275,-25.9149"/>
</g>
<!-- Node2&#45;&gt;Node5 -->
<g id="edge5" class="edge"><title>Node2&#45;&gt;Node5</title>
<path fill="none" stroke="midnightblue" d="M238.497,-56.324C246.694,-48.4196 259.006,-36.5482 268.972,-26.9377"/>
<polygon fill="midnightblue" stroke="midnightblue" points="271.57,-29.2947 276.339,-19.8339 266.711,-24.2558 271.57,-29.2947"/>
</g>
<!-- Node6&#45;&gt;Node3 -->
<g id="edge7" class="edge"><title>Node6&#45;&gt;Node3</title>
<path fill="none" stroke="midnightblue" d="M139.399,-56.083C133.263,-48.3768 124.23,-37.0333 116.761,-27.6531"/>
<polygon fill="midnightblue" stroke="midnightblue" points="119.436,-25.3936 110.468,-19.7511 113.96,-29.7542 119.436,-25.3936"/>
</g>
<!-- Node7&#45;&gt;Node3 -->
<g id="edge10" class="edge"><title>Node7&#45;&gt;Node3</title>
<path fill="none" stroke="midnightblue" d="M31.5121,-112.388C38.9597,-99.7508 53.5706,-75.5635 67.5,-56 74.391,-46.3218 82.6352,-35.9396 89.4944,-27.589"/>
<polygon fill="midnightblue" stroke="midnightblue" points="92.3218,-29.6631 96.0263,-19.737 86.9404,-25.1864 92.3218,-29.6631"/>
</g>
</g>
</svg>
