<?xml version="1.0" encoding="UTF-8" standalone="no"?>
<!DOCTYPE svg PUBLIC "-//W3C//DTD SVG 1.1//EN"
 "http://www.w3.org/Graphics/SVG/1.1/DTD/svg11.dtd">
<!-- Generated by graphviz version 2.38.0 (20140413.2041)
 -->
<!-- Title: src/server/src/Processing.cpp Pages: 1 -->
<svg width="813pt" height="252pt"
 viewBox="0.00 0.00 812.50 252.00" xmlns="http://www.w3.org/2000/svg" xmlns:xlink="http://www.w3.org/1999/xlink">
<g id="graph0" class="graph" transform="scale(1 1) rotate(0) translate(4 248)">
<title>src/server/src/Processing.cpp</title>
<polygon fill="white" stroke="none" points="-4,4 -4,-248 808.5,-248 808.5,4 -4,4"/>
<!-- Node0 -->
<g id="node1" class="node"><title>Node0</title>
<g id="a_node1"><a xlink:title="Обработка запросов">
<polygon fill="#bfbfbf" stroke="black" points="49.5,-224.5 49.5,-243.5 195.5,-243.5 195.5,-224.5 49.5,-224.5"/>
<text text-anchor="middle" x="122.5" y="-231.5" font-family="Helvetica,sans-Serif" font-size="10.00">src/server/src/Processing.cpp</text>
</a>
</g>
</g>
<!-- Node1 -->
<g id="node2" class="node"><title>Node1</title>
<g id="a_node2"><a xlink:href="_processing_8h.html" target="_top" xlink:title="Обработка запросов">
<polygon fill="white" stroke="black" points="118.5,-168.5 118.5,-187.5 192.5,-187.5 192.5,-168.5 118.5,-168.5"/>
<text text-anchor="middle" x="155.5" y="-175.5" font-family="Helvetica,sans-Serif" font-size="10.00">Processing.h</text>
</a>
</g>
</g>
<!-- Node0&#45;&gt;Node1 -->
<g id="edge1" class="edge"><title>Node0&#45;&gt;Node1</title>
<path fill="none" stroke="midnightblue" d="M127.949,-224.083C132.514,-216.613 139.168,-205.724 144.793,-196.52"/>
<polygon fill="midnightblue" stroke="midnightblue" points="147.924,-198.109 150.152,-187.751 141.951,-194.459 147.924,-198.109"/>
</g>
<!-- Node3 -->
<g id="node4" class="node"><title>Node3</title>
<g id="a_node4"><a xlink:title=" ">
<polygon fill="white" stroke="#bfbfbf" points="89,-56.5 89,-75.5 130,-75.5 130,-56.5 89,-56.5"/>
<text text-anchor="middle" x="109.5" y="-63.5" font-family="Helvetica,sans-Serif" font-size="10.00">string</text>
</a>
</g>
</g>
<!-- Node0&#45;&gt;Node3 -->
<g id="edge14" class="edge"><title>Node0&#45;&gt;Node3</title>
<path fill="none" stroke="midnightblue" d="M119.156,-224.197C115.946,-215.24 111.324,-200.883 109.5,-188 104.414,-152.072 106.192,-109.54 107.886,-85.6726"/>
<polygon fill="midnightblue" stroke="midnightblue" points="111.386,-85.8099 108.681,-75.5663 104.407,-85.2611 111.386,-85.8099"/>
</g>
<!-- Node5 -->
<g id="node6" class="node"><title>Node5</title>
<g id="a_node6"><a xlink:href="_battleship_royale_8h.html" target="_top" xlink:title="Заголовочный файл с пространством имён, которое хранит в себе константы.">
<polygon fill="white" stroke="black" points="245.5,-56.5 245.5,-75.5 343.5,-75.5 343.5,-56.5 245.5,-56.5"/>
<text text-anchor="middle" x="294.5" y="-63.5" font-family="Helvetica,sans-Serif" font-size="10.00">BattleshipRoyale.h</text>
</a>
</g>
</g>
<!-- Node0&#45;&gt;Node5 -->
<g id="edge17" class="edge"><title>Node0&#45;&gt;Node5</title>
<path fill="none" stroke="midnightblue" d="M145.499,-224.4C179.506,-210.449 242.706,-179.558 275.5,-132 284.99,-118.238 289.799,-99.7113 292.2,-85.9583"/>
<polygon fill="midnightblue" stroke="midnightblue" points="295.711,-86.1403 293.7,-75.738 288.785,-85.1238 295.711,-86.1403"/>
</g>
<!-- Node12 -->
<g id="node13" class="node"><title>Node12</title>
<g id="a_node13"><a xlink:href="server_2src_2_regex_8h.html" target="_top" xlink:title="Работа с регулярными выражениями">
<polygon fill="white" stroke="black" points="9,-168.5 9,-187.5 62,-187.5 62,-168.5 9,-168.5"/>
<text text-anchor="middle" x="35.5" y="-175.5" font-family="Helvetica,sans-Serif" font-size="10.00">Regex.h</text>
</a>
</g>
</g>
<!-- Node0&#45;&gt;Node12 -->
<g id="edge15" class="edge"><title>Node0&#45;&gt;Node12</title>
<path fill="none" stroke="midnightblue" d="M108.522,-224.324C94.9504,-215.9 74.1198,-202.971 58.175,-193.074"/>
<polygon fill="midnightblue" stroke="midnightblue" points="59.7856,-189.954 49.4434,-187.655 56.094,-195.902 59.7856,-189.954"/>
</g>
<!-- Node2 -->
<g id="node3" class="node"><title>Node2</title>
<g id="a_node3"><a xlink:href="server_2src_2_mini_d_b_8h.html" target="_top" xlink:title="Облегчённый класс для работы с бд">
<polygon fill="white" stroke="black" points="210.5,-112.5 210.5,-131.5 266.5,-131.5 266.5,-112.5 210.5,-112.5"/>
<text text-anchor="middle" x="238.5" y="-119.5" font-family="Helvetica,sans-Serif" font-size="10.00">MiniDB.h</text>
</a>
</g>
</g>
<!-- Node1&#45;&gt;Node2 -->
<g id="edge2" class="edge"><title>Node1&#45;&gt;Node2</title>
<path fill="none" stroke="midnightblue" d="M168.835,-168.324C181.662,-159.979 201.285,-147.212 216.44,-137.352"/>
<polygon fill="midnightblue" stroke="midnightblue" points="218.724,-140.042 225.198,-131.655 214.907,-134.174 218.724,-140.042"/>
</g>
<!-- Node11 -->
<g id="node12" class="node"><title>Node11</title>
<g id="a_node12"><a xlink:href="_mem_d_buid_8h.html" target="_top" xlink:title="Облегчённый класс для работы с бд в памяти">
<polygon fill="white" stroke="black" points="119,-112.5 119,-131.5 192,-131.5 192,-112.5 119,-112.5"/>
<text text-anchor="middle" x="155.5" y="-119.5" font-family="Helvetica,sans-Serif" font-size="10.00">MemDBuid.h</text>
</a>
</g>
</g>
<!-- Node1&#45;&gt;Node11 -->
<g id="edge12" class="edge"><title>Node1&#45;&gt;Node11</title>
<path fill="none" stroke="midnightblue" d="M155.5,-168.083C155.5,-161.006 155.5,-150.861 155.5,-141.986"/>
<polygon fill="midnightblue" stroke="midnightblue" points="159,-141.751 155.5,-131.751 152,-141.751 159,-141.751"/>
</g>
<!-- Node2&#45;&gt;Node3 -->
<g id="edge3" class="edge"><title>Node2&#45;&gt;Node3</title>
<path fill="none" stroke="midnightblue" d="M218.06,-112.444C196.83,-103.557 163.401,-89.5632 139.245,-79.4514"/>
<polygon fill="midnightblue" stroke="midnightblue" points="140.421,-76.1493 129.845,-75.5164 137.718,-82.6064 140.421,-76.1493"/>
</g>
<!-- Node4 -->
<g id="node5" class="node"><title>Node4</title>
<g id="a_node5"><a xlink:href="sqlite3_8h.html" target="_top" xlink:title="Константы для работы с базой данных sqlite3.">
<polygon fill="white" stroke="black" points="0,-0.5 0,-19.5 53,-19.5 53,-0.5 0,-0.5"/>
<text text-anchor="middle" x="26.5" y="-7.5" font-family="Helvetica,sans-Serif" font-size="10.00">sqlite3.h</text>
</a>
</g>
</g>
<!-- Node2&#45;&gt;Node4 -->
<g id="edge4" class="edge"><title>Node2&#45;&gt;Node4</title>
<path fill="none" stroke="midnightblue" d="M226.946,-112.42C208.777,-99.1793 172.124,-73.4715 138.5,-56 113.555,-43.0386 83.999,-31.3044 61.5138,-23.0705"/>
<polygon fill="midnightblue" stroke="midnightblue" points="62.6284,-19.7518 52.034,-19.6524 60.254,-26.3369 62.6284,-19.7518"/>
</g>
<!-- Node2&#45;&gt;Node5 -->
<g id="edge5" class="edge"><title>Node2&#45;&gt;Node5</title>
<path fill="none" stroke="midnightblue" d="M247.497,-112.324C255.694,-104.42 268.006,-92.5482 277.972,-82.9377"/>
<polygon fill="midnightblue" stroke="midnightblue" points="280.57,-85.2947 285.339,-75.8339 275.711,-80.2558 280.57,-85.2947"/>
</g>
<!-- Node5&#45;&gt;Node4 -->
<g id="edge8" class="edge"><title>Node5&#45;&gt;Node4</title>
<path fill="none" stroke="midnightblue" d="M245.678,-56.4646C200.626,-48.3876 131.649,-35.5165 63.2907,-20.308"/>
<polygon fill="midnightblue" stroke="midnightblue" points="63.7361,-16.821 53.2125,-18.0475 62.204,-23.6513 63.7361,-16.821"/>
</g>
<!-- Node6 -->
<g id="node7" class="node"><title>Node6</title>
<g id="a_node7"><a xlink:href="_version_8h.html" target="_top" xlink:title="Версия программы">
<polygon fill="white" stroke="black" points="670.5,-0.5 670.5,-19.5 804.5,-19.5 804.5,-0.5 670.5,-0.5"/>
<text text-anchor="middle" x="737.5" y="-7.5" font-family="Helvetica,sans-Serif" font-size="10.00">BattleshipRoyale/Version.h</text>
</a>
</g>
</g>
<!-- Node5&#45;&gt;Node6 -->
<g id="edge6" class="edge"><title>Node5&#45;&gt;Node6</title>
<path fill="none" stroke="midnightblue" d="M343.601,-59.0147C420.25,-49.6716 568.978,-31.5422 660.136,-20.4303"/>
<polygon fill="midnightblue" stroke="midnightblue" points="660.636,-23.8954 670.139,-19.2111 659.789,-16.9469 660.636,-23.8954"/>
</g>
<!-- Node7 -->
<g id="node8" class="node"><title>Node7</title>
<g id="a_node8"><a xlink:href="_connect_8h.html" target="_top" xlink:title="Константы с параметрами для подключения">
<polygon fill="white" stroke="black" points="71,-0.5 71,-19.5 208,-19.5 208,-0.5 71,-0.5"/>
<text text-anchor="middle" x="139.5" y="-7.5" font-family="Helvetica,sans-Serif" font-size="10.00">BattleshipRoyale/Connect.h</text>
</a>
</g>
</g>
<!-- Node5&#45;&gt;Node7 -->
<g id="edge7" class="edge"><title>Node5&#45;&gt;Node7</title>
<path fill="none" stroke="midnightblue" d="M269.94,-56.4435C243.977,-47.3986 202.832,-33.064 173.703,-22.9158"/>
<polygon fill="midnightblue" stroke="midnightblue" points="174.54,-19.5013 163.945,-19.5164 172.237,-26.1116 174.54,-19.5013"/>
</g>
<!-- Node8 -->
<g id="node9" class="node"><title>Node8</title>
<g id="a_node9"><a xlink:href="_battleship_royale_2_battleship_royale_2_console_8h.html" target="_top" xlink:title="Константы консоли">
<polygon fill="white" stroke="black" points="226,-0.5 226,-19.5 363,-19.5 363,-0.5 226,-0.5"/>
<text text-anchor="middle" x="294.5" y="-7.5" font-family="Helvetica,sans-Serif" font-size="10.00">BattleshipRoyale/Console.h</text>
</a>
</g>
</g>
<!-- Node5&#45;&gt;Node8 -->
<g id="edge9" class="edge"><title>Node5&#45;&gt;Node8</title>
<path fill="none" stroke="midnightblue" d="M294.5,-56.083C294.5,-49.0059 294.5,-38.8611 294.5,-29.9865"/>
<polygon fill="midnightblue" stroke="midnightblue" points="298,-29.751 294.5,-19.7511 291,-29.7511 298,-29.751"/>
</g>
<!-- Node9 -->
<g id="node10" class="node"><title>Node9</title>
<g id="a_node10"><a xlink:href="_battleship_royale_2_battleship_royale_2_regex_8h.html" target="_top" xlink:title="Константы регулярных выражений">
<polygon fill="white" stroke="black" points="381,-0.5 381,-19.5 510,-19.5 510,-0.5 381,-0.5"/>
<text text-anchor="middle" x="445.5" y="-7.5" font-family="Helvetica,sans-Serif" font-size="10.00">BattleshipRoyale/Regex.h</text>
</a>
</g>
</g>
<!-- Node5&#45;&gt;Node9 -->
<g id="edge10" class="edge"><title>Node5&#45;&gt;Node9</title>
<path fill="none" stroke="midnightblue" d="M318.426,-56.4435C343.719,-47.3986 383.802,-33.064 412.18,-22.9158"/>
<polygon fill="midnightblue" stroke="midnightblue" points="413.448,-26.1794 421.686,-19.5164 411.091,-19.5882 413.448,-26.1794"/>
</g>
<!-- Node10 -->
<g id="node11" class="node"><title>Node10</title>
<g id="a_node11"><a xlink:href="_code_8h.html" target="_top" xlink:title="Различные коды ответов">
<polygon fill="white" stroke="black" points="528.5,-0.5 528.5,-19.5 652.5,-19.5 652.5,-0.5 528.5,-0.5"/>
<text text-anchor="middle" x="590.5" y="-7.5" font-family="Helvetica,sans-Serif" font-size="10.00">BattleshipRoyale/Code.h</text>
</a>
</g>
</g>
<!-- Node5&#45;&gt;Node10 -->
<g id="edge11" class="edge"><title>Node5&#45;&gt;Node10</title>
<path fill="none" stroke="midnightblue" d="M341.402,-56.4435C393.58,-46.9246 477.871,-31.5472 533.732,-21.3563"/>
<polygon fill="midnightblue" stroke="midnightblue" points="534.608,-24.7544 543.817,-19.5164 533.352,-17.868 534.608,-24.7544"/>
</g>
<!-- Node11&#45;&gt;Node3 -->
<g id="edge13" class="edge"><title>Node11&#45;&gt;Node3</title>
<path fill="none" stroke="midnightblue" d="M147.904,-112.083C141.273,-104.298 131.479,-92.8015 123.442,-83.3665"/>
<polygon fill="midnightblue" stroke="midnightblue" points="126.104,-81.0939 116.955,-75.7511 120.775,-85.6332 126.104,-81.0939"/>
</g>
<!-- Node12&#45;&gt;Node3 -->
<g id="edge16" class="edge"><title>Node12&#45;&gt;Node3</title>
<path fill="none" stroke="midnightblue" d="M40.6215,-168.464C48.2054,-155.922 62.9844,-131.852 76.5,-112 82.9064,-102.59 90.3839,-92.3384 96.5997,-83.9998"/>
<polygon fill="midnightblue" stroke="midnightblue" points="99.5278,-85.9293 102.739,-75.8327 93.9324,-81.7232 99.5278,-85.9293"/>
</g>
</g>
</svg>
