<?xml version="1.0" encoding="UTF-8" standalone="no"?>
<!DOCTYPE svg PUBLIC "-//W3C//DTD SVG 1.1//EN"
 "http://www.w3.org/Graphics/SVG/1.1/DTD/svg11.dtd">
<!-- Generated by graphviz version 2.38.0 (20140413.2041)
 -->
<!-- Title: src/server/src/BattleshipRoyale.cpp Pages: 1 -->
<!--zoomable 341 -->
<svg id="main" version="1.1" xmlns="http://www.w3.org/2000/svg" xmlns:xlink="http://www.w3.org/1999/xlink" xml:space="preserve" onload="init(evt)">
<style type="text/css"><![CDATA[
.edge:hover path { stroke: red; }
.edge:hover polygon { stroke: red; fill: red; }
]]></style>
<script type="text/javascript"><![CDATA[
var edges = document.getElementsByTagName('g');
if (edges && edges.length) {
  for (var i=0;i<edges.length;i++) {
    if (edges[i].id.substr(0,4)=='edge') {
      edges[i].setAttribute('class','edge');
    }
  }
}
]]></script>
        <defs>
                <circle id="rim" cx="0" cy="0" r="7"/>
                <circle id="rim2" cx="0" cy="0" r="3.5"/>
                <g id="zoomPlus">
                        <use xlink:href="#rim" fill="#404040">
                                <set attributeName="fill" to="#808080" begin="zoomplus.mouseover" end="zoomplus.mouseout"/>
                        </use>
                        <path d="M-4,0h8M0,-4v8" fill="none" stroke="white" stroke-width="1.5" pointer-events="none"/>
                </g>
                <g id="zoomMin">
                        <use xlink:href="#rim" fill="#404040">
                                <set attributeName="fill" to="#808080" begin="zoomminus.mouseover" end="zoomminus.mouseout"/>
                        </use>
                        <path d="M-4,0h8" fill="none" stroke="white" stroke-width="1.5" pointer-events="none"/>
                </g>
                <g id="dirArrow">
                        <path fill="none" stroke="white" stroke-width="1.5" d="M0,-3.0v7 M-2.5,-0.5L0,-3.0L2.5,-0.5"/>
                </g>
               <g id="resetDef">
                       <use xlink:href="#rim2" fill="#404040">
                               <set attributeName="fill" to="#808080" begin="reset.mouseover" end="reset.mouseout"/>
                       </use>
               </g>
        </defs>

<script type="text/javascript">
var viewWidth = 1088;
var viewHeight = 341;
var sectionId = 'dynsection-0';
</script>
<script xlink:href="svgpan.js"/>
<svg id="graph" class="graph">
<g id="viewport">
<title>src/server/src/BattleshipRoyale.cpp</title>
<polygon fill="white" stroke="none" points="-4,4 -4,-337 1083.5,-337 1083.5,4 -4,4"/>
<!-- Node0 -->
<g id="node1" class="node"><title>Node0</title>
<g id="a_node1"><a xlink:title="Сервер">
<polygon fill="#bfbfbf" stroke="black" points="461,-302.5 461,-332.5 583,-332.5 583,-302.5 461,-302.5"/>
<text text-anchor="start" x="469" y="-320.5" font-family="Helvetica,sans-Serif" font-size="10.00">src/server/src/Battleship</text>
<text text-anchor="middle" x="522" y="-309.5" font-family="Helvetica,sans-Serif" font-size="10.00">Royale.cpp</text>
</a>
</g>
</g>
<!-- Node1 -->
<g id="node2" class="node"><title>Node1</title>
<g id="a_node2"><a xlink:title=" ">
<polygon fill="white" stroke="#bfbfbf" points="0,-241 0,-260 54,-260 54,-241 0,-241"/>
<text text-anchor="middle" x="27" y="-248" font-family="Helvetica,sans-Serif" font-size="10.00">iostream</text>
</a>
</g>
</g>
<!-- Node0&#45;&gt;Node1 -->
<g id="edge1" class="edge"><title>Node0&#45;&gt;Node1</title>
<path fill="none" stroke="midnightblue" d="M460.674,-314.133C372.734,-309.738 206.174,-297.676 68,-266 64.762,-265.258 61.4258,-264.342 58.1209,-263.335"/>
<polygon fill="midnightblue" stroke="midnightblue" points="59.0229,-259.947 48.4295,-260.12 56.8187,-266.591 59.0229,-259.947"/>
</g>
<!-- Node2 -->
<g id="node3" class="node"><title>Node2</title>
<g id="a_node3"><a xlink:title=" ">
<polygon fill="white" stroke="#bfbfbf" points="573.5,-0.5 573.5,-19.5 614.5,-19.5 614.5,-0.5 573.5,-0.5"/>
<text text-anchor="middle" x="594" y="-7.5" font-family="Helvetica,sans-Serif" font-size="10.00">string</text>
</a>
</g>
</g>
<!-- Node0&#45;&gt;Node2 -->
<g id="edge2" class="edge"><title>Node0&#45;&gt;Node2</title>
<path fill="none" stroke="midnightblue" d="M555.402,-302.351C592.269,-284.533 649.041,-249.956 669,-199 672.242,-190.723 671.042,-187.651 669,-179 664.89,-161.59 658.344,-159.311 651,-143 633.889,-104.996 632.942,-94.0798 616,-56 611.929,-46.8492 607.068,-36.8241 602.952,-28.5634"/>
<polygon fill="midnightblue" stroke="midnightblue" points="606.03,-26.8944 598.404,-19.5398 599.779,-30.045 606.03,-26.8944"/>
</g>
<!-- Node3 -->
<g id="node4" class="node"><title>Node3</title>
<g id="a_node4"><a xlink:title=" ">
<polygon fill="white" stroke="#bfbfbf" points="110.5,-241 110.5,-260 151.5,-260 151.5,-241 110.5,-241"/>
<text text-anchor="middle" x="131" y="-248" font-family="Helvetica,sans-Serif" font-size="10.00">future</text>
</a>
</g>
</g>
<!-- Node0&#45;&gt;Node3 -->
<g id="edge3" class="edge"><title>Node0&#45;&gt;Node3</title>
<path fill="none" stroke="midnightblue" d="M460.718,-313.727C387.887,-309.115 263.342,-297.054 161,-266 159.325,-265.492 157.628,-264.901 155.936,-264.255"/>
<polygon fill="midnightblue" stroke="midnightblue" points="157.073,-260.932 146.509,-260.128 154.266,-267.345 157.073,-260.932"/>
</g>
<!-- Node4 -->
<g id="node5" class="node"><title>Node4</title>
<g id="a_node5"><a xlink:title=" ">
<polygon fill="white" stroke="#bfbfbf" points="170,-241 170,-260 218,-260 218,-241 170,-241"/>
<text text-anchor="middle" x="194" y="-248" font-family="Helvetica,sans-Serif" font-size="10.00">conio.h</text>
</a>
</g>
</g>
<!-- Node0&#45;&gt;Node4 -->
<g id="edge4" class="edge"><title>Node0&#45;&gt;Node4</title>
<path fill="none" stroke="midnightblue" d="M460.831,-310.446C400.463,-303.447 306.001,-289.727 227,-266 225.067,-265.419 223.098,-264.755 221.131,-264.037"/>
<polygon fill="midnightblue" stroke="midnightblue" points="222.093,-260.651 211.511,-260.142 219.467,-267.139 222.093,-260.651"/>
</g>
<!-- Node5 -->
<g id="node6" class="node"><title>Node5</title>
<g id="a_node6"><a xlink:title=" ">
<polygon fill="white" stroke="#bfbfbf" points="236.5,-241 236.5,-260 321.5,-260 321.5,-241 236.5,-241"/>
<text text-anchor="middle" x="279" y="-248" font-family="Helvetica,sans-Serif" font-size="10.00">spdlog/spdlog.h</text>
</a>
</g>
</g>
<!-- Node0&#45;&gt;Node5 -->
<g id="edge5" class="edge"><title>Node0&#45;&gt;Node5</title>
<path fill="none" stroke="midnightblue" d="M468.023,-302.435C429.742,-292.41 377.174,-278.541 331,-266 327.142,-264.952 323.126,-263.851 319.112,-262.743"/>
<polygon fill="midnightblue" stroke="midnightblue" points="319.799,-259.302 309.228,-260.003 317.929,-266.047 319.799,-259.302"/>
</g>
<!-- Node6 -->
<g id="node7" class="node"><title>Node6</title>
<g id="a_node7"><a xlink:title=" ">
<polygon fill="white" stroke="#bfbfbf" points="340,-235.5 340,-265.5 438,-265.5 438,-235.5 340,-235.5"/>
<text text-anchor="start" x="348" y="-253.5" font-family="Helvetica,sans-Serif" font-size="10.00">spdlog/sinks/basic</text>
<text text-anchor="middle" x="389" y="-242.5" font-family="Helvetica,sans-Serif" font-size="10.00">_file_sink.h</text>
</a>
</g>
</g>
<!-- Node0&#45;&gt;Node6 -->
<g id="edge6" class="edge"><title>Node0&#45;&gt;Node6</title>
<path fill="none" stroke="midnightblue" d="M493.141,-302.396C473.708,-292.899 447.881,-280.276 426.809,-269.978"/>
<polygon fill="midnightblue" stroke="midnightblue" points="428.324,-266.823 417.803,-265.577 425.25,-273.112 428.324,-266.823"/>
</g>
<!-- Node7 -->
<g id="node8" class="node"><title>Node7</title>
<g id="a_node8"><a xlink:title=" ">
<polygon fill="white" stroke="#bfbfbf" points="456,-241 456,-260 526,-260 526,-241 456,-241"/>
<text text-anchor="middle" x="491" y="-248" font-family="Helvetica,sans-Serif" font-size="10.00">cxxopts.hpp</text>
</a>
</g>
</g>
<!-- Node0&#45;&gt;Node7 -->
<g id="edge7" class="edge"><title>Node0&#45;&gt;Node7</title>
<path fill="none" stroke="midnightblue" d="M515.273,-302.396C510.679,-292.763 504.552,-279.914 499.602,-269.537"/>
<polygon fill="midnightblue" stroke="midnightblue" points="502.611,-267.714 495.147,-260.195 496.292,-270.727 502.611,-267.714"/>
</g>
<!-- Node8 -->
<g id="node9" class="node"><title>Node8</title>
<g id="a_node9"><a xlink:href="_battleship_royale_8h.html" target="_top" xlink:title="Заголовочный файл с пространством имён, которое хранит в себе константы.">
<polygon fill="white" stroke="black" points="195,-0.5 195,-19.5 293,-19.5 293,-0.5 195,-0.5"/>
<text text-anchor="middle" x="244" y="-7.5" font-family="Helvetica,sans-Serif" font-size="10.00">BattleshipRoyale.h</text>
</a>
</g>
</g>
<!-- Node0&#45;&gt;Node8 -->
<g id="edge8" class="edge"><title>Node0&#45;&gt;Node8</title>
<path fill="none" stroke="midnightblue" d="M460.894,-317.388C357.242,-317.592 153.111,-311.945 101,-266 74.8839,-242.974 82,-224.817 82,-190 82,-190 82,-190 82,-126.5 82,-68.9793 150.55,-37.4193 198.466,-22.3849"/>
<polygon fill="midnightblue" stroke="midnightblue" points="199.475,-25.7365 208.047,-19.5098 197.463,-19.0319 199.475,-25.7365"/>
</g>
<!-- Node9 -->
<g id="node10" class="node"><title>Node9</title>
<g id="a_node10"><a xlink:href="_regex_8h.html" target="_top" xlink:title="Работа с регулярными выражениями">
<polygon fill="white" stroke="black" points="528.5,-179.5 528.5,-198.5 581.5,-198.5 581.5,-179.5 528.5,-179.5"/>
<text text-anchor="middle" x="555" y="-186.5" font-family="Helvetica,sans-Serif" font-size="10.00">Regex.h</text>
</a>
</g>
</g>
<!-- Node0&#45;&gt;Node9 -->
<g id="edge9" class="edge"><title>Node0&#45;&gt;Node9</title>
<path fill="none" stroke="midnightblue" d="M540.416,-302.29C550.658,-293.175 562.434,-280.377 568,-266 575.304,-247.135 569.454,-224.058 563.435,-208.316"/>
<polygon fill="midnightblue" stroke="midnightblue" points="566.506,-206.59 559.401,-198.732 560.055,-209.306 566.506,-206.59"/>
</g>
<!-- Node10 -->
<g id="node11" class="node"><title>Node10</title>
<g id="a_node11"><a xlink:href="server_2src_2_mini_d_b_8h.html" target="_top" xlink:title="Облегчённый класс для работы с бд">
<polygon fill="white" stroke="black" points="472,-56.5 472,-75.5 528,-75.5 528,-56.5 472,-56.5"/>
<text text-anchor="middle" x="500" y="-63.5" font-family="Helvetica,sans-Serif" font-size="10.00">MiniDB.h</text>
</a>
</g>
</g>
<!-- Node0&#45;&gt;Node10 -->
<g id="edge11" class="edge"><title>Node0&#45;&gt;Node10</title>
<path fill="none" stroke="midnightblue" d="M526.739,-302.103C529.775,-292.101 533.43,-278.394 535,-266 536.731,-252.331 537.702,-248.51 535,-235 531.601,-218.003 524.666,-215.693 520,-199 509.015,-159.704 503.681,-112.034 501.42,-86.0879"/>
<polygon fill="midnightblue" stroke="midnightblue" points="504.883,-85.4891 500.588,-75.8038 497.906,-86.0535 504.883,-85.4891"/>
</g>
<!-- Node12 -->
<g id="node13" class="node"><title>Node12</title>
<g id="a_node13"><a xlink:href="_mem_d_buid_8h.html" target="_top" xlink:title="Облегчённый класс для работы с бд в памяти">
<polygon fill="white" stroke="black" points="660.5,-56.5 660.5,-75.5 733.5,-75.5 733.5,-56.5 660.5,-56.5"/>
<text text-anchor="middle" x="697" y="-63.5" font-family="Helvetica,sans-Serif" font-size="10.00">MemDBuid.h</text>
</a>
</g>
</g>
<!-- Node0&#45;&gt;Node12 -->
<g id="edge15" class="edge"><title>Node0&#45;&gt;Node12</title>
<path fill="none" stroke="midnightblue" d="M583.095,-315.646C687.283,-310.342 895.041,-281.991 967,-143 973.335,-130.765 975.906,-122.513 967,-112 938.952,-78.8902 813.516,-70.1191 743.915,-67.8112"/>
<polygon fill="midnightblue" stroke="midnightblue" points="743.759,-64.3051 733.658,-67.5045 743.549,-71.3019 743.759,-64.3051"/>
</g>
<!-- Node13 -->
<g id="node14" class="node"><title>Node13</title>
<g id="a_node14"><a xlink:href="_console_8h.html" target="_top" xlink:title=" ">
<polygon fill="white" stroke="black" points="600,-179.5 600,-198.5 660,-198.5 660,-179.5 600,-179.5"/>
<text text-anchor="middle" x="630" y="-186.5" font-family="Helvetica,sans-Serif" font-size="10.00">Console.h</text>
</a>
</g>
</g>
<!-- Node0&#45;&gt;Node13 -->
<g id="edge17" class="edge"><title>Node0&#45;&gt;Node13</title>
<path fill="none" stroke="midnightblue" d="M542.113,-302.489C554.754,-293.077 570.9,-279.892 583,-266 598.714,-247.959 612.552,-224.074 621.071,-207.932"/>
<polygon fill="midnightblue" stroke="midnightblue" points="624.417,-209.078 625.868,-198.583 618.189,-205.883 624.417,-209.078"/>
</g>
<!-- Node14 -->
<g id="node15" class="node"><title>Node14</title>
<g id="a_node15"><a xlink:href="server_2src_2_server_8h.html" target="_top" xlink:title="Асинхронный сервер написанный на boost asio.">
<polygon fill="white" stroke="black" points="732,-241 732,-260 784,-260 784,-241 732,-241"/>
<text text-anchor="middle" x="758" y="-248" font-family="Helvetica,sans-Serif" font-size="10.00">Server.h</text>
</a>
</g>
</g>
<!-- Node0&#45;&gt;Node14 -->
<g id="edge19" class="edge"><title>Node0&#45;&gt;Node14</title>
<path fill="none" stroke="midnightblue" d="M572.918,-302.476C617.917,-290.082 682.407,-272.32 722.172,-261.368"/>
<polygon fill="midnightblue" stroke="midnightblue" points="723.253,-264.7 731.965,-258.671 721.394,-257.952 723.253,-264.7"/>
</g>
<!-- Node19 -->
<g id="node20" class="node"><title>Node19</title>
<g id="a_node20"><a xlink:href="rand__sse_8h.html" target="_top" xlink:title="Генерация рандомных чисел через SSE.">
<polygon fill="white" stroke="black" points="1014.5,-241 1014.5,-260 1079.5,-260 1079.5,-241 1014.5,-241"/>
<text text-anchor="middle" x="1047" y="-248" font-family="Helvetica,sans-Serif" font-size="10.00">rand_sse.h</text>
</a>
</g>
</g>
<!-- Node0&#45;&gt;Node19 -->
<g id="edge26" class="edge"><title>Node0&#45;&gt;Node19</title>
<path fill="none" stroke="midnightblue" d="M583.322,-313.829C674.845,-308.987 852.242,-296.299 1000,-266 1004.14,-265.151 1008.44,-264.088 1012.67,-262.926"/>
<polygon fill="midnightblue" stroke="midnightblue" points="1013.74,-266.26 1022.35,-260.088 1011.77,-259.543 1013.74,-266.26"/>
</g>
<!-- Node9&#45;&gt;Node2 -->
<g id="edge10" class="edge"><title>Node9&#45;&gt;Node2</title>
<path fill="none" stroke="midnightblue" d="M556.881,-179.463C562.838,-152.428 581.388,-68.2392 589.79,-30.109"/>
<polygon fill="midnightblue" stroke="midnightblue" points="593.312,-30.3873 592.046,-19.8684 586.476,-28.881 593.312,-30.3873"/>
</g>
<!-- Node10&#45;&gt;Node2 -->
<g id="edge12" class="edge"><title>Node10&#45;&gt;Node2</title>
<path fill="none" stroke="midnightblue" d="M515.103,-56.324C529.903,-47.8215 552.694,-34.7288 569.982,-24.7975"/>
<polygon fill="midnightblue" stroke="midnightblue" points="572.007,-27.6707 578.935,-19.6545 568.52,-21.6009 572.007,-27.6707"/>
</g>
<!-- Node10&#45;&gt;Node8 -->
<g id="edge14" class="edge"><title>Node10&#45;&gt;Node8</title>
<path fill="none" stroke="midnightblue" d="M471.625,-59.0147C428.943,-50.0114 347.583,-32.8495 294.583,-21.67"/>
<polygon fill="midnightblue" stroke="midnightblue" points="295.215,-18.2262 284.708,-19.5868 293.77,-25.0754 295.215,-18.2262"/>
</g>
<!-- Node11 -->
<g id="node12" class="node"><title>Node11</title>
<g id="a_node12"><a xlink:title=" ">
<polygon fill="white" stroke="#bfbfbf" points="473.5,-0.5 473.5,-19.5 526.5,-19.5 526.5,-0.5 473.5,-0.5"/>
<text text-anchor="middle" x="500" y="-7.5" font-family="Helvetica,sans-Serif" font-size="10.00">sqlite3.h</text>
</a>
</g>
</g>
<!-- Node10&#45;&gt;Node11 -->
<g id="edge13" class="edge"><title>Node10&#45;&gt;Node11</title>
<path fill="none" stroke="midnightblue" d="M500,-56.083C500,-49.0059 500,-38.8611 500,-29.9865"/>
<polygon fill="midnightblue" stroke="midnightblue" points="503.5,-29.751 500,-19.7511 496.5,-29.7511 503.5,-29.751"/>
</g>
<!-- Node12&#45;&gt;Node2 -->
<g id="edge16" class="edge"><title>Node12&#45;&gt;Node2</title>
<path fill="none" stroke="midnightblue" d="M680.451,-56.324C664.008,-47.7034 638.565,-34.3643 619.532,-24.3855"/>
<polygon fill="midnightblue" stroke="midnightblue" points="620.989,-21.198 610.508,-19.6545 617.739,-27.3977 620.989,-21.198"/>
</g>
<!-- Node13&#45;&gt;Node2 -->
<g id="edge18" class="edge"><title>Node13&#45;&gt;Node2</title>
<path fill="none" stroke="midnightblue" d="M627.492,-179.424C624.907,-170.407 620.861,-155.782 618,-143 609.043,-102.987 601.056,-55.5855 596.94,-29.8781"/>
<polygon fill="midnightblue" stroke="midnightblue" points="600.349,-29.0289 595.332,-19.6975 593.435,-30.1212 600.349,-29.0289"/>
</g>
<!-- Node15 -->
<g id="node16" class="node"><title>Node15</title>
<g id="a_node16"><a xlink:href="server_2src_2con__handler_8h.html" target="_top" xlink:title="handler">
<polygon fill="white" stroke="black" points="735.5,-179.5 735.5,-198.5 812.5,-198.5 812.5,-179.5 735.5,-179.5"/>
<text text-anchor="middle" x="774" y="-186.5" font-family="Helvetica,sans-Serif" font-size="10.00">con_handler.h</text>
</a>
</g>
</g>
<!-- Node14&#45;&gt;Node15 -->
<g id="edge20" class="edge"><title>Node14&#45;&gt;Node15</title>
<path fill="none" stroke="midnightblue" d="M760.292,-240.975C762.574,-232.492 766.147,-219.204 769.073,-208.322"/>
<polygon fill="midnightblue" stroke="midnightblue" points="772.495,-209.075 771.712,-198.509 765.735,-207.257 772.495,-209.075"/>
</g>
<!-- Node16 -->
<g id="node17" class="node"><title>Node16</title>
<g id="a_node17"><a xlink:title=" ">
<polygon fill="white" stroke="#bfbfbf" points="752,-118 752,-137 832,-137 832,-118 752,-118"/>
<text text-anchor="middle" x="792" y="-125" font-family="Helvetica,sans-Serif" font-size="10.00">boost/asio.hpp</text>
</a>
</g>
</g>
<!-- Node15&#45;&gt;Node16 -->
<g id="edge21" class="edge"><title>Node15&#45;&gt;Node16</title>
<path fill="none" stroke="midnightblue" d="M776.579,-179.475C779.145,-170.992 783.165,-157.704 786.457,-146.822"/>
<polygon fill="midnightblue" stroke="midnightblue" points="789.88,-147.594 789.426,-137.009 783.18,-145.567 789.88,-147.594"/>
</g>
<!-- Node17 -->
<g id="node18" class="node"><title>Node17</title>
<g id="a_node18"><a xlink:title=" ">
<polygon fill="white" stroke="#bfbfbf" points="850.5,-112.5 850.5,-142.5 957.5,-142.5 957.5,-112.5 850.5,-112.5"/>
<text text-anchor="start" x="858.5" y="-130.5" font-family="Helvetica,sans-Serif" font-size="10.00">boost/enable_shared</text>
<text text-anchor="middle" x="904" y="-119.5" font-family="Helvetica,sans-Serif" font-size="10.00">_from_this.hpp</text>
</a>
</g>
</g>
<!-- Node15&#45;&gt;Node17 -->
<g id="edge22" class="edge"><title>Node15&#45;&gt;Node17</title>
<path fill="none" stroke="midnightblue" d="M792.626,-179.475C811.22,-170.965 840.378,-157.619 864.196,-146.718"/>
<polygon fill="midnightblue" stroke="midnightblue" points="865.725,-149.867 873.362,-142.523 862.812,-143.502 865.725,-149.867"/>
</g>
<!-- Node18 -->
<g id="node19" class="node"><title>Node18</title>
<g id="a_node19"><a xlink:href="_processing_8h.html" target="_top" xlink:title="Обработка запросов">
<polygon fill="white" stroke="black" points="660,-118 660,-137 734,-137 734,-118 660,-118"/>
<text text-anchor="middle" x="697" y="-125" font-family="Helvetica,sans-Serif" font-size="10.00">Processing.h</text>
</a>
</g>
</g>
<!-- Node15&#45;&gt;Node18 -->
<g id="edge23" class="edge"><title>Node15&#45;&gt;Node18</title>
<path fill="none" stroke="midnightblue" d="M762.968,-179.475C750.732,-170.02 730.771,-154.596 716.007,-143.187"/>
<polygon fill="midnightblue" stroke="midnightblue" points="718.065,-140.354 708.012,-137.009 713.785,-145.893 718.065,-140.354"/>
</g>
<!-- Node18&#45;&gt;Node10 -->
<g id="edge24" class="edge"><title>Node18&#45;&gt;Node10</title>
<path fill="none" stroke="midnightblue" d="M668.775,-117.975C634.397,-107.592 576.19,-90.0116 537.923,-78.4538"/>
<polygon fill="midnightblue" stroke="midnightblue" points="538.758,-75.0499 528.173,-75.5091 536.734,-81.751 538.758,-75.0499"/>
</g>
<!-- Node18&#45;&gt;Node12 -->
<g id="edge25" class="edge"><title>Node18&#45;&gt;Node12</title>
<path fill="none" stroke="midnightblue" d="M697,-117.975C697,-109.58 697,-96.4806 697,-85.6631"/>
<polygon fill="midnightblue" stroke="midnightblue" points="700.5,-85.5091 697,-75.5091 693.5,-85.5091 700.5,-85.5091"/>
</g>
</g>
</svg>
        <g id="navigator" transform="translate(0 0)" fill="#404254">
                <rect fill="#f2f5e9" fill-opacity="0.5" stroke="#606060" stroke-width=".5" x="0" y="0" width="60" height="60"/>
                <use id="zoomplus" xlink:href="#zoomPlus" x="17" y="9" onmousedown="handleZoom(evt,'in')"/>
                <use id="zoomminus" xlink:href="#zoomMin" x="42" y="9" onmousedown="handleZoom(evt,'out')"/>
                <use id="reset" xlink:href="#resetDef" x="30" y="36" onmousedown="handleReset()"/>
                <g id="arrowUp" xlink:href="#dirArrow" transform="translate(30 24)" onmousedown="handlePan(0,-1)">
                  <use xlink:href="#rim" fill="#404040">
                        <set attributeName="fill" to="#808080" begin="arrowUp.mouseover" end="arrowUp.mouseout"/>
                  </use>
                  <path fill="none" stroke="white" stroke-width="1.5" d="M0,-3.0v7 M-2.5,-0.5L0,-3.0L2.5,-0.5"/>
                </g>
                <g id="arrowRight" xlink:href="#dirArrow" transform="rotate(90) translate(36 -43)" onmousedown="handlePan(1,0)">
                  <use xlink:href="#rim" fill="#404040">
                        <set attributeName="fill" to="#808080" begin="arrowRight.mouseover" end="arrowRight.mouseout"/>
                  </use>
                  <path fill="none" stroke="white" stroke-width="1.5" d="M0,-3.0v7 M-2.5,-0.5L0,-3.0L2.5,-0.5"/>
                </g>
                <g id="arrowDown" xlink:href="#dirArrow" transform="rotate(180) translate(-30 -48)" onmousedown="handlePan(0,1)">
                  <use xlink:href="#rim" fill="#404040">
                        <set attributeName="fill" to="#808080" begin="arrowDown.mouseover" end="arrowDown.mouseout"/>
                  </use>
                  <path fill="none" stroke="white" stroke-width="1.5" d="M0,-3.0v7 M-2.5,-0.5L0,-3.0L2.5,-0.5"/>
                </g>
                <g id="arrowLeft" xlink:href="#dirArrow" transform="rotate(270) translate(-36 17)" onmousedown="handlePan(-1,0)">
                  <use xlink:href="#rim" fill="#404040">
                        <set attributeName="fill" to="#808080" begin="arrowLeft.mouseover" end="arrowLeft.mouseout"/>
                  </use>
                  <path fill="none" stroke="white" stroke-width="1.5" d="M0,-3.0v7 M-2.5,-0.5L0,-3.0L2.5,-0.5"/>
                </g>
        </g>
        <svg viewBox="0 0 15 15" width="100%" height="30px" preserveAspectRatio="xMaxYMin meet">
         <g id="arrow_out" transform="scale(0.3 0.3)">
          <a xlink:href="server_2src_2_battleship_royale_8cpp__incl_org.svg" target="_base">
           <rect id="button" ry="5" rx="5" y="6" x="6" height="38" width="38"
                fill="#f2f5e9" fill-opacity="0.5" stroke="#606060" stroke-width="1.0"/>
           <path id="arrow"
             d="M 11.500037,31.436501 C 11.940474,20.09759 22.043105,11.32322 32.158766,21.979434 L 37.068811,17.246167 C 37.068811,17.246167 37.088388,32 37.088388,32 L 22.160133,31.978069 C 22.160133,31.978069 26.997745,27.140456 26.997745,27.140456 C 18.528582,18.264221 13.291696,25.230495 11.500037,31.436501 z"
             style="fill:#404040;"/>
          </a>
         </g>
        </svg>
</svg>
