<?xml version="1.0" encoding="UTF-8" standalone="no"?>
<!DOCTYPE svg PUBLIC "-//W3C//DTD SVG 1.1//EN"
 "http://www.w3.org/Graphics/SVG/1.1/DTD/svg11.dtd">
<!-- Generated by graphviz version 2.38.0 (20140413.2041)
 -->
<!-- Title: MiniDB.h Pages: 1 -->
<svg width="373pt" height="252pt"
 viewBox="0.00 0.00 372.50 252.00" xmlns="http://www.w3.org/2000/svg" xmlns:xlink="http://www.w3.org/1999/xlink">
<g id="graph0" class="graph" transform="scale(1 1) rotate(0) translate(4 248)">
<title>MiniDB.h</title>
<polygon fill="white" stroke="none" points="-4,4 -4,-248 368.5,-248 368.5,4 -4,4"/>
<!-- Node4 -->
<g id="node1" class="node"><title>Node4</title>
<g id="a_node1"><a xlink:title="Облегчённый класс для работы с бд">
<polygon fill="#bfbfbf" stroke="black" points="145.5,-224.5 145.5,-243.5 201.5,-243.5 201.5,-224.5 145.5,-224.5"/>
<text text-anchor="middle" x="173.5" y="-231.5" font-family="Helvetica,sans-Serif" font-size="10.00">MiniDB.h</text>
</a>
</g>
</g>
<!-- Node5 -->
<g id="node2" class="node"><title>Node5</title>
<g id="a_node2"><a xlink:href="server_2src_2_battleship_royale_8cpp.html" target="_top" xlink:title="Сервер">
<polygon fill="white" stroke="black" points="0,-0.5 0,-19.5 109,-19.5 109,-0.5 0,-0.5"/>
<text text-anchor="middle" x="54.5" y="-7.5" font-family="Helvetica,sans-Serif" font-size="10.00">BattleshipRoyale.cpp</text>
</a>
</g>
</g>
<!-- Node4&#45;&gt;Node5 -->
<g id="edge1" class="edge"><title>Node4&#45;&gt;Node5</title>
<path fill="none" stroke="midnightblue" d="M152.546,-218.431C129.075,-200.86 91.9138,-169.028 73.5,-132 54.3735,-93.5393 53.6012,-40.4374 54.1265,-19.7464"/>
<polygon fill="midnightblue" stroke="midnightblue" points="150.66,-221.387 160.804,-224.448 154.783,-215.73 150.66,-221.387"/>
</g>
<!-- Node6 -->
<g id="node3" class="node"><title>Node6</title>
<g id="a_node3"><a xlink:href="_processing_8h.html" target="_top" xlink:title="Обработка запросов">
<polygon fill="white" stroke="black" points="136.5,-168.5 136.5,-187.5 210.5,-187.5 210.5,-168.5 136.5,-168.5"/>
<text text-anchor="middle" x="173.5" y="-175.5" font-family="Helvetica,sans-Serif" font-size="10.00">Processing.h</text>
</a>
</g>
</g>
<!-- Node4&#45;&gt;Node6 -->
<g id="edge2" class="edge"><title>Node4&#45;&gt;Node6</title>
<path fill="none" stroke="midnightblue" d="M173.5,-213.805C173.5,-204.91 173.5,-194.78 173.5,-187.751"/>
<polygon fill="midnightblue" stroke="midnightblue" points="170,-214.083 173.5,-224.083 177,-214.083 170,-214.083"/>
</g>
<!-- Node13 -->
<g id="node10" class="node"><title>Node13</title>
<g id="a_node10"><a xlink:href="server_2src_2_mini_d_b_8cpp.html" target="_top" xlink:title="Облегчённый класс для работы с бд">
<polygon fill="white" stroke="black" points="229,-168.5 229,-187.5 296,-187.5 296,-168.5 229,-168.5"/>
<text text-anchor="middle" x="262.5" y="-175.5" font-family="Helvetica,sans-Serif" font-size="10.00">MiniDB.cpp</text>
</a>
</g>
</g>
<!-- Node4&#45;&gt;Node13 -->
<g id="edge10" class="edge"><title>Node4&#45;&gt;Node13</title>
<path fill="none" stroke="midnightblue" d="M196.738,-218.901C213.058,-208.999 234.365,-196.071 248.236,-187.655"/>
<polygon fill="midnightblue" stroke="midnightblue" points="194.533,-216.144 187.799,-224.324 198.164,-222.129 194.533,-216.144"/>
</g>
<!-- Node7 -->
<g id="node4" class="node"><title>Node7</title>
<g id="a_node4"><a xlink:href="examples_2_processing_8cpp.html" target="_top" xlink:title=" ">
<polygon fill="white" stroke="black" points="82.5,-112.5 82.5,-131.5 166.5,-131.5 166.5,-112.5 82.5,-112.5"/>
<text text-anchor="middle" x="124.5" y="-119.5" font-family="Helvetica,sans-Serif" font-size="10.00">Processing.cpp</text>
</a>
</g>
</g>
<!-- Node6&#45;&gt;Node7 -->
<g id="edge3" class="edge"><title>Node6&#45;&gt;Node7</title>
<path fill="none" stroke="midnightblue" d="M158.466,-160.431C149.878,-150.967 139.457,-139.483 132.441,-131.751"/>
<polygon fill="midnightblue" stroke="midnightblue" points="156.097,-163.029 165.409,-168.083 161.281,-158.325 156.097,-163.029"/>
</g>
<!-- Node8 -->
<g id="node5" class="node"><title>Node8</title>
<g id="a_node5"><a xlink:href="server_2src_2con__handler_8h.html" target="_top" xlink:title="handler">
<polygon fill="white" stroke="black" points="185,-112.5 185,-131.5 262,-131.5 262,-112.5 185,-112.5"/>
<text text-anchor="middle" x="223.5" y="-119.5" font-family="Helvetica,sans-Serif" font-size="10.00">con_handler.h</text>
</a>
</g>
</g>
<!-- Node6&#45;&gt;Node8 -->
<g id="edge4" class="edge"><title>Node6&#45;&gt;Node8</title>
<path fill="none" stroke="midnightblue" d="M188.576,-160.718C197.389,-151.2 208.166,-139.561 215.397,-131.751"/>
<polygon fill="midnightblue" stroke="midnightblue" points="185.982,-158.367 181.756,-168.083 191.119,-163.123 185.982,-158.367"/>
</g>
<!-- Node12 -->
<g id="node9" class="node"><title>Node12</title>
<g id="a_node9"><a xlink:href="server_2src_2_processing_8cpp.html" target="_top" xlink:title="Обработка запросов">
<polygon fill="white" stroke="black" points="280.5,-112.5 280.5,-131.5 364.5,-131.5 364.5,-112.5 280.5,-112.5"/>
<text text-anchor="middle" x="322.5" y="-119.5" font-family="Helvetica,sans-Serif" font-size="10.00">Processing.cpp</text>
</a>
</g>
</g>
<!-- Node6&#45;&gt;Node12 -->
<g id="edge9" class="edge"><title>Node6&#45;&gt;Node12</title>
<path fill="none" stroke="midnightblue" d="M206.871,-164.906C234.884,-154.754 274.196,-140.506 299.001,-131.516"/>
<polygon fill="midnightblue" stroke="midnightblue" points="205.319,-161.746 197.109,-168.444 207.704,-168.327 205.319,-161.746"/>
</g>
<!-- Node9 -->
<g id="node6" class="node"><title>Node9</title>
<g id="a_node6"><a xlink:href="server_2src_2_server_8h.html" target="_top" xlink:title="Асинхронный сервер написанный на boost asio.">
<polygon fill="white" stroke="black" points="120.5,-56.5 120.5,-75.5 172.5,-75.5 172.5,-56.5 120.5,-56.5"/>
<text text-anchor="middle" x="146.5" y="-63.5" font-family="Helvetica,sans-Serif" font-size="10.00">Server.h</text>
</a>
</g>
</g>
<!-- Node8&#45;&gt;Node9 -->
<g id="edge5" class="edge"><title>Node8&#45;&gt;Node9</title>
<path fill="none" stroke="midnightblue" d="M202.599,-106.342C188.589,-96.5169 170.617,-83.9132 158.841,-75.6545"/>
<polygon fill="midnightblue" stroke="midnightblue" points="200.932,-109.448 211.129,-112.324 204.951,-103.717 200.932,-109.448"/>
</g>
<!-- Node11 -->
<g id="node8" class="node"><title>Node11</title>
<g id="a_node8"><a xlink:href="server_2src_2con__handler_8cpp.html" target="_top" xlink:title="handler">
<polygon fill="white" stroke="black" points="190.5,-56.5 190.5,-75.5 278.5,-75.5 278.5,-56.5 190.5,-56.5"/>
<text text-anchor="middle" x="234.5" y="-63.5" font-family="Helvetica,sans-Serif" font-size="10.00">con_handler.cpp</text>
</a>
</g>
</g>
<!-- Node8&#45;&gt;Node11 -->
<g id="edge8" class="edge"><title>Node8&#45;&gt;Node11</title>
<path fill="none" stroke="midnightblue" d="M227.35,-102.101C229.176,-93.1357 231.27,-82.8579 232.717,-75.7511"/>
<polygon fill="midnightblue" stroke="midnightblue" points="223.883,-101.586 225.316,-112.083 230.742,-102.983 223.883,-101.586"/>
</g>
<!-- Node9&#45;&gt;Node5 -->
<g id="edge6" class="edge"><title>Node9&#45;&gt;Node5</title>
<path fill="none" stroke="midnightblue" d="M122.95,-51.1774C106.021,-41.2407 83.7172,-28.1492 69.2447,-19.6545"/>
<polygon fill="midnightblue" stroke="midnightblue" points="121.323,-54.2804 131.719,-56.324 124.866,-48.2435 121.323,-54.2804"/>
</g>
<!-- Node10 -->
<g id="node7" class="node"><title>Node10</title>
<g id="a_node7"><a xlink:href="server_2src_2_server_8cpp.html" target="_top" xlink:title="Асинхронный сервер написанный на boost asio.">
<polygon fill="white" stroke="black" points="127.5,-0.5 127.5,-19.5 189.5,-19.5 189.5,-0.5 127.5,-0.5"/>
<text text-anchor="middle" x="158.5" y="-7.5" font-family="Helvetica,sans-Serif" font-size="10.00">Server.cpp</text>
</a>
</g>
</g>
<!-- Node9&#45;&gt;Node10 -->
<g id="edge7" class="edge"><title>Node9&#45;&gt;Node10</title>
<path fill="none" stroke="midnightblue" d="M150.7,-46.1005C152.692,-37.1357 154.976,-26.8579 156.555,-19.7511"/>
<polygon fill="midnightblue" stroke="midnightblue" points="147.234,-45.5618 148.482,-56.083 154.068,-47.0804 147.234,-45.5618"/>
</g>
</g>
</svg>
