<?xml version="1.0" encoding="UTF-8" standalone="no"?>
<!DOCTYPE svg PUBLIC "-//W3C//DTD SVG 1.1//EN"
 "http://www.w3.org/Graphics/SVG/1.1/DTD/svg11.dtd">
<!-- Generated by graphviz version 2.38.0 (20140413.2041)
 -->
<!-- Title: BattleshipRoyale.cpp Pages: 1 -->
<svg width="790pt" height="330pt"
 viewBox="0.00 0.00 789.50 330.00" xmlns="http://www.w3.org/2000/svg" xmlns:xlink="http://www.w3.org/1999/xlink">
<g id="graph0" class="graph" transform="scale(1 1) rotate(0) translate(4 326)">
<title>BattleshipRoyale.cpp</title>
<polygon fill="white" stroke="none" points="-4,4 -4,-326 785.5,-326 785.5,4 -4,4"/>
<!-- Node0 -->
<g id="node1" class="node"><title>Node0</title>
<g id="a_node1"><a xlink:title="Сервер">
<polygon fill="#bfbfbf" stroke="black" points="298.5,-302.5 298.5,-321.5 407.5,-321.5 407.5,-302.5 298.5,-302.5"/>
<text text-anchor="middle" x="353" y="-309.5" font-family="Helvetica,sans-Serif" font-size="10.00">BattleshipRoyale.cpp</text>
</a>
</g>
</g>
<!-- Node1 -->
<g id="node2" class="node"><title>Node1</title>
<g id="a_node2"><a xlink:title=" ">
<polygon fill="white" stroke="#bfbfbf" points="0,-241 0,-260 54,-260 54,-241 0,-241"/>
<text text-anchor="middle" x="27" y="-248" font-family="Helvetica,sans-Serif" font-size="10.00">iostream</text>
</a>
</g>
</g>
<!-- Node0&#45;&gt;Node1 -->
<g id="edge1" class="edge"><title>Node0&#45;&gt;Node1</title>
<path fill="none" stroke="midnightblue" d="M298.294,-305.381C240.471,-298.742 146.904,-286.002 68,-266 64.9513,-265.227 61.8093,-264.322 58.6849,-263.348"/>
<polygon fill="midnightblue" stroke="midnightblue" points="59.4949,-259.928 48.9012,-260.08 57.277,-266.568 59.4949,-259.928"/>
</g>
<!-- Node2 -->
<g id="node3" class="node"><title>Node2</title>
<g id="a_node3"><a xlink:title=" ">
<polygon fill="white" stroke="#bfbfbf" points="107.5,-0.5 107.5,-19.5 148.5,-19.5 148.5,-0.5 107.5,-0.5"/>
<text text-anchor="middle" x="128" y="-7.5" font-family="Helvetica,sans-Serif" font-size="10.00">string</text>
</a>
</g>
</g>
<!-- Node0&#45;&gt;Node2 -->
<g id="edge2" class="edge"><title>Node0&#45;&gt;Node2</title>
<path fill="none" stroke="midnightblue" d="M298.485,-310.04C219.349,-305.431 82,-283.905 82,-190 82,-190 82,-190 82,-126.5 82,-89.2729 102.88,-49.7804 116.505,-27.9733"/>
<polygon fill="midnightblue" stroke="midnightblue" points="119.483,-29.8136 121.986,-19.5186 113.61,-26.0058 119.483,-29.8136"/>
</g>
<!-- Node3 -->
<g id="node4" class="node"><title>Node3</title>
<g id="a_node4"><a xlink:title=" ">
<polygon fill="white" stroke="#bfbfbf" points="408.5,-241 408.5,-260 493.5,-260 493.5,-241 408.5,-241"/>
<text text-anchor="middle" x="451" y="-248" font-family="Helvetica,sans-Serif" font-size="10.00">spdlog/spdlog.h</text>
</a>
</g>
</g>
<!-- Node0&#45;&gt;Node3 -->
<g id="edge3" class="edge"><title>Node0&#45;&gt;Node3</title>
<path fill="none" stroke="midnightblue" d="M367.041,-302.475C383.051,-292.755 409.45,-276.727 428.374,-265.237"/>
<polygon fill="midnightblue" stroke="midnightblue" points="430.254,-268.191 436.985,-260.009 426.621,-262.207 430.254,-268.191"/>
</g>
<!-- Node4 -->
<g id="node5" class="node"><title>Node4</title>
<g id="a_node5"><a xlink:title=" ">
<polygon fill="white" stroke="#bfbfbf" points="512,-235.5 512,-265.5 610,-265.5 610,-235.5 512,-235.5"/>
<text text-anchor="start" x="520" y="-253.5" font-family="Helvetica,sans-Serif" font-size="10.00">spdlog/sinks/basic</text>
<text text-anchor="middle" x="561" y="-242.5" font-family="Helvetica,sans-Serif" font-size="10.00">_file_sink.h</text>
</a>
</g>
</g>
<!-- Node0&#45;&gt;Node4 -->
<g id="edge4" class="edge"><title>Node0&#45;&gt;Node4</title>
<path fill="none" stroke="midnightblue" d="M382.801,-302.475C413.868,-293.588 463.366,-279.429 502.32,-268.286"/>
<polygon fill="midnightblue" stroke="midnightblue" points="503.327,-271.638 511.979,-265.523 501.402,-264.908 503.327,-271.638"/>
</g>
<!-- Node5 -->
<g id="node6" class="node"><title>Node5</title>
<g id="a_node6"><a xlink:title=" ">
<polygon fill="white" stroke="#bfbfbf" points="628,-241 628,-260 698,-260 698,-241 628,-241"/>
<text text-anchor="middle" x="663" y="-248" font-family="Helvetica,sans-Serif" font-size="10.00">cxxopts.hpp</text>
</a>
</g>
</g>
<!-- Node0&#45;&gt;Node5 -->
<g id="edge5" class="edge"><title>Node0&#45;&gt;Node5</title>
<path fill="none" stroke="midnightblue" d="M407.751,-304.196C461.879,-296.895 546.83,-283.888 619,-266 622.381,-265.162 625.878,-264.192 629.354,-263.16"/>
<polygon fill="midnightblue" stroke="midnightblue" points="630.489,-266.472 638.984,-260.14 628.395,-259.793 630.489,-266.472"/>
</g>
<!-- Node6 -->
<g id="node7" class="node"><title>Node6</title>
<g id="a_node7"><a xlink:href="_battleship_royale_8h.html" target="_top" xlink:title="Заголовочный файл с пространством имён, которое хранит в себе константы.">
<polygon fill="white" stroke="black" points="364,-0.5 364,-19.5 462,-19.5 462,-0.5 364,-0.5"/>
<text text-anchor="middle" x="413" y="-7.5" font-family="Helvetica,sans-Serif" font-size="10.00">BattleshipRoyale.h</text>
</a>
</g>
</g>
<!-- Node0&#45;&gt;Node6 -->
<g id="edge6" class="edge"><title>Node0&#45;&gt;Node6</title>
<path fill="none" stroke="midnightblue" d="M357.486,-302.04C365.109,-287.261 381.567,-257.201 400,-235 438.787,-188.283 476.463,-198.541 501,-143 521.449,-96.713 467.22,-48.8758 434.971,-25.5544"/>
<polygon fill="midnightblue" stroke="midnightblue" points="436.737,-22.5182 426.538,-19.6484 432.721,-28.2519 436.737,-22.5182"/>
</g>
<!-- Node7 -->
<g id="node8" class="node"><title>Node7</title>
<g id="a_node8"><a xlink:href="_regex_8h.html" target="_top" xlink:title="Работа с регулярными выражениями">
<polygon fill="white" stroke="black" points="110.5,-179.5 110.5,-198.5 163.5,-198.5 163.5,-179.5 110.5,-179.5"/>
<text text-anchor="middle" x="137" y="-186.5" font-family="Helvetica,sans-Serif" font-size="10.00">Regex.h</text>
</a>
</g>
</g>
<!-- Node0&#45;&gt;Node7 -->
<g id="edge7" class="edge"><title>Node0&#45;&gt;Node7</title>
<path fill="none" stroke="midnightblue" d="M298.272,-308.23C260.985,-303.826 212.343,-292.868 178,-266 159.226,-251.312 147.956,-225.552 142.112,-208.139"/>
<polygon fill="midnightblue" stroke="midnightblue" points="145.446,-207.074 139.155,-198.549 138.757,-209.137 145.446,-207.074"/>
</g>
<!-- Node8 -->
<g id="node9" class="node"><title>Node8</title>
<g id="a_node9"><a xlink:href="server_2src_2_mini_d_b_8h.html" target="_top" xlink:title="Облегчённый класс для работы с бд">
<polygon fill="white" stroke="black" points="184,-56.5 184,-75.5 240,-75.5 240,-56.5 184,-56.5"/>
<text text-anchor="middle" x="212" y="-63.5" font-family="Helvetica,sans-Serif" font-size="10.00">MiniDB.h</text>
</a>
</g>
</g>
<!-- Node0&#45;&gt;Node8 -->
<g id="edge9" class="edge"><title>Node0&#45;&gt;Node8</title>
<path fill="none" stroke="midnightblue" d="M338.128,-302.472C302.711,-281.139 214.156,-221.493 185,-143 180.203,-130.084 181.322,-125.278 185,-112 187.792,-101.921 193.509,-91.832 198.967,-83.7694"/>
<polygon fill="midnightblue" stroke="midnightblue" points="201.825,-85.7899 204.849,-75.6357 196.153,-81.6881 201.825,-85.7899"/>
</g>
<!-- Node10 -->
<g id="node11" class="node"><title>Node10</title>
<g id="a_node11"><a xlink:href="server_2src_2_server_8h.html" target="_top" xlink:title="Асинхронный сервер написанный на boost asio.">
<polygon fill="white" stroke="black" points="300,-241 300,-260 352,-260 352,-241 300,-241"/>
<text text-anchor="middle" x="326" y="-248" font-family="Helvetica,sans-Serif" font-size="10.00">Server.h</text>
</a>
</g>
</g>
<!-- Node0&#45;&gt;Node10 -->
<g id="edge13" class="edge"><title>Node0&#45;&gt;Node10</title>
<path fill="none" stroke="midnightblue" d="M349.132,-302.475C345.202,-293.815 339,-280.149 334.007,-269.145"/>
<polygon fill="midnightblue" stroke="midnightblue" points="337.181,-267.669 329.861,-260.009 330.806,-270.562 337.181,-267.669"/>
</g>
<!-- Node15 -->
<g id="node16" class="node"><title>Node15</title>
<g id="a_node16"><a xlink:href="rand__sse_8h.html" target="_top" xlink:title="Генерация рандомных чисел через SSE.">
<polygon fill="white" stroke="black" points="716.5,-241 716.5,-260 781.5,-260 781.5,-241 716.5,-241"/>
<text text-anchor="middle" x="749" y="-248" font-family="Helvetica,sans-Serif" font-size="10.00">rand_sse.h</text>
</a>
</g>
</g>
<!-- Node0&#45;&gt;Node15 -->
<g id="edge19" class="edge"><title>Node0&#45;&gt;Node15</title>
<path fill="none" stroke="midnightblue" d="M407.592,-307.563C477.658,-302.356 602.63,-290.375 707,-266 710.408,-265.204 713.928,-264.235 717.413,-263.178"/>
<polygon fill="midnightblue" stroke="midnightblue" points="718.597,-266.474 727.017,-260.043 716.425,-259.819 718.597,-266.474"/>
</g>
<!-- Node7&#45;&gt;Node2 -->
<g id="edge8" class="edge"><title>Node7&#45;&gt;Node2</title>
<path fill="none" stroke="midnightblue" d="M136.566,-179.463C135.191,-152.428 130.91,-68.2392 128.972,-30.109"/>
<polygon fill="midnightblue" stroke="midnightblue" points="132.454,-29.6777 128.451,-19.8684 125.463,-30.0332 132.454,-29.6777"/>
</g>
<!-- Node8&#45;&gt;Node2 -->
<g id="edge10" class="edge"><title>Node8&#45;&gt;Node2</title>
<path fill="none" stroke="midnightblue" d="M198.504,-56.324C185.4,-47.9002 165.288,-34.9709 149.893,-25.0741"/>
<polygon fill="midnightblue" stroke="midnightblue" points="151.767,-22.118 141.463,-19.6545 147.982,-28.0063 151.767,-22.118"/>
</g>
<!-- Node8&#45;&gt;Node6 -->
<g id="edge12" class="edge"><title>Node8&#45;&gt;Node6</title>
<path fill="none" stroke="midnightblue" d="M240.372,-57.3776C274.517,-48.2043 332.14,-32.7235 371.335,-22.1936"/>
<polygon fill="midnightblue" stroke="midnightblue" points="372.375,-25.5385 381.124,-19.5637 370.558,-18.7782 372.375,-25.5385"/>
</g>
<!-- Node9 -->
<g id="node10" class="node"><title>Node9</title>
<g id="a_node10"><a xlink:title=" ">
<polygon fill="white" stroke="#bfbfbf" points="185.5,-0.5 185.5,-19.5 238.5,-19.5 238.5,-0.5 185.5,-0.5"/>
<text text-anchor="middle" x="212" y="-7.5" font-family="Helvetica,sans-Serif" font-size="10.00">sqlite3.h</text>
</a>
</g>
</g>
<!-- Node8&#45;&gt;Node9 -->
<g id="edge11" class="edge"><title>Node8&#45;&gt;Node9</title>
<path fill="none" stroke="midnightblue" d="M212,-56.083C212,-49.0059 212,-38.8611 212,-29.9865"/>
<polygon fill="midnightblue" stroke="midnightblue" points="215.5,-29.751 212,-19.7511 208.5,-29.7511 215.5,-29.751"/>
</g>
<!-- Node11 -->
<g id="node12" class="node"><title>Node11</title>
<g id="a_node12"><a xlink:href="server_2src_2con__handler_8h.html" target="_top" xlink:title="handler">
<polygon fill="white" stroke="black" points="287.5,-179.5 287.5,-198.5 364.5,-198.5 364.5,-179.5 287.5,-179.5"/>
<text text-anchor="middle" x="326" y="-186.5" font-family="Helvetica,sans-Serif" font-size="10.00">con_handler.h</text>
</a>
</g>
</g>
<!-- Node10&#45;&gt;Node11 -->
<g id="edge14" class="edge"><title>Node10&#45;&gt;Node11</title>
<path fill="none" stroke="midnightblue" d="M326,-240.975C326,-232.58 326,-219.481 326,-208.663"/>
<polygon fill="midnightblue" stroke="midnightblue" points="329.5,-208.509 326,-198.509 322.5,-208.509 329.5,-208.509"/>
</g>
<!-- Node12 -->
<g id="node13" class="node"><title>Node12</title>
<g id="a_node13"><a xlink:title=" ">
<polygon fill="white" stroke="#bfbfbf" points="286,-118 286,-137 366,-137 366,-118 286,-118"/>
<text text-anchor="middle" x="326" y="-125" font-family="Helvetica,sans-Serif" font-size="10.00">boost/asio.hpp</text>
</a>
</g>
</g>
<!-- Node11&#45;&gt;Node12 -->
<g id="edge15" class="edge"><title>Node11&#45;&gt;Node12</title>
<path fill="none" stroke="midnightblue" d="M326,-179.475C326,-171.08 326,-157.981 326,-147.163"/>
<polygon fill="midnightblue" stroke="midnightblue" points="329.5,-147.009 326,-137.009 322.5,-147.009 329.5,-147.009"/>
</g>
<!-- Node13 -->
<g id="node14" class="node"><title>Node13</title>
<g id="a_node14"><a xlink:title=" ">
<polygon fill="white" stroke="#bfbfbf" points="384.5,-112.5 384.5,-142.5 491.5,-142.5 491.5,-112.5 384.5,-112.5"/>
<text text-anchor="start" x="392.5" y="-130.5" font-family="Helvetica,sans-Serif" font-size="10.00">boost/enable_shared</text>
<text text-anchor="middle" x="438" y="-119.5" font-family="Helvetica,sans-Serif" font-size="10.00">_from_this.hpp</text>
</a>
</g>
</g>
<!-- Node11&#45;&gt;Node13 -->
<g id="edge16" class="edge"><title>Node11&#45;&gt;Node13</title>
<path fill="none" stroke="midnightblue" d="M342.047,-179.475C357.783,-171.115 382.301,-158.09 402.614,-147.299"/>
<polygon fill="midnightblue" stroke="midnightblue" points="404.415,-150.305 411.604,-142.523 401.131,-144.124 404.415,-150.305"/>
</g>
<!-- Node14 -->
<g id="node15" class="node"><title>Node14</title>
<g id="a_node15"><a xlink:href="_processing_8h.html" target="_top" xlink:title="Обработка запросов">
<polygon fill="white" stroke="black" points="194,-118 194,-137 268,-137 268,-118 194,-118"/>
<text text-anchor="middle" x="231" y="-125" font-family="Helvetica,sans-Serif" font-size="10.00">Processing.h</text>
</a>
</g>
</g>
<!-- Node11&#45;&gt;Node14 -->
<g id="edge17" class="edge"><title>Node11&#45;&gt;Node14</title>
<path fill="none" stroke="midnightblue" d="M312.389,-179.475C296.939,-169.799 271.51,-153.872 253.184,-142.394"/>
<polygon fill="midnightblue" stroke="midnightblue" points="254.919,-139.351 244.586,-137.009 251.203,-145.283 254.919,-139.351"/>
</g>
<!-- Node14&#45;&gt;Node8 -->
<g id="edge18" class="edge"><title>Node14&#45;&gt;Node8</title>
<path fill="none" stroke="midnightblue" d="M228.278,-117.975C225.569,-109.492 221.326,-96.2043 217.851,-85.3222"/>
<polygon fill="midnightblue" stroke="midnightblue" points="221.093,-83.9705 214.717,-75.5091 214.425,-86.0999 221.093,-83.9705"/>
</g>
</g>
</svg>
