<?xml version="1.0" encoding="UTF-8" standalone="no"?>
<!DOCTYPE svg PUBLIC "-//W3C//DTD SVG 1.1//EN"
 "http://www.w3.org/Graphics/SVG/1.1/DTD/svg11.dtd">
<!-- Generated by graphviz version 2.38.0 (20140413.2041)
 -->
<!-- Title: src/server/src/MiniDB.h Pages: 1 -->
<svg width="519pt" height="285pt"
 viewBox="0.00 0.00 519.00 285.00" xmlns="http://www.w3.org/2000/svg" xmlns:xlink="http://www.w3.org/1999/xlink">
<g id="graph0" class="graph" transform="scale(1 1) rotate(0) translate(4 281)">
<title>src/server/src/MiniDB.h</title>
<polygon fill="white" stroke="none" points="-4,4 -4,-281 515,-281 515,4 -4,4"/>
<!-- Node4 -->
<g id="node1" class="node"><title>Node4</title>
<g id="a_node1"><a xlink:title="Облегчённый класс для работы с бд">
<polygon fill="#bfbfbf" stroke="black" points="172,-257.5 172,-276.5 290,-276.5 290,-257.5 172,-257.5"/>
<text text-anchor="middle" x="231" y="-264.5" font-family="Helvetica,sans-Serif" font-size="10.00">src/server/src/MiniDB.h</text>
</a>
</g>
</g>
<!-- Node5 -->
<g id="node2" class="node"><title>Node5</title>
<g id="a_node2"><a xlink:href="server_2src_2_battleship_royale_8cpp.html" target="_top" xlink:title="Сервер">
<polygon fill="white" stroke="black" points="0,-0.5 0,-30.5 122,-30.5 122,-0.5 0,-0.5"/>
<text text-anchor="start" x="8" y="-18.5" font-family="Helvetica,sans-Serif" font-size="10.00">src/server/src/Battleship</text>
<text text-anchor="middle" x="61" y="-7.5" font-family="Helvetica,sans-Serif" font-size="10.00">Royale.cpp</text>
</a>
</g>
</g>
<!-- Node4&#45;&gt;Node5 -->
<g id="edge1" class="edge"><title>Node4&#45;&gt;Node5</title>
<path fill="none" stroke="midnightblue" d="M196.607,-253.604C160.657,-238.644 105.942,-209.775 80,-165 54.7219,-121.37 56.8446,-58.5864 59.3555,-30.7344"/>
<polygon fill="midnightblue" stroke="midnightblue" points="195.626,-256.981 206.21,-257.456 198.232,-250.484 195.626,-256.981"/>
</g>
<!-- Node6 -->
<g id="node3" class="node"><title>Node6</title>
<g id="a_node3"><a xlink:href="_processing_8h.html" target="_top" xlink:title="Обработка запросов">
<polygon fill="white" stroke="black" points="163.5,-201.5 163.5,-220.5 298.5,-220.5 298.5,-201.5 163.5,-201.5"/>
<text text-anchor="middle" x="231" y="-208.5" font-family="Helvetica,sans-Serif" font-size="10.00">src/server/src/Processing.h</text>
</a>
</g>
</g>
<!-- Node4&#45;&gt;Node6 -->
<g id="edge2" class="edge"><title>Node4&#45;&gt;Node6</title>
<path fill="none" stroke="midnightblue" d="M231,-246.805C231,-237.91 231,-227.78 231,-220.751"/>
<polygon fill="midnightblue" stroke="midnightblue" points="227.5,-247.083 231,-257.083 234.5,-247.083 227.5,-247.083"/>
</g>
<!-- Node13 -->
<g id="node10" class="node"><title>Node13</title>
<g id="a_node10"><a xlink:href="server_2src_2_mini_d_b_8cpp.html" target="_top" xlink:title="Облегчённый класс для работы с бд">
<polygon fill="white" stroke="black" points="317,-201.5 317,-220.5 445,-220.5 445,-201.5 317,-201.5"/>
<text text-anchor="middle" x="381" y="-208.5" font-family="Helvetica,sans-Serif" font-size="10.00">src/server/src/MiniDB.cpp</text>
</a>
</g>
</g>
<!-- Node4&#45;&gt;Node13 -->
<g id="edge10" class="edge"><title>Node4&#45;&gt;Node13</title>
<path fill="none" stroke="midnightblue" d="M264.225,-254.039C292.448,-243.879 332.262,-229.546 357.343,-220.516"/>
<polygon fill="midnightblue" stroke="midnightblue" points="262.991,-250.763 254.768,-257.444 265.362,-257.349 262.991,-250.763"/>
</g>
<!-- Node7 -->
<g id="node4" class="node"><title>Node7</title>
<g id="a_node4"><a xlink:href="examples_2_processing_8cpp.html" target="_top" xlink:title=" ">
<polygon fill="white" stroke="black" points="89,-140 89,-159 235,-159 235,-140 89,-140"/>
<text text-anchor="middle" x="162" y="-147" font-family="Helvetica,sans-Serif" font-size="10.00">src/examples/Processing.cpp</text>
</a>
</g>
</g>
<!-- Node6&#45;&gt;Node7 -->
<g id="edge3" class="edge"><title>Node6&#45;&gt;Node7</title>
<path fill="none" stroke="midnightblue" d="M213.199,-194.65C200.044,-183.306 182.62,-168.281 171.868,-159.009"/>
<polygon fill="midnightblue" stroke="midnightblue" points="211.255,-197.595 221.114,-201.475 215.826,-192.294 211.255,-197.595"/>
</g>
<!-- Node8 -->
<g id="node5" class="node"><title>Node8</title>
<g id="a_node5"><a xlink:href="server_2src_2con__handler_8h.html" target="_top" xlink:title="handler">
<polygon fill="white" stroke="black" points="253,-134.5 253,-164.5 347,-164.5 347,-134.5 253,-134.5"/>
<text text-anchor="start" x="261" y="-152.5" font-family="Helvetica,sans-Serif" font-size="10.00">src/server/src/con</text>
<text text-anchor="middle" x="300" y="-141.5" font-family="Helvetica,sans-Serif" font-size="10.00">_handler.h</text>
</a>
</g>
</g>
<!-- Node6&#45;&gt;Node8 -->
<g id="edge4" class="edge"><title>Node6&#45;&gt;Node8</title>
<path fill="none" stroke="midnightblue" d="M248.486,-194.921C259.32,-185.579 273.14,-173.662 283.738,-164.523"/>
<polygon fill="midnightblue" stroke="midnightblue" points="246.174,-192.294 240.886,-201.475 250.745,-197.595 246.174,-192.294"/>
</g>
<!-- Node12 -->
<g id="node9" class="node"><title>Node12</title>
<g id="a_node9"><a xlink:href="server_2src_2_processing_8cpp.html" target="_top" xlink:title="Обработка запросов">
<polygon fill="white" stroke="black" points="365,-140 365,-159 511,-159 511,-140 365,-140"/>
<text text-anchor="middle" x="438" y="-147" font-family="Helvetica,sans-Serif" font-size="10.00">src/server/src/Processing.cpp</text>
</a>
</g>
</g>
<!-- Node6&#45;&gt;Node12 -->
<g id="edge9" class="edge"><title>Node6&#45;&gt;Node12</title>
<path fill="none" stroke="midnightblue" d="M270.397,-198.676C310.619,-187.114 372.146,-169.429 408.397,-159.009"/>
<polygon fill="midnightblue" stroke="midnightblue" points="269.302,-195.349 260.658,-201.475 271.236,-202.076 269.302,-195.349"/>
</g>
<!-- Node9 -->
<g id="node6" class="node"><title>Node9</title>
<g id="a_node6"><a xlink:href="server_2src_2_server_8h.html" target="_top" xlink:title="Асинхронный сервер написанный на boost asio.">
<polygon fill="white" stroke="black" points="133.5,-73 133.5,-92 246.5,-92 246.5,-73 133.5,-73"/>
<text text-anchor="middle" x="190" y="-80" font-family="Helvetica,sans-Serif" font-size="10.00">src/server/src/Server.h</text>
</a>
</g>
</g>
<!-- Node8&#45;&gt;Node9 -->
<g id="edge5" class="edge"><title>Node8&#45;&gt;Node9</title>
<path fill="none" stroke="midnightblue" d="M267.52,-129.307C246.566,-116.926 220.342,-101.43 204.396,-92.007"/>
<polygon fill="midnightblue" stroke="midnightblue" points="265.742,-132.322 276.132,-134.396 269.303,-126.295 265.742,-132.322"/>
</g>
<!-- Node11 -->
<g id="node8" class="node"><title>Node11</title>
<g id="a_node8"><a xlink:href="server_2src_2con__handler_8cpp.html" target="_top" xlink:title="handler">
<polygon fill="white" stroke="black" points="265,-67.5 265,-97.5 359,-97.5 359,-67.5 265,-67.5"/>
<text text-anchor="start" x="273" y="-85.5" font-family="Helvetica,sans-Serif" font-size="10.00">src/server/src/con</text>
<text text-anchor="middle" x="312" y="-74.5" font-family="Helvetica,sans-Serif" font-size="10.00">_handler.cpp</text>
</a>
</g>
</g>
<!-- Node8&#45;&gt;Node11 -->
<g id="edge8" class="edge"><title>Node8&#45;&gt;Node11</title>
<path fill="none" stroke="midnightblue" d="M304.449,-124.403C306.116,-115.37 307.955,-105.408 309.401,-97.5765"/>
<polygon fill="midnightblue" stroke="midnightblue" points="300.978,-123.927 302.604,-134.396 307.861,-125.198 300.978,-123.927"/>
</g>
<!-- Node9&#45;&gt;Node5 -->
<g id="edge6" class="edge"><title>Node9&#45;&gt;Node5</title>
<path fill="none" stroke="midnightblue" d="M163.886,-68.3419C142.171,-57.4 111.331,-41.8604 89.0855,-30.6516"/>
<polygon fill="midnightblue" stroke="midnightblue" points="162.364,-71.4943 172.87,-72.8685 165.514,-65.243 162.364,-71.4943"/>
</g>
<!-- Node10 -->
<g id="node7" class="node"><title>Node10</title>
<g id="a_node7"><a xlink:href="server_2src_2_server_8cpp.html" target="_top" xlink:title="Асинхронный сервер написанный на boost asio.">
<polygon fill="white" stroke="black" points="140,-6 140,-25 264,-25 264,-6 140,-6"/>
<text text-anchor="middle" x="202" y="-13" font-family="Helvetica,sans-Serif" font-size="10.00">src/server/src/Server.cpp</text>
</a>
</g>
</g>
<!-- Node9&#45;&gt;Node10 -->
<g id="edge7" class="edge"><title>Node9&#45;&gt;Node10</title>
<path fill="none" stroke="midnightblue" d="M193.501,-62.537C195.784,-50.1703 198.655,-34.6198 200.407,-25.1273"/>
<polygon fill="midnightblue" stroke="midnightblue" points="189.992,-62.2645 191.618,-72.7338 196.876,-63.5354 189.992,-62.2645"/>
</g>
</g>
</svg>
