<?xml version="1.0" encoding="UTF-8" standalone="no"?>
<!DOCTYPE svg PUBLIC "-//W3C//DTD SVG 1.1//EN"
 "http://www.w3.org/Graphics/SVG/1.1/DTD/svg11.dtd">
<!-- Generated by graphviz version 2.38.0 (20140413.2041)
 -->
<!-- Title: BattleshipRoyale.cpp Pages: 1 -->
<!--zoomable 274 -->
<svg id="main" version="1.1" xmlns="http://www.w3.org/2000/svg" xmlns:xlink="http://www.w3.org/1999/xlink" xml:space="preserve" onload="init(evt)">
<style type="text/css"><![CDATA[
.edge:hover path { stroke: red; }
.edge:hover polygon { stroke: red; fill: red; }
]]></style>
<script type="text/javascript"><![CDATA[
var edges = document.getElementsByTagName('g');
if (edges && edges.length) {
  for (var i=0;i<edges.length;i++) {
    if (edges[i].id.substr(0,4)=='edge') {
      edges[i].setAttribute('class','edge');
    }
  }
}
]]></script>
        <defs>
                <circle id="rim" cx="0" cy="0" r="7"/>
                <circle id="rim2" cx="0" cy="0" r="3.5"/>
                <g id="zoomPlus">
                        <use xlink:href="#rim" fill="#404040">
                                <set attributeName="fill" to="#808080" begin="zoomplus.mouseover" end="zoomplus.mouseout"/>
                        </use>
                        <path d="M-4,0h8M0,-4v8" fill="none" stroke="white" stroke-width="1.5" pointer-events="none"/>
                </g>
                <g id="zoomMin">
                        <use xlink:href="#rim" fill="#404040">
                                <set attributeName="fill" to="#808080" begin="zoomminus.mouseover" end="zoomminus.mouseout"/>
                        </use>
                        <path d="M-4,0h8" fill="none" stroke="white" stroke-width="1.5" pointer-events="none"/>
                </g>
                <g id="dirArrow">
                        <path fill="none" stroke="white" stroke-width="1.5" d="M0,-3.0v7 M-2.5,-0.5L0,-3.0L2.5,-0.5"/>
                </g>
               <g id="resetDef">
                       <use xlink:href="#rim2" fill="#404040">
                               <set attributeName="fill" to="#808080" begin="reset.mouseover" end="reset.mouseout"/>
                       </use>
               </g>
        </defs>

<script type="text/javascript">
var viewWidth = 726;
var viewHeight = 274;
var sectionId = 'dynsection-0';
</script>
<script xlink:href="svgpan.js"/>
<svg id="graph" class="graph">
<g id="viewport">
<title>BattleshipRoyale.cpp</title>
<polygon fill="white" stroke="none" points="-4,4 -4,-270 721.5,-270 721.5,4 -4,4"/>
<!-- Node0 -->
<g id="node1" class="node"><title>Node0</title>
<g id="a_node1"><a xlink:title="Сервер">
<polygon fill="#bfbfbf" stroke="black" points="234.5,-246.5 234.5,-265.5 343.5,-265.5 343.5,-246.5 234.5,-246.5"/>
<text text-anchor="middle" x="289" y="-253.5" font-family="Helvetica,sans-Serif" font-size="10.00">BattleshipRoyale.cpp</text>
</a>
</g>
</g>
<!-- Node1 -->
<g id="node2" class="node"><title>Node1</title>
<g id="a_node2"><a xlink:title=" ">
<polygon fill="white" stroke="#bfbfbf" points="0,-185 0,-204 54,-204 54,-185 0,-185"/>
<text text-anchor="middle" x="27" y="-192" font-family="Helvetica,sans-Serif" font-size="10.00">iostream</text>
</a>
</g>
</g>
<!-- Node0&#45;&gt;Node1 -->
<g id="edge1" class="edge"><title>Node0&#45;&gt;Node1</title>
<path fill="none" stroke="midnightblue" d="M236.718,-246.47C191.628,-238.612 124.976,-225.793 68,-210 65.0397,-209.179 61.9847,-208.253 58.9399,-207.276"/>
<polygon fill="midnightblue" stroke="midnightblue" points="59.9715,-203.93 49.3773,-204.047 57.7318,-210.562 59.9715,-203.93"/>
</g>
<!-- Node2 -->
<g id="node3" class="node"><title>Node2</title>
<g id="a_node3"><a xlink:title=" ">
<polygon fill="white" stroke="#bfbfbf" points="94.5,-0.5 94.5,-19.5 135.5,-19.5 135.5,-0.5 94.5,-0.5"/>
<text text-anchor="middle" x="115" y="-7.5" font-family="Helvetica,sans-Serif" font-size="10.00">string</text>
</a>
</g>
</g>
<!-- Node0&#45;&gt;Node2 -->
<g id="edge2" class="edge"><title>Node0&#45;&gt;Node2</title>
<path fill="none" stroke="midnightblue" d="M240.367,-246.462C212.823,-239.866 178.823,-228.616 153,-210 122.86,-188.272 114.707,-178.263 103,-143 90.0576,-104.017 100.998,-55.2216 108.808,-29.2499"/>
<polygon fill="midnightblue" stroke="midnightblue" points="112.178,-30.2025 111.885,-19.6118 105.51,-28.0737 112.178,-30.2025"/>
</g>
<!-- Node3 -->
<g id="node4" class="node"><title>Node3</title>
<g id="a_node4"><a xlink:title=" ">
<polygon fill="white" stroke="#bfbfbf" points="344.5,-185 344.5,-204 429.5,-204 429.5,-185 344.5,-185"/>
<text text-anchor="middle" x="387" y="-192" font-family="Helvetica,sans-Serif" font-size="10.00">spdlog/spdlog.h</text>
</a>
</g>
</g>
<!-- Node0&#45;&gt;Node3 -->
<g id="edge3" class="edge"><title>Node0&#45;&gt;Node3</title>
<path fill="none" stroke="midnightblue" d="M303.041,-246.475C319.051,-236.755 345.45,-220.727 364.374,-209.237"/>
<polygon fill="midnightblue" stroke="midnightblue" points="366.254,-212.191 372.985,-204.009 362.621,-206.207 366.254,-212.191"/>
</g>
<!-- Node4 -->
<g id="node5" class="node"><title>Node4</title>
<g id="a_node5"><a xlink:title=" ">
<polygon fill="white" stroke="#bfbfbf" points="448,-179.5 448,-209.5 546,-209.5 546,-179.5 448,-179.5"/>
<text text-anchor="start" x="456" y="-197.5" font-family="Helvetica,sans-Serif" font-size="10.00">spdlog/sinks/basic</text>
<text text-anchor="middle" x="497" y="-186.5" font-family="Helvetica,sans-Serif" font-size="10.00">_file_sink.h</text>
</a>
</g>
</g>
<!-- Node0&#45;&gt;Node4 -->
<g id="edge4" class="edge"><title>Node0&#45;&gt;Node4</title>
<path fill="none" stroke="midnightblue" d="M318.801,-246.475C349.868,-237.588 399.366,-223.429 438.32,-212.286"/>
<polygon fill="midnightblue" stroke="midnightblue" points="439.327,-215.638 447.979,-209.523 437.402,-208.908 439.327,-215.638"/>
</g>
<!-- Node5 -->
<g id="node6" class="node"><title>Node5</title>
<g id="a_node6"><a xlink:title=" ">
<polygon fill="white" stroke="#bfbfbf" points="564,-185 564,-204 634,-204 634,-185 564,-185"/>
<text text-anchor="middle" x="599" y="-192" font-family="Helvetica,sans-Serif" font-size="10.00">cxxopts.hpp</text>
</a>
</g>
</g>
<!-- Node0&#45;&gt;Node5 -->
<g id="edge5" class="edge"><title>Node0&#45;&gt;Node5</title>
<path fill="none" stroke="midnightblue" d="M343.751,-248.196C397.879,-240.895 482.83,-227.888 555,-210 558.381,-209.162 561.878,-208.192 565.354,-207.16"/>
<polygon fill="midnightblue" stroke="midnightblue" points="566.489,-210.472 574.984,-204.14 564.395,-203.793 566.489,-210.472"/>
</g>
<!-- Node6 -->
<g id="node7" class="node"><title>Node6</title>
<g id="a_node7"><a xlink:href="_battleship_royale_8h.html" target="_top" xlink:title="Заголовочный файл с пространством имён, которое хранит в себе константы.">
<polygon fill="white" stroke="black" points="318,-0.5 318,-19.5 416,-19.5 416,-0.5 318,-0.5"/>
<text text-anchor="middle" x="367" y="-7.5" font-family="Helvetica,sans-Serif" font-size="10.00">BattleshipRoyale.h</text>
</a>
</g>
</g>
<!-- Node0&#45;&gt;Node6 -->
<g id="edge6" class="edge"><title>Node0&#45;&gt;Node6</title>
<path fill="none" stroke="midnightblue" d="M293.486,-246.04C301.109,-231.261 317.567,-201.201 336,-179 374.787,-132.283 412.463,-142.541 437,-87 442.568,-74.3973 443.602,-68.0929 437,-56 429.181,-41.6789 414.638,-31.2355 400.824,-24.0358"/>
<polygon fill="midnightblue" stroke="midnightblue" points="402.001,-20.7188 391.469,-19.5617 398.981,-27.0338 402.001,-20.7188"/>
</g>
<!-- Node7 -->
<g id="node8" class="node"><title>Node7</title>
<g id="a_node8"><a xlink:href="_regex_8h.html" target="_top" xlink:title="Работа с регулярными выражениями">
<polygon fill="white" stroke="black" points="111.5,-123.5 111.5,-142.5 164.5,-142.5 164.5,-123.5 111.5,-123.5"/>
<text text-anchor="middle" x="138" y="-130.5" font-family="Helvetica,sans-Serif" font-size="10.00">Regex.h</text>
</a>
</g>
</g>
<!-- Node0&#45;&gt;Node7 -->
<g id="edge7" class="edge"><title>Node0&#45;&gt;Node7</title>
<path fill="none" stroke="midnightblue" d="M252.017,-246.452C229.156,-239.656 200.39,-228.201 180,-210 162.471,-194.353 150.718,-169.588 144.206,-152.607"/>
<polygon fill="midnightblue" stroke="midnightblue" points="147.341,-150.981 140.675,-142.746 140.751,-153.341 147.341,-150.981"/>
</g>
<!-- Node8 -->
<g id="node9" class="node"><title>Node8</title>
<g id="a_node9"><a xlink:href="server_2src_2_mini_d_b_8h.html" target="_top" xlink:title="Облегчённый класс для работы с бд">
<polygon fill="white" stroke="black" points="148,-62 148,-81 204,-81 204,-62 148,-62"/>
<text text-anchor="middle" x="176" y="-69" font-family="Helvetica,sans-Serif" font-size="10.00">MiniDB.h</text>
</a>
</g>
</g>
<!-- Node0&#45;&gt;Node8 -->
<g id="edge9" class="edge"><title>Node0&#45;&gt;Node8</title>
<path fill="none" stroke="midnightblue" d="M272.116,-246.418C258.272,-238.611 239.059,-225.893 227,-210 199.001,-173.098 185.04,-119.201 179.306,-91.1023"/>
<polygon fill="midnightblue" stroke="midnightblue" points="182.703,-90.2348 177.389,-81.0694 175.828,-91.5486 182.703,-90.2348"/>
</g>
<!-- Node10 -->
<g id="node11" class="node"><title>Node10</title>
<g id="a_node11"><a xlink:href="server_2src_2_server_8h.html" target="_top" xlink:title="Асинхронный сервер написанный на boost asio.">
<polygon fill="white" stroke="black" points="236,-185 236,-204 288,-204 288,-185 236,-185"/>
<text text-anchor="middle" x="262" y="-192" font-family="Helvetica,sans-Serif" font-size="10.00">Server.h</text>
</a>
</g>
</g>
<!-- Node0&#45;&gt;Node10 -->
<g id="edge13" class="edge"><title>Node0&#45;&gt;Node10</title>
<path fill="none" stroke="midnightblue" d="M285.132,-246.475C281.202,-237.815 275,-224.149 270.007,-213.145"/>
<polygon fill="midnightblue" stroke="midnightblue" points="273.181,-211.669 265.861,-204.009 266.806,-214.562 273.181,-211.669"/>
</g>
<!-- Node14 -->
<g id="node15" class="node"><title>Node14</title>
<g id="a_node15"><a xlink:href="rand__sse_8h.html" target="_top" xlink:title="Генерация рандомных чисел через SSE.">
<polygon fill="white" stroke="black" points="652.5,-185 652.5,-204 717.5,-204 717.5,-185 652.5,-185"/>
<text text-anchor="middle" x="685" y="-192" font-family="Helvetica,sans-Serif" font-size="10.00">rand_sse.h</text>
</a>
</g>
</g>
<!-- Node0&#45;&gt;Node14 -->
<g id="edge18" class="edge"><title>Node0&#45;&gt;Node14</title>
<path fill="none" stroke="midnightblue" d="M343.592,-251.563C413.658,-246.356 538.63,-234.375 643,-210 646.408,-209.204 649.928,-208.235 653.413,-207.178"/>
<polygon fill="midnightblue" stroke="midnightblue" points="654.597,-210.474 663.017,-204.043 652.425,-203.819 654.597,-210.474"/>
</g>
<!-- Node7&#45;&gt;Node2 -->
<g id="edge8" class="edge"><title>Node7&#45;&gt;Node2</title>
<path fill="none" stroke="midnightblue" d="M136.346,-123.298C132.633,-103.763 123.566,-56.0646 118.525,-29.5471"/>
<polygon fill="midnightblue" stroke="midnightblue" points="121.945,-28.7937 116.639,-19.6232 115.068,-30.1009 121.945,-28.7937"/>
</g>
<!-- Node8&#45;&gt;Node2 -->
<g id="edge10" class="edge"><title>Node8&#45;&gt;Node2</title>
<path fill="none" stroke="midnightblue" d="M167.26,-61.9751C157.838,-52.785 142.636,-37.9563 131.051,-26.656"/>
<polygon fill="midnightblue" stroke="midnightblue" points="133.326,-23.9861 123.724,-19.5091 128.438,-28.9971 133.326,-23.9861"/>
</g>
<!-- Node8&#45;&gt;Node6 -->
<g id="edge12" class="edge"><title>Node8&#45;&gt;Node6</title>
<path fill="none" stroke="midnightblue" d="M197.012,-61.8909C202.204,-59.8673 207.776,-57.7828 213,-56 250.464,-43.2138 293.794,-30.7554 324.93,-22.2015"/>
<polygon fill="midnightblue" stroke="midnightblue" points="325.862,-25.5753 334.588,-19.566 324.019,-18.8222 325.862,-25.5753"/>
</g>
<!-- Node9 -->
<g id="node10" class="node"><title>Node9</title>
<g id="a_node10"><a xlink:title=" ">
<polygon fill="white" stroke="#bfbfbf" points="153.5,-0.5 153.5,-19.5 206.5,-19.5 206.5,-0.5 153.5,-0.5"/>
<text text-anchor="middle" x="180" y="-7.5" font-family="Helvetica,sans-Serif" font-size="10.00">sqlite3.h</text>
</a>
</g>
</g>
<!-- Node8&#45;&gt;Node9 -->
<g id="edge11" class="edge"><title>Node8&#45;&gt;Node9</title>
<path fill="none" stroke="midnightblue" d="M176.573,-61.9751C177.137,-53.5803 178.018,-40.4806 178.745,-29.6631"/>
<polygon fill="midnightblue" stroke="midnightblue" points="182.249,-29.7214 179.428,-19.5091 175.265,-29.2518 182.249,-29.7214"/>
</g>
<!-- Node11 -->
<g id="node12" class="node"><title>Node11</title>
<g id="a_node12"><a xlink:href="server_2src_2con__handler_8h.html" target="_top" xlink:title="handler">
<polygon fill="white" stroke="black" points="223.5,-123.5 223.5,-142.5 300.5,-142.5 300.5,-123.5 223.5,-123.5"/>
<text text-anchor="middle" x="262" y="-130.5" font-family="Helvetica,sans-Serif" font-size="10.00">con_handler.h</text>
</a>
</g>
</g>
<!-- Node10&#45;&gt;Node11 -->
<g id="edge14" class="edge"><title>Node10&#45;&gt;Node11</title>
<path fill="none" stroke="midnightblue" d="M262,-184.975C262,-176.58 262,-163.481 262,-152.663"/>
<polygon fill="midnightblue" stroke="midnightblue" points="265.5,-152.509 262,-142.509 258.5,-152.509 265.5,-152.509"/>
</g>
<!-- Node11&#45;&gt;Node8 -->
<g id="edge17" class="edge"><title>Node11&#45;&gt;Node8</title>
<path fill="none" stroke="midnightblue" d="M249.678,-123.475C235.884,-113.931 213.301,-98.3073 196.768,-86.8683"/>
<polygon fill="midnightblue" stroke="midnightblue" points="198.514,-83.8205 188.299,-81.0091 194.531,-89.577 198.514,-83.8205"/>
</g>
<!-- Node12 -->
<g id="node13" class="node"><title>Node12</title>
<g id="a_node13"><a xlink:title=" ">
<polygon fill="white" stroke="#bfbfbf" points="222,-62 222,-81 302,-81 302,-62 222,-62"/>
<text text-anchor="middle" x="262" y="-69" font-family="Helvetica,sans-Serif" font-size="10.00">boost/asio.hpp</text>
</a>
</g>
</g>
<!-- Node11&#45;&gt;Node12 -->
<g id="edge15" class="edge"><title>Node11&#45;&gt;Node12</title>
<path fill="none" stroke="midnightblue" d="M262,-123.475C262,-115.08 262,-101.981 262,-91.1631"/>
<polygon fill="midnightblue" stroke="midnightblue" points="265.5,-91.0091 262,-81.0091 258.5,-91.0091 265.5,-91.0091"/>
</g>
<!-- Node13 -->
<g id="node14" class="node"><title>Node13</title>
<g id="a_node14"><a xlink:title=" ">
<polygon fill="white" stroke="#bfbfbf" points="320.5,-56.5 320.5,-86.5 427.5,-86.5 427.5,-56.5 320.5,-56.5"/>
<text text-anchor="start" x="328.5" y="-74.5" font-family="Helvetica,sans-Serif" font-size="10.00">boost/enable_shared</text>
<text text-anchor="middle" x="374" y="-63.5" font-family="Helvetica,sans-Serif" font-size="10.00">_from_this.hpp</text>
</a>
</g>
</g>
<!-- Node11&#45;&gt;Node13 -->
<g id="edge16" class="edge"><title>Node11&#45;&gt;Node13</title>
<path fill="none" stroke="midnightblue" d="M278.047,-123.475C293.783,-115.115 318.301,-102.09 338.614,-91.2991"/>
<polygon fill="midnightblue" stroke="midnightblue" points="340.415,-94.3055 347.604,-86.523 337.131,-88.1237 340.415,-94.3055"/>
</g>
</g>
</svg>
        <g id="navigator" transform="translate(0 0)" fill="#404254">
                <rect fill="#f2f5e9" fill-opacity="0.5" stroke="#606060" stroke-width=".5" x="0" y="0" width="60" height="60"/>
                <use id="zoomplus" xlink:href="#zoomPlus" x="17" y="9" onmousedown="handleZoom(evt,'in')"/>
                <use id="zoomminus" xlink:href="#zoomMin" x="42" y="9" onmousedown="handleZoom(evt,'out')"/>
                <use id="reset" xlink:href="#resetDef" x="30" y="36" onmousedown="handleReset()"/>
                <g id="arrowUp" xlink:href="#dirArrow" transform="translate(30 24)" onmousedown="handlePan(0,-1)">
                  <use xlink:href="#rim" fill="#404040">
                        <set attributeName="fill" to="#808080" begin="arrowUp.mouseover" end="arrowUp.mouseout"/>
                  </use>
                  <path fill="none" stroke="white" stroke-width="1.5" d="M0,-3.0v7 M-2.5,-0.5L0,-3.0L2.5,-0.5"/>
                </g>
                <g id="arrowRight" xlink:href="#dirArrow" transform="rotate(90) translate(36 -43)" onmousedown="handlePan(1,0)">
                  <use xlink:href="#rim" fill="#404040">
                        <set attributeName="fill" to="#808080" begin="arrowRight.mouseover" end="arrowRight.mouseout"/>
                  </use>
                  <path fill="none" stroke="white" stroke-width="1.5" d="M0,-3.0v7 M-2.5,-0.5L0,-3.0L2.5,-0.5"/>
                </g>
                <g id="arrowDown" xlink:href="#dirArrow" transform="rotate(180) translate(-30 -48)" onmousedown="handlePan(0,1)">
                  <use xlink:href="#rim" fill="#404040">
                        <set attributeName="fill" to="#808080" begin="arrowDown.mouseover" end="arrowDown.mouseout"/>
                  </use>
                  <path fill="none" stroke="white" stroke-width="1.5" d="M0,-3.0v7 M-2.5,-0.5L0,-3.0L2.5,-0.5"/>
                </g>
                <g id="arrowLeft" xlink:href="#dirArrow" transform="rotate(270) translate(-36 17)" onmousedown="handlePan(-1,0)">
                  <use xlink:href="#rim" fill="#404040">
                        <set attributeName="fill" to="#808080" begin="arrowLeft.mouseover" end="arrowLeft.mouseout"/>
                  </use>
                  <path fill="none" stroke="white" stroke-width="1.5" d="M0,-3.0v7 M-2.5,-0.5L0,-3.0L2.5,-0.5"/>
                </g>
        </g>
        <svg viewBox="0 0 15 15" width="100%" height="30px" preserveAspectRatio="xMaxYMin meet">
         <g id="arrow_out" transform="scale(0.3 0.3)">
          <a xlink:href="server_2src_2_battleship_royale_8cpp__incl_org.svg" target="_base">
           <rect id="button" ry="5" rx="5" y="6" x="6" height="38" width="38"
                fill="#f2f5e9" fill-opacity="0.5" stroke="#606060" stroke-width="1.0"/>
           <path id="arrow"
             d="M 11.500037,31.436501 C 11.940474,20.09759 22.043105,11.32322 32.158766,21.979434 L 37.068811,17.246167 C 37.068811,17.246167 37.088388,32 37.088388,32 L 22.160133,31.978069 C 22.160133,31.978069 26.997745,27.140456 26.997745,27.140456 C 18.528582,18.264221 13.291696,25.230495 11.500037,31.436501 z"
             style="fill:#404040;"/>
          </a>
         </g>
        </svg>
</svg>
