<?xml version="1.0" encoding="UTF-8" standalone="no"?>
<!DOCTYPE svg PUBLIC "-//W3C//DTD SVG 1.1//EN"
 "http://www.w3.org/Graphics/SVG/1.1/DTD/svg11.dtd">
<!-- Generated by graphviz version 2.38.0 (20140413.2041)
 -->
<!-- Title: con_handler.h Pages: 1 -->
<svg width="412pt" height="207pt"
 viewBox="0.00 0.00 412.00 207.00" xmlns="http://www.w3.org/2000/svg" xmlns:xlink="http://www.w3.org/1999/xlink">
<g id="graph0" class="graph" transform="scale(1 1) rotate(0) translate(4 203)">
<title>con_handler.h</title>
<polygon fill="white" stroke="none" points="-4,4 -4,-203 408,-203 408,4 -4,4"/>
<!-- Node0 -->
<g id="node1" class="node"><title>Node0</title>
<g id="a_node1"><a xlink:title="handler">
<polygon fill="#bfbfbf" stroke="black" points="113.5,-179.5 113.5,-198.5 190.5,-198.5 190.5,-179.5 113.5,-179.5"/>
<text text-anchor="middle" x="152" y="-186.5" font-family="Helvetica,sans-Serif" font-size="10.00">con_handler.h</text>
</a>
</g>
</g>
<!-- Node1 -->
<g id="node2" class="node"><title>Node1</title>
<g id="a_node2"><a xlink:title=" ">
<polygon fill="white" stroke="#bfbfbf" points="0,-118 0,-137 80,-137 80,-118 0,-118"/>
<text text-anchor="middle" x="40" y="-125" font-family="Helvetica,sans-Serif" font-size="10.00">boost/asio.hpp</text>
</a>
</g>
</g>
<!-- Node0&#45;&gt;Node1 -->
<g id="edge1" class="edge"><title>Node0&#45;&gt;Node1</title>
<path fill="none" stroke="midnightblue" d="M135.953,-179.475C117.407,-169.622 86.6602,-153.288 64.9783,-141.77"/>
<polygon fill="midnightblue" stroke="midnightblue" points="66.4903,-138.61 56.0171,-137.009 63.2062,-144.792 66.4903,-138.61"/>
</g>
<!-- Node2 -->
<g id="node3" class="node"><title>Node2</title>
<g id="a_node3"><a xlink:title=" ">
<polygon fill="white" stroke="#bfbfbf" points="98.5,-112.5 98.5,-142.5 205.5,-142.5 205.5,-112.5 98.5,-112.5"/>
<text text-anchor="start" x="106.5" y="-130.5" font-family="Helvetica,sans-Serif" font-size="10.00">boost/enable_shared</text>
<text text-anchor="middle" x="152" y="-119.5" font-family="Helvetica,sans-Serif" font-size="10.00">_from_this.hpp</text>
</a>
</g>
</g>
<!-- Node0&#45;&gt;Node2 -->
<g id="edge2" class="edge"><title>Node0&#45;&gt;Node2</title>
<path fill="none" stroke="midnightblue" d="M152,-179.475C152,-172.471 152,-162.192 152,-152.696"/>
<polygon fill="midnightblue" stroke="midnightblue" points="155.5,-152.523 152,-142.523 148.5,-152.523 155.5,-152.523"/>
</g>
<!-- Node3 -->
<g id="node4" class="node"><title>Node3</title>
<g id="a_node4"><a xlink:href="_processing_8h.html" target="_top" xlink:title="Обработка запросов">
<polygon fill="white" stroke="black" points="224,-118 224,-137 298,-137 298,-118 224,-118"/>
<text text-anchor="middle" x="261" y="-125" font-family="Helvetica,sans-Serif" font-size="10.00">Processing.h</text>
</a>
</g>
</g>
<!-- Node0&#45;&gt;Node3 -->
<g id="edge3" class="edge"><title>Node0&#45;&gt;Node3</title>
<path fill="none" stroke="midnightblue" d="M167.617,-179.475C185.586,-169.666 215.321,-153.435 236.406,-141.925"/>
<polygon fill="midnightblue" stroke="midnightblue" points="238.311,-144.873 245.412,-137.009 234.958,-138.728 238.311,-144.873"/>
</g>
<!-- Node4 -->
<g id="node5" class="node"><title>Node4</title>
<g id="a_node5"><a xlink:href="server_2src_2_mini_d_b_8h.html" target="_top" xlink:title="Облегчённый класс для работы с бд">
<polygon fill="white" stroke="black" points="233,-56.5 233,-75.5 289,-75.5 289,-56.5 233,-56.5"/>
<text text-anchor="middle" x="261" y="-63.5" font-family="Helvetica,sans-Serif" font-size="10.00">MiniDB.h</text>
</a>
</g>
</g>
<!-- Node3&#45;&gt;Node4 -->
<g id="edge4" class="edge"><title>Node3&#45;&gt;Node4</title>
<path fill="none" stroke="midnightblue" d="M261,-117.975C261,-109.58 261,-96.4806 261,-85.6631"/>
<polygon fill="midnightblue" stroke="midnightblue" points="264.5,-85.5091 261,-75.5091 257.5,-85.5091 264.5,-85.5091"/>
</g>
<!-- Node5 -->
<g id="node6" class="node"><title>Node5</title>
<g id="a_node6"><a xlink:title=" ">
<polygon fill="white" stroke="#bfbfbf" points="175.5,-0.5 175.5,-19.5 216.5,-19.5 216.5,-0.5 175.5,-0.5"/>
<text text-anchor="middle" x="196" y="-7.5" font-family="Helvetica,sans-Serif" font-size="10.00">string</text>
</a>
</g>
</g>
<!-- Node4&#45;&gt;Node5 -->
<g id="edge5" class="edge"><title>Node4&#45;&gt;Node5</title>
<path fill="none" stroke="midnightblue" d="M250.557,-56.324C240.854,-48.2631 226.185,-36.0765 214.5,-26.3695"/>
<polygon fill="midnightblue" stroke="midnightblue" points="216.562,-23.532 206.633,-19.8339 212.089,-28.9163 216.562,-23.532"/>
</g>
<!-- Node6 -->
<g id="node7" class="node"><title>Node6</title>
<g id="a_node7"><a xlink:title=" ">
<polygon fill="white" stroke="#bfbfbf" points="234.5,-0.5 234.5,-19.5 287.5,-19.5 287.5,-0.5 234.5,-0.5"/>
<text text-anchor="middle" x="261" y="-7.5" font-family="Helvetica,sans-Serif" font-size="10.00">sqlite3.h</text>
</a>
</g>
</g>
<!-- Node4&#45;&gt;Node6 -->
<g id="edge6" class="edge"><title>Node4&#45;&gt;Node6</title>
<path fill="none" stroke="midnightblue" d="M261,-56.083C261,-49.0059 261,-38.8611 261,-29.9865"/>
<polygon fill="midnightblue" stroke="midnightblue" points="264.5,-29.751 261,-19.7511 257.5,-29.7511 264.5,-29.751"/>
</g>
<!-- Node7 -->
<g id="node8" class="node"><title>Node7</title>
<g id="a_node8"><a xlink:href="_battleship_royale_8h.html" target="_top" xlink:title="Заголовочный файл с пространством имён, которое хранит в себе константы.">
<polygon fill="white" stroke="black" points="306,-0.5 306,-19.5 404,-19.5 404,-0.5 306,-0.5"/>
<text text-anchor="middle" x="355" y="-7.5" font-family="Helvetica,sans-Serif" font-size="10.00">BattleshipRoyale.h</text>
</a>
</g>
</g>
<!-- Node4&#45;&gt;Node7 -->
<g id="edge7" class="edge"><title>Node4&#45;&gt;Node7</title>
<path fill="none" stroke="midnightblue" d="M276.103,-56.324C290.903,-47.8215 313.694,-34.7288 330.982,-24.7975"/>
<polygon fill="midnightblue" stroke="midnightblue" points="333.007,-27.6707 339.935,-19.6545 329.52,-21.6009 333.007,-27.6707"/>
</g>
</g>
</svg>
