<?xml version="1.0" encoding="UTF-8" standalone="no"?>
<!DOCTYPE svg PUBLIC "-//W3C//DTD SVG 1.1//EN"
 "http://www.w3.org/Graphics/SVG/1.1/DTD/svg11.dtd">
<!-- Generated by graphviz version 2.38.0 (20140413.2041)
 -->
<!-- Title: src/server/src/con_handler.cpp Pages: 1 -->
<!--zoomable 341 -->
<svg id="main" version="1.1" xmlns="http://www.w3.org/2000/svg" xmlns:xlink="http://www.w3.org/1999/xlink" xml:space="preserve" onload="init(evt)">
<style type="text/css"><![CDATA[
.edge:hover path { stroke: red; }
.edge:hover polygon { stroke: red; fill: red; }
]]></style>
<script type="text/javascript"><![CDATA[
var edges = document.getElementsByTagName('g');
if (edges && edges.length) {
  for (var i=0;i<edges.length;i++) {
    if (edges[i].id.substr(0,4)=='edge') {
      edges[i].setAttribute('class','edge');
    }
  }
}
]]></script>
        <defs>
                <circle id="rim" cx="0" cy="0" r="7"/>
                <circle id="rim2" cx="0" cy="0" r="3.5"/>
                <g id="zoomPlus">
                        <use xlink:href="#rim" fill="#404040">
                                <set attributeName="fill" to="#808080" begin="zoomplus.mouseover" end="zoomplus.mouseout"/>
                        </use>
                        <path d="M-4,0h8M0,-4v8" fill="none" stroke="white" stroke-width="1.5" pointer-events="none"/>
                </g>
                <g id="zoomMin">
                        <use xlink:href="#rim" fill="#404040">
                                <set attributeName="fill" to="#808080" begin="zoomminus.mouseover" end="zoomminus.mouseout"/>
                        </use>
                        <path d="M-4,0h8" fill="none" stroke="white" stroke-width="1.5" pointer-events="none"/>
                </g>
                <g id="dirArrow">
                        <path fill="none" stroke="white" stroke-width="1.5" d="M0,-3.0v7 M-2.5,-0.5L0,-3.0L2.5,-0.5"/>
                </g>
               <g id="resetDef">
                       <use xlink:href="#rim2" fill="#404040">
                               <set attributeName="fill" to="#808080" begin="reset.mouseover" end="reset.mouseout"/>
                       </use>
               </g>
        </defs>

<script type="text/javascript">
var viewWidth = 862;
var viewHeight = 341;
var sectionId = 'dynsection-0';
</script>
<script xlink:href="svgpan.js"/>
<svg id="graph" class="graph">
<g id="viewport">
<title>src/server/src/con_handler.cpp</title>
<polygon fill="white" stroke="none" points="-4,4 -4,-337 857.744,-337 857.744,4 -4,4"/>
<!-- Node0 -->
<g id="node1" class="node"><title>Node0</title>
<g id="a_node1"><a xlink:title="handler">
<polygon fill="#bfbfbf" stroke="black" points="330.744,-302.5 330.744,-332.5 424.744,-332.5 424.744,-302.5 330.744,-302.5"/>
<text text-anchor="start" x="338.744" y="-320.5" font-family="Helvetica,sans-Serif" font-size="10.00">src/server/src/con</text>
<text text-anchor="middle" x="377.744" y="-309.5" font-family="Helvetica,sans-Serif" font-size="10.00">_handler.cpp</text>
</a>
</g>
</g>
<!-- Node1 -->
<g id="node2" class="node"><title>Node1</title>
<g id="a_node2"><a xlink:href="server_2src_2con__handler_8h.html" target="_top" xlink:title="handler">
<polygon fill="white" stroke="black" points="184.244,-241 184.244,-260 261.244,-260 261.244,-241 184.244,-241"/>
<text text-anchor="middle" x="222.744" y="-248" font-family="Helvetica,sans-Serif" font-size="10.00">con_handler.h</text>
</a>
</g>
</g>
<!-- Node0&#45;&gt;Node1 -->
<g id="edge1" class="edge"><title>Node0&#45;&gt;Node1</title>
<path fill="none" stroke="midnightblue" d="M344.111,-302.396C316.795,-290.941 278.636,-274.938 252.438,-263.952"/>
<polygon fill="midnightblue" stroke="midnightblue" points="253.606,-260.647 243.03,-260.007 250.898,-267.102 253.606,-260.647"/>
</g>
<!-- Node6 -->
<g id="node7" class="node"><title>Node6</title>
<g id="a_node7"><a xlink:title=" ">
<polygon fill="white" stroke="#bfbfbf" points="175.244,-56.5 175.244,-75.5 216.244,-75.5 216.244,-56.5 175.244,-56.5"/>
<text text-anchor="middle" x="195.744" y="-63.5" font-family="Helvetica,sans-Serif" font-size="10.00">string</text>
</a>
</g>
</g>
<!-- Node0&#45;&gt;Node6 -->
<g id="edge17" class="edge"><title>Node0&#45;&gt;Node6</title>
<path fill="none" stroke="midnightblue" d="M330.42,-308.798C239.318,-292.867 45.3154,-253.199 8.74406,-199 -35.3668,-133.628 101.288,-90.285 164.956,-74.1018"/>
<polygon fill="midnightblue" stroke="midnightblue" points="165.999,-77.4495 174.867,-71.6525 164.319,-70.654 165.999,-77.4495"/>
</g>
<!-- Node8 -->
<g id="node9" class="node"><title>Node8</title>
<g id="a_node9"><a xlink:href="_battleship_royale_8h.html" target="_top" xlink:title="Заголовочный файл с пространством имён, которое хранит в себе константы.">
<polygon fill="white" stroke="black" points="294.744,-56.5 294.744,-75.5 392.744,-75.5 392.744,-56.5 294.744,-56.5"/>
<text text-anchor="middle" x="343.744" y="-63.5" font-family="Helvetica,sans-Serif" font-size="10.00">BattleshipRoyale.h</text>
</a>
</g>
</g>
<!-- Node0&#45;&gt;Node8 -->
<g id="edge21" class="edge"><title>Node0&#45;&gt;Node8</title>
<path fill="none" stroke="midnightblue" d="M372.656,-302.1C369.323,-292.096 365.152,-278.39 362.744,-266 350.073,-200.805 345.729,-121.879 344.343,-86.1819"/>
<polygon fill="midnightblue" stroke="midnightblue" points="347.828,-85.6862 343.978,-75.8154 340.832,-85.9322 347.828,-85.6862"/>
</g>
<!-- Node15 -->
<g id="node16" class="node"><title>Node15</title>
<g id="a_node16"><a xlink:title=" ">
<polygon fill="white" stroke="#bfbfbf" points="371.744,-241 371.744,-260 451.744,-260 451.744,-241 371.744,-241"/>
<text text-anchor="middle" x="411.744" y="-248" font-family="Helvetica,sans-Serif" font-size="10.00">boost/bind.hpp</text>
</a>
</g>
</g>
<!-- Node0&#45;&gt;Node15 -->
<g id="edge18" class="edge"><title>Node0&#45;&gt;Node15</title>
<path fill="none" stroke="midnightblue" d="M385.122,-302.396C390.213,-292.662 397.021,-279.646 402.478,-269.214"/>
<polygon fill="midnightblue" stroke="midnightblue" points="405.662,-270.678 407.196,-260.195 399.46,-267.433 405.662,-270.678"/>
</g>
<!-- Node16 -->
<g id="node17" class="node"><title>Node16</title>
<g id="a_node17"><a xlink:title=" ">
<polygon fill="white" stroke="#bfbfbf" points="470.244,-241 470.244,-260 555.244,-260 555.244,-241 470.244,-241"/>
<text text-anchor="middle" x="512.744" y="-248" font-family="Helvetica,sans-Serif" font-size="10.00">spdlog/spdlog.h</text>
</a>
</g>
</g>
<!-- Node0&#45;&gt;Node16 -->
<g id="edge19" class="edge"><title>Node0&#45;&gt;Node16</title>
<path fill="none" stroke="midnightblue" d="M407.037,-302.396C430.515,-291.092 463.187,-275.361 485.972,-264.39"/>
<polygon fill="midnightblue" stroke="midnightblue" points="487.584,-267.499 495.076,-260.007 484.547,-261.192 487.584,-267.499"/>
</g>
<!-- Node17 -->
<g id="node18" class="node"><title>Node17</title>
<g id="a_node18"><a xlink:title=" ">
<polygon fill="white" stroke="#bfbfbf" points="573.744,-235.5 573.744,-265.5 671.744,-265.5 671.744,-235.5 573.744,-235.5"/>
<text text-anchor="start" x="581.744" y="-253.5" font-family="Helvetica,sans-Serif" font-size="10.00">spdlog/sinks/basic</text>
<text text-anchor="middle" x="622.744" y="-242.5" font-family="Helvetica,sans-Serif" font-size="10.00">_file_sink.h</text>
</a>
</g>
</g>
<!-- Node0&#45;&gt;Node17 -->
<g id="edge20" class="edge"><title>Node0&#45;&gt;Node17</title>
<path fill="none" stroke="midnightblue" d="M424.983,-303.967C464.586,-293.46 521.325,-278.407 563.88,-267.117"/>
<polygon fill="midnightblue" stroke="midnightblue" points="564.783,-270.499 573.551,-264.551 562.988,-263.733 564.783,-270.499"/>
</g>
<!-- Node2 -->
<g id="node3" class="node"><title>Node2</title>
<g id="a_node3"><a xlink:title=" ">
<polygon fill="white" stroke="#bfbfbf" points="17.7441,-174 17.7441,-193 97.7441,-193 97.7441,-174 17.7441,-174"/>
<text text-anchor="middle" x="57.7441" y="-181" font-family="Helvetica,sans-Serif" font-size="10.00">boost/asio.hpp</text>
</a>
</g>
</g>
<!-- Node1&#45;&gt;Node2 -->
<g id="edge2" class="edge"><title>Node1&#45;&gt;Node2</title>
<path fill="none" stroke="midnightblue" d="M200.833,-240.869C172.154,-229.571 121.703,-209.696 89.0137,-196.818"/>
<polygon fill="midnightblue" stroke="midnightblue" points="90.0696,-193.473 79.4826,-193.064 87.5038,-199.985 90.0696,-193.473"/>
</g>
<!-- Node3 -->
<g id="node4" class="node"><title>Node3</title>
<g id="a_node4"><a xlink:title=" ">
<polygon fill="white" stroke="#bfbfbf" points="116.244,-168.5 116.244,-198.5 223.244,-198.5 223.244,-168.5 116.244,-168.5"/>
<text text-anchor="start" x="124.244" y="-186.5" font-family="Helvetica,sans-Serif" font-size="10.00">boost/enable_shared</text>
<text text-anchor="middle" x="169.744" y="-175.5" font-family="Helvetica,sans-Serif" font-size="10.00">_from_this.hpp</text>
</a>
</g>
</g>
<!-- Node1&#45;&gt;Node3 -->
<g id="edge3" class="edge"><title>Node1&#45;&gt;Node3</title>
<path fill="none" stroke="midnightblue" d="M215.596,-240.734C208.502,-232.034 197.34,-218.345 187.806,-206.651"/>
<polygon fill="midnightblue" stroke="midnightblue" points="190.264,-204.127 181.232,-198.589 184.839,-208.551 190.264,-204.127"/>
</g>
<!-- Node4 -->
<g id="node5" class="node"><title>Node4</title>
<g id="a_node5"><a xlink:href="_processing_8h.html" target="_top" xlink:title="Обработка запросов">
<polygon fill="white" stroke="black" points="241.744,-174 241.744,-193 315.744,-193 315.744,-174 241.744,-174"/>
<text text-anchor="middle" x="278.744" y="-181" font-family="Helvetica,sans-Serif" font-size="10.00">Processing.h</text>
</a>
</g>
</g>
<!-- Node1&#45;&gt;Node4 -->
<g id="edge4" class="edge"><title>Node1&#45;&gt;Node4</title>
<path fill="none" stroke="midnightblue" d="M230.296,-240.734C239.029,-230.598 253.596,-213.69 264.481,-201.056"/>
<polygon fill="midnightblue" stroke="midnightblue" points="267.436,-202.988 271.311,-193.127 262.133,-198.419 267.436,-202.988"/>
</g>
<!-- Node5 -->
<g id="node6" class="node"><title>Node5</title>
<g id="a_node6"><a xlink:href="server_2src_2_mini_d_b_8h.html" target="_top" xlink:title="Облегчённый класс для работы с бд">
<polygon fill="white" stroke="black" points="250.744,-112.5 250.744,-131.5 306.744,-131.5 306.744,-112.5 250.744,-112.5"/>
<text text-anchor="middle" x="278.744" y="-119.5" font-family="Helvetica,sans-Serif" font-size="10.00">MiniDB.h</text>
</a>
</g>
</g>
<!-- Node4&#45;&gt;Node5 -->
<g id="edge5" class="edge"><title>Node4&#45;&gt;Node5</title>
<path fill="none" stroke="midnightblue" d="M278.744,-173.975C278.744,-165.58 278.744,-152.481 278.744,-141.663"/>
<polygon fill="midnightblue" stroke="midnightblue" points="282.244,-141.509 278.744,-131.509 275.244,-141.509 282.244,-141.509"/>
</g>
<!-- Node14 -->
<g id="node15" class="node"><title>Node14</title>
<g id="a_node15"><a xlink:href="_mem_d_buid_8h.html" target="_top" xlink:title="Облегчённый класс для работы с бд в памяти">
<polygon fill="white" stroke="black" points="159.244,-112.5 159.244,-131.5 232.244,-131.5 232.244,-112.5 159.244,-112.5"/>
<text text-anchor="middle" x="195.744" y="-119.5" font-family="Helvetica,sans-Serif" font-size="10.00">MemDBuid.h</text>
</a>
</g>
</g>
<!-- Node4&#45;&gt;Node14 -->
<g id="edge15" class="edge"><title>Node4&#45;&gt;Node14</title>
<path fill="none" stroke="midnightblue" d="M266.852,-173.975C253.539,-164.431 231.744,-148.807 215.787,-137.368"/>
<polygon fill="midnightblue" stroke="midnightblue" points="217.781,-134.491 207.614,-131.509 213.702,-140.18 217.781,-134.491"/>
</g>
<!-- Node5&#45;&gt;Node6 -->
<g id="edge6" class="edge"><title>Node5&#45;&gt;Node6</title>
<path fill="none" stroke="midnightblue" d="M265.409,-112.324C252.582,-103.979 232.959,-91.2122 217.804,-81.3524"/>
<polygon fill="midnightblue" stroke="midnightblue" points="219.337,-78.1742 209.046,-75.6545 215.52,-84.0417 219.337,-78.1742"/>
</g>
<!-- Node7 -->
<g id="node8" class="node"><title>Node7</title>
<g id="a_node8"><a xlink:href="sqlite3_8h.html" target="_top" xlink:title="Константы для работы с базой данных sqlite3.">
<polygon fill="white" stroke="black" points="49.2441,-0.5 49.2441,-19.5 102.244,-19.5 102.244,-0.5 49.2441,-0.5"/>
<text text-anchor="middle" x="75.7441" y="-7.5" font-family="Helvetica,sans-Serif" font-size="10.00">sqlite3.h</text>
</a>
</g>
</g>
<!-- Node5&#45;&gt;Node7 -->
<g id="edge7" class="edge"><title>Node5&#45;&gt;Node7</title>
<path fill="none" stroke="midnightblue" d="M273.941,-112.46C265.688,-98.559 247.488,-71.0783 224.744,-56 215.199,-49.672 152.958,-31.992 111.997,-20.7694"/>
<polygon fill="midnightblue" stroke="midnightblue" points="112.909,-17.3904 102.34,-18.1351 111.067,-24.1436 112.909,-17.3904"/>
</g>
<!-- Node5&#45;&gt;Node8 -->
<g id="edge8" class="edge"><title>Node5&#45;&gt;Node8</title>
<path fill="none" stroke="midnightblue" d="M289.187,-112.324C298.89,-104.263 313.559,-92.0765 325.244,-82.3695"/>
<polygon fill="midnightblue" stroke="midnightblue" points="327.655,-84.9163 333.111,-75.8339 323.182,-79.532 327.655,-84.9163"/>
</g>
<!-- Node8&#45;&gt;Node7 -->
<g id="edge11" class="edge"><title>Node8&#45;&gt;Node7</title>
<path fill="none" stroke="midnightblue" d="M294.922,-56.4646C249.87,-48.3876 180.893,-35.5165 112.535,-20.308"/>
<polygon fill="midnightblue" stroke="midnightblue" points="112.98,-16.821 102.457,-18.0475 111.448,-23.6513 112.98,-16.821"/>
</g>
<!-- Node9 -->
<g id="node10" class="node"><title>Node9</title>
<g id="a_node10"><a xlink:href="_version_8h.html" target="_top" xlink:title="Версия программы">
<polygon fill="white" stroke="black" points="719.744,-0.5 719.744,-19.5 853.744,-19.5 853.744,-0.5 719.744,-0.5"/>
<text text-anchor="middle" x="786.744" y="-7.5" font-family="Helvetica,sans-Serif" font-size="10.00">BattleshipRoyale/Version.h</text>
</a>
</g>
</g>
<!-- Node8&#45;&gt;Node9 -->
<g id="edge9" class="edge"><title>Node8&#45;&gt;Node9</title>
<path fill="none" stroke="midnightblue" d="M392.845,-59.0147C469.494,-49.6716 618.222,-31.5422 709.381,-20.4303"/>
<polygon fill="midnightblue" stroke="midnightblue" points="709.88,-23.8954 719.383,-19.2111 709.033,-16.9469 709.88,-23.8954"/>
</g>
<!-- Node10 -->
<g id="node11" class="node"><title>Node10</title>
<g id="a_node11"><a xlink:href="_connect_8h.html" target="_top" xlink:title="Константы с параметрами для подключения">
<polygon fill="white" stroke="black" points="120.244,-0.5 120.244,-19.5 257.244,-19.5 257.244,-0.5 120.244,-0.5"/>
<text text-anchor="middle" x="188.744" y="-7.5" font-family="Helvetica,sans-Serif" font-size="10.00">BattleshipRoyale/Connect.h</text>
</a>
</g>
</g>
<!-- Node8&#45;&gt;Node10 -->
<g id="edge10" class="edge"><title>Node8&#45;&gt;Node10</title>
<path fill="none" stroke="midnightblue" d="M319.184,-56.4435C293.222,-47.3986 252.076,-33.064 222.947,-22.9158"/>
<polygon fill="midnightblue" stroke="midnightblue" points="223.784,-19.5013 213.189,-19.5164 221.481,-26.1116 223.784,-19.5013"/>
</g>
<!-- Node11 -->
<g id="node12" class="node"><title>Node11</title>
<g id="a_node12"><a xlink:href="_battleship_royale_2_battleship_royale_2_console_8h.html" target="_top" xlink:title="Константы консоли">
<polygon fill="white" stroke="black" points="275.244,-0.5 275.244,-19.5 412.244,-19.5 412.244,-0.5 275.244,-0.5"/>
<text text-anchor="middle" x="343.744" y="-7.5" font-family="Helvetica,sans-Serif" font-size="10.00">BattleshipRoyale/Console.h</text>
</a>
</g>
</g>
<!-- Node8&#45;&gt;Node11 -->
<g id="edge12" class="edge"><title>Node8&#45;&gt;Node11</title>
<path fill="none" stroke="midnightblue" d="M343.744,-56.083C343.744,-49.0059 343.744,-38.8611 343.744,-29.9865"/>
<polygon fill="midnightblue" stroke="midnightblue" points="347.244,-29.751 343.744,-19.7511 340.244,-29.7511 347.244,-29.751"/>
</g>
<!-- Node12 -->
<g id="node13" class="node"><title>Node12</title>
<g id="a_node13"><a xlink:href="_battleship_royale_2_battleship_royale_2_regex_8h.html" target="_top" xlink:title="Константы регулярных выражений">
<polygon fill="white" stroke="black" points="430.244,-0.5 430.244,-19.5 559.244,-19.5 559.244,-0.5 430.244,-0.5"/>
<text text-anchor="middle" x="494.744" y="-7.5" font-family="Helvetica,sans-Serif" font-size="10.00">BattleshipRoyale/Regex.h</text>
</a>
</g>
</g>
<!-- Node8&#45;&gt;Node12 -->
<g id="edge13" class="edge"><title>Node8&#45;&gt;Node12</title>
<path fill="none" stroke="midnightblue" d="M367.67,-56.4435C392.963,-47.3986 433.046,-33.064 461.424,-22.9158"/>
<polygon fill="midnightblue" stroke="midnightblue" points="462.692,-26.1794 470.93,-19.5164 460.335,-19.5882 462.692,-26.1794"/>
</g>
<!-- Node13 -->
<g id="node14" class="node"><title>Node13</title>
<g id="a_node14"><a xlink:href="_code_8h.html" target="_top" xlink:title="Различные коды ответов">
<polygon fill="white" stroke="black" points="577.744,-0.5 577.744,-19.5 701.744,-19.5 701.744,-0.5 577.744,-0.5"/>
<text text-anchor="middle" x="639.744" y="-7.5" font-family="Helvetica,sans-Serif" font-size="10.00">BattleshipRoyale/Code.h</text>
</a>
</g>
</g>
<!-- Node8&#45;&gt;Node13 -->
<g id="edge14" class="edge"><title>Node8&#45;&gt;Node13</title>
<path fill="none" stroke="midnightblue" d="M390.646,-56.4435C442.824,-46.9246 527.115,-31.5472 582.976,-21.3563"/>
<polygon fill="midnightblue" stroke="midnightblue" points="583.852,-24.7544 593.061,-19.5164 582.596,-17.868 583.852,-24.7544"/>
</g>
<!-- Node14&#45;&gt;Node6 -->
<g id="edge16" class="edge"><title>Node14&#45;&gt;Node6</title>
<path fill="none" stroke="midnightblue" d="M195.744,-112.083C195.744,-105.006 195.744,-94.8611 195.744,-85.9865"/>
<polygon fill="midnightblue" stroke="midnightblue" points="199.244,-85.751 195.744,-75.7511 192.244,-85.7511 199.244,-85.751"/>
</g>
</g>
</svg>
        <g id="navigator" transform="translate(0 0)" fill="#404254">
                <rect fill="#f2f5e9" fill-opacity="0.5" stroke="#606060" stroke-width=".5" x="0" y="0" width="60" height="60"/>
                <use id="zoomplus" xlink:href="#zoomPlus" x="17" y="9" onmousedown="handleZoom(evt,'in')"/>
                <use id="zoomminus" xlink:href="#zoomMin" x="42" y="9" onmousedown="handleZoom(evt,'out')"/>
                <use id="reset" xlink:href="#resetDef" x="30" y="36" onmousedown="handleReset()"/>
                <g id="arrowUp" xlink:href="#dirArrow" transform="translate(30 24)" onmousedown="handlePan(0,-1)">
                  <use xlink:href="#rim" fill="#404040">
                        <set attributeName="fill" to="#808080" begin="arrowUp.mouseover" end="arrowUp.mouseout"/>
                  </use>
                  <path fill="none" stroke="white" stroke-width="1.5" d="M0,-3.0v7 M-2.5,-0.5L0,-3.0L2.5,-0.5"/>
                </g>
                <g id="arrowRight" xlink:href="#dirArrow" transform="rotate(90) translate(36 -43)" onmousedown="handlePan(1,0)">
                  <use xlink:href="#rim" fill="#404040">
                        <set attributeName="fill" to="#808080" begin="arrowRight.mouseover" end="arrowRight.mouseout"/>
                  </use>
                  <path fill="none" stroke="white" stroke-width="1.5" d="M0,-3.0v7 M-2.5,-0.5L0,-3.0L2.5,-0.5"/>
                </g>
                <g id="arrowDown" xlink:href="#dirArrow" transform="rotate(180) translate(-30 -48)" onmousedown="handlePan(0,1)">
                  <use xlink:href="#rim" fill="#404040">
                        <set attributeName="fill" to="#808080" begin="arrowDown.mouseover" end="arrowDown.mouseout"/>
                  </use>
                  <path fill="none" stroke="white" stroke-width="1.5" d="M0,-3.0v7 M-2.5,-0.5L0,-3.0L2.5,-0.5"/>
                </g>
                <g id="arrowLeft" xlink:href="#dirArrow" transform="rotate(270) translate(-36 17)" onmousedown="handlePan(-1,0)">
                  <use xlink:href="#rim" fill="#404040">
                        <set attributeName="fill" to="#808080" begin="arrowLeft.mouseover" end="arrowLeft.mouseout"/>
                  </use>
                  <path fill="none" stroke="white" stroke-width="1.5" d="M0,-3.0v7 M-2.5,-0.5L0,-3.0L2.5,-0.5"/>
                </g>
        </g>
        <svg viewBox="0 0 15 15" width="100%" height="30px" preserveAspectRatio="xMaxYMin meet">
         <g id="arrow_out" transform="scale(0.3 0.3)">
          <a xlink:href="server_2src_2con__handler_8cpp__incl_org.svg" target="_base">
           <rect id="button" ry="5" rx="5" y="6" x="6" height="38" width="38"
                fill="#f2f5e9" fill-opacity="0.5" stroke="#606060" stroke-width="1.0"/>
           <path id="arrow"
             d="M 11.500037,31.436501 C 11.940474,20.09759 22.043105,11.32322 32.158766,21.979434 L 37.068811,17.246167 C 37.068811,17.246167 37.088388,32 37.088388,32 L 22.160133,31.978069 C 22.160133,31.978069 26.997745,27.140456 26.997745,27.140456 C 18.528582,18.264221 13.291696,25.230495 11.500037,31.436501 z"
             style="fill:#404040;"/>
          </a>
         </g>
        </svg>
</svg>
