<?xml version="1.0" encoding="UTF-8" standalone="no"?>
<!DOCTYPE svg PUBLIC "-//W3C//DTD SVG 1.1//EN"
 "http://www.w3.org/Graphics/SVG/1.1/DTD/svg11.dtd">
<!-- Generated by graphviz version 2.38.0 (20140413.2041)
 -->
<!-- Title: src/server/src/Regex.cpp Pages: 1 -->
<svg width="957pt" height="140pt"
 viewBox="0.00 0.00 956.50 140.00" xmlns="http://www.w3.org/2000/svg" xmlns:xlink="http://www.w3.org/1999/xlink">
<g id="graph0" class="graph" transform="scale(1 1) rotate(0) translate(4 136)">
<title>src/server/src/Regex.cpp</title>
<polygon fill="white" stroke="none" points="-4,4 -4,-136 952.5,-136 952.5,4 -4,4"/>
<!-- Node0 -->
<g id="node1" class="node"><title>Node0</title>
<g id="a_node1"><a xlink:title="Работа с регулярными выражениями">
<polygon fill="#bfbfbf" stroke="black" points="54,-112.5 54,-131.5 179,-131.5 179,-112.5 54,-112.5"/>
<text text-anchor="middle" x="116.5" y="-119.5" font-family="Helvetica,sans-Serif" font-size="10.00">src/server/src/Regex.cpp</text>
</a>
</g>
</g>
<!-- Node1 -->
<g id="node2" class="node"><title>Node1</title>
<g id="a_node2"><a xlink:href="server_2src_2_regex_8h.html" target="_top" xlink:title="Работа с регулярными выражениями">
<polygon fill="white" stroke="black" points="0,-56.5 0,-75.5 53,-75.5 53,-56.5 0,-56.5"/>
<text text-anchor="middle" x="26.5" y="-63.5" font-family="Helvetica,sans-Serif" font-size="10.00">Regex.h</text>
</a>
</g>
</g>
<!-- Node0&#45;&gt;Node1 -->
<g id="edge1" class="edge"><title>Node0&#45;&gt;Node1</title>
<path fill="none" stroke="midnightblue" d="M102.04,-112.324C88.0004,-103.9 66.4515,-90.9709 49.9569,-81.0741"/>
<polygon fill="midnightblue" stroke="midnightblue" points="51.2999,-77.7983 40.9242,-75.6545 47.6984,-83.8007 51.2999,-77.7983"/>
</g>
<!-- Node2 -->
<g id="node3" class="node"><title>Node2</title>
<g id="a_node3"><a xlink:title=" ">
<polygon fill="white" stroke="#bfbfbf" points="6,-0.5 6,-19.5 47,-19.5 47,-0.5 6,-0.5"/>
<text text-anchor="middle" x="26.5" y="-7.5" font-family="Helvetica,sans-Serif" font-size="10.00">string</text>
</a>
</g>
</g>
<!-- Node0&#45;&gt;Node2 -->
<g id="edge3" class="edge"><title>Node0&#45;&gt;Node2</title>
<path fill="none" stroke="midnightblue" d="M109.438,-112.368C94.4538,-94.0547 59.2673,-51.0489 39.8874,-27.3624"/>
<polygon fill="midnightblue" stroke="midnightblue" points="42.5706,-25.1147 33.5293,-19.5914 37.1529,-29.5474 42.5706,-25.1147"/>
</g>
<!-- Node3 -->
<g id="node4" class="node"><title>Node3</title>
<g id="a_node4"><a xlink:title=" ">
<polygon fill="white" stroke="#bfbfbf" points="109.5,-56.5 109.5,-75.5 195.5,-75.5 195.5,-56.5 109.5,-56.5"/>
<text text-anchor="middle" x="152.5" y="-63.5" font-family="Helvetica,sans-Serif" font-size="10.00">boost/regex.hpp</text>
</a>
</g>
</g>
<!-- Node0&#45;&gt;Node3 -->
<g id="edge4" class="edge"><title>Node0&#45;&gt;Node3</title>
<path fill="none" stroke="midnightblue" d="M122.445,-112.083C127.477,-104.534 134.837,-93.4948 141.013,-84.2298"/>
<polygon fill="midnightblue" stroke="midnightblue" points="144.031,-86.0131 146.666,-75.7511 138.207,-82.1301 144.031,-86.0131"/>
</g>
<!-- Node4 -->
<g id="node5" class="node"><title>Node4</title>
<g id="a_node5"><a xlink:href="_battleship_royale_8h.html" target="_top" xlink:title="Заголовочный файл с пространством имён, которое хранит в себе константы.">
<polygon fill="white" stroke="black" points="389.5,-56.5 389.5,-75.5 487.5,-75.5 487.5,-56.5 389.5,-56.5"/>
<text text-anchor="middle" x="438.5" y="-63.5" font-family="Helvetica,sans-Serif" font-size="10.00">BattleshipRoyale.h</text>
</a>
</g>
</g>
<!-- Node0&#45;&gt;Node4 -->
<g id="edge5" class="edge"><title>Node0&#45;&gt;Node4</title>
<path fill="none" stroke="midnightblue" d="M167.522,-112.444C225.021,-102.801 318.369,-87.1461 379.101,-76.9613"/>
<polygon fill="midnightblue" stroke="midnightblue" points="380.017,-80.3566 389.301,-75.2508 378.86,-73.453 380.017,-80.3566"/>
</g>
<!-- Node1&#45;&gt;Node2 -->
<g id="edge2" class="edge"><title>Node1&#45;&gt;Node2</title>
<path fill="none" stroke="midnightblue" d="M26.5,-56.083C26.5,-49.0059 26.5,-38.8611 26.5,-29.9865"/>
<polygon fill="midnightblue" stroke="midnightblue" points="30.0001,-29.751 26.5,-19.7511 23.0001,-29.7511 30.0001,-29.751"/>
</g>
<!-- Node5 -->
<g id="node6" class="node"><title>Node5</title>
<g id="a_node6"><a xlink:href="_version_8h.html" target="_top" xlink:title="Версия программы">
<polygon fill="white" stroke="black" points="65.5,-0.5 65.5,-19.5 199.5,-19.5 199.5,-0.5 65.5,-0.5"/>
<text text-anchor="middle" x="132.5" y="-7.5" font-family="Helvetica,sans-Serif" font-size="10.00">BattleshipRoyale/Version.h</text>
</a>
</g>
</g>
<!-- Node4&#45;&gt;Node5 -->
<g id="edge6" class="edge"><title>Node4&#45;&gt;Node5</title>
<path fill="none" stroke="midnightblue" d="M390.013,-56.4435C335.961,-46.9049 248.572,-31.4834 190.827,-21.293"/>
<polygon fill="midnightblue" stroke="midnightblue" points="191.216,-17.8076 180.76,-19.5164 189.999,-24.7011 191.216,-17.8076"/>
</g>
<!-- Node6 -->
<g id="node7" class="node"><title>Node6</title>
<g id="a_node7"><a xlink:href="_connect_8h.html" target="_top" xlink:title="Константы с параметрами для подключения">
<polygon fill="white" stroke="black" points="218,-0.5 218,-19.5 355,-19.5 355,-0.5 218,-0.5"/>
<text text-anchor="middle" x="286.5" y="-7.5" font-family="Helvetica,sans-Serif" font-size="10.00">BattleshipRoyale/Connect.h</text>
</a>
</g>
</g>
<!-- Node4&#45;&gt;Node6 -->
<g id="edge7" class="edge"><title>Node4&#45;&gt;Node6</title>
<path fill="none" stroke="midnightblue" d="M414.415,-56.4435C388.955,-47.3986 348.606,-33.064 320.041,-22.9158"/>
<polygon fill="midnightblue" stroke="midnightblue" points="321.067,-19.5661 310.472,-19.5164 318.723,-26.1622 321.067,-19.5661"/>
</g>
<!-- Node7 -->
<g id="node8" class="node"><title>Node7</title>
<g id="a_node8"><a xlink:href="sqlite3_8h.html" target="_top" xlink:title="Константы для работы с базой данных sqlite3.">
<polygon fill="white" stroke="black" points="373.5,-0.5 373.5,-19.5 503.5,-19.5 503.5,-0.5 373.5,-0.5"/>
<text text-anchor="middle" x="438.5" y="-7.5" font-family="Helvetica,sans-Serif" font-size="10.00">BattleshipRoyale/sqlite3.h</text>
</a>
</g>
</g>
<!-- Node4&#45;&gt;Node7 -->
<g id="edge8" class="edge"><title>Node4&#45;&gt;Node7</title>
<path fill="none" stroke="midnightblue" d="M438.5,-56.083C438.5,-49.0059 438.5,-38.8611 438.5,-29.9865"/>
<polygon fill="midnightblue" stroke="midnightblue" points="442,-29.751 438.5,-19.7511 435,-29.7511 442,-29.751"/>
</g>
<!-- Node8 -->
<g id="node9" class="node"><title>Node8</title>
<g id="a_node9"><a xlink:href="_battleship_royale_2_battleship_royale_2_console_8h.html" target="_top" xlink:title="Константы консоли">
<polygon fill="white" stroke="black" points="522,-0.5 522,-19.5 659,-19.5 659,-0.5 522,-0.5"/>
<text text-anchor="middle" x="590.5" y="-7.5" font-family="Helvetica,sans-Serif" font-size="10.00">BattleshipRoyale/Console.h</text>
</a>
</g>
</g>
<!-- Node4&#45;&gt;Node8 -->
<g id="edge9" class="edge"><title>Node4&#45;&gt;Node8</title>
<path fill="none" stroke="midnightblue" d="M462.585,-56.4435C488.045,-47.3986 528.394,-33.064 556.959,-22.9158"/>
<polygon fill="midnightblue" stroke="midnightblue" points="558.277,-26.1622 566.528,-19.5164 555.933,-19.5661 558.277,-26.1622"/>
</g>
<!-- Node9 -->
<g id="node10" class="node"><title>Node9</title>
<g id="a_node10"><a xlink:href="_battleship_royale_2_battleship_royale_2_regex_8h.html" target="_top" xlink:title="Константы регулярных выражений">
<polygon fill="white" stroke="black" points="677,-0.5 677,-19.5 806,-19.5 806,-0.5 677,-0.5"/>
<text text-anchor="middle" x="741.5" y="-7.5" font-family="Helvetica,sans-Serif" font-size="10.00">BattleshipRoyale/Regex.h</text>
</a>
</g>
</g>
<!-- Node4&#45;&gt;Node9 -->
<g id="edge10" class="edge"><title>Node4&#45;&gt;Node9</title>
<path fill="none" stroke="midnightblue" d="M486.511,-56.4435C540.034,-46.9049 626.565,-31.4834 683.745,-21.293"/>
<polygon fill="midnightblue" stroke="midnightblue" points="684.483,-24.7168 693.713,-19.5164 683.254,-17.8253 684.483,-24.7168"/>
</g>
<!-- Node10 -->
<g id="node11" class="node"><title>Node10</title>
<g id="a_node11"><a xlink:href="_code_8h.html" target="_top" xlink:title="Различные коды ответов">
<polygon fill="white" stroke="black" points="824.5,-0.5 824.5,-19.5 948.5,-19.5 948.5,-0.5 824.5,-0.5"/>
<text text-anchor="middle" x="886.5" y="-7.5" font-family="Helvetica,sans-Serif" font-size="10.00">BattleshipRoyale/Code.h</text>
</a>
</g>
</g>
<!-- Node4&#45;&gt;Node10 -->
<g id="edge11" class="edge"><title>Node4&#45;&gt;Node10</title>
<path fill="none" stroke="midnightblue" d="M487.616,-59.2531C557.684,-51.029 690.655,-35.3274 814.154,-20.1587"/>
<polygon fill="midnightblue" stroke="midnightblue" points="814.667,-23.6221 824.165,-18.9277 813.813,-16.6744 814.667,-23.6221"/>
</g>
</g>
</svg>
