<?xml version="1.0" encoding="UTF-8" standalone="no"?>
<!DOCTYPE svg PUBLIC "-//W3C//DTD SVG 1.1//EN"
 "http://www.w3.org/Graphics/SVG/1.1/DTD/svg11.dtd">
<!-- Generated by graphviz version 2.38.0 (20140413.2041)
 -->
<!-- Title: src/server/src/Console.cpp Pages: 1 -->
<svg width="408pt" height="140pt"
 viewBox="0.00 0.00 407.50 140.00" xmlns="http://www.w3.org/2000/svg" xmlns:xlink="http://www.w3.org/1999/xlink">
<g id="graph0" class="graph" transform="scale(1 1) rotate(0) translate(4 136)">
<title>src/server/src/Console.cpp</title>
<polygon fill="white" stroke="none" points="-4,4 -4,-136 403.5,-136 403.5,4 -4,4"/>
<!-- Node0 -->
<g id="node1" class="node"><title>Node0</title>
<g id="a_node1"><a xlink:title=" ">
<polygon fill="#bfbfbf" stroke="black" points="105,-112.5 105,-131.5 237,-131.5 237,-112.5 105,-112.5"/>
<text text-anchor="middle" x="171" y="-119.5" font-family="Helvetica,sans-Serif" font-size="10.00">src/server/src/Console.cpp</text>
</a>
</g>
</g>
<!-- Node1 -->
<g id="node2" class="node"><title>Node1</title>
<g id="a_node2"><a xlink:href="_console_8h.html" target="_top" xlink:title=" ">
<polygon fill="white" stroke="black" points="0,-56.5 0,-75.5 60,-75.5 60,-56.5 0,-56.5"/>
<text text-anchor="middle" x="30" y="-63.5" font-family="Helvetica,sans-Serif" font-size="10.00">Console.h</text>
</a>
</g>
</g>
<!-- Node0&#45;&gt;Node1 -->
<g id="edge1" class="edge"><title>Node0&#45;&gt;Node1</title>
<path fill="none" stroke="midnightblue" d="M148.658,-112.444C125.247,-103.478 88.2644,-89.314 61.8104,-79.1827"/>
<polygon fill="midnightblue" stroke="midnightblue" points="62.8277,-75.8245 52.2373,-75.5164 60.3241,-82.3615 62.8277,-75.8245"/>
</g>
<!-- Node3 -->
<g id="node4" class="node"><title>Node3</title>
<g id="a_node4"><a xlink:title=" ">
<polygon fill="white" stroke="#bfbfbf" points="78,-56.5 78,-75.5 132,-75.5 132,-56.5 78,-56.5"/>
<text text-anchor="middle" x="105" y="-63.5" font-family="Helvetica,sans-Serif" font-size="10.00">iostream</text>
</a>
</g>
</g>
<!-- Node0&#45;&gt;Node3 -->
<g id="edge3" class="edge"><title>Node0&#45;&gt;Node3</title>
<path fill="none" stroke="midnightblue" d="M160.396,-112.324C150.544,-104.263 135.649,-92.0765 123.785,-82.3695"/>
<polygon fill="midnightblue" stroke="midnightblue" points="125.753,-79.4575 115.797,-75.8339 121.32,-84.8752 125.753,-79.4575"/>
</g>
<!-- Node4 -->
<g id="node5" class="node"><title>Node4</title>
<g id="a_node5"><a xlink:title=" ">
<polygon fill="white" stroke="#bfbfbf" points="150.5,-56.5 150.5,-75.5 191.5,-75.5 191.5,-56.5 150.5,-56.5"/>
<text text-anchor="middle" x="171" y="-63.5" font-family="Helvetica,sans-Serif" font-size="10.00">future</text>
</a>
</g>
</g>
<!-- Node0&#45;&gt;Node4 -->
<g id="edge4" class="edge"><title>Node0&#45;&gt;Node4</title>
<path fill="none" stroke="midnightblue" d="M171,-112.083C171,-105.006 171,-94.8611 171,-85.9865"/>
<polygon fill="midnightblue" stroke="midnightblue" points="174.5,-85.751 171,-75.7511 167.5,-85.7511 174.5,-85.751"/>
</g>
<!-- Node5 -->
<g id="node6" class="node"><title>Node5</title>
<g id="a_node6"><a xlink:href="_battleship_royale_8h.html" target="_top" xlink:title="Заголовочный файл с пространством имён, которое хранит в себе константы.">
<polygon fill="white" stroke="black" points="210,-56.5 210,-75.5 308,-75.5 308,-56.5 210,-56.5"/>
<text text-anchor="middle" x="259" y="-63.5" font-family="Helvetica,sans-Serif" font-size="10.00">BattleshipRoyale.h</text>
</a>
</g>
</g>
<!-- Node0&#45;&gt;Node5 -->
<g id="edge5" class="edge"><title>Node0&#45;&gt;Node5</title>
<path fill="none" stroke="midnightblue" d="M185.139,-112.324C198.866,-103.9 219.936,-90.9709 236.064,-81.0741"/>
<polygon fill="midnightblue" stroke="midnightblue" points="238.204,-83.8678 244.896,-75.6545 234.543,-77.9016 238.204,-83.8678"/>
</g>
<!-- Node6 -->
<g id="node7" class="node"><title>Node6</title>
<g id="a_node7"><a xlink:href="_mem_d_buid_8h.html" target="_top" xlink:title="Облегчённый класс для работы с бд в памяти">
<polygon fill="white" stroke="black" points="326.5,-56.5 326.5,-75.5 399.5,-75.5 399.5,-56.5 326.5,-56.5"/>
<text text-anchor="middle" x="363" y="-63.5" font-family="Helvetica,sans-Serif" font-size="10.00">MemDBuid.h</text>
</a>
</g>
</g>
<!-- Node0&#45;&gt;Node6 -->
<g id="edge6" class="edge"><title>Node0&#45;&gt;Node6</title>
<path fill="none" stroke="midnightblue" d="M201.423,-112.444C234.285,-103.201 286.785,-88.4356 322.974,-78.2572"/>
<polygon fill="midnightblue" stroke="midnightblue" points="324.04,-81.5932 332.719,-75.5164 322.145,-74.8547 324.04,-81.5932"/>
</g>
<!-- Node2 -->
<g id="node3" class="node"><title>Node2</title>
<g id="a_node3"><a xlink:title=" ">
<polygon fill="white" stroke="#bfbfbf" points="175.5,-0.5 175.5,-19.5 216.5,-19.5 216.5,-0.5 175.5,-0.5"/>
<text text-anchor="middle" x="196" y="-7.5" font-family="Helvetica,sans-Serif" font-size="10.00">string</text>
</a>
</g>
</g>
<!-- Node1&#45;&gt;Node2 -->
<g id="edge2" class="edge"><title>Node1&#45;&gt;Node2</title>
<path fill="none" stroke="midnightblue" d="M56.3032,-56.4435C86.0007,-46.7829 134.248,-31.088 165.552,-20.9046"/>
<polygon fill="midnightblue" stroke="midnightblue" points="166.649,-24.2285 175.076,-17.8067 164.484,-17.5718 166.649,-24.2285"/>
</g>
<!-- Node6&#45;&gt;Node2 -->
<g id="edge7" class="edge"><title>Node6&#45;&gt;Node2</title>
<path fill="none" stroke="midnightblue" d="M336.538,-56.4435C306.496,-46.7292 257.584,-30.9134 226.108,-20.7354"/>
<polygon fill="midnightblue" stroke="midnightblue" points="227.139,-17.3904 216.547,-17.6439 224.985,-24.0508 227.139,-17.3904"/>
</g>
</g>
</svg>
