<?xml version="1.0" encoding="UTF-8" standalone="no"?>
<!DOCTYPE svg PUBLIC "-//W3C//DTD SVG 1.1//EN"
 "http://www.w3.org/Graphics/SVG/1.1/DTD/svg11.dtd">
<!-- Generated by graphviz version 2.38.0 (20140413.2041)
 -->
<!-- Title: src/server/src/BattleshipRoyale.cpp Pages: 1 -->
<!--zoomable 397 -->
<svg id="main" version="1.1" xmlns="http://www.w3.org/2000/svg" xmlns:xlink="http://www.w3.org/1999/xlink" xml:space="preserve" onload="init(evt)">
<style type="text/css"><![CDATA[
.edge:hover path { stroke: red; }
.edge:hover polygon { stroke: red; fill: red; }
]]></style>
<script type="text/javascript"><![CDATA[
var edges = document.getElementsByTagName('g');
if (edges && edges.length) {
  for (var i=0;i<edges.length;i++) {
    if (edges[i].id.substr(0,4)=='edge') {
      edges[i].setAttribute('class','edge');
    }
  }
}
]]></script>
        <defs>
                <circle id="rim" cx="0" cy="0" r="7"/>
                <circle id="rim2" cx="0" cy="0" r="3.5"/>
                <g id="zoomPlus">
                        <use xlink:href="#rim" fill="#404040">
                                <set attributeName="fill" to="#808080" begin="zoomplus.mouseover" end="zoomplus.mouseout"/>
                        </use>
                        <path d="M-4,0h8M0,-4v8" fill="none" stroke="white" stroke-width="1.5" pointer-events="none"/>
                </g>
                <g id="zoomMin">
                        <use xlink:href="#rim" fill="#404040">
                                <set attributeName="fill" to="#808080" begin="zoomminus.mouseover" end="zoomminus.mouseout"/>
                        </use>
                        <path d="M-4,0h8" fill="none" stroke="white" stroke-width="1.5" pointer-events="none"/>
                </g>
                <g id="dirArrow">
                        <path fill="none" stroke="white" stroke-width="1.5" d="M0,-3.0v7 M-2.5,-0.5L0,-3.0L2.5,-0.5"/>
                </g>
               <g id="resetDef">
                       <use xlink:href="#rim2" fill="#404040">
                               <set attributeName="fill" to="#808080" begin="reset.mouseover" end="reset.mouseout"/>
                       </use>
               </g>
        </defs>

<script type="text/javascript">
var viewWidth = 1054;
var viewHeight = 397;
var sectionId = 'dynsection-0';
</script>
<script xlink:href="svgpan.js"/>
<svg id="graph" class="graph">
<g id="viewport">
<title>src/server/src/BattleshipRoyale.cpp</title>
<polygon fill="white" stroke="none" points="-4,4 -4,-393 1049.5,-393 1049.5,4 -4,4"/>
<!-- Node0 -->
<g id="node1" class="node"><title>Node0</title>
<g id="a_node1"><a xlink:title="Сервер">
<polygon fill="#bfbfbf" stroke="black" points="470,-358.5 470,-388.5 592,-388.5 592,-358.5 470,-358.5"/>
<text text-anchor="start" x="478" y="-376.5" font-family="Helvetica,sans-Serif" font-size="10.00">src/server/src/Battleship</text>
<text text-anchor="middle" x="531" y="-365.5" font-family="Helvetica,sans-Serif" font-size="10.00">Royale.cpp</text>
</a>
</g>
</g>
<!-- Node1 -->
<g id="node2" class="node"><title>Node1</title>
<g id="a_node2"><a xlink:title=" ">
<polygon fill="white" stroke="#bfbfbf" points="0,-297 0,-316 54,-316 54,-297 0,-297"/>
<text text-anchor="middle" x="27" y="-304" font-family="Helvetica,sans-Serif" font-size="10.00">iostream</text>
</a>
</g>
</g>
<!-- Node0&#45;&gt;Node1 -->
<g id="edge1" class="edge"><title>Node0&#45;&gt;Node1</title>
<path fill="none" stroke="midnightblue" d="M469.957,-370.332C380.678,-366.154 209.703,-354.326 68,-322 64.7612,-321.261 61.4245,-320.348 58.1193,-319.342"/>
<polygon fill="midnightblue" stroke="midnightblue" points="59.0209,-315.954 48.4275,-316.129 56.8178,-322.598 59.0209,-315.954"/>
</g>
<!-- Node2 -->
<g id="node3" class="node"><title>Node2</title>
<g id="a_node3"><a xlink:title=" ">
<polygon fill="white" stroke="#bfbfbf" points="256.5,-56.5 256.5,-75.5 297.5,-75.5 297.5,-56.5 256.5,-56.5"/>
<text text-anchor="middle" x="277" y="-63.5" font-family="Helvetica,sans-Serif" font-size="10.00">string</text>
</a>
</g>
</g>
<!-- Node0&#45;&gt;Node2 -->
<g id="edge2" class="edge"><title>Node0&#45;&gt;Node2</title>
<path fill="none" stroke="midnightblue" d="M469.979,-368.111C347.214,-357.599 82,-325.67 82,-246 82,-246 82,-246 82,-182.5 82,-107.092 191.286,-79.8578 246.229,-70.9309"/>
<polygon fill="midnightblue" stroke="midnightblue" points="246.771,-74.3888 256.132,-69.425 245.719,-67.4683 246.771,-74.3888"/>
</g>
<!-- Node3 -->
<g id="node4" class="node"><title>Node3</title>
<g id="a_node4"><a xlink:title=" ">
<polygon fill="white" stroke="#bfbfbf" points="578.5,-297 578.5,-316 619.5,-316 619.5,-297 578.5,-297"/>
<text text-anchor="middle" x="599" y="-304" font-family="Helvetica,sans-Serif" font-size="10.00">future</text>
</a>
</g>
</g>
<!-- Node0&#45;&gt;Node3 -->
<g id="edge3" class="edge"><title>Node0&#45;&gt;Node3</title>
<path fill="none" stroke="midnightblue" d="M545.755,-358.396C556.568,-348.06 571.252,-334.024 582.461,-323.309"/>
<polygon fill="midnightblue" stroke="midnightblue" points="585.094,-325.634 589.904,-316.195 580.257,-320.574 585.094,-325.634"/>
</g>
<!-- Node4 -->
<g id="node5" class="node"><title>Node4</title>
<g id="a_node5"><a xlink:title=" ">
<polygon fill="white" stroke="#bfbfbf" points="637.5,-297 637.5,-316 722.5,-316 722.5,-297 637.5,-297"/>
<text text-anchor="middle" x="680" y="-304" font-family="Helvetica,sans-Serif" font-size="10.00">spdlog/spdlog.h</text>
</a>
</g>
</g>
<!-- Node0&#45;&gt;Node4 -->
<g id="edge4" class="edge"><title>Node0&#45;&gt;Node4</title>
<path fill="none" stroke="midnightblue" d="M563.331,-358.396C589.475,-346.991 625.949,-331.079 651.122,-320.098"/>
<polygon fill="midnightblue" stroke="midnightblue" points="652.733,-323.214 660.499,-316.007 649.934,-316.798 652.733,-323.214"/>
</g>
<!-- Node5 -->
<g id="node6" class="node"><title>Node5</title>
<g id="a_node6"><a xlink:title=" ">
<polygon fill="white" stroke="#bfbfbf" points="741,-291.5 741,-321.5 839,-321.5 839,-291.5 741,-291.5"/>
<text text-anchor="start" x="749" y="-309.5" font-family="Helvetica,sans-Serif" font-size="10.00">spdlog/sinks/basic</text>
<text text-anchor="middle" x="790" y="-298.5" font-family="Helvetica,sans-Serif" font-size="10.00">_file_sink.h</text>
</a>
</g>
</g>
<!-- Node0&#45;&gt;Node5 -->
<g id="edge5" class="edge"><title>Node0&#45;&gt;Node5</title>
<path fill="none" stroke="midnightblue" d="M586.88,-358.476C629.373,-347.812 687.7,-333.174 730.954,-322.319"/>
<polygon fill="midnightblue" stroke="midnightblue" points="731.925,-325.683 740.772,-319.854 730.221,-318.894 731.925,-325.683"/>
</g>
<!-- Node6 -->
<g id="node7" class="node"><title>Node6</title>
<g id="a_node7"><a xlink:title=" ">
<polygon fill="white" stroke="#bfbfbf" points="857,-297 857,-316 927,-316 927,-297 857,-297"/>
<text text-anchor="middle" x="892" y="-304" font-family="Helvetica,sans-Serif" font-size="10.00">cxxopts.hpp</text>
</a>
</g>
</g>
<!-- Node0&#45;&gt;Node6 -->
<g id="edge6" class="edge"><title>Node0&#45;&gt;Node6</title>
<path fill="none" stroke="midnightblue" d="M592.05,-365.725C656.309,-357.909 760.132,-343.331 848,-322 851.466,-321.159 855.051,-320.174 858.611,-319.12"/>
<polygon fill="midnightblue" stroke="midnightblue" points="859.96,-322.365 868.453,-316.032 857.864,-315.686 859.96,-322.365"/>
</g>
<!-- Node7 -->
<g id="node8" class="node"><title>Node7</title>
<g id="a_node8"><a xlink:href="_battleship_royale_8h.html" target="_top" xlink:title="Заголовочный файл с пространством имён, которое хранит в себе константы.">
<polygon fill="white" stroke="black" points="472,-56.5 472,-75.5 570,-75.5 570,-56.5 472,-56.5"/>
<text text-anchor="middle" x="521" y="-63.5" font-family="Helvetica,sans-Serif" font-size="10.00">BattleshipRoyale.h</text>
</a>
</g>
</g>
<!-- Node0&#45;&gt;Node7 -->
<g id="edge7" class="edge"><title>Node0&#45;&gt;Node7</title>
<path fill="none" stroke="midnightblue" d="M534.574,-358.187C540.078,-334.852 550,-287.085 550,-246 550,-246 550,-246 550,-182.5 550,-147.143 537.058,-107.482 528.466,-85.0454"/>
<polygon fill="midnightblue" stroke="midnightblue" points="531.621,-83.5076 524.673,-75.5092 525.117,-86.0947 531.621,-83.5076"/>
</g>
<!-- Node14 -->
<g id="node15" class="node"><title>Node14</title>
<g id="a_node15"><a xlink:href="_check_8h.html" target="_top" xlink:title="Набор проверок (пример: Проверка поддержки OpenMP)">
<polygon fill="white" stroke="black" points="945.5,-297 945.5,-316 998.5,-316 998.5,-297 945.5,-297"/>
<text text-anchor="middle" x="972" y="-304" font-family="Helvetica,sans-Serif" font-size="10.00">Check.h</text>
</a>
</g>
</g>
<!-- Node0&#45;&gt;Node14 -->
<g id="edge14" class="edge"><title>Node0&#45;&gt;Node14</title>
<path fill="none" stroke="midnightblue" d="M592.303,-369.792C672.44,-365.136 816.648,-352.918 936,-322 938.511,-321.349 941.081,-320.567 943.636,-319.706"/>
<polygon fill="midnightblue" stroke="midnightblue" points="945.108,-322.892 953.253,-316.117 942.66,-316.334 945.108,-322.892"/>
</g>
<!-- Node16 -->
<g id="node17" class="node"><title>Node16</title>
<g id="a_node17"><a xlink:href="server_2src_2_mini_d_b_8h.html" target="_top" xlink:title="Облегчённый класс для работы с бд">
<polygon fill="white" stroke="black" points="324,-112.5 324,-131.5 380,-131.5 380,-112.5 324,-112.5"/>
<text text-anchor="middle" x="352" y="-119.5" font-family="Helvetica,sans-Serif" font-size="10.00">MiniDB.h</text>
</a>
</g>
</g>
<!-- Node0&#45;&gt;Node16 -->
<g id="edge16" class="edge"><title>Node0&#45;&gt;Node16</title>
<path fill="none" stroke="midnightblue" d="M526.46,-358.37C512.268,-314.494 468.856,-182.656 455,-168 437.64,-149.638 411.488,-138.338 389.881,-131.654"/>
<polygon fill="midnightblue" stroke="midnightblue" points="390.588,-128.216 380.01,-128.816 388.654,-134.943 390.588,-128.216"/>
</g>
<!-- Node17 -->
<g id="node18" class="node"><title>Node17</title>
<g id="a_node18"><a xlink:href="_mem_d_buid_8h.html" target="_top" xlink:title="Облегчённый класс для работы с бд в памяти">
<polygon fill="white" stroke="black" points="232.5,-112.5 232.5,-131.5 305.5,-131.5 305.5,-112.5 232.5,-112.5"/>
<text text-anchor="middle" x="269" y="-119.5" font-family="Helvetica,sans-Serif" font-size="10.00">MemDBuid.h</text>
</a>
</g>
</g>
<!-- Node0&#45;&gt;Node17 -->
<g id="edge20" class="edge"><title>Node0&#45;&gt;Node17</title>
<path fill="none" stroke="midnightblue" d="M469.845,-366.912C377.815,-354.745 207.237,-316.653 139,-199 132.088,-187.082 131.008,-179.223 139,-168 157.836,-141.547 193.336,-130.5 222.485,-125.955"/>
<polygon fill="midnightblue" stroke="midnightblue" points="223.051,-129.411 232.493,-124.605 222.114,-122.474 223.051,-129.411"/>
</g>
<!-- Node18 -->
<g id="node19" class="node"><title>Node18</title>
<g id="a_node19"><a xlink:href="server_2src_2_console_8h.html" target="_top" xlink:title="Обработка команд в консоли сервера">
<polygon fill="white" stroke="black" points="462,-112.5 462,-131.5 522,-131.5 522,-112.5 462,-112.5"/>
<text text-anchor="middle" x="492" y="-119.5" font-family="Helvetica,sans-Serif" font-size="10.00">Console.h</text>
</a>
</g>
</g>
<!-- Node0&#45;&gt;Node18 -->
<g id="edge22" class="edge"><title>Node0&#45;&gt;Node18</title>
<path fill="none" stroke="midnightblue" d="M528.791,-358.371C522.168,-315.998 502.466,-189.958 494.955,-141.901"/>
<polygon fill="midnightblue" stroke="midnightblue" points="498.398,-141.27 493.396,-131.93 491.482,-142.351 498.398,-141.27"/>
</g>
<!-- Node19 -->
<g id="node20" class="node"><title>Node19</title>
<g id="a_node20"><a xlink:href="server_2src_2_server_8h.html" target="_top" xlink:title="Асинхронный сервер написанный на boost asio.">
<polygon fill="white" stroke="black" points="363,-297 363,-316 415,-316 415,-297 363,-297"/>
<text text-anchor="middle" x="389" y="-304" font-family="Helvetica,sans-Serif" font-size="10.00">Server.h</text>
</a>
</g>
</g>
<!-- Node0&#45;&gt;Node19 -->
<g id="edge25" class="edge"><title>Node0&#45;&gt;Node19</title>
<path fill="none" stroke="midnightblue" d="M500.188,-358.396C475.383,-347.041 440.819,-331.22 416.84,-320.244"/>
<polygon fill="midnightblue" stroke="midnightblue" points="418.134,-316.987 407.585,-316.007 415.22,-323.352 418.134,-316.987"/>
</g>
<!-- Node8 -->
<g id="node9" class="node"><title>Node8</title>
<g id="a_node9"><a xlink:href="_version_8h.html" target="_top" xlink:title="Версия программы">
<polygon fill="white" stroke="black" points="454,-0.5 454,-19.5 588,-19.5 588,-0.5 454,-0.5"/>
<text text-anchor="middle" x="521" y="-7.5" font-family="Helvetica,sans-Serif" font-size="10.00">BattleshipRoyale/Version.h</text>
</a>
</g>
</g>
<!-- Node7&#45;&gt;Node8 -->
<g id="edge8" class="edge"><title>Node7&#45;&gt;Node8</title>
<path fill="none" stroke="midnightblue" d="M521,-56.083C521,-49.0059 521,-38.8611 521,-29.9865"/>
<polygon fill="midnightblue" stroke="midnightblue" points="524.5,-29.751 521,-19.7511 517.5,-29.7511 524.5,-29.751"/>
</g>
<!-- Node9 -->
<g id="node10" class="node"><title>Node9</title>
<g id="a_node10"><a xlink:href="_connect_8h.html" target="_top" xlink:title="Константы с параметрами для подключения">
<polygon fill="white" stroke="black" points="606.5,-0.5 606.5,-19.5 743.5,-19.5 743.5,-0.5 606.5,-0.5"/>
<text text-anchor="middle" x="675" y="-7.5" font-family="Helvetica,sans-Serif" font-size="10.00">BattleshipRoyale/Connect.h</text>
</a>
</g>
</g>
<!-- Node7&#45;&gt;Node9 -->
<g id="edge9" class="edge"><title>Node7&#45;&gt;Node9</title>
<path fill="none" stroke="midnightblue" d="M545.402,-56.4435C571.197,-47.3986 612.077,-33.064 641.018,-22.9158"/>
<polygon fill="midnightblue" stroke="midnightblue" points="642.434,-26.1283 650.712,-19.5164 640.118,-19.5226 642.434,-26.1283"/>
</g>
<!-- Node10 -->
<g id="node11" class="node"><title>Node10</title>
<g id="a_node11"><a xlink:href="sqlite3_8h.html" target="_top" xlink:title="Константы для работы с базой данных sqlite3.">
<polygon fill="white" stroke="black" points="164,-0.5 164,-19.5 294,-19.5 294,-0.5 164,-0.5"/>
<text text-anchor="middle" x="229" y="-7.5" font-family="Helvetica,sans-Serif" font-size="10.00">BattleshipRoyale/sqlite3.h</text>
</a>
</g>
</g>
<!-- Node7&#45;&gt;Node10 -->
<g id="edge10" class="edge"><title>Node7&#45;&gt;Node10</title>
<path fill="none" stroke="midnightblue" d="M474.732,-56.4435C423.259,-46.9246 340.107,-31.5472 285.001,-21.3563"/>
<polygon fill="midnightblue" stroke="midnightblue" points="285.522,-17.8933 275.052,-19.5164 284.249,-24.7766 285.522,-17.8933"/>
</g>
<!-- Node11 -->
<g id="node12" class="node"><title>Node11</title>
<g id="a_node12"><a xlink:href="_battleship_royale_2_battleship_royale_2_console_8h.html" target="_top" xlink:title="Константы консоли">
<polygon fill="white" stroke="black" points="761.5,-0.5 761.5,-19.5 898.5,-19.5 898.5,-0.5 761.5,-0.5"/>
<text text-anchor="middle" x="830" y="-7.5" font-family="Helvetica,sans-Serif" font-size="10.00">BattleshipRoyale/Console.h</text>
</a>
</g>
</g>
<!-- Node7&#45;&gt;Node11 -->
<g id="edge11" class="edge"><title>Node7&#45;&gt;Node11</title>
<path fill="none" stroke="midnightblue" d="M569.962,-56.4435C624.544,-46.9049 712.79,-31.4834 771.101,-21.293"/>
<polygon fill="midnightblue" stroke="midnightblue" points="772.019,-24.6857 781.267,-19.5164 770.814,-17.7902 772.019,-24.6857"/>
</g>
<!-- Node12 -->
<g id="node13" class="node"><title>Node12</title>
<g id="a_node13"><a xlink:href="_battleship_royale_2_battleship_royale_2_regex_8h.html" target="_top" xlink:title="Константы регулярных выражений">
<polygon fill="white" stroke="black" points="916.5,-0.5 916.5,-19.5 1045.5,-19.5 1045.5,-0.5 916.5,-0.5"/>
<text text-anchor="middle" x="981" y="-7.5" font-family="Helvetica,sans-Serif" font-size="10.00">BattleshipRoyale/Regex.h</text>
</a>
</g>
</g>
<!-- Node7&#45;&gt;Node12 -->
<g id="edge12" class="edge"><title>Node7&#45;&gt;Node12</title>
<path fill="none" stroke="midnightblue" d="M570.191,-59.3904C641.772,-51.2031 779.121,-35.402 905.853,-20.2513"/>
<polygon fill="midnightblue" stroke="midnightblue" points="906.611,-23.6856 916.124,-19.022 905.779,-16.7352 906.611,-23.6856"/>
</g>
<!-- Node13 -->
<g id="node14" class="node"><title>Node13</title>
<g id="a_node14"><a xlink:href="_code_8h.html" target="_top" xlink:title="Различные коды ответов">
<polygon fill="white" stroke="black" points="312,-0.5 312,-19.5 436,-19.5 436,-0.5 312,-0.5"/>
<text text-anchor="middle" x="374" y="-7.5" font-family="Helvetica,sans-Serif" font-size="10.00">BattleshipRoyale/Code.h</text>
</a>
</g>
</g>
<!-- Node7&#45;&gt;Node13 -->
<g id="edge13" class="edge"><title>Node7&#45;&gt;Node13</title>
<path fill="none" stroke="midnightblue" d="M497.707,-56.4435C473.193,-47.4381 434.404,-33.1891 406.8,-23.049"/>
<polygon fill="midnightblue" stroke="midnightblue" points="407.777,-19.6793 397.184,-19.5164 405.363,-26.25 407.777,-19.6793"/>
</g>
<!-- Node15 -->
<g id="node16" class="node"><title>Node15</title>
<g id="a_node16"><a xlink:href="_open_m_p_8h.html" target="_top" xlink:title="Проверка поддержки OpenMP.">
<polygon fill="white" stroke="black" points="926,-235.5 926,-254.5 1018,-254.5 1018,-235.5 926,-235.5"/>
<text text-anchor="middle" x="972" y="-242.5" font-family="Helvetica,sans-Serif" font-size="10.00">check/OpenMP.h</text>
</a>
</g>
</g>
<!-- Node14&#45;&gt;Node15 -->
<g id="edge15" class="edge"><title>Node14&#45;&gt;Node15</title>
<path fill="none" stroke="midnightblue" d="M972,-296.975C972,-288.58 972,-275.481 972,-264.663"/>
<polygon fill="midnightblue" stroke="midnightblue" points="975.5,-264.509 972,-254.509 968.5,-264.509 975.5,-264.509"/>
</g>
<!-- Node16&#45;&gt;Node2 -->
<g id="edge17" class="edge"><title>Node16&#45;&gt;Node2</title>
<path fill="none" stroke="midnightblue" d="M339.95,-112.324C328.537,-104.107 311.169,-91.6017 297.565,-81.8069"/>
<polygon fill="midnightblue" stroke="midnightblue" points="299.43,-78.8366 289.269,-75.8339 295.34,-84.5174 299.43,-78.8366"/>
</g>
<!-- Node16&#45;&gt;Node7 -->
<g id="edge19" class="edge"><title>Node16&#45;&gt;Node7</title>
<path fill="none" stroke="midnightblue" d="M378.779,-112.444C407.333,-103.32 452.733,-88.8133 484.537,-78.6509"/>
<polygon fill="midnightblue" stroke="midnightblue" points="485.886,-81.8941 494.347,-75.5164 483.756,-75.2262 485.886,-81.8941"/>
</g>
<!-- Node16&#45;&gt;Node10 -->
<g id="edge18" class="edge"><title>Node16&#45;&gt;Node10</title>
<path fill="none" stroke="midnightblue" d="M347.341,-112.108C339.973,-98.6818 324.548,-73.0011 306,-56 291.727,-42.9175 273.026,-31.8787 257.628,-24.0086"/>
<polygon fill="midnightblue" stroke="midnightblue" points="259.053,-20.8093 248.536,-19.5279 255.959,-27.0882 259.053,-20.8093"/>
</g>
<!-- Node17&#45;&gt;Node2 -->
<g id="edge21" class="edge"><title>Node17&#45;&gt;Node2</title>
<path fill="none" stroke="midnightblue" d="M270.321,-112.083C271.381,-104.927 272.906,-94.6353 274.231,-85.6911"/>
<polygon fill="midnightblue" stroke="midnightblue" points="277.7,-86.1561 275.704,-75.7511 270.776,-85.1302 277.7,-86.1561"/>
</g>
<!-- Node18&#45;&gt;Node2 -->
<g id="edge23" class="edge"><title>Node18&#45;&gt;Node2</title>
<path fill="none" stroke="midnightblue" d="M461.652,-113.378C420.762,-103.108 348.398,-84.9325 307.454,-74.649"/>
<polygon fill="midnightblue" stroke="midnightblue" points="308.069,-71.1948 297.518,-72.1533 306.364,-77.9839 308.069,-71.1948"/>
</g>
<!-- Node18&#45;&gt;Node7 -->
<g id="edge24" class="edge"><title>Node18&#45;&gt;Node7</title>
<path fill="none" stroke="midnightblue" d="M496.789,-112.083C500.758,-104.691 506.525,-93.9533 511.435,-84.8111"/>
<polygon fill="midnightblue" stroke="midnightblue" points="514.653,-86.217 516.3,-75.7511 508.486,-82.9051 514.653,-86.217"/>
</g>
<!-- Node20 -->
<g id="node21" class="node"><title>Node20</title>
<g id="a_node21"><a xlink:href="server_2src_2con__handler_8h.html" target="_top" xlink:title="handler">
<polygon fill="white" stroke="black" points="319.5,-235.5 319.5,-254.5 396.5,-254.5 396.5,-235.5 319.5,-235.5"/>
<text text-anchor="middle" x="358" y="-242.5" font-family="Helvetica,sans-Serif" font-size="10.00">con_handler.h</text>
</a>
</g>
</g>
<!-- Node19&#45;&gt;Node20 -->
<g id="edge26" class="edge"><title>Node19&#45;&gt;Node20</title>
<path fill="none" stroke="midnightblue" d="M384.558,-296.975C380.047,-288.315 372.926,-274.649 367.193,-263.645"/>
<polygon fill="midnightblue" stroke="midnightblue" points="370.158,-261.76 362.433,-254.509 363.95,-264.995 370.158,-261.76"/>
</g>
<!-- Node21 -->
<g id="node22" class="node"><title>Node21</title>
<g id="a_node22"><a xlink:title=" ">
<polygon fill="white" stroke="#bfbfbf" points="366,-174 366,-193 446,-193 446,-174 366,-174"/>
<text text-anchor="middle" x="406" y="-181" font-family="Helvetica,sans-Serif" font-size="10.00">boost/asio.hpp</text>
</a>
</g>
</g>
<!-- Node20&#45;&gt;Node21 -->
<g id="edge27" class="edge"><title>Node20&#45;&gt;Node21</title>
<path fill="none" stroke="midnightblue" d="M364.877,-235.475C372.149,-226.462 383.795,-212.025 392.841,-200.812"/>
<polygon fill="midnightblue" stroke="midnightblue" points="395.581,-202.99 399.136,-193.009 390.133,-198.595 395.581,-202.99"/>
</g>
<!-- Node22 -->
<g id="node23" class="node"><title>Node22</title>
<g id="a_node23"><a xlink:title=" ">
<polygon fill="white" stroke="#bfbfbf" points="148.5,-168.5 148.5,-198.5 255.5,-198.5 255.5,-168.5 148.5,-168.5"/>
<text text-anchor="start" x="156.5" y="-186.5" font-family="Helvetica,sans-Serif" font-size="10.00">boost/enable_shared</text>
<text text-anchor="middle" x="202" y="-175.5" font-family="Helvetica,sans-Serif" font-size="10.00">_from_this.hpp</text>
</a>
</g>
</g>
<!-- Node20&#45;&gt;Node22 -->
<g id="edge28" class="edge"><title>Node20&#45;&gt;Node22</title>
<path fill="none" stroke="midnightblue" d="M335.649,-235.475C312.941,-226.814 277.104,-213.145 248.253,-202.141"/>
<polygon fill="midnightblue" stroke="midnightblue" points="249.357,-198.817 238.766,-198.523 246.862,-205.357 249.357,-198.817"/>
</g>
<!-- Node23 -->
<g id="node24" class="node"><title>Node23</title>
<g id="a_node24"><a xlink:href="_processing_8h.html" target="_top" xlink:title="Обработка запросов">
<polygon fill="white" stroke="black" points="274,-174 274,-193 348,-193 348,-174 274,-174"/>
<text text-anchor="middle" x="311" y="-181" font-family="Helvetica,sans-Serif" font-size="10.00">Processing.h</text>
</a>
</g>
</g>
<!-- Node20&#45;&gt;Node23 -->
<g id="edge29" class="edge"><title>Node20&#45;&gt;Node23</title>
<path fill="none" stroke="midnightblue" d="M351.266,-235.475C344.216,-226.55 332.965,-212.307 324.146,-201.143"/>
<polygon fill="midnightblue" stroke="midnightblue" points="326.667,-198.687 317.721,-193.009 321.174,-203.026 326.667,-198.687"/>
</g>
<!-- Node23&#45;&gt;Node16 -->
<g id="edge30" class="edge"><title>Node23&#45;&gt;Node16</title>
<path fill="none" stroke="midnightblue" d="M316.874,-173.975C322.963,-165.138 332.645,-151.089 340.303,-139.975"/>
<polygon fill="midnightblue" stroke="midnightblue" points="343.344,-141.729 346.137,-131.509 337.58,-137.758 343.344,-141.729"/>
</g>
<!-- Node23&#45;&gt;Node17 -->
<g id="edge31" class="edge"><title>Node23&#45;&gt;Node17</title>
<path fill="none" stroke="midnightblue" d="M304.982,-173.975C298.745,-165.138 288.827,-151.089 280.982,-139.975"/>
<polygon fill="midnightblue" stroke="midnightblue" points="283.633,-137.66 275.006,-131.509 277.914,-141.697 283.633,-137.66"/>
</g>
</g>
</svg>
        <g id="navigator" transform="translate(0 0)" fill="#404254">
                <rect fill="#f2f5e9" fill-opacity="0.5" stroke="#606060" stroke-width=".5" x="0" y="0" width="60" height="60"/>
                <use id="zoomplus" xlink:href="#zoomPlus" x="17" y="9" onmousedown="handleZoom(evt,'in')"/>
                <use id="zoomminus" xlink:href="#zoomMin" x="42" y="9" onmousedown="handleZoom(evt,'out')"/>
                <use id="reset" xlink:href="#resetDef" x="30" y="36" onmousedown="handleReset()"/>
                <g id="arrowUp" xlink:href="#dirArrow" transform="translate(30 24)" onmousedown="handlePan(0,-1)">
                  <use xlink:href="#rim" fill="#404040">
                        <set attributeName="fill" to="#808080" begin="arrowUp.mouseover" end="arrowUp.mouseout"/>
                  </use>
                  <path fill="none" stroke="white" stroke-width="1.5" d="M0,-3.0v7 M-2.5,-0.5L0,-3.0L2.5,-0.5"/>
                </g>
                <g id="arrowRight" xlink:href="#dirArrow" transform="rotate(90) translate(36 -43)" onmousedown="handlePan(1,0)">
                  <use xlink:href="#rim" fill="#404040">
                        <set attributeName="fill" to="#808080" begin="arrowRight.mouseover" end="arrowRight.mouseout"/>
                  </use>
                  <path fill="none" stroke="white" stroke-width="1.5" d="M0,-3.0v7 M-2.5,-0.5L0,-3.0L2.5,-0.5"/>
                </g>
                <g id="arrowDown" xlink:href="#dirArrow" transform="rotate(180) translate(-30 -48)" onmousedown="handlePan(0,1)">
                  <use xlink:href="#rim" fill="#404040">
                        <set attributeName="fill" to="#808080" begin="arrowDown.mouseover" end="arrowDown.mouseout"/>
                  </use>
                  <path fill="none" stroke="white" stroke-width="1.5" d="M0,-3.0v7 M-2.5,-0.5L0,-3.0L2.5,-0.5"/>
                </g>
                <g id="arrowLeft" xlink:href="#dirArrow" transform="rotate(270) translate(-36 17)" onmousedown="handlePan(-1,0)">
                  <use xlink:href="#rim" fill="#404040">
                        <set attributeName="fill" to="#808080" begin="arrowLeft.mouseover" end="arrowLeft.mouseout"/>
                  </use>
                  <path fill="none" stroke="white" stroke-width="1.5" d="M0,-3.0v7 M-2.5,-0.5L0,-3.0L2.5,-0.5"/>
                </g>
        </g>
        <svg viewBox="0 0 15 15" width="100%" height="30px" preserveAspectRatio="xMaxYMin meet">
         <g id="arrow_out" transform="scale(0.3 0.3)">
          <a xlink:href="server_2src_2_battleship_royale_8cpp__incl_org.svg" target="_base">
           <rect id="button" ry="5" rx="5" y="6" x="6" height="38" width="38"
                fill="#f2f5e9" fill-opacity="0.5" stroke="#606060" stroke-width="1.0"/>
           <path id="arrow"
             d="M 11.500037,31.436501 C 11.940474,20.09759 22.043105,11.32322 32.158766,21.979434 L 37.068811,17.246167 C 37.068811,17.246167 37.088388,32 37.088388,32 L 22.160133,31.978069 C 22.160133,31.978069 26.997745,27.140456 26.997745,27.140456 C 18.528582,18.264221 13.291696,25.230495 11.500037,31.436501 z"
             style="fill:#404040;"/>
          </a>
         </g>
        </svg>
</svg>
