<?xml version="1.0" encoding="UTF-8" standalone="no"?>
<!DOCTYPE svg PUBLIC "-//W3C//DTD SVG 1.1//EN"
 "http://www.w3.org/Graphics/SVG/1.1/DTD/svg11.dtd">
<!-- Generated by graphviz version 2.38.0 (20140413.2041)
 -->
<!-- Title: con_handler.cpp Pages: 1 -->
<!--zoomable 274 -->
<svg id="main" version="1.1" xmlns="http://www.w3.org/2000/svg" xmlns:xlink="http://www.w3.org/1999/xlink" xml:space="preserve" onload="init(evt)">
<style type="text/css"><![CDATA[
.edge:hover path { stroke: red; }
.edge:hover polygon { stroke: red; fill: red; }
]]></style>
<script type="text/javascript"><![CDATA[
var edges = document.getElementsByTagName('g');
if (edges && edges.length) {
  for (var i=0;i<edges.length;i++) {
    if (edges[i].id.substr(0,4)=='edge') {
      edges[i].setAttribute('class','edge');
    }
  }
}
]]></script>
        <defs>
                <circle id="rim" cx="0" cy="0" r="7"/>
                <circle id="rim2" cx="0" cy="0" r="3.5"/>
                <g id="zoomPlus">
                        <use xlink:href="#rim" fill="#404040">
                                <set attributeName="fill" to="#808080" begin="zoomplus.mouseover" end="zoomplus.mouseout"/>
                        </use>
                        <path d="M-4,0h8M0,-4v8" fill="none" stroke="white" stroke-width="1.5" pointer-events="none"/>
                </g>
                <g id="zoomMin">
                        <use xlink:href="#rim" fill="#404040">
                                <set attributeName="fill" to="#808080" begin="zoomminus.mouseover" end="zoomminus.mouseout"/>
                        </use>
                        <path d="M-4,0h8" fill="none" stroke="white" stroke-width="1.5" pointer-events="none"/>
                </g>
                <g id="dirArrow">
                        <path fill="none" stroke="white" stroke-width="1.5" d="M0,-3.0v7 M-2.5,-0.5L0,-3.0L2.5,-0.5"/>
                </g>
               <g id="resetDef">
                       <use xlink:href="#rim2" fill="#404040">
                               <set attributeName="fill" to="#808080" begin="reset.mouseover" end="reset.mouseout"/>
                       </use>
               </g>
        </defs>

<script type="text/javascript">
var viewWidth = 679;
var viewHeight = 274;
var sectionId = 'dynsection-0';
</script>
<script xlink:href="svgpan.js"/>
<svg id="graph" class="graph">
<g id="viewport">
<title>con_handler.cpp</title>
<polygon fill="white" stroke="none" points="-4,4 -4,-270 674.921,-270 674.921,4 -4,4"/>
<!-- Node0 -->
<g id="node1" class="node"><title>Node0</title>
<g id="a_node1"><a xlink:title="handler">
<polygon fill="#bfbfbf" stroke="black" points="332.921,-246.5 332.921,-265.5 420.921,-265.5 420.921,-246.5 332.921,-246.5"/>
<text text-anchor="middle" x="376.921" y="-253.5" font-family="Helvetica,sans-Serif" font-size="10.00">con_handler.cpp</text>
</a>
</g>
</g>
<!-- Node1 -->
<g id="node2" class="node"><title>Node1</title>
<g id="a_node2"><a xlink:href="server_2src_2con__handler_8h.html" target="_top" xlink:title="handler">
<polygon fill="white" stroke="black" points="183.421,-185 183.421,-204 260.421,-204 260.421,-185 183.421,-185"/>
<text text-anchor="middle" x="221.921" y="-192" font-family="Helvetica,sans-Serif" font-size="10.00">con_handler.h</text>
</a>
</g>
</g>
<!-- Node0&#45;&gt;Node1 -->
<g id="edge1" class="edge"><title>Node0&#45;&gt;Node1</title>
<path fill="none" stroke="midnightblue" d="M354.714,-246.475C328.241,-236.313 283.808,-219.256 253.702,-207.7"/>
<polygon fill="midnightblue" stroke="midnightblue" points="254.678,-204.325 244.088,-204.009 252.169,-210.86 254.678,-204.325"/>
</g>
<!-- Node6 -->
<g id="node7" class="node"><title>Node6</title>
<g id="a_node7"><a xlink:title=" ">
<polygon fill="white" stroke="#bfbfbf" points="66.4214,-0.5 66.4214,-19.5 107.421,-19.5 107.421,-0.5 66.4214,-0.5"/>
<text text-anchor="middle" x="86.9214" y="-7.5" font-family="Helvetica,sans-Serif" font-size="10.00">string</text>
</a>
</g>
</g>
<!-- Node0&#45;&gt;Node6 -->
<g id="edge9" class="edge"><title>Node0&#45;&gt;Node6</title>
<path fill="none" stroke="midnightblue" d="M332.692,-248.552C242.933,-234.427 44.7598,-197.594 7.92145,-143 -19.9341,-101.718 34.7039,-50.5416 66.439,-25.7872"/>
<polygon fill="midnightblue" stroke="midnightblue" points="68.8352,-28.363 74.695,-19.5361 64.6097,-22.7822 68.8352,-28.363"/>
</g>
<!-- Node8 -->
<g id="node9" class="node"><title>Node8</title>
<g id="a_node9"><a xlink:href="_battleship_royale_8h.html" target="_top" xlink:title="Заголовочный файл с пространством имён, которое хранит в себе константы.">
<polygon fill="white" stroke="black" points="293.921,-0.5 293.921,-19.5 391.921,-19.5 391.921,-0.5 293.921,-0.5"/>
<text text-anchor="middle" x="342.921" y="-7.5" font-family="Helvetica,sans-Serif" font-size="10.00">BattleshipRoyale.h</text>
</a>
</g>
</g>
<!-- Node0&#45;&gt;Node8 -->
<g id="edge13" class="edge"><title>Node0&#45;&gt;Node8</title>
<path fill="none" stroke="midnightblue" d="M373.326,-246.2C369.826,-237.246 364.648,-222.891 361.921,-210 348.176,-145.023 344.364,-65.9892 343.315,-30.2236"/>
<polygon fill="midnightblue" stroke="midnightblue" points="346.804,-29.7451 343.055,-19.8359 339.806,-29.9204 346.804,-29.7451"/>
</g>
<!-- Node9 -->
<g id="node10" class="node"><title>Node9</title>
<g id="a_node10"><a xlink:title=" ">
<polygon fill="white" stroke="#bfbfbf" points="370.921,-185 370.921,-204 450.921,-204 450.921,-185 370.921,-185"/>
<text text-anchor="middle" x="410.921" y="-192" font-family="Helvetica,sans-Serif" font-size="10.00">boost/bind.hpp</text>
</a>
</g>
</g>
<!-- Node0&#45;&gt;Node9 -->
<g id="edge10" class="edge"><title>Node0&#45;&gt;Node9</title>
<path fill="none" stroke="midnightblue" d="M381.793,-246.475C386.792,-237.727 394.711,-223.869 401.03,-212.809"/>
<polygon fill="midnightblue" stroke="midnightblue" points="404.137,-214.428 406.059,-204.009 398.059,-210.955 404.137,-214.428"/>
</g>
<!-- Node10 -->
<g id="node11" class="node"><title>Node10</title>
<g id="a_node11"><a xlink:title=" ">
<polygon fill="white" stroke="#bfbfbf" points="469.421,-185 469.421,-204 554.421,-204 554.421,-185 469.421,-185"/>
<text text-anchor="middle" x="511.921" y="-192" font-family="Helvetica,sans-Serif" font-size="10.00">spdlog/spdlog.h</text>
</a>
</g>
</g>
<!-- Node0&#45;&gt;Node10 -->
<g id="edge11" class="edge"><title>Node0&#45;&gt;Node10</title>
<path fill="none" stroke="midnightblue" d="M396.264,-246.475C419.02,-236.445 457.013,-219.7 483.209,-208.155"/>
<polygon fill="midnightblue" stroke="midnightblue" points="484.876,-211.245 492.615,-204.009 482.053,-204.839 484.876,-211.245"/>
</g>
<!-- Node11 -->
<g id="node12" class="node"><title>Node11</title>
<g id="a_node12"><a xlink:title=" ">
<polygon fill="white" stroke="#bfbfbf" points="572.921,-179.5 572.921,-209.5 670.921,-209.5 670.921,-179.5 572.921,-179.5"/>
<text text-anchor="start" x="580.921" y="-197.5" font-family="Helvetica,sans-Serif" font-size="10.00">spdlog/sinks/basic</text>
<text text-anchor="middle" x="621.921" y="-186.5" font-family="Helvetica,sans-Serif" font-size="10.00">_file_sink.h</text>
</a>
</g>
</g>
<!-- Node0&#45;&gt;Node11 -->
<g id="edge12" class="edge"><title>Node0&#45;&gt;Node11</title>
<path fill="none" stroke="midnightblue" d="M412.793,-246.467C448.469,-237.959 505.023,-224.412 563.16,-210.176"/>
<polygon fill="midnightblue" stroke="midnightblue" points="564.002,-213.573 572.881,-207.792 562.335,-206.774 564.002,-213.573"/>
</g>
<!-- Node2 -->
<g id="node3" class="node"><title>Node2</title>
<g id="a_node3"><a xlink:title=" ">
<polygon fill="white" stroke="#bfbfbf" points="16.9214,-118 16.9214,-137 96.9214,-137 96.9214,-118 16.9214,-118"/>
<text text-anchor="middle" x="56.9214" y="-125" font-family="Helvetica,sans-Serif" font-size="10.00">boost/asio.hpp</text>
</a>
</g>
</g>
<!-- Node1&#45;&gt;Node2 -->
<g id="edge2" class="edge"><title>Node1&#45;&gt;Node2</title>
<path fill="none" stroke="midnightblue" d="M200.011,-184.869C171.331,-173.571 120.881,-153.696 88.1911,-140.818"/>
<polygon fill="midnightblue" stroke="midnightblue" points="89.2469,-137.473 78.66,-137.064 86.6812,-143.985 89.2469,-137.473"/>
</g>
<!-- Node3 -->
<g id="node4" class="node"><title>Node3</title>
<g id="a_node4"><a xlink:title=" ">
<polygon fill="white" stroke="#bfbfbf" points="115.421,-112.5 115.421,-142.5 222.421,-142.5 222.421,-112.5 115.421,-112.5"/>
<text text-anchor="start" x="123.421" y="-130.5" font-family="Helvetica,sans-Serif" font-size="10.00">boost/enable_shared</text>
<text text-anchor="middle" x="168.921" y="-119.5" font-family="Helvetica,sans-Serif" font-size="10.00">_from_this.hpp</text>
</a>
</g>
</g>
<!-- Node1&#45;&gt;Node3 -->
<g id="edge3" class="edge"><title>Node1&#45;&gt;Node3</title>
<path fill="none" stroke="midnightblue" d="M214.774,-184.734C207.68,-176.034 196.518,-162.345 186.983,-150.651"/>
<polygon fill="midnightblue" stroke="midnightblue" points="189.441,-148.127 180.409,-142.589 184.016,-152.551 189.441,-148.127"/>
</g>
<!-- Node4 -->
<g id="node5" class="node"><title>Node4</title>
<g id="a_node5"><a xlink:href="_processing_8h.html" target="_top" xlink:title="Обработка запросов">
<polygon fill="white" stroke="black" points="240.921,-118 240.921,-137 314.921,-137 314.921,-118 240.921,-118"/>
<text text-anchor="middle" x="277.921" y="-125" font-family="Helvetica,sans-Serif" font-size="10.00">Processing.h</text>
</a>
</g>
</g>
<!-- Node1&#45;&gt;Node4 -->
<g id="edge4" class="edge"><title>Node1&#45;&gt;Node4</title>
<path fill="none" stroke="midnightblue" d="M229.474,-184.734C238.206,-174.598 252.773,-157.69 263.658,-145.056"/>
<polygon fill="midnightblue" stroke="midnightblue" points="266.613,-146.988 270.489,-137.127 261.31,-142.419 266.613,-146.988"/>
</g>
<!-- Node5 -->
<g id="node6" class="node"><title>Node5</title>
<g id="a_node6"><a xlink:href="server_2src_2_mini_d_b_8h.html" target="_top" xlink:title="Облегчённый класс для работы с бд">
<polygon fill="white" stroke="black" points="234.921,-56.5 234.921,-75.5 290.921,-75.5 290.921,-56.5 234.921,-56.5"/>
<text text-anchor="middle" x="262.921" y="-63.5" font-family="Helvetica,sans-Serif" font-size="10.00">MiniDB.h</text>
</a>
</g>
</g>
<!-- Node4&#45;&gt;Node5 -->
<g id="edge5" class="edge"><title>Node4&#45;&gt;Node5</title>
<path fill="none" stroke="midnightblue" d="M275.772,-117.975C273.634,-109.492 270.284,-96.2043 267.541,-85.3222"/>
<polygon fill="midnightblue" stroke="midnightblue" points="270.905,-84.3501 265.067,-75.5091 264.117,-86.0613 270.905,-84.3501"/>
</g>
<!-- Node5&#45;&gt;Node6 -->
<g id="edge6" class="edge"><title>Node5&#45;&gt;Node6</title>
<path fill="none" stroke="midnightblue" d="M235.034,-56.4435C202.884,-46.5794 150.229,-30.424 117.13,-20.2685"/>
<polygon fill="midnightblue" stroke="midnightblue" points="118.116,-16.9102 107.53,-17.323 116.063,-23.6023 118.116,-16.9102"/>
</g>
<!-- Node7 -->
<g id="node8" class="node"><title>Node7</title>
<g id="a_node8"><a xlink:title=" ">
<polygon fill="white" stroke="#bfbfbf" points="222.421,-0.5 222.421,-19.5 275.421,-19.5 275.421,-0.5 222.421,-0.5"/>
<text text-anchor="middle" x="248.921" y="-7.5" font-family="Helvetica,sans-Serif" font-size="10.00">sqlite3.h</text>
</a>
</g>
</g>
<!-- Node5&#45;&gt;Node7 -->
<g id="edge7" class="edge"><title>Node5&#45;&gt;Node7</title>
<path fill="none" stroke="midnightblue" d="M260.61,-56.083C258.754,-48.9272 256.086,-38.6353 253.767,-29.6911"/>
<polygon fill="midnightblue" stroke="midnightblue" points="257.088,-28.5527 251.19,-19.7511 250.312,-30.3094 257.088,-28.5527"/>
</g>
<!-- Node5&#45;&gt;Node8 -->
<g id="edge8" class="edge"><title>Node5&#45;&gt;Node8</title>
<path fill="none" stroke="midnightblue" d="M275.775,-56.324C288.138,-47.979 307.052,-35.2122 321.659,-25.3524"/>
<polygon fill="midnightblue" stroke="midnightblue" points="323.77,-28.1503 330.1,-19.6545 319.853,-22.3483 323.77,-28.1503"/>
</g>
</g>
</svg>
        <g id="navigator" transform="translate(0 0)" fill="#404254">
                <rect fill="#f2f5e9" fill-opacity="0.5" stroke="#606060" stroke-width=".5" x="0" y="0" width="60" height="60"/>
                <use id="zoomplus" xlink:href="#zoomPlus" x="17" y="9" onmousedown="handleZoom(evt,'in')"/>
                <use id="zoomminus" xlink:href="#zoomMin" x="42" y="9" onmousedown="handleZoom(evt,'out')"/>
                <use id="reset" xlink:href="#resetDef" x="30" y="36" onmousedown="handleReset()"/>
                <g id="arrowUp" xlink:href="#dirArrow" transform="translate(30 24)" onmousedown="handlePan(0,-1)">
                  <use xlink:href="#rim" fill="#404040">
                        <set attributeName="fill" to="#808080" begin="arrowUp.mouseover" end="arrowUp.mouseout"/>
                  </use>
                  <path fill="none" stroke="white" stroke-width="1.5" d="M0,-3.0v7 M-2.5,-0.5L0,-3.0L2.5,-0.5"/>
                </g>
                <g id="arrowRight" xlink:href="#dirArrow" transform="rotate(90) translate(36 -43)" onmousedown="handlePan(1,0)">
                  <use xlink:href="#rim" fill="#404040">
                        <set attributeName="fill" to="#808080" begin="arrowRight.mouseover" end="arrowRight.mouseout"/>
                  </use>
                  <path fill="none" stroke="white" stroke-width="1.5" d="M0,-3.0v7 M-2.5,-0.5L0,-3.0L2.5,-0.5"/>
                </g>
                <g id="arrowDown" xlink:href="#dirArrow" transform="rotate(180) translate(-30 -48)" onmousedown="handlePan(0,1)">
                  <use xlink:href="#rim" fill="#404040">
                        <set attributeName="fill" to="#808080" begin="arrowDown.mouseover" end="arrowDown.mouseout"/>
                  </use>
                  <path fill="none" stroke="white" stroke-width="1.5" d="M0,-3.0v7 M-2.5,-0.5L0,-3.0L2.5,-0.5"/>
                </g>
                <g id="arrowLeft" xlink:href="#dirArrow" transform="rotate(270) translate(-36 17)" onmousedown="handlePan(-1,0)">
                  <use xlink:href="#rim" fill="#404040">
                        <set attributeName="fill" to="#808080" begin="arrowLeft.mouseover" end="arrowLeft.mouseout"/>
                  </use>
                  <path fill="none" stroke="white" stroke-width="1.5" d="M0,-3.0v7 M-2.5,-0.5L0,-3.0L2.5,-0.5"/>
                </g>
        </g>
        <svg viewBox="0 0 15 15" width="100%" height="30px" preserveAspectRatio="xMaxYMin meet">
         <g id="arrow_out" transform="scale(0.3 0.3)">
          <a xlink:href="server_2src_2con__handler_8cpp__incl_org.svg" target="_base">
           <rect id="button" ry="5" rx="5" y="6" x="6" height="38" width="38"
                fill="#f2f5e9" fill-opacity="0.5" stroke="#606060" stroke-width="1.0"/>
           <path id="arrow"
             d="M 11.500037,31.436501 C 11.940474,20.09759 22.043105,11.32322 32.158766,21.979434 L 37.068811,17.246167 C 37.068811,17.246167 37.088388,32 37.088388,32 L 22.160133,31.978069 C 22.160133,31.978069 26.997745,27.140456 26.997745,27.140456 C 18.528582,18.264221 13.291696,25.230495 11.500037,31.436501 z"
             style="fill:#404040;"/>
          </a>
         </g>
        </svg>
</svg>
