<?xml version="1.0" encoding="UTF-8" standalone="no"?>
<!DOCTYPE svg PUBLIC "-//W3C//DTD SVG 1.1//EN"
 "http://www.w3.org/Graphics/SVG/1.1/DTD/svg11.dtd">
<!-- Generated by graphviz version 2.38.0 (20140413.2041)
 -->
<!-- Title: src/BattleshipRoyale/BattleshipRoyale/sqlite3.h Pages: 1 -->
<!--zoomable 441 -->
<svg id="main" version="1.1" xmlns="http://www.w3.org/2000/svg" xmlns:xlink="http://www.w3.org/1999/xlink" xml:space="preserve" onload="init(evt)">
<style type="text/css"><![CDATA[
.edge:hover path { stroke: red; }
.edge:hover polygon { stroke: red; fill: red; }
]]></style>
<script type="text/javascript"><![CDATA[
var edges = document.getElementsByTagName('g');
if (edges && edges.length) {
  for (var i=0;i<edges.length;i++) {
    if (edges[i].id.substr(0,4)=='edge') {
      edges[i].setAttribute('class','edge');
    }
  }
}
]]></script>
        <defs>
                <circle id="rim" cx="0" cy="0" r="7"/>
                <circle id="rim2" cx="0" cy="0" r="3.5"/>
                <g id="zoomPlus">
                        <use xlink:href="#rim" fill="#404040">
                                <set attributeName="fill" to="#808080" begin="zoomplus.mouseover" end="zoomplus.mouseout"/>
                        </use>
                        <path d="M-4,0h8M0,-4v8" fill="none" stroke="white" stroke-width="1.5" pointer-events="none"/>
                </g>
                <g id="zoomMin">
                        <use xlink:href="#rim" fill="#404040">
                                <set attributeName="fill" to="#808080" begin="zoomminus.mouseover" end="zoomminus.mouseout"/>
                        </use>
                        <path d="M-4,0h8" fill="none" stroke="white" stroke-width="1.5" pointer-events="none"/>
                </g>
                <g id="dirArrow">
                        <path fill="none" stroke="white" stroke-width="1.5" d="M0,-3.0v7 M-2.5,-0.5L0,-3.0L2.5,-0.5"/>
                </g>
               <g id="resetDef">
                       <use xlink:href="#rim2" fill="#404040">
                               <set attributeName="fill" to="#808080" begin="reset.mouseover" end="reset.mouseout"/>
                       </use>
               </g>
        </defs>

<script type="text/javascript">
var viewWidth = 1904;
var viewHeight = 441;
var sectionId = 'dynsection-0';
</script>
<script xlink:href="svgpan.js"/>
<svg id="graph" class="graph">
<g id="viewport">
<title>src/BattleshipRoyale/BattleshipRoyale/sqlite3.h</title>
<polygon fill="white" stroke="none" points="-4,4 -4,-437 1899.5,-437 1899.5,4 -4,4"/>
<!-- Node1 -->
<g id="node1" class="node"><title>Node1</title>
<g id="a_node1"><a xlink:title="Константы для работы с базой данных sqlite3.">
<polygon fill="#bfbfbf" stroke="black" points="842,-402.5 842,-432.5 975,-432.5 975,-402.5 842,-402.5"/>
<text text-anchor="start" x="850" y="-420.5" font-family="Helvetica,sans-Serif" font-size="10.00">src/BattleshipRoyale</text>
<text text-anchor="middle" x="908.5" y="-409.5" font-family="Helvetica,sans-Serif" font-size="10.00">/BattleshipRoyale/sqlite3.h</text>
</a>
</g>
</g>
<!-- Node2 -->
<g id="node2" class="node"><title>Node2</title>
<g id="a_node2"><a xlink:href="_battleship_royale_8h.html" target="_top" xlink:title="Заголовочный файл с пространством имён, которое хранит в себе константы.">
<polygon fill="white" stroke="black" points="855,-335.5 855,-365.5 962,-365.5 962,-335.5 855,-335.5"/>
<text text-anchor="start" x="863" y="-353.5" font-family="Helvetica,sans-Serif" font-size="10.00">src/BattleshipRoyale</text>
<text text-anchor="middle" x="908.5" y="-342.5" font-family="Helvetica,sans-Serif" font-size="10.00">/BattleshipRoyale.h</text>
</a>
</g>
</g>
<!-- Node1&#45;&gt;Node2 -->
<g id="edge1" class="edge"><title>Node1&#45;&gt;Node2</title>
<path fill="none" stroke="midnightblue" d="M908.5,-392.108C908.5,-383.154 908.5,-373.323 908.5,-365.577"/>
<polygon fill="midnightblue" stroke="midnightblue" points="905,-392.396 908.5,-402.396 912,-392.396 905,-392.396"/>
</g>
<!-- Node11 -->
<g id="node11" class="node"><title>Node11</title>
<g id="a_node11"><a xlink:href="_d_b_8h.html" target="_top" xlink:title="Работа с базой данных">
<polygon fill="white" stroke="black" points="344.5,-274 344.5,-293 428.5,-293 428.5,-274 344.5,-274"/>
<text text-anchor="middle" x="386.5" y="-281" font-family="Helvetica,sans-Serif" font-size="10.00">src/delete/DB.h</text>
</a>
</g>
</g>
<!-- Node1&#45;&gt;Node11 -->
<g id="edge41" class="edge"><title>Node1&#45;&gt;Node11</title>
<path fill="none" stroke="midnightblue" d="M842.327,-399.956C751.957,-377.329 584.892,-335.386 442.5,-299 435.008,-297.085 426.956,-295.011 419.36,-293.046"/>
<polygon fill="midnightblue" stroke="midnightblue" points="841.611,-403.384 852.161,-402.417 843.31,-396.594 841.611,-403.384"/>
</g>
<!-- Node13 -->
<g id="node13" class="node"><title>Node13</title>
<g id="a_node13"><a xlink:href="mem_8cpp.html" target="_top" xlink:title=" ">
<polygon fill="white" stroke="black" points="213,-268.5 213,-298.5 326,-298.5 326,-268.5 213,-268.5"/>
<text text-anchor="start" x="221" y="-286.5" font-family="Helvetica,sans-Serif" font-size="10.00">src/opportunity_check</text>
<text text-anchor="middle" x="269.5" y="-275.5" font-family="Helvetica,sans-Serif" font-size="10.00">/memorydb/mem.cpp</text>
</a>
</g>
</g>
<!-- Node1&#45;&gt;Node13 -->
<g id="edge42" class="edge"><title>Node1&#45;&gt;Node13</title>
<path fill="none" stroke="midnightblue" d="M831.871,-406.195C767.662,-397.097 673.728,-382.704 592.5,-366 494.923,-345.934 382.424,-315.973 319.26,-298.518"/>
<polygon fill="midnightblue" stroke="midnightblue" points="831.524,-409.681 841.915,-407.61 832.5,-402.749 831.524,-409.681"/>
</g>
<!-- Node14 -->
<g id="node14" class="node"><title>Node14</title>
<g id="a_node14"><a xlink:href="opportunity__check_2minidb_2_mini_d_b_8h.html" target="_top" xlink:title="Облегчённый класс для работы с бд">
<polygon fill="white" stroke="black" points="82,-268.5 82,-298.5 195,-298.5 195,-268.5 82,-268.5"/>
<text text-anchor="start" x="90" y="-286.5" font-family="Helvetica,sans-Serif" font-size="10.00">src/opportunity_check</text>
<text text-anchor="middle" x="138.5" y="-275.5" font-family="Helvetica,sans-Serif" font-size="10.00">/minidb/MiniDB.h</text>
</a>
</g>
</g>
<!-- Node1&#45;&gt;Node14 -->
<g id="edge43" class="edge"><title>Node1&#45;&gt;Node14</title>
<path fill="none" stroke="midnightblue" d="M831.499,-411.233C740.978,-404.277 586.47,-390.013 455.5,-366 357.827,-348.092 245.789,-316.656 184.51,-298.506"/>
<polygon fill="midnightblue" stroke="midnightblue" points="831.439,-414.738 841.675,-412.004 831.968,-407.758 831.439,-414.738"/>
</g>
<!-- Node18 -->
<g id="node18" class="node"><title>Node18</title>
<g id="a_node18"><a xlink:href="server_2src_2_mini_d_b_8h.html" target="_top" xlink:title="Облегчённый класс для работы с бд">
<polygon fill="white" stroke="black" points="1429.5,-274 1429.5,-293 1547.5,-293 1547.5,-274 1429.5,-274"/>
<text text-anchor="middle" x="1488.5" y="-281" font-family="Helvetica,sans-Serif" font-size="10.00">src/server/src/MiniDB.h</text>
</a>
</g>
</g>
<!-- Node1&#45;&gt;Node18 -->
<g id="edge44" class="edge"><title>Node1&#45;&gt;Node18</title>
<path fill="none" stroke="midnightblue" d="M979.826,-400.267C1104.04,-371.998 1355.88,-314.682 1450.99,-293.036"/>
<polygon fill="midnightblue" stroke="midnightblue" points="978.995,-396.867 970.021,-402.499 980.548,-403.692 978.995,-396.867"/>
</g>
<!-- Node31 -->
<g id="node31" class="node"><title>Node31</title>
<g id="a_node31"><a xlink:href="_mem_d_bmap_8cpp.html" target="_top" xlink:title="Облегчённый класс для работы с бд в памяти">
<polygon fill="white" stroke="black" points="1566,-274 1566,-293 1717,-293 1717,-274 1566,-274"/>
<text text-anchor="middle" x="1641.5" y="-281" font-family="Helvetica,sans-Serif" font-size="10.00">src/server/src/MemDBmap.cpp</text>
</a>
</g>
</g>
<!-- Node1&#45;&gt;Node31 -->
<g id="edge45" class="edge"><title>Node1&#45;&gt;Node31</title>
<path fill="none" stroke="midnightblue" d="M985.31,-404.244C1046.82,-394.308 1135.29,-379.746 1212.5,-366 1353.94,-340.821 1521.05,-308.261 1598.33,-293.044"/>
<polygon fill="midnightblue" stroke="midnightblue" points="984.609,-400.812 975.294,-405.86 985.723,-407.723 984.609,-400.812"/>
</g>
<!-- Node32 -->
<g id="node32" class="node"><title>Node32</title>
<g id="a_node32"><a xlink:href="_mem_d_buid_8cpp.html" target="_top" xlink:title="Облегчённый класс для работы с бд в памяти">
<polygon fill="white" stroke="black" points="1735,-274 1735,-293 1880,-293 1880,-274 1735,-274"/>
<text text-anchor="middle" x="1807.5" y="-281" font-family="Helvetica,sans-Serif" font-size="10.00">src/server/src/MemDBuid.cpp</text>
</a>
</g>
</g>
<!-- Node1&#45;&gt;Node32 -->
<g id="edge46" class="edge"><title>Node1&#45;&gt;Node32</title>
<path fill="none" stroke="midnightblue" d="M985.378,-407.615C1066.18,-398.09 1196.93,-382.148 1309.5,-366 1494.87,-339.408 1540.84,-330.194 1725.5,-299 1736.62,-297.122 1748.57,-295.042 1759.83,-293.058"/>
<polygon fill="midnightblue" stroke="midnightblue" points="984.813,-404.157 975.29,-408.801 985.63,-411.109 984.813,-404.157"/>
</g>
<!-- Node3 -->
<g id="node3" class="node"><title>Node3</title>
<g id="a_node3"><a xlink:href="_args_8cpp.html" target="_top" xlink:title=" ">
<polygon fill="white" stroke="black" points="485,-274 485,-293 600,-293 600,-274 485,-274"/>
<text text-anchor="middle" x="542.5" y="-281" font-family="Helvetica,sans-Serif" font-size="10.00">src/client/src/Args.cpp</text>
</a>
</g>
</g>
<!-- Node2&#45;&gt;Node3 -->
<g id="edge2" class="edge"><title>Node2&#45;&gt;Node3</title>
<path fill="none" stroke="midnightblue" d="M844.752,-339.091C785.137,-329.228 693.669,-313.768 614.5,-299 604.598,-297.153 593.95,-295.065 583.961,-293.061"/>
<polygon fill="midnightblue" stroke="midnightblue" points="844.333,-342.569 854.769,-340.745 845.473,-335.662 844.333,-342.569"/>
</g>
<!-- Node4 -->
<g id="node4" class="node"><title>Node4</title>
<g id="a_node4"><a xlink:href="client_2src_2_battleship_royale_8cpp.html" target="_top" xlink:title="Клиент">
<polygon fill="white" stroke="black" points="1089,-201.5 1089,-231.5 1208,-231.5 1208,-201.5 1089,-201.5"/>
<text text-anchor="start" x="1097" y="-219.5" font-family="Helvetica,sans-Serif" font-size="10.00">src/client/src/Battleship</text>
<text text-anchor="middle" x="1148.5" y="-208.5" font-family="Helvetica,sans-Serif" font-size="10.00">Royale.cpp</text>
</a>
</g>
</g>
<!-- Node2&#45;&gt;Node4 -->
<g id="edge3" class="edge"><title>Node2&#45;&gt;Node4</title>
<path fill="none" stroke="midnightblue" d="M971.988,-334.135C999.391,-325.975 1031.14,-314.396 1057.5,-299 1074.17,-289.267 1113.13,-252.18 1134.26,-231.553"/>
<polygon fill="midnightblue" stroke="midnightblue" points="970.744,-330.851 962.107,-336.987 972.685,-337.576 970.744,-330.851"/>
</g>
<!-- Node5 -->
<g id="node5" class="node"><title>Node5</title>
<g id="a_node5"><a xlink:href="client_2src_2_client_8h.html" target="_top" xlink:title=" ">
<polygon fill="white" stroke="black" points="940,-274 940,-293 1049,-293 1049,-274 940,-274"/>
<text text-anchor="middle" x="994.5" y="-281" font-family="Helvetica,sans-Serif" font-size="10.00">src/client/src/Client.h</text>
</a>
</g>
</g>
<!-- Node2&#45;&gt;Node5 -->
<g id="edge4" class="edge"><title>Node2&#45;&gt;Node5</title>
<path fill="none" stroke="midnightblue" d="M935.17,-329.343C951.219,-317.213 970.832,-302.389 982.996,-293.195"/>
<polygon fill="midnightblue" stroke="midnightblue" points="933.028,-326.574 927.161,-335.396 937.249,-332.158 933.028,-326.574"/>
</g>
<!-- Node9 -->
<g id="node9" class="node"><title>Node9</title>
<g id="a_node9"><a xlink:href="_t_u_i_8h.html" target="_top" xlink:title=" ">
<polygon fill="white" stroke="black" points="1105.5,-274 1105.5,-293 1203.5,-293 1203.5,-274 1105.5,-274"/>
<text text-anchor="middle" x="1154.5" y="-281" font-family="Helvetica,sans-Serif" font-size="10.00">src/client/src/TUI.h</text>
</a>
</g>
</g>
<!-- Node2&#45;&gt;Node9 -->
<g id="edge9" class="edge"><title>Node2&#45;&gt;Node9</title>
<path fill="none" stroke="midnightblue" d="M971.286,-332.91C1019.46,-320.18 1084,-303.127 1122.22,-293.029"/>
<polygon fill="midnightblue" stroke="midnightblue" points="970.35,-329.537 961.575,-335.476 972.138,-336.305 970.35,-329.537"/>
</g>
<!-- Node2&#45;&gt;Node11 -->
<g id="edge12" class="edge"><title>Node2&#45;&gt;Node11</title>
<path fill="none" stroke="midnightblue" d="M844.603,-345.53C754.422,-339.257 584.908,-325.01 442.5,-299 433.905,-297.43 424.684,-295.253 416.256,-293.062"/>
<polygon fill="midnightblue" stroke="midnightblue" points="844.454,-349.027 854.67,-346.219 844.933,-342.044 844.454,-349.027"/>
</g>
<!-- Node12 -->
<g id="node12" class="node"><title>Node12</title>
<g id="a_node12"><a xlink:href="_d_b_8cpp.html" target="_top" xlink:title="Работа с базой данных">
<polygon fill="white" stroke="black" points="310,-207 310,-226 405,-226 405,-207 310,-207"/>
<text text-anchor="middle" x="357.5" y="-214" font-family="Helvetica,sans-Serif" font-size="10.00">src/delete/DB.cpp</text>
</a>
</g>
</g>
<!-- Node2&#45;&gt;Node12 -->
<g id="edge14" class="edge"><title>Node2&#45;&gt;Node12</title>
<path fill="none" stroke="midnightblue" d="M844.926,-346.46C741.202,-340.774 540.596,-326.537 475.5,-299 455.426,-290.508 455.192,-280.73 437.5,-268 415.502,-252.172 388.627,-235.769 372.3,-226.107"/>
<polygon fill="midnightblue" stroke="midnightblue" points="844.784,-349.957 854.957,-347 845.16,-342.968 844.784,-349.957"/>
</g>
<!-- Node2&#45;&gt;Node13 -->
<g id="edge15" class="edge"><title>Node2&#45;&gt;Node13</title>
<path fill="none" stroke="midnightblue" d="M844.679,-346.554C738.52,-341.056 519.158,-327.149 335.5,-299 332.485,-298.538 329.402,-298.02 326.295,-297.463"/>
<polygon fill="midnightblue" stroke="midnightblue" points="844.737,-350.062 854.903,-347.076 845.094,-343.071 844.737,-350.062"/>
</g>
<!-- Node2&#45;&gt;Node14 -->
<g id="edge16" class="edge"><title>Node2&#45;&gt;Node14</title>
<path fill="none" stroke="midnightblue" d="M844.609,-348.086C720.458,-344.64 438.21,-333.392 203.5,-299 200.754,-298.598 197.952,-298.143 195.128,-297.65"/>
<polygon fill="midnightblue" stroke="midnightblue" points="844.609,-351.587 854.7,-348.358 844.798,-344.589 844.609,-351.587"/>
</g>
<!-- Node17 -->
<g id="node17" class="node"><title>Node17</title>
<g id="a_node17"><a xlink:href="server_2src_2_battleship_royale_8cpp.html" target="_top" xlink:title="Сервер">
<polygon fill="white" stroke="black" points="875.5,-0.5 875.5,-30.5 997.5,-30.5 997.5,-0.5 875.5,-0.5"/>
<text text-anchor="start" x="883.5" y="-18.5" font-family="Helvetica,sans-Serif" font-size="10.00">src/server/src/Battleship</text>
<text text-anchor="middle" x="936.5" y="-7.5" font-family="Helvetica,sans-Serif" font-size="10.00">Royale.cpp</text>
</a>
</g>
</g>
<!-- Node2&#45;&gt;Node17 -->
<g id="edge19" class="edge"><title>Node2&#45;&gt;Node17</title>
<path fill="none" stroke="midnightblue" d="M844.764,-345.69C790.255,-340.475 710.814,-328.142 647.5,-299 627.386,-289.742 628.212,-278.085 608.5,-268 555.889,-241.084 516.185,-279.106 480.5,-232 472.18,-221.018 476.985,-214.322 480.5,-201 501.668,-120.769 533.804,-98.6668 610.5,-67 697.847,-30.9358 808.025,-20.3819 875.318,-17.4357"/>
<polygon fill="midnightblue" stroke="midnightblue" points="844.707,-349.199 854.981,-346.612 845.336,-342.227 844.707,-349.199"/>
</g>
<!-- Node2&#45;&gt;Node18 -->
<g id="edge20" class="edge"><title>Node2&#45;&gt;Node18</title>
<path fill="none" stroke="midnightblue" d="M972.491,-343.906C1089.04,-333.588 1331.63,-311.476 1415.5,-299 1426.49,-297.365 1438.34,-295.192 1449.22,-293.027"/>
<polygon fill="midnightblue" stroke="midnightblue" points="971.943,-340.441 962.29,-344.808 972.56,-347.414 971.943,-340.441"/>
</g>
<!-- Node26 -->
<g id="node26" class="node"><title>Node26</title>
<g id="a_node26"><a xlink:href="server_2src_2con__handler_8cpp.html" target="_top" xlink:title="handler">
<polygon fill="white" stroke="black" points="1450.5,-67.5 1450.5,-97.5 1544.5,-97.5 1544.5,-67.5 1450.5,-67.5"/>
<text text-anchor="start" x="1458.5" y="-85.5" font-family="Helvetica,sans-Serif" font-size="10.00">src/server/src/con</text>
<text text-anchor="middle" x="1497.5" y="-74.5" font-family="Helvetica,sans-Serif" font-size="10.00">_handler.cpp</text>
</a>
</g>
</g>
<!-- Node2&#45;&gt;Node26 -->
<g id="edge36" class="edge"><title>Node2&#45;&gt;Node26</title>
<path fill="none" stroke="midnightblue" d="M972.006,-348.246C1063.89,-343.231 1234.79,-321.501 1343.5,-232 1386.26,-196.793 1379.69,-171.458 1420.5,-134 1436.05,-119.73 1456.03,-106.749 1471.75,-97.5225"/>
<polygon fill="midnightblue" stroke="midnightblue" points="971.827,-344.75 962.013,-348.742 972.174,-351.741 971.827,-344.75"/>
</g>
<!-- Node27 -->
<g id="node27" class="node"><title>Node27</title>
<g id="a_node27"><a xlink:href="server_2src_2_processing_8cpp.html" target="_top" xlink:title="Обработка запросов">
<polygon fill="white" stroke="black" points="1429.5,-140 1429.5,-159 1575.5,-159 1575.5,-140 1429.5,-140"/>
<text text-anchor="middle" x="1502.5" y="-147" font-family="Helvetica,sans-Serif" font-size="10.00">src/server/src/Processing.cpp</text>
</a>
</g>
</g>
<!-- Node2&#45;&gt;Node27 -->
<g id="edge39" class="edge"><title>Node2&#45;&gt;Node27</title>
<path fill="none" stroke="midnightblue" d="M972.277,-345.31C1092.24,-337.04 1342.59,-317.783 1377.5,-299 1427.26,-272.223 1421.94,-244.084 1458.5,-201 1471.14,-186.105 1486.14,-169.011 1494.96,-159.019"/>
<polygon fill="midnightblue" stroke="midnightblue" points="971.866,-341.83 962.128,-346.005 972.344,-348.814 971.866,-341.83"/>
</g>
<!-- Node29 -->
<g id="node29" class="node"><title>Node29</title>
<g id="a_node29"><a xlink:href="server_2src_2_console_8h.html" target="_top" xlink:title="Обработка команд в консоли сервера">
<polygon fill="white" stroke="black" points="656.5,-274 656.5,-293 778.5,-293 778.5,-274 656.5,-274"/>
<text text-anchor="middle" x="717.5" y="-281" font-family="Helvetica,sans-Serif" font-size="10.00">src/server/src/Console.h</text>
</a>
</g>
</g>
<!-- Node2&#45;&gt;Node29 -->
<g id="edge33" class="edge"><title>Node2&#45;&gt;Node29</title>
<path fill="none" stroke="midnightblue" d="M857.393,-332.108C820.235,-319.462 771.545,-302.892 742.497,-293.007"/>
<polygon fill="midnightblue" stroke="midnightblue" points="856.461,-335.488 867.056,-335.396 858.717,-328.861 856.461,-335.488"/>
</g>
<!-- Node2&#45;&gt;Node31 -->
<g id="edge37" class="edge"><title>Node2&#45;&gt;Node31</title>
<path fill="none" stroke="midnightblue" d="M972.158,-346.469C1088.51,-340.5 1343.17,-325.452 1556.5,-299 1569.43,-297.397 1583.38,-295.209 1596.18,-293.019"/>
<polygon fill="midnightblue" stroke="midnightblue" points="971.815,-342.982 962.006,-346.985 972.171,-349.973 971.815,-342.982"/>
</g>
<!-- Node2&#45;&gt;Node32 -->
<g id="edge38" class="edge"><title>Node2&#45;&gt;Node32</title>
<path fill="none" stroke="midnightblue" d="M972.604,-348.007C1110.68,-344.248 1446.31,-332.205 1725.5,-299 1738.28,-297.48 1752.08,-295.265 1764.65,-293.021"/>
<polygon fill="midnightblue" stroke="midnightblue" points="972.122,-344.518 962.219,-348.284 972.309,-351.516 972.122,-344.518"/>
</g>
<!-- Node33 -->
<g id="node33" class="node"><title>Node33</title>
<g id="a_node33"><a xlink:href="server_2src_2_regex_8cpp.html" target="_top" xlink:title="Работа с регулярными выражениями">
<polygon fill="white" stroke="black" points="797,-274 797,-293 922,-293 922,-274 797,-274"/>
<text text-anchor="middle" x="859.5" y="-281" font-family="Helvetica,sans-Serif" font-size="10.00">src/server/src/Regex.cpp</text>
</a>
</g>
</g>
<!-- Node2&#45;&gt;Node33 -->
<g id="edge40" class="edge"><title>Node2&#45;&gt;Node33</title>
<path fill="none" stroke="midnightblue" d="M891.777,-327.316C882.943,-315.598 872.604,-301.883 866.054,-293.195"/>
<polygon fill="midnightblue" stroke="midnightblue" points="889.053,-329.518 897.868,-335.396 894.643,-325.304 889.053,-329.518"/>
</g>
<!-- Node5&#45;&gt;Node4 -->
<g id="edge5" class="edge"><title>Node5&#45;&gt;Node4</title>
<path fill="none" stroke="midnightblue" d="M1024.32,-269.913C1050.4,-258.906 1088.22,-242.942 1115.26,-231.528"/>
<polygon fill="midnightblue" stroke="midnightblue" points="1022.8,-266.755 1014.95,-273.869 1025.52,-273.204 1022.8,-266.755"/>
</g>
<!-- Node6 -->
<g id="node6" class="node"><title>Node6</title>
<g id="a_node6"><a xlink:href="client_2src_2_client_8cpp.html" target="_top" xlink:title=" ">
<polygon fill="white" stroke="black" points="650,-207 650,-226 769,-226 769,-207 650,-207"/>
<text text-anchor="middle" x="709.5" y="-214" font-family="Helvetica,sans-Serif" font-size="10.00">src/client/src/Client.cpp</text>
</a>
</g>
</g>
<!-- Node5&#45;&gt;Node6 -->
<g id="edge6" class="edge"><title>Node5&#45;&gt;Node6</title>
<path fill="none" stroke="midnightblue" d="M946.901,-271.644C890.747,-258.837 798.548,-237.809 747.135,-226.083"/>
<polygon fill="midnightblue" stroke="midnightblue" points="946.42,-275.124 956.948,-273.936 947.977,-268.299 946.42,-275.124"/>
</g>
<!-- Node7 -->
<g id="node7" class="node"><title>Node7</title>
<g id="a_node7"><a xlink:href="_loop_connections_8cpp.html" target="_top" xlink:title=" ">
<polygon fill="white" stroke="black" points="787,-201.5 787,-231.5 900,-231.5 900,-201.5 787,-201.5"/>
<text text-anchor="start" x="795" y="-219.5" font-family="Helvetica,sans-Serif" font-size="10.00">src/client/src/test</text>
<text text-anchor="middle" x="843.5" y="-208.5" font-family="Helvetica,sans-Serif" font-size="10.00">/LoopConnections.cpp</text>
</a>
</g>
</g>
<!-- Node5&#45;&gt;Node7 -->
<g id="edge7" class="edge"><title>Node5&#45;&gt;Node7</title>
<path fill="none" stroke="midnightblue" d="M965.259,-269.913C939.69,-258.906 902.603,-242.942 876.088,-231.528"/>
<polygon fill="midnightblue" stroke="midnightblue" points="963.879,-273.129 974.448,-273.869 966.647,-266.7 963.879,-273.129"/>
</g>
<!-- Node8 -->
<g id="node8" class="node"><title>Node8</title>
<g id="a_node8"><a xlink:href="_simultaneous_connections_8cpp.html" target="_top" xlink:title=" ">
<polygon fill="white" stroke="black" points="918.5,-201.5 918.5,-231.5 1070.5,-231.5 1070.5,-201.5 918.5,-201.5"/>
<text text-anchor="start" x="926.5" y="-219.5" font-family="Helvetica,sans-Serif" font-size="10.00">src/client/src/test</text>
<text text-anchor="middle" x="994.5" y="-208.5" font-family="Helvetica,sans-Serif" font-size="10.00">/SimultaneousConnections.cpp</text>
</a>
</g>
</g>
<!-- Node5&#45;&gt;Node8 -->
<g id="edge8" class="edge"><title>Node5&#45;&gt;Node8</title>
<path fill="none" stroke="midnightblue" d="M994.5,-263.411C994.5,-253.222 994.5,-240.901 994.5,-231.589"/>
<polygon fill="midnightblue" stroke="midnightblue" points="991,-263.734 994.5,-273.734 998,-263.734 991,-263.734"/>
</g>
<!-- Node9&#45;&gt;Node4 -->
<g id="edge10" class="edge"><title>Node9&#45;&gt;Node4</title>
<path fill="none" stroke="midnightblue" d="M1152.77,-263.739C1151.82,-253.487 1150.67,-241.001 1149.8,-231.589"/>
<polygon fill="midnightblue" stroke="midnightblue" points="1149.29,-264.098 1153.69,-273.734 1156.26,-263.454 1149.29,-264.098"/>
</g>
<!-- Node10 -->
<g id="node10" class="node"><title>Node10</title>
<g id="a_node10"><a xlink:href="_t_u_i_8cpp.html" target="_top" xlink:title=" ">
<polygon fill="white" stroke="black" points="1226,-207 1226,-226 1335,-226 1335,-207 1226,-207"/>
<text text-anchor="middle" x="1280.5" y="-214" font-family="Helvetica,sans-Serif" font-size="10.00">src/client/src/TUI.cpp</text>
</a>
</g>
</g>
<!-- Node9&#45;&gt;Node10 -->
<g id="edge11" class="edge"><title>Node9&#45;&gt;Node10</title>
<path fill="none" stroke="midnightblue" d="M1180.14,-269.274C1205.09,-256.4 1242.3,-237.209 1263.7,-226.167"/>
<polygon fill="midnightblue" stroke="midnightblue" points="1178.51,-266.173 1171.23,-273.869 1181.72,-272.394 1178.51,-266.173"/>
</g>
<!-- Node11&#45;&gt;Node12 -->
<g id="edge13" class="edge"><title>Node11&#45;&gt;Node12</title>
<path fill="none" stroke="midnightblue" d="M378.376,-264.29C372.806,-251.808 365.671,-235.814 361.349,-226.127"/>
<polygon fill="midnightblue" stroke="midnightblue" points="375.318,-266.028 382.589,-273.734 381.711,-263.175 375.318,-266.028"/>
</g>
<!-- Node15 -->
<g id="node15" class="node"><title>Node15</title>
<g id="a_node15"><a xlink:href="opportunity__check_2minidb_2_mini_d_b_8cpp.html" target="_top" xlink:title="Облегчённый класс для работы с бд">
<polygon fill="white" stroke="black" points="131,-201.5 131,-231.5 244,-231.5 244,-201.5 131,-201.5"/>
<text text-anchor="start" x="139" y="-219.5" font-family="Helvetica,sans-Serif" font-size="10.00">src/opportunity_check</text>
<text text-anchor="middle" x="187.5" y="-208.5" font-family="Helvetica,sans-Serif" font-size="10.00">/minidb/MiniDB.cpp</text>
</a>
</g>
</g>
<!-- Node14&#45;&gt;Node15 -->
<g id="edge17" class="edge"><title>Node14&#45;&gt;Node15</title>
<path fill="none" stroke="midnightblue" d="M155.343,-260.157C162.488,-250.679 170.6,-239.919 176.888,-231.577"/>
<polygon fill="midnightblue" stroke="midnightblue" points="152.357,-258.304 149.132,-268.396 157.947,-262.518 152.357,-258.304"/>
</g>
<!-- Node16 -->
<g id="node16" class="node"><title>Node16</title>
<g id="a_node16"><a xlink:href="test_8cpp.html" target="_top" xlink:title=" ">
<polygon fill="white" stroke="black" points="0,-201.5 0,-231.5 113,-231.5 113,-201.5 0,-201.5"/>
<text text-anchor="start" x="8" y="-219.5" font-family="Helvetica,sans-Serif" font-size="10.00">src/opportunity_check</text>
<text text-anchor="middle" x="56.5" y="-208.5" font-family="Helvetica,sans-Serif" font-size="10.00">/minidb/test.cpp</text>
</a>
</g>
</g>
<!-- Node14&#45;&gt;Node16 -->
<g id="edge18" class="edge"><title>Node14&#45;&gt;Node16</title>
<path fill="none" stroke="midnightblue" d="M112.85,-262.168C100.311,-252.228 85.5336,-240.514 74.2581,-231.577"/>
<polygon fill="midnightblue" stroke="midnightblue" points="110.696,-264.927 120.707,-268.396 115.045,-259.441 110.696,-264.927"/>
</g>
<!-- Node18&#45;&gt;Node17 -->
<g id="edge22" class="edge"><title>Node18&#45;&gt;Node17</title>
<path fill="none" stroke="midnightblue" d="M1465.58,-268.804C1437.28,-252.081 1387.48,-223.274 1343.5,-201 1207.5,-132.117 1040.49,-60.2774 970.199,-30.604"/>
<polygon fill="midnightblue" stroke="midnightblue" points="1463.93,-271.894 1474.32,-273.985 1467.5,-265.874 1463.93,-271.894"/>
</g>
<!-- Node19 -->
<g id="node19" class="node"><title>Node19</title>
<g id="a_node19"><a xlink:href="examples_2_mini_d_b_8cpp.html" target="_top" xlink:title=" ">
<polygon fill="white" stroke="black" points="1621.5,-207 1621.5,-226 1749.5,-226 1749.5,-207 1621.5,-207"/>
<text text-anchor="middle" x="1685.5" y="-214" font-family="Helvetica,sans-Serif" font-size="10.00">src/examples/MiniDB.cpp</text>
</a>
</g>
</g>
<!-- Node18&#45;&gt;Node19 -->
<g id="edge21" class="edge"><title>Node18&#45;&gt;Node19</title>
<path fill="none" stroke="midnightblue" d="M1524.56,-270.601C1563.62,-257.714 1624.97,-237.473 1659.55,-226.064"/>
<polygon fill="midnightblue" stroke="midnightblue" points="1523.06,-267.411 1514.66,-273.869 1525.25,-274.059 1523.06,-267.411"/>
</g>
<!-- Node20 -->
<g id="node20" class="node"><title>Node20</title>
<g id="a_node20"><a xlink:href="_processing_8h.html" target="_top" xlink:title="Обработка запросов">
<polygon fill="white" stroke="black" points="1468,-207 1468,-226 1603,-226 1603,-207 1468,-207"/>
<text text-anchor="middle" x="1535.5" y="-214" font-family="Helvetica,sans-Serif" font-size="10.00">src/server/src/Processing.h</text>
</a>
</g>
</g>
<!-- Node18&#45;&gt;Node20 -->
<g id="edge23" class="edge"><title>Node18&#45;&gt;Node20</title>
<path fill="none" stroke="midnightblue" d="M1500.86,-265.404C1509.99,-252.773 1522.05,-236.104 1529.26,-226.127"/>
<polygon fill="midnightblue" stroke="midnightblue" points="1497.86,-263.579 1494.84,-273.734 1503.53,-267.681 1497.86,-263.579"/>
</g>
<!-- Node28 -->
<g id="node28" class="node"><title>Node28</title>
<g id="a_node28"><a xlink:href="server_2src_2_mini_d_b_8cpp.html" target="_top" xlink:title="Облегчённый класс для работы с бд">
<polygon fill="white" stroke="black" points="1767.5,-207 1767.5,-226 1895.5,-226 1895.5,-207 1767.5,-207"/>
<text text-anchor="middle" x="1831.5" y="-214" font-family="Helvetica,sans-Serif" font-size="10.00">src/server/src/MiniDB.cpp</text>
</a>
</g>
</g>
<!-- Node18&#45;&gt;Node28 -->
<g id="edge32" class="edge"><title>Node18&#45;&gt;Node28</title>
<path fill="none" stroke="midnightblue" d="M1537.3,-271.886C1543.75,-270.545 1550.28,-269.217 1556.5,-268 1646,-250.489 1668.88,-248.884 1758.5,-232 1768.4,-230.134 1779.05,-228.059 1789.07,-226.076"/>
<polygon fill="midnightblue" stroke="midnightblue" points="1536.36,-268.509 1527.29,-273.992 1537.8,-275.359 1536.36,-268.509"/>
</g>
<!-- Node21 -->
<g id="node21" class="node"><title>Node21</title>
<g id="a_node21"><a xlink:href="examples_2_processing_8cpp.html" target="_top" xlink:title=" ">
<polygon fill="white" stroke="black" points="1705.5,-140 1705.5,-159 1851.5,-159 1851.5,-140 1705.5,-140"/>
<text text-anchor="middle" x="1778.5" y="-147" font-family="Helvetica,sans-Serif" font-size="10.00">src/examples/Processing.cpp</text>
</a>
</g>
</g>
<!-- Node20&#45;&gt;Node21 -->
<g id="edge24" class="edge"><title>Node20&#45;&gt;Node21</title>
<path fill="none" stroke="midnightblue" d="M1577.28,-204.323C1625.27,-191.489 1702.94,-170.712 1746.41,-159.083"/>
<polygon fill="midnightblue" stroke="midnightblue" points="1576.27,-200.97 1567.52,-206.936 1578.08,-207.733 1576.27,-200.97"/>
</g>
<!-- Node22 -->
<g id="node22" class="node"><title>Node22</title>
<g id="a_node22"><a xlink:href="server_2src_2con__handler_8h.html" target="_top" xlink:title="handler">
<polygon fill="white" stroke="black" points="1593.5,-134.5 1593.5,-164.5 1687.5,-164.5 1687.5,-134.5 1593.5,-134.5"/>
<text text-anchor="start" x="1601.5" y="-152.5" font-family="Helvetica,sans-Serif" font-size="10.00">src/server/src/con</text>
<text text-anchor="middle" x="1640.5" y="-141.5" font-family="Helvetica,sans-Serif" font-size="10.00">_handler.h</text>
</a>
</g>
</g>
<!-- Node20&#45;&gt;Node22 -->
<g id="edge25" class="edge"><title>Node20&#45;&gt;Node22</title>
<path fill="none" stroke="midnightblue" d="M1558.19,-201.454C1575.8,-190.551 1600.11,-175.503 1617.74,-164.589"/>
<polygon fill="midnightblue" stroke="midnightblue" points="1556.32,-198.494 1549.66,-206.734 1560.01,-204.446 1556.32,-198.494"/>
</g>
<!-- Node20&#45;&gt;Node27 -->
<g id="edge31" class="edge"><title>Node20&#45;&gt;Node27</title>
<path fill="none" stroke="midnightblue" d="M1526.44,-197.663C1520.08,-185.128 1511.85,-168.91 1506.88,-159.127"/>
<polygon fill="midnightblue" stroke="midnightblue" points="1523.4,-199.402 1531.05,-206.734 1529.64,-196.233 1523.4,-199.402"/>
</g>
<!-- Node23 -->
<g id="node23" class="node"><title>Node23</title>
<g id="a_node23"><a xlink:href="server_2src_2_server_8h.html" target="_top" xlink:title="Асинхронный сервер написанный на boost asio.">
<polygon fill="white" stroke="black" points="1573,-73 1573,-92 1686,-92 1686,-73 1573,-73"/>
<text text-anchor="middle" x="1629.5" y="-80" font-family="Helvetica,sans-Serif" font-size="10.00">src/server/src/Server.h</text>
</a>
</g>
</g>
<!-- Node22&#45;&gt;Node23 -->
<g id="edge26" class="edge"><title>Node22&#45;&gt;Node23</title>
<path fill="none" stroke="midnightblue" d="M1636.4,-124.25C1634.5,-113.017 1632.36,-100.377 1630.97,-92.1945"/>
<polygon fill="midnightblue" stroke="midnightblue" points="1632.99,-125.12 1638.11,-134.396 1639.9,-123.952 1632.99,-125.12"/>
</g>
<!-- Node22&#45;&gt;Node26 -->
<g id="edge30" class="edge"><title>Node22&#45;&gt;Node26</title>
<path fill="none" stroke="midnightblue" d="M1600.09,-130.131C1577.37,-119.802 1549.44,-107.11 1528.47,-97.5765"/>
<polygon fill="midnightblue" stroke="midnightblue" points="1598.92,-133.444 1609.47,-134.396 1601.82,-127.072 1598.92,-133.444"/>
</g>
<!-- Node23&#45;&gt;Node17 -->
<g id="edge28" class="edge"><title>Node23&#45;&gt;Node17</title>
<path fill="none" stroke="midnightblue" d="M1579.15,-71.1111C1570.61,-69.575 1561.82,-68.1313 1553.5,-67 1350.89,-39.4606 1108.66,-24.963 997.599,-19.3326"/>
<polygon fill="midnightblue" stroke="midnightblue" points="1578.53,-74.5568 1589.01,-72.9435 1579.81,-67.6748 1578.53,-74.5568"/>
</g>
<!-- Node24 -->
<g id="node24" class="node"><title>Node24</title>
<g id="a_node24"><a xlink:href="examples_2_server_8cpp.html" target="_top" xlink:title=" ">
<polygon fill="white" stroke="black" points="1638.5,-6 1638.5,-25 1762.5,-25 1762.5,-6 1638.5,-6"/>
<text text-anchor="middle" x="1700.5" y="-13" font-family="Helvetica,sans-Serif" font-size="10.00">src/examples/Server.cpp</text>
</a>
</g>
</g>
<!-- Node23&#45;&gt;Node24 -->
<g id="edge27" class="edge"><title>Node23&#45;&gt;Node24</title>
<path fill="none" stroke="midnightblue" d="M1646.59,-65.8564C1660.55,-53.0777 1679.76,-35.4915 1691.08,-25.1273"/>
<polygon fill="midnightblue" stroke="midnightblue" points="1644.09,-63.3997 1639.08,-72.7338 1648.81,-68.5628 1644.09,-63.3997"/>
</g>
<!-- Node25 -->
<g id="node25" class="node"><title>Node25</title>
<g id="a_node25"><a xlink:href="server_2src_2_server_8cpp.html" target="_top" xlink:title="Асинхронный сервер написанный на boost asio.">
<polygon fill="white" stroke="black" points="1496.5,-6 1496.5,-25 1620.5,-25 1620.5,-6 1496.5,-6"/>
<text text-anchor="middle" x="1558.5" y="-13" font-family="Helvetica,sans-Serif" font-size="10.00">src/server/src/Server.cpp</text>
</a>
</g>
</g>
<!-- Node23&#45;&gt;Node25 -->
<g id="edge29" class="edge"><title>Node23&#45;&gt;Node25</title>
<path fill="none" stroke="midnightblue" d="M1612.41,-65.8564C1598.45,-53.0777 1579.24,-35.4915 1567.92,-25.1273"/>
<polygon fill="midnightblue" stroke="midnightblue" points="1610.19,-68.5628 1619.92,-72.7338 1614.91,-63.3997 1610.19,-68.5628"/>
</g>
<!-- Node29&#45;&gt;Node17 -->
<g id="edge34" class="edge"><title>Node29&#45;&gt;Node17</title>
<path fill="none" stroke="midnightblue" d="M666.163,-271.906C600.064,-258.148 493.285,-235.473 490.5,-232 481.88,-221.252 482.843,-212.454 490.5,-201 577.469,-70.9066 774.894,-32.4341 875.341,-21.1394"/>
<polygon fill="midnightblue" stroke="midnightblue" points="665.498,-275.343 676.001,-273.95 666.923,-268.489 665.498,-275.343"/>
</g>
<!-- Node30 -->
<g id="node30" class="node"><title>Node30</title>
<g id="a_node30"><a xlink:href="server_2src_2_console_8cpp.html" target="_top" xlink:title="Обработка команд в консоли сервера">
<polygon fill="white" stroke="black" points="499.5,-207 499.5,-226 631.5,-226 631.5,-207 499.5,-207"/>
<text text-anchor="middle" x="565.5" y="-214" font-family="Helvetica,sans-Serif" font-size="10.00">src/server/src/Console.cpp</text>
</a>
</g>
</g>
<!-- Node29&#45;&gt;Node30 -->
<g id="edge35" class="edge"><title>Node29&#45;&gt;Node30</title>
<path fill="none" stroke="midnightblue" d="M687.757,-269.781C657.655,-256.909 611.929,-237.355 585.768,-226.167"/>
<polygon fill="midnightblue" stroke="midnightblue" points="686.745,-273.155 697.316,-273.869 689.497,-266.718 686.745,-273.155"/>
</g>
</g>
</svg>
        <g id="navigator" transform="translate(0 0)" fill="#404254">
                <rect fill="#f2f5e9" fill-opacity="0.5" stroke="#606060" stroke-width=".5" x="0" y="0" width="60" height="60"/>
                <use id="zoomplus" xlink:href="#zoomPlus" x="17" y="9" onmousedown="handleZoom(evt,'in')"/>
                <use id="zoomminus" xlink:href="#zoomMin" x="42" y="9" onmousedown="handleZoom(evt,'out')"/>
                <use id="reset" xlink:href="#resetDef" x="30" y="36" onmousedown="handleReset()"/>
                <g id="arrowUp" xlink:href="#dirArrow" transform="translate(30 24)" onmousedown="handlePan(0,-1)">
                  <use xlink:href="#rim" fill="#404040">
                        <set attributeName="fill" to="#808080" begin="arrowUp.mouseover" end="arrowUp.mouseout"/>
                  </use>
                  <path fill="none" stroke="white" stroke-width="1.5" d="M0,-3.0v7 M-2.5,-0.5L0,-3.0L2.5,-0.5"/>
                </g>
                <g id="arrowRight" xlink:href="#dirArrow" transform="rotate(90) translate(36 -43)" onmousedown="handlePan(1,0)">
                  <use xlink:href="#rim" fill="#404040">
                        <set attributeName="fill" to="#808080" begin="arrowRight.mouseover" end="arrowRight.mouseout"/>
                  </use>
                  <path fill="none" stroke="white" stroke-width="1.5" d="M0,-3.0v7 M-2.5,-0.5L0,-3.0L2.5,-0.5"/>
                </g>
                <g id="arrowDown" xlink:href="#dirArrow" transform="rotate(180) translate(-30 -48)" onmousedown="handlePan(0,1)">
                  <use xlink:href="#rim" fill="#404040">
                        <set attributeName="fill" to="#808080" begin="arrowDown.mouseover" end="arrowDown.mouseout"/>
                  </use>
                  <path fill="none" stroke="white" stroke-width="1.5" d="M0,-3.0v7 M-2.5,-0.5L0,-3.0L2.5,-0.5"/>
                </g>
                <g id="arrowLeft" xlink:href="#dirArrow" transform="rotate(270) translate(-36 17)" onmousedown="handlePan(-1,0)">
                  <use xlink:href="#rim" fill="#404040">
                        <set attributeName="fill" to="#808080" begin="arrowLeft.mouseover" end="arrowLeft.mouseout"/>
                  </use>
                  <path fill="none" stroke="white" stroke-width="1.5" d="M0,-3.0v7 M-2.5,-0.5L0,-3.0L2.5,-0.5"/>
                </g>
        </g>
        <svg viewBox="0 0 15 15" width="100%" height="30px" preserveAspectRatio="xMaxYMin meet">
         <g id="arrow_out" transform="scale(0.3 0.3)">
          <a xlink:href="sqlite3_8h__dep__incl_org.svg" target="_base">
           <rect id="button" ry="5" rx="5" y="6" x="6" height="38" width="38"
                fill="#f2f5e9" fill-opacity="0.5" stroke="#606060" stroke-width="1.0"/>
           <path id="arrow"
             d="M 11.500037,31.436501 C 11.940474,20.09759 22.043105,11.32322 32.158766,21.979434 L 37.068811,17.246167 C 37.068811,17.246167 37.088388,32 37.088388,32 L 22.160133,31.978069 C 22.160133,31.978069 26.997745,27.140456 26.997745,27.140456 C 18.528582,18.264221 13.291696,25.230495 11.500037,31.436501 z"
             style="fill:#404040;"/>
          </a>
         </g>
        </svg>
</svg>
