<?xml version="1.0" encoding="UTF-8" standalone="no"?>
<!DOCTYPE svg PUBLIC "-//W3C//DTD SVG 1.1//EN"
 "http://www.w3.org/Graphics/SVG/1.1/DTD/svg11.dtd">
<!-- Generated by graphviz version 2.38.0 (20140413.2041)
 -->
<!-- Title: rand_sse.h Pages: 1 -->
<svg width="277pt" height="84pt"
 viewBox="0.00 0.00 277.00 84.00" xmlns="http://www.w3.org/2000/svg" xmlns:xlink="http://www.w3.org/1999/xlink">
<g id="graph0" class="graph" transform="scale(1 1) rotate(0) translate(4 80)">
<title>rand_sse.h</title>
<polygon fill="white" stroke="none" points="-4,4 -4,-80 273,-80 273,4 -4,4"/>
<!-- Node1 -->
<g id="node1" class="node"><title>Node1</title>
<g id="a_node1"><a xlink:title="Генерация рандомных чисел через SSE.">
<polygon fill="#bfbfbf" stroke="black" points="119,-56.5 119,-75.5 184,-75.5 184,-56.5 119,-56.5"/>
<text text-anchor="middle" x="151.5" y="-63.5" font-family="Helvetica,sans-Serif" font-size="10.00">rand_sse.h</text>
</a>
</g>
</g>
<!-- Node2 -->
<g id="node2" class="node"><title>Node2</title>
<g id="a_node2"><a xlink:href="$server_2src_2_battleship_royale_8cpp.html" xlink:title="Сервер">
<polygon fill="white" stroke="black" points="0,-0.5 0,-19.5 109,-19.5 109,-0.5 0,-0.5"/>
<text text-anchor="middle" x="54.5" y="-7.5" font-family="Helvetica,sans-Serif" font-size="10.00">BattleshipRoyale.cpp</text>
</a>
</g>
</g>
<!-- Node1&#45;&gt;Node2 -->
<g id="edge1" class="edge"><title>Node1&#45;&gt;Node2</title>
<path fill="none" stroke="midnightblue" d="M127.165,-51.4526C109.257,-41.4835 85.4463,-28.2279 70.0461,-19.6545"/>
<polygon fill="midnightblue" stroke="midnightblue" points="125.475,-54.5179 135.915,-56.324 128.88,-48.4018 125.475,-54.5179"/>
</g>
<!-- Node3 -->
<g id="node3" class="node"><title>Node3</title>
<g id="a_node3"><a xlink:href="$_d_b_8cpp.html" xlink:title=" ">
<polygon fill="white" stroke="black" points="127,-0.5 127,-19.5 176,-19.5 176,-0.5 127,-0.5"/>
<text text-anchor="middle" x="151.5" y="-7.5" font-family="Helvetica,sans-Serif" font-size="10.00">DB.cpp</text>
</a>
</g>
</g>
<!-- Node1&#45;&gt;Node3 -->
<g id="edge2" class="edge"><title>Node1&#45;&gt;Node3</title>
<path fill="none" stroke="midnightblue" d="M151.5,-45.8045C151.5,-36.9102 151.5,-26.7798 151.5,-19.7511"/>
<polygon fill="midnightblue" stroke="midnightblue" points="148,-46.083 151.5,-56.083 155,-46.083 148,-46.083"/>
</g>
<!-- Node4 -->
<g id="node4" class="node"><title>Node4</title>
<g id="a_node4"><a xlink:href="$rand__sse_8cpp.html" xlink:title="Генерация рандомных чисел через SSE.">
<polygon fill="white" stroke="black" points="194,-0.5 194,-19.5 269,-19.5 269,-0.5 194,-0.5"/>
<text text-anchor="middle" x="231.5" y="-7.5" font-family="Helvetica,sans-Serif" font-size="10.00">rand_sse.cpp</text>
</a>
</g>
</g>
<!-- Node1&#45;&gt;Node4 -->
<g id="edge3" class="edge"><title>Node1&#45;&gt;Node4</title>
<path fill="none" stroke="midnightblue" d="M172.801,-50.6221C187.415,-40.7574 206.327,-27.9919 218.679,-19.6545"/>
<polygon fill="midnightblue" stroke="midnightblue" points="170.684,-47.8282 164.353,-56.324 174.6,-53.6302 170.684,-47.8282"/>
</g>
</g>
</svg>
