<?xml version="1.0" encoding="UTF-8" standalone="no"?>
<!DOCTYPE svg PUBLIC "-//W3C//DTD SVG 1.1//EN"
 "http://www.w3.org/Graphics/SVG/1.1/DTD/svg11.dtd">
<!-- Generated by graphviz version 2.38.0 (20140413.2041)
 -->
<!-- Title: BattleshipRoyale.cpp Pages: 1 -->
<svg width="818pt" height="218pt"
 viewBox="0.00 0.00 817.50 218.00" xmlns="http://www.w3.org/2000/svg" xmlns:xlink="http://www.w3.org/1999/xlink">
<g id="graph0" class="graph" transform="scale(1 1) rotate(0) translate(4 214)">
<title>BattleshipRoyale.cpp</title>
<polygon fill="white" stroke="none" points="-4,4 -4,-214 813.5,-214 813.5,4 -4,4"/>
<!-- Node0 -->
<g id="node1" class="node"><title>Node0</title>
<g id="a_node1"><a xlink:title=" ">
<polygon fill="#bfbfbf" stroke="black" points="382.5,-190.5 382.5,-209.5 491.5,-209.5 491.5,-190.5 382.5,-190.5"/>
<text text-anchor="middle" x="437" y="-197.5" font-family="Helvetica,sans-Serif" font-size="10.00">BattleshipRoyale.cpp</text>
</a>
</g>
</g>
<!-- Node1 -->
<g id="node2" class="node"><title>Node1</title>
<g id="a_node2"><a xlink:title=" ">
<polygon fill="white" stroke="#bfbfbf" points="0,-129 0,-148 54,-148 54,-129 0,-129"/>
<text text-anchor="middle" x="27" y="-136" font-family="Helvetica,sans-Serif" font-size="10.00">iostream</text>
</a>
</g>
</g>
<!-- Node0&#45;&gt;Node1 -->
<g id="edge1" class="edge"><title>Node0&#45;&gt;Node1</title>
<path fill="none" stroke="midnightblue" d="M382.263,-196.07C309.634,-191.334 177.792,-179.781 68,-154 64.7659,-153.241 61.4324,-152.314 58.1291,-151.3"/>
<polygon fill="midnightblue" stroke="midnightblue" points="59.0334,-147.912 48.4398,-148.075 56.8231,-154.554 59.0334,-147.912"/>
</g>
<!-- Node2 -->
<g id="node3" class="node"><title>Node2</title>
<g id="a_node3"><a xlink:title=" ">
<polygon fill="white" stroke="#bfbfbf" points="198.5,-67.5 198.5,-86.5 239.5,-86.5 239.5,-67.5 198.5,-67.5"/>
<text text-anchor="middle" x="219" y="-74.5" font-family="Helvetica,sans-Serif" font-size="10.00">string</text>
</a>
</g>
</g>
<!-- Node0&#45;&gt;Node2 -->
<g id="edge2" class="edge"><title>Node0&#45;&gt;Node2</title>
<path fill="none" stroke="midnightblue" d="M382.421,-199.989C296.786,-200.24 136.898,-195.026 101,-154 91.9273,-143.631 93.1838,-134.346 101,-123 120.412,-94.822 160.009,-84.2761 187.967,-80.3365"/>
<polygon fill="midnightblue" stroke="midnightblue" points="188.534,-83.7937 198.045,-79.1271 187.7,-76.8435 188.534,-83.7937"/>
</g>
<!-- Node3 -->
<g id="node4" class="node"><title>Node3</title>
<g id="a_node4"><a xlink:title=" ">
<polygon fill="white" stroke="#bfbfbf" points="110.5,-129 110.5,-148 195.5,-148 195.5,-129 110.5,-129"/>
<text text-anchor="middle" x="153" y="-136" font-family="Helvetica,sans-Serif" font-size="10.00">spdlog/spdlog.h</text>
</a>
</g>
</g>
<!-- Node0&#45;&gt;Node3 -->
<g id="edge3" class="edge"><title>Node0&#45;&gt;Node3</title>
<path fill="none" stroke="midnightblue" d="M386.971,-190.495C339.817,-182.196 267.293,-168.701 205,-154 200.676,-152.979 196.17,-151.84 191.698,-150.66"/>
<polygon fill="midnightblue" stroke="midnightblue" points="192.613,-147.282 182.046,-148.043 190.782,-154.038 192.613,-147.282"/>
</g>
<!-- Node4 -->
<g id="node5" class="node"><title>Node4</title>
<g id="a_node5"><a xlink:title=" ">
<polygon fill="white" stroke="#bfbfbf" points="214,-123.5 214,-153.5 312,-153.5 312,-123.5 214,-123.5"/>
<text text-anchor="start" x="222" y="-141.5" font-family="Helvetica,sans-Serif" font-size="10.00">spdlog/sinks/basic</text>
<text text-anchor="middle" x="263" y="-130.5" font-family="Helvetica,sans-Serif" font-size="10.00">_file_sink.h</text>
</a>
</g>
</g>
<!-- Node0&#45;&gt;Node4 -->
<g id="edge4" class="edge"><title>Node0&#45;&gt;Node4</title>
<path fill="none" stroke="midnightblue" d="M412.07,-190.475C386.522,-181.739 346.073,-167.907 313.753,-156.855"/>
<polygon fill="midnightblue" stroke="midnightblue" points="314.603,-153.447 304.008,-153.523 312.338,-160.07 314.603,-153.447"/>
</g>
<!-- Node5 -->
<g id="node6" class="node"><title>Node5</title>
<g id="a_node6"><a xlink:title=" ">
<polygon fill="white" stroke="#bfbfbf" points="473.5,-67.5 473.5,-86.5 526.5,-86.5 526.5,-67.5 473.5,-67.5"/>
<text text-anchor="middle" x="500" y="-74.5" font-family="Helvetica,sans-Serif" font-size="10.00">sqlite3.h</text>
</a>
</g>
</g>
<!-- Node0&#45;&gt;Node5 -->
<g id="edge5" class="edge"><title>Node0&#45;&gt;Node5</title>
<path fill="none" stroke="midnightblue" d="M448.48,-190.257C458.537,-181.99 472.792,-168.689 481,-154 491.037,-136.039 495.846,-112.766 498.101,-96.7307"/>
<polygon fill="midnightblue" stroke="midnightblue" points="501.611,-96.8601 499.331,-86.5136 494.661,-96.024 501.611,-96.8601"/>
</g>
<!-- Node6 -->
<g id="node7" class="node"><title>Node6</title>
<g id="a_node7"><a xlink:title=" ">
<polygon fill="white" stroke="#bfbfbf" points="402,-129 402,-148 472,-148 472,-129 402,-129"/>
<text text-anchor="middle" x="437" y="-136" font-family="Helvetica,sans-Serif" font-size="10.00">cxxopts.hpp</text>
</a>
</g>
</g>
<!-- Node0&#45;&gt;Node6 -->
<g id="edge6" class="edge"><title>Node0&#45;&gt;Node6</title>
<path fill="none" stroke="midnightblue" d="M437,-190.475C437,-182.08 437,-168.981 437,-158.163"/>
<polygon fill="midnightblue" stroke="midnightblue" points="440.5,-158.009 437,-148.009 433.5,-158.009 440.5,-158.009"/>
</g>
<!-- Node7 -->
<g id="node8" class="node"><title>Node7</title>
<g id="a_node8"><a xlink:href="$_battleship_royale_8h.html" xlink:title="Заголовочный файл с пространством имён, которое хранит в себе константы.">
<polygon fill="white" stroke="black" points="545,-67.5 545,-86.5 643,-86.5 643,-67.5 545,-67.5"/>
<text text-anchor="middle" x="594" y="-74.5" font-family="Helvetica,sans-Serif" font-size="10.00">BattleshipRoyale.h</text>
</a>
</g>
</g>
<!-- Node0&#45;&gt;Node7 -->
<g id="edge7" class="edge"><title>Node0&#45;&gt;Node7</title>
<path fill="none" stroke="midnightblue" d="M491.553,-193.81C520.117,-188.311 553.522,-177.042 575,-154 589.316,-138.642 593.275,-114.169 594.163,-97.1602"/>
<polygon fill="midnightblue" stroke="midnightblue" points="597.67,-96.8504 594.376,-86.7806 590.671,-96.7066 597.67,-96.8504"/>
</g>
<!-- Node8 -->
<g id="node9" class="node"><title>Node8</title>
<g id="a_node9"><a xlink:href="$_d_b_8h.html" xlink:title=" ">
<polygon fill="white" stroke="black" points="528,-129 528,-148 566,-148 566,-129 528,-129"/>
<text text-anchor="middle" x="547" y="-136" font-family="Helvetica,sans-Serif" font-size="10.00">DB.h</text>
</a>
</g>
</g>
<!-- Node0&#45;&gt;Node8 -->
<g id="edge8" class="edge"><title>Node0&#45;&gt;Node8</title>
<path fill="none" stroke="midnightblue" d="M452.76,-190.475C470.976,-180.622 501.173,-164.288 522.468,-152.77"/>
<polygon fill="midnightblue" stroke="midnightblue" points="524.138,-155.845 531.269,-148.009 520.808,-149.688 524.138,-155.845"/>
</g>
<!-- Node9 -->
<g id="node10" class="node"><title>Node9</title>
<g id="a_node10"><a xlink:href="$_regex_8h.html" xlink:title=" ">
<polygon fill="white" stroke="black" points="330.5,-129 330.5,-148 383.5,-148 383.5,-129 330.5,-129"/>
<text text-anchor="middle" x="357" y="-136" font-family="Helvetica,sans-Serif" font-size="10.00">Regex.h</text>
</a>
</g>
</g>
<!-- Node0&#45;&gt;Node9 -->
<g id="edge11" class="edge"><title>Node0&#45;&gt;Node9</title>
<path fill="none" stroke="midnightblue" d="M425.538,-190.475C412.825,-181.02 392.087,-165.596 376.747,-154.187"/>
<polygon fill="midnightblue" stroke="midnightblue" points="378.554,-151.169 368.441,-148.009 374.376,-156.785 378.554,-151.169"/>
</g>
<!-- Node10 -->
<g id="node11" class="node"><title>Node10</title>
<g id="a_node11"><a xlink:href="$server_2src_2_server_8h.html" xlink:title=" ">
<polygon fill="white" stroke="black" points="622,-129 622,-148 674,-148 674,-129 622,-129"/>
<text text-anchor="middle" x="648" y="-136" font-family="Helvetica,sans-Serif" font-size="10.00">Server.h</text>
</a>
</g>
</g>
<!-- Node0&#45;&gt;Node10 -->
<g id="edge13" class="edge"><title>Node0&#45;&gt;Node10</title>
<path fill="none" stroke="midnightblue" d="M473.299,-190.458C508.101,-182.032 561.993,-168.36 608,-154 610.556,-153.202 613.19,-152.34 615.829,-151.447"/>
<polygon fill="midnightblue" stroke="midnightblue" points="616.994,-154.747 625.276,-148.14 614.681,-148.14 616.994,-154.747"/>
</g>
<!-- Node14 -->
<g id="node15" class="node"><title>Node14</title>
<g id="a_node15"><a xlink:href="$rand__sse_8h.html" xlink:title=" ">
<polygon fill="white" stroke="black" points="692.5,-129 692.5,-148 757.5,-148 757.5,-129 692.5,-129"/>
<text text-anchor="middle" x="725" y="-136" font-family="Helvetica,sans-Serif" font-size="10.00">rand_sse.h</text>
</a>
</g>
</g>
<!-- Node0&#45;&gt;Node14 -->
<g id="edge17" class="edge"><title>Node0&#45;&gt;Node14</title>
<path fill="none" stroke="midnightblue" d="M491.75,-191.418C541.95,-183.894 618.118,-171.029 683,-154 686.036,-153.203 689.168,-152.293 692.288,-151.327"/>
<polygon fill="midnightblue" stroke="midnightblue" points="693.675,-154.555 702.086,-148.113 691.493,-147.904 693.675,-154.555"/>
</g>
<!-- Node8&#45;&gt;Node5 -->
<g id="edge9" class="edge"><title>Node8&#45;&gt;Node5</title>
<path fill="none" stroke="midnightblue" d="M540.266,-128.975C533.216,-120.05 521.965,-105.807 513.146,-94.6425"/>
<polygon fill="midnightblue" stroke="midnightblue" points="515.667,-92.1867 506.721,-86.5091 510.174,-96.5258 515.667,-92.1867"/>
</g>
<!-- Node8&#45;&gt;Node7 -->
<g id="edge10" class="edge"><title>Node8&#45;&gt;Node7</title>
<path fill="none" stroke="midnightblue" d="M553.734,-128.975C560.784,-120.05 572.035,-105.807 580.854,-94.6425"/>
<polygon fill="midnightblue" stroke="midnightblue" points="583.826,-96.5258 587.279,-86.5091 578.333,-92.1867 583.826,-96.5258"/>
</g>
<!-- Node9&#45;&gt;Node2 -->
<g id="edge12" class="edge"><title>Node9&#45;&gt;Node2</title>
<path fill="none" stroke="midnightblue" d="M337.228,-128.975C313.864,-118.901 274.786,-102.053 247.997,-90.5023"/>
<polygon fill="midnightblue" stroke="midnightblue" points="249.304,-87.2544 238.735,-86.5091 246.532,-93.6824 249.304,-87.2544"/>
</g>
<!-- Node11 -->
<g id="node12" class="node"><title>Node11</title>
<g id="a_node12"><a xlink:href="$server_2src_2con__handler_8h.html" xlink:title=" ">
<polygon fill="white" stroke="black" points="661.5,-67.5 661.5,-86.5 738.5,-86.5 738.5,-67.5 661.5,-67.5"/>
<text text-anchor="middle" x="700" y="-74.5" font-family="Helvetica,sans-Serif" font-size="10.00">con_handler.h</text>
</a>
</g>
</g>
<!-- Node10&#45;&gt;Node11 -->
<g id="edge14" class="edge"><title>Node10&#45;&gt;Node11</title>
<path fill="none" stroke="midnightblue" d="M655.45,-128.975C663.328,-119.962 675.945,-105.525 685.744,-94.3118"/>
<polygon fill="midnightblue" stroke="midnightblue" points="688.618,-96.342 692.563,-86.5091 683.347,-91.7356 688.618,-96.342"/>
</g>
<!-- Node12 -->
<g id="node13" class="node"><title>Node12</title>
<g id="a_node13"><a xlink:title=" ">
<polygon fill="white" stroke="#bfbfbf" points="604,-6 604,-25 684,-25 684,-6 604,-6"/>
<text text-anchor="middle" x="644" y="-13" font-family="Helvetica,sans-Serif" font-size="10.00">boost/asio.hpp</text>
</a>
</g>
</g>
<!-- Node11&#45;&gt;Node12 -->
<g id="edge15" class="edge"><title>Node11&#45;&gt;Node12</title>
<path fill="none" stroke="midnightblue" d="M691.977,-67.4751C683.41,-58.3733 669.639,-43.741 659.043,-32.483"/>
<polygon fill="midnightblue" stroke="midnightblue" points="661.411,-29.8923 652.009,-25.0091 656.314,-34.6899 661.411,-29.8923"/>
</g>
<!-- Node13 -->
<g id="node14" class="node"><title>Node13</title>
<g id="a_node14"><a xlink:title=" ">
<polygon fill="white" stroke="#bfbfbf" points="702.5,-0.5 702.5,-30.5 809.5,-30.5 809.5,-0.5 702.5,-0.5"/>
<text text-anchor="start" x="710.5" y="-18.5" font-family="Helvetica,sans-Serif" font-size="10.00">boost/enable_shared</text>
<text text-anchor="middle" x="756" y="-7.5" font-family="Helvetica,sans-Serif" font-size="10.00">_from_this.hpp</text>
</a>
</g>
</g>
<!-- Node11&#45;&gt;Node13 -->
<g id="edge16" class="edge"><title>Node11&#45;&gt;Node13</title>
<path fill="none" stroke="midnightblue" d="M708.023,-67.4751C715.253,-59.7932 726.191,-48.1717 735.798,-37.9643"/>
<polygon fill="midnightblue" stroke="midnightblue" points="738.497,-40.2038 742.802,-30.523 733.4,-35.4062 738.497,-40.2038"/>
</g>
</g>
</svg>
